<svg id="Шар_1" data-name="Шар 1" xmlns="http://www.w3.org/2000/svg" viewBox="0 0 5865.55 2217.15"><defs><style>.cls-1{fill:#be9851;}.cls-2{fill:#fefefb;}.cls-3{fill:#f8f086;}.cls-4{fill:#cdaf79;}.cls-5{fill:#c19c57;}.cls-6{fill:#8b1406;}.cls-7{fill:#fff;}.cls-8{fill:#8c1406;}.cls-9{fill:#bf9952;}.cls-10{fill:#131112;}.cls-11{fill:#bf9a53;}.cls-12{fill:#c3a05d;}.cls-13{fill:#c29e5b;}.cls-14{fill:#c3a05e;}</style></defs><title>буржуй лого-01</title><path class="cls-1" d="M5844.5,472c-46.57-89.77-118.83-145.94-218-164-30.89-5.6-43.56-15.74-48.78-48.35C5556.81,129.08,5446.86-1,5274,0,4488.68,4.5,3703.34,2,2918,2Q1755.58,2,593.14,2.32c-42.22,0-84.66.43-124.77,19.84C370.11,69.73,317.2,151.37,295.45,254.24c-7.32,34.56-20.08,50.48-55.79,55.86C123.51,327.6-1.42,443.79,0,602.18,3.07,939.55.72,1277,1.14,1614.34c.08,66.68,11.52,130.18,56.19,184.06,50.28,60.67,110.62,104.61,190,116,30.45,4.35,41.18,19.24,47.43,47.9,29.72,136.07,102.06,232.2,248.76,254.88h4776c37.69-7.81,76.22-9.9,110.42-32.82,84.42-56.56,134.3-134,147.7-234.26,2.92-21.87,11.09-31.77,33.33-35.18,48.1-7.37,94-22.36,134.25-50.92,64.66-45.94,103.56-108.85,120.33-185.93V558.33C5857.59,529.79,5858.73,499.39,5844.5,472ZM4461.9,414.47c-.66,21.29-16.74,17.54-20,17.71-26-1.89-42-2.7-57.88-4.34-8.26-.85-16.32-3.91-16.53-14s7.29-13.77,16-14.14c17.17-.74,34.39-1.27,51.56-.91C4446.48,399,4462.56,393.26,4461.9,414.47ZM3422.68,443.73c-8,6.74-16.75,3.3-29.18,2.81l14-28.63C3412.92,427.08,3417.64,435.12,3422.68,443.73ZM3103.62,413.9c-.22,21.13-29.39,18.12-47.94,19.1-13.24.69-28.74,2.75-29.48-18.39-.79-22.49,13.79-22.68,24.48-21.58C3075.36,393.58,3103.83,394,3103.62,413.9Zm-327.71,45.44c0,54.81,0,54.81-50.61,55.06-49.63.25-50.9-4.11-52.69-75.93-1-40.2,24.81-33,47.87-33.1,55.44-.29,55.44-.11,55.43,54Zm-543.56,750.87c.27-75.82.27-75.82,75.8-75.8,91.45,0,92.81,1.36,92.19,91.55-.36,52.62-6.24,59-58.59,62.36-10.3.66-20.67.24-31,.25C2232.07,1288.62,2232.07,1288.62,2232.35,1210.21ZM881.23,1525.71c0-80.91,0-81,81.84-83.17a342.5,342.5,0,0,1,41.41,1c36.55,3.49,54.76,20.68,55.92,57.57,3.4,108.56-.63,103.13-102,101.84C881.22,1602.93,881.22,1602.93,881.23,1525.71ZM1400,412.24c.33-16.06,9.18-21.22,21.48-17.76,17.52,4.92,46.86-1.55,49,20.3,2,20.12-24,16.92-32.9,17.5C1415.73,432.25,1399.48,436.32,1400,412.24Z"/><path class="cls-2" d="M5796.31,635.62c-.19-148.07-88.55-239.71-234.91-245.41-61.17-2.39-62.15-2.39-62-62.87.38-158.95-117.28-249-249-248.41-769.5,3.21-1539,1.57-2308.46,1.57H616.23c-146.79,0-239.9,92.39-241,238.79-.54,70.24-.54,70.24-72.63,70.74-120.25.87-218.1,93.3-224.17,212.87-2.45,48.25-3.87,96.61-3.69,144.91.52,139.29,5.38,278.66,2.29,417.86-2.9,131.29-1,262.51-2.44,393.75-1.09,98.18,23.89,184.05,111.63,242.06,48.62,32.14,102.88,30.28,156.65,30.28,26.38,0,33.77,8.79,32.84,34.06-1.51,41.28-2.81,82.87,11.93,122.92C425.48,2091.56,504,2142,627.85,2142h4613.4q19,0,38-.81c87-3.83,150.21-45.43,191.4-121.28,23.18-42.68,29.09-89.14,28.69-137-.42-50,0-49.53,48.46-50.67,25.24-.6,51.12-.34,75.51-5.8,105.12-23.52,172.86-119.33,173-244Q5796.87,1109.06,5796.31,635.62ZM2775.91,459.34c0,54.81,0,54.81-50.61,55.06-49.63.25-50.9-4.11-52.69-75.93-1-40.2,24.81-33,47.87-33.1C2775.92,405.08,2775.92,405.26,2775.91,459.34Zm-543.56,750.87c.27-75.82.27-75.82,75.8-75.8,91.45,0,92.81,1.36,92.19,91.55-.36,52.62-6.24,59-58.59,62.36-10.3.66-20.67.24-31,.25-78.68.05-78.68.05-78.4-78.36ZM1400,412.24c.33-16.06,9.18-21.22,21.48-17.76,17.52,4.92,46.86-1.55,49,20.3,2,20.12-24,16.92-32.9,17.5C1415.73,432.25,1399.48,436.32,1400,412.24ZM881.23,1525.71c0-80.91,0-81,81.84-83.17a342.5,342.5,0,0,1,41.41,1c36.55,3.49,54.76,20.68,55.92,57.57,3.4,108.56-.63,103.13-102,101.84C881.22,1602.93,881.22,1602.93,881.23,1525.71Zm2541.45-1082c-8,6.74-16.75,3.3-29.18,2.81l14-28.63c5.42,9.19,10.14,17.23,15.18,25.84Zm-372-50.7c24.68.55,53.15,1,52.94,20.87-.22,21.13-29.39,18.12-47.94,19.1-13.24.69-28.74,2.75-29.48-18.39-.79-22.47,13.8-22.66,24.48-21.59ZM4461.9,414.47c-.66,21.29-16.74,17.54-20,17.71-26-1.89-42-2.7-57.88-4.34-8.26-.85-16.32-3.91-16.53-14s7.29-13.77,16-14.14c17.17-.74,34.39-1.27,51.56-.91C4446.48,399,4462.56,393.26,4461.9,414.47Z"/><path class="cls-1" d="M5728,1557c-3.41-158.88-.73-317.88-.73-476.83,0-148.58.28-297.16-.1-445.74-.26-103.75-53.83-162.33-155.91-174.83-37-4.53-73.55-1.33-110.17,1.24-23.62,1.66-33.22-5.92-32.28-30.54,1.49-39.11.79-78.32.25-117.47-.89-63.85-27.7-113.09-84.27-144.43-30.25-16.76-63.53-18-97.25-18q-1155.82.27-2311.64.14h-2322c-97.25.08-155,49.19-170.38,145.27-7.34,45.79-1.38,92-1.17,137.94.1,20.68-6.15,28-28.61,25.58C383,456,351.63,456,320.66,457.51c-93.49,4.6-147.12,41.93-167.92,116.17-7.15,25.52-9.42,51.91-9.4,78.6q.33,457.85.4,915.67a391.69,391.69,0,0,0,6,65.18c12.24,71.7,65.93,120.25,138.55,128.17,41.35,4.51,82.58,6,123.88.71,22.4-2.89,31.25,6.17,30.29,28.85-1.54,36.77-2.7,73.68-1.47,110.44,3.58,106.39,66.13,167.93,172.11,170.43,25.32.6,50.67-.58,76-.58h4492c31.09,0,62.23,1.51,93.25.11,78.47-3.53,133.82-50.87,151.16-127.19,8.54-37.6,4.6-75.62,4.6-113.51,0-70.37-.15-68.71,71.65-65.69C5642.77,1770.78,5731.7,1727.53,5728,1557ZM1437.56,432.28c-21.83,0-38.08,4-37.58-20,.33-16.06,9.18-21.22,21.48-17.76,17.52,4.92,46.86-1.55,49,20.3C1472.42,434.9,1446.43,431.7,1437.56,432.28Z"/><path class="cls-3" d="M288.72,1111.54c-79-50.65-105-108.85-83.27-182.4,11.33-38.33,33.86-68.69,73.63-80.56,24.28-7.24,31.21-13.47,15-38.29-26.13-39.88-30.58-84.2-6.58-127.66,21-38,64-53,104-38.23,37.36,13.77,61.49,54,55,93.6C442,765.58,426,784.76,398,789.76c-21,3.75-38.24-5-48.5-24.67-4.29-8.21-8.71-17.15-2.06-25.9,8.25-10.86,13.48,1.1,20,3.5,10.89,4,21,2.77,27.5-7.27a27.16,27.16,0,0,0,.25-29.64c-6.5-10.34-17.51-16-29.78-12.14-25.56,8.07-40.51,26.36-42.6,53-2.36,30,6.46,57,28,78.79,18.59,18.86,38.66,36.35,56.38,56,45.7,50.61,44.67,123.85-1.29,164.32a84.54,84.54,0,0,1-96.38,10.5c-30.25-16.55-39.62-43.36-35.51-75.88,2.84-22.48,15.39-38.08,36.77-46,14.45-5.34,27.56-2.25,37.59,9.3,12.48,14.35,1,21.31-9.25,29.84-13.64,11.4-9.75,25.31.14,36.58S363,1025.6,376.63,1017c21.36-13.5,31.3-33.29,26.71-58.87-7.91-44-42.23-74.68-82.65-74.33-42.14.37-82.19,37.65-87.51,83.25-5,43.21,8.82,81,43.87,106.54,36.8,26.85,79.19,34.55,119.89,9.29,27.54-17.09,30.41-6.47,28.64,17.9a173.62,173.62,0,0,0,0,24.18c1.52,22.55-2.73,29.52-26,15.54-37.37-22.49-77.77-23-114.43,1.38-38.36,25.56-54.81,64.34-52.34,110.1,2.45,45.37,44.16,85.44,88,86.38,39.3.84,75.35-31.59,82.65-74.8,4.06-24-4.74-43.42-24.61-56.66-13.83-9.22-29-9.22-40.1,5-10.27,13.11-13.3,27.44,2.65,39.06,8.85,6.45,17.8,11.95,9.29,24.51-8,11.75-19,16.2-32.82,13.13-20.59-4.58-36.53-15.67-41.67-36.78-6.2-25.47-6-51,14.62-70.86,22.81-21.88,49.81-34.17,81.66-23.34,38.28,13,60.9,41.18,66.66,80.75,6,41.2-7,77.32-36.31,107.12-17.75,18.07-36.44,35.23-53.8,53.66-20.82,22.1-30.8,48.73-26.11,79.14,3.77,24.47,17.25,42.62,41.51,50.53,12.39,4,23.38-1.57,30.11-11.51,6.84-10.11,6.58-22.28-1-32.39-7.38-9.79-17.62-9.66-27.86-4.38-5.65,2.91-10.5,10.86-17.57,3-6.4-7.12-3.62-14.89-.58-22.62,12.43-31.54,50.28-39.83,76.85-16.74,30.75,26.72,31.55,73.52,1.85,108.54-29,34.21-81.38,40.75-114.87,14.36-43.15-34-53.37-99-19.49-149.68,16.13-24.16,17.29-34-12.84-44.54-51.08-17.81-75.46-59.29-79.86-111-4.88-57.28,18.73-102.93,65.91-136C271.41,1121.32,278.4,1117.71,288.72,1111.54Z"/><path class="cls-3" d="M5451.52,1150.93c-.59-11.24-1.07-16.9-1.16-22.57-.84-52.12-.82-52.12,46.2-37.19,55.59,17.65,112.25-9.83,134.92-65.42,21.22-52,.89-110.89-45.5-133.9-33.65-16.7-63.61-7.61-89.49,14.57-24.49,21-31.53,49.86-24.65,81.55,4.22,19.42,18.39,28.63,36.29,32.43,12.86,2.73,22.88-4.06,28.6-14.88,8.23-15.56,3.71-28.1-10.79-38.6-9.18-6.65-7.08-16.29-.27-24.21,9.35-10.87,21.25-13,34.46-8.31,30.78,11,40.77,36.32,40.59,65.44s-29.77,58.52-59.63,63.42c-67.39,11-120.8-45.91-108.89-114.41,7.19-41.32,31-70.64,61.22-96.94,34-29.65,61.5-62.78,54.43-112.61-4.64-32.7-30.73-52.67-56.75-43.62-15.88,5.52-22.55,16.17-18.53,31.83,4.35,16.92,16.26,21.34,31.92,14.19,7-3.2,14-11.22,20.11-.08,4,7.35,2.54,15.63-1.31,23.25-16.85,33.35-63.64,34.85-85.64,2.63-19.93-29.18-17.84-58.27.67-87.24,20.91-32.72,50.75-45.24,88.72-39.43,32.47,5,62.77,32,67.92,65.36,5.87,38,6.06,77-19.4,109.06-14.52,18.29-9,21.85,9.62,29.46,89,36.29,116.59,144.46,58,220.59-15.12,19.67-38.37,28.1-57.83,44.17,17.15,13.11,35,23.82,49.26,38.15,61.83,62.35,52.74,199.45-50.9,229.44-20.36,5.89-22,11.21-9,29.32,44.28,62,31.52,137.19-26,167.21-30.09,15.71-69.48,11.12-93.29-10.87-28.78-26.59-38.86-65.75-24.87-97,8.6-19.22,23.21-32.18,43.92-35,18.18-2.44,33.69,5.9,45.25,20.14,6.93,8.53,9.84,19.21,5,29.2-7.12,14.77-14.73,1.48-22.15-1-11-3.64-20.88-2-27.14,8.4-5.73,9.57-5.94,20.35.56,29.38,7.06,9.81,17.21,15.6,30,11.82,24.31-7.21,39.17-22.31,42-48.77,5.2-49.24-19.84-83.46-55-112.4-51.22-42.13-72.69-97.22-55.5-148.17,12-35.59,37.07-58.25,74.18-64.62,31.59-5.42,56.11,10.18,75,33.61,27.54,34.14,12.54,87.25-26.82,99.54-13.48,4.21-25.22,2.34-34.37-8.66-9.74-11.7-4.69-20.27,5.88-28.89,14.8-12.08,11.83-26.78,1-39.32-11.47-13.29-26.47-13.15-40.59-4.15-16.88,10.76-24.53,27.5-23.8,47,1.66,43.79,40,83.32,80.93,84.73,42.32,1.46,83.87-36.9,88.71-81.15,5-46-7.58-85.2-46.21-112.08C5546.58,1114.2,5500.48,1120.28,5451.52,1150.93Z"/><path class="cls-4" d="M4871.16,1623.25c4.79,101.18,6.16,202.42,4.66,303.7l-11.28-13.2q0-145.66-.11-291.32Q4868.19,1619.68,4871.16,1623.25Z"/><path class="cls-5" d="M4684.78,875.85l-15.33-68.51,13.64-20.77c-4,27.84,0,54.86,8.3,81.45C4695,875.56,4690.91,876.55,4684.78,875.85Z"/><path class="cls-6" d="M3243.4,1313.78c10.24-8.07,14.62-11.23,18.68-14.76q100.1-87,200.2-174c-3.12-3.34-4.43-6-5.87-6.1-52.93-2.62-52.93-2.58-52.93-55.32,0-72.55.62-145.11-.41-217.64-.27-19,4.29-25.66,24.5-25.41q129.53,1.64,259.09,0c18.57-.21,22.94,5.77,22.77,23.37-.82,84.06-1,168.13.09,252.19.24,19-6.49,25.2-23.65,22-39.23-7.37-66.7,12.19-95.08,36-75.75,63.66-153.13,125.43-230.63,187-17.59,14-20.61,21.1-1.07,37.69,82.43,70,164.22,140.77,243.7,214,24.36,22.46,48.61,32.52,79.91,28.33,21.28-2.85,27.23,5.24,26.89,26.64-1.29,81.74-1.13,163.52-.09,245.27.26,20-3.1,27.89-25.82,27.49-85.19-1.52-170.43-1.18-255.63-.18-19.45.23-25.37-5.22-25-24.88,1.52-79.41,2.78-158.87,1.16-238.26-.58-28.27,6.55-40.58,35.49-36.08,5.53.86,11.3.12,7.75.12l-195.19-213-8.78,4.8c0,63.91.11,127.83-.07,191.74-.05,19.74,14.31,17.21,26.57,17.9,60.45,3.42,60.43,3.37,60.41,61.82,0,70.25-.67,140.5.42,210.73.3,19.33-4.91,25.4-24.75,25.15q-126.08-1.59-252.18.05c-20.92.3-24.23-7.42-24-25.88.89-81.75,1.21-163.53-.15-245.27-.38-22.78,6.32-28.88,28.75-28.58,57,.78,57-.35,57-57.79V1408.8l-217.94,206.91c2.22,3,3.34,6,4.66,6.11,50.9,3.55,50.9,3.51,50.9,54.61,0,71.4-.6,142.8.37,214.19.28,20.7-2.75,30.47-27.54,30-84-1.7-168.13-1.37-252.18-.15-21.33.31-27.34-5.68-27-27,1.22-81.74,1.37-163.53-.07-245.27-.41-23,8.4-28.62,28.12-25.39,34.91,5.72,60.59-8.91,85.87-32.24,78.62-72.54,158.87-143.33,239.1-214.11,12.55-11.07,18.12-17,1.72-30.34q-131.18-106.79-260.71-215.59c-20.29-17-43.18-13.41-65.75-12-19.55,1.22-28.79-2.26-28.37-25.56,1.48-82.89,1-165.82.23-248.73-.17-17.81,4.82-23.81,23.21-23.63q129.54,1.3,259.1.07c17-.14,24.52,3.33,24.3,22.52q-1.41,126.08,0,252.19c.19,18.29-5.5,25.09-23.55,23-10.05-1.16-20.35-.21-39.9-.21l225.41,196.18c0-65.26-.37-123.29.24-181.31.17-16.45-10-14.36-20.42-15-65-3.75-65-3.86-65-70.28,0-66.79.84-133.6-.49-200.37-.42-20.92,4.78-27.35,26.52-27,84,1.35,168.12.75,252.19.37,15.36-.07,26.58,0,24.86,21.27-6.68,82.7-2.32,165.62-2.31,248.43,0,23-6.72,28.79-28.88,28.16-58.71-1.66-58.74-.69-58.74,59.53C3243.4,1220.71,3243.4,1263.25,3243.4,1313.78Z"/><path class="cls-7" d="M2927.84,1930.61h-2.1c-74.47-1.51-154.49-1.56-251.83-.15-10,.14-21.26-.73-28.86-8.33s-8.46-18.83-8.31-28.82c1.31-88,1.29-168.14-.07-244.94-.16-9.15.68-22.22,9.83-30.14,8.89-7.68,21.33-6.7,29.91-5.29,27.31,4.47,49.75-4.14,77.47-29.72,78.57-72.5,160.06-144.38,238.86-213.9l.41-.36c2.43-2.14,7.33-6.47,8.4-8.51-.39-.75-1.76-2.82-6.37-6.58-77.91-63.42-160.79-132-260.82-215.68-15.26-12.77-32.36-11.55-52.16-10.14l-6.55.45c-11.06.69-22.39.29-30.27-7.25-8.13-7.78-8.87-20-8.72-28.46,1.49-83.65,1-168.84.23-248.45-.08-8.9.77-18.94,7.79-26s17.33-7.87,25.53-7.78c79.61.79,164.3.82,258.92.07,9.73-.09,19.74.81,26.69,7.78s7.78,17.58,7.69,24.86c-.9,80.76-.91,165.53,0,252,.09,8.9-.82,20-8.77,27.19s-18.54,6.71-25.92,5.86a103.41,103.41,0,0,0-12.45-.5l189.09,164.57q0-16,0-31.52c-.07-44.31-.14-86.16.3-127.93a13.76,13.76,0,0,0-.43-4.22,35.79,35.79,0,0,0-6.36-.5c-1.34,0-2.74-.07-4.2-.15-35.13-2-52.76-3-63.65-14.83s-10.78-29.63-10.78-65.41c0-18.63.07-37.55.13-55.85.17-47.33.34-96.28-.62-144.34-.2-10.11.6-21.45,8.08-29s18.68-8.41,28.59-8.24c75.32,1.21,152,.84,226.12.49l25.86-.12c10.51,0,21.35-.09,28.71,7.85,5,5.42,7,13.35,6.17,24.23-4.75,58.84-3.85,119-3,177.22.34,23.07.7,46.92.7,70.4,0,10.49-1.07,22.27-9.06,30s-19.65,8.43-30.11,8.13c-21.87-.62-39.16-1.11-43.81,3.42s-4.64,21.06-4.64,46.11v115.07c.75-.61,1.44-1.2,2.13-1.79q80.94-70.3,161.86-140.7l25.94-22.56c-20.94-1.22-32.57-3-40.47-11.3-9.37-9.81-9.37-24.36-9.37-53.35,0-19.78,0-39.88.09-59.32.12-51.86.24-105.49-.5-158.18-.14-9.58.7-20.35,7.91-27.57s18.09-8.09,26.72-8c83,1,167.63,1.06,258.86,0,8.11-.1,18.35.69,25.27,7.6s7.7,16.92,7.61,25.87c-.9,92.58-.88,175,.09,252,.1,8.36-.74,20.31-9.28,27.48-6.14,5.15-14.71,6.61-26.22,4.45-35.14-6.6-60.1,11.44-86.8,33.87-76.41,64.22-155.94,127.66-230.84,187.14-10.17,8.07-10.71,10.54-10.72,11,0,.12.07,2.93,9.91,11.28,67.59,57.37,156.42,133.57,244,214.3,23.49,21.65,45,29.36,71.81,25.77,8.25-1.1,20.2-1.69,28.71,5.88,8.73,7.76,9.67,20.56,9.5,30.83-1.2,75.73-1.23,155.86-.09,245,.13,10.27-.37,21.86-8.08,29.54-7.51,7.47-18.86,8.25-27.91,8.08-73.95-1.32-152.7-1.38-255.34-.18-9.41.13-20-.76-27.26-8.05s-8-18.29-7.84-27c1.53-80.26,2.77-158.84,1.16-237.86-.29-14.3.87-30.19,11.69-39.65,4.75-4.15,10.67-6.56,18.1-7.3l-170.52-186.11v42.11c0,45.33,0,92.21-.08,138.33,0,1.67.14,5.64,1.61,6.45,2,1.08,6.48,1.18,10.47,1.27,1.64,0,3.33.08,5.05.17h.13c32.69,1.85,49.1,2.78,59.35,13.27s10.37,26.62,10.36,58.46q0,27.7-.11,55.28c-.14,50.94-.28,103.61.52,155.36.15,9.43-.68,20.06-7.91,27.31s-18.22,8.11-27,8c-89.08-1.12-171.48-1.1-251.91,0-8.44.12-19-.66-26.28-7.87-7.48-7.46-8-18.43-7.89-28.12,1.08-98.67,1-174.23-.15-245-.17-10.41.71-22.12,8.61-30s19.74-8.84,30.28-8.69c20.37.28,38,.52,42.47-3.93s4.41-20.06,4.41-43.86V1432.09l-190.28,180.65c20.08,1.59,31.25,3.57,38.87,11.76,9,9.71,9,23.82,9,51.93,0,19.71,0,39.74-.09,59.11-.12,50.8-.24,103.33.46,154.94.16,11.52-.38,23.45-8.56,31.58C2947.48,1929.44,2936.32,1930.61,2927.84,1930.61Zm-123.74-21.19c43.26,0,83.39.39,122,1.17,10.2.2,13.57-1.62,14.68-2.72,2.53-2.51,2.75-10.47,2.66-17.12-.7-51.77-.58-104.38-.46-155.26,0-19.36.09-39.38.09-59.06,0-20.69,0-34.36-3.67-38.31s-17.25-4.88-37.82-6.32h-.11c-6-.42-8.82-5-10.49-7.8-.49-.8-1-1.64-1.52-2.35l-5.24-7.11,241.22-229v177.4c0,31.88,0,47.88-10.36,58.1s-27.9,10.08-56.79,9.69c-8.53-.1-13.86.83-15.84,2.82s-2.92,7.23-2.78,15.59c1.18,71,1.23,146.69.15,245.55-.08,7.7.59,12.32,2,13.73.66.66,3.13,2.16,11.87,2,80.62-1.16,163.19-1.17,252.45,0,9,.11,11.71-1.28,12.55-2.12s2.22-3.63,2.07-12.87c-.8-51.93-.66-104.69-.53-155.72q.07-27.58.11-55.17c0-24.81,0-39.74-4.67-44.54s-20.38-5.82-46.17-7.28h-.13c-1.38-.08-2.84-.11-4.38-.15-6.27-.14-13.38-.31-19.63-3.73-8-4.38-12-12.47-12-24,.13-46.08.1-92.94.08-138.26V1407.2l20.86-11.41,198.44,216.58a9.48,9.48,0,0,1,4.67,4.51l2.79,5.45-3.59,5c-1.3,1.8-4.35,6-18.48,3.81-9.6-1.49-16-.89-19.1,1.8-3.54,3.1-5.13,11-4.86,24.19,1.62,79.39.38,158.19-1.16,238.65-.17,9,1.21,11.71,2,12.55s3.61,2.24,12.83,2.14c102.85-1.2,181.78-1.14,255.93.18,9.91.18,12.7-1.52,13.45-2.26,2.36-2.34,2.23-11.95,2.19-15.1-1.14-89.32-1.11-169.64.09-245.56.18-11.23-1.68-14.57-2.8-15.57-.8-.71-3.64-2.22-12.77-1-32.92,4.4-60.06-5.12-88-30.89-87.32-80.48-175.94-156.51-243.39-213.76-8.49-7.2-17.14-16-17-26.86s9.13-19,18.28-26.29c74.8-59.39,154.2-122.74,230.42-186.79,29.54-24.82,59.67-46.42,103.36-38.22,7.57,1.42,9.47.06,9.66-.11s2.27-2.19,2.15-11.92c-1-77.12-1-159.68-.09-252.41.08-8.74-1.19-11-1.74-11.52s-2.52-1.85-10.92-1.75c-91.38,1-176.21,1-259.33,0-9.11-.09-11.64,1.44-12.31,2.11-1,1-2.19,4.12-2.06,13.16.75,52.86.63,106.57.51,158.51,0,19.43-.09,39.52-.09,59.28,0,21.39,0,35.52,3.84,39.54s18,4.73,39.49,5.79h.1c5.44.27,8.42,4,10.4,6.54.69.88,1.41,1.79,2.29,2.72l7.07,7.57L3430.42,1166l-161.87,140.7c-2.76,2.4-5.57,4.57-9.82,7.86-2.46,1.91-5.44,4.22-9.24,7.21l-16.19,12.75V1178.18c0-33.33,0-50.05,10.7-60.45s27.62-9.94,58.32-9.07c8.41.24,13.66-.6,15.6-2.48,1.37-1.33,3-5.13,3-15.68,0-23.34-.36-47.11-.7-70.11-.88-58.67-1.79-119.33,3-179.13.47-5.86-.38-8.46-.9-9-1.39-1.5-9.25-1.46-13.95-1.44l-25.86.12c-74.24.35-151,.72-226.53-.49-10.07-.17-13.16,1.41-14.11,2.36-1.14,1.14-2.45,4.58-2.26,14.45,1,48.29.79,97.35.62,144.8-.06,18.28-.13,37.18-.13,55.76,0,28.65,0,45.93,5.47,51.86s22.24,6.83,50.11,8.44c1.2.07,2.39.1,3.56.13,5.32.14,11.35.29,16.68,3.59,6.48,4,9.71,11.18,9.6,21.34-.44,41.64-.37,83.44-.29,127.68,0,17.38.06,35.17.06,53.53v22l-262-228.22H2890c6.77,0,12.4-.12,17.37-.22,9.57-.2,16.48-.34,23.68.49,7.66.88,9.78-.43,10.25-.85s2.26-2.76,2.16-12.12c-.89-86.58-.88-171.5,0-252.4.09-7.93-1.4-10-1.86-10.51-.9-.9-3.78-2-12.36-1.9-94.74.75-179.55.73-259.28-.07-8.26-.06-10.58,1.32-11.19,1.92s-2,3.26-1.92,11.61c.76,79.75,1.27,165.12-.23,249-.18,10,1.72,12.86,2.55,13.65,2.64,2.53,12.09,1.94,15.2,1.74,2.12-.13,4.25-.28,6.37-.43,21.08-1.5,45-3.2,66.42,14.75,100,83.66,182.77,152.14,260.61,215.51,6.35,5.17,13.66,12.31,13.85,21.74.2,10.2-7.66,17.14-15.27,23.85l-.41.36c-78.72,69.44-160.13,141.25-238.53,213.6-19.77,18.24-44.19,36.13-77.84,36.13a101.43,101.43,0,0,1-16.43-1.37c-9.36-1.53-12.53-.23-13.59.69s-3.11,3.87-2.92,14.65c1.36,77,1.39,157.35.07,245.6-.14,9.71,1.26,13.18,2.46,14.38s4.67,2.62,14.42,2.47C2720.71,1909.76,2763.76,1909.42,2804.1,1909.42Z"/><path class="cls-6" d="M4968.69,1318.45q-100.06,123-200.22,245.92c-12.4,15.16-13.16,33.4-7.74,49,5.52,15.87,24.34,7.74,36.75,8.65,49.4,3.64,49.81,2.82,49.38,52.62-.64,73.66-2.56,147.31-2.3,221,.07,19.79-5.88,25-25.17,24.76q-124.39-1.47-248.81,0c-18.45.2-26-3.3-25.67-24q1.81-124.38,0-248.8c-.37-22.19,7.24-26.59,27.56-26.7,62.84-.36,62.84-1.2,62.84-65.66,0-135.93-.7-271.86.64-407.78.24-24.87-7-30.32-30.63-29.78-59.83,1.37-59.85.15-59.85-58.69,0-69.12.93-138.25-.53-207.34-.48-22.77,3.31-33.76,29.2-31.06,23.94,2.49,51.07-5.85,71.73,2.75s13.47,39.7,21.6,60.11c26.15,65.69,77.47,99.13,143.23,110.11,33.74,5.64,41.31,21.09,36,50.25-.41,2.26-1.4,4.46-1.53,6.73-1.31,21.55,5.29,49.65-5.84,62.91-12,14.34-41.11,3.56-62.71,4.69-9.9.51-17.86.44-17.81,14.1.31,93.85.16,187.7.16,291.59,61.48-76.43,116.61-145,171.76-213.52,13.71-17,29.25-32.89,40.87-51.24,17.57-27.72,9.61-40.52-22.77-40.76-57.72-.44-57.72-.44-57.77-58.54a48.71,48.71,0,0,0,0-6.91c-5.14-35.28,3.45-53.59,45.25-59.58,80.46-11.53,134.47-70.41,148.38-151.3,2.7-15.73,7.49-20.51,23.43-21.31,84.54-4.23,84.52-4.73,84.52,79.55,0,63.36-1,126.74.52,190.06.55,22.94-6.44,28.92-29,28.61-59.06-.83-58.89.32-58.84,61.26.12,135.93.77,271.87-.59,407.78-.27,26.56,6.16,38.72,33.79,35.1,7.93-1,16.26.85,24.14-.35,24.28-3.7,31,6,30.55,30.18-1.5,80.61-1.06,161.27-.21,241.89.2,18.75-4.17,26-24.63,25.78q-126.12-1.66-252.26,0c-20.31.27-24.81-6.55-24.59-25.58,1-81.78,1.24-163.58-.13-245.35-.38-22.94,6.4-29,29-28.77,58.65.67,57.45-.45,56.57-59.35-1.19-80.21-.3-160.45-.3-240.68Z"/><path class="cls-7" d="M4914.74,1930.41c-8.36,0-18.42-1.09-25.33-8-7.23-7.22-8.12-17.59-8-27.72,1.12-95.36,1.08-173.23-.13-245.07-.17-10.44.71-22.19,8.63-30.15s19.85-8.92,30.46-8.79c20.72.23,38.61.44,43-3.94,4.11-4.13,3.87-19.94,3.54-41.82l0-3.45c-.84-56.23-.65-113.37-.46-168.63.06-18.34.12-37.16.15-55.89l-41.46,51c-48.73,59.94-99.12,121.93-148.86,182.75-12,14.73-9,31-6,39.37,1,3,2.54,3.95,15.15,2.58a71.77,71.77,0,0,1,12.89-.62l2.45.18c26.18,1.92,39.33,2.89,47.93,12.43s8.5,23.95,8.27,50.07c-.24,27.32-.66,55.09-1.06,81.94-.69,45.54-1.4,92.64-1.24,138.91,0,9.27-.91,19.71-8.15,26.89s-17.78,8-27.14,7.91c-79.07-.93-162.7-.95-248.58,0-11.93.13-21.22-1.17-27.92-7.9-7.19-7.22-8-17.83-7.85-26.27,1.28-87.9,1.26-169.18,0-248.49-.15-9,.64-20.42,8.16-28.11s18.49-8.7,29.35-8.76c24.76-.14,42.65-.25,47.77-5.66s5.12-23.15,5.12-50c0-34.77,0-70.11-.09-104.28-.13-99.5-.27-202.4.73-303.61.09-9.12-.94-14.81-3.08-16.92s-7.79-3-17.33-2.77c-30.31.7-48.61,1.11-59.45-9.48-10.63-10.39-10.63-26.71-10.63-59.21,0-19.39.07-39.11.15-58.17.18-48.85.37-99.37-.67-149-.26-12.15.25-25.83,9.49-34.34,8.82-8.12,21.77-7.82,30.74-6.88,8.51.88,17.63.25,27.28-.42,16-1.11,32.51-2.26,47.26,3.88,18.91,7.87,21.15,28,23,44.16.89,8,1.73,15.55,4.09,21.48,23,57.79,68.62,92.76,135.58,104,19.2,3.21,31.53,9.52,38.79,19.85,9.3,13.23,7.53,30.34,5.4,42.05a37.11,37.11,0,0,1-.92,3.71,17.54,17.54,0,0,0-.47,1.86,192,192,0,0,0,.3,20.11c.86,17.92,1.75,36.44-8.45,48.6-11.6,13.83-31.51,11.57-49.06,9.58-7.2-.82-14.64-1.66-20.79-1.34l-1,.05a39.76,39.76,0,0,0-7,.72,12.4,12.4,0,0,0-.32,3.31c.23,70.63.21,141.32.18,216.15v47.08l32.77-40.74c42-52.17,81.57-101.42,121.2-150.65,4.48-5.56,9.17-11,13.71-16.32,9.76-11.38,19-22.13,26.51-34,7.23-11.4,8.37-18.07,7.14-20.31-.28-.51-3.23-5-21.54-5.1-31.58-.24-47.43-.36-57.56-10.62s-10.11-26.17-10.14-57.91c0-.87,0-1.75.06-2.62a20,20,0,0,0,0-2.85c-2.21-15.19-3.36-34.5,7.56-49.11,8.67-11.6,23.34-18.53,46.16-21.8,74-10.61,126.36-64.1,139.94-143.09,3.54-20.56,12.42-28.59,32.79-29.61l1.47-.07c44.28-2.22,66.5-3.33,80,9.51s13.54,35.32,13.54,80c0,18.06-.08,36.33-.16,54-.2,44.57-.4,90.67.68,135.9.23,9.77-.52,22-8.47,30s-19.94,8.94-30.67,8.79c-21.92-.31-39.23-.55-44,4.15s-4.72,21.35-4.7,46.59v.51q0,42.47.12,84.94c.18,105.84.36,215.29-.71,322.95-.12,12.54,1.43,20.06,4.76,23,2.87,2.54,8.83,3.24,17.73,2.08a74.7,74.7,0,0,1,13.54-.2,54.92,54.92,0,0,0,10.39-.12c9-1.37,22.17-2.26,31.57,6,9.7,8.49,10.69,22.78,10.48,34.28-1.54,82.75-1,165-.21,241.6.1,9.67-.78,20.54-8.1,27.83s-18.1,8.16-26.66,8c-83.53-1.1-168.32-1.1-252,0Zm4.23-299.72c-8,0-13,1-14.88,2.9s-3,7.3-2.81,15.71c1.21,72,1.25,150.08.13,245.63-.11,9.16,1.1,12.3,2.13,13.33.68.68,3.23,2.24,12.33,2.13,83.86-1.1,168.82-1.1,252.53,0,8.63.1,11.4-1.34,12.28-2.21,1.55-1.55,2.3-6.08,2.22-13.46-.8-76.73-1.33-159.17.21-242.18.24-12.73-1.86-17.28-3.66-18.86-2.25-2-7.72-2.41-15.39-1.25a70.56,70.56,0,0,1-14.36.32,59,59,0,0,0-10,.05c-15.32,2-26-.2-33.6-6.94-10.37-9.19-11.63-24.46-11.49-38.18,1.08-107.54.89-216.93.71-322.72q-.07-42.48-.12-85v-.51c0-33.48,0-50.29,10.65-60.84s28.64-10.33,58.33-9.92c8.74.12,14.17-.84,16.17-2.87,1.36-1.38,2.94-5.18,2.69-15.5-1.09-45.51-.89-91.75-.69-136.46.08-17.65.16-35.9.16-53.83,0-36.6,0-58.64-7.33-65.61s-29.1-5.84-65.22-4l-1.47.07c-5.54.28-8.94,1.07-10.39,2.41s-2.7,4.85-3.69,10.61c-7.26,42.22-25.2,79.19-51.89,106.9-27.45,28.51-63.74,46.7-104.93,52.6-17,2.43-27.76,7-33,14-5.08,6.8-6.25,17.37-3.79,34.26a34.7,34.7,0,0,1,.2,6.51c0,.61,0,1.22,0,1.82,0,23.78,0,39.48,4.38,43.88s19.89,4.49,43.47,4.67c20.6.16,33.34,5.24,39,15.53s3,23.5-7.81,40.59c-8.3,13.1-18.43,24.9-28.23,36.32-4.44,5.17-9,10.52-13.3,15.84-39.62,49.23-79.23,98.48-121.19,150.65l-68.36,85V1348.22c0-74.82,0-145.48-.18-216.08,0-9.69,3.25-16.56,9.75-20.42,5.16-3.07,11-3.36,16.57-3.64h1c7.8-.41,16.07.53,24.08,1.44,13.17,1.49,26.79,3,31.49-2.56,5.17-6.17,4.44-21.37,3.8-34.79a209.47,209.47,0,0,1-.28-22.3,27.51,27.51,0,0,1,1.22-6.15c.2-.68.38-1.33.46-1.76,2.37-13,1.71-21.58-2.09-27-3.92-5.58-12.34-9.38-25.72-11.62-74.34-12.42-125.1-51.55-150.87-116.28-3.36-8.44-4.39-17.7-5.39-26.66-1.7-15.24-3.12-24.73-10.76-27.91-10.39-4.32-23.9-3.39-38.19-2.39-10.08.7-20.5,1.42-30.74.36s-13.93.61-15.12,1.71c-3,2.79-3.19,12.29-3,19.2,1,49.84.86,100.48.68,149.46-.07,19-.15,38.74-.15,58.09,0,24.33,0,40.4,4.61,44.91,4.82,4.71,23.45,4.28,45,3.79,11.77-.28,23.78.58,31.84,8.53s9.13,20.36,9,31.35c-1,101.1-.86,203.94-.73,303.39,0,34.18.09,69.53.09,104.29,0,35,0,52.54-10.59,63.74-11,11.63-29.18,11.73-62.19,11.92-3.1,0-12.55.07-15.16,2.75-1.21,1.23-2.61,4.63-2.46,13.79,1.32,79.52,1.33,161,0,249.11-.13,8.75,1.37,11.21,2,11.87,1.41,1.42,6,2.09,13.54,2,86-.91,169.82-.9,249,0,9.2.09,12-1.27,12.82-2.11s2.27-3.6,2.24-12.62c-.16-46.46.55-93.64,1.24-139.28.41-26.82.83-54.55,1.06-81.81.16-18.29.28-32.73-3.12-36.5-3.23-3.58-16.36-4.54-34.54-5.87l-2.45-.18a57.57,57.57,0,0,0-9.27.56c-5.76.62-12.3,1.33-18.49,0-8.63-1.89-14.75-7.37-17.71-15.87-7.3-21-3.85-42.33,9.45-58.6,49.72-60.8,100.1-122.78,148.82-182.71l51.38-63.19,4.14-5.09,21.46,6v7.58c0,24.09-.08,48.58-.16,72.27-.19,55.17-.38,112.22.46,168.27l0,3.44c.47,30.71.71,46.13-9.36,56.24-10.32,10.36-27,10.17-57.37,9.82Z"/><path class="cls-8" d="M4870.54,794.15c49.38,0,98.77.76,148.12-.37,20.62-.47,25.18,6.11,22,26.14-14.23,90.56-76.73,141.83-173.79,140.75-93.67-1-155.31-55-166.79-144.67-2.12-16.57,1.43-22.47,18.86-22.17C4769.48,794.72,4820,794.15,4870.54,794.15Z"/><path class="cls-7" d="M4869.9,970.7h-3.1c-98.43-1.1-164.45-58.44-176.6-153.4-1.12-8.77-1.42-18.69,4.91-25.76s16.18-7.81,24-7.68c36.18.63,73,.51,108.68.4,14,0,28.48-.09,42.72-.09h.18c14.19,0,28.61.06,42.55.13,34.5.15,70.17.31,105.17-.49,9.13-.21,20.49.57,27.43,8.5s6.27,19.21,4.71,29.2C5035.65,916.45,4969.87,970.69,4869.9,970.7ZM4710,804.88c-.21.44-.91,2.58,0,9.87,10.93,85.4,68.15,135,157,135.94,92.07,1.06,150.24-46,163.8-132.3,1.67-10.65.18-12.72,0-12.92s-1.8-1.91-11.92-1.67c-35.27.81-71.08.65-105.71.49-13.92-.06-28.32-.12-42.46-.12h-.18c-14.21,0-28.67,0-42.66.09-35.74.11-72.7.23-109.09-.4C4712.32,803.73,4710.39,804.65,4710,804.88Z"/><path class="cls-1" d="M4871.16,1623.25a49.23,49.23,0,0,0-6.72-.83c-11.29-34.55-40.32-18.59-61.55-19.61-28.39-1.37-28.44-12.09-15.86-31.32,4.37-6.68,9.86-12.64,14.93-18.84,50-61.08,100-122.15,159.19-182.09,0,35.62.13,71.25,0,106.87-.16,32.09-2,64.25-.54,96.26,1.08,23.14-7.44,29.93-29.67,28.8C4909,1601.37,4883.7,1595.42,4871.16,1623.25Z"/><path class="cls-9" d="M4876.47,1125.18c21.21,28,52.83,3.19,83.41,18.77l-176.39,221-7.41-2.37V1153.8c0-14.65,9.66-16.06,21-16,15,.13,29.94.43,44.83-.56,15.15-1,21.94-10.75,22.41-25.4C4877.5,1108,4871.09,1121.95,4876.47,1125.18Z"/><path class="cls-10" d="M3728.1,302.59h20.73c58.32,0,57.64,0,57.42,59.43-.07,17.94-2.5,28.85-23.68,25.33-17.88-3-20.9,7.5-20.6,22.53.65,32.24.86,64.52-.08,96.75-.44,15.23,5,21.3,19.86,19.37,2.26-.29,4.62.15,6.9-.06,28.12-2.54,73,12.46,81.07-5.89,15.79-36.14,6.23-81.06,4.39-122.35-.39-8.64-8.07-9.24-15.16-10.55-10.21-1.9-27.35,7-29-9.33-2.36-23.6-4.87-48.08,2.28-71.49.79-2.58,10.13-3.56,15.5-3.57,39.16-.07,78.35,1.33,117.46.08,19.59-.62,23.81,7.78,22.12,24.49-1.15,11.41-2.41,23-1.53,34.39,1.37,17.64-1.69,29.23-23.27,25.62-17.59-3-21.25,6.91-20.89,22.26.73,31.08,1.23,62.24-.18,93.28-.81,17.85,6.07,27.05,22.91,25.57,22-1.94,24.24,9.7,23.05,26.91-1.34,19.49-1.7,39.08-1.82,58.63-.28,43.75-5.21,47.88-49,41.25-7.17-1.09-13.78-.66-13.42-10.72,1.09-30.78-21.24-31.36-42.36-31.43-68-.23-135.94-.76-203.85,1.1-23.35.64-30.89-6.77-28.16-29,1.4-11.35.92-23.06.09-34.51-1.2-16.64,3.1-27.87,22.44-24.57,24.07,4.1,25.79-9.34,24.89-28-1.16-24.13-1.17-48.41,0-72.54,1.1-23.53,2.09-44.63-32.14-38.66-12.23,2.13-14.05-6.65-15.25-17.22-7.63-67.17-7.9-67.14,58.53-67.14Z"/><path class="cls-7" d="M3961.27,666.78c-7.51,0-16.19-1.15-26-2.64l-2.19-.3c-5.83-.75-19.49-2.52-18.88-19.64.27-7.61-1.13-13.06-4.17-16.22-5.59-5.81-18.7-5.86-29.23-5.89l-23.1-.08c-59.19-.23-120.39-.46-180.47,1.18-10.32.27-23.19-.52-31.13-9.26-7.79-8.58-7.27-21.13-6.2-29.83,1.34-10.84.81-22.15,0-32.76-.63-8.68-.47-21.11,8.06-28.86,5.83-5.29,14.2-7.06,24.87-5.24,8.55,1.46,11.32,0,12.12-.73,3-2.67,2.48-13.76,2.27-17.94-1.17-24.25-1.18-49,0-73.4.55-11.76,1.12-23.93-3.41-27.92-2.83-2.49-9.29-3-18.19-1.45-6.63,1.16-12.19.1-16.52-3.15-7.35-5.5-8.48-15.38-9.22-21.92l-.09-.81c-4.07-35.84-6.12-53.83,3.95-65.11s27.82-11.23,63.27-11.23h41.82c31.3,0,47,0,56.81,9.85s9.73,25.46,9.61,56.58v2c0,11.17-.77,22.67-9,29.65-5.79,4.89-14,6.36-25.11,4.52-4.59-.76-7.12-.26-8,.47s-2.36,3.13-2.16,13c.77,37.92.74,68.8-.08,97.19-.22,7.51,1.32,9.29,1.63,9.57s1.92,1.41,8.08.61a29.44,29.44,0,0,1,5.2-.12,19.11,19.11,0,0,0,2.05,0c10.68-1,23.06.33,35,1.59,14.34,1.51,36,3.79,38.61-2.13,11.22-25.68,8.46-57.81,5.78-88.89-.83-9.69-1.7-19.72-2.13-29.46v-.35a30.47,30.47,0,0,0-6-1.43l-1.82-.33c-1.75-.32-4.83,0-7.8.33-6.75.73-15.16,1.65-21.67-3.62-3.92-3.18-6.21-7.88-6.83-14v-.41c-2.44-24.38-5-49.6,2.67-74.61.75-2.45,3-9.9,24.09-9.94,14.09,0,28.35.14,42.15.3,24.64.29,50.11.58,75-.21,7.48-.24,18.23.32,25.31,7.91s6.9,18.08,6.05,26.48l-.12,1.23c-1.07,10.52-2.17,21.41-1.38,31.56.82,10.65.57,22.54-7.6,30-5.93,5.43-14.48,7.12-26.12,5.17-5.93-1-7.78.13-8.21.5-.74.64-2.42,3.15-2.2,12.68.7,29.94,1.26,61.86-.18,93.9-.31,7,.78,12,3.08,14.19,1.83,1.76,5.21,2.43,10.06,2,11.58-1,20,1.18,25.61,6.73,7.62,7.48,8,18.73,7.21,29.76-1.39,20.24-1.69,40.71-1.8,58.07-.14,21.56-1,37.49-11.25,46.24C3977.74,665.1,3970.35,666.78,3961.27,666.78Zm-29.09-21.27c.93.19,2.23.36,3.2.48s1.71.22,2.58.35c14,2.12,29.26,4.06,33.71.26s4.86-18.83,4.95-32.67c.11-17.63.42-38.46,1.85-59.19.22-3.21.89-13-1.86-15.68-1.58-1.55-5.74-2.15-11.43-1.64-10.24.9-18.34-1.44-24.09-6.94-6.28-6-9.17-15.44-8.6-28,1.42-31.47.87-63,.17-92.66-.21-8.86.56-19.91,8.4-26.7,5.45-4.72,13.18-6.29,23-4.65,8,1.34,10.45-.19,11-.7,1-1,2.67-4.22,1.81-15.35-.91-11.76.28-23.45,1.42-34.77l.13-1.23c.83-8.2-.25-11.26-1.3-12.39-.7-.75-3.23-2.46-11.58-2.2-25.32.81-51,.51-75.82.22-13.75-.16-28-.33-41.91-.3a47.61,47.61,0,0,0-7.89.67c-5.36,20.58-3.14,42.67-1,64.08v.41a7.31,7.31,0,0,0,.36,1.8c1.53.45,5.72,0,8.28-.28,4.27-.46,8.68-.94,13-.13l1.66.3c6.55,1.16,20.17,3.56,20.85,18.71.42,9.36,1.27,19.2,2.08,28.71,2.87,33.32,5.84,67.77-7.22,97.64-7.86,18-32.83,15.36-57,12.82-11.1-1.17-22.59-2.38-31.52-1.57a32.83,32.83,0,0,1-4.43,0,16.74,16.74,0,0,0-2.12,0c-9.9,1.29-17.25-.39-22.47-5.12-7.18-6.5-7.75-16.49-7.54-23.44.82-28.09.84-58.69.08-96.3-.2-9.59.65-20.29,8.38-27,5.39-4.67,13-6.22,22.69-4.61,7.71,1.28,10-.07,10.55-.52,2.61-2.21,2.65-12.56,2.66-16v-2c.09-23.65.15-39.28-4.36-43.81s-20.25-4.55-44.05-4.55h-41.47c-27.45,0-45.53,0-50.19,5.22s-2.63,23.49.51,51.09l.09.81c.74,6.53,1.53,8.78,2.09,9.49a7.41,7.41,0,0,0,2.67-.12c15-2.62,25.88-.76,33.19,5.68,11,9.71,10.23,26.26,9.48,42.26-1.12,23.88-1.11,48,0,71.69.56,11.56.42,24.54-8.32,32.28-6.12,5.43-15,7.06-27.08,5-4.73-.81-8.29-.51-9.75.82-.91.83-3,3.87-2.21,14.23.83,11.52,1.39,23.89-.13,36.26-1,7.89-.4,13.26,1.65,15.52,1.55,1.71,5.82,3.68,17.32,3.37,60.36-1.65,121.71-1.41,181-1.18l23.1.08c13.93,0,31.26.1,42.14,11.41,6.54,6.8,9.63,16.67,9.18,29.33a2.08,2.08,0,0,1,.12.71Z"/><path class="cls-10" d="M4579.47,544.09c-1.08-10.31-2.43-20.09-14.72-17.67-40.65,8-34.16-19.58-34-43.1.22-24.16.9-48.37-.24-72.48-.81-17.18,3.6-26.67,22.67-23.6,20.12,3.23,26.38-6.1,24.87-25.33-1.17-14.81.4-29.86,1.18-44.78.52-10-3.47-14.41-13.77-14.6-75.77-1.39-151.82-7-226.81,8.16-31.53,6.39-53.34,23.5-54.15,60.76-1.24,58,4,69.49,52,86.3-19.7,7.82-33.75,17.58-30.7,38.69,3.77,26.17-12.73,31-32.67,32-11.45.59-23.16,1.11-34.39-.64-11.66-1.83-15.86.59-17.82,13.06-10.09,64.3-3.55,72.8,59.39,72.79h3.45c93.72,0,96.7-3.12,94-97-1.19-41.13,2.42-45.09,42.52-46.35,5.74-.19,11.66.82,17.23-.18,25.07-4.51,26.91,9.26,27.92,29.6,1.06,21.33-4.37,29.1-26,26.83-8.77-.92-24.21-6.47-25.69,8.52-2.37,23.9-6.31,50.11,1.06,71.7,5.66,16.57,30.69,5.09,46.94,6.54,18.26,1.63,36.79.38,55.2.38C4586.89,613.62,4586.73,613.57,4579.47,544.09ZM4461.9,414.47c-.66,21.29-16.74,17.54-20,17.71-26-1.89-42-2.7-57.88-4.34-8.26-.85-16.32-3.91-16.53-14s7.29-13.77,16-14.14c17.17-.74,34.39-1.27,51.56-.91C4446.48,399,4462.56,393.26,4461.9,414.47Z"/><path class="cls-7" d="M4431,624.69c-10.32,0-20.59-2.85-24.77-15.08-7.21-21.11-4.72-44.78-2.31-67.66.28-2.63.55-5.25.81-7.84.62-6.32,3.09-11.17,7.33-14.41,7.38-5.64,17.06-4,24.13-2.8,1.54.26,3,.51,4.12.62,9.54,1,12.71-.5,13.75-1.48,1.37-1.29,2.88-5.11,2.34-16-.35-7.08-.88-17.78-4.31-20.5-2-1.59-6.63-1.83-13-.69a56.83,56.83,0,0,1-12.74.44c-2-.09-4-.18-5.79-.12-16.66.52-27,1.56-30.41,5.31s-3.91,14.56-3.41,31.78c1.41,48.8,1.46,75-13.39,90.27s-40.92,16-89.58,16h-3.57c-33.57,0-52.61-2.33-63.45-15-11-12.87-10.23-33.06-4.71-68.18,2.68-17.08,11.09-23.22,28.11-20.56,9.92,1.55,20.16,1.18,32.53.54,12.1-.62,18.9-2.6,22-6.42,2.47-3,3.21-8.15,2.18-15.28-2.84-19.66,6.82-31.55,17.55-38.93-14-6.3-23.86-13.42-30.16-24.2-8.24-14.09-9.42-32.39-8.76-63.34.83-38,21.47-61.3,61.36-69.39,63.28-12.83,127.84-11,190.28-9.29,12.62.35,25.67.71,38.48,1,7.76.14,13.44,2.26,17.38,6.48s5.61,9.94,5.22,17.58c-.18,3.37-.39,6.73-.61,10.1-.74,11.64-1.45,22.64-.59,33.5,1.08,13.71-1.56,23.29-8,29.28-6.23,5.74-15.13,7.59-27.22,5.65-4.94-.8-8.72-.53-10.1.71-.81.72-2.63,3.48-2.15,13.58.92,19.51.67,39.27.42,58.38q-.1,7.31-.17,14.61c0,2.91-.14,5.86-.26,8.71-.39,9.78-.83,20.87,3.36,24.45,3,2.61,10.19,3,20.11,1,6.46-1.27,11.91-.3,16.22,2.88,7.38,5.45,8.42,15.41,9.19,22.69v.46c3.88,37.1,5.82,55.72-4.65,67.35s-29.35,11.66-66.89,11.66c-5.48,0-11.11.12-16.55.23-12.89.26-26.22.54-39.45-.64-4.12-.37-9.7.41-15.11,1.16A108.46,108.46,0,0,1,4431,624.69ZM4423.11,534a6.24,6.24,0,0,0-.42,1.9c-.26,2.63-.54,5.28-.82,8-2.21,20.94-4.48,42.6,1.44,60,.42,1.24.79,2.32,4.2,2.79,4.11.57,10.07-.26,15.84-1,6.4-.89,13-1.81,19.18-1.25,12.24,1.09,24.5.84,37.48.57,5.54-.11,11.26-.23,16.92-.23,29.13,0,48.38,0,53.52-5.71s3.13-24.67.12-53.43v-.46c-.26-2.52-.87-8.27-1.94-10a7.64,7.64,0,0,0-2.09.19c-16.11,3.17-27.65,1.53-35.29-5-10.81-9.26-10.19-25-9.64-38.84.11-2.71.22-5.52.24-8.16q.07-7.34.17-14.68c.24-18.84.5-38.33-.4-57.3-.43-9.2.1-20.67,8.14-27.85,5.79-5.17,14-6.83,25-5.06,6,1,10.34.57,12.16-1.11,1.2-1.11,3.1-4.49,2.31-14.63-1-12.15-.18-24.31.57-36.07.21-3.3.42-6.6.59-9.89s-.4-4.35-.43-4.4h0s-1-.67-4.52-.73c-12.89-.24-26-.6-38.65-1-61.43-1.71-124.94-3.48-186.2,8.94-31.39,6.36-46.31,22.93-46.94,52.14-.58,27,.26,43.54,6.3,53.86,5.35,9.15,15.73,15.37,39.66,23.75l22.75,8-22.4,8.89c-20.46,8.12-27,15.72-25.11,29,1.78,12.35-.27,22.2-6.09,29.28-8.45,10.28-22.45,12.32-35,13-10.55.54-23.68,1.22-36.24-.74-3.89-.61-5.44-.44-6-.33-.27.45-1,1.93-1.6,5.89-4.34,27.63-5.75,46.26.61,53.69,6.2,7.24,23.64,8.71,49.78,8.71h3.56c41.2,0,67-.54,76.67-10.56s9.51-35.88,8.31-77.21c-.6-20.84-.36-35.2,8.14-44.47s22.64-10.49,43.09-11.14c2.49-.08,4.87,0,7.17.13a42.18,42.18,0,0,0,8.75-.17c12.07-2.17,21-.76,27.42,4.31,9.8,7.79,10.48,21.55,11.08,33.7.53,10.57,0,22.4-8,29.92s-19.75,7.18-28,6.31c-1.7-.18-3.42-.47-5.25-.78C4430.48,534.18,4424.81,533.22,4423.11,534Zm23.14-92.65c-1.29,0-2.4-.07-3.26-.12h-1.69c-8.42-.61-15.79-1.11-22.45-1.56-13.86-.94-24.81-1.68-35.71-2.8-21.83-2.25-24.48-16.68-24.61-22.79-.28-13.72,9.13-22.66,24.57-23.32s33.81-1.3,52.13-.92c1.66,0,3.62-.1,5.7-.24,7.45-.51,16.71-1.14,23.5,5.4,4.62,4.45,6.73,10.93,6.45,19.82h0c-.28,9.14-3,16.13-8.09,20.77-5.47,4.94-12.07,5.74-16.54,5.74Zm-3.82-.17Zm-.23-18a14.71,14.71,0,0,1,1.87.08c1.92.12,5.14.31,6.6-1,1.3-1.18,2.11-4.11,2.23-8h0c.16-5.08-.93-6.28-1-6.29-1-1-7.17-.59-9.78-.41-2.38.16-4.85.34-7.3.28-17.8-.37-35.77.25-51,.9-7.45.32-7.39,2.89-7.35,5s.09,4.39,8.45,5.25c10.58,1.09,21.39,1.82,35.08,2.75,6.57.45,13.84.94,22.13,1.54Z"/><path class="cls-10" d="M4099.54,612.9c-11.49,0-23,.14-34.47,0-51.43-.71-49.74-.81-51.84-53.46-1.11-27.68,7.51-38.11,34.4-33.46,19.65,3.4,22.62-7.36,21.84-23.76a633.19,633.19,0,0,1,0-65.51c1.71-30.31,3.25-58.68-41.66-49.76-10.13,2-14.49-4.46-13.88-14.42.21-3.44.09-6.9,0-10.34-1.66-59.6-1.67-59.67,58.33-59.57,31,.06,62.12,1.56,93.09.26,19.07-.8,24.45,6.9,22.45,24-1.07,9.11-2.39,18.43-1.55,27.46,2.06,22.24-.31,38.84-29.63,33-18.41-3.65-20.18,8.14-19.89,22.63.61,29.88,1.77,59.89-.35,89.63-1.52,21.35,6.64,30.9,26.35,28.73,23.39-2.57,25.51,8.91,25.43,28.12-.26,57.07.49,57.08-57.55,57.08h-31Z"/><path class="cls-7" d="M4130.58,622.62H4090.5v-.69h-1.8c-7.77,0-15.81.06-23.76,0-27.17-.38-40.81-.57-49.85-9.08s-9.65-21.82-10.67-48.14l-.19-4.87c-.49-12.36.27-27.72,10.67-36.84,10.06-8.82,24.37-7.56,34.26-5.85,5.48,1,8.45.38,9.4-.46s2.4-3.72,1.92-14a638.61,638.61,0,0,1,0-66.44c.9-16,1.83-32.51-5-38.49-5.48-4.76-17.1-3.68-25.88-1.94-9,1.79-14.63-1.16-17.81-3.94-3.48-3-7.48-9-6.8-19.86.17-2.78.09-5.7,0-8.79v-.75c-.9-32.29-1.35-48.5,8.57-58.68s26.27-10.19,58.77-10.13c10.63,0,21.42.21,31.84.39,20,.35,40.69.72,60.86-.13,12-.51,20.47,2.08,25.87,7.91,7.13,7.68,6.77,18.62,5.89,26.17l-.32,2.66c-1,8.08-1.88,15.71-1.21,22.92,1.32,14.31,1.22,28.75-8.45,37.47-7.06,6.37-17.5,8.08-31.89,5.23-4.58-.91-6.72-.38-7.26.07-.79.67-2.09,3.31-1.88,13.55q.13,6.4.28,12.81c.59,25.44,1.19,51.74-.66,77.65-.6,8.41.52,14.24,3.25,16.86,2.88,2.77,8.74,2.77,13.15,2.29,12.15-1.34,20.59.55,26.56,5.93,8.26,7.44,8.9,19,8.84,31.18v2.15c-.13,30-.2,45-10.16,54.53C4177.16,622.62,4161.59,622.62,4130.58,622.62Zm-22-18h22c23.71,0,39.37,0,44-4.38,4.42-4.22,4.49-19.09,4.59-41.59V556.5c0-4.89.07-15.06-2.89-17.72-1-.93-4-2.35-12.56-1.41-12,1.32-21.25-1.11-27.59-7.21-6.89-6.63-9.74-16.8-8.72-31.11,1.79-25.06,1.19-50.94.62-76q-.15-6.43-.28-12.85c-.22-10.59.64-21.28,8.31-27.71,5.35-4.48,12.86-5.81,22.32-3.93,8.09,1.6,13.89,1.27,16.34-.94,4.3-3.88,3-17.85,2.58-22.44-.84-9.11.23-18.06,1.26-26.72l.31-2.62c1-8.14-.35-10.91-1.21-11.84-.72-.77-3.33-2.53-11.92-2.17-20.7.87-41.66.5-61.93.14-10.36-.18-21.06-.37-31.56-.39-24.8,0-41.2-.07-45.84,4.7s-4.16,21-3.47,45.61v.74c.1,3.36.2,6.82,0,10.42-.2,3.16.38,4.73.65,5.15a5.91,5.91,0,0,0,2.49-.12c18.77-3.73,32.25-1.77,41.19,6,13.54,11.76,12.35,32.77,11.21,53.08a620.65,620.65,0,0,0,0,64.57c.48,10.11-.09,21.38-8,28.35-5.68,5-13.66,6.56-24.39,4.7-9.67-1.67-16.17-1.12-19.32,1.65-3.49,3.06-5,10.66-4.55,22.58l.19,4.89c.75,19.38,1.25,32.18,5,35.75,3.94,3.71,17.39,3.9,37.75,4.18,7.79.11,15.75.08,23.44,0h19.91Z"/><path class="cls-9" d="M3958.14,459.34c0-5.73.86-11.62-.14-17.17-5.67-31.22,10.86-40.79,38.28-39.66,13.7.57,27.37,1.89,41.06,2.78,7.13.46,15.33,1.52,15.39,10,.2,28.61,1.67,57.59-2.34,85.72-2.35,16.5-21.49,8-32.75,9.54C3958.1,518.76,3957.49,517.8,3958.14,459.34Z"/><path class="cls-11" d="M3858.79,455.68c0,11.65-.62,20.92.14,30.07,1.43,17.17-4.26,26.27-23.13,24.4a128.54,128.54,0,0,0-27.59.66c-21.53,2.56-33-4.08-30.32-28.13,1.5-13.66-1.24-27.83.72-41.37,1.74-12-9.71-29.75,10.26-35.24,21.3-5.86,45.71-8.45,63.7,3.2C3867.63,419,3855.75,441.56,3858.79,455.68Z"/><path class="cls-12" d="M4401.59,517.76c-8.85-5.58-7.83-15-9.2-23.54,15-21,35.92-10.45,54.51-9,6.86.53,8.45,9.63,7.87,16.8-.79,9.8-7.29,13.3-16,13.83C4426.36,516.58,4414,517.12,4401.59,517.76Z"/><path class="cls-6" d="M1464.81,1118.17l111.51,322.42c32.21-106.31,62-205.29,92.31-304.11,5.51-18-3.9-17.94-17.17-18.56-54.83-2.56-55.31-2.91-54.69-56.64.84-72.45-2.41-144.92,2.2-217.38,1.09-17.09,4-23.6,22.79-23.37,85.18,1,170.38.87,255.57.1,16.72-.15,21.24,5,21.19,21.39q-.42,127.75,1.45,255.5c.25,17.09-5.88,20.48-21.77,21.07-67.84,2.5-68.29,2.92-91.57,68.45C1713,1394.51,1640,1602.22,1566.08,1809.61c-31.5,88.39-77.28,118.65-162.56,111.81-16.75-1.34-23.79-6-23.64-24.28.71-85.18.37-170.38-.34-255.56-.12-14.71,4.14-21.38,19.37-20.41,14.9,1,29.88.66,44.82,1.23,49.26,1.88,61.17-12.7,44.46-59.73-34.18-96.18-70-191.78-105-287.66-15.76-43.12-32.28-86-46.5-129.63-6.72-20.61-16.63-31.12-39.19-27.47-9,1.45-18.56-.91-27.56.46-24.08,3.67-31-5.31-30.46-29.78,1.64-80.55,1.46-161.18.07-241.74-.38-21.91,6.34-26.68,27.14-26.38q122.58,1.8,245.2,0c21.79-.35,26.88,6.28,26.54,27.22-1.25,77.11-2,154.3.24,231.37.92,31.48-7.7,44.61-39.79,39.37C1489,1116.81,1478.7,1118.17,1464.81,1118.17Z"/><path class="cls-7" d="M1425.61,1932.35q-10.94,0-22.89-1c-16.37-1.31-33.07-6.42-32.84-34.33.62-74.14.52-152.91-.34-255.4-.06-7.77.76-17.54,7.78-24.18,5.13-4.86,12.4-6.91,22.23-6.29,8.57.55,17.43.68,26,.8,6.07.09,12.34.18,18.56.42,21.33.82,34.36-1.77,38.71-7.7s3-18.92-4.06-38.69c-23.25-65.44-47.67-131.73-71.27-195.84-11.07-30.05-22.51-61.13-33.69-91.73-3.92-10.72-7.95-21.61-11.85-32.14-11.81-31.89-24-64.87-34.77-97.82-6-18.37-12.55-23.21-28.09-20.7a74.41,74.41,0,0,1-16,.37,60.3,60.3,0,0,0-11.62.11c-9.13,1.39-22.36,2.3-31.66-5.87-9.57-8.39-10.53-22.58-10.3-34,1.54-75.7,1.56-154.65.07-241.37-.17-9.82.67-20.87,8.15-28.37s18.4-8.32,29.13-8.18c84.3,1.24,166.69,1.23,244.89,0,9.87-.15,21,.7,28.49,8.23s8.38,18.44,8.21,29.14c-1.39,86-1.89,158.12.23,230.92.42,14.46-.61,32.38-12.39,42.7-8.67,7.59-21.06,9.76-39,6.84-5.4-.88-11.23-.7-18.52-.45l97,280.32,15.67-51.81c23.27-76.93,45.25-149.6,67.71-222.81a26.75,26.75,0,0,0,1.12-4.93,73.8,73.8,0,0,0-8.22-.66h-1c-29.09-1.36-45.12-2.1-54.86-12.16s-9.7-26-9.36-54.58c.29-24.72.09-49.92-.1-74.28-.36-47-.74-95.63,2.31-143.62.55-8.6,1.55-17.55,7.17-24.07,6.78-7.87,17.3-8.78,25.73-8.66,76.6.93,160.13,1,255.36.1,7.63,0,17.28.69,23.88,7.25s7.42,15.88,7.4,24.18c-.28,84.61.21,170.51,1.45,255.32.39,26.4-14.86,30.6-31.4,31.21-33.1,1.22-48.1,2-56.87,8.6-9.18,6.87-15,23.33-25.64,53.2-31.92,89.88-64.25,181.31-95.51,269.73-40.9,115.68-83.19,235.29-125.07,352.84-16.78,47.11-37.41,77.78-64.9,96.52C1488,1924.93,1460.59,1932.35,1425.61,1932.35Zm-29.48-301.27c-4,0-5,.88-5.07.93s-1.59,1.73-1.52,9.49c.86,102.61,1,181.48.34,255.73,0,4,.35,9.24,2.35,11.12,1.66,1.57,5.62,2.58,12.09,3.1,81.4,6.53,122.68-22,152.34-105.2,41.88-117.53,84.16-237.13,125.05-352.8,31.26-88.43,63.59-179.87,95.52-269.76,11.91-33.55,18.48-52,32.5-62.52s33.31-11.29,68.12-12.58c7.79-.29,10.06-1.29,10.71-1.87.16-.14,1.54-1.56,1.42-9.06-1.24-84.93-1.73-171-1.45-255.68,0-8-1.24-9.67-1.5-9.93s-1.77-1.5-9.6-1.43c-95.37.87-179,.84-255.78-.1-8.13-.08-10,1.29-10.33,1.71-1.71,2-2.2,9.74-2.36,12.29-3,47.28-2.63,95.53-2.27,142.2.19,24.46.38,49.75.09,74.66-.24,21-.42,36.15,3.74,40.44s19.83,5.09,41.42,6.1h1c9.15.42,18.61.85,24.1,8.65,5.12,7.27,3.14,16.48,1.21,22.78-22.45,73.18-44.42,145.82-67.69,222.74q-12.11,40.06-24.62,81.34L1577,1473l-126.18-364.83h14c4.47,0,8.56-.15,12.52-.29,8.39-.3,15.63-.56,23.16.67,11.28,1.84,18.88,1.12,22.61-2.15,4.17-3.65,6-12.51,5.57-27.07-2.13-73.17-1.64-145.59-.24-231.83.13-8-.66-13-2.35-14.68-1-1-4.05-2.54-14-2.38-78.41,1.27-161,1.28-245.51,0-8.1-.12-13,.66-14.68,2.3-.94.94-2.48,4-2.31,13.9,1.5,87,1.48,166.16-.07,242.12-.26,12.59,1.75,17,3.49,18.56,2.18,1.92,7.68,2.32,15.46,1.13a76,76,0,0,1,15.66-.31,58.73,58.73,0,0,0,11.81-.14c33.32-5.39,44.66,17,50.3,34.24,10.62,32.57,22.76,65.36,34.5,97.07,3.91,10.55,7.95,21.46,11.88,32.22,11.17,30.58,22.61,61.64,33.67,91.68,23.63,64.16,48.06,130.51,71.35,196.06,6.58,18.53,12.68,41.78,1.33,57.23-9,12.24-25.63,17-55.59,15.84-6-.23-12.14-.32-18.09-.41-8.81-.13-17.92-.26-27-.84C1397.48,1631.11,1396.77,1631.08,1396.13,1631.08Z"/><path class="cls-6" d="M4121.47,1432.51l93.75-311.46c-5.15-1.46-7.33-2.53-9.56-2.64-65.48-3.06-65.48-3-65.48-70.67,0-66.79.87-133.61-.5-200.37-.44-21.49,6-27.19,27.14-26.89,84,1.19,168.14,1,252.19.08,18.16-.2,23.33,4.8,23.12,23.06q-1.43,126.09,0,252.19c.22,18.67-5.73,22.74-23.4,22.78-68.18.14-66.83,1.25-90.13,67.7q-111.64,318.34-225.26,636c-27.48,76.85-79.87,107.69-160.67,99.29-13.83-1.44-19.83-5-19.7-20.47q1.11-129.55,0-259.11c-.17-17.65,6.83-21.81,22.38-20.9,14.92.88,29.93.25,44.9.16,46.42-.27,56.31-12,40.57-56.66-29.35-83.27-61.33-165.6-91.93-248.43-20.68-56-42.47-111.61-60.52-168.43-7.74-24.37-19.42-31-43.62-30.14-51.07,1.77-51.11.47-51.11-49.13,0-73.7.79-147.42-.5-221.1-.37-21,4.94-27.29,26.59-26.94,81.74,1.35,163.53,1.16,245.28.1,19.85-.26,25.35,5.89,25.11,25.3-1,78.3-1.76,156.65.3,234.91.77,29.26-5.15,43.34-37,37.62-29.62-5.32-36.84,3.19-25.46,34,32.21,87.09,60.93,175.48,91,263.39C4111.12,1422.21,4112,1429.38,4121.47,1432.51Z"/><path class="cls-7" d="M3967.35,1932.9a248.65,248.65,0,0,1-25.7-1.39c-14.29-1.49-28.87-6.27-28.66-30.5.78-91.42.78-176.11,0-258.93-.07-7.14.68-17.43,7.94-24.33s17.12-7.11,25-6.64c10.6.63,21.61.46,32.25.29,4-.06,8-.12,12-.15,20.43-.12,32.11-2.66,35.71-7.76s2-17-4.51-35.57c-19.21-54.5-39.91-109.55-59.92-162.79-10.53-28-21.41-57-32-85.5-4.72-12.78-9.59-25.77-14.29-38.33-15.92-42.51-32.38-86.47-46.38-130.53-6.08-19.13-13-23.89-33.75-23.17-26.25.91-42.1,1.46-51.9-8-9.56-9.23-9.56-23.23-9.56-51.11,0-20.31.06-41,.12-60.92.15-52.47.31-106.72-.61-160-.18-10.09.65-21.42,8.14-28.91s18.67-8.36,28.61-8.2c74.55,1.23,154.68,1.27,245,.1,8.76-.11,19.79.7,27.16,8.08s8.19,17.93,8.08,27.35c-1,83.09-1.71,158.09.3,234.52.43,16.11-.71,32.33-11.77,41.84-8.23,7.07-20,8.94-37,5.88-15.57-2.8-18.4-.31-18.42-.28s-2.3,3.61,4.11,20.93c23.57,63.72,45.61,129.14,66.93,192.4,7.65,22.69,15.55,46.14,23.41,69.2l84.93-282.16c-33.72-1.58-50.89-2.66-61.58-14.21-10.84-11.71-10.84-30-10.84-66.33,0-18.68.07-37.67.14-56,.17-47.27.35-96.14-.63-144.13-.2-9.91.61-21.07,8.2-28.71s19-8.53,29.08-8.39c76.79,1.09,159.21,1.11,251.94.08,8.87-.11,18.82.72,25.66,7.57s7.67,16.79,7.57,25.6c-1,85.4-1,170.17,0,252,.1,8.08-.66,18.23-7.44,25.11s-16.44,7.77-25.94,7.79c-31.32.06-46.75.36-55.23,6.47s-14,21.62-23.79,49.7l-1.7,4.84c-73.26,208.89-149,422.88-225.28,636C4087,1897.63,4039.33,1932.9,3967.35,1932.9ZM3941.62,1631c-5.13,0-6.57.93-6.92,1.26s-1.8,2.1-1.73,9.65c.8,82.93.81,167.75,0,259.29-.05,6.22,1.09,7.78,1.44,8.11.75.7,3,1.67,9.29,2.33,77,8,124.74-21.46,150.22-92.71,76.21-213.12,152-427.07,225.24-635.92l1.69-4.83c11.53-33,17.32-49.49,31-59.32,14.08-10.13,34-10.17,66.88-10.24,9,0,11.2-1.29,11.74-1.83s1.79-2.47,1.69-10.83c-1-82-1-166.88,0-252.43.1-8.74-1.28-10.81-1.71-11.24s-2.54-1.79-11.3-1.71c-92.91,1-175.48,1-252.45-.08-9.88-.16-13.4,1.28-14.61,2.49s-2.59,4.65-2.39,14.2c1,48.23.81,97.23.64,144.62-.07,18.34-.14,37.31-.14,56,0,29.17,0,46.78,5.52,52.74s22.33,6.62,50.38,7.93a27.39,27.39,0,0,1,7.56,1.68c1.21.39,2.57.83,4.3,1.32l9.79,2.77-99.65,331-9.76-3.23c-13.07-4.33-16.24-14.56-18.13-20.68-.25-.8-.49-1.6-.76-2.38-8.11-23.75-16.25-47.93-24.13-71.31-21.27-63.13-43.26-128.4-66.73-191.85-5.27-14.24-9.47-30.22-.68-40.72,8.55-10.21,24.42-8.86,37.29-6.55,10.19,1.83,17.26,1.36,20.44-1.37,4.82-4.14,5.05-16.9,4.81-26.14-2-76.78-1.34-152-.31-235.29.11-8.77-1.15-11.88-2.22-13-.88-.88-3.72-2.33-12.77-2.22-90.5,1.17-170.83,1.13-245.57-.1-10.11-.17-13.19,1.39-14.13,2.34-1.14,1.14-2.46,4.57-2.29,14.43.93,53.49.77,107.85.62,160.42-.06,20-.12,40.58-.12,60.86,0,18.66,0,33.39,3.45,36.73,3.7,3.57,20.79,3,37.31,2.4,29.69-1,44.69,9.37,53.5,37.11,13.84,43.58,30.22,87.29,46,129.57,4.71,12.58,9.59,25.59,14.32,38.42,10.53,28.49,21.4,57.42,31.92,85.39,20.05,53.34,40.79,108.49,60.07,163.18,6.57,18.64,11.95,39.6,2,53.73s-30.82,16.14-51.95,16.26c-3.94,0-7.87.08-11.81.14-11,.17-22.4.34-33.74-.33C3943.59,1631,3942.54,1631,3941.62,1631Z"/><path class="cls-6" d="M1178.21,1476.23c-3.1-78.62-55.34-131-132.86-144.37-39-6.73-77.88-4.59-117-3.9-62.64,1.11-62.65.64-62.65-60.21,0-15-.68-30,.13-44.89,1.86-34-15-79.94,6.45-99,22.9-20.35,68.12-6.42,103.59-5.63,62.92,1.4,73.29,12.24,74.71,75.43,1.63,72.07,1.65,70.82,73.39,71.83,25.23.35,29.63-8,29.73-31.19.53-130-4.3-260.09,2.5-390,.94-17.9-4.39-23.88-22.9-23.63-71.37,1-142.76.4-214.13.4-70.23,0-140.47.85-210.68-.5-22.06-.43-29.31,5-28.83,28.16,1.53,74.81.56,149.66.57,224.49,0,44.78.08,46.47,46.08,44.36,25.78-1.18,32.36,5.82,32.09,31.86-1.43,141.59-.68,283.2-.68,424.8,0,46.6,0,48.06-47.21,46.53-24.38-.8-31.24,6.53-30.82,30.71,1.42,81.72.93,163.48.22,245.21-.15,16.84,3.26,25.24,22.24,25,100.07-1.23,200.29,1.57,300.17-3.17,96.71-4.59,172.52-82.71,176.35-179.91C1182.14,1651.22,1181.65,1563.55,1178.21,1476.23ZM958.4,1602.93c-77.18,0-77.18,0-77.17-77.22,0-80.91,0-81,81.84-83.17a342.5,342.5,0,0,1,41.41,1c36.55,3.49,54.76,20.68,55.92,57.57C1063.8,1609.65,1059.77,1604.22,958.4,1602.93Z"/><path class="cls-7" d="M701.24,1931.65c-7,0-16.52-1-23.34-7.75-7.18-7.15-8.09-17.37-8-27.34.68-78.38,1.22-161.85-.22-244.95-.19-11.22.75-23.81,9.23-32.16s21.52-9.06,31.92-8.72c14.3.46,30.52,1,33.81-2.19,3.08-3,3.08-16.82,3.08-34.35,0-36.24,0-73.08-.1-108.72-.14-103.62-.29-210.78.78-316.18.11-10.49-1-16.72-3.44-19.05s-8.46-3.16-18.2-2.72c-25.06,1.15-38.54,1.35-47.47-7.17s-9.07-22.34-9.07-47.18c0-21.1.07-42.54.15-63.28.19-52.8.38-107.39-.71-161-.2-9.72.58-21.9,8.52-29.85s19.83-8.73,30.5-8.52c50.53,1,102,.8,151.73.63,19.25-.06,39.16-.13,58.75-.13s39.28,0,58.42.09c51,.12,103.74.24,155.57-.49,8.42-.11,19,.7,26.06,8s7.41,17.79,7,26.11c-4.64,88.66-3.83,179-3.05,266.39.36,40.37.73,82.1.57,123.18-.06,14-1.66,24.93-9.27,32.4-8.16,8-20.64,8.88-30.6,8.75l-3.61,0c-36.79-.51-55.25-.76-66.87-12.7s-11.91-30.87-12.77-68.85c-.71-31.72-3.81-46.37-11.42-54.09s-22.13-10.87-53.52-11.57c-10.21-.23-21.14-1.49-31.71-2.71-25.44-2.94-51.75-6-65,5.81-10.49,9.32-7.89,32.15-5.38,54.23,1.44,12.67,2.93,25.78,2.27,37.84-.54,9.88-.4,19.7-.25,30.09.07,4.66.13,9.48.13,14.25,0,25,0,41.45,4.76,46.13,4.93,4.84,22.88,4.52,47.71,4.09q8.24-.15,16.47-.35c33.4-.76,67.95-1.55,102.41,4.39,40.77,7,75.32,24.57,99.92,50.72,25.38,27,39.63,62.63,41.23,103.11h0c3.61,91.53,3.76,180.05.46,263.12a198.51,198.51,0,0,1-56.19,131.28,193.58,193.58,0,0,1-129.68,58.23c-65.34,3.1-131.8,3-196.07,2.87-34.25-.06-69.67-.12-104.45.31Zm5.93-301c-7.4,0-12.17,1-14.22,3-2.33,2.29-3.43,8.2-3.26,17.56,1.45,83.34.9,167,.22,245.47-.06,7.16.65,11.54,2.11,13,.61.61,2.8,2,10,1.92,34.93-.43,70.41-.37,104.73-.31,64,.11,130.24.23,195.09-2.85,91.46-4.34,163.18-77.56,166.83-170.31,3.28-82.55,3.13-170.54-.46-261.54h0c-2.82-71.51-49.39-121.94-124.57-134.91-32.55-5.62-64.61-4.88-98.55-4.11-5.52.13-11,.25-16.57.35-34.07.61-51.17.91-62.08-9.82-10.74-10.56-10.74-27.21-10.74-60.39,0-4.63-.07-9.38-.13-14-.15-10.28-.3-20.9.28-31.47.57-10.38-.83-22.64-2.18-34.49-3.09-27.15-6.28-55.22,12-71.44,20-17.73,50.78-14.17,80.59-10.73,10.58,1.22,20.58,2.37,29.86,2.58,32.4.72,53.8,3.82,67.31,17.52s16.44,35.1,17.17,67.68c.69,30.67,1.11,49.19,7.11,55.36,5.84,6,23.52,6.25,52.81,6.65l3.61,0c8.67.13,14.15-.89,16.31-3,2.85-2.8,3.25-11.21,3.28-18.22.17-40.94-.21-82.62-.56-122.92-.78-87.68-1.59-178.34,3.08-267.61.45-8.57-1-10.74-1.41-11.2s-2.64-2-11.37-1.9c-52,.73-104.81.61-155.89.49-19.14,0-38.92-.09-58.38-.09s-39.45.07-58.69.13c-49.87.17-101.43.34-152.19-.63-8.66-.16-14,.72-16,2.65-1.34,1.34-2.89,5.08-2.67,15.3,1.1,53.86.91,108.58.72,161.49-.07,20.72-.15,42.15-.15,63.21,0,16.08,0,30,2.89,32.72,3.15,3,19.56,2.26,32.74,1.65,11.52-.52,24.45,0,33,8.31s9.68,21.08,9.55,33.65c-1.06,105.29-.92,212.38-.78,316,0,35.64.1,72.5.1,108.75,0,26.53,0,39.84-9.16,48.72-9.37,9.07-24.89,8.57-48.37,7.81Q708.61,1630.66,707.17,1630.66Zm289-17.28c-7.36,0-15.41-.12-24.25-.26l-13.61-.2c-41.26,0-62,0-74.54-12.58s-12.57-33.32-12.57-74.64c0-43.14,0-64.8,13.1-78.12s34.94-13.89,78.48-15a353.15,353.15,0,0,1,42.52,1h.1c42.42,4.05,63.67,26,65,67.21,1.69,53.92,1.85,82.78-13.56,98.45C1045,1611.28,1026.53,1613.38,996.19,1613.39Zm-20.72-161.07q-6,0-12,.22c-35.84,1-57.42,1.52-64.84,9.07s-7.36,27.6-7.36,64.1c0,33.53,0,53.78,6.71,60.5s26.94,6.72,60.46,6.72h.13l13.73.2c38.42.59,61.61.94,70.32-7.91,9.64-9.8,9.26-38.22,7.83-83.79-1-30.94-14.54-44.83-46.82-47.92C994.27,1452.71,984.86,1452.32,975.47,1452.32Z"/><path class="cls-6" d="M2543.38,994c-6.06-109.58-45.18-149.29-154.16-168.85-63.78-11.45-128.47-4.61-192.79-5.62-55.21,0-110.44.62-165.64-.3-21.95-.37-29.19,6.88-28.67,29.67,1.58,69,.57,138.09.57,207.14,0,61.64,0,62.88,59.9,61.51,23.82-.54,30.83,5.19,30.58,29.93-1.32,133.48-.63,267-.63,400.49,0,70.82,0,71.44-69.57,74.3-16.15.67-21.67,4.34-21.46,21.2q1.59,127.71.83,255.46c-.09,16.82,5.44,21.42,21.69,21.3q134.66-1,269.3.06c16.54.14,21.45-4.31,21.43-21.16-.06-66.68,1.92-133.36,2.34-200.05.49-75.33.13-76.07-76.29-77.3-19.38-.32-26.26-5.53-25.85-25.17,1-49.46,1.34-99-.1-148.44-.69-23.69,6.7-32.28,31.14-31.83,53.86,1,107.91,1.49,161.62-2,87.79-5.64,127.12-43.47,134.34-130.7C2549.94,1187.3,2548.7,1090.33,2543.38,994Zm-143,231.95c-.36,52.62-6.24,59-58.59,62.36-10.3.66-20.67.24-31,.25-78.68,0-78.68,0-78.4-78.36.27-75.82.27-75.82,75.8-75.8,91.41,0,92.81,1.37,92.15,91.6Z"/><path class="cls-7" d="M2294.16,1930.3h-.91c-84.76-.73-172.8-.75-269.14-.06-7.82.07-17.61-.73-24.3-7.41s-7.5-16.31-7.46-23.95c.5-85.1.22-171-.83-255.28-.1-7.8.7-17.59,7.82-24.15,6.19-5.71,14.82-6.82,23.23-7.17,28.86-1.19,47.92-2,54-8.47s6-25,6-55.75c0-34.21,0-68.9-.09-102.45-.13-97.74-.26-198.81.72-298.23.09-9.19-.95-14.92-3.08-17s-7.78-3-17.27-2.8c-30.12.69-48.3,1.11-59.23-9.57s-10.9-27.79-10.9-61.93c0-19.4.08-39.11.16-58.18.2-48.78.41-99.22-.73-148.73-.23-10,.58-22.52,8.93-30.92s20.28-9.14,29.91-9c39.25.65,79.23.52,117.89.4,15.59,0,31.72-.1,47.58-.1h.16c19.13.3,38.71-.11,57.65-.5,44.81-.94,91.15-1.91,136.75,6.28,59.29,10.64,96.68,27.21,121.24,53.71,25.19,27.18,37.88,65.56,41.13,124.43h0c6.19,112,5.73,204.47-1.44,291-7.62,92-50.58,133.88-143.67,139.85-55.24,3.56-110.54,2.93-162.44,2-9-.17-14.91,1.07-17.49,3.67s-3.75,8.49-3.48,17.87c1.27,43.77,1.31,91.1.1,148.94-.17,8,1.09,11,2.17,12.16,1.67,1.74,6.33,2.68,13.85,2.81,39.54.64,61.32,1,74,13.85s12.43,33.08,12.17,73.51c-.18,29-.67,58.36-1.13,86.8-.61,37.11-1.24,75.48-1.21,113.17,0,8.22-.86,17.5-7.38,24C2311.11,1929.33,2302.21,1930.3,2294.16,1930.3Zm-134.87-20.57c46,0,90.51.19,134.13.56,8.18.09,9.72-1.23,9.87-1.38s1.48-1.7,1.47-9.76c0-37.87.6-76.33,1.21-113.52.47-28.39.95-57.75,1.13-86.6.21-32.72.34-52.47-6.44-59.37s-28-7.36-60-7.87c-9.71-.16-20.62-1.35-27.93-8.93s-7.94-18.07-7.76-26.45c1.2-57.5,1.17-104.51-.1-147.94-.3-10.48.47-23.64,9.25-32.52s22.55-9.79,32.07-9.6c51.48.94,106.31,1.56,160.79-2,83.17-5.34,118.22-39.42,125-121.55,7.09-85.63,7.54-177.24,1.4-288.29h0C2527.69,891.33,2493.59,854,2387.46,835c-43.65-7.84-89-6.89-132.8-6-19.09.4-38.83.81-58.3.51-15.81,0-31.88,0-47.44.1-38.76.12-78.83.25-118.29-.4-8-.13-13.22.9-15.38,3.08s-3.32,7.79-3.12,16.36c1.14,49.78.93,100.36.73,149.27-.08,19-.16,38.74-.16,58.1,0,25.81,0,42.86,4.88,47.63s22.51,4.39,44.79,3.88c11.73-.26,23.7.59,31.78,8.57s9.14,20.42,9,31.46c-1,99.3-.85,200.32-.72,298,0,33.56.09,68.25.09,102.38,0,38.13,0,57.22-11.37,69.46-11.65,12.53-31.59,13.35-67.79,14.83-8,.33-10,1.43-10.5,1.89-.15.14-1.47,1.58-1.37,9.19,1.05,84.42,1.33,170.43.83,255.64,0,7.66,1.32,9.41,1.59,9.68s2.23,1.65,10,1.56c46.93-.29,91.85-.46,135.38-.46Zm168.74-611c-2.87,0-5.73,0-8.54-.06s-5.81-.06-8.73-.06c-42.09,0-63.2,0-75.93-12.72s-12.63-33.78-12.48-75.67c.14-40.61.22-61,12.61-73.38s32.69-12.41,73.2-12.39c47,0,72.92,0,87.84,15s14.67,40.39,14.35,86.58c-.2,28.79-2.18,45.42-12.5,56.42s-26.8,14-55.44,15.85c-4.83.3-9.64.39-14.41.39Zm-16.87-20.12c2.84,0,5.7,0,8.55.06,7.41.08,14.42.16,21.41-.29,22.35-1.44,36.41-3.47,42.14-9.57s6.94-20.34,7.09-42.87h0c.29-41.6,0-63.72-8.54-72.35s-31.21-9.12-73.65-9.13c-32.73,0-52.51,0-59.05,6.53s-6.63,26.41-6.75,59.31c-.12,34.06-.19,54.62,6.65,61.48s27.54,6.86,61.75,6.84Z"/><path class="cls-10" d="M1749.57,612.88c-39.16,0-78.37-1.1-117.47.46-20.16.8-26.61-6.13-24.43-25.32a158.06,158.06,0,0,0,0-34.5c-2.1-19.52,1.82-30.49,25-24.84,15.87,3.86,19.3-6.2,19-20-.54-26.48-.42-53-.07-79.47.3-22.75,6.06-48.93-32.27-42.21-9.13,1.6-11.72-4.61-11.46-12.56.07-2.3.09-4.61-.05-6.91-4-64.94-4-65,61.52-64.92s131.31,1.13,196.95.27c19-.25,26.84,4.4,25.28,24.58-1.67,21.76-.37,43.74-.38,65.63,0,37.5-15.58,48.8-52.24,38.54-6.13-1.71-11.64-3.86-11.17-10.5,2.49-35.78-23.31-32.69-46-33.94-11.46-.63-23-.42-34.42-1.35-23.86-2-29.25,8.57-30.07,31.94-1,28.6,15.13,25.38,32.5,25.27,13.82-.09,27.65.33,41.46-.1,10.82-.34,17.46,2.2,17.1,15-.31,11.22-3.92,17-16,16.72-18.42-.45-36.92.87-55.27-.37-15.64-1-21.16,5.2-18.66,19.74,2.21,12.86-8.65,32.29,16.17,34.29,24.16,1.94,48.17.06,72.18-3.2,12.87-1.75,16.45-10,19.47-20.63,4.76-16.84,45.38-30.7,59.75-20.6,2.41,1.69,4,5.48,4.61,8.57.85,4.46.57,9.17.51,13.77-.47,34.41,12,79.31-5.08,100.33-17.76,21.91-64.57,4.8-98.61,6.84-12.62.76-25.32.12-38,.12A1.39,1.39,0,0,0,1749.57,612.88Z"/><path class="cls-7" d="M1853.53,626.91c-9.78,0-20.18-1.17-30.46-2.33-12-1.35-24.47-2.75-35-2.12-9,.54-18,.4-26.75.26-3.87-.06-7.87-.12-11.77-.12h-9v-.74c-8.56,0-17.14-.1-25.51-.17-27.13-.22-55.18-.45-82.6.64-8.32.33-20.23-.15-27.67-8.16s-7-19.27-6.06-27.16a148.23,148.23,0,0,0,0-32.53c-1.12-10.42-1.3-23.36,7.32-30.92,6.38-5.6,15.8-6.78,28.79-3.63,4,1,5.68.48,6,.21.08-.07,2.07-1.77,1.88-11.26-.47-22.93-.49-47.54-.07-79.78,0-2.63.14-5.29.24-7.86.38-9.57.8-20.43-3.28-24-2.86-2.5-9.49-3-18.67-1.38-7.89,1.38-12.87-1.21-15.65-3.64-4.48-3.89-6.62-10-6.35-18.08.08-2.41.07-4.34,0-6.07-2.14-35-3.22-52.59,7.12-63.56s28.08-11,63.4-10.91c21.2,0,42.74.17,63.57.3,43.69.27,88.86.55,133.24,0,9.81-.12,20.82.76,27.88,8.29s7.08,18.42,6.49,26c-1.13,14.67-.85,29.9-.59,44.64.12,6.64.24,13.51.24,20.3,0,21.72-5.14,36.16-15.68,44.15-10.83,8.21-26.08,9.18-48,3-4.63-1.3-18.74-5.24-17.73-19.79.6-8.57-.63-14.61-3.65-18-4.77-5.29-15.45-5.67-26.76-6.08-2.31-.08-4.7-.17-7.06-.3-4.73-.26-9.62-.38-14.35-.49-6.62-.16-13.47-.32-20.3-.88-7.59-.62-12.73.22-15.28,2.49-3.05,2.72-4.66,9.32-5.06,20.79-.33,9.45,1.51,12.77,2.63,13.91,2.41,2.43,9.31,2.28,16,2.13,1.59,0,3.21-.07,4.83-.08h15.61c8.43.06,17.15.13,25.63-.14,6.46-.2,14.61.31,20.4,6.08,4.25,4.23,6.21,10.19,6,18.21-.48,17.3-9,25.85-25.23,25.47-7.37-.18-15-.07-22.31,0-10.88.16-22.14.33-33.34-.42-7.35-.5-8.89,1.12-8.95,1.18-.51.56-1.13,2.89-.24,8,.79,4.6.39,9.17,0,13.6-.37,4.19-.83,9.4.52,11,.35.41,1.92,1.79,7.5,2.24,20.46,1.64,42.13.67,70.25-3.14,6.78-.92,9-3.57,12-14.16s14.63-20.3,31.18-26.18c6.46-2.29,28.61-9,42.4.67,6,4.19,7.84,12,8.28,14.25a64.06,64.06,0,0,1,.71,13.44v2.13c-.13,10,.91,21.39,1.92,32.41,2.53,27.53,5.15,56-9,73.46C1883.85,623.78,1869.53,626.91,1853.53,626.91Zm-59.89-22.6c10.18,0,21,1.21,31.44,2.39,22.28,2.5,45.31,5.09,54.09-5.73,9.54-11.77,7.27-36.53,5.07-60.48-1.06-11.48-2.15-23.36-2-34.3v-2.26a49.19,49.19,0,0,0-.39-9.71,8.71,8.71,0,0,0-1.16-3c-3.71-2.34-13.86-2.53-25.81,1.71-11.6,4.12-18.79,10.22-19.89,14.11-2.41,8.52-6.89,24.38-26.92,27.1-29.46,4-52.31,5-74.12,3.25-9.08-.73-15.56-3.53-19.82-8.57-6.19-7.33-5.36-16.68-4.7-24.2.3-3.43.59-6.68.19-9-1.75-10.2-.24-17.77,4.61-23.16s12.66-7.82,23.52-7.09c10.46.7,21.35.54,31.87.39,7.52-.11,15.29-.23,23,0,3.31.08,5-.46,5.42-1,.29-.33,1.23-1.81,1.38-7,.09-3.45-.52-4.79-.7-5,0,0-1.1-1-7.13-.84-8.83.28-17.72.21-26.32.15-5,0-10.27-.08-15.37,0-1.53,0-3,0-4.54.08-10,.22-21.34.49-29.2-7.47-5.7-5.77-8.25-14.66-7.82-27.19.44-12.73,2.09-25.61,11.08-33.61,6.55-5.83,15.68-8.06,28.71-7,6.31.51,12.6.66,19.26.82,4.87.12,9.91.23,14.92.51,2.19.12,4.38.2,6.71.28,13.89.49,29.63,1,39.5,12,6.43,7.14,9.13,17.24,8.25,30.84a24.52,24.52,0,0,0,4.59,1.62c15.6,4.36,26.45,4.34,32.26-.06s8.55-14.33,8.55-29.82c0-6.62-.12-13.41-.24-20-.27-15.16-.55-30.83.64-46.34.65-8.45-.77-11.32-1.67-12.29-1.72-1.83-6.61-2.7-14.52-2.6-44.55.58-89.81.3-133.59,0-20.81-.13-42.33-.26-63.49-.3-27.24,0-45.24-.08-50.27,5.26s-3.9,23.13-2.25,50.11c.14,2.3.16,4.77.06,7.75a14.32,14.32,0,0,0,.23,3.5,2,2,0,0,0,.68-.09c15.28-2.68,26.28-.86,33.62,5.55,10.55,9.22,10,24.64,9.42,38.25-.1,2.46-.19,5-.23,7.4-.42,32-.4,56.45.07,79.17.16,7.92-.55,19.2-8.6,25.67-5.38,4.32-12.62,5.41-21.53,3.24-9.93-2.42-12.42-.55-12.67-.33-.63.56-2.6,3.31-1.29,15.46a166.22,166.22,0,0,1,0,36.48c-1,8.85.42,11.86,1.36,12.88s4.12,2.83,13.77,2.43c27.86-1.11,56.13-.88,83.47-.65,11.27.09,22.92.19,34.36.19h9v.8h3.05c8.78.14,17.07.27,25.39-.23C1789.18,604.37,1791.4,604.31,1793.64,604.31Zm87-113.22Z"/><path class="cls-13" d="M1766,400c9.18,0,18.37-.1,27.55,0,12.44.17,14.71,8.11,14.49,18.55-.2,9.9-4.7,15-14.55,15q-22.39,0-44.77-.25c-11.62-.17-23.62.72-23.38-16.9.23-17.15,11.25-17.19,23.44-16.66,5.73.25,11.48,0,17.22,0Z"/><path class="cls-14" d="M1763.72,516.45h-23.9c-10.33,0-13.41-5.71-13.56-15.24-.17-10.22.94-18.36,13.92-18.14,15.92.27,31.86.06,47.77.66,9.42.36,19.06,2.4,19.47,14.44.44,13-8.29,17.77-19.8,18.37-7.94.42-15.93.08-23.89.08Z"/><path class="cls-10" d="M3599.2,538.29c-1.53-16.86-18.88-6.82-28.65-10.14-9.58-3.27-19.79-3-25.73-14-22.17-41.14-45.05-81.9-67.19-122,10-9.54,27.87,2.26,28.6-16.67.76-19.55.75-39.12,1.75-58.65.69-13.54-7.5-14.31-17.58-14.29-55.26.14-110.52.07-165.79.07-8.08,0-20.5.59-15.63,11.07,11.16,24-29,63.2,22.74,75.22,8.14,1.89.9,12-1.72,17.53-17.26,36.24-35.21,72.16-52.3,108.48-5.3,11.27-12,14.52-24.27,11.57-24.43-5.85-33.16,5.35-30.16,29.41,1.55,12.47,1,25.35.08,38-1.08,14.32,3.07,20.45,18.83,20.08,41.42-1,82.88-.27,124.33-.41,6.52,0,15.77,1.52,16.26-7.79,1.21-23,3.8-46.47.2-68.86-3.4-21.16-29.37-2.73-40.15-16.46,6.88-17,11.68-36.4,36.81-31.12,34.43,7.24,80.28-21.44,103.73,37.53-41.57-9-47.74,11.28-43.29,41.35a92,92,0,0,1,0,24.13c-2,16.38,4.13,22.1,21,21.65,40.27-1.08,80.59-.22,120.88-.51,5.43,0,15.47-1.86,15.57-3.36C3599.05,586.18,3601.35,562,3599.2,538.29Zm-205.7-91.75,14-28.63c5.38,9.17,10.1,17.21,15.14,25.82-8,6.74-16.71,3.27-29.14,2.81Z"/><path class="cls-7" d="M3459.17,623c-7.22,0-16.55-1.11-22.66-7.83-6.56-7.21-6.21-17.12-5.37-23.94a83.22,83.22,0,0,0,0-21.8c-2-13.87-3.32-33.6,9-45.13,6.48-6.06,15.54-8.91,27.47-8.58-13.82-20.66-32.54-19.1-55.27-17.19-11.46,1-23.31,2-34.57-.41-13.52-2.84-17.46,2.54-23.87,18.72a48.25,48.25,0,0,0,8.85.14c9.07-.37,26-1.06,29.1,18.49,3.11,19.34,1.86,39.17.64,58.35-.26,4.15-.52,8.29-.74,12.41-.38,7.23-4.27,12.71-10.67,15-4.23,1.54-8.74,1.42-12.37,1.32-.76,0-1.5,0-2.21,0-13.87,0-28,0-41.65-.05-27.05-.1-55-.2-82.46.46-6.53.15-15.91-.41-22.2-7s-6.36-15.56-5.82-22.72c.86-11.72,1.45-24.24,0-36.16-2-16.27.76-27.57,8.53-34.52,7.36-6.58,18.35-8.18,32.66-4.76,8.06,1.94,10.55.76,14-6.65,9.51-20.21,19.44-40.61,29-60.33,7.68-15.78,15.62-32.09,23.28-48.19.52-1.1,1.13-2.23,1.78-3.44.38-.72.91-1.69,1.4-2.66-12.11-3.51-20.32-9-25-16.63-7.46-12.15-4-26.2-1-38.59,2.28-9.27,4.43-18,1.76-23.76-3.38-7.28-1.74-12.49.23-15.58,5.28-8.28,17.17-8.28,23.56-8.28h41.53c40.73,0,82.83,0,124.24-.08,6,0,15.21,0,21.31,6.38,3.94,4.14,5.67,9.82,5.28,17.37-.56,11-.81,22.17-1,33-.18,8.35-.37,17-.7,25.52-.75,19.33-15.49,20.29-22.58,20.75l-2.2.16q7.17,13,14.41,26c15.78,28.44,32.1,57.85,47.88,87.14,2.57,4.76,6.15,5.85,13.34,7.66,2.37.6,4.81,1.21,7.37,2.09,1.43.48,4.89.17,7.67-.08,4.74-.43,10.12-.92,15.15.88,4.88,1.74,10.9,6.11,11.89,17.05h0c1.9,21,.45,42.23-1,62.78q-.36,5.2-.7,10.39c-.53,8-8.93,9.66-13,10.49a63.16,63.16,0,0,1-11.58,1.3c-15,.11-30.25.06-45,0-24.81-.08-50.47-.17-75.61.5C3460.62,623,3459.91,623,3459.17,623Zm-85.44-17.29Zm92.05-72c-6.15,0-10.67,1.26-13.34,3.76-4.56,4.27-5.73,14.17-3.47,29.42l0,.14a101,101,0,0,1,0,26.49c-.86,7.06.42,9.1.83,9.56s2.6,2.13,11,1.92c25.42-.68,51.21-.59,76.16-.51,14.73.05,30,.1,44.9,0a44.32,44.32,0,0,0,7-.74q.16-2.33.32-4.66c1.36-19.85,2.77-40.37,1-59.93h0a8.28,8.28,0,0,0-.33-1.82c-1.45-.32-5,0-7.15.19-4.71.43-10,.92-15.1-.8-1.87-.64-3.86-1.14-6-1.67-8.17-2.06-18.33-4.63-24.78-16.57-15.74-29.2-32-58.56-47.78-87q-9.74-17.56-19.37-35l-3.35-6.07,5-4.79c6.44-6.14,14.31-6.65,20.06-7a28.74,28.74,0,0,0,5.33-.64,9.72,9.72,0,0,0,.42-2.84c.33-8.38.51-16.94.69-25.22.24-11,.49-22.33,1.06-33.55a9.62,9.62,0,0,0-.37-4c-.89-.53-3.58-.79-8-.79h-.22c-41.43.1-83.55.09-124.29.08h-41.52a54.17,54.17,0,0,0-6.61.32c4.1,10.93,1.16,22.94-1.46,33.6-2.42,9.84-4.7,19.14-1.17,24.88,2.59,4.22,8.78,7.49,18.39,9.73a13.32,13.32,0,0,1,9.55,7.44c3.2,7.07-.85,14.59-3.8,20.08-.53,1-1,1.93-1.37,2.63-7.71,16.18-15.66,32.53-23.36,48.34-9.57,19.67-19.47,40-28.93,60.12-7.15,15.19-18.12,20.43-34.52,16.49-8-1.91-13.84-1.68-16.46.67-2.91,2.61-3.86,9.31-2.67,18.88,1.67,13.48,1,27.05.13,39.72-.53,7.08.67,8.73.92,9s1.72,1.6,8.72,1.43c27.68-.67,55.78-.57,83-.47,13.62,0,27.71.1,41.55.05.89,0,1.79,0,2.72,0a45.33,45.33,0,0,0,4.62,0c.21-4,.47-8,.71-11.88,1.15-18.19,2.34-37-.45-54.36-.54-3.34-.61-3.76-10.6-3.36-8.47.34-20.06.82-27.75-9l-3.22-4.1,2-4.83c.61-1.52,1.21-3.05,1.81-4.59,3.31-8.52,6.73-17.34,13.15-23.9,8-8.15,18.74-10.86,32.05-8.06,8.68,1.83,18.73,1,29.36.09,27.51-2.3,61.76-5.18,80.88,42.92l6.24,15.7-16.51-3.57A75.67,75.67,0,0,0,3465.79,533.66Zm-55.53-76.83a85.1,85.1,0,0,1-9-.62c-2.6-.28-5.29-.56-8.1-.66l-13.83-.51,27.45-56.13,11.11,18.94c4.33,7.38,8.31,14.17,12.52,21.35l3.83,6.54-5.79,4.89C3422.54,455.59,3416.29,456.82,3410.25,456.82Zm-2.9-18.13c.71.06,1.37.1,2,.12l-1.11-1.89Z"/><path class="cls-10" d="M2383.88,302.62c40.28,0,80.59,1,120.81-.43,20.28-.73,30,3.62,27.5,26.18-1.91,17.06-.38,34.5-.38,51.78,0,47.37-3.55,50.32-50.77,44.73-8.44-1-16.29-.52-16.06-12.37.54-27.88-23.39-23.77-37.51-23.54-22.8.37-9.44,21-11,32.13-2.51,18.08-1,36.76-.59,55.18.57,25.44-9.2,58.48,37.54,50.66,9.24-1.55,12,7,13.43,16.17,9.78,62.77,3.61,70.47-58.73,70.47-28.79,0-57.63-1.08-86.35.36-20.29,1-26.6-7-24.61-26a160,160,0,0,0,0-34.5c-2.46-21.66,7.31-30.25,27.66-27.2,23.86,3.57,29.58-7.25,28.26-29.12-1.66-27.54.1-55.27-.67-82.88-.28-10,6.24-26.1-12.35-26.35-15.22-.2-36.58-3.38-40,17.45-6.3,38.88-34.24,15.94-50.83,18.08-23.15,3-13.11-19.54-13.56-30.82-1.15-28.61-9.85-64.63,3.86-83.9,13.26-18.64,51.55-4.14,78.78-6.21,21.72-1.65,43.66-.33,65.51-.33A2.18,2.18,0,0,1,2383.88,302.62Z"/><path class="cls-7" d="M2318.3,623c-7.64,0-17-1.33-23.52-8.21-7.65-8.08-7.41-19.78-6.56-27.88a150.25,150.25,0,0,0,0-32.54c-1.54-13.55,1.12-23.75,7.92-30.31s16.83-8.79,30-6.81c7.48,1.12,12.65.61,14.94-1.49,1.77-1.62,3.74-6.1,3-18.19-1-16.15-.79-32.48-.62-48.27.13-11.48.26-23.34-.06-34.91a63.26,63.26,0,0,1,.46-8c.27-2.66.76-7.56.06-8.92a9,9,0,0,0-4-.65c-1.67,0-3.41-.08-5.2-.14-18-.59-24.26.78-25.76,10-2.09,12.92-6.65,21.54-13.93,26.33-10.19,6.71-22.24,3.7-31.92,1.27-4.77-1.19-9.72-2.43-12.72-2-8.79,1.13-15.54-.61-20-5.18-7.16-7.26-5.63-18-4.4-26.66a51.29,51.29,0,0,0,.75-7.55c-.27-6.81-1-14-1.75-21.7-2.46-24.84-5-50.53,7.27-67.78,11.88-16.7,35-14.1,57.33-11.57,9.74,1.1,19.81,2.24,28.1,1.61,15.46-1.17,31.08-.89,46.19-.6,6.57.12,13.37.25,20,.25h9v.54c8.86,0,17.75.1,26.41.16,27.93.21,56.81.42,85.07-.6,10.85-.39,23,.3,30.53,8.46s7.14,19.68,6.24,27.72c-1.25,11.17-.94,22.5-.62,34.5.14,5.32.29,10.82.29,16.28,0,24.55-.72,40.09-10.64,48.9s-25.58,7.68-50.19,4.77l-2.29-.25c-7.17-.73-22.08-2.25-21.71-21.24.11-5.47-.91-9.3-3-11.37-3.93-3.84-13.17-3.46-20.59-3.16-1.66.07-3.26.13-4.75.16a11.79,11.79,0,0,0-4.54.69c-.45,1.72.54,6.71,1.08,9.44.93,4.69,1.9,9.55,1.25,14.24-1.87,13.47-1.39,27.26-.88,41.87.14,3.89.28,7.9.37,11.87.09,4.21-.07,8.54-.23,12.72-.43,11.2-.88,22.78,4.13,27.19,3.71,3.27,11.72,4,23.16,2.07a18,18,0,0,1,13.9,3c6.64,4.79,8.74,13.16,9.91,20.71,5.44,34.91,6.15,53.73-4.57,66.25-10.57,12.35-29.52,14.61-63,14.61h0c-8.7,0-17.52-.1-26.05-.2-19.68-.22-40-.45-59.84.54C2321,623,2319.68,623,2318.3,623Zm-.84-88.44c-4.1,0-7.15.83-8.83,2.45-2.48,2.4-3.38,7.84-2.53,15.32a168.3,168.3,0,0,1,0,36.45c-.73,7-.13,11.66,1.73,13.62s6.64,2.84,13.48,2.5c20.37-1,41-.79,60.95-.56,8.48.1,17.25.2,25.85.2h0c26.08,0,43.43-1.39,49.36-8.32s4.74-24.32.46-51.77c-1-6.21-2.08-8.17-2.53-8.74a4,4,0,0,0-.53.06c-17.45,2.92-29.88.85-38-6.31-11.43-10.06-10.79-26.71-10.22-41.39.16-4.1.31-8,.22-11.62-.09-3.85-.23-7.82-.36-11.65-.52-14.73-1-30,1-45,.23-1.69-.46-5.18-1.07-8.26-1.5-7.57-3.38-17,2.52-24.3,3.82-4.73,10-7.2,18.29-7.33,1.35,0,2.8-.08,4.31-.14,10.31-.42,24.43-1,33.92,8.28,5.8,5.68,8.64,14,8.43,24.58a9.91,9.91,0,0,0,.15,2.17,34.42,34.42,0,0,0,5.4.81l2.58.28c16.61,2,31.88,3.42,36.12-.35s4.59-18.92,4.6-35.45c0-5.21-.15-10.58-.29-15.78-.33-12.08-.67-24.58.72-37,.76-6.79.21-11.58-1.55-13.48-2-2.12-7.59-3-16.68-2.7-28.65,1-57.73.82-85.86.61-11.57-.09-23.53-.17-35.28-.17h-9V311c-3.81,0-7.61-.12-11.33-.19-14.69-.27-29.87-.55-44.49.56-10,.75-20.91-.48-31.48-1.67-17.17-1.94-34.91-3.94-40.65,4.12-8.36,11.76-6.16,34-4,55.58.75,7.58,1.53,15.41,1.82,22.75a61.94,61.94,0,0,1-.91,10.81c-.47,3.33-1.34,9.42-.58,11.41a12.3,12.3,0,0,0,4.91,0c6.38-.82,13,.83,19.38,2.43,6.92,1.73,14.07,3.52,17.65,1.16,2.72-1.79,4.87-6.83,6.06-14.18,1.88-11.61,8.54-19.59,19.25-23.07,8-2.61,17-2.32,24.86-2.07,1.66,0,3.29.11,4.85.13,7.55.1,13.34,2.34,17.19,6.65,6,6.75,5.1,16,4.42,22.73a50.46,50.46,0,0,0-.38,5.72c.33,11.92.2,24,.07,35.61-.17,15.47-.35,31.47.59,47,.65,10.8.24,24.27-8.82,32.56-6.61,6-16.34,8-29.75,6a41.14,41.14,0,0,0-6-.44Z"/><path class="cls-10" d="M2194.65,368.85v20.69c0,46.82-4.3,50.1-50.59,42.35-9.26-1.55-13.47-5-16.79-13.73-12.18-32.09-32.58-38.89-77.42-31.16-30.94,5.33-34.21,25.52-32.57,50.54.6,9.16.08,18.39.1,27.58.09,56.65,23.88,76.35,79.29,64.84,13.59-2.82,27.82-7.53,29.5-24.43,4-40.6,34.69-18.87,53.11-21.6,24-3.56,15,18.59,15.49,29.56,3.42,74.29-14,93.8-88.74,99.86-20.5,1.66-41.53,2.44-61.83-.15-66.5-8.5-97.13-32.7-93-101.39,2.9-48,0-96.41.75-144.61.62-40.32,17.1-58.91,57.13-63.91,32-4,66.24-8.15,94.39,8.78,22.48,13.52,28.26-12.2,46.51-11,44.43,3,44.64-.08,44.64,43.59Q2194.65,356.77,2194.65,368.85Z"/><path class="cls-7" d="M2072.93,623.89a236.93,236.93,0,0,1-29.86-1.75c-38-4.85-62.11-14.33-78.26-30.74-17.62-17.9-24.79-43.36-22.57-80.12,1.76-29.18,1.35-59.15,1-88.13-.25-18.37-.51-37.36-.22-56.08.69-44.75,20.74-67.17,65-72.71,32.41-4,69.15-8.64,100.14,10,8,4.82,11,2.57,18.2-2.86,6-4.5,13.42-10.1,24.28-9.37l8.23.53c20,1.25,31,1.94,38,10.25,6.75,8,6.75,19.26,6.76,41.79v44.84c0,23.62-.77,39.75-11,48.43s-26.47,6.74-50,2.8c-12.4-2.08-19.28-7.7-23.72-19.41-9.14-24.09-21-33.48-67.47-25.49-23.38,4-26.73,16.46-25.11,41.09.43,6.58.32,13.11.21,19.43,0,2.88-.1,5.85-.09,8.73,0,25.84,5.18,42.57,15.71,51.12s27.73,10.12,52.74,4.92c15.83-3.29,21.48-7.45,22.38-16.51,1.33-13.38,5.46-22.5,12.64-27.88,10.17-7.62,23.2-5.18,33.67-3.22,5.31,1,10.8,2,14.45,1.48,9.26-1.37,16.38.28,21.15,4.9,7.4,7.16,6.11,18.24,5.18,26.33a51.79,51.79,0,0,0-.52,6.82c1.94,42.16-3.08,65.89-17.34,81.91s-37.29,23.9-79.67,27.33C2096.87,623.14,2085.23,623.89,2072.93,623.89Zm-20.81-315.18c-13.73,0-27.92,1.77-41.9,3.52-35.35,4.42-48.69,19.36-49.25,55.12-.29,18.46,0,37.32.22,55.56.4,29.31.81,59.61-1,89.46-1.89,31.31,3.65,52.41,17.43,66.41,12.95,13.15,34.46,21.26,67.71,25.51,21.1,2.7,43.13,1.47,60,.11,70.14-5.69,83.68-20.91,80.48-90.48a62.38,62.38,0,0,1,.63-9.71c.36-3.12,1.1-9.54.17-11.31-.38-.15-2-.64-6,0-6.63,1-13.63-.33-20.4-1.6-7.73-1.45-15.72-3-19.56-.07-2.83,2.12-4.74,7.4-5.52,15.26-2.51,25.26-26.42,30.23-36.63,32.35-30.65,6.37-52.81,3.56-67.75-8.57s-22.32-33.47-22.37-65.07c0-3,0-6.11.1-9.07.11-6.23.21-12.11-.18-17.94-1.7-26,1.72-53.4,40-60,42.52-7.33,72-3.72,87.36,36.84,2.18,5.74,3.74,7,9.86,8,15.58,2.61,31.15,4.85,35.44,1.22s4.66-19.82,4.66-34.7V344.71c0-15.21,0-27.23-2.48-30.14-2.09-2.46-12.4-3.11-25.45-3.93l-8.32-.54c-4-.26-7.09,1.91-12.23,5.79-7.92,6-19.89,15-38.31,3.91-14-8.47-30-11.09-46.71-11.09Z"/><path class="cls-10" d="M3190.16,364.73c-1-31-15.28-48.18-45.32-55.78-41-10.37-82.41-4-123.58-8.06-17.19,0-34.4-.45-51.58.08-78.35,2.41-59.76-12.69-62.32,70.42-.26,8.3-.11,17.81,11.76,15.54,39.24-7.53,36,17.9,35.06,43.06-.87,24.11-1.11,48.32.11,72.4.89,17.6-4.45,26.52-23,23.57-20.54-3.26-26,6.55-24.2,25.34,1.32,13.67.86,27.6.09,41.35s2.27,20.89,18.54,20.57q62-1.21,124.12.7c16.71.5,22.81-5.1,21.34-21.6a200.77,200.77,0,0,1,0-37.9c1.92-18.94-4.5-28-24.48-25.89-27.81,3-29-13.65-29.61-35.83-.84-29,20.77-18.5,33.22-21.47,10.61-2.52,22.66,1.71,34.08,1.81C3182.44,473.87,3193.28,462.29,3190.16,364.73ZM3055.68,433c-13.24.69-28.74,2.75-29.48-18.39-.79-22.49,13.79-22.68,24.48-21.58,24.68.55,53.15,1,52.94,20.87C3103.4,435,3074.23,432,3055.68,433Z"/><path class="cls-7" d="M3051.91,623c-.81,0-1.59,0-2.34,0-41.08-1.26-82.69-1.5-123.67-.7-6.28.13-15.35-.46-21.6-6.93s-6.54-15.28-6.1-23.14c.72-12.93,1.22-26.72-.06-40-.84-8.81-1-21.43,7.51-29.4,6.11-5.75,15-7.61,27.06-5.69,5.08.81,8.84.5,10.33-.84.85-.76,2.77-3.59,2.27-13.39-1.1-21.67-1.14-44.93-.12-73.18q.08-2,.16-4c.5-11.94,1-24.29-3.87-28.51-3.3-2.84-10.44-3.31-20.66-1.35-6.63,1.27-12.05.14-16.14-3.35-6.8-5.8-6.49-15.51-6.31-21.31.49-15.93.2-28,0-37.73-.43-17.85-.67-27.69,5.94-34.43s16.36-6.78,35.65-6.69c7.82,0,17.54.08,29.49-.29s24-.27,35.7-.17c5.3,0,10.79.09,16.16.09l.88,0c15.37,1.52,31.25,1.54,46.61,1.56,25.54,0,52,.07,78.29,6.73,33.95,8.59,51,29.59,52.11,64.21h0c1.64,51.19-.63,80.35-17.56,97.68s-46.08,20.35-97.28,19.91a107.57,107.57,0,0,1-14.44-1.41c-6.47-.93-12.59-1.81-17.48-.65-4.31,1-8.77.89-13.08.76s-9.67-.29-11.29,1.33c-.51.51-2.16,2.76-1.94,10.36.27,9.94.58,21.19,4.93,25,3.15,2.75,9.74,2.69,14.72,2.15,12.26-1.3,21.15,1,27.18,7,6.19,6.16,8.55,15.56,7.21,28.74a192.29,192.29,0,0,0,0,36.14c.62,6.92.66,16.86-6,23.92C3068.05,621.85,3059,623,3051.91,623Zm-78.2-19.2c25.49,0,51,.39,76.4,1.17,8.05.24,10.32-1.23,10.93-1.88s1.81-2.77,1.17-9.93a210.24,210.24,0,0,1,0-39.55c.73-7.19,0-12.22-2-14.23-1.87-1.86-6.34-2.52-12.57-1.86-12.6,1.36-21.91-.76-28.47-6.49-10.28-9-10.71-24.42-11.08-38-.31-10.72,2-18.45,7.21-23.6,7.12-7.11,16.79-6.82,24.55-6.59,3.13.1,6.37.19,8.37-.28,8.24-2,16.36-.79,24.21.34a92.89,92.89,0,0,0,12,1.22c45.08.38,71.87-1.81,84.25-14.49s13.89-39.45,12.44-84.53h0c-.87-26.92-12-40.64-38.53-47.34-24.18-6.12-48.33-6.15-73.9-6.18-15.64,0-31.82,0-47.91-1.6-5.3,0-10.67,0-15.87-.09-11.5-.1-23.4-.19-35,.17-12.26.38-22.17.33-30.12.29-10.08,0-20.51-.1-22.71,1.3-1.27,2.14-1,11.92-.81,21.38s.54,22.3,0,38.73a41.6,41.6,0,0,0,.18,6.56c.25,0,.55-.07.9-.14,16.26-3.12,28-1.36,35.8,5.39,11.49,9.91,10.78,26.68,10.1,42.9-.05,1.31-.11,2.62-.16,3.94-1,27.71-1,50.47.1,71.61.42,8.34,0,20.29-8.22,27.69-5.87,5.27-14.11,7-25.18,5.22-5.88-.93-10.22-.56-11.91,1-.91.86-2.93,4-1.92,14.57,1.4,14.45.88,29.07.12,42.71-.41,7.26.63,9.16,1.09,9.64.25.26,1.83,1.55,8.29,1.43Q2949.52,603.75,2973.71,603.75Zm72.66-161.36c-7.28,0-15-1.11-20.94-6.56-5.14-4.69-7.91-11.72-8.23-20.91-.38-10.92,2.35-19.2,8.13-24.6,8.44-7.89,20.44-6.85,25.91-6.29h.32c13,.29,26.46.59,37.53,3.55,19.62,5.25,23.63,17.25,23.53,26.4-.07,6.88-2.67,19.22-19.31,24.52-8.81,2.8-19.41,3-28.77,3.22-3,.06-5.82.12-8.38.26h0l-2.06.11C3051.64,442.24,3049,442.39,3046.38,442.39Zm-1.57-40.7c-2.89,0-5.69.4-7.18,1.79-1.76,1.64-2.62,5.48-2.43,10.82.14,4,1,7,2.37,8.24,2.56,2.34,9.43,1.94,15.49,1.6l2.15-.12c2.85-.15,5.82-.21,9-.28,8.13-.17,17.35-.36,23.68-2.37s6.74-4.59,6.77-7.55c0-2.27.06-6.07-10.19-8.82-9-2.4-21.33-2.68-33.28-2.94l-1.4-.06A49.24,49.24,0,0,0,3044.8,401.69Z"/><path class="cls-10" d="M1508.58,308.76c-40-9.41-80.11-4-120.12-7.87h-61.92c-55.58.07-68.73,18-55.17,73.81,2,8,5.25,13.72,13.11,12.13,41.25-8.4,33.79,20.38,33.84,43.53.06,24.13-1,48.33.34,72.39,1,17.44-3.7,25.63-22.56,23.57-8.33-.91-21.9-3.77-23,8.28-2.17,23.89-5.77,49.64.89,71.71,5,16.52,28.64,5.68,43.8,6.88,20.56,1.62,41.35.4,62,.4,55.82,0,55.55,0,55.39-56.22,0-16.74,2.22-32.27-23.65-28.83-26.29,3.49-27.21-14.1-27.75-34.8-.65-25,14.94-20.52,29.3-20.58,20.69-.1,41.46,1.07,62.06-.32,71.69-4.84,79.08-13.19,79.1-85.28,0-6.9-.27-13.81,0-20.69C1555.8,334.27,1540.85,316.36,1508.58,308.76Zm-71,123.52c-21.83,0-38.08,4-37.58-20,.33-16.06,9.18-21.22,21.48-17.76,17.52,4.92,46.86-1.55,49,20.3,1.94,20.08-24,16.88-32.92,17.46Z"/><path class="cls-7" d="M1289.28,624.58a38.32,38.32,0,0,1-5.83-.41c-11.67-1.8-16.27-9.29-18.08-15.25-6.43-21.3-4.18-44.58-2-67.09.26-2.7.52-5.38.76-8,.63-6.88,3.91-10.87,6.55-13,7.16-5.77,17-4.56,24.17-3.67l2.21.26c7.67.84,10.06-.55,10.73-1.19.92-.88,2.39-3.72,1.86-12.92-.93-16.72-.72-33.62-.52-50,.09-7.52.19-15.3.17-22.92,0-3.29.13-6.63.26-9.86.38-9.61.82-20.49-3.3-24-3-2.57-10.13-2.88-20-.87-6.74,1.36-18.76.74-23.64-18.77-8-32.85-6.86-52.61,3.74-66.11,10.22-13,28.78-18.85,60.15-18.89h62.37l.43,0c15,1.45,30.48,1.57,45.45,1.68,24.72.18,50.28.37,75.86,6.39h0c37.13,8.75,54.33,30.76,52.59,67.3-.17,4.27-.11,8.63-.05,13.24,0,2.34.06,4.68.06,7,0,39.08-2.27,60.11-15.06,74s-33.64,17.67-72.43,20.29c-14.14,1-28.41.73-42.2.52-6.71-.1-13.65-.21-20.42-.18-2.13,0-4.2-.07-6.21-.15-4.72-.18-10.59-.4-12.24,1.23-.49.49-2.09,2.67-1.89,10.26.24,9.3.54,20.89,4.75,24.47,2.8,2.39,8.51,2.21,12.82,1.64,11.65-1.55,20.11.17,25.86,5.25,8.21,7.26,8.1,18.26,8,28.89,0,1.19,0,2.39,0,3.6v.78c.09,30.15.13,45.28-9.42,54.85s-24.74,9.58-55,9.58c-6.12,0-12.4.11-18.48.22-14.46.26-29.41.52-44.23-.65-3.65-.29-8.66.41-13.51,1.08A105.43,105.43,0,0,1,1289.28,624.58Zm-7.11-89.86a4.62,4.62,0,0,0-.11.7c-.24,2.69-.51,5.41-.77,8.14-2,20.77-4.09,42.25,1.32,60.15.44,1.46.8,2.24,3.58,2.67,3.8.59,9.44-.2,14.9-1,5.81-.81,11.81-1.64,17.41-1.2,13.95,1.1,28.46.84,42.49.59,6.15-.11,12.51-.22,18.8-.22,22.85,0,37.95,0,42.23-4.29s4.23-19.33,4.17-42.09v-.81c0-1.3,0-2.56,0-3.81.06-6,.13-13.42-1.92-15.23-.56-.5-3.05-2-11.57-.89-11.7,1.55-20.49-.34-26.87-5.79-10.31-8.8-10.71-24.15-11.06-37.7-.28-10.75,2.09-18.45,7.23-23.54,7.19-7.11,17-6.74,25.58-6.41,1.9.07,3.71.14,5.45.13,6.94,0,14,.08,20.78.18,13.43.21,27.32.42,40.71-.48,32.5-2.19,51.75-5.16,60.42-14.55s10.28-28.17,10.28-61.75c0-2.26,0-4.52-.06-6.78-.06-4.64-.12-9.44.07-14.26,1.32-27.66-10.26-42.29-38.73-49-23.61-5.55-47.06-5.73-71.87-5.91-15.22-.11-31-.23-46.61-1.72h-61.49c-25,0-39.6,3.84-46,12-6.63,8.45-6.77,24.56-.42,50.68.89,3.57,1.72,5,2.09,5.51a4.75,4.75,0,0,0,.49-.08c16.06-3.27,27.59-1.7,35.24,4.8,10.79,9.18,10.17,24.72,9.63,38.43-.13,3.19-.25,6.2-.24,9.1,0,7.74-.08,15.59-.17,23.18-.2,16-.4,32.63.5,48.73.5,8.79.11,19.81-7.44,27-5.57,5.29-13.78,7.27-25.08,6l-2.46-.29C1290.06,534.65,1284.11,533.92,1282.17,534.72Zm-.27-156.63Zm140.72,63.43c-9.56,0-18.28-1-24.53-7.24-5-5-7.29-12.22-7.09-22.19.27-13.35,5.58-20,10-23.31,4.19-3.1,11.56-6.13,22.94-2.93,4.19,1.18,9.64,1.6,15.41,2.06,15.07,1.18,37.85,3,40.11,26,.87,9-2.42,14.78-5.34,18-8.26,9.14-22.45,9.19-31.84,9.23-1.61,0-3.13,0-4.11.08l-.57-8.67v8.69c-2.74,0-5.42.07-8,.13C1427.22,441.47,1424.9,441.53,1422.62,441.53Zm-7.93-39a5.05,5.05,0,0,0-3,.75c-1.6,1.18-2.61,4.63-2.7,9.22s.56,7.84,1.79,9.07c2.29,2.28,10.44,2.08,18.33,1.88,2.61-.06,5.31-.13,8.16-.14,1.45-.08,3.06-.09,4.9-.1,5.07,0,15.63-.06,18.57-3.31.26-.29,1.07-1.18.77-4.19-.64-6.53-5.05-8.37-23.6-9.83-6.38-.5-13-1-18.87-2.67A16.47,16.47,0,0,0,1414.69,402.49Z"/><path class="cls-10" d="M2858.06,379.8c-.39-41.28-13.18-58.5-53.08-69.31-54.47-14.76-109.42-13-163.71,1-32.63,8.42-50.51,29.87-49.79,65.13.57,27.62.11,55.26.11,82.89,0,25.32-.09,50.65,0,76,.2,41.31,11.86,58.79,51.8,69.81,53.05,14.65,106.95,13.54,160.33,1.13,39.9-9.28,53.82-27,54.29-67.73C2858.64,485.72,2858.55,432.75,2858.06,379.8Zm-82.15,79.54c0,54.81,0,54.81-50.61,55.06-49.63.25-50.9-4.11-52.69-75.93-1-40.2,24.81-33,47.87-33.1,55.44-.29,55.44-.11,55.43,54Z"/><path class="cls-7" d="M2723.49,625A308.83,308.83,0,0,1,2641,614c-42.9-11.84-58.18-32.36-58.4-78.44-.06-16.93,0-34.12,0-50.73q0-12.66,0-25.31c0-8.55,0-17.09.09-25.64.1-18.73.2-38.09-.2-57.06-.79-38.68,18.76-64.28,56.54-74,58.45-15.07,115.07-15.4,168.31-1,43.66,11.83,59.29,32.22,59.73,77.91h0c.54,58.59.53,110.64,0,159.11-.27,23.31-4.69,39.09-14.32,51.17s-24.48,20-46.93,25.22A363.08,363.08,0,0,1,2723.49,625Zm3.5-315.76a333.85,333.85,0,0,0-83.47,11c-29.58,7.63-43.66,26-43,56.23.4,19.21.3,38.69.2,57.53,0,8.52-.09,17-.09,25.55s0,16.89,0,25.33c0,16.6,0,33.76,0,50.64.19,38.28,9.9,51.43,45.19,61.17,48.64,13.43,101.09,13.78,155.9,1,35.84-8.34,46.9-22.14,47.33-59.07.57-48.35.59-100.27,0-158.73h0c-.35-37.43-10.77-51-46.43-60.71A288.24,288.24,0,0,0,2727,309.23Zm-5.3,214.18c-23.8,0-39.11-1.5-48.14-14.93-8.15-12.12-9-31.21-9.93-69.79-.39-15.56,2.91-26.56,10.09-33.65,10.06-9.93,24.77-9.38,37.75-8.89,3,.11,6.08.23,9,.22,30.22-.16,45.4-.24,55,9.31s9.48,24.22,9.48,53.66c0,29.7,0,44.61-8.7,54.08-9,9.77-23,9.84-50.87,10Zm-19.23-109.48c-6.9,0-12.84.71-16.1,3.92s-5,10.22-4.74,20.39c.83,33.14,1.55,52.27,6.88,60.19,4.12,6.13,14.21,7.08,36.77,7,20.49-.1,34-.17,37.7-4.16,4-4.3,4-19.26,4-41.9h0c0-22.12,0-36.74-4.17-40.9s-19.38-4.19-42.21-4.07c-3.29,0-6.58-.11-9.75-.23C2707.92,414,2705.11,413.93,2702.45,413.93Z"/></svg>