<?xml version="1.0" encoding="utf-8"?>
<!-- Generator: Adobe Illustrator 21.1.0, SVG Export Plug-In . SVG Version: 6.00 Build 0)  -->
<svg version="1.1" id="Шар_1" xmlns="http://www.w3.org/2000/svg" xmlns:xlink="http://www.w3.org/1999/xlink" x="0px" y="0px"
	 viewBox="0 0 800 338" style="enable-background:new 0 0 800 338;" xml:space="preserve">
<style type="text/css">
	.st0{fill:#BE9851;}
	.st1{fill:#FEFEFB;}
	.st2{fill:#F8F086;}
	.st3{fill:#C19C57;}
	.st4{fill:#BF9952;}
	.st5{fill:#BF9A53;}
	.st6{fill:#8B1406;}
	.st7{fill:#FFFFFF;}
	.st8{fill:#8C1406;}
	.st9{fill:#131112;}
</style>
<path class="st0" d="M718.2,312.1c-212.2,0-424.5,0-636.7,0c-19.6-3-29.2-15.8-33.2-34c-0.8-3.8-2.3-5.8-6.3-6.4
	c-10.6-1.5-18.6-7.4-25.3-15.5c-6-7.2-7.5-15.6-7.5-24.5c-0.1-45,0.3-90-0.2-134.9C8.8,75.6,25.5,60.2,41,57.8
	c4.8-0.7,6.5-2.8,7.4-7.4c2.9-13.7,10-24.6,23.1-30.9c5.3-2.6,11-2.6,16.6-2.6c103.3-0.1,206.6,0,310,0c104.7,0,209.4,0.3,314.1-0.3
	c23-0.1,37.7,17.2,40.5,34.6c0.7,4.3,2.4,5.7,6.5,6.4c13.2,2.4,22.9,9.9,29.1,21.9c1.9,3.7,1.7,7.7,2.8,11.5c0,49.8,0,99.5,0,149.3
	c-2.2,10.3-7.4,18.7-16,24.8c-5.4,3.8-11.5,5.8-17.9,6.8c-3,0.5-4.1,1.8-4.4,4.7c-1.8,13.4-8.4,23.7-19.7,31.2
	C728.4,310.7,723.2,311,718.2,312.1z"/>
<path class="st1" d="M401.2,27.2c102.6,0,205.2,0.2,307.8-0.2c17.6-0.1,33.3,11.9,33.2,33.1c0,8.1,0.1,8.1,8.3,8.4
	c19.5,0.8,31.3,13,31.3,32.7c0.1,42.1,0,84.2,0,126.2c0,16.6-9.1,29.4-23.1,32.5c-3.3,0.7-6.7,0.7-10.1,0.8
	c-6.5,0.2-6.5,0.1-6.5,6.8c0.1,6.4-0.7,12.6-3.8,18.3c-5.5,10.1-13.9,15.7-25.5,16.2c-1.7,0.1-3.4,0.1-5.1,0.1c-205,0-410,0-615.1,0
	c-16.5,0-27-6.7-32-20.4c-2-5.3-1.8-10.9-1.6-16.4c0.1-3.4-0.9-4.5-4.4-4.5c-7.2,0-14.4,0.2-20.9-4c-11.7-7.7-15-19.2-14.9-32.3
	c0.2-17.5-0.1-35,0.3-52.5c0.4-18.6-0.2-37.1-0.3-55.7c0-6.4,0.2-12.9,0.5-19.3c0.8-15.9,13.9-28.3,29.9-28.4
	c9.6-0.1,9.6-0.1,9.7-9.4c0.2-19.5,12.6-31.8,32.1-31.8C194.5,27.2,297.9,27.2,401.2,27.2z"/>
<path class="st0" d="M400.4,36.5c102.7,0,205.5,0,308.2,0c4.5,0,8.9,0.2,13,2.4c7.5,4.2,11.1,10.7,11.2,19.3
	c0.1,5.2,0.2,10.4,0,15.7c-0.1,3.3,1.2,4.3,4.3,4.1c4.9-0.3,9.7-0.8,14.7-0.2c13.6,1.7,20.8,9.5,20.8,23.3c0,19.8,0,39.6,0,59.4
	c0,21.2-0.4,42.4,0.1,63.6c0.5,22.7-11.4,28.5-30.2,27.7c-9.6-0.4-9.6-0.6-9.6,8.8c0,5.1,0.5,10.1-0.6,15.1
	c-2.3,10.2-9.7,16.5-20.2,17c-4.1,0.2-8.3,0-12.4,0c-199.6,0-399.3,0-598.9,0c-3.4,0-6.8,0.2-10.1,0.1c-14.1-0.3-22.5-8.5-22.9-22.7
	c-0.2-4.9,0-9.8,0.2-14.7c0.1-3-1.1-4.2-4-3.8c-5.5,0.7-11,0.5-16.5-0.1c-9.7-1.1-16.8-7.5-18.5-17.1c-0.5-2.9-0.8-5.8-0.8-8.7
	c-0.1-40.7,0-81.4-0.1-122.1c0-3.6,0.3-7.1,1.3-10.5c2.8-9.9,9.9-14.9,22.4-15.5c4.1-0.2,8.3-0.2,12.4,0.2c3,0.3,3.8-0.7,3.8-3.4
	c0-6.1-0.8-12.3,0.2-18.4c2.1-12.8,9.8-19.4,22.7-19.4c30.9,0,61.7,0,92.6,0C255.8,36.5,328.1,36.5,400.4,36.5z"/>
<path class="st2" d="M47.5,164.7c-10.5-6.8-14-14.5-11.1-24.3c1.5-5.1,4.5-9.2,9.8-10.7c3.2-1,4.2-1.8,2-5.1
	c-3.5-5.3-4.1-11.2-0.9-17c2.8-5.1,8.5-7.1,13.9-5.1c5,1.8,8.2,7.2,7.3,12.5c-0.6,3.7-2.7,6.2-6.5,6.9c-2.8,0.5-5.1-0.7-6.5-3.3
	c-0.6-1.1-1.2-2.3-0.3-3.5c1.1-1.4,1.8,0.1,2.7,0.5c1.5,0.5,2.8,0.4,3.7-1c0.8-1.2,0.8-2.7,0-4c-0.9-1.4-2.3-2.1-4-1.6
	c-3.4,1.1-5.4,3.5-5.7,7.1c-0.3,4,0.9,7.6,3.7,10.5c2.5,2.5,5.2,4.8,7.5,7.5c6.1,6.7,6,16.5-0.2,21.9c-3.5,3.1-8.7,3.7-12.8,1.4
	c-4-2.2-5.3-5.8-4.7-10.1c0.4-3,2.1-5.1,4.9-6.1c1.9-0.7,3.7-0.3,5,1.2c1.7,1.9,0.1,2.8-1.2,4c-1.8,1.5-1.3,3.4,0,4.9
	c1.3,1.5,3.2,2.1,5,0.9c2.8-1.8,4.2-4.4,3.6-7.8c-1.1-5.9-5.6-10-11-9.9c-5.6,0-11,5-11.7,11.1c-0.7,5.8,1.2,10.8,5.8,14.2
	c4.9,3.6,10.6,4.6,16,1.2c3.7-2.3,4.1-0.9,3.8,2.4c-0.1,1.1-0.1,2.2,0,3.2c0.2,3-0.4,3.9-3.5,2.1c-5-3-10.4-3.1-15.3,0.2
	c-5.1,3.4-7.3,8.6-7,14.7c0.3,6,5.9,11.4,11.7,11.5c5.2,0.1,10-4.2,11-10c0.5-3.2-0.6-5.8-3.3-7.6c-1.8-1.2-3.9-1.2-5.3,0.7
	c-1.4,1.7-1.8,3.7,0.4,5.2c1.2,0.9,2.4,1.6,1.2,3.3c-1.1,1.6-2.5,2.2-4.4,1.8c-2.7-0.6-4.9-2.1-5.6-4.9c-0.8-3.4-0.8-6.8,1.9-9.4
	c3-2.9,6.6-4.6,10.9-3.1c5.1,1.7,8.1,5.5,8.9,10.8c0.8,5.5-0.9,10.3-4.8,14.3c-2.4,2.4-4.9,4.7-7.2,7.2c-2.8,2.9-4.1,6.5-3.5,10.6
	c0.5,3.3,2.3,5.7,5.5,6.7c1.7,0.5,3.1-0.2,4-1.5c0.9-1.3,0.9-3-0.1-4.3c-1-1.3-2.3-1.3-3.7-0.6c-0.8,0.4-1.4,1.4-2.3,0.4
	c-0.9-0.9-0.5-2-0.1-3c1.7-4.2,6.7-5.3,10.2-2.2c4.1,3.6,4.2,9.8,0.2,14.5c-3.9,4.6-10.8,5.4-15.3,1.9c-5.8-4.5-7.1-13.2-2.6-20
	c2.2-3.2,2.3-4.5-1.7-5.9c-6.8-2.4-10.1-7.9-10.6-14.8c-0.7-7.6,2.5-13.7,8.8-18.1C45.2,166,46.1,165.5,47.5,164.7z"/>
<path class="st2" d="M735.8,169.9c-0.1-1.5-0.1-2.3-0.2-3c-0.1-6.9-0.1-6.9,6.2-5c7.4,2.4,15-1.3,18-8.7c2.8-6.9,0.1-14.8-6.1-17.9
	c-4.5-2.2-8.5-1-11.9,1.9c-3.3,2.8-4.2,6.6-3.3,10.9c0.6,2.6,2.5,3.8,4.8,4.3c1.7,0.4,3.1-0.5,3.8-2c1.1-2.1,0.5-3.7-1.4-5.1
	c-1.2-0.9-0.9-2.2,0-3.2c1.2-1.4,2.8-1.7,4.6-1.1c4.1,1.5,5.4,4.8,5.4,8.7c0,3.9-4,7.8-8,8.5c-9,1.5-16.1-6.1-14.5-15.3
	c1-5.5,4.1-9.4,8.2-12.9c4.5-4,8.2-8.4,7.3-15c-0.6-4.4-4.1-7-7.6-5.8c-2.1,0.7-3,2.2-2.5,4.2c0.6,2.3,2.2,2.8,4.3,1.9
	c0.9-0.4,1.9-1.5,2.7,0c0.5,1,0.3,2.1-0.2,3.1c-2.2,4.4-8.5,4.6-11.4,0.4c-2.7-3.9-2.4-7.8,0.1-11.6c2.8-4.4,6.8-6,11.8-5.3
	c4.3,0.7,8.4,4.3,9.1,8.7c0.8,5.1,0.8,10.3-2.6,14.5c-1.9,2.4-1.2,2.9,1.3,3.9c11.9,4.8,15.5,19.3,7.7,29.4c-2,2.6-5.1,3.7-7.7,5.9
	c2.3,1.7,4.7,3.2,6.6,5.1c8.2,8.3,7,26.6-6.8,30.6c-2.7,0.8-2.9,1.5-1.2,3.9c5.9,8.3,4.2,18.3-3.5,22.3c-4,2.1-9.3,1.5-12.4-1.4
	c-3.8-3.5-5.2-8.8-3.3-12.9c1.1-2.6,3.1-4.3,5.9-4.7c2.4-0.3,4.5,0.8,6,2.7c0.9,1.1,1.3,2.6,0.7,3.9c-0.9,2-2,0.2-3-0.1
	c-1.5-0.5-2.8-0.3-3.6,1.1c-0.8,1.3-0.8,2.7,0.1,3.9c0.9,1.3,2.3,2.1,4,1.6c3.2-1,5.2-3,5.6-6.5c0.7-6.6-2.6-11.1-7.3-15
	c-6.8-5.6-9.7-13-7.4-19.8c1.6-4.7,4.9-7.8,9.9-8.6c4.2-0.7,7.5,1.4,10,4.5c3.7,4.6,1.7,11.6-3.6,13.3c-1.8,0.6-3.4,0.3-4.6-1.2
	c-1.3-1.6-0.6-2.7,0.8-3.9c2-1.6,1.6-3.6,0.1-5.2c-1.5-1.8-3.5-1.8-5.4-0.6c-2.3,1.4-3.3,3.7-3.2,6.3c0.2,5.8,5.3,11.1,10.8,11.3
	c5.6,0.2,11.2-4.9,11.8-10.8c0.7-6.1-1-11.4-6.2-14.9C748.5,165,742.3,165.8,735.8,169.9z"/>
<path class="st3" d="M624.1,133.2c-0.7-3-1.4-6.1-2-9.1c0.6-0.9,1.2-1.8,1.8-2.8c-0.5,3.7,0,7.3,1.1,10.9
	C625.4,133.2,624.9,133.3,624.1,133.2z"/>
<path class="st4" d="M527.2,77.7c0-0.8,0.1-1.5,0-2.3c-0.8-4.2,1.4-5.4,5.1-5.3c1.8,0.1,3.6,0.3,5.5,0.4c1,0.1,2,0.2,2.1,1.3
	c0,3.8,0.2,7.7-0.3,11.4c-0.3,2.2-2.9,1.1-4.4,1.3C527.2,85.6,527.1,85.5,527.2,77.7z"/>
<path class="st5" d="M513.9,77.2c0,1.6-0.1,2.8,0,4c0.2,2.3-0.6,3.5-3.1,3.3c-1.2-0.1-2.5-0.1-3.7,0.1c-2.9,0.3-4.4-0.5-4-3.8
	c0.2-1.8-0.2-3.7,0.1-5.5c0.2-1.6-1.3-4,1.4-4.7c2.8-0.8,6.1-1.1,8.5,0.4C515.1,72.3,513.5,75.3,513.9,77.2z"/>
<g>
	<path class="st6" d="M441.4,190.7c1.4-1.1,1.9-1.5,2.5-2c8.9-7.7,17.8-15.5,26.7-23.2c-0.4-0.4-0.6-0.8-0.8-0.8
		c-7.1-0.3-7.1-0.3-7.1-7.4c0-9.7,0.1-19.3-0.1-29c0-2.5,0.6-3.4,3.3-3.4c11.5,0.1,23,0.1,34.5,0c2.5,0,3.1,0.8,3,3.1
		c-0.1,11.2-0.1,22.4,0,33.6c0,2.5-0.9,3.4-3.2,2.9c-5.2-1-8.9,1.6-12.7,4.8c-10.1,8.5-20.4,16.7-30.7,24.9c-2.3,1.9-2.7,2.8-0.1,5
		c11,9.3,21.9,18.8,32.5,28.5c3.2,3,6.5,4.3,10.7,3.8c2.8-0.4,3.6,0.7,3.6,3.6c-0.2,10.9-0.2,21.8,0,32.7c0,2.7-0.4,3.7-3.4,3.7
		c-11.4-0.2-22.7-0.2-34.1,0c-2.6,0-3.4-0.7-3.3-3.3c0.2-10.6,0.4-21.2,0.2-31.8c-0.1-3.8,0.9-5.4,4.7-4.8c0.7,0.1,1.5,0,1,0
		c-8.3-9.1-17.2-18.7-26-28.4c-0.4,0.2-0.8,0.4-1.2,0.6c0,8.5,0,17,0,25.6c0,2.6,1.9,2.3,3.5,2.4c8.1,0.5,8.1,0.4,8.1,8.2
		c0,9.4-0.1,18.7,0.1,28.1c0,2.6-0.7,3.4-3.3,3.4c-11.2-0.1-22.4-0.2-33.6,0c-2.8,0-3.2-1-3.2-3.5c0.1-10.9,0.2-21.8,0-32.7
		c-0.1-3,0.8-3.9,3.8-3.8c7.6,0.1,7.6,0,7.6-7.7c0-6.4,0-12.9,0-20.5c-10.2,9.7-19.6,18.6-29.1,27.6c0.3,0.4,0.4,0.8,0.6,0.8
		c6.8,0.5,6.8,0.5,6.8,7.3c0,9.5-0.1,19,0,28.6c0,2.8-0.4,4.1-3.7,4c-11.2-0.2-22.4-0.2-33.6,0c-2.8,0-3.6-0.8-3.6-3.6
		c0.2-10.9,0.2-21.8,0-32.7c-0.1-3.1,1.1-3.8,3.7-3.4c4.7,0.8,8.1-1.2,11.4-4.3c10.5-9.7,21.2-19.1,31.9-28.5c1.7-1.5,2.4-2.3,0.2-4
		c-11.7-9.5-23.2-19.1-34.8-28.7c-2.7-2.3-5.8-1.8-8.8-1.6c-2.6,0.2-3.8-0.3-3.8-3.4c0.2-11.1,0.1-22.1,0-33.2
		c0-2.4,0.6-3.2,3.1-3.2c11.5,0.1,23,0.1,34.5,0c2.3,0,3.3,0.4,3.2,3c-0.1,11.2-0.1,22.4,0,33.6c0,2.4-0.7,3.3-3.1,3.1
		c-1.3-0.2-2.7,0-5.3,0c10.3,9,19.8,17.2,30.1,26.2c0-8.7,0-16.4,0-24.2c0-2.2-1.3-1.9-2.7-2c-8.7-0.5-8.7-0.5-8.7-9.4
		c0-8.9,0.1-17.8-0.1-26.7c-0.1-2.8,0.6-3.6,3.5-3.6c11.2,0.2,22.4,0.1,33.6,0c2,0,3.5,0,3.3,2.8c-0.9,11-0.3,22.1-0.3,33.1
		c0,3.1-0.9,3.8-3.9,3.8c-7.8-0.2-7.8-0.1-7.8,7.9C441.4,178.3,441.4,183.9,441.4,190.7z"/>
	<path class="st7" d="M399.3,272.5c-0.1,0-0.2,0-0.3,0c-10-0.2-20.6-0.2-33.6,0c-1.2,0-2.7-0.1-3.6-1c-0.9-0.9-1-2.3-1-3.6
		c0.2-11.7,0.2-22.4,0-32.7c0-1.8,0.3-3,1.2-3.7c1.1-0.9,2.6-0.8,3.7-0.6c3.8,0.6,6.9-0.6,10.7-4.1c10.5-9.7,21.3-19.2,31.8-28.5
		c0.5-0.5,1.3-1.2,1.3-1.5c0-0.1-0.1-0.4-1-1.2c-10.4-8.5-21.4-17.6-34.8-28.8c-2.2-1.8-4.6-1.6-7.2-1.4l-0.9,0.1
		c-1.4,0.1-2.8,0-3.7-0.9c-0.7-0.7-1.1-1.8-1-3.5c0.2-11.2,0.1-22.5,0-33.1c0-1.1,0.1-2.4,0.9-3.2c0.8-0.8,2.1-0.9,3.1-0.9
		c10.6,0.1,21.9,0.1,34.5,0c1.2,0,2.5,0.1,3.3,0.9c0.6,0.6,0.9,1.6,0.9,3c-0.1,10.8-0.1,22.1,0,33.6c0,1.1-0.1,2.5-1,3.3
		c-0.9,0.8-2.2,0.8-3.2,0.7c-0.8-0.1-1.6-0.1-2.7-0.1l26.6,23.1l0-5.1c0-5.9,0-11.5,0-17c0-1-0.1-1-1.3-1l-0.5,0
		c-9.2-0.5-9.6-0.9-9.6-10.3c0-2.5,0-5,0-7.4c0-6.3,0-12.8-0.1-19.3c0-1.3,0.1-2.7,1-3.6c0.9-0.9,2.3-1,3.5-1
		c10.1,0.2,20.3,0.1,30.2,0.1l3.4,0c1.3,0,2.7,0,3.5,0.9c0.6,0.6,0.8,1.6,0.7,2.9c-0.6,7.9-0.5,15.9-0.4,23.7c0,3.1,0.1,6.3,0.1,9.4
		c0,1.3-0.1,2.8-1.1,3.7c-1,0.9-2.4,1-3.7,1c-3.4-0.1-5.4-0.1-6.1,0.6c-0.7,0.7-0.7,2.9-0.7,6.4v16.1c0.4-0.3,0.7-0.5,0.9-0.7
		l25.8-22.4c-6.9-0.4-7.2-1-7.2-8.3l0-8c0-6.9,0-14-0.1-21c0-1.3,0.1-2.5,0.9-3.4c0.9-0.9,2.2-1,3.3-1c11,0.1,22.3,0.1,34.5,0
		c1,0,2.3,0.1,3.1,0.9c0.8,0.8,0.9,2.1,0.9,3.2c-0.1,12.3-0.1,23.3,0,33.6c0,1-0.1,2.5-1.1,3.4c-1,0.8-2.3,0.7-3.2,0.5
		c-4.8-0.9-8.3,1.5-11.9,4.6c-10.2,8.5-20.8,17-30.8,24.9c-0.4,0.3-1.6,1.2-1.6,1.8c0,0.3,0.2,0.8,1.5,1.8
		c9,7.7,20.9,17.8,32.5,28.6c3.2,3,6.2,4,9.9,3.5c1-0.1,2.5-0.2,3.5,0.7c1,0.9,1.2,2.5,1.1,3.8c-0.2,10.1-0.2,20.8,0,32.7
		c0,1.6-0.1,2.8-1,3.7c-0.7,0.7-1.8,1-3.4,1c-9.9-0.2-20.4-0.2-34.1,0c-1.2,0-2.5-0.1-3.4-1c-0.9-0.9-1-2.2-0.9-3.3
		c0.2-10.7,0.4-21.2,0.2-31.7c0-1.8,0.1-3.8,1.4-5c0.7-0.6,1.7-0.9,3-0.9l-23.9-26.1l0,0l0,6.5c0,6.2,0,12.3,0,18.5
		c0,1.3,0.4,1.4,2,1.4c0.2,0,0.4,0,0.7,0c8.5,0.5,9,0.9,9,9.2l0,7.4c0,6.8,0,13.8,0.1,20.7c0,1.2-0.1,2.5-0.9,3.4
		c-0.9,0.9-2.2,1-3.3,1c-11.9-0.1-22.9-0.1-33.6,0c-1.6,0-2.6-0.3-3.2-0.9c-0.8-0.8-1-2-0.9-3.5c0.1-13.2,0.1-23.2,0-32.7
		c0-1.3,0.1-2.8,1-3.7c1-1,2.4-1.1,3.8-1c3.3,0,5.3,0,5.9-0.6c0.7-0.7,0.7-2.7,0.7-6.1v-18.3l-26.6,25.3c6.6,0.5,6.9,1.1,6.9,8.2
		l0,7.9c0,6.8,0,13.8,0.1,20.7c0,1.5,0,3-1,3.9C402,272.2,400.9,272.5,399.3,272.5z M382.9,270.5c5.8,0,11.1,0.1,16.2,0.2
		c1.2,0,1.9-0.1,2.2-0.5c0.4-0.4,0.5-1.3,0.5-2.6c-0.1-6.9-0.1-13.9-0.1-20.7l0-7.9c0-3,0-4.7-0.6-5.4c-0.6-0.6-2.4-0.8-5.3-1
		c-0.6,0-0.9-0.5-1.1-0.9c-0.1-0.1-0.1-0.2-0.2-0.3l-0.5-0.7l31.3-29.7v22.8c0,4.1,0,6.2-1.3,7.5c-1.3,1.3-3.5,1.2-7.3,1.2
		c-1.3,0-2,0.1-2.4,0.5c-0.3,0.4-0.5,1.1-0.5,2.4c0.2,9.5,0.2,19.5,0,32.7c0,1.2,0.1,1.8,0.4,2.1c0.3,0.3,0.9,0.4,1.9,0.4
		c10.7-0.2,21.7-0.2,33.6,0c1,0,1.7-0.1,2-0.4c0.3-0.3,0.4-0.9,0.4-2c-0.1-6.9-0.1-14-0.1-20.8l0-7.4c0-3.5,0-5.5-0.7-6.2
		c-0.7-0.8-2.8-0.9-6.4-1.1c-0.2,0-0.4,0-0.6,0c-1.3,0-3.9-0.1-3.8-3.3c0-6.2,0-12.3,0-18.5l0-7.6l2.3-1.3l26.2,28.6h0.2l0.4,0.5
		l0.3,0.5l-0.3,0.5c-0.1,0.2-0.4,0.6-2.1,0.4c-1.4-0.2-2.3-0.1-2.9,0.3c-0.6,0.5-0.8,1.6-0.8,3.5c0.2,10.6,0.1,21.1-0.2,31.8
		c0,1,0.1,1.7,0.4,1.9c0.3,0.3,0.9,0.4,2,0.4c13.7-0.2,24.2-0.2,34.1,0c1.1,0,1.8-0.1,2.1-0.4c0.3-0.3,0.4-1,0.4-2.3
		c-0.2-11.9-0.1-22.6,0-32.7c0-1.3-0.1-2-0.5-2.4c-0.3-0.3-1-0.4-2-0.2c-4.3,0.6-7.8-0.7-11.4-4c-11.6-10.7-23.5-20.9-32.5-28.5
		c-1.1-0.9-2.1-2-2.1-3.3c0-1.3,1.1-2.3,2.3-3.2c10-7.9,20.6-16.4,30.7-24.9c3.9-3.2,7.8-6.1,13.5-5c0.6,0.1,1.3,0.2,1.6-0.1
		c0.2-0.2,0.4-0.6,0.4-1.9c-0.1-10.3-0.1-21.3,0-33.6c0-1-0.1-1.6-0.3-1.8c-0.2-0.2-0.8-0.4-1.7-0.3c-12.2,0.1-23.5,0.1-34.6,0
		c-1,0-1.6,0.1-1.9,0.4c-0.3,0.3-0.4,0.9-0.4,2c0.1,7,0.1,14.2,0.1,21.1l0,8c0,3,0,4.9,0.6,5.5c0.6,0.6,2.5,0.7,5.5,0.9
		c0.6,0,0.9,0.4,1.1,0.7c0.1,0.1,0.2,0.2,0.3,0.4l0.7,0.7l-27.4,23.8c-0.4,0.3-0.7,0.6-1.3,1l-2.8,2.2v-20c0-4.3,0-6.5,1.3-7.8
		c1.3-1.3,3.5-1.2,7.5-1.1c1.3,0,2-0.1,2.4-0.4c0.4-0.3,0.5-1.1,0.5-2.4c0-3.1,0-6.2-0.1-9.3c-0.1-7.8-0.2-15.9,0.4-23.8
		c0.1-0.7,0-1.3-0.2-1.5c-0.3-0.3-1.2-0.3-2.1-0.3l-3.4,0c-9.9,0-20.2,0.1-30.3-0.1c-1.1,0-1.9,0.1-2.2,0.4c-0.3,0.3-0.4,1-0.4,2.2
		c0.1,6.4,0.1,13,0.1,19.3c0,2.5,0,5,0,7.4c0,4,0,6.3,0.8,7.2c0.8,0.9,3,1,6.9,1.2l0.5,0c1.1,0,3.2,0.1,3.1,2.9
		c-0.1,5.6,0,11.1,0,17l0,9.2l-33.5-29.2h2.5c0.9,0,1.7,0,2.3,0c1.3,0,2.2,0,3.1,0.1c0.8,0.1,1.4,0,1.7-0.2c0.3-0.3,0.4-0.9,0.4-1.9
		c-0.1-11.6-0.1-22.9,0-33.6c0-0.9-0.1-1.4-0.4-1.7c-0.3-0.3-0.9-0.4-1.9-0.4c-12.6,0.1-23.9,0.1-34.6,0c-0.9,0-1.5,0.1-1.8,0.4
		c-0.3,0.3-0.4,0.9-0.4,1.8c0.1,10.6,0.2,22,0,33.2c0,1.1,0.1,1.8,0.5,2.1c0.3,0.3,1,0.4,2.3,0.3l0.9-0.1c2.7-0.2,5.8-0.4,8.6,1.9
		c13.3,11.2,24.4,20.3,34.7,28.7c0.8,0.6,1.7,1.5,1.7,2.6c0,1.2-1,2-1.9,2.9c-10.5,9.3-21.4,18.9-31.9,28.5c-3,2.7-6.8,5.4-12.2,4.5
		c-1.1-0.2-1.8-0.1-2.1,0.2c-0.4,0.3-0.5,1.1-0.5,2.2c0.2,10.3,0.2,21,0,32.7c0,1.2,0.1,1.9,0.4,2.2s1,0.4,2.2,0.4
		C371.7,270.5,377.5,270.5,382.9,270.5z"/>
</g>
<g>
	<path class="st6" d="M671.4,191.3c-8.9,10.9-17.8,21.9-26.7,32.8c-1.7,2-1.8,4.5-1,6.5c0.7,2.1,3.2,1,4.9,1.2
		c6.6,0.5,6.6,0.4,6.6,7c-0.1,9.8-0.3,19.6-0.3,29.5c0,2.6-0.8,3.3-3.4,3.3c-11.1-0.1-22.1-0.1-33.2,0c-2.5,0-3.5-0.4-3.4-3.2
		c0.2-11.1,0.2-22.1,0-33.2c0-3,1-3.5,3.7-3.6c8.4,0,8.4-0.2,8.4-8.8c0-18.1-0.1-36.2,0.1-54.4c0-3.3-0.9-4-4.1-4c-8,0.2-8,0-8-7.8
		c0-9.2,0.1-18.4-0.1-27.6c-0.1-3,0.4-4.5,3.9-4.1c3.2,0.3,6.8-0.8,9.6,0.4c2.8,1.2,1.8,5.3,2.9,8c3.5,8.8,10.3,13.2,19.1,14.7
		c4.5,0.8,5.5,2.8,4.8,6.7c-0.1,0.3-0.2,0.6-0.2,0.9c-0.2,2.9,0.7,6.6-0.8,8.4c-1.6,1.9-5.5,0.5-8.4,0.6c-1.3,0.1-2.4,0.1-2.4,1.9
		c0,12.5,0,25,0,38.9c8.2-10.2,15.5-19.3,22.9-28.5c1.8-2.3,3.9-4.4,5.4-6.8c2.3-3.7,1.3-5.4-3-5.4c-7.7-0.1-7.7-0.1-7.7-7.8
		c0-0.3,0-0.6,0-0.9c-0.7-4.7,0.5-7.1,6-7.9c10.7-1.5,17.9-9.4,19.8-20.2c0.4-2.1,1-2.7,3.1-2.8c11.3-0.6,11.3-0.6,11.3,10.6
		c0,8.4-0.1,16.9,0.1,25.3c0.1,3.1-0.9,3.9-3.9,3.8c-7.9-0.1-7.9,0-7.8,8.2c0,18.1,0.1,36.2-0.1,54.4c0,3.5,0.8,5.2,4.5,4.7
		c1.1-0.1,2.2,0.1,3.2,0c3.2-0.5,4.1,0.8,4.1,4c-0.2,10.7-0.1,21.5,0,32.2c0,2.5-0.6,3.5-3.3,3.4c-11.2-0.1-22.4-0.1-33.6,0
		c-2.7,0-3.3-0.9-3.3-3.4c0.1-10.9,0.2-21.8,0-32.7c-0.1-3.1,0.9-3.9,3.9-3.8c7.8,0.1,7.7-0.1,7.5-7.9c-0.2-10.7,0-21.4,0-32.1
		C672.1,191.5,671.8,191.4,671.4,191.3z"/>
	<path class="st7" d="M664.2,272.5c-1,0-2.3-0.1-3.1-1c-0.9-0.9-1-2.2-1-3.4c0.1-12.7,0.1-23.1,0-32.7c0-1.9,0.3-3,1-3.7
		c1-1,2.4-1.1,3.8-1.1c3.4,0,5.3,0,6-0.6c0.7-0.7,0.6-2.6,0.6-5.8l0-0.5c-0.1-7.5-0.1-15.1-0.1-22.4c0-2.9,0-5.7,0-8.6l-6.5,8
		c-6.5,8-13,16-19.6,24c-1.7,2.1-1.3,4.4-0.9,5.6c0.2,0.7,0.8,0.8,2.4,0.6c0.5-0.1,1.1-0.1,1.6-0.1l0.3,0c6.8,0.5,7.2,0.9,7.1,7.9
		c0,3.6-0.1,7.3-0.1,10.9c-0.1,6.1-0.2,12.4-0.2,18.6c0,1.2-0.1,2.5-1,3.3c-0.9,0.9-2.2,1-3.3,0.9c-10.5-0.1-21.7-0.1-33.2,0
		c-1.5,0-2.6-0.1-3.4-0.9c-0.7-0.7-1-1.7-0.9-3.2c0.2-11.7,0.2-22.6,0-33.1c0-1.7,0.3-2.8,1-3.5c0.9-0.9,2.3-1,3.6-1.1
		c3.8,0,5.9-0.1,6.6-0.9c0.8-0.8,0.8-3,0.8-6.9l0-13.9c0-13.3,0-27,0.1-40.5c0-1.4-0.2-2.2-0.5-2.5c-0.4-0.4-1.2-0.5-2.6-0.5
		c-3.9,0.1-6.3,0.1-7.6-1.2c-1.3-1.3-1.3-3.4-1.3-7.6c0-2.6,0-5.2,0-7.7c0-6.5,0.1-13.3-0.1-19.9c0-1.9,0.1-3.4,1.1-4.3
		c0.8-0.7,2-1,3.8-0.8c1.2,0.1,2.5,0,3.7-0.1c2.1-0.1,4.2-0.3,6.1,0.5c2.3,1,2.6,3.4,2.8,5.6c0.1,1,0.2,2.1,0.6,3
		c3.1,7.8,9.3,12.6,18.4,14.1c2.5,0.4,4,1.2,4.9,2.5c0.9,1.3,1.1,2.9,0.7,5.3c0,0.2-0.1,0.3-0.1,0.5c0,0.1-0.1,0.3-0.1,0.3
		c-0.1,0.8,0,1.8,0,2.7c0.1,2.3,0.2,4.7-1,6.2c-1.4,1.7-3.9,1.4-6.2,1.1c-1-0.1-2-0.2-2.8-0.2c-1.5,0.1-1.5,0.1-1.5,0.9
		c0,9.4,0,18.8,0,28.8l0,7.4l21.2-26.4c0.6-0.7,1.2-1.4,1.8-2.2c1.3-1.5,2.5-3,3.6-4.6c0.9-1.4,1.3-2.6,1-3.1
		c-0.3-0.5-1.5-0.9-3.2-0.9c-8.2-0.1-8.6-0.5-8.6-8.8l0-0.3c0-0.2,0-0.3,0-0.4c-0.4-2.9-0.1-4.8,0.9-6.3c1.1-1.5,3-2.3,5.9-2.8
		c10-1.4,17.1-8.7,19-19.4c0.4-2.6,1.5-3.5,4-3.6l0.2,0c5.8-0.3,8.7-0.4,10.4,1.2c1.7,1.6,1.7,4.5,1.7,10.4c0,2.4,0,4.8,0,7.2
		c0,5.9-0.1,12.1,0.1,18.1c0,1.8-0.3,3-1,3.7c-1,1-2.5,1.1-3.8,1.1c-3.4-0.1-5.4,0-6.1,0.7c-0.7,0.7-0.7,2.9-0.7,6.5l0,11.2
		c0,14.2,0,28.8-0.1,43.2c0,1.8,0.2,2.9,0.8,3.4c0.5,0.4,1.4,0.5,2.7,0.4c0.6-0.1,1.2-0.1,1.7,0c0.5,0,1,0,1.5,0
		c1.8-0.3,3,0,3.9,0.7c1.2,1,1.3,2.8,1.3,4.3c-0.2,11-0.1,22,0,32.2c0,1.3-0.1,2.6-1,3.4c-0.7,0.7-1.7,1-3.3,1
		c-11.1-0.1-22.5-0.1-33.6,0C664.4,272.5,664.3,272.5,664.2,272.5z M664.8,232.5c-1.2,0-1.9,0.2-2.3,0.5c-0.4,0.4-0.5,1.1-0.5,2.4
		c0.2,9.6,0.2,20,0,32.7c0,1.1,0.1,1.8,0.4,2.1c0.3,0.3,0.9,0.4,1.9,0.4c11.2-0.1,22.5-0.1,33.7,0c1,0,1.6-0.1,1.9-0.4
		c0.3-0.3,0.4-0.9,0.4-2.1c-0.1-10.2-0.2-21.2,0-32.3c0-1.5-0.2-2.4-0.6-2.8c-0.4-0.3-1.2-0.4-2.4-0.3c-0.6,0.1-1.2,0.1-1.8,0
		c-0.5,0-1,0-1.4,0c-1.9,0.3-3.2,0-4.2-0.8c-1.3-1.1-1.4-3.1-1.4-4.8c0.1-14.4,0.1-29,0.1-43.2l0-11.2c0-4.4,0-6.6,1.3-7.9
		c1.3-1.3,3.6-1.3,7.5-1.2c1.3,0,2.1-0.1,2.4-0.5c0.3-0.4,0.5-1.1,0.5-2.3c-0.1-6.1-0.1-12.2-0.1-18.2c0-2.4,0-4.8,0-7.2
		c0-5.1,0-8-1.1-9c-1.1-1-3.9-0.9-9-0.6l-0.2,0c-1.7,0.1-1.9,0.4-2.2,2.1c-2,11.6-9.7,19.4-20.6,21c-2.4,0.3-3.9,1-4.6,2
		c-0.7,1-0.9,2.5-0.6,4.9c0,0.3,0,0.5,0,0.8l0,0.3c0,3.4,0,5.4,0.7,6.1c0.7,0.7,2.7,0.7,6.1,0.7c2.6,0,4.2,0.6,4.9,1.9
		c0.7,1.2,0.3,2.9-1,5c-1.1,1.7-2.4,3.3-3.7,4.8c-0.6,0.7-1.2,1.4-1.8,2.1L642.5,208l0-12.8c0-10,0-19.4,0-28.8c0-2.7,2-2.8,3.1-2.8
		c1.1-0.1,2.2,0.1,3.3,0.2c1.9,0.2,3.8,0.4,4.5-0.5c0.8-0.9,0.7-3,0.6-4.9c0-1-0.1-2,0-2.9c0-0.3,0.1-0.5,0.1-0.7
		c0-0.1,0.1-0.2,0.1-0.3c0.3-1.8,0.2-3.1-0.3-3.9c-0.6-0.8-1.8-1.4-3.7-1.7c-9.8-1.6-16.4-6.8-19.8-15.3c-0.4-1.1-0.6-2.3-0.7-3.5
		c-0.2-2.2-0.5-3.5-1.7-4c-1.5-0.6-3.3-0.5-5.3-0.3c-1.3,0.1-2.7,0.2-4,0c-1.2-0.1-1.9,0-2.3,0.3c-0.4,0.4-0.6,1.2-0.5,2.8
		c0.1,6.6,0.1,13.4,0.1,19.9c0,2.6,0,5.2,0,7.7c0,3.5,0,5.5,0.7,6.3c0.7,0.7,2.8,0.7,6.3,0.6c1.5,0,3,0.1,4,1
		c0.8,0.8,1.1,1.9,1.1,3.9c-0.1,13.5-0.1,27.2-0.1,40.5l0,13.9c0,9.2-0.4,9.7-9.3,9.7c-1.3,0-2,0.2-2.3,0.5c-0.3,0.3-0.5,1-0.4,2.1
		c0.2,10.6,0.2,21.5,0,33.2c0,1,0.1,1.6,0.4,1.9c0.3,0.3,0.9,0.4,2.1,0.4c11.5-0.1,22.7-0.1,33.2,0c1.1,0,1.7-0.1,2-0.4
		c0.3-0.3,0.4-0.9,0.4-2c0-6.2,0.1-12.5,0.2-18.6c0.1-3.6,0.1-7.3,0.1-10.9c0-5.6,0-5.6-5.4-6l-0.3,0c-0.4,0-0.8,0-1.3,0.1
		c-1.4,0.2-3.6,0.4-4.4-1.9c-0.9-2.7-0.5-5.4,1.2-7.4c6.5-8,13-16,19.5-24l7.5-9.3l2.3,0.7v0.7c0,3.2,0,6.4,0,9.7
		c0,7.3-0.1,14.9,0.1,22.4l0,0.5c0.1,4,0.1,6-1.1,7.2c-1.3,1.3-3.4,1.2-7.4,1.2C664.9,232.5,664.9,232.5,664.8,232.5z"/>
</g>
<g>
	<path class="st8" d="M658.3,121.4c6.6,0,13.2,0.1,19.7,0c2.7-0.1,3.4,0.8,2.9,3.5c-1.9,12.1-10.2,18.9-23.2,18.8
		c-12.5-0.1-20.7-7.3-22.2-19.3c-0.3-2.2,0.2-3,2.5-3C644.9,121.5,651.6,121.4,658.3,121.4z"/>
	<path class="st7" d="M658.3,144.6c-0.1,0-0.3,0-0.4,0c-12.9-0.1-21.6-7.7-23.2-20.1c-0.1-1.1-0.2-2.3,0.6-3.1
		c0.7-0.8,1.9-0.9,2.9-0.9c4.8,0.1,9.7,0.1,14.5,0.1l5.7,0c1.9,0,3.8,0,5.7,0c4.6,0,9.4,0,14.1-0.1c1.1,0,2.5,0.1,3.4,1
		c0.8,0.9,0.7,2.3,0.5,3.6C680,137.4,671.4,144.6,658.3,144.6z M638,122.3c-0.9,0-1.2,0.2-1.3,0.3c-0.1,0.1-0.2,0.5-0.1,1.6
		c1.5,11.6,9.2,18.3,21.3,18.5c12.4,0.1,20.4-6.2,22.2-18c0.2-1.1,0.1-1.8-0.1-2c-0.2-0.2-0.6-0.4-1.9-0.4
		c-4.7,0.1-9.5,0.1-14.1,0.1c-1.9,0-3.8,0-5.7,0l-5.7,0c-4.8,0-9.7,0-14.5-0.1C638.1,122.3,638,122.3,638,122.3z"/>
</g>
<g>
	<path class="st9" d="M506,55.9c0.9,0,1.8,0,2.8,0c7.8,0,7.7,0,7.7,7.9c0,2.4-0.3,3.8-3.2,3.4c-2.4-0.4-2.8,1-2.7,3
		c0.1,4.3,0.1,8.6,0,12.9c-0.1,2,0.7,2.8,2.6,2.6c0.3,0,0.6,0,0.9,0c3.7-0.3,9.7,1.7,10.8-0.8c2.1-4.8,0.8-10.8,0.6-16.3
		c-0.1-1.2-1.1-1.2-2-1.4c-1.4-0.3-3.6,0.9-3.9-1.2c-0.3-3.1-0.6-6.4,0.3-9.5c0.1-0.3,1.3-0.5,2.1-0.5c5.2,0,10.4,0.2,15.7,0
		c2.6-0.1,3.2,1,2.9,3.3c-0.2,1.5-0.3,3.1-0.2,4.6c0.2,2.4-0.2,3.9-3.1,3.4c-2.3-0.4-2.8,0.9-2.8,3c0.1,4.1,0.2,8.3,0,12.4
		c-0.1,2.4,0.8,3.6,3.1,3.4c2.9-0.3,3.2,1.3,3.1,3.6c-0.2,2.6-0.2,5.2-0.2,7.8c0,5.8-0.7,6.4-6.5,5.5c-1-0.1-1.8-0.1-1.8-1.4
		c0.1-4.1-2.8-4.2-5.6-4.2c-9.1,0-18.1-0.1-27.2,0.1c-3.1,0.1-4.1-0.9-3.8-3.9c0.2-1.5,0.1-3.1,0-4.6c-0.2-2.2,0.4-3.7,3-3.3
		c3.2,0.5,3.4-1.2,3.3-3.7c-0.2-3.2-0.2-6.5,0-9.7c0.1-3.1,0.3-6-4.3-5.2c-1.6,0.3-1.9-0.9-2-2.3c-1-9-1.1-9,7.8-9
		C504.2,55.9,505.1,55.9,506,55.9z"/>
	<path class="st7" d="M537.2,104.2c-0.9,0-2.1-0.1-3.5-0.3l-0.3,0c-0.8-0.1-2.4-0.3-2.3-2.4c0-1.1-0.2-1.9-0.6-2.3
		c-0.8-0.8-2.5-0.9-4.1-0.9l-3,0c-7.9,0-16.1-0.1-24.1,0.2c-2,0-3.2-0.3-4-1.2c-1-1.1-0.9-2.7-0.8-3.8c0.2-1.5,0.1-3,0-4.4
		c-0.1-1.1-0.1-2.7,1-3.6c0.7-0.7,1.8-0.9,3.1-0.6c0.9,0.2,1.5,0.1,1.8-0.2c0.4-0.4,0.4-1.5,0.4-2.6c-0.2-3.2-0.2-6.5,0-9.8
		c0.1-1.6,0.2-3.3-0.5-3.9c-0.6-0.5-1.7-0.4-2.6-0.3c-0.8,0.1-1.5,0-2-0.4c-0.8-0.6-1-1.7-1.1-2.8c-0.5-4.8-0.8-7.2,0.5-8.6
		c1.3-1.4,3.6-1.4,8.3-1.4h5.5c4.1,0,6.2,0,7.4,1.2c1.2,1.2,1.2,3.3,1.2,7.4l0,0.3c0,1.4-0.1,2.9-1.1,3.8c-0.7,0.6-1.7,0.8-3.1,0.5
		c-0.6-0.1-1.1-0.1-1.3,0.1c-0.3,0.2-0.4,0.9-0.4,1.9c0.1,5,0.1,9.1,0,12.9c0,0.8,0.1,1.3,0.3,1.5c0.2,0.2,0.7,0.2,1.3,0.1
		c0.2,0,0.4,0,0.7,0c0.1,0,0.2,0,0.3,0c1.4-0.1,3,0,4.6,0.2c2.2,0.2,5,0.5,5.4-0.4c1.5-3.5,1.1-7.8,0.8-12c-0.1-1.3-0.2-2.6-0.3-3.9
		c0-0.2,0-0.3-1-0.5l-0.2,0c-0.3-0.1-0.7,0-1.1,0c-0.9,0.1-1.9,0.2-2.7-0.4c-0.5-0.4-0.7-1-0.8-1.7c-0.3-3.3-0.7-6.6,0.3-9.9
		c0.1-0.3,0.4-1.1,3-1.1c1.9,0,3.8,0,5.6,0c3.3,0,6.7,0.1,10,0c1.5-0.1,2.5,0.3,3.2,1c0.9,0.9,0.8,2.3,0.7,3.3
		c-0.2,1.6-0.3,3-0.2,4.4c0.1,1.4,0.1,2.9-0.9,3.8c-0.7,0.7-1.8,0.9-3.3,0.6c-0.4-0.1-1-0.1-1.3,0.1c-0.3,0.2-0.4,0.9-0.4,1.9
		c0.1,4,0.2,8.2,0,12.5c0,0.7,0,1.6,0.5,2.1c0.3,0.3,0.8,0.4,1.5,0.3c1.5-0.1,2.5,0.1,3.2,0.8c0.9,0.9,1,2.4,0.9,3.8
		c-0.2,2.7-0.2,5.4-0.2,7.8c0,3.2-0.2,5-1.4,6C539.2,103.9,538.4,104.2,537.2,104.2z M514.9,96.3c2.8,0,5.7,0,8.5,0l3,0
		c1.8,0,4.1,0,5.4,1.4c0.8,0.9,1.2,2.1,1.2,3.7c0,0.2,0,0.3,0,0.3c0.1,0,0.4,0.1,0.6,0.1l0.3,0c2.4,0.4,4.1,0.5,4.7,0
		c0.6-0.5,0.7-2.1,0.7-4.5c0-2.3,0.1-5.1,0.2-7.9c0.1-0.9,0.1-1.9-0.3-2.3c-0.3-0.3-1.1-0.3-1.7-0.3c-1.3,0.1-2.3-0.2-3-0.9
		c-0.8-0.8-1.1-1.9-1.1-3.5c0.2-4.2,0.1-8.4,0-12.4c0-1.1,0.1-2.5,1-3.4c0.7-0.6,1.6-0.8,2.9-0.6c0.8,0.1,1.4,0.1,1.7-0.2
		c0.5-0.4,0.4-1.8,0.3-2.2c-0.1-1.5,0-3.1,0.2-4.6c0.1-1.1,0-1.7-0.2-2c-0.3-0.3-1.1-0.4-1.7-0.4c-3.4,0.1-6.8,0.1-10.1,0
		c-1.9,0-3.7,0-5.6,0c-0.5,0-1,0.1-1.3,0.1c-0.8,2.8-0.5,5.9-0.2,8.8c0,0.3,0.1,0.4,0.1,0.5c0.2,0.1,0.9,0.1,1.3,0
		c0.6-0.1,1.1-0.1,1.7,0l0.2,0c0.9,0.2,2.5,0.4,2.6,2.3c0.1,1.3,0.2,2.5,0.3,3.8c0.4,4.4,0.8,9-0.9,12.9c-1,2.2-4.1,1.9-7.3,1.6
		c-1.5-0.2-3-0.3-4.3-0.2c-0.2,0-0.4,0-0.6,0c-0.1,0-0.2,0-0.3,0c-1.2,0.2-2.2,0-2.8-0.6c-0.9-0.8-0.9-2.1-0.9-2.9
		c0.1-3.8,0.1-7.8,0-12.9c0-1.2,0.1-2.6,1-3.4c0.7-0.6,1.6-0.8,2.8-0.6c0.8,0.1,1.4,0.1,1.6-0.1c0.4-0.3,0.4-1.4,0.4-2.3l0-0.3
		c0-3.3,0-5.3-0.7-6c-0.7-0.7-2.7-0.7-6.1-0.7h-5.5c0,0,0,0-0.1,0c-3.8,0-6.1,0-6.8,0.8c-0.7,0.8-0.4,3.1,0,7
		c0.1,0.5,0.2,1.4,0.4,1.6c0.1,0.1,0.3,0.1,0.5,0c1.9-0.3,3.3-0.1,4.2,0.7c1.4,1.2,1.3,3.4,1.2,5.4c-0.1,3.2-0.1,6.4,0,9.6
		c0.1,1.6,0.1,3.1-1,4.1c-0.8,0.7-1.9,0.9-3.4,0.6c-0.5-0.1-1.2-0.1-1.5,0.2c-0.2,0.2-0.5,0.7-0.4,2.1c0.1,1.4,0.2,3.1,0,4.8
		c-0.1,1.2-0.1,1.9,0.3,2.3c0.4,0.4,1.2,0.6,2.5,0.5C504.4,96.3,509.7,96.3,514.9,96.3z"/>
</g>
<g>
	<path class="st9" d="M619.5,88.1c-0.2-1.4-0.3-2.7-2-2.3c-5.4,1.1-4.6-2.6-4.5-5.8c0-3.2,0.1-6.4,0-9.7c-0.1-2.3,0.5-3.5,3-3.1
		c2.7,0.4,3.5-0.8,3.3-3.4c-0.2-2,0.1-4,0.2-6c0.1-1.4-0.5-1.9-1.8-2c-10.1-0.2-20.2-0.9-30.2,1.1c-4.2,0.8-7.1,3.1-7.2,8.1
		c-0.2,7.7,0.5,9.3,6.9,11.5c-2.6,1-4.5,2.3-4.1,5.2c0.5,3.5-1.7,4.1-4.4,4.3c-1.5,0.1-3.1,0.2-4.6-0.1c-1.6-0.2-2.1,0.1-2.4,1.7
		c-1.4,8.6-0.5,9.7,7.9,9.7h0.5c12.5,0,12.9-0.4,12.5-12.9c-0.2-5.5,0.3-6,5.7-6.2c0.8,0,1.6,0.1,2.3,0c3.3-0.6,3.6,1.2,3.7,4
		c0.1,2.8-0.6,3.9-3.5,3.6c-1.2-0.1-3.2-0.9-3.4,1.1c-0.3,3.2-0.8,6.7,0.2,9.5c0.7,2.2,4.1,0.7,6.3,0.9c2.4,0.2,4.9,0.1,7.4,0.1
		C620.5,97.3,620.5,97.3,619.5,88.1z M601.2,73.1c-3.5-0.2-5.6-0.4-7.7-0.6c-1.1-0.1-2.2-0.5-2.2-1.9c0-1.4,1-1.8,2.1-1.9
		c2.3-0.1,4.6-0.2,6.9-0.1c1.5,0,3.7-0.7,3.6,2.1C603.8,73.6,601.6,73.1,601.2,73.1z"/>
	<path class="st7" d="M599.7,98.6c-1.3,0-2.5-0.4-3-1.9c-0.9-2.7-0.6-5.8-0.3-8.8l0.1-1.1c0.1-0.8,0.4-1.4,0.9-1.8
		c0.9-0.7,2.1-0.5,3-0.3c0.2,0,0.4,0.1,0.5,0.1c1,0.1,1.7,0,2-0.3c0.3-0.3,0.5-1.1,0.4-2.3c-0.1-1.4-0.2-2.5-0.7-2.9
		c-0.3-0.3-1-0.3-1.9-0.1c-0.5,0.1-1.1,0.1-1.6,0.1c-0.3,0-0.6,0-0.8,0c-4.8,0.2-4.9,0.3-4.8,5.2c0.2,6.4,0.2,9.9-1.7,11.8
		c-1.9,2-5.3,2.1-11.8,2.1h-0.5c-4.4,0-6.9-0.3-8.3-1.9c-1.4-1.6-1.3-4.3-0.6-8.9c0.1-0.8,0.4-1.7,1.1-2.2c0.7-0.5,1.6-0.4,2.4-0.3
		c1.5,0.2,3,0.2,4.4,0.1c1.1-0.1,2.5-0.2,3.1-0.9c0.4-0.5,0.5-1.2,0.3-2.2c-0.4-2.6,0.9-4.2,2.6-5.2c-5.1-2.2-5.6-4.6-5.5-11.6
		c0.1-4.9,2.8-8,8-9c8.4-1.7,16.9-1.5,25.2-1.2c1.8,0,3.5,0.1,5.3,0.1c1,0,1.7,0.3,2.1,0.8c0.5,0.5,0.7,1.2,0.6,2.2l-0.1,1.2
		c-0.1,1.5-0.2,3.1-0.1,4.6c0.1,1.7-0.2,3-1,3.7c-0.8,0.7-1.9,0.9-3.4,0.7c-0.5-0.1-1.2-0.1-1.6,0.2c-0.3,0.3-0.4,0.9-0.4,2
		c0.1,2.5,0.1,5,0.1,7.4l0,2.3c0,0.4,0,0.8,0,1.1c-0.1,1.4-0.1,2.9,0.5,3.5c0.5,0.4,1.5,0.5,2.9,0.2c0.8-0.2,1.4,0,2,0.3
		c0.9,0.7,1,1.9,1.1,2.8v0l-0.9,0.1l1,0c0.5,4.9,0.8,7.3-0.6,8.8c-1.3,1.5-3.8,1.5-8.7,1.5c-0.7,0-1.4,0-2.2,0
		c-1.7,0-3.5,0.1-5.3-0.1c-0.6-0.1-1.3,0.1-2.1,0.2C601.1,98.5,600.4,98.6,599.7,98.6z M599,86.4c-0.2,0-0.4,0-0.5,0.1
		c-0.1,0.1-0.1,0.2-0.2,0.4l-0.1,1.1c-0.3,2.8-0.6,5.7,0.2,8c0.2,0.7,1,0.7,2.9,0.4c0.8-0.1,1.7-0.2,2.5-0.2
		c1.7,0.1,3.4,0.1,5.1,0.1c0.7,0,1.5,0,2.2,0c4.1,0,6.5,0,7.3-0.8c0.8-0.8,0.5-3.3,0.1-7.3l0.9-0.1l-0.9,0.1
		c-0.1-0.5-0.2-1.4-0.4-1.5c0,0-0.2-0.1-0.5,0c-2.1,0.4-3.5,0.2-4.5-0.6c-1.4-1.2-1.3-3.1-1.2-5c0-0.4,0-0.7,0-1.1l0-2.3
		c0-2.4,0.1-4.9-0.1-7.3c-0.1-1.2,0-2.6,1-3.5c0.7-0.6,1.7-0.8,3.1-0.6c0.6,0.1,1.4,0.1,1.8-0.2c0.3-0.3,0.5-1.1,0.4-2.2
		c-0.1-1.6,0-3.3,0.1-4.9l0.1-1.2c0-0.5-0.1-0.7-0.1-0.8c0-0.1-0.2-0.2-0.8-0.2c-1.7,0-3.5-0.1-5.3-0.1c-8.2-0.2-16.6-0.4-24.8,1.2
		c-4.3,0.9-6.4,3.1-6.4,7.2c-0.2,7.5,0.4,8.5,6.3,10.6l2.4,0.8l-2.4,0.9c-2.9,1.1-3.8,2.2-3.5,4.1c0.2,1.6,0,2.8-0.8,3.7
		c-1.1,1.3-2.9,1.5-4.5,1.6c-1.4,0.1-3.1,0.2-4.8-0.1c-0.8-0.1-0.9,0-1,0c0,0-0.2,0.2-0.3,1c-0.6,3.8-0.8,6.3,0.1,7.3
		c0.9,1,3.2,1.3,6.8,1.3h0.5c5.7,0,9-0.1,10.4-1.5c1.4-1.4,1.3-4.7,1.2-10.5c-0.2-6,0.7-7,6.6-7.2c0.3,0,0.7,0,1,0
		c0.4,0,0.8,0,1.2,0c1.5-0.3,2.7-0.1,3.5,0.5c1.1,0.9,1.3,2.4,1.4,4.3c0.1,1.4,0,2.9-1,3.8c-1,0.9-2.5,0.9-3.5,0.8
		c-0.2,0-0.4-0.1-0.6-0.1C599.8,86.5,599.3,86.4,599,86.4z M601.8,74.1c-0.2,0-0.3,0-0.4,0l-0.1,0l-3.1-0.2
		c-1.9-0.1-3.4-0.2-4.9-0.4c-2.6-0.3-3-1.9-3-2.8c0-1.7,1.1-2.8,3-2.8c2.2-0.1,4.6-0.2,7-0.1c0.3,0,0.5,0,0.8,0
		c0.9-0.1,2.1-0.1,2.9,0.6c0.6,0.5,0.8,1.3,0.8,2.5c0,1.2-0.4,2-1,2.6C603.1,74,602.3,74.1,601.8,74.1z M601.2,72.2
		c0.1,0,0.1,0,0.2,0c0.3,0,0.8,0,1.1-0.2c0.2-0.2,0.4-0.6,0.4-1.3c0-0.5-0.1-0.9-0.2-1c-0.2-0.2-0.9-0.2-1.5-0.1c-0.3,0-0.7,0-1,0
		c-2.3-0.1-4.7,0-6.8,0.1c-1.2,0.1-1.2,0.6-1.2,0.9c0,0.3,0,0.8,1.3,1c1.4,0.1,2.9,0.2,4.8,0.4L601.2,72.2z"/>
</g>
<g>
	<path class="st9" d="M555.6,97.2c-1.5,0-3.1,0-4.6,0c-6.9-0.1-6.6-0.1-6.9-7.1c-0.1-3.7,1-5.1,4.6-4.5c2.6,0.5,3-1,2.9-3.2
		c-0.1-2.9-0.2-5.8,0-8.7c0.2-4,0.4-7.8-5.6-6.6c-1.3,0.3-1.9-0.6-1.8-1.9c0-0.5,0-0.9,0-1.4c-0.2-7.9-0.2-8,7.8-7.9
		c4.1,0,8.3,0.2,12.4,0c2.5-0.1,3.3,0.9,3,3.2c-0.1,1.2-0.3,2.5-0.2,3.7c0.3,3,0,5.2-4,4.4c-2.5-0.5-2.7,1.1-2.7,3c0.1,4,0.2,8,0,12
		c-0.2,2.8,0.9,4.1,3.5,3.8c3.1-0.3,3.4,1.2,3.4,3.7c0,7.6,0.1,7.6-7.7,7.6C558.3,97.3,556.9,97.3,555.6,97.2
		C555.6,97.3,555.6,97.3,555.6,97.2z"/>
	<path class="st7" d="M559.7,98.3l-5.6-0.1c-1.1,0-2.1,0-3.2,0c-7.1-0.1-7.6-0.5-7.8-7.4l0-0.6c-0.1-2.4,0.3-3.8,1.3-4.7
		c1-0.8,2.3-1.1,4.4-0.7c0.7,0.1,1.2,0.1,1.5-0.1c0.4-0.4,0.4-1.6,0.3-2.1c-0.2-3.2-0.2-6.1,0-8.8c0.1-2.2,0.3-4.5-0.8-5.3
		c-0.6-0.6-1.9-0.7-3.7-0.3c-1.1,0.2-1.8-0.1-2.2-0.5c-0.4-0.4-0.9-1.1-0.8-2.4c0-0.4,0-0.8,0-1.2c-0.1-4.3-0.2-6.5,1.1-7.7
		c1.3-1.3,3.4-1.3,7.7-1.3c1.4,0,2.8,0,4.2,0.1c2.7,0,5.4,0.1,8.1,0c1.6-0.1,2.6,0.2,3.3,1c0.9,0.9,0.8,2.3,0.7,3.3l0,0.4
		c-0.1,1-0.3,2.1-0.2,3.1c0.2,1.8,0.2,3.7-1,4.8c-0.9,0.8-2.2,1-4,0.6c-0.6-0.1-1-0.1-1.2,0.1c-0.4,0.3-0.3,1.5-0.3,2l0,1.7
		c0.1,3.4,0.2,6.9-0.1,10.3c-0.1,1.2,0.1,2,0.5,2.4c0.4,0.3,1,0.5,2,0.4c1.5-0.2,2.6,0.1,3.3,0.7c1,0.9,1.1,2.4,1.1,4l0,0.3
		C568.3,97.9,567.9,98.3,559.7,98.3z M556.5,96.4h3.2c3.3,0,5.3,0,6-0.7c0.7-0.6,0.7-2.6,0.7-5.7l0-0.3c0-1.3-0.1-2.2-0.5-2.5
		c-0.4-0.3-1.2-0.3-1.9-0.3c-1.5,0.2-2.7-0.1-3.5-0.9c-0.9-0.8-1.2-2.1-1.1-4c0.2-3.4,0.2-6.8,0.1-10.2l0-1.7c0-1.4,0.1-2.7,1-3.5
		c0.7-0.6,1.6-0.7,2.8-0.5c0.8,0.2,1.9,0.3,2.4-0.2c0.6-0.5,0.5-2,0.4-3.2c-0.1-1.2,0-2.4,0.2-3.5l0-0.4c0.1-0.9,0-1.5-0.2-1.8
		c-0.3-0.3-0.9-0.4-1.8-0.4c-2.8,0.1-5.5,0.1-8.2,0c-1.4,0-2.8,0-4.2-0.1c-3.5,0-5.6,0-6.3,0.7c-0.7,0.7-0.6,2.8-0.5,6.3
		c0,0.6,0,1,0,1.5c0,0.5,0.1,0.8,0.2,0.9c0.1,0.1,0.3,0.1,0.5,0c2.4-0.5,4.2-0.2,5.3,0.7c1.7,1.5,1.6,4.2,1.4,6.9
		c-0.1,2.6-0.1,5.5,0,8.6c0.1,1.3,0,2.7-1,3.6c-0.7,0.6-1.7,0.8-3,0.6c-1.4-0.2-2.3-0.1-2.8,0.3c-0.5,0.5-0.8,1.5-0.7,3.2l0,0.7
		c0.1,2.7,0.2,4.4,0.8,4.9c0.6,0.6,2.3,0.6,5.2,0.6c1,0,2.1,0,3.1,0L556.5,96.4L556.5,96.4z"/>
</g>
<g>
	<path class="st6" d="M204.3,164.6c4.9,14.3,9.7,28.1,14.9,43c4.3-14.2,8.3-27.4,12.3-40.5c0.7-2.4-0.5-2.4-2.3-2.5
		c-7.3-0.3-7.4-0.4-7.3-7.6c0.1-9.7-0.3-19.3,0.3-29c0.1-2.3,0.5-3.1,3-3.1c11.4,0.1,22.7,0.1,34.1,0c2.2,0,2.8,0.7,2.8,2.9
		c0,11.4,0,22.7,0.2,34.1c0,2.3-0.8,2.7-2.9,2.8c-9,0.3-9.1,0.4-12.2,9.1c-9.8,27.7-19.6,55.4-29.4,83
		c-4.2,11.8-10.3,15.8-21.7,14.9c-2.2-0.2-3.2-0.8-3.2-3.2c0.1-11.4,0-22.7,0-34.1c0-2,0.6-2.9,2.6-2.7c2,0.1,4,0.1,6,0.2
		c6.6,0.3,8.2-1.7,5.9-8c-4.6-12.8-9.3-25.6-14-38.4c-2.1-5.7-4.3-11.5-6.2-17.3c-0.9-2.7-2.2-4.1-5.2-3.7c-1.2,0.2-2.5-0.1-3.7,0.1
		c-3.2,0.5-4.1-0.7-4.1-4c0.2-10.7,0.2-21.5,0-32.2c-0.1-2.9,0.8-3.6,3.6-3.5c10.9,0.2,21.8,0.2,32.7,0c2.9,0,3.6,0.8,3.5,3.6
		c-0.2,10.3-0.3,20.6,0,30.8c0.1,4.2-1,5.9-5.3,5.2C207.5,164.4,206.1,164.6,204.3,164.6z"/>
	<path class="st7" d="M199.1,272.8c-1,0-2,0-3-0.1c-2.4-0.2-4.1-1-4-4.2c0.1-9.9,0.1-20.4,0-34.1c0-1,0.1-2.2,0.9-2.9
		c0.6-0.6,1.5-0.8,2.7-0.7c1.2,0.1,2.3,0.1,3.5,0.1c0.8,0,1.6,0,2.5,0.1c3,0.1,4.8-0.3,5.5-1.2c0.7-0.9,0.5-2.7-0.5-5.5
		c-3.1-8.7-6.4-17.6-9.5-26.2c-1.5-4.1-3-8.1-4.5-12.2c-0.5-1.4-1.1-2.9-1.6-4.3c-1.6-4.2-3.2-8.6-4.6-13c-0.9-2.6-1.9-3.4-4.2-3
		c-0.7,0.1-1.4,0.1-2.1,0c-0.6,0-1.1-0.1-1.6,0c-1.1,0.2-2.8,0.3-3.9-0.7c-1.2-1-1.3-2.8-1.2-4.2c0.2-10.1,0.2-20.6,0-32.2
		c0-1.7,0.3-2.8,1-3.5c0.9-0.9,2.3-1,3.6-1c11.3,0.2,22.2,0.2,32.7,0c1.8,0,2.8,0.3,3.5,1c0.9,0.9,1,2.3,1,3.6
		c-0.2,11.5-0.3,21.1,0,30.8c0.1,1.8-0.1,4.1-1.5,5.4c-1.1,0.9-2.6,1.2-4.9,0.8c-0.8-0.1-1.6-0.1-2.6-0.1c-0.1,0-0.3,0-0.4,0
		l13.5,39l2.5-8.4c3-10,6-19.7,8.9-29.4c0.3-0.8,0.2-1.1,0.2-1.1c-0.1-0.1-0.9-0.2-1.4-0.2c-8-0.4-8.4-0.8-8.3-8.5
		c0-3.3,0-6.6,0-9.9c0-6.3-0.1-12.7,0.3-19.1c0.2-2.6,0.9-4,4-4c10.2,0.1,21.4,0.1,34.1,0c0.9,0,2.1,0.1,2.9,0.9
		c0.8,0.8,0.9,1.9,0.9,3c0,11.3,0,22.8,0.2,34c0,3-1.4,3.7-3.8,3.8c-8.4,0.3-8.4,0.3-11.3,8.5c-4.2,12-8.5,23.9-12.7,35.9
		c-5.6,15.7-11.1,31.4-16.7,47.1C214.7,268.2,209.1,272.8,199.1,272.8z M195.1,232.6c-0.4,0-0.8,0-0.9,0.2c-0.2,0.2-0.3,0.7-0.3,1.5
		c0.1,13.7,0.1,24.2,0,34.1c0,1.8,0.3,2.1,2.3,2.3c11.1,0.9,16.7-3,20.7-14.3c5.6-15.7,11.1-31.4,16.7-47.1
		c4.2-12,8.5-23.9,12.7-35.9c3.2-9.1,3.6-9.4,13.1-9.8c1.8-0.1,2-0.3,2-1.8c-0.2-11.3-0.2-22.8-0.2-34.1c0-0.9-0.1-1.4-0.3-1.6
		c-0.2-0.2-0.7-0.3-1.6-0.3c-12.7,0.1-23.8,0.1-34.1,0c-1.8,0-2,0.3-2.1,2.2c-0.4,6.3-0.4,12.8-0.3,19c0,3.3,0.1,6.6,0,9.9
		c-0.1,6.3-0.1,6.3,6.4,6.6c1.3,0.1,2.4,0.1,3,1c0.6,0.8,0.3,1.9,0.1,2.7c-3,9.6-5.9,19.3-8.9,29.4l-4.2,14l-16.3-47h1.3
		c0.6,0,1.2,0,1.7,0c1.1,0,2-0.1,3,0.1c1.6,0.3,2.7,0.1,3.3-0.4c0.7-0.6,0.9-1.8,0.9-3.9c-0.3-9.7-0.2-19.4,0-30.9
		c0-1.2-0.1-1.9-0.4-2.2c-0.3-0.3-1-0.4-2.1-0.4c-10.4,0.2-21.4,0.2-32.7,0c-1.2,0-1.9,0.1-2.2,0.4c-0.3,0.3-0.4,1-0.4,2.1
		c0.2,11.6,0.2,22.1,0,32.3c0,1.5,0.2,2.4,0.6,2.8c0.4,0.3,1.2,0.4,2.4,0.2c0.7-0.1,1.4-0.1,2,0c0.6,0,1.1,0.1,1.7,0
		c4.1-0.7,5.5,2,6.3,4.3c1.4,4.3,3,8.7,4.6,12.9c0.5,1.4,1.1,2.9,1.6,4.3c1.5,4.1,3,8.1,4.5,12.2c3.2,8.6,6.4,17.4,9.5,26.2
		c1.3,3.5,1.3,5.8,0.2,7.3c-1.1,1.5-3.3,2.1-7.1,2c-0.8,0-1.6,0-2.4-0.1c-1.2,0-2.4,0-3.6-0.1C195.3,232.6,195.2,232.6,195.1,232.6z
		"/>
</g>
<g>
	<path class="st6" d="M558.5,206.5c4.2-13.8,8.3-27.7,12.5-41.5c-0.7-0.2-1-0.3-1.3-0.4c-8.7-0.4-8.7-0.4-8.7-9.4
		c0-8.9,0.1-17.8-0.1-26.7c-0.1-2.9,0.8-3.6,3.6-3.6c11.2,0.2,22.4,0.1,33.6,0c2.4,0,3.1,0.6,3.1,3.1c-0.1,11.2-0.1,22.4,0,33.6
		c0,2.5-0.8,3-3.1,3c-9.1,0-8.9,0.2-12,9c-9.9,28.3-19.9,56.6-30,84.8c-3.7,10.2-10.6,14.4-21.4,13.2c-1.8-0.2-2.6-0.7-2.6-2.7
		c0.1-11.5,0.1-23,0-34.5c0-2.4,0.9-2.9,3-2.8c2,0.1,4,0,6,0c6.2,0,7.5-1.6,5.4-7.6c-3.9-11.1-8.2-22.1-12.3-33.1
		c-2.8-7.5-5.7-14.9-8.1-22.5c-1-3.2-2.6-4.1-5.8-4c-6.8,0.2-6.8,0.1-6.8-6.5c0-9.8,0.1-19.7-0.1-29.5c0-2.8,0.7-3.6,3.5-3.6
		c10.9,0.2,21.8,0.2,32.7,0c2.6,0,3.4,0.8,3.3,3.4c-0.1,10.4-0.2,20.9,0,31.3c0.1,3.9-0.7,5.8-4.9,5c-3.9-0.7-4.9,0.4-3.4,4.5
		c4.3,11.6,8.1,23.4,12.1,35.1C557.1,205.1,557.2,206.1,558.5,206.5z"/>
	<path class="st7" d="M537.9,272.8c-1.1,0-2.2-0.1-3.4-0.2c-2.1-0.2-3.5-0.9-3.5-3.7c0.1-12.2,0.1-23.5,0-34.5c0-1.4,0.3-2.3,0.9-3
		c0.8-0.8,2.1-0.8,3.1-0.8c1.4,0.1,2.9,0.1,4.3,0l1.6,0c2.9,0,4.5-0.4,5.1-1.2c0.6-0.8,0.4-2.4-0.6-5.1c-2.6-7.3-5.3-14.6-8-21.7
		c-1.4-3.8-2.9-7.6-4.3-11.4c-0.6-1.7-1.3-3.4-1.9-5.1c-2.1-5.7-4.3-11.5-6.2-17.4c-0.9-2.7-2-3.5-4.9-3.4c-3.7,0.1-5.5,0.1-6.6-1
		c-1.2-1.1-1.2-2.9-1.2-6.5c0-2.7,0-5.4,0-8.1c0-7,0-14.2-0.1-21.4c0-1.3,0.1-2.7,1-3.6c0.9-0.9,2.3-1,3.5-1
		c9.9,0.2,20.6,0.2,32.7,0c1.1,0,2.5,0.1,3.3,1c0.9,0.9,1,2.2,1,3.4c-0.1,11.1-0.2,21.1,0,31.3c0.1,2.1-0.1,4.1-1.4,5.3
		c-1,0.9-2.5,1.1-4.6,0.7c-2.1-0.4-2.7-0.1-2.8,0.1c-0.1,0.2-0.4,0.8,0.5,3.2c3.1,8.5,6.1,17.2,8.9,25.6c1.1,3.2,2.1,6.3,3.2,9.5
		l0.1,0.4c0.1,0.2,0.1,0.4,0.2,0.5l11.8-39.2c-0.1,0-0.1,0-0.1,0c-9.3-0.4-9.6-0.8-9.6-10.4c0-2.5,0-5,0-7.5c0-6.3,0-12.8-0.1-19.2
		c0-1.2,0.1-2.6,1-3.5c0.9-0.9,2.4-1,3.6-1c10.2,0.1,21.2,0.1,33.6,0c1.1,0,2.3,0.1,3.1,0.9c0.8,0.8,0.9,2,0.9,3.1
		c-0.1,11.4-0.1,22.7,0,33.6c0,1-0.1,2.3-0.9,3.1c-0.8,0.8-2,0.9-3.2,0.9c-8.2,0-8.2,0-10.9,7.7L587,174
		c-9.8,27.9-19.9,56.5-30,84.8C553.6,268.2,547.3,272.8,537.9,272.8z M534.5,232.6c-0.6,0-1,0.1-1.2,0.3c-0.2,0.2-0.4,0.8-0.3,1.6
		c0.1,11,0.1,22.3,0,34.6c0,1.4,0.2,1.6,1.8,1.8c10.5,1.1,17-2.9,20.4-12.6c10.1-28.3,20.2-56.9,30-84.8l0.2-0.6c3-8.7,3.5-9,12.7-9
		c1,0,1.6-0.1,1.8-0.4c0.2-0.2,0.3-0.8,0.3-1.7c-0.1-10.9-0.1-22.2,0-33.6c0-1-0.1-1.5-0.3-1.8c-0.2-0.2-0.9-0.4-1.8-0.3
		c-12.4,0.1-23.4,0.1-33.6,0c-1.2,0-1.9,0.1-2.2,0.4c-0.3,0.3-0.5,1-0.4,2.2c0.1,6.4,0.1,12.9,0.1,19.2c0,2.5,0,5,0,7.5
		c0,4.1,0,6.4,0.8,7.3c0.8,0.9,3,1,7,1.2c0.3,0,0.6,0.1,0.9,0.2c0.2,0.1,0.3,0.1,0.6,0.2l0.9,0.3l-13.1,43.4l-0.9-0.3
		c-1.6-0.5-1.9-1.7-2.2-2.5l-0.1-0.3c-1.1-3.2-2.2-6.3-3.2-9.5c-2.8-8.4-5.8-17.1-8.9-25.6c-0.7-1.8-1.2-3.8-0.2-5.1
		c1-1.2,3-1,4.6-0.7c1.5,0.3,2.5,0.2,3-0.3c0.6-0.5,0.8-1.7,0.8-3.8c-0.3-10.2-0.2-20.3,0-31.4c0-1.1-0.1-1.7-0.4-2
		c-0.3-0.3-0.9-0.4-2-0.4c-12,0.2-22.8,0.2-32.7,0c-1.2,0-1.9,0.1-2.2,0.4c-0.3,0.3-0.4,1-0.4,2.2c0.1,7.1,0.1,14.4,0.1,21.4
		c0,2.7,0,5.4,0,8.1c0,2.9,0,4.6,0.6,5.2c0.6,0.6,2.4,0.5,5.3,0.4c3.8-0.1,5.6,1.1,6.8,4.7c1.8,5.8,4,11.7,6.1,17.3
		c0.6,1.7,1.3,3.4,1.9,5.1c1.4,3.8,2.8,7.6,4.3,11.4c2.7,7.1,5.4,14.4,8,21.7c1.2,3.4,1.3,5.4,0.3,6.8c-1,1.4-2.9,2-6.6,2l-1.6,0
		c-1.5,0-3,0-4.5,0C534.8,232.6,534.6,232.6,534.5,232.6z"/>
</g>
<g>
	<path class="st6" d="M166.1,212.3c-0.4-10.5-7.4-17.5-17.7-19.2c-5.2-0.9-10.4-0.6-15.6-0.5c-8.4,0.1-8.4,0.1-8.4-8c0-2-0.1-4,0-6
		c0.2-4.5-2-10.7,0.9-13.2c3.1-2.7,9.1-0.9,13.8-0.8c8.4,0.2,9.8,1.6,10,10.1c0.2,9.6,0.2,9.4,9.8,9.6c3.4,0,4-1.1,4-4.2
		c0.1-17.3-0.6-34.7,0.3-52c0.1-2.4-0.6-3.2-3.1-3.2c-9.5,0.1-19,0.1-28.5,0.1c-9.4,0-18.7,0.1-28.1-0.1c-2.9-0.1-3.9,0.7-3.8,3.8
		c0.2,10,0.1,20,0.1,29.9c0,6,0,6.2,6.1,5.9c3.4-0.2,4.3,0.8,4.3,4.2c-0.2,18.9-0.1,37.8-0.1,56.6c0,6.2,0,6.4-6.3,6.2
		c-3.3-0.1-4.2,0.9-4.1,4.1c0.2,10.9,0.1,21.8,0,32.7c0,2.2,0.4,3.4,3,3.3c13.3-0.2,26.7,0.2,40-0.4c12.9-0.6,23-11,23.5-24
		C166.6,235.7,166.5,224,166.1,212.3z M136.8,229.2c-10.3,0-10.3,0-10.3-10.3c0-10.8,0-10.8,10.9-11.1c1.8,0,3.7,0,5.5,0.1
		c4.9,0.5,7.3,2.8,7.5,7.7C150.8,230.1,150.3,229.4,136.8,229.2z"/>
</g>
<path class="st7" d="M103.2,273c-0.9,0-2.2-0.1-3.1-1c-1-1-1.1-2.3-1.1-3.6c0.1-10.4,0.2-21.5,0-32.5c0-1.5,0.1-3.2,1.2-4.3
	c1.1-1.1,2.9-1.2,4.2-1.2c1.9,0.1,4.1,0.1,4.5-0.3c0.4-0.4,0.4-2.2,0.4-4.6c0-4.8,0-9.7,0-14.4c0-13.8,0-28,0.1-42
	c0-1.4-0.1-2.2-0.5-2.5c-0.3-0.3-1.1-0.4-2.4-0.4c-3.3,0.2-5.1,0.2-6.3-1c-1.2-1.2-1.2-3-1.2-6.3c0-2.8,0-5.7,0-8.4
	c0-7,0.1-14.3-0.1-21.4c0-1.3,0.1-2.9,1.1-4c1-1,2.6-1.2,4.1-1.1c6.7,0.1,13.5,0.1,20.2,0.1c2.6,0,5.2,0,7.8,0c2.6,0,5.2,0,7.8,0
	c6.8,0,13.8,0,20.7-0.1c1.1,0,2.5,0.1,3.5,1.1c0.9,1,1,2.4,0.9,3.5c-0.6,11.8-0.5,23.8-0.4,35.4c0,5.4,0.1,10.9,0.1,16.4
	c0,1.9-0.2,3.3-1.2,4.3c-1.1,1.1-2.7,1.2-4.1,1.2l-0.5,0c-4.9-0.1-7.3-0.1-8.9-1.7c-1.5-1.6-1.6-4.1-1.7-9.1
	c-0.1-4.2-0.5-6.2-1.5-7.2c-1-1-2.9-1.4-7.1-1.5c-1.4,0-2.8-0.2-4.2-0.4c-3.4-0.4-6.9-0.8-8.6,0.8c-1.4,1.2-1,4.3-0.7,7.2
	c0.2,1.7,0.4,3.4,0.3,5c-0.1,1.3-0.1,2.6,0,4c0,0.6,0,1.3,0,1.9c0,3.3,0,5.5,0.6,6.1c0.7,0.6,3,0.6,6.3,0.5c0.7,0,1.5,0,2.2,0
	c4.4-0.1,9-0.2,13.6,0.6c5.4,0.9,10,3.3,13.3,6.7c3.4,3.6,5.3,8.3,5.5,13.7v0c0.5,12.2,0.5,23.9,0.1,35c-0.3,6.6-2.9,12.8-7.5,17.4
	c-4.6,4.7-10.7,7.4-17.2,7.7c-8.7,0.4-17.5,0.4-26.1,0.4c-4.6,0-9.3,0-13.9,0C103.3,273,103.2,273,103.2,273z M104,233
	c-1,0-1.6,0.1-1.9,0.4c-0.3,0.3-0.5,1.1-0.4,2.3c0.2,11.1,0.1,22.2,0,32.6c0,1,0.1,1.5,0.3,1.7c0.1,0.1,0.4,0.3,1.3,0.3
	c4.6-0.1,9.4,0,13.9,0c8.5,0,17.3,0,25.9-0.4c12.2-0.6,21.7-10.3,22.2-22.6c0.4-11,0.4-22.7-0.1-34.8v0c-0.4-9.5-6.6-16.2-16.6-17.9
	c-4.3-0.7-8.6-0.6-13.1-0.5c-0.7,0-1.5,0-2.2,0c-4.5,0.1-6.8,0.1-8.2-1.3c-1.4-1.4-1.4-3.6-1.4-8c0-0.6,0-1.2,0-1.9
	c0-1.4,0-2.8,0-4.2c0.1-1.4-0.1-3-0.3-4.6c-0.4-3.6-0.8-7.3,1.6-9.5c2.7-2.4,6.7-1.9,10.7-1.4c1.4,0.2,2.7,0.3,4,0.3
	c4.3,0.1,7.1,0.5,8.9,2.3c1.8,1.8,2.2,4.7,2.3,9c0.1,4.1,0.1,6.5,0.9,7.4c0.8,0.8,3.1,0.8,7,0.9l0.5,0c1.2,0,1.9-0.1,2.2-0.4
	c0.4-0.4,0.4-1.5,0.4-2.4c0-5.4,0-11-0.1-16.3c-0.1-11.6-0.2-23.7,0.4-35.6c0.1-1.1-0.1-1.4-0.2-1.5c-0.1-0.1-0.4-0.3-1.5-0.3
	c-6.9,0.1-13.9,0.1-20.7,0.1c-2.5,0-5.2,0-7.8,0c-2.6,0-5.2,0-7.8,0c-6.6,0-13.5,0-20.2-0.1c-1.2,0-1.9,0.1-2.1,0.4
	c-0.2,0.2-0.4,0.7-0.4,2c0.1,7.2,0.1,14.4,0.1,21.5c0,2.8,0,5.6,0,8.4c0,2.1,0,4,0.4,4.3c0.4,0.4,2.6,0.3,4.3,0.2
	c1.5-0.1,3.2,0,4.4,1.1c1.1,1.1,1.3,2.8,1.3,4.5c-0.1,14-0.1,28.2-0.1,42c0,4.7,0,9.6,0,14.4c0,3.5,0,5.3-1.2,6.5
	c-1.2,1.2-3.3,1.1-6.4,1C104.2,233,104.1,233,104,233z M142.4,230.7c-1,0-2,0-3.2,0c-0.6,0-1.2,0-1.8,0c-5.5,0-8.2,0-9.9-1.7
	c-1.7-1.7-1.7-4.4-1.7-9.9c0-5.7,0-8.6,1.7-10.4c1.7-1.8,4.6-1.8,10.4-2c1.9-0.1,3.8,0,5.6,0.1l0,0c5.6,0.5,8.5,3.5,8.6,8.9
	c0.2,7.2,0.2,11-1.8,13.1C148.8,230.5,146.4,230.7,142.4,230.7z M139.6,209.3c-0.5,0-1.1,0-1.6,0c-4.8,0.1-7.6,0.2-8.6,1.2
	c-1,1-1,3.7-1,8.5c0,4.5,0,7.1,0.9,8c0.9,0.9,3.6,0.9,8,0.9l0,0c0.6,0,1.2,0,1.8,0c5.1,0.1,8.2,0.1,9.3-1.1c1.3-1.3,1.2-5.1,1-11.1
	c-0.1-4.1-1.9-6-6.2-6.4C142.1,209.4,140.9,209.3,139.6,209.3z"/>
<g>
	<path class="st6" d="M348.1,148c-0.8-14.6-6-19.9-20.6-22.5c-8.5-1.5-17.1-0.6-25.7-0.7c-7.4,0-14.7,0.1-22.1,0
		c-2.9,0-3.9,0.9-3.8,4c0.2,9.2,0.1,18.4,0.1,27.6c0,8.2,0,8.4,8,8.2c3.2-0.1,4.1,0.7,4.1,4c-0.2,17.8-0.1,35.6-0.1,53.4
		c0,9.4,0,9.5-9.3,9.9c-2.2,0.1-2.9,0.6-2.9,2.8c0.1,11.4,0.2,22.7,0.1,34.1c0,2.2,0.7,2.9,2.9,2.8c12-0.1,23.9-0.1,35.9,0
		c2.2,0,2.9-0.6,2.9-2.8c0-8.9,0.3-17.8,0.3-26.7c0.1-10,0-10.1-10.2-10.3c-2.6,0-3.5-0.7-3.4-3.4c0.1-6.6,0.2-13.2,0-19.8
		c-0.1-3.2,0.9-4.3,4.2-4.2c7.2,0.1,14.4,0.2,21.5-0.3c11.7-0.8,16.9-5.8,17.9-17.4C349,173.8,348.8,160.9,348.1,148z M329,179
		c0,7-0.8,7.9-7.8,8.3c-1.4,0.1-2.8,0-4.1,0c-10.5,0-10.5,0-10.5-10.4c0-10.1,0-10.1,10.1-10.1C328.9,166.8,329.1,166.9,329,179z"/>
	<path class="st7" d="M314.9,272.5c0,0-0.1,0-0.1,0c-11.3-0.1-23.1-0.1-35.9,0c-1,0-2.2-0.1-3-0.9c-0.8-0.8-0.9-2-0.9-2.9
		c0.1-11.4,0-22.8-0.1-34c0-3,1.4-3.7,3.8-3.8c8.4-0.3,8.4-0.3,8.4-8.9l0-13.7c0-13,0-26.5,0.1-39.7c0-1.4-0.2-2.2-0.5-2.5
		c-0.4-0.4-1.2-0.5-2.6-0.5c-3.9,0.1-6.3,0.1-7.6-1.2c-1.3-1.3-1.3-3.5-1.3-8c0-2.6,0-5.2,0-7.7c0-6.5,0.1-13.2-0.1-19.8
		c0-1.9,0.3-3,1.1-3.8c0.8-0.8,1.9-1.1,3.7-1.1c5.2,0.1,10.6,0.1,15.7,0.1c2.1,0,4.2,0,6.3,0c2.6,0,5.2,0,7.7-0.1
		c6-0.1,12.1-0.3,18.2,0.8c15.1,2.7,20.5,8.6,21.3,23.4v0c0.8,14.9,0.8,27.2-0.2,38.7c-1,12-6.6,17.5-18.8,18.3
		c-7.3,0.5-14.7,0.4-21.6,0.3c-1.3,0-2.2,0.2-2.6,0.6c-0.4,0.4-0.6,1.3-0.6,2.7c0.2,5.8,0.2,12.1,0,19.8c0,1,0.1,1.6,0.4,1.9
		c0.3,0.3,1,0.5,2.1,0.5c10.7,0.2,11.2,0.7,11.1,11.3c0,3.9-0.1,7.7-0.2,11.6c-0.1,4.9-0.2,10.1-0.2,15.1c0,1-0.1,2.2-0.9,2.9
		C316.9,272.4,315.9,272.5,314.9,272.5z M296.9,270.5c6.1,0,12,0,17.9,0.1c0.9,0,1.4-0.1,1.6-0.3c0.2-0.2,0.3-0.7,0.3-1.6
		c0-5,0.1-10.2,0.2-15.1c0.1-3.9,0.1-7.7,0.2-11.6c0.1-9.2,0.1-9.2-9.2-9.3c-1.2,0-2.6-0.2-3.5-1.1c-0.7-0.7-1-1.7-0.9-3.3
		c0.2-7.7,0.2-13.9,0-19.7c-0.1-2,0.3-3.2,1.1-4.1c0.8-0.8,2.1-1.2,4-1.2c6.9,0.1,14.2,0.2,21.5-0.3c11.3-0.7,16.1-5.4,17-16.6
		c0.9-11.4,1-23.7,0.2-38.5v0c-0.8-14-5.4-19-19.8-21.6c-5.9-1.1-11.9-0.9-17.8-0.8c-2.5,0.1-5.2,0.1-7.8,0.1c-2.1,0-4.2,0-6.3,0
		c-5.2,0-10.5,0-15.8-0.1c-1.2,0-2,0.1-2.3,0.5c-0.4,0.4-0.6,1.2-0.5,2.5c0.2,6.6,0.1,13.4,0.1,19.9c0,2.6,0,5.2,0,7.7
		c0,3.7,0,5.9,0.8,6.6c0.7,0.7,2.7,0.7,6.2,0.6c1.5,0,3,0.1,4,1c1,1,1.1,2.5,1.1,3.9c-0.1,13.2-0.1,26.7-0.1,39.7l0,13.7
		c0,9.9-0.5,10.5-10.2,10.9c-1.8,0.1-2,0.3-1.9,1.9c0.1,11.2,0.2,22.7,0.1,34.1c0,0.8,0.1,1.3,0.3,1.6c0.2,0.2,0.7,0.3,1.6,0.3
		C285.1,270.5,291.1,270.5,296.9,270.5z M319.4,188.3c-0.4,0-0.8,0-1.1,0l-1.2,0c-5.5,0-8.3,0-9.9-1.6c-1.6-1.6-1.6-4.3-1.6-9.8
		c0-10.6,0.4-11.1,10.9-11.1c6.2,0,9.7,0,11.5,1.9c1.9,1.9,1.8,5.2,1.8,11.3c-0.1,7.6-1.2,8.8-8.7,9.3
		C320.6,188.3,320,188.3,319.4,188.3z M317.1,186.4l1.2,0c1,0,1.9,0,2.9,0c6.5-0.4,6.9-0.8,6.9-7.4l0,0c0-5.8,0-8.7-1.2-9.9
		c-1.3-1.3-4.2-1.3-10.1-1.3c-4.6,0-7.2,0-8.1,1c-1,1-1,3.5-1,8.2c0,4.8,0,7.4,1,8.5C309.6,186.4,312.2,186.4,317.1,186.4z"/>
</g>
<g>
	<path class="st9" d="M242.3,97.2c-5.2,0-10.4-0.1-15.7,0.1c-2.7,0.1-3.5-0.8-3.3-3.4c0.2-1.5,0.2-3.1,0-4.6
		c-0.3-2.6,0.2-4.1,3.3-3.3c2.1,0.5,2.6-0.8,2.5-2.7c-0.1-3.5-0.1-7.1,0-10.6c0-3,0.8-6.5-4.3-5.6c-1.2,0.2-1.6-0.6-1.5-1.7
		c0-0.3,0-0.6,0-0.9c-0.5-8.7-0.5-8.7,8.2-8.7c8.8,0,17.5,0.2,26.3,0c2.5,0,3.6,0.6,3.4,3.3c-0.2,2.9,0,5.8-0.1,8.7
		c0,5-2.1,6.5-7,5.1c-0.8-0.2-1.6-0.5-1.5-1.4c0.3-4.8-3.1-4.4-6.1-4.5c-1.5-0.1-3.1-0.1-4.6-0.2c-3.2-0.3-3.9,1.1-4,4.3
		c-0.1,3.8,2,3.4,4.3,3.4c1.8,0,3.7,0,5.5,0c1.4,0,2.3,0.3,2.3,2c0,1.5-0.5,2.3-2.1,2.2c-2.5-0.1-4.9,0.1-7.4,0
		c-2.1-0.1-2.8,0.7-2.5,2.6c0.3,1.7-1.2,4.3,2.2,4.6c3.2,0.3,6.4,0,9.6-0.4c1.7-0.2,2.2-1.3,2.6-2.8c0.6-2.2,6-4.1,8-2.7
		c0.3,0.2,0.5,0.7,0.6,1.1c0.1,0.6,0.1,1.2,0.1,1.8c-0.1,4.6,1.6,10.6-0.7,13.4c-2.4,2.9-8.6,0.6-13.1,0.9
		C245.6,97.4,243.9,97.3,242.3,97.2C242.3,97.3,242.3,97.3,242.3,97.2z"/>
	<path class="st7" d="M256.1,98.9c-1.3,0-2.7-0.2-4-0.3c-1.6-0.2-3.3-0.4-4.7-0.3c-1.2,0.1-2.4,0.1-3.5,0c-0.5,0-1.1,0-1.6,0h-1
		v-0.1c-1.2,0-2.4,0-3.7,0c-3.6,0-7.4-0.1-11,0.1c-1.1,0-2.6,0-3.5-1c-0.9-1-0.9-2.4-0.7-3.4c0.2-1.4,0.2-2.9,0-4.4
		c-0.1-1.3-0.2-3,0.9-3.9c0.8-0.7,2-0.8,3.6-0.4c0.5,0.1,0.9,0.1,1,0c0.1-0.1,0.4-0.4,0.3-1.7c-0.1-3.9,0-7.7,0-10.6
		c0-0.3,0-0.7,0-1c0.1-1.4,0.1-2.8-0.5-3.4c-0.4-0.4-1.4-0.5-2.7-0.2c-1,0.2-1.6-0.1-1.9-0.4c-0.5-0.5-0.8-1.2-0.8-2.2
		c0-0.3,0-0.6,0-0.8c-0.3-4.6-0.4-6.9,0.9-8.3c1.3-1.4,3.6-1.4,8.3-1.4c2.8,0,5.7,0,8.5,0c5.8,0,11.8,0.1,17.8,0
		c1.2,0,2.7,0.1,3.5,1c0.9,0.9,0.9,2.3,0.8,3.3c-0.2,2-0.1,4-0.1,6c0,0.9,0,1.8,0,2.7c0,2.8-0.7,4.7-2,5.7c-1.4,1-3.3,1.2-6.2,0.4
		c-0.6-0.2-2.3-0.6-2.2-2.4c0.1-1.2-0.1-2.1-0.5-2.6c-0.7-0.8-2.2-0.8-3.7-0.9l-0.9,0c-0.6,0-1.3,0-1.9-0.1c-0.9,0-1.8,0-2.7-0.1
		c-1.1-0.1-1.8,0-2.2,0.4c-0.5,0.4-0.7,1.3-0.8,2.9c0,1,0.1,1.7,0.4,2c0.4,0.4,1.3,0.4,2.3,0.4l0.6,0c0.7,0,1.4,0,2.1,0
		c1.1,0,2.3,0,3.4,0c0.8,0,1.8,0,2.5,0.7c0.5,0.5,0.8,1.2,0.7,2.2c0,0.8-0.1,3.2-3.1,3.2c-1,0-2,0-3,0c-1.4,0-2.9,0-4.4-0.1
		c-0.7,0-1.2,0-1.4,0.2c-0.2,0.2-0.2,0.7-0.1,1.3c0.1,0.6,0,1.2,0,1.7c-0.1,0.7-0.1,1.4,0.1,1.6c0.2,0.2,0.6,0.3,1.2,0.4
		c2.7,0.2,5.6,0.1,9.4-0.4c1.1-0.1,1.4-0.7,1.8-2.1c0.4-1.3,1.9-2.6,4-3.3c1.7-0.6,4-0.9,5.4,0.1c0.7,0.5,0.9,1.5,1,1.7
		c0.1,0.6,0.1,1.2,0.1,1.7l0,0.3c0,1.3,0.1,2.9,0.3,4.3c0.3,3.6,0.7,7.4-1.1,9.6C260,98.5,258.2,98.9,256.1,98.9z M248.1,96.3
		c1.3,0,2.8,0.2,4.2,0.3c3.2,0.4,6.2,0.7,7.4-0.9c1.3-1.6,1-5,0.7-8.2c-0.1-1.5-0.3-3.1-0.3-4.5l0-0.3c0-0.5,0-0.9-0.1-1.3
		c-0.1-0.3-0.2-0.5-0.2-0.5c-0.5-0.4-2-0.4-3.7,0.2c-1.5,0.5-2.6,1.4-2.8,2c-0.4,1.5-1.1,3.1-3.4,3.4c-3.9,0.5-6.9,0.7-9.8,0.4
		c-1.1-0.1-1.9-0.4-2.5-1.1c-0.8-0.9-0.7-2.1-0.6-3c0-0.5,0.1-0.9,0-1.3c-0.2-1.3,0-2.2,0.6-2.9c0.6-0.7,1.6-1,2.9-0.9
		c1.4,0.1,2.9,0.1,4.3,0.1c1,0,2,0,3.1,0c0.8,0,1.1-0.1,1.2-1.3c0-0.4,0-0.7-0.2-0.8c-0.1-0.1-0.4-0.2-1.1-0.2c-1.2,0-2.3,0-3.5,0
		c-0.7,0-1.4,0-2,0l-0.6,0c-1.3,0-2.7,0.1-3.7-0.9c-0.7-0.7-1-1.8-1-3.4c0.1-1.6,0.3-3.3,1.4-4.3c0.8-0.7,2-1,3.6-0.9
		c0.9,0.1,1.7,0.1,2.6,0.1c0.7,0,1.3,0,2,0.1l0.9,0c1.9,0.1,3.8,0.1,5.1,1.5c0.8,0.9,1.2,2.2,1,4c0,0.1,0.2,0.2,0.8,0.4
		c2.2,0.6,3.7,0.6,4.5-0.1c0.8-0.6,1.2-2,1.2-4.2c0-0.9,0-1.8,0-2.7c0-2-0.1-4.1,0.1-6.2c0.1-0.9,0-1.5-0.3-1.8
		c-0.3-0.3-0.9-0.4-2.1-0.4c-5.9,0.1-12,0-17.8,0c-2.8,0-5.7,0-8.5,0c-3.8,0-6.1,0-6.9,0.8c-0.7,0.8-0.6,3.1-0.4,6.9
		c0,0.3,0,0.7,0,1c0,0.5,0.1,0.7,0.1,0.7l0,0c0,0,0.1,0,0.3,0c2-0.3,3.4-0.1,4.3,0.7c1.3,1.2,1.2,3.1,1.2,4.9c0,0.3,0,0.7,0,1
		c0,2.9-0.1,6.7,0,10.6c0,1-0.1,2.4-1.1,3.2c-0.7,0.5-1.5,0.7-2.7,0.4c-0.9-0.2-1.6-0.2-1.9,0c-0.2,0.2-0.4,0.7-0.3,2.3
		c0.2,1.6,0.2,3.2,0,4.8c-0.1,1,0,1.6,0.2,1.9c0.3,0.3,1,0.4,2,0.4c3.7-0.1,7.5-0.1,11.1-0.1c1.5,0,3.1,0,4.6,0h1v0.1
		c0.2,0,0.4,0,0.7,0c1.1,0,2.3,0,3.4,0C247.5,96.3,247.8,96.3,248.1,96.3z"/>
</g>
<g>
	<path class="st9" d="M488.8,87.3c-0.2-2.2-2.5-0.9-3.8-1.4c-1.3-0.4-2.6-0.4-3.4-1.9c-2.9-5.5-6-10.9-9-16.2
		c1.3-1.3,3.7,0.3,3.8-2.2c0.1-2.6,0.1-5.2,0.2-7.8c0.1-1.8-1-1.9-2.3-1.9c-7.4,0-14.7,0-22.1,0c-1.1,0-2.7,0.1-2.1,1.5
		c1.5,3.2-3.9,8.4,3,10c1.1,0.2,0.1,1.6-0.2,2.3c-2.3,4.8-4.7,9.6-7,14.5c-0.7,1.5-1.6,1.9-3.2,1.5c-3.3-0.8-4.4,0.7-4,3.9
		c0.2,1.7,0.1,3.4,0,5.1c-0.1,1.9,0.4,2.7,2.5,2.7c5.5-0.1,11.1,0,16.6-0.1c0.9,0,2.1,0.2,2.2-1c0.2-3,0.5-6.2,0-9.2
		c-0.5-2.8-3.9-0.4-5.3-2.2c0.9-2.3,1.5-4.9,4.9-4.1c4.6,1,10.7-2.9,13.8,5c-5.5-1.2-6.4,1.5-5.8,5.5c0.2,1,0.1,2.2,0,3.2
		c-0.2,2.2,0.6,2.9,2.8,2.9c5.4-0.2,10.7,0,16.1-0.1c0.7,0,2.1-0.2,2.1-0.4C488.8,93.7,489.1,90.5,488.8,87.3z M461.4,75.1
		c0.7-1.4,1.2-2.5,1.9-3.8c0.7,1.2,1.4,2.3,2,3.4C464.2,75.6,463.1,75.1,461.4,75.1z"/>
	<path class="st7" d="M470.2,98.3c-0.9,0-2.1-0.1-2.8-1c-0.8-0.9-0.8-2.1-0.7-3c0.1-1,0.1-2.1,0-3c-0.3-1.8-0.4-4.4,1.1-5.8
		c0.9-0.8,2.2-1.2,3.9-1c-2-3.3-4.7-3.1-7.8-2.8c-1.5,0.1-3.1,0.3-4.5-0.1c-2.2-0.5-2.7,0.6-3.6,2.9c0.3,0.1,0.8,0.1,1.5,0.1
		c1.2,0,3.2-0.1,3.6,2.3c0.4,2.5,0.2,5.2,0.1,7.7l-0.1,1.7c-0.1,2-2.1,2-2.8,2l-0.3,0c-1.8,0-3.7,0-5.5,0c-3.6,0-7.4,0-11.1,0.1
		c-0.8,0-2-0.1-2.8-0.9c-0.8-0.8-0.8-1.9-0.7-2.8c0.2-2,0.2-3.5,0-4.9c-0.3-2.1,0.1-3.5,1.1-4.4c0.9-0.8,2.3-1,4.1-0.6
		c1.2,0.3,1.6,0.1,2.2-1c1.3-2.7,2.6-5.3,3.8-8c1.1-2.2,2.1-4.3,3.1-6.5c0.1-0.1,0.1-0.3,0.2-0.5c0.1-0.2,0.2-0.4,0.3-0.6
		c-1.7-0.4-2.8-1.2-3.5-2.2c-0.9-1.5-0.5-3.3-0.1-4.9c0.3-1.3,0.6-2.5,0.2-3.3c-0.4-0.9-0.2-1.5,0-1.9c0.6-1,2.1-1,2.9-1
		c7.4,0,14.7,0,22.1,0c0.8,0,1.9,0,2.7,0.8c0.5,0.5,0.7,1.2,0.6,2.1c-0.1,1.5-0.1,3-0.1,4.5c0,1.1,0,2.2-0.1,3.3
		c-0.1,2.3-1.8,2.5-2.8,2.5c-0.3,0-0.5,0-0.7,0.1l0.3,0.5c2.7,4.9,5.5,9.9,8.2,14.9c0.4,0.7,0.9,0.9,2,1.2c0.3,0.1,0.6,0.2,0.9,0.3
		c0.2,0.1,0.7,0,1.1,0c0.8-0.1,1.8-0.2,2.5,0.5c0.5,0.4,0.7,1,0.8,1.7c0.3,2.7,0.1,5.5-0.1,8.2l-0.1,1.5c0,1.2-2.1,1.3-3,1.3
		c-1.9,0-3.9,0-5.8,0c-3.4,0-6.8,0-10.3,0.1C470.4,98.3,470.3,98.3,470.2,98.3z M471.1,86.4c-0.9,0-1.5,0.2-1.9,0.6
		c-0.7,0.6-0.9,2-0.5,4.1c0.2,1.1,0.2,2.3,0,3.5c-0.1,0.7,0,1.3,0.2,1.5c0.2,0.2,0.8,0.4,1.6,0.3c3.4-0.1,6.9-0.1,10.3-0.1
		c1.9,0,3.9,0,5.8,0c0.3,0,0.8-0.1,1.2-0.1l0.1-0.9c0.2-2.6,0.4-5.3,0.1-7.9v0c0-0.3-0.1-0.4-0.1-0.4c-0.1-0.1-0.8-0.1-1.1,0
		c-0.6,0.1-1.3,0.1-1.9-0.1c-0.3-0.1-0.5-0.2-0.8-0.2c-1-0.3-2.3-0.6-3.2-2.1c-2.7-5-5.5-10-8.2-14.9l-1.1-2l0.5-0.5
		c0.8-0.8,1.8-0.8,2.5-0.9c1-0.1,1-0.1,1-0.7c0-1.1,0.1-2.2,0.1-3.3c0-1.5,0.1-3.1,0.1-4.6c0-0.4,0-0.7-0.1-0.7
		c-0.2-0.2-0.9-0.2-1.3-0.2c-7.4,0-14.7,0-22.1,0c-0.7,0-1,0.1-1.2,0.1c0.7,1.6,0.3,3.1-0.1,4.6c-0.3,1.4-0.6,2.6-0.1,3.5
		c0.4,0.6,1.3,1.1,2.6,1.4c0.7,0.2,1,0.6,1.1,0.8c0.4,0.8-0.1,1.7-0.5,2.4c-0.1,0.1-0.1,0.3-0.2,0.4c-1,2.2-2.1,4.3-3.2,6.5
		c-1.3,2.6-2.6,5.3-3.8,8c-0.9,1.9-2.3,2.6-4.3,2.1c-0.8-0.2-1.9-0.3-2.4,0.1c-0.5,0.4-0.6,1.4-0.4,2.7c0.2,1.5,0.2,3.1,0,5.3
		c-0.1,0.9,0.1,1.3,0.2,1.4c0.2,0.2,0.7,0.3,1.3,0.3c3.7-0.1,7.5-0.1,11.1-0.1c1.8,0,3.7,0,5.5,0l0.4,0c0.3,0,0.7,0,0.9-0.1
		c0-0.7,0.1-1.2,0.1-1.8c0.1-2.4,0.3-4.9-0.1-7.3c-0.1-0.6-0.2-0.7-1.7-0.7c-1.1,0-2.5,0.1-3.5-1.1l-0.3-0.4l0.4-1.1
		c0.8-2.1,1.9-4.9,5.7-4.1c1.2,0.2,2.5,0.1,4,0c3.6-0.3,8-0.7,10.5,5.6l0.7,1.7l-1.7-0.4C472.4,86.5,471.7,86.4,471.1,86.4z
		 M463.7,76.2c-0.4,0-0.8,0-1.2-0.1c-0.3,0-0.7-0.1-1.1-0.1l-1.5-0.1l0.6-1.3c0.7-1.4,1.2-2.5,1.9-3.8l0.8-1.6l0.9,1.5
		c0.6,1,1.1,1.9,1.7,2.9l0.7,1.3l-0.6,0.5C465.2,76,464.4,76.2,463.7,76.2z M462.9,74.2c0.5,0,0.8,0.1,1.1,0c-0.2-0.3-0.4-0.7-0.6-1
		C463.2,73.6,463.1,73.9,462.9,74.2z"/>
</g>
<g>
	<path class="st9" d="M326.8,55.9c5.4,0,10.7,0.1,16.1-0.1c2.7-0.1,4,0.5,3.7,3.5c-0.3,2.3-0.1,4.6-0.1,6.9c0,6.3-0.5,6.7-6.8,6
		c-1.1-0.1-2.2-0.1-2.1-1.6c0.1-3.7-3.1-3.2-5-3.1c-3,0-1.3,2.8-1.5,4.3c-0.3,2.4-0.1,4.9-0.1,7.4c0.1,3.4-1.2,7.8,5,6.8
		c1.2-0.2,1.6,0.9,1.8,2.2c1.3,8.4,0.5,9.4-7.8,9.4c-3.8,0-7.7-0.1-11.5,0c-2.7,0.1-3.5-0.9-3.3-3.5c0.2-1.5,0.2-3.1,0-4.6
		c-0.3-2.9,1-4,3.7-3.6c3.2,0.5,3.9-1,3.8-3.9c-0.2-3.7,0-7.4-0.1-11c0-1.3,0.8-3.5-1.6-3.5c-2,0-4.9-0.5-5.3,2.3
		c-0.8,5.2-4.6,2.1-6.8,2.4c-3.1,0.4-1.7-2.6-1.8-4.1c-0.2-3.8-1.3-8.6,0.5-11.2c1.8-2.5,6.9-0.6,10.5-0.8
		C321,55.6,323.9,55.8,326.8,55.9C326.8,55.8,326.8,55.8,326.8,55.9z"/>
	<path class="st7" d="M318.1,98.3c-1.4,0-2.3-0.3-3-1c-1-1-0.9-2.5-0.8-3.5c0.2-1.5,0.2-3,0-4.4c-0.2-1.7,0.1-3,1-3.8
		c0.8-0.8,2.1-1.1,3.8-0.8c1.1,0.2,1.8,0.1,2.2-0.3c0.4-0.4,0.6-1.2,0.5-2.6c-0.1-2.1-0.1-4.3-0.1-6.4c0-1.6,0-3.1,0-4.7
		c0-0.3,0-0.7,0.1-1c0-0.5,0.1-1.2-0.1-1.4c-0.1-0.1-0.3-0.2-0.7-0.2l-0.7,0c-2.3-0.1-3.4,0.1-3.7,1.5c-0.3,1.6-0.8,2.7-1.7,3.3
		c-1.3,0.8-2.8,0.5-4.1,0.1c-0.7-0.2-1.3-0.3-1.8-0.3c-1.1,0.1-1.9-0.1-2.5-0.6c-0.9-0.9-0.7-2.2-0.5-3.3c0.1-0.4,0.1-0.8,0.1-1.1
		c0-0.9-0.1-1.9-0.2-2.9c-0.3-3.3-0.7-6.6,0.9-8.9c1.5-2.1,4.5-1.8,7.4-1.4c1.3,0.1,2.7,0.3,3.8,0.2c2.1-0.2,4.1-0.1,6.1-0.1
		c0.9,0,1.8,0,2.7,0l1,0.1c1.3,0,2.5,0,3.8,0c3.7,0,7.6,0.1,11.4-0.1c1.4-0.1,2.9,0,3.9,1c0.7,0.8,0.9,1.9,0.8,3.5
		c-0.2,1.5-0.1,3-0.1,4.6c0,0.7,0,1.4,0,2.2c0,3.2-0.1,5.2-1.3,6.3c-1.2,1.1-3.3,1-6.5,0.6l-0.3,0c-0.9-0.1-2.7-0.3-2.7-2.6
		c0-0.8-0.1-1.4-0.5-1.7c-0.6-0.6-1.9-0.5-2.9-0.5l-0.6,0c-0.5,0-0.7,0.1-0.8,0.2c-0.2,0.2,0,1,0.1,1.5c0.1,0.6,0.2,1.2,0.2,1.8
		c-0.3,1.8-0.2,3.8-0.1,5.6c0,0.5,0,1.1,0,1.6c0,0.5,0,1.1,0,1.7c-0.1,1.6-0.1,3.2,0.6,3.8c0.6,0.5,1.7,0.6,3.3,0.3
		c0.8-0.1,1.3,0.1,1.7,0.4c0.8,0.6,1.1,1.6,1.2,2.6c0.7,4.5,0.8,7-0.6,8.6c-1.3,1.6-3.8,1.9-8.2,1.9c-1.1,0-2.3,0-3.4,0
		c-2.6,0-5.4-0.1-8,0.1C318.4,98.3,318.3,98.3,318.1,98.3z M318,86.5c-0.5,0-1,0.1-1.3,0.4c-0.5,0.5-0.5,1.5-0.4,2.2
		c0.2,1.5,0.2,3.2,0,4.8c-0.1,1,0,1.7,0.3,2c0.3,0.3,1,0.5,2,0.4c2.7-0.1,5.5-0.1,8.1-0.1c1.1,0,2.3,0,3.4,0c3.6,0,5.9-0.2,6.8-1.2
		c0.9-1,0.7-3.4,0.1-7.1c-0.2-1-0.4-1.3-0.5-1.3c-0.1,0-0.2,0-0.2,0c-2.3,0.4-3.8,0.1-4.9-0.8c-1.4-1.3-1.4-3.4-1.3-5.3
		c0-0.5,0-1.1,0-1.6c0-0.5,0-1,0-1.6c-0.1-2-0.1-4,0.1-6c0-0.3-0.1-0.7-0.1-1.2c-0.2-1-0.4-2.2,0.3-3c0.5-0.6,1.2-0.9,2.2-0.9l0.6,0
		c1.3-0.1,3.1-0.1,4.3,1c0.7,0.7,1.1,1.7,1,3.1c0,0.5,0,0.5,1,0.7l0.3,0c2.4,0.3,4.4,0.5,5-0.1c0.6-0.6,0.7-2.5,0.7-4.9
		c0-0.7,0-1.4,0-2.1c0-1.6-0.1-3.3,0.1-4.9c0.1-1,0-1.7-0.3-2c-0.3-0.3-1.1-0.5-2.4-0.4c-3.8,0.1-7.7,0.1-11.4,0.1
		c-1.6,0-3.1,0-4.7,0l-1-0.1c-0.6,0-1.2,0-1.8,0c-2,0-4-0.1-6,0.1c-1.3,0.1-2.8-0.1-4.2-0.2c-2.4-0.3-4.8-0.5-5.6,0.7
		c-1.2,1.6-0.9,4.7-0.6,7.6c0.1,1,0.2,2.1,0.2,3c0,0.4,0,0.9-0.1,1.4c-0.1,0.5-0.2,1.5,0,1.7c0.1,0.1,0.3,0.1,0.9,0.1
		c0.8-0.1,1.7,0.1,2.5,0.3c1,0.2,2,0.5,2.6,0.1c0.5-0.4,0.8-1.3,0.9-2.1c0.5-3.3,3.7-3.2,5.6-3.1l0.7,0c0.9,0,1.6,0.3,2.1,0.8
		c0.7,0.8,0.6,1.9,0.5,2.8c0,0.3-0.1,0.6-0.1,0.8c0,1.6,0,3.2,0,4.7c0,2.1,0,4.2,0.1,6.3c0.1,1.4,0,3.1-1.1,4.1
		c-0.8,0.8-2.1,1-3.8,0.7C318.5,86.6,318.3,86.5,318,86.5z"/>
</g>
<g>
	<path class="st9" d="M301.6,64.7c0,0.9,0,1.8,0,2.8c0,6.2-0.6,6.7-6.7,5.6c-1.2-0.2-1.8-0.7-2.2-1.8c-1.6-4.3-4.3-5.2-10.3-4.2
		c-4.1,0.7-4.6,3.4-4.3,6.7c0.1,1.2,0,2.5,0,3.7c0,7.6,3.2,10.2,10.6,8.6c1.8-0.4,3.7-1,3.9-3.3c0.5-5.4,4.6-2.5,7.1-2.9
		c3.2-0.5,2,2.5,2.1,3.9c0.5,9.9-1.9,12.5-11.8,13.3c-2.7,0.2-5.5,0.3-8.2,0c-8.9-1.1-12.9-4.4-12.4-13.5c0.4-6.4,0-12.9,0.1-19.3
		c0.1-5.4,2.3-7.9,7.6-8.5c4.3-0.5,8.8-1.1,12.6,1.2c3,1.8,3.8-1.6,6.2-1.5c5.9,0.4,6,0,6,5.8C301.6,62.6,301.6,63.6,301.6,64.7z"/>
	<path class="st7" d="M285.4,98.5c-1.3,0-2.6-0.1-3.9-0.2c-9.9-1.3-13.8-5.5-13.2-14.5c0.2-3.9,0.2-7.9,0.1-11.8c0-2.5-0.1-5,0-7.5
		c0.1-5.9,2.6-8.7,8.4-9.4c4.3-0.5,9.1-1.1,13.2,1.3c1.2,0.7,1.7,0.4,2.7-0.4c0.8-0.6,1.7-1.3,3.1-1.2l1.1,0.1
		c5.4,0.3,5.7,0.8,5.7,6.7v6c0,3.1-0.1,5.2-1.4,6.3c-1.3,1.1-3.4,0.8-6.5,0.3c-1.6-0.3-2.4-0.9-3-2.4c-1.4-3.7-3.6-4.5-9.3-3.6
		c-3.3,0.6-3.8,2.4-3.6,5.7c0.1,0.9,0,1.7,0,2.6c0,0.4,0,0.8,0,1.2c0,3.5,0.7,5.8,2.2,7c1.5,1.2,3.8,1.4,7.2,0.7
		c2.2-0.5,3-1.1,3.2-2.4c0.2-1.7,0.7-2.9,1.6-3.5c1.3-1,2.9-0.7,4.3-0.4c0.8,0.1,1.5,0.3,2,0.2c1.2-0.2,2,0,2.6,0.6
		c0.9,0.9,0.7,2.2,0.6,3.3c0,0.3-0.1,0.7-0.1,1c0.5,10.4-2.3,13.5-12.7,14.3C288.5,98.4,287,98.5,285.4,98.5z M282.6,56.4
		c-1.8,0-3.7,0.2-5.6,0.5c-4.9,0.6-6.7,2.7-6.8,7.6c0,2.5,0,4.9,0,7.4c0.1,3.9,0.1,7.9-0.1,11.9c-0.5,8.1,2.5,11.4,11.6,12.5
		c2.8,0.4,5.8,0.2,8,0c9.4-0.8,11.4-3,11-12.3c0-0.4,0-0.8,0.1-1.3c0.1-0.6,0.2-1.5-0.1-1.7c-0.1-0.1-0.4-0.2-1-0.1
		c-0.8,0.1-1.8,0-2.6-0.2c-1.1-0.2-2.2-0.4-2.8,0c-0.4,0.3-0.7,1.1-0.8,2.2c-0.3,3.2-3.4,3.8-4.7,4.1c-4,0.8-6.9,0.5-8.8-1.1
		c-1.9-1.6-2.9-4.3-2.9-8.5c0-0.4,0-0.8,0-1.2c0-0.8,0-1.6,0-2.4c-0.2-3.4,0.2-6.9,5.1-7.7c5.5-1,9.4-0.5,11.4,4.8
		c0.3,0.8,0.6,1.1,1.5,1.2c2.3,0.4,4.3,0.7,4.9,0.1c0.6-0.5,0.7-2.1,0.7-4.8v-6c0-2.2,0-3.7-0.4-4.2c-0.3-0.4-1.6-0.5-3.6-0.6
		l-1.1-0.1c-0.6-0.1-1.1,0.3-1.8,0.8c-1.1,0.8-2.5,1.9-4.8,0.5C287,56.8,284.9,56.4,282.6,56.4z"/>
</g>
<g>
	<path class="st9" d="M434.3,64.1c-0.1-4.1-2.1-6.4-6-7.4c-5.5-1.4-11-0.5-16.5-1.1c-2.3,0-4.6-0.1-6.9,0c-10.4,0.3-8-1.7-8.3,9.4
		c0,1.1,0,2.4,1.6,2.1c5.2-1,4.8,2.4,4.7,5.7c-0.1,3.2-0.2,6.4,0,9.6c0.1,2.3-0.6,3.5-3.1,3.1c-2.7-0.4-3.5,0.9-3.2,3.4
		c0.2,1.8,0.1,3.7,0,5.5c-0.1,1.8,0.3,2.8,2.5,2.7c5.5-0.1,11-0.1,16.5,0.1c2.2,0.1,3-0.7,2.9-2.9c-0.2-1.7-0.2-3.4,0-5
		c0.2-2.5-0.6-3.7-3.3-3.5c-3.7,0.4-3.9-1.8-3.9-4.8c-0.1-3.9,2.8-2.5,4.4-2.9c1.4-0.3,3,0.2,4.5,0.2
		C433.3,78.7,434.7,77.2,434.3,64.1z M416.4,73.3c-1.8,0.1-3.8,0.4-3.9-2.5c-0.1-3,1.8-3,3.3-2.9c3.3,0.1,7.1,0.1,7.1,2.8
		C422.7,73.5,418.9,73.1,416.4,73.3z"/>
	<path class="st7" d="M415.8,98.3c-0.1,0-0.2,0-0.3,0c-5.6-0.2-11.2-0.2-16.5-0.1c-1.2,0-2.1-0.2-2.7-0.8c-0.8-0.8-0.8-1.9-0.7-2.9
		c0.1-1.9,0.2-3.6,0-5.4c-0.1-1.1-0.1-2.8,0.9-3.7c0.8-0.7,1.9-0.9,3.4-0.7c0.5,0.1,1.3,0.1,1.6-0.2c0.3-0.3,0.4-1,0.4-2
		c-0.1-2.9-0.1-5.9,0-9.7l0-0.6c0.1-1.6,0.1-3.3-0.6-4c-0.5-0.4-1.5-0.5-3-0.2c-0.8,0.2-1.4,0-1.9-0.4c-0.8-0.7-0.8-1.9-0.8-2.6
		c0.1-2.1,0-3.8,0-5.1c-0.1-2.4-0.1-3.6,0.7-4.4c0.8-0.8,2.1-0.8,4.6-0.8c1,0,2.3,0,3.9,0c1.6,0,3.1,0,4.6,0l2.3,0
		c2.1,0.2,4.3,0.2,6.3,0.2c3.4,0,6.9,0,10.4,0.9c4.5,1.1,6.6,3.8,6.8,8.3l0,0c0.2,6.8-0.1,10.6-2.3,12.8c-2.2,2.3-6,2.6-12.8,2.6
		c-0.6,0-1.3-0.1-1.9-0.2c-0.9-0.1-1.7-0.2-2.4-0.1c-0.5,0.1-1.1,0.1-1.7,0.1c-0.7,0-1.4,0-1.7,0.2c-0.2,0.2-0.4,0.8-0.3,1.6
		c0,1.7,0.1,3,0.7,3.5c0.4,0.3,1.1,0.5,2.2,0.3c1.6-0.2,2.7,0.1,3.4,0.9c0.8,0.8,1.1,2,0.9,3.6c-0.2,1.5-0.2,3.1,0,4.9
		c0.1,0.9,0.1,2.1-0.7,3C417.9,98.2,416.7,98.3,415.8,98.3z M405.4,96.3c3.4,0,6.8,0.1,10.2,0.2c0.9,0,1.4-0.1,1.6-0.3
		c0.3-0.3,0.3-1,0.2-1.5c-0.2-1.8-0.2-3.6,0-5.2c0.1-1.1,0-1.8-0.4-2.1c-0.4-0.4-1.2-0.4-1.9-0.3c-1.6,0.2-2.8-0.1-3.6-0.8
		c-1.3-1.1-1.3-3-1.4-4.9c0-1.4,0.3-2.3,0.9-3c0.9-0.9,2.1-0.8,3.1-0.8c0.4,0,0.9,0,1.2,0c1-0.3,2.1-0.1,3.1,0
		c0.6,0.1,1.1,0.2,1.7,0.2c6.1,0.1,9.7-0.2,11.4-2c1.7-1.7,1.9-5.4,1.7-11.5c-0.1-3.7-1.7-5.6-5.3-6.5c-3.2-0.8-6.5-0.8-9.9-0.8
		c-2.1,0-4.3,0-6.4-0.2l-2.2,0c-1.5,0-3,0-4.6,0c-1.6,0.1-2.9,0-4,0c-1.6,0-3,0-3.2,0.2c-0.2,0.3-0.2,1.5-0.2,3c0,1.3,0.1,3,0,5.1
		c0,0.2,0,1,0.1,1.1c0,0,0,0,0,0c0.1,0,0.1,0,0.3,0c2.1-0.4,3.6-0.2,4.6,0.7c1.4,1.2,1.4,3.4,1.3,5.5l0,0.6c-0.1,3.7-0.1,6.8,0,9.6
		c0.1,1,0,2.6-1,3.5c-0.7,0.7-1.8,0.9-3.2,0.6c-0.6-0.1-1.4-0.1-1.8,0.2c-0.3,0.3-0.4,1.1-0.3,2.2c0.2,1.9,0.1,3.7,0,5.7
		c0,0.8,0,1.3,0.2,1.5c0.2,0.2,0.6,0.3,1.3,0.3C401.1,96.3,403.3,96.3,405.4,96.3z M415.2,74.3c-0.9,0-1.9-0.1-2.6-0.8
		c-0.6-0.6-1-1.5-1-2.6c0-1.4,0.3-2.4,1-3.1c0.9-0.9,2.3-0.9,3.3-0.8c3.3,0.1,8,0.1,7.9,3.7c0,3.3-3.7,3.4-6.2,3.5
		c-0.4,0-0.8,0-1.1,0l-0.3,0C415.9,74.2,415.5,74.3,415.2,74.3z M414.9,68.8c-0.5,0-0.9,0.1-1.1,0.3c-0.4,0.3-0.4,1.1-0.4,1.6
		c0,0.6,0.2,1,0.4,1.3c0.4,0.4,1.4,0.3,2.3,0.3l0.3,0c0.4,0,0.8,0,1.2,0c2.9-0.1,4.3-0.3,4.3-1.6c0-1.6-2.6-1.8-6.1-1.8
		C415.5,68.9,415.2,68.8,414.9,68.8z"/>
</g>
<g>
	<path class="st9" d="M216.2,64.4c0.2-4.3-1.8-6.7-6.1-7.7c-5.3-1.3-10.7-0.5-16-1h-8.3c-7.4,0-9.2,2.4-7.4,9.8
		c0.3,1.1,0.7,1.8,1.7,1.6c5.5-1.1,4.5,2.7,4.5,5.8c0,3.2-0.1,6.4,0.1,9.7c0.1,2.3-0.5,3.4-3,3.1c-1.1-0.1-2.9-0.5-3.1,1.1
		c-0.3,3.2-0.8,6.6,0.1,9.5c0.7,2.2,3.8,0.8,5.8,0.9c2.7,0.2,5.5,0.1,8.3,0.1c7.5,0,7.4,0,7.4-7.5c0-2.2,0.3-4.3-3.2-3.8
		c-3.5,0.5-3.6-1.9-3.7-4.6c-0.1-3.3,2-2.7,3.9-2.8c2.8,0,5.5,0.2,8.3,0c9.5-0.6,10.5-1.8,10.5-11.4
		C216.2,66.3,216.2,65.4,216.2,64.4z M200.7,73.2c-2.9,0-5.1,0.5-5-2.7c0-2.1,1.2-2.8,2.9-2.4c2.3,0.6,6.3-0.2,6.5,2.7
		C205.3,73.5,201.8,73.1,200.7,73.2z"/>
	<path class="st7" d="M180.9,98.5c-1.3,0-2.5-0.4-3-1.9c-0.8-2.8-0.6-5.9-0.3-8.8l0.1-1.1c0.1-0.8,0.5-1.3,0.8-1.6
		c0.9-0.7,2.1-0.5,3.1-0.4l0.3,0c0.6,0.1,1.3,0.1,1.6-0.2c0.3-0.3,0.4-0.9,0.3-1.9c-0.1-2.2-0.1-4.4-0.1-6.5c0-1.1,0-2.1,0-3.2
		c0-0.4,0-0.9,0-1.3c0.1-1.4,0.1-2.9-0.5-3.4c-0.5-0.4-1.5-0.5-2.9-0.2c-1,0.2-2.3,0-2.9-2.3c-1-4.3-0.9-6.9,0.5-8.6
		c1.3-1.7,3.7-2.4,7.8-2.4h8.3c2.1,0.2,4.2,0.2,6.2,0.2c3.3,0,6.7,0,10.1,0.8c4.8,1.1,7,4,6.8,8.7c0,0.6,0,1.2,0,1.8l0,0.9
		c0,10.1-1.4,11.6-11.4,12.3c-2,0.1-3.9,0.1-5.8,0.1c-0.9,0-1.8,0-2.6,0c-0.2,0-0.5,0-0.7,0c-0.8,0-1.5-0.1-1.8,0.2
		c-0.2,0.2-0.3,0.8-0.3,1.6c0,1.3,0.1,2.9,0.7,3.4c0.4,0.3,1,0.4,1.9,0.3c1.5-0.2,2.5,0,3.2,0.6c1,0.9,1,2.3,1,3.6v0.5
		c0,4.1,0,6.1-1.2,7.3c-1.2,1.2-3.2,1.2-7.2,1.2c-0.8,0-1.6,0-2.4,0c-1.9,0-3.9,0.1-5.9-0.1c-0.5,0-1.2,0.1-1.9,0.1
		C182.2,98.4,181.5,98.5,180.9,98.5z M180.3,86.5c-0.3,0-0.5,0-0.6,0.1c-0.1,0-0.1,0.2-0.1,0.3l-0.1,1.1c-0.3,2.8-0.5,5.7,0.2,8.1
		c0.2,0.6,0.7,0.7,2.7,0.4c0.8-0.1,1.6-0.2,2.3-0.2c1.9,0.1,3.8,0.1,5.7,0.1c0.8,0,1.6,0,2.5,0c3.2,0,5.2,0,5.8-0.6
		c0.6-0.6,0.6-2.6,0.6-5.8v-0.6c0-0.9,0-1.9-0.4-2.2c-0.3-0.2-0.9-0.3-1.7-0.2c-1.5,0.2-2.6,0-3.4-0.7c-1.3-1.1-1.3-3.1-1.4-4.8
		c0-1.4,0.3-2.3,0.9-3c0.9-0.9,2.1-0.8,3.2-0.8c0.2,0,0.5,0,0.8,0c0,0,0,0,0,0c0.9,0,1.7,0,2.6,0c1.9,0,3.8,0.1,5.6-0.1
		c9-0.6,9.7-1.3,9.7-10.4l0-0.9c0-0.6,0-1.3,0-1.9v0c0.2-3.8-1.4-5.8-5.4-6.8c-3.2-0.7-6.5-0.8-9.6-0.8c-2,0-4.2,0-6.2-0.2l-8.2,0
		c-3.4,0-5.4,0.5-6.3,1.7c-0.9,1.2-1,3.4-0.1,7c0.2,1,0.4,0.9,0.6,0.9c2.1-0.4,3.5-0.2,4.5,0.6c1.3,1.1,1.3,3.2,1.2,4.9
		c0,0.4,0,0.8,0,1.2c0,1.1,0,2.2,0,3.2c0,2.1-0.1,4.3,0.1,6.4c0.1,1.1,0,2.5-0.9,3.4c-0.7,0.7-1.7,0.9-3.1,0.7l-0.3,0
		C181.1,86.6,180.7,86.5,180.3,86.5z M198.7,74.1c-1.3,0-2.3-0.1-3.1-0.9c-0.6-0.6-0.9-1.5-0.9-2.8c0-1.7,0.7-2.5,1.2-2.9
		c0.5-0.4,1.4-0.8,2.8-0.4c0.6,0.2,1.3,0.2,2.1,0.3c2,0.2,4.9,0.4,5.1,3.2c0.1,0.9-0.1,1.6-0.7,2.2c-1,1.1-2.9,1.1-4.1,1.2
		c-0.2,0-0.4,0-0.6,0l-0.1,0c-0.4,0-0.8,0-1.1,0C199.2,74.1,199,74.1,198.7,74.1z M197.6,68.9c-0.2,0-0.4,0-0.5,0.1
		c-0.3,0.2-0.4,0.7-0.5,1.4c0,0.5,0,1.1,0.3,1.4c0.4,0.4,1.4,0.4,2.6,0.3c0.4,0,0.7,0,1.1,0c0.2,0,0.4,0,0.6,0c0.8,0,2.2,0,2.7-0.5
		c0.1-0.1,0.2-0.2,0.2-0.8c-0.1-1.1-0.9-1.3-3.4-1.5c-0.8-0.1-1.7-0.1-2.5-0.3C198.1,69,197.8,68.9,197.6,68.9z"/>
</g>
<g>
	<path class="st9" d="M390,66.2c-0.1-5.5-1.7-7.8-7.1-9.2c-7.3-2-14.6-1.7-21.8,0.1c-4.3,1.1-6.7,4-6.6,8.7c0.1,3.7,0,7.4,0,11.1
		v10.1c0,5.5,1.6,7.8,6.9,9.3c7.1,2,14.3,1.8,21.4,0.2c5.3-1.2,7.2-3.6,7.2-9C390.1,80.3,390.1,73.2,390,66.2z M372.3,84.1
		c-6.6,0-6.8-0.6-7-10.1c-0.1-5.4,3.3-4.4,6.4-4.4c7.4,0,7.4,0,7.4,7.2C379.1,84.1,379.1,84.1,372.3,84.1z"/>
	<path class="st7" d="M372.1,98.6c-3.8,0-7.4-0.5-10.9-1.5c-5.6-1.6-7.6-4.1-7.6-10.2V76.8c0-1.2,0-2.5,0-3.7c0-2.4,0-4.9,0-7.4
		c-0.1-5,2.4-8.3,7.3-9.6c7.7-2,15.3-2,22.3-0.1c5.7,1.5,7.7,4.2,7.8,10.2v0c0.1,8.2,0.1,15,0,21.2c-0.1,5.9-2.2,8.6-8,10
		C379.3,98.2,375.6,98.6,372.1,98.6z M372.6,56.5c-3.7,0-7.4,0.5-11.2,1.5c-4,1-6,3.6-5.9,7.7c0.1,2.5,0,4.9,0,7.4
		c0,1.2,0,2.4,0,3.7v10.1c0,5.2,1.4,7.1,6.2,8.4c6.5,1.8,13.6,1.9,20.9,0.1c4.9-1.1,6.4-3.1,6.5-8.1c0.1-6.2,0.1-12.9,0-21.1
		c-0.1-5.1-1.5-7-6.4-8.3C379.4,56.9,376,56.5,372.6,56.5z M372,85c-7.1,0-7.4-1.4-7.6-11c0-2,0.4-3.4,1.3-4.3
		c1.3-1.2,3.1-1.2,4.8-1.1c0.4,0,0.8,0,1.2,0c4,0,5.9,0,7.1,1.2c1.2,1.2,1.2,3.1,1.2,7c0,7.8-0.4,8.3-7.7,8.3
		C372.2,85,372.1,85,372,85z M369.3,70.5c-1,0-1.8,0.1-2.3,0.6c-0.5,0.5-0.7,1.5-0.7,2.9c0.2,9.2,0.2,9.2,6.1,9.2h0
		c2.9,0,4.6,0,5.2-0.6c0.6-0.6,0.6-2.6,0.6-5.8c0-3.1,0-5-0.6-5.6c-0.6-0.6-2.6-0.6-5.8-0.6c-0.4,0-0.9,0-1.3,0
		C370,70.5,369.7,70.5,369.3,70.5z"/>
</g>
</svg>
