<svg id="Шар_1" data-name="Шар 1" xmlns="http://www.w3.org/2000/svg" viewBox="0 0 480 353.9"><defs><style>.cls-1{fill:#fefefe;}.cls-2{fill:#b86b19;}.cls-3{fill:#ab200c;}.cls-4{fill:#3e7834;}.cls-5{fill:#aa200c;}.cls-6{fill:#060308;}.cls-7{fill:#070409;}.cls-8{fill:#d8da49;}.cls-9{fill:#ab200d;}.cls-10{fill:#09050a;}.cls-11{fill:#09060b;}.cls-12{fill:#08050a;}.cls-13{fill:#ab220e;}.cls-14{fill:#f6e82c;}.cls-15{fill:#b4691b;}.cls-16{fill:#d8d44c;}.cls-17{fill:#437b39;}.cls-18{fill:#0a070c;}.cls-19{fill:#ac2411;}.cls-20{fill:#ab230f;}.cls-21{fill:#ac2410;}.cls-22{fill:#f5e52e;}.cls-23{fill:#0d0a0f;}.cls-24{fill:#0e0b10;}.cls-25{fill:#f4e32c;}.cls-26{fill:#d7cf4c;}.cls-27{fill:#f5e430;}.cls-28{fill:#ebd92f;}.cls-29{fill:#19161b;}.cls-30{fill:#eee;}.cls-31{fill:#161317;}.cls-32{fill:#f7ea2a;}.cls-33{fill:#f4e233;}.cls-34{fill:#1b181d;}.cls-35{fill:#f3de2f;}.cls-36{fill:#efd534;}.cls-37{fill:#373539;}.cls-38{fill:#eff4ef;}.cls-39{fill:#d9dcd9;}.cls-40{fill:#232025;}.cls-41{fill:#fcfcfc;}.cls-42{fill:#644435;}.cls-43{fill:#f3e4d6;}.cls-44{fill:#fdfdfd;}.cls-45{fill:#fdfdfc;}.cls-46{fill:#533c35;}.cls-47{fill:#ecd5be;}.cls-48{fill:#cb8d4e;}.cls-49{fill:#eaf0e9;}.cls-50{fill:#ecf1eb;}.cls-51{fill:#d2dfd0;}.cls-52{fill:#cadac7;}.cls-53{fill:#f9f5cd;}.cls-54{fill:#ab110d;}.cls-55{fill:#614439;}.cls-56{fill:#0b080e;}.cls-57{fill:#fbf6f5;}.cls-58{fill:#f3df2d;}.cls-59{fill:#e6b723;}.cls-60{fill:#f3de28;}.cls-61{fill:#f4e028;}.cls-62{fill:#f2dc28;}.cls-63{fill:#efd426;}.cls-64{fill:#ca7117;}</style></defs><title>kalyna logo</title><path class="cls-1" d="M480,4c0-3.38-.65-4-4-4Q240,.16,4,0C.65,0,0,.65,0,4Q.16,177,0,349.87c0,3.36.65,4,4,4q118-.18,236-.09t236,.09c3.38,0,4-.67,4-4Q479.84,177,480,4ZM131.29,289.94c-1.52,1.22-3.36.84-5,.68s-.94-1.19-.18-1.95c2.66-9.09,4.85-18.26,5-27.82,0-2.19-.17-4.23-2-5.77-2.25.11-4.49.21-6.74.3a3.53,3.53,0,0,1-3.88.3c1.16-.46,2-.79,2.86-1.11s2-.68,2.94-1c1.73-.91,3.76-1.69,3-4.31s-2.89-2.86-5.11-2.85c-5.84,0-11.17,2.33-16.68,3.85-6.36,1.73-12.59,4.14-20.3,4.37,4.57-4.75,8.84-8.54,11.78-13.42.81-1.34,1.72-1.16,2.78-.26,4.87,4.15,10.68,3.47,16.39,3.06,3.76-.27,7.5-.81,11.28-.38,9.07,1,13.86,5.86,14.53,15,.26,3.42-.17,6.92.21,10.32.85,7.46-1.42,16,8.64,21.28C143.1,291.23,137.19,289.45,131.29,289.94Zm340,53.49a49.93,49.93,0,0,1-28,9.3c-13.91.43-27.88.9-41.36-3.88-26.71-9.45-43.94-27.55-49.26-55.61-2.18-11.41,1.61-22.45,6.68-32.7,10-20.21,24.64-35.81,45.73-44.74-1.08-1.43-2.77-.41-4-1-11.25.68-21.79,4.4-32.46,7.52-4.37,1.26-8.66,2.85-13.62,3.29,3.3-5.39,8-9.15,11.76-13.61,2.33-2.75,4.82-5.37,6.51-8.61,1-1.83,2.92-2.6,3.84-.85,4,7.67,11.49,7.5,18.29,8.31,13,1.52,25.86-.06,38.76-1.32,5.6-.55,11.25-1.73,17.11-.53a5.19,5.19,0,0,1-4.15,3c-3.91.79-5.68,3.5-5.42,7.09,1.38,19-.52,38,1.31,57,.52,5.48.87,10.88,7,14.23-12.62-2.72-24.55-.55-36.34,1.72-.81-1.69.29-2.21,1.11-2.4,5.4-1.32,6.77-5.34,7.52-10.23,1.31-8.6,2.21-17.21,2.89-25.89.37-4.92-2.15-6.47-6.13-7a55.66,55.66,0,0,0-25.23,2.39c-1.7.58-3.33,1.34-5,1.93-12.39,4.23-17.88,13-19.88,25.9-4.67,30.24,9.74,57.75,37.68,68.73a63.65,63.65,0,0,0,47.12.32c13.1-5,16.76-17.79,8.32-27.56-6.67-7.69-21.38-9-29.23-2.56-3,2.43-4.85,5.49-3.9,9.47a12.31,12.31,0,0,0,7.88,8.81,4.13,4.13,0,0,0,5.46-2.05c1.17-2.19-.59-3.24-2-4.35-.62-.49-1.17-1.07-1.77-1.61a6.78,6.78,0,0,1,5-3c3-.37,5.07,1,6.39,3.62s0,4.41-1.89,6c-7.5,6.36-25.46,4.64-31.75-3-3.45-4.22-2.42-9.42,3.07-13.5,9.66-7.17,20.68-8.78,32.26-7a40.13,40.13,0,0,1,20.83,9.31C481.48,326.3,481.19,336.26,471.25,343.43Z"/><path class="cls-2" d="M273.81,137.67c-2-2.73-.7-4.39,1.74-5.92,2.61-1.64,5.58-1.74,8.43-2.36,2.09-.45,4.44-.63,5.71-2.45,2.94-4.23,6.73-4,10.88-2.57a1.75,1.75,0,0,0,2.63-.2c3.59-5.23,10.42-5.33,14.74-9.41a2.53,2.53,0,0,1,3.93.09,3.79,3.79,0,0,1,.41,4.57c-1.22,2.28-3.69,3.2-5.4,4.94-.09.41.05.46.48.29,2-.82,4.31-3.54,6-.95,1.86,2.87-1.46,4.31-3.41,5.47-8.72,5.19-17.43,10.52-29.18,11.27,4.66-.21,8-1.33,11.37-1.67,8.34-.85,14.37-6,20.59-10.79,1.88-1.46,1.41-3.43,1.32-5.41-.14-3.19-1.18-6.65,2.08-9.09s5-6.83,10-6a20.9,20.9,0,0,1,14.49,9.1c4.7,6.8,5.86,14.34,5.54,22.39a108.92,108.92,0,0,1-2.36,18.87l.07,0c-.66.46-1.5.87-1.34,1.85.94,5.53-3.19,7.75-6.75,10.29-2,1.43-3.83.9-4.91-1.2-1.85-3.6-4.36-6.94-4.82-11.15a3.73,3.73,0,0,1,.67-2c6.49-2.57,8.38-7.58,8-14.19a48,48,0,0,0-1.92-12.09c-1.19-3.74-4-5.94-7.23-7.65-1.68-.87-2,0-1.74,1.53a31.36,31.36,0,0,0,2.24,5.32c.93,2.2,1.32,4.46-.52,6.28s-4.25,2-6.48.26c-.74-2,1.54-2.22,2.08-3.48.48-.45-.32-.53-.32-.21,0,1.36-1.59,1.4-2.29,2.25a6.54,6.54,0,0,0-1.75,3.49c-.39,3.78,1.08,7.08,2.64,10.33,3,6.2,6.19,12.29,9.18,18.49,2.37,4.92,4.09,10,3.63,15.61a10.46,10.46,0,0,1-.94,4.28c-.77,1.41-1.86,2.45-3.55,1.83s-1.45-2.07-1.15-3.36c.85-3.68,1.61-7.32-1.09-11.62.06,5.48-.86,10.1-.66,14.74.12,2.85-.66,4.82-3.23,6-16.3,7.19-32.18,15.47-50.85,15.18-6.63-.1-13.31.94-20,.21-2-.74-3.77-2.28-6.1-2.14-7.6-2.09-9.48-4.76-7.81-12.43,2.21-10.17,2.4-20.49,3-30.79.13-2-.19-4.22,2.18-6,2.21,5.38,2.33,10.69,2.53,16,.28,7.36-.71,14.78,1,22.08.61,2.6,1.33,5.09,4.07,6.55-4.66-5.08-4.44-11.61-4.48-17.56-.09-13.2-2.18-26.05-4.57-38.93a12.5,12.5,0,0,1-.31-3.42c.15-1.62.87-2.87,2.6-3.11,2-.28,1.9,1.4,2,2.61a9.29,9.29,0,0,0,1.7,4c.5,3.42,1.23,6.65,4.61,8.62a5.25,5.25,0,0,1,2.21,4.22c1.05,10.85,4.61,21.4,4,32.45a65.46,65.46,0,0,0-.32-11.63c-.56-3.87-1.69-7.66-1.53-11.63.27-2.5-.4-5.12.9-7.49,1.72-.36,1.89-1.88,2.33-3.17a22.59,22.59,0,0,1,4.94-8.23C278,144.3,277.95,142.5,273.81,137.67Z"/><path class="cls-3" d="M471.25,343.43a49.93,49.93,0,0,1-28,9.3c-13.91.43-27.88.9-41.36-3.88-26.71-9.45-43.94-27.55-49.26-55.61-2.18-11.41,1.61-22.45,6.68-32.7,10-20.21,24.64-35.81,45.73-44.74-1.08-1.43-2.77-.41-4-1-11.25.68-21.79,4.4-32.46,7.52-4.37,1.26-8.66,2.85-13.62,3.29,3.3-5.39,8-9.15,11.76-13.61,2.33-2.75,4.82-5.37,6.51-8.61,1-1.83,2.92-2.6,3.84-.85,4,7.67,11.49,7.5,18.29,8.31,13,1.52,25.86-.06,38.76-1.32,5.6-.55,11.25-1.73,17.11-.53a5.19,5.19,0,0,1-4.15,3c-3.91.79-5.68,3.5-5.42,7.09,1.38,19-.52,38,1.31,57,.52,5.48.87,10.88,7,14.23-12.62-2.72-24.55-.55-36.34,1.72-.81-1.69.29-2.21,1.11-2.4,5.4-1.32,6.77-5.34,7.52-10.23,1.31-8.6,2.21-17.21,2.89-25.89.37-4.92-2.15-6.47-6.13-7a55.66,55.66,0,0,0-25.23,2.39c-1.7.58-3.33,1.34-5,1.93-12.39,4.23-17.88,13-19.88,25.9-4.67,30.24,9.74,57.75,37.68,68.73a63.65,63.65,0,0,0,47.12.32c13.1-5,16.76-17.79,8.32-27.56-6.67-7.69-21.38-9-29.23-2.56-3,2.43-4.85,5.49-3.9,9.47a12.31,12.31,0,0,0,7.88,8.81,4.13,4.13,0,0,0,5.46-2.05c1.17-2.19-.59-3.24-2-4.35-.62-.49-1.17-1.07-1.77-1.61a6.78,6.78,0,0,1,5-3c3-.37,5.07,1,6.39,3.62s0,4.41-1.89,6c-7.5,6.36-25.46,4.64-31.75-3-3.45-4.22-2.42-9.42,3.07-13.5,9.66-7.17,20.68-8.78,32.26-7a40.13,40.13,0,0,1,20.83,9.31C481.48,326.3,481.19,336.26,471.25,343.43Z"/><path class="cls-2" d="M169,73.43c4.52-.83,8.55-.77,11.55,3.75,1.82,2.74,5.49,2.43,8.38,3.32,2.17.67,4.44,1.12,6.19,2.62s2.23,3.15.1,4.78c-4.56,5.25-4.79,7.18-.48,12,2.91,3.25,3.66,7.72,7,10.81,1.83,1.69-.73,5,.8,7.44,1.57,1.6,1.57,3.48,1,5.47a120.46,120.46,0,0,0-3.17,20.76c-.21,2.35-1,3.77-3.45,4.65-4.09,1.48-7.87,4.12-12.54,1.92a5.6,5.6,0,0,0,2.14,1c1.85.85,4.09.27,5.79,1.62,1,1.68.37,3.08-.72,4.41a4.64,4.64,0,0,1-2.12.91,63.88,63.88,0,0,1-21.85-2.67c-11.9-3.36-22.5-9.77-33.5-15.21-2.83-1.4-3.8-3.4-3.27-6.79.73-4.65-.46-9.46.49-14.2a10.59,10.59,0,0,0-2.06,10.15c.53,1.88,1.26,4.4-1.41,4.88s-3.68-2-3.93-4.15c-.6-5.18.81-10.07,2.9-15.24-2.78,3.22-5.17,1.64-7.46-.2A10.91,10.91,0,0,1,115,108c-.17-1.58.59-3.3-.84-4.66-1.42-12.24-3-24.48,3.12-36.07a27.6,27.6,0,0,1,8.05-9.18c6.77-5.05,12.28-4,19.53,3.36,2.82,2.32,2.24,5.35,1.32,8.14-1.25,3.75.33,6,3,8.42,7.11,6.61,15.66,9.92,24.92,11.87a23.89,23.89,0,0,0,2.25.82c.65.09,1.13.14.48.07s.43-.19-.29-.12c-10-2.34-18.33-7.71-26.49-13.47a18.69,18.69,0,0,1-2-1.46c-1-.9-2.07-1.89-1.3-3.33s2.18-1.13,3.46-.68c.92.33,1.68,1,3.26,1.55-1.7-2.36-3.7-3.75-4.91-5.76-1-1.66-1.48-3.35.28-4.83s3.17-.45,4.31.74c4.09,4.23,10.83,4.74,14.12,10.11A1.1,1.1,0,0,0,169,73.43Z"/><path class="cls-4" d="M119,135.33c-1.33,1.8-2.81,3.3-2.84,6,0,3.43-2.51,5.7-5.8,6.48a19.4,19.4,0,0,0-8.7,4.32c-3.57,3.2-8.19,1.59-11.52.9-3.84-.79-8,0-11.9-2.44-3-1.91-3.28,4.31-6.87,4.12,6,3.38,9,8.67,11.23,14.19,2.35,5.95,1.59,12.22-.81,18.19-.72,1.78-1.61,3.31-3,.44-.39-.81-.66-1.44-1.72-1.21-4.24.92-5.92-1.89-7.28-5.14-3.51,4.18-4.4,4.33-23.57,3.92,4.06-2.71.78-6.47,2.29-9.62.52-1.08-1.25-1-2.1-.51-6.15,3.58-13.27,1.22-19.7,3.21A3,3,0,0,1,23,176.45c-.66-1.8.93-2.55,2.19-3.31l3-1.78c-6.56-3.53-6.09-6.49,2.38-15.31-3.83-1.26-8.18-1.6-9.54-6.44-.38-1.34-2.38-.81-3.47-1.49-1.69-1-6.07-1.32-1.14-4.35,1.55-1,.14-2.64-.5-3.9-.86-1.7-2.05-2.73-2-5.38a8.51,8.51,0,0,0-8-8.64c2.4-1.73,4.38-1.25,6.38-1.27,2.8,0,6.48,2.64,7.83-2.71.33-1.31,3.32-.64,5.08-.42,2.22.28,4,.11,4.23-2.65.35-3.7,3-3.74,4.67-1.81,2.43,2.74,5.88,1.86,8.38,3.46s4.69,4,7.64,5.89c-2.23-6.15,2-11.35,1.75-17.12A2.42,2.42,0,0,1,53,106.68c1.19-.56,2,.1,3.06.75,3.14,1.93,5.62,5.24,9.88,5A1.7,1.7,0,0,1,67.61,114c.68,5.08,6.36,5.55,8.49,9.35,1,1.86,2.15.11,2.18-.81.07-2.39-.75-3.7,3-5.17,3.11-1.2,8.45-4.86,8-11.36.71,6,7.18,5.54,9.25,9.64.07.14.18.38.28.38,3.29.19,6-.18,5.47,5.25-.26,2.9-.51,6.27-.53,9.66a28.94,28.94,0,0,1,14.51-5.71c1.26,1.25,1.6,2.91,2.06,4.53C120.54,131.78,121,133.85,119,135.33Z"/><path class="cls-5" d="M149,310.28A20.59,20.59,0,0,1,136.9,315c-17.52.92-34.72-.73-50.93-8.13-14.88-6.79-24-19.49-32.63-32.53-5.15-7.78-9.08-16.39-15.58-23.21-1.68-1.76-2.9-5.35-6.43-3.86s-6.12,3.72-5.9,8.48c.3,6.52-.57,13.09-.44,19.64.09,4.71.32,9.71,5.68,12.12.75.34,1.56.82,1.38,1.79a2,2,0,0,1-2.2,1.52q-13.54,0-27.08-.11c-.86,0-1.6-.12-1.67-1.25-.08-1.4.13-2.87,1.36-3.49,5-2.5,5.3-7.16,5.66-11.75,1.25-16.2,1.84-32.42,0-48.62-.46-4-1.46-7.72-5.14-10.14a3.52,3.52,0,0,1-1.69-3.84c.56-1.94,2.46-1.15,3.8-1.18,7.05-.17,14.1-.29,21.15-.3a17.74,17.74,0,0,1,4.82.76c1.72.49,2.19,1.74.47,2.69-4.63,2.55-5.88,7-6.33,11.59a77.9,77.9,0,0,0,.76,21.28c4.48-2.22,7.47-5.71,10.36-9.15,4.82-5.74,10.36-11,13.22-18.21.9-2.28-.34-5.71,1.82-6.72,2.33-1.09,5.46-.63,8.23-.6a62.2,62.2,0,0,0,13.18-1.41c.79-.16,1.74-.51,2.24.3.61,1,0,1.84-.82,2.52C64.7,221.33,56.49,230.86,46,237.75c-1.58,1-3.19,1.73-1.19,3.95C52.33,250,57.41,260,63.34,269.46c16.34,25.91,40.81,37.8,70.39,40.76C138.66,310.71,143.68,310.28,149,310.28Z"/><path class="cls-5" d="M172.23,246.49c-.51,0-1.11,0-1.69-.14-1.49-.26-3.86,1.19-3.72-2.17.12-3,2.07-2.71,4.07-2.7,6.23,0,12.47.08,18.7,0,4.9-.07,9.84.53,14.69-.84.83-.23,2.08-.77,2.55.48.4,1.08.37,2.43-.93,3-4.52,1.93-4.61,6-4.8,9.92-.36,7.53-.8,15.06-.72,22.59,0,4.32.08,9,4.67,11.74a1.75,1.75,0,0,1,.91,2.08c-.33,1-1.29.93-2.08.8-6.56-1.09-13.07-.08-19.61.33-1.19.08-2.95.71-3.45-.93-.45-1.46.89-2.28,2.13-2.87,5.23-2.5,6.36-6.85,6.06-12.25-.45-8.18-.6-16.38-.54-24.56,0-3.57-1.47-4.19-4.42-3.44a21.72,21.72,0,0,0-9.77,5.41,36.72,36.72,0,0,0-8.14,41.62c1.63,3.63,3.61,6.36,8.48,3.46,0,2.71.08,4.84,0,7-.31,7.19-6.58,10.71-12.83,7S153,302,152.92,295.3c-.32-17.94,5.35-33.75,18.29-46.59C171.76,248.16,172.63,247.78,172.23,246.49Z"/><path class="cls-5" d="M244.35,249c-9.95-.86-18.62,4-29.12,5.84,4-4.47,6.17-8.62,8.5-12.7,1.29-2.26,3-3.28,5-1.08,4.08,4.53,9.43,3.94,14.59,3.81,3.92-.1,7.82-.85,11.73-1.24.71-.07,1.73-.37,2.05.73a1.77,1.77,0,0,1-.91,2.08c-2.08,1.31-4.13,2.66-6.28,3.85-5.59,3.1-11.33,5.95-16.14,10.25-5.86,5.24-8.26,13-5.75,18.53,2.29,5,10.79,9.24,16.67,8.28,8.63-1.4,15.15-7.2,15.5-14.71.38-8.34.23-16.71-.09-25.06-.13-3.6,1.18-5.06,4.38-4,5.14,1.64,10.21,0,15.15-.58.39,1.85-.38,2.37-1.09,2.58-6.37,1.89-7.93,6.58-7.7,12.57.25,6.56.1,13.13.4,19.68.25,5.28.11,11,8,11.58-.92.86-1.12,1.23-1.33,1.23-6.72,0-13.45,0-20.34,0-.28-2.9,4.3-4,2.6-7.39-1.23-.78-2,.49-2.75,1.08-10.16,7.76-21.79,8.73-33.7,6.49-11.12-2.1-15-12.56-8.58-21.83,4-5.82,9.92-9.47,15.95-12.85C235.5,253.68,239.95,251.38,244.35,249Z"/><path class="cls-4" d="M373.47,110.52c-5.52,4.68-8.52-1.59-11.39-3.61a32.54,32.54,0,0,1-12.45-17.56c-1.35-4.53-.41-9.09-.76-13.63-.11-1.42,1.63-2.46,2.2-1.61,2.36,3.48,5.24.91,7.81,1,3.21.14,4.42,3,7.18,4.62.63-5,6.46-5.35,8.09-9.6a1.36,1.36,0,0,1,1.26-.26c4.13,3.29,7.76-.91,11.69-.76,2.27.09,3.24-2.37,5.22-3.65-2.71,5.27,2.21,9.29,1.76,14.1-.1,1,.66,1.31,1.48,1.61,2.83,1,2.31,2.64.78,4.48-2.38,2.85-3.47,6.7-7.11,8.72,4.55,0,8.47,1.73,12.55,2.66,2.26.52,3,1.17,1,3.53-1.4,1.66-4.5,2.57-3.75,5.72-.92,1.17-2.45.37-3.52,1.09-1.91.59-3.93.26-5.86.64a3.36,3.36,0,0,1-1.39-.25c-1.12-1-1.08-2.49-1.85-3.63-1.52-1.37-2.06-4-4.86-3.64-1.63,1.43-3,3.13-4.71,4.44a4,4,0,0,0-2.26,3.34A3.17,3.17,0,0,1,373.47,110.52Z"/><path class="cls-5" d="M346.53,290.48a6.6,6.6,0,0,1-1.26.25c-6.56,0-13.12,0-20.5,0,4.84-5.43,3.24-11.57,3.6-17.41.15-2.38-.38-3.52-3.14-3.52-6.22,0-12.45-.25-18.66-.62-2.84-.17-3.22,1.08-3.06,3.48.47,6.87,1.78,13.36,7.69,17.9-1.75,2-3.69,1.37-5.27,1.08-6.33-1.17-12.66-1.82-19.06-.78-1.23.2-2.36.28-2.69-1.26-.38-1.74,1.08-1.81,2.12-2,4.12-.91,5.31-3.77,5.43-7.58.18-5.4.72-10.8.76-16.2,0-4.27-.41-8.55-3.73-11.87-2.13-2.13-1.12-3.41,1.29-4.19,5.61-1.8,10.47-4.62,13.61-9.85.41-.68,1-1.43,2-1.19,1.39.36.91,1.58.79,2.42Q305,248.59,303.49,258c-.65,4,.21,6,5,5.69a110.42,110.42,0,0,1,15.72.31c3.32.23,4.25-.93,4-4.11-.29-4.58-.18-9.18-.22-13.78,0-1.28-.23-3,1.8-2.65a45.34,45.34,0,0,0,17.5-.49c.37,1.66-.25,2.21-.78,2.34-7.49,1.82-8.12,7.59-8,13.77.14,6.56.16,13.12.57,19.66C339.44,283.77,339.28,289.39,346.53,290.48Z"/><path class="cls-6" d="M119,135.33l.15-6.13a3.12,3.12,0,0,1,.91-4l2.31-5.3c-9.74-4.06-11.88-7.61-8.8-14.4a3.35,3.35,0,0,1,1.75-1.94c1.1-1.21,2.41-1.21,1.54.59-2.11,4.37-.15,7.15,2.83,9.86,2.26,2.05,4.46,4.5,6.41-.31.37-.92,1.27-1.79,2.3-1,.88.68.5,1.8.06,2.71A32.79,32.79,0,0,0,125,127.63a17.82,17.82,0,0,0,.1,3.89c.23,1.52,1,3.24,2.73,2.75,1.84-.54.63-2.3.22-3.35-1.66-4.24-.18-8.06,1.36-11.88.49-1.22,1.23-2.63,2.81-2.19,1.85.52,1.2,2.39.76,3.31-2.53,5.31.89,11.07-1.42,16.39-.51,1.18.79,2.07,1.81,2.61,17.52,9.32,34.89,19.12,55.69,18.67,2.61,1,5.06-1,7.69-.36,2.34.57,5,.32,6.5,2.77-1.57.41-3.13.89-4.72,1.21-1.42.28-2.36.6-2.07,2.48,1,6.24-2.67,9.26-8,11-1,2-2.75,1.49-4.41,1.22a16.24,16.24,0,0,1-7.85-4.6,9.84,9.84,0,0,0-5.86-3.16c-2.7-.88-5-.09-7.2,1.55a27,27,0,0,1-8.41,4.61,11.27,11.27,0,0,1-5.73-.13c-2.21-.77-3.65-2.13-2.3-4.73a29,29,0,0,0,15.22-4c-3.92-1.17-7-2.12-10.09-3a51.88,51.88,0,0,1-19-10c-2.67-2.21-5.83-4.46-5.25-8.67.19-1.38-.9-1.11-1.38-1.43A26.37,26.37,0,0,1,119,135.33Z"/><path class="cls-6" d="M260.83,208.76c6.36-1.91,13-1.43,19.42-1.43,18.93,0,35.27-8,51.78-15.63,1-.47,2.4-1.06,2-2.44-1.82-5.64,1.74-11.32-.26-16.93-.34-.95-.51-2.09.67-2.52,1.4-.51,2.08.71,2.62,1.67a14.43,14.43,0,0,1,1.13,12.32c-.38,1.08-1.92,2.78-.26,3.39,2,.72,2.81-1.36,3-3A25.84,25.84,0,0,0,340,173c-2.25-7.44-6.4-14-9.8-20.89-2.31-4.69-5-9.28-4.83-14.78a5.55,5.55,0,0,1,.74-1.77c2.42.31,3,2.39,3.63,4.14,2.17,6.14,5,12,7.13,18.16,1,2.19,1.7,4.64,3.15,6.49s.51,6.55,4.7,4.87c6.07-2.44,7.79-6.37,5.83-11.21a6.43,6.43,0,0,1-.21-.83c1.42-1.09,2.37.46,3.56.59,2.5,8.19.93,11.91-6.78,14.39-2.57.83-2.55,1.91-1.88,3.83.32.92.65,1.85,1,2.78,2.58,7.92.82,12.42-6.43,16.27-1.49.79-2.54.9-2.47,3.61.09,3-3.56,5.21-6.26,7.1-9.37,6.53-20.15,9.18-31.17,11-8.41,1.38-16.93,2.44-25.4.94-2.88-.51-8.08.31-6.39-5.82.33-1.19-1.06-.95-1.67-1.19C264.58,209.93,262.69,209.38,260.83,208.76Z"/><path class="cls-3" d="M150.83,290.2c-7.73,1-13.64-.75-19.54-.26-1.52,1.22-3.36.84-5,.68s-.94-1.19-.18-1.95c2.66-9.09,4.85-18.26,5-27.82,0-2.19-.17-4.23-2-5.77-2.25.11-4.49.21-6.74.3a3.53,3.53,0,0,1-3.88.3c1.16-.46,2-.79,2.86-1.11s2-.68,2.94-1c1.73-.91,3.76-1.69,3-4.31s-2.89-2.86-5.11-2.85c-5.84,0-11.17,2.33-16.68,3.85-6.36,1.73-12.59,4.14-20.3,4.37,4.57-4.75,8.84-8.54,11.78-13.42.81-1.34,1.72-1.16,2.78-.26,4.87,4.15,10.68,3.47,16.39,3.06,3.76-.27,7.5-.81,11.28-.38,9.07,1,13.86,5.86,14.53,15,.26,3.42-.17,6.92.21,10.32C143,276.38,140.77,284.9,150.83,290.2Z"/><path class="cls-4" d="M376.48,104.48a14.61,14.61,0,0,1,5-4.91c2.07,1.31,3,3.79,5.27,5,.61,1,.41,2.08.66,3.1,2.08,1.38,4.08-.88,6.15-.12a3.44,3.44,0,0,1,2.61.88,8.61,8.61,0,0,0,5.2,3.49c6.22,1.29,2.47,4.53,1.77,7.24-1.68,6.45-7.09,6.47-13.54,6.39,3.73,3,6.1,5.39,7.21,9.15-5.77.92-11.75,2.71-16.44-1.17-7.09-5.87-10.05-13.68-6.92-23l.15-3.3A22.76,22.76,0,0,1,376.48,104.48Z"/><path class="cls-7" d="M255.91,146c-4.49-.72-1.74-4-2.08-6.23-3-.17-2.51,1.83-2.23,3.53.86,5.33,1.57,10.7,2.74,16,2.23,10,2,20.16,2.77,30.26.43,5.54,1,10.93,7.34,13.56-5,2.23-8.35.32-9.81-5.26-1.8-6.89-1.69-13.95-1.59-21,.09-6,.35-12-1.49-18-.29,5-.74,10.09-.84,15.15a117.36,117.36,0,0,1-2.53,20.92c-1.3,6.5-.56,7.54,5.76,10.09.82.33.63,1,.77,1.59-6.8,1.57-9.79-.65-10.11-7.71-.32-7.21.83-14.33,1.55-21.48a77.11,77.11,0,0,0-3-31c-.19-.6-3.77-4.3,1.58-3.81,1.32.12.47-2.3-.39-3.45a1,1,0,0,1-.09-1.51c-.61-1.51-1.59-3.5.18-4.35s2.14,1.42,2.68,2.65c.88,2,2.08.93,3.22.47a14,14,0,0,1,6.68-1.21c4.87.5,5.55,1.53,2.88,5.55-1.42,2.12-.26,2.71,1,3.87,2.63,2.4.48,2.34-1.34,2.37C258,147.94,257,146.81,255.91,146Z"/><path class="cls-8" d="M343.29,73.11c-4,3.73-8.35,3.47-12.52.62-2-1.34-3.17-1.82-5.57-.62-6.66,3.32-12.48.1-13.72-7.29-.75-4.45-5.71-5.28-7.48-9.09-.64-1.37-4.21.52-6.24,1.45-3.71,1.7-7.28,3.68-11.82,6,1.95-4.87,5.36-7.11,8.65-9.55,1.41-1,4.53-1.25,3.63-3.76-.81-2.24-2.2-4.82-5.77-4-1.31.29-2.85-.47-4.43-.79-.61,3.62-.32,7.32-2.83,11-.41-2.67-.7-4.78-1-6.88-.66-4-2.6-5.6-6.81-7.33-5.32-2.19-10.23-2.22-15.53-2.62-4.28-.32-7.34-5.32-6.17-9.57.73-2.65.19-4.08-1.75-5.9a7.79,7.79,0,0,1,2-13,7.26,7.26,0,0,0,4.37-4.69,9,9,0,0,1,13.56-4.74c2.41,1.62,4.22,2.24,7,.9,3.82-1.82,7.33-.73,9.91,2.78.16,1-.44,1.28-1.23,1.42-3.37-1-6.67-1.68-9.78.85-1.71,1.39-3.18.73-4.76-.65-5.69-4.95-9.21-4-11.21,2.95-.66,2.3-2.23,2.95-4,3.8-4.92,2.32-5.34,6.12-.85,9.28,2.38,1.67,3.62,3.14,1.92,6-1.19,2-1.36,4.09.43,5.88a5.13,5.13,0,0,0,6.37.95c3.38-1.91,5.87-2.85,8.21,1.63,1.35,2.59,4.49,2.1,7.17,1.37,2-.55,16,4.85,17,6.68A6.77,6.77,0,0,0,305.34,50c2.4.29,4,1.2,3.83,4a5.28,5.28,0,0,0,3.58,5.37c2.44,1,3.52,2.49,3.21,5.27-.36,3.23,1.28,5.35,4.6,5.85s5.24-1.16,6.17-4.26c.5-1.67.69-3.9,3.17-3.66s2.2,2.44,2.48,4.18c.87,5.35,1.58,5.74,9.75,5.48A2.35,2.35,0,0,1,343.29,73.11Z"/><path class="cls-9" d="M124,287.09c-7.74,6-26,4.7-32.59-2.2-4.36-4.55-4-11.39.79-16.87,3.62-4.11,13.27-8.92,20.37-9.8a28.06,28.06,0,0,0-7.79,11.44c-2.27,5.93-1.06,9.5,4.43,12.81a27.75,27.75,0,0,0,10.17,3.45C120.9,286.17,122.65,285.79,124,287.09Z"/><path class="cls-7" d="M223.73,92.63c1.65.15-4.07,4.69,1.73,2.81,1.19-.39.29,2.53-.1,3.51a74,74,0,0,0-5.21,27.71c0,6.69.13,13.39.15,20.08a37,37,0,0,1-.31,5.37c-1,6.62-4.24,8.56-10.56,6.34a2,2,0,0,1,.87-2.14c5.56-2.44,5.61-7.17,4.9-12-1.19-8.15-.74-16.3-.5-24.45a26.4,26.4,0,0,0,1.07-6.15.5.5,0,0,0-.25-.38c-.1,0-.27.09-.43.16a1.27,1.27,0,0,1-1.06.08,3.06,3.06,0,0,1-1.17-2.13c-.21-3.31.74-6.47,1.28-9.67.5-3-1.05-2.9-3.07-2.56a2.22,2.22,0,0,1-1.24-.5c-1.14.15-2.7.48-3.2-.5-.65-1.27.86-1.86,1.81-2.41,1.87-1.08,1.14-2.1.29-3.55-2-3.39-1.07-4.89,2.91-5.26A10.33,10.33,0,0,1,216.83,88c2.49,1.12,4.92,2.88,6.13-1.45a1.39,1.39,0,0,1,2-.72,2.34,2.34,0,0,1,.65,1.62c.1,1.11,0,2.23,0,3.35C226.19,92.71,224.2,91.85,223.73,92.63Z"/><path class="cls-10" d="M174.49,90.82c-11.28-1-20.49-6.25-28.58-13.88-2.92-2.75-1.32-5.8-.84-8.73.34-2.07,1.52-4.07-.44-5.92a1.12,1.12,0,0,1,1.55-.24c2.91-1.5,1.24-3.58.69-5.51-1.34-4.68-2-9.29,2.15-14.71-1.93,6.23-1,10.82,1.74,15.11a24.48,24.48,0,0,0,10.77,9.75c1.49.65,3.48,2.72,5.06.29s-1.44-2.65-2.34-3.9a7.1,7.1,0,0,1-.59-1.33c6.15.09,8.41,3.78,5.58,9.23-.48.92-1.18,1.48-.29,2.44-.11.62,1.43,1.06.53,1.43-1.51.62-4.24.59-4.4-.69-.56-4.46-4.5-4.15-7-5.83-1.89-1.27-3.75-2.6-5.6-3.93-1.07-.77-1.87-2.69-3.53-.84-1.35,1.51-.33,2.83.63,3.89,1.42,1.57,3.12,2.89,4.61,4.41.88.9,2.31,2.09,1.32,3.3-1.12,1.38-2.26-.3-3.31-.86-.71-.38-1.28-1-2-1.48-.92-.63-2.12-1.67-3-.39s.72,1.88,1.59,2.5c8.82,6.28,17.74,12.36,28.51,14.9C177.12,92.18,175.64,91,174.49,90.82Z"/><path class="cls-11" d="M326.29,114.42c-1.9,1.48-1.5,3.41-1.07,5.36,1.2,5.38-.61,8.71-5.3,12.24-9.4,7.08-19.62,9.32-31,8.49a69.07,69.07,0,0,0,23.64-8.34c3.28-1.83,6.36-4,9.57-6a1.48,1.48,0,0,0,.73-2c-.5-1-1.39-.42-2.12-.13-2.2.85-3.63,3.45-6.67,2.9.16-2.71,2.2-3.79,4-5.14a26.2,26.2,0,0,0,3.65-3.23c.93-1,.21-2.17-.4-3.16-.8-1.29-1.67-.64-2.41,0a25.79,25.79,0,0,1-11.19,5.93c-1.57.39-1.6,1.82-2.22,2.95-1.38,2.53-3.31,2.48-4.88.06,3.34-1.88-.08-4.29,0-6.31.2-5.19,2.7-5.51,6.47-5.77a9,9,0,0,1-.14,1.26c-.54,1.85-5.06,1.56-3,4.47,1.69,2.35,4.22.22,6.09-.65,6.49-3,11.26-7.75,13.4-14.79,1.25-1.4-1.24-4.07,1.67-4.89,1.56,4.4.48,8.5-1.36,12.53-.68,1.49-1.78,3.29,1.41,3A1.42,1.42,0,0,1,326.29,114.42Z"/><path class="cls-12" d="M223.73,92.63l1.94-1.78c3.79.42,7.39,2.77,11.43.66,2.27-1.18.81,1.48,1.27,1.63,2.79.91,5-.75,7-2.25,1.42-1.05,3.71-2.38,1.84-4.62-2.48-3-2.19-5.51.27-8.24,3.54-3.94,6.88-8.08,13.11-6.94,1.88.34,1.78,1.57,1.68,2.92-2.63,2.66-6.17,4.06-9,6.46-1.61,1.38-2.17,2.53.63,3,.61.43,1,.93.57,1.71-5.19,5.67-10.24,11.39-17.5,14.7-4.14,1.89-5,6.14-5.47,10.33-.44,4.42.88,8.72,1.38,13.27-8.22-3.36-8.21-15.72-.23-27.59C229.58,94.91,227.45,91.73,223.73,92.63Z"/><path class="cls-11" d="M212.91,29.64C217,31,218.5,35.5,222.6,37.52c.72-2.78-.51-4.57-2.34-5.86-2.53-1.79-4.44-4.39-7.44-5.55-1-.37-1.9-.85-1.63-2.08.34-1.53,1.7-1.34,2.8-1.32,4.75.05,7.78,3,10.48,6.4,2.4,3,4.77,5.85.91,9.74-2.19,2.2.32,4.1,1.95,5.09,2.62,1.59,5.62,2.55,8.46,3.78,7.57,3.29,7.94,10.38,8.33,17,.29,4.9-1.26,9.62-6.54,12.62-.39-3.67,1.13-6.47,1.66-9.43,1.35-7.49-.82-12.59-7.28-16.51-5.31-3.22-8.75-8.29-12.78-12.78l-7.17-8A1.64,1.64,0,0,1,212.91,29.64Z"/><path class="cls-13" d="M368.27,200.1c-3.28,0-6.57-.08-9.84,0-2.22.07-2.87-.68-2.37-2.92,1.18-5.28,2.19-10.59,3.2-15.91.34-1.81.92-3.34,3.1-2.76s1.15,2.37.91,3.66c-.63,3.55-1.52,7-2.08,10.6-.21,1.32-1.8,3.46,1.09,3.83,2.22.28,4.65.68,5.13-2.79.56-4.05,1.46-8.05,2.22-12.08.35-1.85.78-3.84,3.31-3.2,2.37.6.89,2.43.71,3.66-.49,3.24-1.42,6.42-1.73,9.66-.15,1.55-2.26,4,1.08,4.77s4.73-.67,5.16-3.94c.49-3.73,1.44-7.4,2.09-11.11.3-1.73.62-3.46,2.86-3.11,2.8.43,1.34,2.58,1.12,3.9-.78,4.68-2,9.3-2.67,14-.4,2.89-1.53,4-4.42,3.75S371.22,200.11,368.27,200.1Z"/><path class="cls-12" d="M146.19,62.06l-1.55.24c-1.15-.89-2.69-1.54-3.4-2.7C138.46,55,134.57,55.68,130.5,57c-6,1.93-10,6.23-12.62,11.71-5.41,11.25-3.67,23.09-2.53,34.86l-1.75,1.94c-2.82-11.29-3.47-22.59-.47-34,3.14-11.93,11.27-18.36,22.87-21,2.88-.66,5.05,0,6.23,3.17C143.32,56.55,144.85,59.27,146.19,62.06Z"/><path class="cls-11" d="M326.29,114.42l-1.13-1.18c1-1.68,2-3.35,2.9-5,3.23-5.83,4.21-6.1,10.71-3.85q15.58,5.41,18.13,21.6c1.69,10.86,1.89,21.63-3.07,31.87-.66-8.2,1.67-16.26,1.13-24.47-.56-8.57-3.37-16.07-10.47-21.22-6.35-4.61-9.81-4.19-15.71.78A18.17,18.17,0,0,1,326.29,114.42Z"/><path class="cls-10" d="M255.91,146l3.69,1c-2.25,1.58-1.64,2.82.47,3.85s4.59.69,6.08,2.74a.62.62,0,0,0,1.12,0c1.89-4.17,6.43-6.63,7.43-11.26.31-1.43-.57-3.12-.9-4.69,4.39,1.9,6.41,5.83,3.68,8.77a40.49,40.49,0,0,0-8.74,13.68c0,.05-.3.07-.41,0s-.23-.22-.35-.33c-1.75,2-1.77,2.15-1,7.82.43,7,2.45,13.89,2.23,21-.08,2.6,0,5.19-2,7.23-.47-.24-.94-.37-.94-.49.48-12.56-2.68-24.72-4-37.07-.12-1.13.18-2.67-1.14-3C256,154.07,256.4,149.82,255.91,146Z"/><path class="cls-14" d="M196.79,177.32c3.42-4.43,8.15-4.86,12.86-3.33s7.93,4.86,7.49,10.24c-.21,2.55,1.25,3,2.93,3.72,9.45,4.31,10.78,11.41,3.37,18.78-1.5,1.49-1.67,2.93-1.68,4.78,0,9.68-6.25,14-15.73,11.09a.91.91,0,0,1,.28-1.28c1.14-.73,2.48-.72,3.75-1,5.94-1.35,8-4.22,6.85-10.16-.51-2.54.17-4,2.19-5.31,2.92-1.88,5-4.32,4.07-8.12s-3.84-5-7.34-5.28c-2.46-.22-3.76-1.28-3.69-4.07.24-9.47-3-12-12.15-9.56a6.36,6.36,0,0,1-1.93.25A1.9,1.9,0,0,1,196.79,177.32Z"/><path class="cls-15" d="M215.94,118.37c-.16,9.25-.53,18.46.78,27.71,1.07,7.59.51,7.92-6.51,11.15-.37.17-.53.8-.79,1.21-2.25-.11-4.09,1.18-6.12,1.78-4.5-2.16-9.61-.73-14.19-2.41l2.35-.25c2.77-1.69,6-2,9-3,6.16-.73,7.95-2.4,9.49-8.67,2.08-8.49,1.32-17.27,2.58-25.84.35-2.41,0-5,2.16-6.77a4,4,0,0,0,.3-.89C217.72,114,216,116.34,215.94,118.37Z"/><path class="cls-16" d="M289.75,7l1-.93c1.17.53,2.27,1.38,3.68.79,4.38-1.85,8.3-1.25,11.67,2.22,1.3,1.33,2.65.65,4.08.27,4.17-1.11,7.77-.21,10.51,3.32A5.06,5.06,0,0,0,324.19,15c4,.48,7.1,2.23,8.46,6.38.27.82,1.28,1.43,2,2a5.12,5.12,0,0,0,1.72.92c5,1.48,2.64,7.93,6.06,9.71,4.14,2.16,6.67,4.59,6.27,9.34-.17,2,1.17,2.81,2.43,3.88,2.17,1.83,3.73,4,2.87,7.11a1.29,1.29,0,0,1-1.35.14c-1.66-2.17-2.63-4.92-5.52-6-1.85-.72-2-2.4-1.76-4.14.61-3.68-.5-6.14-4.58-6.55-2.6-.26-3.83-1.59-3.34-4.3.21-1.13.52-2.87-.28-3.31-5.36-2.92-7-10.25-13.64-11.46a6.29,6.29,0,0,1-4.75-3c-1.91-3.24-4.65-4.17-7.92-2.36-2.82,1.56-4.83,1.07-6.82-1.37-2.31-2.83-5.06-3.24-8.24-1.12C291.22,13.91,290.07,13.14,289.75,7Z"/><path class="cls-14" d="M146.77,169.68c.05,3,1.4,4.29,4.51,3.74a22.81,22.81,0,0,1,4.28,0,15.59,15.59,0,0,0,13.91,1.93,7.18,7.18,0,0,1,2.09.38c2.32,1.24,4.94,1.9,7.05,3.55a2.14,2.14,0,0,1,.1,1.44c-1.17,2.61-2.68,3.51-5.25,1.42-3.23-2.63-6.76-3.07-10.47-.88-2,1.2-3.8.66-5.19-1.11-2.4-3.06-5.6-3.89-9.21-3.21-3,.57-4.59-.67-5.53-3.4a7.9,7.9,0,0,0-7.73-5.73c-2.38-.09-3.81-1.25-4.82-3.46-3.29-7.15-4.54-7.73-12-6.25a4.62,4.62,0,0,1-2.89,0,.76.76,0,0,1-.23-1.24c7.36-5.87,16.17-3.53,19.48,5.3.5,1.33.69,2.46,2.41,2.34C141.54,164.21,144.08,167.08,146.77,169.68Z"/><path class="cls-17" d="M280.32,68.93a46.14,46.14,0,0,0,.94-4.57c.86-8.11-6.9-14.14-14.06-10.92-2.82,1.26-4.42,3.4-3.91,6.62a3.57,3.57,0,0,0,2.84,3.05c1.44.33,2.6,0,3-1.62.35-1.28.69-2.82,2.54-1.94s1.72,2.77.94,4.24c-1.64,3.12-4.24,4.48-7.77,3.28a8.2,8.2,0,0,1-5.48-9.3c1-4.39,4.8-7.46,10-8.1a12.43,12.43,0,0,1,12.46,7C283.92,61,284.26,65.23,280.32,68.93Z"/><path class="cls-18" d="M209.81,98.67l1.07-.05c3.45,2.53,2.25,5.29-.37,7-3,2-4.29,4.49-5.06,7.78-.53,2.25-1.15,4.89-4.32,5.11-1.08-1.55,0-3.2-.23-4.74-.14-1,2.18-4.5-2.06-2.75-.77.32-.83-.88-.88-1.43-.45-4.54-3.22-7.72-6.06-11-3.32-3.83-1.79-8.48,3.28-10.73-1.36,4.71,1.48,14.85,5.54,16.6,1.83.79,4.9-1.17,7.35-2C209.81,101.84,210.78,100.64,209.81,98.67Z"/><path class="cls-19" d="M421.79,193.65c.31-6.11,4.42-10.09,10-9.73,4.09.26,5.77,2.48,5.6,6.47-.27,6.21-4.16,10.27-9.72,10C423.5,200.19,421.57,198,421.79,193.65Z"/><path class="cls-19" d="M413,197c.09-1.49,1.18-3.28-1.44-3.38-1.8-.07-3.74-.4-4.05,2.27a21,21,0,0,1-.59,2.89c-.4,1.54-1.68,1.32-2.8,1.24-1.5-.12-1.23-1.29-1.07-2.2.7-3.87,1.49-7.73,2.19-11.6a2.27,2.27,0,0,1,2.74-2.09c2.3.13,1.27,1.58,1.26,2.77s-1.53,3.17,1.2,3.26c1.82.06,4.19.81,4.38-2.35a14.24,14.24,0,0,1,.31-1.94c.35-1.72,1.61-1.86,3-1.67,2,.27,1,1.62.86,2.59-.65,3.54-1.43,7.06-2,10.61-.27,1.66-.7,2.8-2.69,2.68C411.53,199.94,413.23,198,413,197Z"/><path class="cls-20" d="M386.89,194.89c.44-2.53,1-5.58,1.5-8.63a2.22,2.22,0,0,1,2.72-2.09c2.21.22,1.43,1.68,1.23,2.89-.4,2.41-.89,4.81-1.19,7.23a2.75,2.75,0,0,0,.63,2.17c.91.72,1.84,0,2.58-.68,2.13-1.84,2.43-4.46,3.11-7,.49-1.83-.32-5.53,3.4-4.45,2.75.8.61,3.24.46,4.9-.21,2.26-.8,4.49-1.23,6.73-.12.64-.2,1.29-.34,1.93-.31,1.35-1.3,3.11-2.47,2.07C394.24,197.27,386.67,205.06,386.89,194.89Z"/><path class="cls-21" d="M454.39,184.72a23.55,23.55,0,0,1-2,3.14c-2.26,2.53-3.66,5-1.45,8.41.57.88,1.88,3.21-1,3.81-2.26.47-2.68-.92-3-2.75-.21-1.36-.22-3.35-2.09-3.48-2.51-.17-1.9,2.25-2.23,3.62-.39,1.6-.72,2.85-2.72,2.63-2.57-.29-1.46-2.12-1.27-3.33.5-3.24,1.28-6.43,1.83-9.66.31-1.78.75-3.23,3-2.93,2.77.37.85,2.18,1,3.33.12.89-.75,2.13.46,2.58s2-.66,2.69-1.63C449.2,186.3,449.91,182.92,454.39,184.72Z"/><path class="cls-22" d="M206,221.87q0,.36,0,.73c-2.22-.72-3.91-.93-5.91,1.31-3.64,4.08-9.48,4.62-14.43,1.65-2.26-1.36-3.53-1.19-5.43.51-4.08,3.63-8.71,4.26-13.59,1.42-.1-.9.49-1.29,1.18-1.6,5.11-.08,9.75-1.06,12.24-6.26a2.44,2.44,0,0,1,2-.29c2,1.41,3.32,3.59,5.67,4.51a6.6,6.6,0,0,0,6.07-.1,11,11,0,0,0,3-2.42C201,216.48,201.91,216.54,206,221.87Z"/><path class="cls-23" d="M232.23,65.1c2.62,4.87,2.28,9.2-1.15,12.86s-7.71,3.92-12.27,3c-1.37-.28-2.6-.89-2.67-2.4,0-1,1.14-1.14,1.86-1.05C227.2,78.66,231.14,73.73,232.23,65.1Z"/><path class="cls-24" d="M238,111.87c1.4,1.18,1.36,2.7,1.6,4.14,1.19,7.13,3.16,8.76,10.36,9.08,1.23.05,3.41-1.11,3.6,1.11.17,2-1.88,2.61-3.49,2.72-4.21.29-8.26-.35-11.1-3.89C235.65,121,235.7,116.52,238,111.87Z"/><path class="cls-25" d="M115.4,156.87l.11,1.29c-.23,3.38-1.3,6.7-.57,10.16A2.06,2.06,0,0,1,113.5,171c-1.57.4-2.45-.48-3-1.83-.42-1.06-.6-2.21-1.1-3.24a7.87,7.87,0,0,0-10.25-4.06c-1.67.64-3.07,1.87-4.88,2.22a1.81,1.81,0,0,1-1.38-.47c4-5.83,8.79-7.9,14.58-4.94C111.31,160.67,113.26,159.59,115.4,156.87Z"/><path class="cls-26" d="M353,54.28l1.06.1c-.16,4.29-2.37,7.06-6.55,7.73-2.59.41-2.06,1.55-1.7,3.29.61,3,.47,5.84-2.5,7.72l-1.49-.19c1.88-4.54,1.63-8.46-3-11.37a2.35,2.35,0,0,1-.59-3.48,1.71,1.71,0,0,1,2.52-.67C346,60.67,349.68,58.32,353,54.28Z"/><path class="cls-27" d="M167.68,226.66l-1,.82a4.2,4.2,0,0,0-5.27.47c-4.56,3.66-9.52,3.87-14.47.52a.82.82,0,0,1,.31-1.19c5.31.27,9.85-.34,14.1-4.77C163.78,219.95,166.44,223.73,167.68,226.66Z"/><path class="cls-28" d="M178.4,180.14q0-.39,0-.77c.54-3.73,3.36-4,6.25-4.07l3.89-.38c2.93.16,4.94,3.54,8.26,2.4l1.45.16c.41,2-.91,3.33-1.89,4.76-.7,1-1.87,1.8-2.79.63-4.22-5.45-9.41-4.29-14.78-2.46C178.7,180.45,178.53,180.24,178.4,180.14Z"/><path class="cls-29" d="M254.45,85.17l-1.32-1.41c1.41-5.16,5.82-7,10-9.18,1.62-.42,2.75-2.27,4.73-1.67a9.41,9.41,0,0,1,5.57,0c2.58.49,1.34,1.09,0,1.33C268,75.15,263,76.9,259,80.86,257.5,82.33,256,83.74,254.45,85.17Z"/><path class="cls-30" d="M263.14,74.59c-2.86,3.58-7.54,5.17-10,9.18-1.16.11-2.24,2.14-3.31.61-.73-1,.23-2.67,1.16-3.37,3.52-2.68,6.46-6.36,11.26-7Z"/><path class="cls-31" d="M244.28,137.68l.09,1.51c-1.93.88-3.81,1.89-5.79,2.61-3.88,1.41-7.1,1-8.77-4C234.83,140.1,239.55,138.7,244.28,137.68Z"/><path class="cls-32" d="M92.78,178.79c1.49-.85,3.59-1.41,1.09-3.6a5.67,5.67,0,0,1-2.1-5.63,1.13,1.13,0,0,1,1.43.09c2.3,3.31,5,6,9.25,6.66,1.52.22,2.91,1.07,2.63,2.94s-1.9,2.16-3.41,1.88c-2.61-.49-5.23,0-7.83-.39A1.93,1.93,0,0,1,92.78,178.79Z"/><path class="cls-33" d="M147,227.28l-.12,1.19c-2.15-1.92-4.61-1.87-7.32-1.54-5.15.63-9.33-1-11.58-6.07a1.53,1.53,0,0,1,1.42-.33,13,13,0,0,0,11.4,2.65C144.22,222.5,146.6,223.44,147,227.28Z"/><path class="cls-34" d="M212.91,29.64l-.9,1a35.84,35.84,0,0,0-14.22-5.73C202.93,21.93,207.21,23.43,212.91,29.64Z"/><path class="cls-32" d="M103.55,208c-.41-.23-1.08-.38-1.2-.71-2.09-5.77-6.59-9.19-11.63-12.09a2.58,2.58,0,0,1,1.36-.77c1.8-.22,3.52.36,5.29.47,2.63.16,4.31,1.39,4.42,4.14s1.69,5.17,2.94,7.6C104.81,207.47,104.75,208.22,103.55,208Z"/><path class="cls-35" d="M103.55,208l1-.82c2.95-1.29,6.05-.3,9.07-.6,1.8-.18,2.67,1,2.87,2.62.29,2.26,1.2,4.36,1.47,6.62a2,2,0,0,1-.75,1.41C115.22,210.34,108.58,210.35,103.55,208Z"/><path class="cls-36" d="M117.18,217.22a9,9,0,0,0,.1-1c3.37-1.11,6.57.34,9.8.84,1.7.26,2.69,1.73,1.94,3.7l-1,.06C124.13,220.45,120,220.89,117.18,217.22Z"/><path class="cls-32" d="M92,195.07l-1.24.11c-4.72-5.13-4.95-8.39-1-13.79a.76.76,0,0,1,1.19.07A20.8,20.8,0,0,0,92,195.07Z"/><path class="cls-37" d="M325.1,97.68c-1.48,1.31.13,3.69-1.67,4.89V94.74A3.39,3.39,0,0,1,325.1,97.68Z"/><path class="cls-32" d="M92.56,169.56h-.79a7,7,0,0,1,1.14-5.9l1.09.09A5.22,5.22,0,0,1,92.56,169.56Z"/><path class="cls-38" d="M396.19,108.39h-3a.78.78,0,0,1-.26-.72c.05-.26.11-.38.18-.38.79-.29,1.65-.34,2.43-.66a4.16,4.16,0,0,0,3.51-.3C398.76,107.9,396.82,107.24,396.19,108.39Z"/><path class="cls-32" d="M91.07,181.53l-1.31-.15a4.82,4.82,0,0,1,3-2.59l.9,1.27C93.41,181.63,92.53,182.09,91.07,181.53Z"/><path class="cls-39" d="M120.09,125.18l-.91,4c-1.89-1-.6-2.64-.91-4Z"/><path class="cls-40" d="M273.44,72.87l-5.57,0A5.47,5.47,0,0,1,273.44,72.87Z"/><path class="cls-41" d="M336.87,157.86c-4-3.47-4.48-8.74-6.56-13.19-1.42-3-1.75-6.55-4.19-9.11.22-1.16-.21-2.78,1.87-2.61,1.22-.29,1.56.3,1.37,1.39,1.91,1.42,4,1.58,5.65-.08s.65-3.6,0-5.42-2.46-3.41-2.1-5.7c4.66.22,6.06,3.81,7.23,7.34a29,29,0,0,1-2.92,25.34Z"/><path class="cls-12" d="M337.21,155.83c-2.43-2.16.18-3.53,1-5,4.92-8.92,2.43-22.36-5.28-27.72-.06-1.34-2.63-2.27-1-3.66,1.12-1,2.81-.1,4.11.65,4.09,2.35,7.32,5.4,8.64,10.14a39.05,39.05,0,0,1,1.14,16.49C345,151.6,343,155.57,337.21,155.83Z"/><path class="cls-42" d="M267,167.64c-1.64-2.57-.67-5.43-.86-8.16-.06-.81.15-.83,1.82.34C266.16,162.23,267.67,165.07,267,167.64Z"/><path class="cls-43" d="M329.34,134.35,328,133c1.24-1.05,2.91-1.52,3.71-3.46C332.93,132.62,330.76,133.26,329.34,134.35Z"/><path class="cls-44" d="M201.12,118.53a9.12,9.12,0,0,0,3.18-5.86c.61-3.63,1.72-6.29,5.6-7.83,2.47-1,2.88-3.78,1-6.23l4.93-1.83-2,14.49c-1.61,10.65-2.68,21.38-4.64,32-1,5.54-3.21,10.38-9.14,12.36a17.35,17.35,0,0,1-8.6,1.94c-.9-1.64,1-2.46,1.13-3.78-2-1.23-4.28.1-6.3-.79-2.16-.48-4.43-.74-6-3,.65-.34,1.17-.83,1.42-.72,5.76,2.67,10.93.1,16.23-1.66,1.44-.48,1.1-1.42,1.15-2.25.51-7.85,1.28-15.66,3.62-23.21C203.32,120.18,202.17,119.51,201.12,118.53Z"/><path class="cls-12" d="M131.73,102.67c-4.54.76-6.68-1.34-8-5.66-3.19-10.81.25-22.94,8.5-28.36a15.35,15.35,0,0,1,3-1.58c1.15-.43,2.56-1.4,3.53,0,.85,1.26-.64,1.95-1.2,2.85a10.2,10.2,0,0,0-.69,1.7,23.64,23.64,0,0,0-5.69,25.21C132,98.71,133.77,100.56,131.73,102.67Z"/><path class="cls-45" d="M131.73,102.67c.66-1.64-.49-2.82-1.17-4-4.32-7.75-1.95-15.25,1-22.58.84-2.08,2.27-4.52,5.35-4.39-.81,1.73-1.74,3.41-2.4,5.2s-1.09,3.67.18,5.06c1.43,1.56,3.39,1.35,5.14.11,0-1.83.94-1.77,2.2-1.2.24.18.7.46.67.54-2.86,7.31-5.75,14.6-10.09,21.2C132.52,102.72,132,102.64,131.73,102.67Z"/><path class="cls-46" d="M174.49,90.82c1-.31,2.23.21,2.9-1,1.19.09,2.59-.56,3.61,1.29C178.66,91.83,176.58,92.14,174.49,90.82Z"/><path class="cls-47" d="M142.05,80.82c-.86.17-1.78.23-2.2,1.2-1.5-.9-2.81-1.89-2.08-4.39Z"/><path class="cls-48" d="M186.29,153c2.09,0,4.18,0,6.26.07.08,0,.22.18.21.27a1.54,1.54,0,0,1-.18.45C190.46,153.76,188.22,154.55,186.29,153Z"/><path class="cls-49" d="M386.09,104.66c-2.86-.49-4.11-2.44-4.59-5.09.1-.7-.51-2.53,1.12-1.26,1.81,1.41,3.16,3.43,4.7,5.18C387.58,104.59,387.1,104.91,386.09,104.66Z"/><path class="cls-50" d="M393.21,107.51q0,.43,0,.86a8.7,8.7,0,0,0-5.53,1.23c-1.83,1.23-1.16-.36-1.18-1.13.4-.8.75-1.71,1.94-1.08a1.24,1.24,0,0,0,.87-.15C390.64,107,392,106.66,393.21,107.51Z"/><path class="cls-51" d="M388.44,107.4l-1.94,1.08-.4-3.82,1.24-1.16C388.56,104.55,388.08,106.09,388.44,107.4Z"/><path class="cls-52" d="M376.48,104.48c-.62,1.26-.81,3-2.86,2.75C374,105.76,374,103.79,376.48,104.48Z"/><path class="cls-4" d="M393.21,107.51l-3.9-.27c2-1.38,4.14-.53,6.24-.63Z"/><path class="cls-45" d="M169.56,176.28c-5.22,1.79-10.25,2.64-14-2.85,2.8-1.92,5.65-3.78,8.4-5.77a5,5,0,0,1,6.6,0,3.17,3.17,0,0,1,1.31,3C170.86,172.48,171,174.73,169.56,176.28Z"/><path class="cls-53" d="M171.47,170.78l-.91-3.09c1.8-.28,3.75-.47,4.82,1.28,2.17,3.55,5.85,4.69,9.25,6.33-2.11,1.31-4.73,1.84-6.25,4.07-2.84.63-4.7-1.59-7-2.43A6.08,6.08,0,0,1,171.47,170.78Z"/><path class="cls-54" d="M353,54.28c-2.08,6-6.08,7.69-11.62,4.75-.88-.46-1.61-2-2.68-.31-.89,1.41.19,1.9,1.17,2.61,6,4.33,6.27,6,2,11.6-7.64,2.33-10.27.57-10.76-7.2-.07-1.11.32-2.49-1.42-2.54s-1.25,1.49-1.46,2.49c-1.13,5.35-3.32,7.11-8,6.43-4.07-.6-6-3.32-5.36-8.24.21-1.65.13-2.24-1.58-2.73-4.74-1.34-6.5-4.56-5-9.59-4.45-.08-8.46-.69-9.63-5.82-.52-2.26-2.39-1.24-3.66-1.16-3.17.21-5.88-.21-7.36-3.51-.62-1.37-1.43-1.63-3.1-.95-6.82,2.8-8.89,1.85-12-5-5.47,4.13-8.9,4.58-12.19,1.58-4-3.61-1.21-6.76.78-9.89-.29-1.61-1.81-1.27-2.7-1.75-2.7-1.46-4.53-3.43-4-6.63a6.26,6.26,0,0,1,5.42-5.56c1.36-.22,3,.26,2.78-2.27-.44-4.15,2.05-6.51,5.74-7.32s6.3,1,7.9,4.34a11.43,11.43,0,0,0,1,1.41C281,4.91,285,3.2,289.75,7l2.51,5.27c6.68-6,8.43-6.08,13.86.3,1.21,1.42,1.66,1.18,3,.32,5.19-3.24,7.74-2.56,11.15,2.81.78,1.23,1.32,1.88,3,1.7,3.9-.4,6.73,1.37,7.64,5.29.45,2,1.52,2.6,3.28,3,3.88.94,5.36,3.7,4.62,7.42-.43,2.18-.5,3.1,2.22,3.41,5.28.6,6.74,2.44,5.62,7.49-.57,2.57-.07,3.43,2.2,4.1C351.88,49,352.56,51.59,353,54.28Z"/><path class="cls-11" d="M200.06,155.62c9.63-6.67,8.27-17.38,9.82-27a99.57,99.57,0,0,1,4-17.37l.84,2.05c-.89,9.92-1.72,19.85-2.71,29.77a28.36,28.36,0,0,1-1.6,6.65C208.64,154.57,205.31,156.86,200.06,155.62Z"/><path class="cls-55" d="M215.94,118.37c-.61-1.93.66-4.16-1-5.92-.06-.83-.09-1.81.77-2.12,1.46-.52,1.11.84,1,1.41C216.46,113.95,217.4,116.32,215.94,118.37Z"/><path class="cls-54" d="M91.07,181.53l2.61-1.46a14,14,0,0,1,7.68-.23c1,.27,2.34,1.31,2.84-.4.58-2-1-1.92-2.36-2-5-.37-8-3.05-9.28-7.86L94,163.75c7.77-6.78,14.54-4.8,17.53,5.16.32,1.08.65,1.91,1.87,1.63,1.53-.35.84-1.42.54-2.28a9.93,9.93,0,0,1,1.57-10.1c9.07-4.3,13.56-2.63,16.31,6.48.63,2.09,1.64,2,3.12,2,5.23,0,8.91,2.12,9.69,7.66.3,2.16,1.13,2.13,2.93,1.65,4.65-1.25,8.82-.63,11.41,4.06,1.21,2.18,2.31.73,3.53,0,3.79-2.18,8-2.35,10.91.69,2.6,2.66,3.49,1,5-.56,7.14-4.45,11.14-3.84,16.41,2.63l3.43-5.29c4.12-2.49,8.31-3,12.42-.1,3.41,2.41,4.12,5.85,2.81,9.59-.81,2.3-.18,3,2,2.94,4.62,0,8,1.9,9.05,6.62s-1.21,7.83-5.46,9.74c-1,.45-1.72.84-1.41,2.51,1.8,9.58-.91,12.74-10.72,12.91a5.31,5.31,0,0,0-1,.19c-1.84-1.25-4-2-5.4-4.33-2,2.94-3.25,6.07-6.47,7.33a14.43,14.43,0,0,1-6.82,0c-2.17-1.21-4.34-2.44-5.27-5-1.43-1.27-1.15-3-1.15-4.59-.1-1.08.4-2.21-.37-3.24-.08,1.19.6,2.33.34,3.54-.15,1.42.35,2.88-.31,4.25-2.77,6.53-4.12,7.25-12.89,6.81l-5.25-4.2c-5,6.5-8.21,7.51-15.4,4.82-1.77-2.41-3.35-4-7.08-2.78-4,1.35-8.35.64-10.94-3.7-.31-2-1.33-3-3.55-2.72-2.93.43-5.58-.64-8.18-1.82-3.51-7.06-3.51-7.06-10.92-8.52a17.89,17.89,0,0,1-1.85-.57c-2-1.54-3.94-3.53-3.72-6,.37-4.19-1.79-4.86-5.11-5A15.27,15.27,0,0,1,92,195.07C87.61,190,87.45,187.51,91.07,181.53Z"/><path class="cls-56" d="M171.47,170.78q-.06,3.08-.12,6.15l-1.8-.65C170.08,174.41,168.18,171.69,171.47,170.78Z"/><path class="cls-57" d="M433.25,190.75c-.63,2.86-.91,6.13-4.84,6.32-2.14.1-2.72-1.74-2.43-3.47.48-2.89.84-6.17,4.78-6.38C433.06,187.1,433.06,189.07,433.25,190.75Z"/><path class="cls-58" d="M187.33,224.87h6.82A6.38,6.38,0,0,1,187.33,224.87Z"/><path class="cls-59" d="M181.43,214.89a10.15,10.15,0,0,0,.62,5l-1.49,0-.1-5C180.8,214.45,181.12,214.48,181.43,214.89Z"/><path class="cls-60" d="M150.94,197.07l-2.2-4.42a28.13,28.13,0,0,0,5.18-.7,25.28,25.28,0,0,0,4.43-2.49,14.81,14.81,0,0,0,6.09,6.24c-5,.16-9.25.24-11.69,4.29C150.1,200.28,152.13,197.69,150.94,197.07Z"/><path class="cls-61" d="M151.67,205.14c.19,2.22,2,3.64,3,6-4.33.23-9,4.23-12.08-2.73,2.65-.92,5.69-1.54,7.45-4.18C151.12,203.49,151.29,204.51,151.67,205.14Z"/><path class="cls-62" d="M134.72,184.33c8.92-5.69,6.29,4.45,9.71,6.23C137.34,194.32,136.82,188.29,134.72,184.33Z"/><path class="cls-63" d="M181.43,214.89q-.49,0-1,0l-2-3.33C183,210.79,183,210.79,181.43,214.89Z"/><path class="cls-64" d="M151.67,205.14l-1.67-.89c1.13-2.28.8-4.76.93-7.17l1.81,2.93C151.85,201.6,151.83,203.39,151.67,205.14Z"/></svg>