<svg width="100" height="59" viewBox="0 0 100 59" fill="none" xmlns="http://www.w3.org/2000/svg">
<g>
<path d="M67.4956 1.06288C66.4298 -0.177163 64.476 -0.354312 63.2327 0.885735C61.9893 2.12578 61.8117 3.89728 63.0551 5.31447C63.4103 5.66877 63.4103 5.84592 63.0551 6.20022C61.4565 7.79457 59.8579 9.38891 58.4369 10.9833C58.0817 11.3376 57.9041 11.3376 57.5488 10.9833C55.9503 9.38891 54.3517 7.61742 52.5755 6.02307C52.2202 5.66877 52.2202 5.49162 52.5755 5.13732C53.6412 3.72013 53.4636 1.94863 52.2202 0.885735C51.1545 -0.177163 49.3783 -0.177163 48.3126 0.885735C47.0693 1.94863 46.8916 3.72013 47.9574 5.13732C48.3126 5.49162 48.3126 5.66877 47.9574 6.02307C46.3588 7.61742 44.7602 9.38891 43.1616 10.9833C42.8064 11.3376 42.4511 11.3376 42.0959 10.9833C40.675 9.38891 39.0764 7.79457 37.6554 6.37737C37.1226 5.84592 37.1226 5.49162 37.6554 4.96017C38.7211 3.89728 38.5435 1.77148 37.3002 0.708585C36.0568 -0.354312 34.2806 -0.177163 33.2149 0.885735C31.9716 2.12578 31.9716 4.25158 33.2149 5.31447C33.7478 5.66877 33.7478 6.20022 33.7478 6.73167C33.7478 13.6405 33.7478 20.5493 33.7478 27.6353C33.7478 29.4068 34.103 29.584 35.7016 29.584H64.476C66.2522 29.584 66.4298 29.2297 66.4298 27.6353V6.90882C66.4298 6.37737 66.4298 6.02307 66.7851 5.66877C68.5613 4.42873 68.7389 2.48008 67.4956 1.06288ZM60.2131 12.5776C61.6341 11.3376 62.8774 10.0975 64.1208 8.85746V17.7149C62.6998 16.4749 61.4565 15.0577 60.2131 13.8177C59.6803 13.4634 59.6803 13.1091 60.2131 12.5776ZM50.2664 2.48008C50.7993 2.48008 50.9769 2.83438 50.9769 3.18868C50.9769 3.54298 50.7993 3.89728 50.2664 3.89728C49.9112 3.89728 49.7336 3.54298 49.7336 3.18868C49.7336 2.83438 49.9112 2.65723 50.2664 2.48008ZM45.4707 12.0462C46.8916 10.629 48.3126 9.21176 49.7336 7.79457C50.0888 7.26312 50.444 7.26312 50.9769 7.79457C52.5755 9.38891 54.1741 10.9833 55.7726 12.5776C56.3055 13.1091 56.3055 13.4634 55.7726 13.8177C55.4174 14.172 55.0622 14.5263 54.5293 15.0577C54.3517 14.8806 53.9964 14.7034 53.9964 14.5263C53.1083 13.6405 52.2202 12.7548 51.5098 12.0462C50.7993 11.3376 50.0888 11.3376 49.3783 12.0462C48.4902 12.9319 47.6021 13.8177 46.714 14.7034C46.3588 15.2348 46.0035 15.0577 45.6483 14.7034C44.2273 13.2862 44.2273 13.2862 45.4707 12.0462ZM52.7531 16.8292C52.2202 17.3606 51.865 17.8921 51.3321 18.4235C50.444 19.4864 50.444 19.4864 49.3783 18.4235C47.9574 17.0063 47.9574 17.0063 49.3783 15.5891C50.444 14.5263 50.444 14.5263 51.5098 15.5891C51.865 15.9434 52.2202 16.2977 52.7531 16.8292ZM36.2345 9.03461C37.6554 10.4518 39.254 11.869 40.6749 13.2862C39.254 14.7034 37.833 16.2977 36.2345 17.7149V9.03461ZM35.3464 3.72013C34.8135 3.72013 34.6359 3.54298 34.6359 3.18868C34.6359 2.65723 34.8135 2.48008 35.3464 2.48008C35.7016 2.48008 35.8792 2.83438 35.8792 3.18868C35.8792 3.54298 35.7016 3.72013 35.3464 3.72013ZM36.2345 24.9781C36.2345 23.9152 36.2345 23.0294 36.2345 21.9665C36.2345 21.4351 36.5897 21.2579 36.7673 20.9036C38.5435 19.1321 40.3197 17.3606 42.0959 15.5891C42.6288 15.0577 42.8064 15.2348 43.1616 15.5891C44.405 17.0063 44.405 17.0063 43.1616 18.2464C41.0302 20.3722 38.8987 22.498 36.9449 24.6238C36.7673 24.8009 36.5897 24.9781 36.2345 24.9781ZM41.563 27.281C40.3197 27.281 39.0764 27.281 37.833 27.281C38.7211 25.8638 39.9645 24.9781 40.8526 23.9152C42.4511 22.3208 44.0497 20.7265 45.6483 19.1321C46.1812 18.6007 46.3588 18.6007 46.714 19.1321C48.6678 21.0808 48.6678 21.0808 46.714 22.8523C45.4707 24.0923 44.2273 25.3324 43.1616 26.5724C42.6288 27.1039 42.2735 27.281 41.563 27.281ZM45.8259 27.1039C47.2469 25.6867 48.6678 24.2695 49.9112 22.8523C50.0888 22.6751 50.2664 22.6751 50.444 22.8523C51.6874 24.2695 53.1083 25.5095 54.5293 26.9267H45.8259V27.1039ZM58.4369 27.281C58.0817 27.281 57.9041 27.1039 57.5488 26.9267C55.7726 25.1552 54.1741 23.3837 52.3979 21.7894C51.865 21.2579 52.0426 21.0808 52.3979 20.7265C53.1083 20.195 53.6412 18.955 54.3517 18.955C54.8845 18.955 55.595 20.0179 56.1279 20.5493C58.2593 22.6751 60.3908 24.9781 62.8774 27.281C61.2789 27.281 59.8579 27.281 58.4369 27.281ZM64.2984 24.8009C61.8117 22.3208 59.325 20.0179 56.6607 17.5378C56.1279 17.0063 56.1279 16.652 56.6607 16.2977C56.8384 16.1206 57.016 15.9434 57.016 15.7663C57.5488 14.8805 58.0817 14.8805 58.7922 15.7663C60.2131 17.3606 61.8117 18.955 63.4103 20.5493C64.1208 21.2579 64.2984 21.7894 64.2984 22.6751C64.2984 23.3837 64.2984 24.0923 64.2984 24.8009ZM65.1865 3.89728C64.8313 3.89728 64.476 3.54298 64.476 3.18868C64.476 2.83438 64.8313 2.65723 65.1865 2.48008C65.5417 2.48008 65.7194 2.65723 65.7194 3.18868C65.897 3.54298 65.7194 3.89728 65.1865 3.89728Z" fill="#fff"/>
<path d="M50.2664 34.1899C45.4706 34.1899 40.6749 34.1899 35.8792 34.1899C35.5239 34.1899 35.3463 34.1899 34.9911 34.1899C34.2806 34.0127 33.9254 33.6584 33.9254 33.127C33.9254 32.4184 34.2806 32.0641 34.8135 31.8869C35.1687 31.8869 35.5239 31.8869 35.8792 31.8869C45.4706 31.8869 55.0621 31.8869 64.8312 31.8869C65.0088 31.8869 65.1864 31.8869 65.3641 31.8869C66.0745 31.8869 66.6074 32.2412 66.6074 33.127C66.6074 34.0127 66.0745 34.367 65.3641 34.367C64.1207 34.367 62.8774 34.367 61.8117 34.367C57.904 34.1899 53.9964 34.1899 50.2664 34.1899Z" fill="#fff"/>
<path d="M7.99289 51.7277C6.74956 51.7277 5.86146 51.5505 4.97336 51.0191C4.08526 50.4876 3.37478 49.779 3.01954 49.0704C2.48668 48.1847 2.30906 47.2989 2.30906 46.4132C2.30906 45.3503 2.48668 44.4645 3.01954 43.7559C3.5524 42.8702 4.08526 42.1616 4.97336 41.6301C5.86146 40.9215 6.74956 40.7444 7.99289 40.7444C9.59147 40.7444 11.3677 41.2758 12.9663 42.1616V40.0358C11.1901 39.3272 9.41385 38.7957 7.81527 38.7957C6.39432 38.7957 5.15098 39.15 3.90764 39.8586C2.6643 40.5672 1.7762 41.453 1.06572 42.5159C0.35524 43.5788 0 44.8188 0 46.236C0 47.4761 0.35524 48.539 0.888099 49.779C1.42096 50.8419 2.30906 51.9048 3.5524 52.6134C4.79574 53.322 6.2167 53.6763 7.81527 53.6763C9.76909 53.6763 11.5453 53.322 13.1439 52.4363V50.1333C11.5453 51.1962 9.76909 51.7277 7.99289 51.7277Z" fill="#fff"/>
<path d="M21.8472 52.082C21.6696 52.082 21.492 51.9048 21.492 51.5505V46.7675C21.492 45.8818 21.1367 44.996 20.6039 44.4646C20.071 43.9331 19.1829 43.5788 18.1172 43.5788C16.6962 43.5788 15.6305 43.9331 14.9201 44.8189V46.9447C15.4529 46.4132 15.8081 46.0589 16.341 45.7046C16.8739 45.3503 17.4067 45.3503 17.9396 45.3503C18.4724 45.3503 19.0053 45.5275 19.1829 45.7046C19.5382 45.8818 19.5382 46.4132 19.5382 46.9447V47.4761L19.0053 47.8304C18.1172 48.1847 17.4067 48.3618 16.6962 48.7161C16.1634 48.8933 15.6305 49.2476 15.2753 49.779C14.9201 50.1333 14.7424 50.6648 14.7424 51.3734C14.7424 52.082 14.9201 52.6134 15.4529 52.9677C15.9858 53.322 16.5186 53.6763 17.2291 53.6763C18.1172 53.6763 19.0053 53.322 19.8934 52.7906C20.071 53.4992 20.4263 53.6763 21.1367 53.6763C21.6696 53.6763 22.3801 53.4992 23.0906 52.9677V51.5505C22.3801 51.9048 22.2025 52.082 21.8472 52.082ZM19.7158 51.5505C19.1829 52.082 18.6501 52.2591 18.1172 52.2591C17.762 52.2591 17.4067 52.082 17.2291 51.9048C17.0515 51.7277 16.8739 51.3734 16.8739 51.0191C16.8739 50.4876 17.0515 50.1333 17.5843 49.779C18.1172 49.4247 18.8277 49.0704 19.8934 48.7161V51.5505H19.7158Z" fill="#fff"/>
<path d="M30.1954 43.9331C29.8402 43.756 29.4849 43.5788 29.1297 43.5788C28.5968 43.5788 28.2416 43.756 27.7087 44.1103C27.1759 44.4646 26.8206 44.996 26.2878 45.8818V43.756H24.334V53.322H26.2878V48.1847C26.2878 47.6533 26.4654 47.1218 26.643 46.7675C26.8206 46.4132 27.1759 46.0589 27.5311 45.7046C27.8863 45.5275 28.2416 45.3503 28.5968 45.3503C28.7744 45.3503 29.1297 45.3503 29.4849 45.7046C29.8402 45.8818 30.1954 46.0589 30.373 46.4132L31.4387 44.8189C31.0835 44.4646 30.7283 44.2874 30.1954 43.9331Z" fill="#fff"/>
<path d="M36.5897 51.9048C36.0568 51.9048 35.7016 51.7277 35.524 51.3734C35.3463 51.0191 35.3463 50.4876 35.3463 49.9562V45.5275H38.3659V43.756H35.3463V41.8073L31.7939 45.3503V45.5275H33.3925V49.9562C33.3925 51.1962 33.5701 52.082 34.103 52.7906C34.6359 53.322 35.3463 53.6763 36.2344 53.6763C36.5897 53.6763 37.1225 53.6763 37.4778 53.4992C38.0106 53.322 38.3659 53.1449 38.7211 52.9677V51.1962C38.1883 51.7277 37.3002 51.9048 36.5897 51.9048Z" fill="#fff"/>
<path d="M48.3126 48.7161C48.3126 47.6532 48.135 46.7675 47.7797 46.0589C47.4245 45.3503 46.8916 44.8188 46.3588 44.2874C45.6483 43.9331 44.9378 43.7559 44.2273 43.7559C43.3392 43.7559 42.4512 43.9331 41.9183 44.4645C41.3854 44.996 40.675 45.5274 40.3197 46.236C39.9645 46.9446 39.7868 47.8304 39.7868 48.7161C39.7868 49.779 39.9645 50.6648 40.4973 51.3734C40.8526 52.082 41.563 52.7906 42.2735 53.1449C42.984 53.4992 43.6945 53.6763 44.5826 53.6763C45.2931 53.6763 46.0035 53.6763 46.5364 53.322C47.0693 53.1449 47.7797 52.7906 48.3126 52.4363V50.6648C47.7797 51.0191 47.2469 51.3734 46.714 51.5505C46.1812 51.7277 45.4707 51.9048 44.9378 51.9048C44.0497 51.9048 43.3393 51.7277 42.8064 51.0191C42.2735 50.4876 41.9183 49.779 41.9183 48.8933H48.6678V48.7161H48.3126ZM41.7407 47.6532C41.7407 46.9446 42.0959 46.4132 42.4511 46.0589C42.984 45.5274 43.5169 45.3503 44.2273 45.3503C44.9378 45.3503 45.4707 45.5274 45.8259 46.0589C46.1812 46.4132 46.3588 47.1218 46.5364 47.8304H41.7407V47.6532Z" fill="#fff"/>
<path d="M65.3641 49.6019C64.6536 48.539 64.1208 47.8304 63.9431 47.4761C63.5879 47.1218 63.2327 46.7675 62.6998 46.4132C63.4103 46.0589 64.1208 45.7046 64.476 44.996C64.8312 44.4645 65.0089 43.5788 65.0089 42.8702C65.0089 42.1616 64.8312 41.453 64.476 40.9215C64.1208 40.3901 63.5879 39.8586 62.8774 39.5043C62.1669 39.15 61.4565 38.9729 60.5684 38.9729H56.4831V53.4992H58.6145V47.1218H59.5026C60.0355 47.1218 60.5684 47.2989 61.1012 47.6532C61.6341 48.0075 62.1669 48.7161 62.8774 49.779L65.1865 53.322H67.6732L65.3641 49.6019ZM62.1669 44.8188C61.6341 45.1731 60.9236 45.3503 60.0355 45.3503H58.6145V40.7444H60.3907C61.2788 40.7444 61.8117 40.9215 62.1669 41.2758C62.5222 41.6301 62.8774 42.1616 62.8774 42.8702C63.055 43.9331 62.6998 44.4645 62.1669 44.8188Z" fill="#fff"/>
<path d="M77.4423 46.0589C76.9094 45.3503 76.3766 44.6417 75.6661 44.2874C74.9556 43.9331 74.0675 43.7559 73.0018 43.7559C71.9361 43.7559 71.048 43.9331 70.3375 44.4645C69.627 44.996 68.9165 45.5274 68.5613 46.236C68.2061 46.9446 67.8508 47.8304 67.8508 48.8933C67.8508 49.779 68.0284 50.4876 68.3837 51.1962C68.7389 51.9048 69.2718 52.6134 70.1599 52.9677C70.8704 53.4992 71.9361 53.6763 72.8242 53.6763C73.7123 53.6763 74.4228 53.4992 75.3109 53.1449C76.0213 52.7906 76.7318 52.2591 77.2647 51.5505C77.7975 50.8419 77.9752 49.9562 77.9752 48.7161C78.1528 47.6532 77.9752 46.7675 77.4423 46.0589ZM75.3109 51.0191C74.778 51.5505 73.8899 51.9048 73.0018 51.9048C72.1137 51.9048 71.2256 51.5505 70.6927 51.0191C70.1599 50.4876 69.8046 49.6019 69.8046 48.7161C69.8046 47.6532 70.1599 46.9446 70.6927 46.4132C71.2256 45.8817 71.9361 45.5274 73.0018 45.5274C74.0675 45.5274 74.6004 45.8817 75.3109 46.4132C76.0213 46.9446 76.199 47.8304 76.199 48.8933C76.199 49.6019 75.8437 50.3105 75.3109 51.0191Z" fill="#fff"/>
<path d="M85.7904 43.9331L83.3038 49.2476L80.6395 43.9331H78.508L82.238 51.3733L79.0409 58.2822H81.1723L87.9219 43.7559H85.7904V43.9331Z" fill="#fff"/>
<path d="M95.5595 52.082C95.3819 52.082 95.2042 51.9048 95.2042 51.5505V46.7675C95.2042 45.8818 94.849 44.996 94.3161 44.4646C93.7833 43.9331 92.8952 43.5788 91.8295 43.5788C90.4085 43.5788 89.3428 43.9331 88.6323 44.8189V46.9447C89.1652 46.4132 89.5204 46.0589 90.0533 45.7046C90.5861 45.3503 91.119 45.3503 91.6518 45.3503C92.1847 45.3503 92.7176 45.5275 92.8952 45.7046C93.2504 45.8818 93.2504 46.4132 93.2504 46.9447V47.4761L92.7176 47.8304C91.8295 48.1847 91.119 48.3618 90.4085 48.7161C89.8757 48.8933 89.3428 49.2476 88.9876 49.779C88.6323 50.1333 88.4547 50.6648 88.4547 51.3734C88.4547 52.082 88.6323 52.6134 89.1652 52.9677C89.698 53.322 90.2309 53.6763 90.7637 53.6763C91.6518 53.6763 92.5399 53.322 93.428 52.7906C93.6057 53.4992 93.9609 53.6763 94.6714 53.6763C95.2042 53.6763 95.9147 53.4992 96.6252 52.9677V51.5505C96.0923 51.9048 95.9147 52.082 95.5595 52.082ZM93.428 51.5505C92.8952 52.082 92.3623 52.2591 91.8295 52.2591C91.4742 52.2591 91.119 52.082 90.7637 51.9048C90.5861 51.7277 90.4085 51.3734 90.4085 51.0191C90.4085 50.4876 90.5861 50.1333 91.119 49.779C91.6518 49.4247 92.3623 49.0704 93.428 48.7161V51.5505Z" fill="#fff"/>
<path d="M98.2238 38.9729V53.4992H100.178V38.9729H98.2238Z" fill="#fff"/>
</g>
</svg>
