<svg id="Layer_1" data-name="Layer 1" xmlns="http://www.w3.org/2000/svg" viewBox="0 0 554 270"><defs><style>.cls-1{fill:#7d1c12;}.cls-2{fill:#7a180f;}.cls-3{fill:#fff;}.cls-4{fill:#fefefc;}.cls-5{fill:#fcf8f7;}.cls-6{fill:#fefefe;}.cls-7{fill:#fefdfd;}.cls-8{fill:#fefcfb;}.cls-9{fill:#fdfbfb;}.cls-10{fill:#fefcfc;}.cls-11{fill:#fdfcfb;}.cls-12{fill:#fdfbfa;}.cls-13{fill:#fefdfc;}.cls-14{fill:#fdfaf9;}.cls-15{fill:#fcf9f7;}</style></defs><title>1575555698840622 [Відновлено]</title><path class="cls-1" d="M197.94,205.94c.63.87-.09,1.25-.63,1.63a10.28,10.28,0,0,1-6,1.71,9.24,9.24,0,0,1-9-6,9.37,9.37,0,0,1,2.68-10.5,10.82,10.82,0,0,1,11.87-.67c.82.53,1.62.94.94,2.15s-1.28.74-2.24.34c-4.89-2-8.18-1.17-9.82,2.61a6.07,6.07,0,0,0,1,6.85,6.34,6.34,0,0,0,7,1.83,21.63,21.63,0,0,0,2.22-1C197,204.48,197.46,205.29,197.94,205.94Z"/><path class="cls-1" d="M73,117.21a25.24,25.24,0,0,1,8.69-12.07c12.14-9.85,25.91-14.75,41.65-13.3,14.83,1.37,17.17,13.14,14.27,22.73-3,9.82-9.51,17.37-16.23,24.74-3.63,4-7.55,7.7-11.25,11.63-3.46,3.66-4.35,6.79-2.77,9s5.25,2.29,9.46.25c8.3-4,14.79-10.37,20.49-17.38,8.51-10.45,16.67-21.18,24.72-32,2.18-2.92,4.37-4.58,8.08-3.94a31.43,31.43,0,0,0,4.64,0L143.7,144.63c-2.31,2.81-4.72,5.54-6.92,8.42-1.51,2-2.84,4.32-1.11,6.74,1.59,2.22,4,2,6.42,1.39,4-1,7.24-3.2,10.4-5.63,9.43-7.22,16.46-16.62,23.56-26,5-6.52,10.08-12.94,14.85-19.61,1.8-2.51,3.75-3.52,6.7-3.15a49.79,49.79,0,0,0,5.41,0c-8.32,10.61-16.27,20.69-24.15,30.83-4.31,5.55-9,10.8-12.58,16.89-1,1.8-3.27,4-1.44,6s4.42.52,6.58-.34a25,25,0,0,0,7.55-5.06c2-1.83,4-3.58,6.06-5.35.44-.39,1-.82,1.55-.42a1,1,0,0,1,.06,1.54c-5.83,5.77-11.51,12-20.32,12.84-5.63.56-7.41-2-7.32-9.92-1.93,1.49-3.62,2.8-5.34,4.09a37.84,37.84,0,0,1-11,6.07c-6.24,2-12.77-2.12-11.65-9.08a13.72,13.72,0,0,0,0-1.66c-3.23,2.45-6.13,4.76-9.14,6.89a24.89,24.89,0,0,1-8.14,4c-3.49.89-6.57.32-9-2.28s-2.47-6-1.37-9.22c1.56-4.58,4.82-8,8.11-11.32,6-6.1,12-12.18,17.28-19a36.71,36.71,0,0,0,6.06-11c2.92-8.83-.89-15.76-10.13-16.92-17.8-2.23-32.94,3.65-45.4,16.42a16.81,16.81,0,0,0-4.46,8.64c-1.85,9.62,5,16,15.33,14.09,11-2,24.87-14.76,24.82-26.84,0-1.17-.22-3.08,1.56-2.89,1.34.13,1,1.9,1,3-.75,14.47-17.44,29.71-31.92,29.18C75.61,135.68,69.91,127.13,73,117.21Z"/><path class="cls-1" d="M212.12,207.25c0,1,.11,1.87-1.37,1.82s-1.39-.91-1.39-1.89c0-2.23-.07-4.46,0-6.68.08-2-.63-3.42-2.65-3.25s-4,.65-4,3.42c0,2.11,0,4.22,0,6.32,0,1.12,0,2.11-1.57,2.06s-1.17-1.16-1.17-2c0-4.56,0-9.13,0-13.7,0-1-.36-2.25,1.4-2.16,1.36.08,1.34,1,1.35,2,0,.8.1,1.6.15,2.42a32.55,32.55,0,0,1,4.23-.61c3.39,0,4.91,1.51,5,4.88C212.15,202.32,212.12,204.78,212.12,207.25Z"/><path class="cls-1" d="M226.13,201.32c0,.82,0,1.64,0,2.46,0,4.84,0,4.84-4.84,5.3-5,.48-7.75-1-7.84-4.16s2.93-5.13,7.85-4.85c.65,0,1.64,1,1.94-.42.19-.93-.45-1.51-1.17-2-1.44-.92-2.91-.51-4.39-.11-.72.2-1.65.72-1.93-.58-.23-1.07.54-1.36,1.36-1.68C222.11,193.4,226.06,196,226.13,201.32Z"/><path class="cls-1" d="M237.18,207.35c.24,1.39-1.45,1.15-2.3,1.55a3.65,3.65,0,0,1-1.52.2c-3.3.12-4.68-1.09-4.5-4,.11-1.74,0-3.5,0-5.25,0-.58.1-1.56-.15-1.68-5-2.27,1.56-3.15.63-5,0-.07,1.7-.62,1.73-.08.15,2.8,2.11,2.19,3.77,2.26.8,0,1.77,0,1.63,1.23-.09.92-.88.84-1.56,1-1.2.3-3.27-1-3.49,1.08-.24,2.37-.75,4.93.47,7.21a1.82,1.82,0,0,0,2.46.64C235.52,206.1,236.91,205.75,237.18,207.35Z"/><path class="cls-1" d="M250.59,197.09c1,1,2.08,2.27,1.58,3.68s-2.23.56-3.38.75a14.22,14.22,0,0,1-2.45,0,8,8,0,0,0-2.1,0c-1.2.33-3.32-1-3.49,1a4.06,4.06,0,0,0,3.39,4.3,5,5,0,0,0,5.12-1.5c.87-1,1.58-.57,2.35.13s.08,1.21-.33,1.68c-2.36,2.68-8.54,2.86-11.29.35a7.48,7.48,0,0,1-.18-10.66A8,8,0,0,1,250.59,197.09Z"/><path class="cls-1" d="M265.57,201.25c0,.82,0,1.63,0,2.46,0,5,0,5-4.82,5.39l-.35,0c-4.89.4-7.3-1-7.36-4.27s2.91-5,7.53-4.85c.68,0,1.89,1.38,2.14-.46.17-1.28-.8-1.91-1.83-2.24a6.52,6.52,0,0,0-3.78.32c-.73.2-1.66.63-1.91-.65-.22-1.11.63-1.34,1.41-1.64C261.57,193.4,265.56,196,265.57,201.25Z"/><path class="cls-1" d="M280.19,202.1c0,2,.46,4.12-.11,5.92-.91,2.86-3.19,0-5,.64-5,1.61-7.39-.56-7.4-5.84,0-1.87,0-3.74,0-5.61,0-.75-.27-1.73,1-1.78s1.67.5,1.65,1.68c0,2.1,0,4.2,0,6.31,0,2.28,1,3.69,3.32,3.45,2-.2,4-.63,3.82-3.46-.13-2,0-4,0-6,0-.86-.32-2,1.18-2s1.58,1,1.56,2.11c0,1.51,0,3,0,4.56Z"/><path class="cls-1" d="M204.15,145.72c.41.36.94,1,1.47.37,2.22-2.51,5-.93,8.42-1.49l-12.7,16.92c6.35-1.77,10.2-6.66,14.63-10.8a4.84,4.84,0,0,0,2.48-2.41,42.15,42.15,0,0,1,4.19-3.11c3.91-2.24,6.19-1.28,7.62,3.25,1.39-.89,2.73-1.77,4.08-2.6,1.8-1.11,3.73-2.44,5.85-1.37s1.37,3.36,1,5.44c2.82-1.65,5.3-3.13,7.82-4.55a8.7,8.7,0,0,1,4.68-1.2c1.18.06,2.42-.1,3.1,1.15a3.19,3.19,0,0,1-.53,3.59c-2.42,3.3-4.88,6.56-7.26,9.89-.41.57-1.52,1.14-.66,2s1.52,0,2.21-.37a66,66,0,0,0,9.39-6.08c.77-.56,1.46-1.69,2.69-.77.63-2.8,3.9-3.37,4.9-5.85,2.89-1.77,5.77-3.51,9.34-3.58,4.87-.09,6.89,2.58,5.18,7.17a48.38,48.38,0,0,1-2.61,5c3.57-1.18,5.85-3.65,8.46-5.63.75-.57,1.62-2.06,2.53-1,1.18,1.32-.61,2.06-1.37,2.65a68.94,68.94,0,0,1-18.7,11c-6.82,2.49-9.32.89-10-6-3,1.94-6,4-9.1,5.77-2.28,1.28-5,2.19-7.16-.06s-1.25-5,.25-7.39c1.7-2.65,3.64-5.15,5.85-8.21a24.37,24.37,0,0,0-9.11,5.59,35.52,35.52,0,0,0-6.28,6.61c-2.65,4-6,5.06-10.85,3.89l12.72-16.11a29.52,29.52,0,0,0-12,8.06,28.26,28.26,0,0,0-3.38,4c-2.3,3.7-5.33,5.42-10.27,3.94l12.06-14.61c-1.74-.42-2.35.77-3.27.9a3.91,3.91,0,0,1-2.36,2.27c-4.13,3.8-7.88,8.06-12.85,10.83-2.64,1.48-5.39,2.84-7.51-.85-.73-1.26-1.35-.27-1.93.15-2.49,1.78-5.34,3.46-8,1.13s-1.18-5.46,0-8.17a20,20,0,0,1,7.88-9.21C198,144,201.08,143,204.15,145.72Z"/><path class="cls-1" d="M260.53,112.19c-.87-14.87-4.63-28.8-13.37-41.06l2.23-.06q10.21-.27,20.65-.27h1.18q4.69,0,9.35.07,10,.14,19.86.53l3.37.14a25.28,25.28,0,0,1-2.22,3.4c-5.75,8.37-10.61,17.12-11.68,27.46-.32,3.14-.44,6.31-.51,9.47,0,1.49-.2,2.31-2,2.42-8.19.49-16.37,1-24.56-.15C261.58,114,260.63,113.91,260.53,112.19Z"/><path class="cls-1" d="M306,201.71c1.61,2.12,3,4.37,4.74,6.85-2.35,1-3.7.56-4.75-1.37s-2.58-3.89-3.89-5.82a2.54,2.54,0,0,0-3.06-1.11c-1.18.37-.8,1.54-.82,2.43,0,1.63-.07,3.27,0,4.91.06,1.36-.71,1.46-1.77,1.47s-1.39-.49-1.39-1.48c0-4.92,0-9.83,0-14.74,0-1.17.35-1.72,1.6-1.66,2.45.11,4.91.08,7.36.23a3.94,3.94,0,0,1,3.52,3,3.33,3.33,0,0,1-1.21,4.07C304.56,199.59,305,200.4,306,201.71Z"/><path class="cls-1" d="M325.67,202.19c-.07,4.29-3,7.11-7.43,7.1s-7.36-3-7.29-7.2a7,7,0,0,1,7.42-7.13C322.68,195,325.73,198,325.67,202.19Z"/><path class="cls-1" d="M340.89,198c-2.1,4.8-4.3,9.56-6.43,14.36a5,5,0,0,1-5.28,3.2c-.78,0-1.68,0-1.65-1.27,0-1,.6-.92,1.32-1.11,3.56-.93,4.61-3.38,3-6.68-1.44-2.92-2.94-5.82-4.31-8.77-.3-.66-1.62-1.62-.08-2.25a1.93,1.93,0,0,1,2.64,1c1.35,2.79,2.76,5.56,4.49,9,1.49-3.35,2.66-5.88,3.75-8.45.51-1.23,1.3-2.15,2.61-1.61C342.56,196.19,341.23,197.27,340.89,198Z"/><path class="cls-1" d="M354.86,201.53c0,.7,0,1.4,0,2.11,0,4.94,0,5-4.68,5.42a15.24,15.24,0,0,1-4.16,0c-2.09-.39-3.61-1.48-3.73-3.93a4.11,4.11,0,0,1,3.15-4.45,11.87,11.87,0,0,1,4.48-.59c.68,0,1.72,1,2.06-.29s-.69-1.9-1.67-2.32a5.84,5.84,0,0,0-3.76.09c-.65.15-1.82,1.31-2.11-.51-.22-1.33.78-1.49,1.66-1.77C351.38,193.6,354.82,196.07,354.86,201.53Z"/><path class="cls-1" d="M359.47,207.59c0,1-.32,1.51-1.41,1.44s-1-.74-1-1.46q0-7.52,0-15c0-.8.25-1.33,1.19-1.31s1.23.49,1.23,1.32c0,2.56,0,5.13,0,7.7S359.44,205.14,359.47,207.59Z"/><path class="cls-1" d="M304.17,156.36c7.42,5.68,15.87,6.24,24.39,3.77,14.07-4.06,24.37-13.55,33.39-24.63a1.71,1.71,0,0,0-.07-2.45,6.37,6.37,0,0,1-1.2-5c3.2-.54,2,3.18,4.08,4,1-1.48,2.1-3,3.15-4.54,6.23-9.08,12.65-18,20.37-25.93,1.58-1.62,5.15-2.73,4.25-5.08-.8-2.09-4.18-2.64-6.63-3.45a8.14,8.14,0,0,0-1.37-.3q-26.43-3.9-46.44,13.8a20.36,20.36,0,0,0-5.28,7.36c-3.58,8.43,1.2,16.09,10.37,16.64,15,.91,30.11-16.09,27.53-31-.18-1-1-2.68.68-2.9,1.33-.18,1.71,1.55,1.82,2.61.46,4.69.3,9.34-1.52,13.81-2.51,6.15-7,10.7-11.94,14.87-4.18,2.38-8.5,4.41-13.38,4.85-6.23.56-11.75-.86-15.42-6.3s-2.35-10.82.44-16c3.54-6.51,9.37-10.72,15.75-14.1a58.85,58.85,0,0,1,38-6.46,16.75,16.75,0,0,1,8.24,3.69c1.82,1.56,3.06,1.21,4.89.13,7.59-4.49,15.47-6.63,23.63-6.09q7.85,2,15.15,4.2a9,9,0,0,1,1.13.89,1.73,1.73,0,0,1,.57,2.19c-.63,1.18-1.45.34-2,0-12.46-8-24.67-5.63-36.84.76-1.94,1-2.42,1.82-1,3.87,3.72,5.46,3.67,11.63,1.82,17.58-3.49,11.21-10.42,19.23-22.44,21.8-1.14.24-2.48.65-3.46.28-4.57-1.7-6.62.77-9.13,4.18-12.54,17-36.43,25.18-54.89,19.15-4.64-1.51-8.87-3.73-12-7.62-4-5.12-3.73-11.5.7-16.31,11.58-12.6,35-11.72,45.66,1.73a12.4,12.4,0,0,1,1.14,1.75,1.13,1.13,0,0,1-.23,1.56c-.63.53-1.13.08-1.51-.27-.77-.73-1.43-1.55-2.15-2.32-9.7-10.44-26.66-12-38.09-3.41C296.93,143.25,296.82,150.73,304.17,156.36Z"/><path class="cls-1" d="M430.39,159.25a51.13,51.13,0,0,0,13-10.59c2.85-3.4,6.09-4.93,10.74-3.52-3.48,5.32-8.51,9.64-12.17,16,7.3-1.66,11.38-6.94,16.87-9.85-4.11,5.89-9.13,10.61-16.18,12.34-4.11,1-4.36-2.37-4.69-5.45-3.29,1.87-6.12,4.18-9.63,5.22-4.54,1.35-6.18.44-7-4.12-2.15,1.14-4.23,2.44-6.46,3.39-5.47,2.35-7.06,1.3-7.13-4.76-3.32,1.82-6.15,4.26-9.69,5.38-5.65,1.78-7.51.27-6.59-5.85-3.3,1.73-6.38,3.43-9.55,5a15.56,15.56,0,0,1-6.73,1.8c-4,0-6-2.31-5.34-6.32,1.25-7.35,10.77-14.51,18.18-13.69,3.18.35,4.63,3.22,3.32,7a41.31,41.31,0,0,1-2.58,5c1.77-.18,2.74-1.44,4-2l4.32-3.65c.89-.32,1.69-2.11,2.54-.94,1.13,1.57-.89,2.23-1.72,3.18-.76,1.44-2.46,1.65-3.51,2.71.39,2-2.34,4.37,0,5.78,2.15,1.3,4.37-.77,6.38-1.78a9,9,0,0,0,3.85-2.94c-3.35-1.17-4.15-2.89-2.84-6,2.25-5.35,8.94-8,14.4-6.11,1.77.62,3.94-.54,6.36,0-2.9,3.67-5.75,7.15-8.46,10.75-1.13,1.51-3.35,3.56-2,5s3.54-.63,5.16-1.54c2.54-1.43,4.68-3.79,8-3.26A41.5,41.5,0,0,0,428,152a1.16,1.16,0,0,1,2-.35c.76.66-.06,1.17-.44,1.7-.84,1.18-2.21,1.53-3.36,2.23-.58,1.82-3.38,3.61-1.34,5.42C426.76,162.65,428.7,160.28,430.39,159.25Z"/><path class="cls-1" d="M481.63,172.14c0,1.21-.88,1.21-1.7,1.24s-1.88,0-2.82,0H64.54c-.87,0-1.63-.11-1.65-1.3s.56-1.68,1.71-1.63c.82,0,1.64,0,2.46,0H477.51c.82,0,1.64,0,2.46,0C481.18,170.4,481.66,171,481.63,172.14Z"/><path class="cls-2" d="M197.94,205.94c.63.87-.09,1.25-.63,1.63a10.28,10.28,0,0,1-6,1.71,9.24,9.24,0,0,1-9-6,9.37,9.37,0,0,1,2.68-10.5,10.82,10.82,0,0,1,11.87-.67c.82.53,1.62.94.94,2.15s-1.28.74-2.24.34c-4.89-2-8.18-1.17-9.82,2.61a6.07,6.07,0,0,0,1,6.85,6.34,6.34,0,0,0,7,1.83,21.63,21.63,0,0,0,2.22-1C197,204.48,197.46,205.29,197.94,205.94Z"/><path class="cls-2" d="M73,117.21a25.24,25.24,0,0,1,8.69-12.07c12.14-9.85,25.91-14.75,41.65-13.3,14.83,1.37,17.17,13.14,14.27,22.73-3,9.82-9.51,17.37-16.23,24.74-3.63,4-7.55,7.7-11.25,11.63-3.46,3.66-4.35,6.79-2.77,9s5.25,2.29,9.46.25c8.3-4,14.79-10.37,20.49-17.38,8.51-10.45,16.67-21.18,24.72-32,2.18-2.92,4.37-4.58,8.08-3.94a31.43,31.43,0,0,0,4.64,0L143.7,144.63c-2.31,2.81-4.72,5.54-6.92,8.42-1.51,2-2.84,4.32-1.11,6.74,1.59,2.22,4,2,6.42,1.39,4-1,7.24-3.2,10.4-5.63,9.43-7.22,16.46-16.62,23.56-26,5-6.52,10.08-12.94,14.85-19.61,1.8-2.51,3.75-3.52,6.7-3.15a49.79,49.79,0,0,0,5.41,0c-8.32,10.61-16.27,20.69-24.15,30.83-4.31,5.55-9,10.8-12.58,16.89-1,1.8-3.27,4-1.44,6s4.42.52,6.58-.34a25,25,0,0,0,7.55-5.06c2-1.83,4-3.58,6.06-5.35.44-.39,1-.82,1.55-.42a1,1,0,0,1,.06,1.54c-5.83,5.77-11.51,12-20.32,12.84-5.63.56-7.41-2-7.32-9.92-1.93,1.49-3.62,2.8-5.34,4.09a37.84,37.84,0,0,1-11,6.07c-6.24,2-12.77-2.12-11.65-9.08a13.72,13.72,0,0,0,0-1.66c-3.23,2.45-6.13,4.76-9.14,6.89a24.89,24.89,0,0,1-8.14,4c-3.49.89-6.57.32-9-2.28s-2.47-6-1.37-9.22c1.56-4.58,4.82-8,8.11-11.32,6-6.1,12-12.18,17.28-19a36.71,36.71,0,0,0,6.06-11c2.92-8.83-.89-15.76-10.13-16.92-17.8-2.23-32.94,3.65-45.4,16.42a16.81,16.81,0,0,0-4.46,8.64c-1.85,9.62,5,16,15.33,14.09,11-2,24.87-14.76,24.82-26.84,0-1.17-.22-3.08,1.56-2.89,1.34.13,1,1.9,1,3-.75,14.47-17.44,29.71-31.92,29.18C75.61,135.68,69.91,127.13,73,117.21Z"/><path class="cls-2" d="M212.12,207.25c0,1,.11,1.87-1.37,1.82s-1.39-.91-1.39-1.89c0-2.23-.07-4.46,0-6.68.08-2-.63-3.42-2.65-3.25s-4,.65-4,3.42c0,2.11,0,4.22,0,6.32,0,1.12,0,2.11-1.57,2.06s-1.17-1.16-1.17-2c0-4.56,0-9.13,0-13.7,0-1-.36-2.25,1.4-2.16,1.36.08,1.34,1,1.35,2,0,.8.1,1.6.15,2.42a32.55,32.55,0,0,1,4.23-.61c3.39,0,4.91,1.51,5,4.88C212.15,202.32,212.12,204.78,212.12,207.25Z"/><path class="cls-2" d="M226.13,201.32c0,.82,0,1.64,0,2.46,0,4.84,0,4.84-4.84,5.3-5,.48-7.75-1-7.84-4.16s2.93-5.13,7.85-4.85c.65,0,1.64,1,1.94-.42.19-.93-.45-1.51-1.17-2-1.44-.92-2.91-.51-4.39-.11-.72.2-1.65.72-1.93-.58-.23-1.07.54-1.36,1.36-1.68C222.11,193.4,226.06,196,226.13,201.32Z"/><path class="cls-2" d="M237.18,207.35c.24,1.39-1.45,1.15-2.3,1.55a3.65,3.65,0,0,1-1.52.2c-3.3.12-4.68-1.09-4.5-4,.11-1.74,0-3.5,0-5.25,0-.58.1-1.56-.15-1.68-5-2.27,1.56-3.15.63-5,0-.07,1.7-.62,1.73-.08.15,2.8,2.11,2.19,3.77,2.26.8,0,1.77,0,1.63,1.23-.09.92-.88.84-1.56,1-1.2.3-3.27-1-3.49,1.08-.24,2.37-.75,4.93.47,7.21a1.82,1.82,0,0,0,2.46.64C235.52,206.1,236.91,205.75,237.18,207.35Z"/><path class="cls-2" d="M250.59,197.09c1,1,2.08,2.27,1.58,3.68s-2.23.56-3.38.75a14.22,14.22,0,0,1-2.45,0,8,8,0,0,0-2.1,0c-1.2.33-3.32-1-3.49,1a4.06,4.06,0,0,0,3.39,4.3,5,5,0,0,0,5.12-1.5c.87-1,1.58-.57,2.35.13s.08,1.21-.33,1.68c-2.36,2.68-8.54,2.86-11.29.35a7.48,7.48,0,0,1-.18-10.66A8,8,0,0,1,250.59,197.09Z"/><path class="cls-2" d="M265.57,201.25c0,.82,0,1.63,0,2.46,0,5,0,5-4.82,5.39l-.35,0c-4.89.4-7.3-1-7.36-4.27s2.91-5,7.53-4.85c.68,0,1.89,1.38,2.14-.46.17-1.28-.8-1.91-1.83-2.24a6.52,6.52,0,0,0-3.78.32c-.73.2-1.66.63-1.91-.65-.22-1.11.63-1.34,1.41-1.64C261.57,193.4,265.56,196,265.57,201.25Z"/><path class="cls-2" d="M280.19,202.1c0,2,.46,4.12-.11,5.92-.91,2.86-3.19,0-5,.64-5,1.61-7.39-.56-7.4-5.84,0-1.87,0-3.74,0-5.61,0-.75-.27-1.73,1-1.78s1.67.5,1.65,1.68c0,2.1,0,4.2,0,6.31,0,2.28,1,3.69,3.32,3.45,2-.2,4-.63,3.82-3.46-.13-2,0-4,0-6,0-.86-.32-2,1.18-2s1.58,1,1.56,2.11c0,1.51,0,3,0,4.56Z"/><path class="cls-2" d="M290.49,149.68c-.91-1-1.77.48-2.53,1-2.61,2-4.89,4.45-8.46,5.63a48.38,48.38,0,0,0,2.61-5c1.7-4.59-.32-7.26-5.18-7.17-3.57.06-6.45,1.8-9.34,3.58-1,2.48-4.27,3.06-4.9,5.85-1.23-.92-1.92.21-2.69.77a66,66,0,0,1-9.39,6.08c-.69.35-1.46,1.14-2.21.37s.25-1.46.66-2c2.38-3.32,4.84-6.59,7.26-9.89a3.19,3.19,0,0,0,.53-3.59c-.68-1.25-1.92-1.09-3.1-1.15a8.7,8.7,0,0,0-4.68,1.2c-2.52,1.42-5,2.9-7.82,4.55.33-2.08,1.13-4.36-1-5.44s-4,.27-5.85,1.37c-1.36.83-2.69,1.71-4.08,2.6-1.43-4.54-3.71-5.49-7.62-3.25a42.15,42.15,0,0,0-4.19,3.11,4.84,4.84,0,0,1-2.48,2.41c-4.44,4.13-8.29,9-14.63,10.8L214,144.61c-3.39.56-6.2-1-8.42,1.49-.53.59-1.06,0-1.47-.37-3.06-2.68-6.15-1.72-9,.13a20,20,0,0,0-7.88,9.21c-1.13,2.7-2.55,5.86,0,8.17s5.49.65,8-1.13c.58-.42,1.2-1.42,1.93-.15,2.12,3.68,4.87,2.32,7.51.85,5-2.77,8.73-7,12.85-10.83a3.91,3.91,0,0,0,2.36-2.27c.92-.13,1.53-1.32,3.27-.9L211.1,163.4c4.94,1.49,8-.24,10.27-3.94a28.26,28.26,0,0,1,3.38-4,29.52,29.52,0,0,1,12-8.06L224,163.47c4.82,1.17,8.2.08,10.85-3.89a35.52,35.52,0,0,1,6.28-6.61,24.37,24.37,0,0,1,9.11-5.59c-2.2,3.06-4.15,5.56-5.85,8.21-1.5,2.35-2.55,5-.25,7.39s4.88,1.34,7.16.06c3.13-1.75,6.07-3.83,9.1-5.77.71,6.92,3.22,8.52,10,6a68.94,68.94,0,0,0,18.7-11C289.88,151.75,291.67,151,290.49,149.68Zm-98.25,11.8c-.49.37-1,.55-1.56,0a1.3,1.3,0,0,1-.1-1.6c2.34-5.1,6.21-9,10.08-12.87a1.2,1.2,0,0,1,1.84,0c.54.45,1.11.89,1.1,1.7a1.51,1.51,0,0,1-.15.3C199.85,153.29,196.8,158.06,192.24,161.48Zm85.94-12.32a35.09,35.09,0,0,1-8.87,11.21,23.42,23.42,0,0,1-2.48,1.54c-1.49-.35-1.32-1-.79-1.86,2.87-4.54,5.68-9.15,9.7-12.82.75-.69,1.75-1.52,2.77-.61S278.57,148.43,278.18,149.16Z"/><path class="cls-2" d="M246.7,70.49c-.1-.13,0-.44.17-1.19,5.87,4.11,11.54,8,17.15,12,2.35,1.68,3.56,1.88,4.51-1.55,2.12-7.72,4.76-15.3,7.53-24,2.87,9.59,5.44,18.23,8.08,27.08,7-4.46,13.06-9.77,20.4-14.08-.24,2.75-1.77,4.39-3,6.13-5.75,8.37-10.61,17.12-11.68,27.46-.32,3.14-.44,6.31-.51,9.47,0,1.49-.2,2.31-2,2.42-8.19.49-16.37,1-24.56-.15-1.2-.17-2.15-.21-2.25-1.93C259.64,97.07,255.77,82.92,246.7,70.49Z"/><path class="cls-2" d="M306,201.71c1.61,2.12,3,4.37,4.74,6.85-2.35,1-3.7.56-4.75-1.37s-2.58-3.89-3.89-5.82a2.54,2.54,0,0,0-3.06-1.11c-1.18.37-.8,1.54-.82,2.43,0,1.63-.07,3.27,0,4.91.06,1.36-.71,1.46-1.77,1.47s-1.39-.49-1.39-1.48c0-4.92,0-9.83,0-14.74,0-1.17.35-1.72,1.6-1.66,2.45.11,4.91.08,7.36.23a3.94,3.94,0,0,1,3.52,3,3.33,3.33,0,0,1-1.21,4.07C304.56,199.59,305,200.4,306,201.71Z"/><path class="cls-2" d="M325.67,202.19c-.07,4.29-3,7.11-7.43,7.1s-7.36-3-7.29-7.2a7,7,0,0,1,7.42-7.13C322.68,195,325.73,198,325.67,202.19Z"/><path class="cls-2" d="M340.89,198c-2.1,4.8-4.3,9.56-6.43,14.36a5,5,0,0,1-5.28,3.2c-.78,0-1.68,0-1.65-1.27,0-1,.6-.92,1.32-1.11,3.56-.93,4.61-3.38,3-6.68-1.44-2.92-2.94-5.82-4.31-8.77-.3-.66-1.62-1.62-.08-2.25a1.93,1.93,0,0,1,2.64,1c1.35,2.79,2.76,5.56,4.49,9,1.49-3.35,2.66-5.88,3.75-8.45.51-1.23,1.3-2.15,2.61-1.61C342.56,196.19,341.23,197.27,340.89,198Z"/><path class="cls-2" d="M354.86,201.53c0,.7,0,1.4,0,2.11,0,4.94,0,5-4.68,5.42a15.24,15.24,0,0,1-4.16,0c-2.09-.39-3.61-1.48-3.73-3.93a4.11,4.11,0,0,1,3.15-4.45,11.87,11.87,0,0,1,4.48-.59c.68,0,1.72,1,2.06-.29s-.69-1.9-1.67-2.32a5.84,5.84,0,0,0-3.76.09c-.65.15-1.82,1.31-2.11-.51-.22-1.33.78-1.49,1.66-1.77C351.38,193.6,354.82,196.07,354.86,201.53Z"/><path class="cls-2" d="M359.47,207.59c0,1-.32,1.51-1.41,1.44s-1-.74-1-1.46q0-7.52,0-15c0-.8.25-1.33,1.19-1.31s1.23.49,1.23,1.32c0,2.56,0,5.13,0,7.7S359.44,205.14,359.47,207.59Z"/><path class="cls-2" d="M438.21,92.82A14.37,14.37,0,0,0,433,90.05c-12.17-4.27-23.73-2.7-34.7,3.78-1.83,1.08-3.08,1.43-4.89-.13A16.75,16.75,0,0,0,385.15,90a58.85,58.85,0,0,0-38,6.46c-6.38,3.38-12.21,7.58-15.75,14.1-2.79,5.15-4,10.65-.44,16s9.19,6.87,15.42,6.3c4.88-.44,9.2-2.47,13.38-4.85,5-4.18,9.42-8.73,11.94-14.87,1.82-4.47,2-9.12,1.52-13.81-.11-1.06-.49-2.8-1.82-2.61-1.69.23-.86,1.87-.68,2.9,2.58,14.94-12.49,31.94-27.53,31-9.16-.55-14-8.21-10.37-16.64a20.36,20.36,0,0,1,5.28-7.36q20-17.73,46.44-13.8a8.14,8.14,0,0,1,1.37.3c2.45.81,5.84,1.36,6.63,3.45.9,2.35-2.67,3.46-4.25,5.08-7.72,7.93-14.14,16.85-20.37,25.93-1,1.54-2.13,3.06-3.15,4.54-2-.86-.87-4.58-4.08-4a6.37,6.37,0,0,0,1.2,5,1.71,1.71,0,0,1,.07,2.45c-9,11.08-19.32,20.56-33.39,24.63-8.53,2.46-17,1.91-24.39-3.77s-7.24-13.11.18-18.66c11.43-8.55,28.39-7,38.09,3.41.72.77,1.38,1.59,2.15,2.32.38.36.87.8,1.51.27a1.13,1.13,0,0,0,.23-1.56,12.4,12.4,0,0,0-1.14-1.75c-10.62-13.45-34.08-14.33-45.66-1.73-4.42,4.81-4.75,11.19-.7,16.31,3.09,3.89,7.32,6.11,12,7.62,18.46,6,42.35-2.15,54.89-19.15,2.51-3.4,4.56-5.88,9.13-4.18,1,.37,2.32,0,3.46-.28,12-2.58,19-10.59,22.44-21.8,1.85-5.94,1.89-12.12-1.82-17.58-1.39-2-.91-2.85,1-3.87,12.17-6.39,24.37-8.81,36.84-.76.59.39,1.41,1.23,2,0A1.73,1.73,0,0,0,438.21,92.82Zm-40.84,26.44C393.2,128.57,387,135.61,376,136.68a8.74,8.74,0,0,1-1.71.08c-1.15-.11-2.3-.3-3.73-.49,3.61-7.18,7-13.93,10.38-20.7,2.92-5.87,7.42-10.4,12.11-14.86,2.29-2.18,3.12-1.17,4.18,1A19.74,19.74,0,0,1,397.37,119.26Z"/><path class="cls-2" d="M442,161.14c3.65-6.36,8.69-10.68,12.17-16-4.65-1.41-7.89.12-10.74,3.52a51.13,51.13,0,0,1-13,10.59c-1.69,1-3.63,3.39-5.51,1.72-2-1.81.75-3.59,1.34-5.42,1.15-.7,2.52-1,3.36-2.23.37-.53,1.2-1,.44-1.7a1.16,1.16,0,0,0-2,.35,41.5,41.5,0,0,1-2.7,3.51c-3.33-.53-5.46,1.83-8,3.26-1.63.92-3.82,3-5.16,1.54s.87-3.54,2-5c2.7-3.6,5.56-7.08,8.46-10.75-2.42-.58-4.58.58-6.36,0-5.46-1.9-12.15.75-14.4,6.11-1.31,3.13-.51,4.86,2.84,6a9,9,0,0,1-3.85,2.94c-2,1-4.23,3.08-6.38,1.78-2.34-1.41.39-3.8,0-5.78,1-1.06,2.75-1.27,3.51-2.71.82-1,2.85-1.61,1.72-3.18-.85-1.18-1.65.62-2.54.94l-4.32,3.65c-1.3.6-2.27,1.87-4,2a41.31,41.31,0,0,0,2.58-5c1.32-3.79-.13-6.65-3.32-7-7.41-.82-16.92,6.35-18.18,13.69-.69,4,1.3,6.35,5.34,6.32a15.56,15.56,0,0,0,6.73-1.8c3.17-1.54,6.25-3.25,9.55-5-.92,6.11.94,7.63,6.59,5.85,3.54-1.12,6.37-3.56,9.69-5.38.06,6.06,1.65,7.11,7.13,4.76,2.23-1,4.3-2.25,6.46-3.39.8,4.56,2.44,5.47,7,4.12,3.51-1,6.34-3.35,9.63-5.22.33,3.08.58,6.46,4.69,5.45,7-1.73,12.08-6.45,16.18-12.34C453.37,154.2,449.29,159.48,442,161.14ZM387.8,148.28a27.49,27.49,0,0,1-3,5.12,24.68,24.68,0,0,1-7.78,8c-.62.36-1.25.75-1.91.17-.44-.37-.21-.85,0-1.25,3-4.74,5.81-9.63,10.18-13.32a2.05,2.05,0,0,1,2.25-.55C388,146.64,388.1,147.13,387.8,148.28Zm17.32,6.3a26,26,0,0,1,6.87-9.35,1.15,1.15,0,0,1,1.59-.13c.66.54.15,1.12-.1,1.55C411.44,150,409.08,153.12,405.12,154.58Z"/><path class="cls-2" d="M518.61,103.13c-11.39-11.94-25.23-20.46-39.79-27.88C446.49,58.78,411.7,50.31,376.2,44.31a568.57,568.57,0,0,0-100.13-8c-40-.19-77.85,2.83-116.94,10.73-30.45,6.15-60.19,14.56-88.2,28.27C55,83,40.29,92.44,28.68,106.11c-17.11,20.13-18,44.15-2.46,65.37a93.55,93.55,0,0,0,17.92,18.27c18.47,14.48,39.51,24,61.58,31.28,32.35,10.72,65.73,16.56,99.48,20.32a654.5,654.5,0,0,0,95.08,3.89,619.53,619.53,0,0,0,67.54-5.78c34.29-5,67.47-13.73,99.3-27.55,19.83-8.61,38.42-19,53-35.37,8.71-9.77,14.93-20.63,15.23-34.16C535.71,126.76,529.09,114.11,518.61,103.13Zm-3.29,66.35C503.41,183.35,488.47,193,472,200.64a370.67,370.67,0,0,1-98.35,29.62c-30.87,4.92-61.92,7.07-97.49,7.1-45.61-.18-95-5.06-143.61-17.11-26.79-6.64-52.58-15.89-75.71-31.4a95.38,95.38,0,0,1-22.83-20.7c-15.3-19.8-14.25-40.75,2.93-59C50.34,94.9,66.94,85.64,84.56,78,112.93,65.76,142.63,58.09,173,52.71c37.39-6.63,75.13-9.06,113-8.32,51.85,1,103,7.32,152.54,23.23,23.26,7.46,45.39,17.46,64.76,32.75,8.54,6.75,16,14.44,20.44,24.63C531,141.7,526.67,156.28,515.32,169.48Z"/><path class="cls-1" d="M276.5,29.36c-151.88,0-275,49.74-275,111.09s123.12,111.09,275,111.09,275-49.74,275-111.09S428.38,29.36,276.5,29.36ZM520.13,176.55c-14.61,16.38-33.19,26.75-53,35.37-31.82,13.82-65,22.6-99.3,27.55a619.53,619.53,0,0,1-67.54,5.78,654.5,654.5,0,0,1-95.08-3.89c-33.75-3.76-67.13-9.61-99.48-20.32-22.08-7.32-43.11-16.8-61.58-31.28a93.55,93.55,0,0,1-17.92-18.27c-15.55-21.22-14.64-45.24,2.46-65.37C40.29,92.44,55,83,70.92,75.27c28-13.7,57.75-22.12,88.2-28.27,39.1-7.89,77-10.92,116.94-10.73a568.57,568.57,0,0,1,100.13,8c35.49,6,70.28,14.47,102.62,30.94,14.56,7.42,28.39,15.94,39.79,27.88,10.48,11,17.1,23.63,16.75,39.25C535.06,155.92,528.84,166.78,520.13,176.55Z"/><path class="cls-2" d="M481.63,172.14c0,1.21-.88,1.21-1.7,1.24s-1.88,0-2.82,0H64.54c-.87,0-1.63-.11-1.65-1.3s.56-1.68,1.71-1.63c.82,0,1.64,0,2.46,0H477.51c.82,0,1.64,0,2.46,0C481.18,170.4,481.66,171,481.63,172.14Z"/><path class="cls-2" d="M197.3,207.57a10.28,10.28,0,0,1-6,1.71,9.24,9.24,0,0,1-9-6,9.37,9.37,0,0,1,2.68-10.5,10.82,10.82,0,0,1,11.87-.67c.82.53,1.62.94.94,2.15s-1.28.74-2.24.34c-4.89-2-8.18-1.17-9.82,2.61a6.07,6.07,0,0,0,1,6.85,6.34,6.34,0,0,0,7,1.83,21.63,21.63,0,0,0,2.22-1c1-.42,1.45.39,1.92,1C198.57,206.8,197.85,207.18,197.3,207.57Z"/><path class="cls-2" d="M186.64,150.92c-5.83,5.77-11.51,12-20.32,12.84-5.63.56-7.41-2-7.32-9.92-1.93,1.49-3.62,2.8-5.34,4.09a37.84,37.84,0,0,1-11,6.07c-6.24,2-12.77-2.12-11.65-9.08a13.72,13.72,0,0,0,0-1.66c-3.23,2.45-6.13,4.76-9.14,6.89a24.89,24.89,0,0,1-8.14,4c-3.49.89-6.57.32-9-2.28s-2.47-6-1.37-9.22c1.56-4.58,4.82-8,8.11-11.32,6-6.1,12-12.18,17.28-19a36.71,36.71,0,0,0,6.06-11c2.92-8.83-.89-15.76-10.13-16.92-17.8-2.23-32.94,3.65-45.4,16.42a16.81,16.81,0,0,0-4.46,8.64c-1.85,9.62,5,16,15.33,14.09,11-2,24.87-14.76,24.82-26.84,0-1.17-.22-3.08,1.56-2.89,1.34.13,1,1.9,1,3-.75,14.47-17.44,29.71-31.92,29.18-10-.36-15.68-8.92-12.57-18.84a25.24,25.24,0,0,1,8.69-12.07c12.14-9.85,25.91-14.75,41.65-13.3,14.83,1.37,17.17,13.14,14.27,22.73-3,9.82-9.51,17.37-16.23,24.74-3.63,4-7.55,7.7-11.25,11.63-3.46,3.66-4.35,6.79-2.77,9s5.25,2.29,9.46.25c8.3-4,14.79-10.37,20.49-17.38,8.51-10.45,16.67-21.18,24.72-32,2.18-2.92,4.37-4.58,8.08-3.94a31.43,31.43,0,0,0,4.64,0L143.7,144.63c-2.31,2.81-4.72,5.54-6.92,8.42-1.51,2-2.84,4.32-1.11,6.74,1.59,2.22,4,2,6.42,1.39,4-1,7.24-3.2,10.4-5.63,9.43-7.22,16.46-16.62,23.56-26,5-6.52,10.08-12.94,14.85-19.61,1.8-2.51,3.75-3.52,6.7-3.15a49.79,49.79,0,0,0,5.41,0c-8.32,10.61-16.27,20.69-24.15,30.83-4.31,5.55-9,10.8-12.58,16.89-1,1.8-3.27,4-1.44,6s4.42.52,6.58-.34a25,25,0,0,0,7.55-5.06c2-1.83,4-3.58,6.06-5.35.44-.39,1-.82,1.55-.42A1,1,0,0,1,186.64,150.92Z"/><path class="cls-2" d="M212.12,207.25c0,1,.11,1.87-1.37,1.82s-1.39-.91-1.39-1.89c0-2.23-.07-4.46,0-6.68.08-2-.63-3.42-2.65-3.25s-4,.65-4,3.42c0,2.11,0,4.22,0,6.32,0,1.12,0,2.11-1.57,2.06s-1.17-1.16-1.17-2c0-4.56,0-9.13,0-13.7,0-1-.36-2.25,1.4-2.16,1.36.08,1.34,1,1.35,2,0,.8.1,1.6.15,2.42a32.55,32.55,0,0,1,4.23-.61c3.39,0,4.91,1.51,5,4.88C212.15,202.32,212.12,204.78,212.12,207.25Z"/><path class="cls-2" d="M217.11,195.31c-.82.32-1.58.61-1.36,1.68.27,1.3,1.21.78,1.93.58,1.49-.41,3-.81,4.39.11.72.46,1.36,1,1.17,2-.3,1.46-1.29.46-1.94.42-4.92-.28-7.94,1.56-7.85,4.85s2.82,4.64,7.84,4.16c4.84-.46,4.84-.46,4.84-5.3,0-.82,0-1.63,0-2.46C226.06,196,222.11,193.4,217.11,195.31Zm6.26,9.39c-.19,2.61-2.09,1.87-3.18,2.27-2-.09-3.89-.29-3.77-2.42s2.27-2.2,3.77-2.16C221.49,202.43,223.57,201.94,223.37,204.71Z"/><path class="cls-2" d="M234.87,208.9a3.65,3.65,0,0,1-1.52.2c-3.3.12-4.68-1.09-4.5-4,.11-1.74,0-3.5,0-5.25,0-.58.1-1.56-.15-1.68-5-2.27,1.56-3.15.63-5,0-.07,1.7-.62,1.73-.08.15,2.8,2.11,2.19,3.77,2.26.8,0,1.77,0,1.63,1.23-.09.92-.88.84-1.56,1-1.2.3-3.27-1-3.49,1.08-.24,2.37-.75,4.93.47,7.21a1.82,1.82,0,0,0,2.46.64c1.15-.49,2.54-.84,2.8.75C237.42,208.74,235.73,208.49,234.87,208.9Z"/><path class="cls-2" d="M244.24,201.59a8,8,0,0,1,2.1,0,14.22,14.22,0,0,0,2.45,0c1.15-.2,2.83.8,3.38-.75s-.61-2.65-1.58-3.68a8,8,0,0,0-10.79-.21,7.48,7.48,0,0,0,.18,10.66c2.75,2.51,8.93,2.32,11.29-.35.42-.47,1.17-.92.33-1.68s-1.48-1.13-2.35-.13a5,5,0,0,1-5.12,1.5,4.06,4.06,0,0,1-3.39-4.3C240.92,200.54,243,201.92,244.24,201.59Zm4.17-2.39h-6.83C243.92,196.39,246.12,196.83,248.41,199.2Z"/><path class="cls-2" d="M256.59,195.32c-.77.3-1.63.53-1.41,1.64.25,1.27,1.18.85,1.91.65a6.52,6.52,0,0,1,3.78-.32c1,.33,2,1,1.83,2.24-.25,1.85-1.46.49-2.14.46-4.62-.2-7.58,1.65-7.53,4.85s2.46,4.67,7.36,4.27l.35,0c4.82-.42,4.82-.42,4.82-5.39,0-.82,0-1.64,0-2.46C265.56,196,261.57,193.4,256.59,195.32Zm3.2,11.61c-1.85,0-3.77-.14-3.89-2.16s2.06-2.42,3.56-2.35c1.26.07,3.47-.74,3.47,2C262.93,207,261.23,206.79,259.8,206.94Z"/><path class="cls-2" d="M280.08,208c-.91,2.86-3.19,0-5,.64-5,1.61-7.39-.56-7.4-5.84,0-1.87,0-3.74,0-5.61,0-.75-.27-1.73,1-1.78s1.67.5,1.65,1.68c0,2.1,0,4.2,0,6.31,0,2.28,1,3.69,3.32,3.45,2-.2,4-.63,3.82-3.46-.13-2,0-4,0-6,0-.86-.32-2,1.18-2s1.58,1,1.56,2.11c0,1.51,0,3,0,4.56h0C280.19,204.09,280.65,206.22,280.08,208Z"/><path class="cls-2" d="M304.55,68.8a7.8,7.8,0,0,1-.75,2.73,25.28,25.28,0,0,1-2.22,3.4c-5.75,8.37-10.61,17.12-11.68,27.46-.32,3.14-.44,6.31-.51,9.47,0,1.49-.2,2.31-2,2.42-8.19.49-16.37,1-24.56-.15-1.2-.17-2.15-.21-2.25-1.93-.87-14.87-4.63-28.8-13.37-41.06l-.45-.63c-.1-.13,0-.44.17-1.19l2.51,1.76c5,3.48,9.83,6.85,14.64,10.27,2.35,1.68,3.56,1.88,4.51-1.55.82-3,1.73-6,2.68-9,1.51-4.77,3.15-9.68,4.85-15,1.56,5.24,3,10.2,4.5,15.06l3.58,12c5.61-3.6,10.67-7.75,16.27-11.49Q302.43,70,304.55,68.8Z"/><path class="cls-2" d="M306,201.71c-1-1.3-1.43-2.12.33-3.25a3.33,3.33,0,0,0,1.21-4.07,3.94,3.94,0,0,0-3.52-3c-2.45-.14-4.91-.11-7.36-.23-1.25-.06-1.61.49-1.6,1.66,0,4.91,0,9.82,0,14.74,0,1,.3,1.49,1.39,1.48s1.82-.11,1.77-1.47c-.07-1.63,0-3.27,0-4.91,0-.89-.37-2.06.82-2.43a2.54,2.54,0,0,1,3.06,1.11c1.31,1.94,2.77,3.78,3.89,5.82s2.4,2.33,4.75,1.37C309,206.08,307.61,203.82,306,201.71Zm-5.23-4c-1.31.11-2.7.22-2.66-2.17s1.39-2,2.79-2c1.65,0,3.62,0,3.58,2.24C304.43,197.93,302.55,197.74,300.77,197.73Z"/><path class="cls-2" d="M318.37,195a7,7,0,0,0-7.42,7.13c-.07,4.25,2.92,7.19,7.29,7.2s7.36-2.81,7.43-7.1S322.68,195,318.37,195Zm0,12.08c-2.53,0-4.35-2-4.36-4.82s1.73-4.89,4.29-4.89a4.56,4.56,0,0,1,4.44,4.84C322.75,205,320.91,207,318.37,207Z"/><path class="cls-2" d="M340.89,198c-2.1,4.8-4.3,9.56-6.43,14.36a5,5,0,0,1-5.28,3.2c-.78,0-1.68,0-1.65-1.27,0-1,.6-.92,1.32-1.11,3.56-.93,4.61-3.38,3-6.68-1.44-2.92-2.94-5.82-4.31-8.77-.3-.66-1.62-1.62-.08-2.25a1.93,1.93,0,0,1,2.64,1c1.35,2.79,2.76,5.56,4.49,9,1.49-3.35,2.66-5.88,3.75-8.45.51-1.23,1.3-2.15,2.61-1.61C342.56,196.19,341.23,197.27,340.89,198Z"/><path class="cls-2" d="M346.11,195.24c-.88.27-1.88.44-1.66,1.77.3,1.82,1.46.66,2.11.51a5.84,5.84,0,0,1,3.76-.09c1,.42,2,1.06,1.67,2.32s-1.38.32-2.06.29a11.87,11.87,0,0,0-4.48.59,4.11,4.11,0,0,0-3.15,4.45c.11,2.45,1.63,3.54,3.73,3.93a15.24,15.24,0,0,0,4.16,0c4.68-.44,4.68-.48,4.68-5.42,0-.7,0-1.4,0-2.11C354.82,196.07,351.38,193.6,346.11,195.24Zm6.06,9.39c-.17,2.59-2,2-3.47,2.34-1.61-.13-3.45-.16-3.48-2.19,0-2.56,2.31-2.37,3.89-2.37C350.34,202.4,352.34,202,352.17,204.63Z"/><path class="cls-2" d="M359.47,207.59c0,1-.32,1.51-1.41,1.44s-1-.74-1-1.46q0-7.52,0-15c0-.8.25-1.33,1.19-1.31s1.23.49,1.23,1.32c0,2.56,0,5.13,0,7.7S359.44,205.14,359.47,207.59Z"/><path class="cls-2" d="M438.21,92.82a9,9,0,0,0-1.13-.89A17.51,17.51,0,0,0,433,90.05a41.22,41.22,0,0,0-11.07-2.31c-8.16-.54-16,1.61-23.63,6.09-1.83,1.08-3.08,1.43-4.89-.13A16.75,16.75,0,0,0,385.15,90a58.85,58.85,0,0,0-38,6.46c-6.38,3.38-12.21,7.58-15.75,14.1-2.79,5.15-4,10.65-.44,16s9.19,6.87,15.42,6.3c4.88-.44,9.2-2.47,13.38-4.85,5-4.18,9.42-8.73,11.94-14.87,1.82-4.47,2-9.12,1.52-13.81-.11-1.06-.49-2.8-1.82-2.61-1.69.23-.86,1.87-.68,2.9,2.58,14.94-12.49,31.94-27.53,31-9.16-.55-14-8.21-10.37-16.64a20.36,20.36,0,0,1,5.28-7.36q20-17.73,46.44-13.8a8.14,8.14,0,0,1,1.37.3c2.45.81,5.84,1.36,6.63,3.45.9,2.35-2.67,3.46-4.25,5.08-7.72,7.93-14.14,16.85-20.37,25.93-1,1.54-2.13,3.06-3.15,4.54-2-.86-.87-4.58-4.08-4a6.37,6.37,0,0,0,1.2,5,1.71,1.71,0,0,1,.07,2.45c-9,11.08-19.32,20.56-33.39,24.63-8.53,2.46-17,1.91-24.39-3.77s-7.24-13.11.18-18.66c11.43-8.55,28.39-7,38.09,3.41.72.77,1.38,1.59,2.15,2.32.38.36.87.8,1.51.27a1.13,1.13,0,0,0,.23-1.56,12.4,12.4,0,0,0-1.14-1.75c-10.62-13.45-34.08-14.33-45.66-1.73-4.42,4.81-4.75,11.19-.7,16.31,3.09,3.89,7.32,6.11,12,7.62,18.46,6,42.35-2.15,54.89-19.15,2.51-3.4,4.56-5.88,9.13-4.18,1,.37,2.32,0,3.46-.28,12-2.58,19-10.59,22.44-21.8,1.85-5.94,1.89-12.12-1.82-17.58-1.39-2-.91-2.85,1-3.87,12.17-6.39,24.37-8.81,36.84-.76.59.39,1.41,1.23,2,0A1.73,1.73,0,0,0,438.21,92.82Zm-40.84,26.44C393.2,128.57,387,135.61,376,136.68a8.74,8.74,0,0,1-1.71.08c-1.15-.11-2.3-.3-3.73-.49,3.61-7.18,7-13.93,10.38-20.7,2.92-5.87,7.42-10.4,12.11-14.86,2.29-2.18,3.12-1.17,4.18,1A19.74,19.74,0,0,1,397.37,119.26Z"/><path class="cls-2" d="M429.58,153.32c-.84,1.18-2.21,1.53-3.36,2.23l-.88-.07A41.5,41.5,0,0,0,428,152a1.16,1.16,0,0,1,2-.35C430.77,152.29,430,152.8,429.58,153.32Z"/><path class="cls-2" d="M481.63,172.14c0,1.21-.88,1.21-1.7,1.24s-1.88,0-2.82,0H64.54c-.87,0-1.63-.11-1.65-1.3s.56-1.68,1.71-1.63c.82,0,1.64,0,2.46,0H477.51c.82,0,1.64,0,2.46,0C481.18,170.4,481.66,171,481.63,172.14Z"/><path class="cls-3" d="M197.3,207.57a10.28,10.28,0,0,1-6,1.71,9.24,9.24,0,0,1-9-6,9.37,9.37,0,0,1,2.68-10.5,10.82,10.82,0,0,1,11.87-.67c.82.53,1.62.94.94,2.15s-1.28.74-2.24.34c-4.89-2-8.18-1.17-9.82,2.61a6.07,6.07,0,0,0,1,6.85,6.34,6.34,0,0,0,7,1.83,21.63,21.63,0,0,0,2.22-1c1-.42,1.45.39,1.92,1C198.57,206.8,197.85,207.18,197.3,207.57Z"/><path class="cls-3" d="M186.64,150.92c-5.83,5.77-11.51,12-20.32,12.84-5.63.56-7.41-2-7.32-9.92-1.93,1.49-3.62,2.8-5.34,4.09a37.84,37.84,0,0,1-11,6.07c-6.24,2-12.77-2.12-11.65-9.08a13.72,13.72,0,0,0,0-1.66c-3.23,2.45-6.13,4.76-9.14,6.89a24.89,24.89,0,0,1-8.14,4c-3.49.89-6.57.32-9-2.28s-2.47-6-1.37-9.22c1.56-4.58,4.82-8,8.11-11.32,6-6.1,12-12.18,17.28-19a36.71,36.71,0,0,0,6.06-11c2.92-8.83-.89-15.76-10.13-16.92-17.8-2.23-32.94,3.65-45.4,16.42a16.81,16.81,0,0,0-4.46,8.64c-1.85,9.62,5,16,15.33,14.09,11-2,24.87-14.76,24.82-26.84,0-1.17-.22-3.08,1.56-2.89,1.34.13,1,1.9,1,3-.75,14.47-17.44,29.71-31.92,29.18-10-.36-15.68-8.92-12.57-18.84a25.24,25.24,0,0,1,8.69-12.07c12.14-9.85,25.91-14.75,41.65-13.3,14.83,1.37,17.17,13.14,14.27,22.73-3,9.82-9.51,17.37-16.23,24.74-3.63,4-7.55,7.7-11.25,11.63-3.46,3.66-4.35,6.79-2.77,9s5.25,2.29,9.46.25c8.3-4,14.79-10.37,20.49-17.38,8.51-10.45,16.67-21.18,24.72-32,2.18-2.92,4.37-4.58,8.08-3.94a31.43,31.43,0,0,0,4.64,0L143.7,144.63c-2.31,2.81-4.72,5.54-6.92,8.42-1.51,2-2.84,4.32-1.11,6.74,1.59,2.22,4,2,6.42,1.39,4-1,7.24-3.2,10.4-5.63,9.43-7.22,16.46-16.62,23.56-26,5-6.52,10.08-12.94,14.85-19.61,1.8-2.51,3.75-3.52,6.7-3.15a49.79,49.79,0,0,0,5.41,0c-8.32,10.61-16.27,20.69-24.15,30.83-4.31,5.55-9,10.8-12.58,16.89-1,1.8-3.27,4-1.44,6s4.42.52,6.58-.34a25,25,0,0,0,7.55-5.06c2-1.83,4-3.58,6.06-5.35.44-.39,1-.82,1.55-.42A1,1,0,0,1,186.64,150.92Z"/><path class="cls-3" d="M212.12,207.25c0,1,.11,1.87-1.37,1.82s-1.39-.91-1.39-1.89c0-2.23-.07-4.46,0-6.68.08-2-.63-3.42-2.65-3.25s-4,.65-4,3.42c0,2.11,0,4.22,0,6.32,0,1.12,0,2.11-1.57,2.06s-1.17-1.16-1.17-2c0-4.56,0-9.13,0-13.7,0-1-.36-2.25,1.4-2.16,1.36.08,1.34,1,1.35,2,0,.8.1,1.6.15,2.42a32.55,32.55,0,0,1,4.23-.61c3.39,0,4.91,1.51,5,4.88C212.15,202.32,212.12,204.78,212.12,207.25Z"/><path class="cls-3" d="M217.11,195.31c-.82.32-1.58.61-1.36,1.68.27,1.3,1.21.78,1.93.58,1.49-.41,3-.81,4.39.11.72.46,1.36,1,1.17,2-.3,1.46-1.29.46-1.94.42-4.92-.28-7.94,1.56-7.85,4.85s2.82,4.64,7.84,4.16c4.84-.46,4.84-.46,4.84-5.3,0-.82,0-1.63,0-2.46C226.06,196,222.11,193.4,217.11,195.31Zm6.26,9.39c-.19,2.61-2.09,1.87-3.18,2.27-2-.09-3.89-.29-3.77-2.42s2.27-2.2,3.77-2.16C221.49,202.43,223.57,201.94,223.37,204.71Z"/><path class="cls-3" d="M234.87,208.9a3.65,3.65,0,0,1-1.52.2c-3.3.12-4.68-1.09-4.5-4,.11-1.74,0-3.5,0-5.25,0-.58.1-1.56-.15-1.68-5-2.27,1.56-3.15.63-5,0-.07,1.7-.62,1.73-.08.15,2.8,2.11,2.19,3.77,2.26.8,0,1.77,0,1.63,1.23-.09.92-.88.84-1.56,1-1.2.3-3.27-1-3.49,1.08-.24,2.37-.75,4.93.47,7.21a1.82,1.82,0,0,0,2.46.64c1.15-.49,2.54-.84,2.8.75C237.42,208.74,235.73,208.49,234.87,208.9Z"/><path class="cls-3" d="M244.24,201.59a8,8,0,0,1,2.1,0,14.22,14.22,0,0,0,2.45,0c1.15-.2,2.83.8,3.38-.75s-.61-2.65-1.58-3.68a8,8,0,0,0-10.79-.21,7.48,7.48,0,0,0,.18,10.66c2.75,2.51,8.93,2.32,11.29-.35.42-.47,1.17-.92.33-1.68s-1.48-1.13-2.35-.13a5,5,0,0,1-5.12,1.5,4.06,4.06,0,0,1-3.39-4.3C240.92,200.54,243,201.92,244.24,201.59Zm4.17-2.39h-6.83C243.92,196.39,246.12,196.83,248.41,199.2Z"/><path class="cls-3" d="M256.59,195.32c-.77.3-1.63.53-1.41,1.64.25,1.27,1.18.85,1.91.65a6.52,6.52,0,0,1,3.78-.32c1,.33,2,1,1.83,2.24-.25,1.85-1.46.49-2.14.46-4.62-.2-7.58,1.65-7.53,4.85s2.46,4.67,7.36,4.27l.35,0c4.82-.42,4.82-.42,4.82-5.39,0-.82,0-1.64,0-2.46C265.56,196,261.57,193.4,256.59,195.32Zm3.2,11.61c-1.85,0-3.77-.14-3.89-2.16s2.06-2.42,3.56-2.35c1.26.07,3.47-.74,3.47,2C262.93,207,261.23,206.79,259.8,206.94Z"/><path class="cls-3" d="M280.08,208c-.91,2.86-3.19,0-5,.64-5,1.61-7.39-.56-7.4-5.84,0-1.87,0-3.74,0-5.61,0-.75-.27-1.73,1-1.78s1.67.5,1.65,1.68c0,2.1,0,4.2,0,6.31,0,2.28,1,3.69,3.32,3.45,2-.2,4-.63,3.82-3.46-.13-2,0-4,0-6,0-.86-.32-2,1.18-2s1.58,1,1.56,2.11c0,1.51,0,3,0,4.56h0C280.19,204.09,280.65,206.22,280.08,208Z"/><path class="cls-3" d="M304.55,68.8a7.8,7.8,0,0,1-.75,2.73,25.28,25.28,0,0,1-2.22,3.4c-5.75,8.37-10.61,17.12-11.68,27.46-.32,3.14-.44,6.31-.51,9.47,0,1.49-.2,2.31-2,2.42-8.19.49-16.37,1-24.56-.15-1.2-.17-2.15-.21-2.25-1.93-.87-14.87-4.63-28.8-13.37-41.06l-.45-.63c-.1-.13,0-.44.17-1.19l2.51,1.76c5,3.48,9.83,6.85,14.64,10.27,2.35,1.68,3.56,1.88,4.51-1.55.82-3,1.73-6,2.68-9,1.51-4.77,3.15-9.68,4.85-15,1.56,5.24,3,10.2,4.5,15.06l3.58,12c5.61-3.6,10.67-7.75,16.27-11.49Q302.43,70,304.55,68.8Z"/><path class="cls-3" d="M306,201.71c-1-1.3-1.43-2.12.33-3.25a3.33,3.33,0,0,0,1.21-4.07,3.94,3.94,0,0,0-3.52-3c-2.45-.14-4.91-.11-7.36-.23-1.25-.06-1.61.49-1.6,1.66,0,4.91,0,9.82,0,14.74,0,1,.3,1.49,1.39,1.48s1.82-.11,1.77-1.47c-.07-1.63,0-3.27,0-4.91,0-.89-.37-2.06.82-2.43a2.54,2.54,0,0,1,3.06,1.11c1.31,1.94,2.77,3.78,3.89,5.82s2.4,2.33,4.75,1.37C309,206.08,307.61,203.82,306,201.71Zm-5.23-4c-1.31.11-2.7.22-2.66-2.17s1.39-2,2.79-2c1.65,0,3.62,0,3.58,2.24C304.43,197.93,302.55,197.74,300.77,197.73Z"/><path class="cls-3" d="M318.37,195a7,7,0,0,0-7.42,7.13c-.07,4.25,2.92,7.19,7.29,7.2s7.36-2.81,7.43-7.1S322.68,195,318.37,195Zm0,12.08c-2.53,0-4.35-2-4.36-4.82s1.73-4.89,4.29-4.89a4.56,4.56,0,0,1,4.44,4.84C322.75,205,320.91,207,318.37,207Z"/><path class="cls-3" d="M340.89,198c-2.1,4.8-4.3,9.56-6.43,14.36a5,5,0,0,1-5.28,3.2c-.78,0-1.68,0-1.65-1.27,0-1,.6-.92,1.32-1.11,3.56-.93,4.61-3.38,3-6.68-1.44-2.92-2.94-5.82-4.31-8.77-.3-.66-1.62-1.62-.08-2.25a1.93,1.93,0,0,1,2.64,1c1.35,2.79,2.76,5.56,4.49,9,1.49-3.35,2.66-5.88,3.75-8.45.51-1.23,1.3-2.15,2.61-1.61C342.56,196.19,341.23,197.27,340.89,198Z"/><path class="cls-3" d="M346.11,195.24c-.88.27-1.88.44-1.66,1.77.3,1.82,1.46.66,2.11.51a5.84,5.84,0,0,1,3.76-.09c1,.42,2,1.06,1.67,2.32s-1.38.32-2.06.29a11.87,11.87,0,0,0-4.48.59,4.11,4.11,0,0,0-3.15,4.45c.11,2.45,1.63,3.54,3.73,3.93a15.24,15.24,0,0,0,4.16,0c4.68-.44,4.68-.48,4.68-5.42,0-.7,0-1.4,0-2.11C354.82,196.07,351.38,193.6,346.11,195.24Zm6.06,9.39c-.17,2.59-2,2-3.47,2.34-1.61-.13-3.45-.16-3.48-2.19,0-2.56,2.31-2.37,3.89-2.37C350.34,202.4,352.34,202,352.17,204.63Z"/><path class="cls-3" d="M359.47,207.59c0,1-.32,1.51-1.41,1.44s-1-.74-1-1.46q0-7.52,0-15c0-.8.25-1.33,1.19-1.31s1.23.49,1.23,1.32c0,2.56,0,5.13,0,7.7S359.44,205.14,359.47,207.59Z"/><path class="cls-3" d="M438.21,92.82a9,9,0,0,0-1.13-.89A17.51,17.51,0,0,0,433,90.05a41.22,41.22,0,0,0-11.07-2.31c-8.16-.54-16,1.61-23.63,6.09-1.83,1.08-3.08,1.43-4.89-.13A16.75,16.75,0,0,0,385.15,90a58.85,58.85,0,0,0-38,6.46c-6.38,3.38-12.21,7.58-15.75,14.1-2.79,5.15-4,10.65-.44,16s9.19,6.87,15.42,6.3c4.88-.44,9.2-2.47,13.38-4.85,5-4.18,9.42-8.73,11.94-14.87,1.82-4.47,2-9.12,1.52-13.81-.11-1.06-.49-2.8-1.82-2.61-1.69.23-.86,1.87-.68,2.9,2.58,14.94-12.49,31.94-27.53,31-9.16-.55-14-8.21-10.37-16.64a20.36,20.36,0,0,1,5.28-7.36q20-17.73,46.44-13.8a8.14,8.14,0,0,1,1.37.3c2.45.81,5.84,1.36,6.63,3.45.9,2.35-2.67,3.46-4.25,5.08-7.72,7.93-14.14,16.85-20.37,25.93-1,1.54-2.13,3.06-3.15,4.54-2-.86-.87-4.58-4.08-4a6.37,6.37,0,0,0,1.2,5,1.71,1.71,0,0,1,.07,2.45c-9,11.08-19.32,20.56-33.39,24.63-8.53,2.46-17,1.91-24.39-3.77s-7.24-13.11.18-18.66c11.43-8.55,28.39-7,38.09,3.41.72.77,1.38,1.59,2.15,2.32.38.36.87.8,1.51.27a1.13,1.13,0,0,0,.23-1.56,12.4,12.4,0,0,0-1.14-1.75c-10.62-13.45-34.08-14.33-45.66-1.73-4.42,4.81-4.75,11.19-.7,16.31,3.09,3.89,7.32,6.11,12,7.62,18.46,6,42.35-2.15,54.89-19.15,2.51-3.4,4.56-5.88,9.13-4.18,1,.37,2.32,0,3.46-.28,12-2.58,19-10.59,22.44-21.8,1.85-5.94,1.89-12.12-1.82-17.58-1.39-2-.91-2.85,1-3.87,12.17-6.39,24.37-8.81,36.84-.76.59.39,1.41,1.23,2,0A1.73,1.73,0,0,0,438.21,92.82Zm-40.84,26.44C393.2,128.57,387,135.61,376,136.68a8.74,8.74,0,0,1-1.71.08c-1.15-.11-2.3-.3-3.73-.49,3.61-7.18,7-13.93,10.38-20.7,2.92-5.87,7.42-10.4,12.11-14.86,2.29-2.18,3.12-1.17,4.18,1A19.74,19.74,0,0,1,397.37,119.26Z"/><path class="cls-3" d="M429.58,153.32c-.84,1.18-2.21,1.53-3.36,2.23l-.88-.07A41.5,41.5,0,0,0,428,152a1.16,1.16,0,0,1,2-.35C430.77,152.29,430,152.8,429.58,153.32Z"/><path class="cls-3" d="M481.63,172.14c0,1.21-.88,1.21-1.7,1.24s-1.88,0-2.82,0H64.54c-.87,0-1.63-.11-1.65-1.3s.56-1.68,1.71-1.63c.82,0,1.64,0,2.46,0H477.51c.82,0,1.64,0,2.46,0C481.18,170.4,481.66,171,481.63,172.14Z"/><path class="cls-3" d="M518.61,103.13c-11.39-11.94-25.23-20.46-39.79-27.88C446.49,58.78,411.7,50.31,376.2,44.31a568.57,568.57,0,0,0-100.13-8c-40-.19-77.85,2.83-116.94,10.73-30.45,6.15-60.19,14.56-88.2,28.27C55,83,40.29,92.44,28.68,106.11c-17.11,20.13-18,44.15-2.46,65.37a93.55,93.55,0,0,0,17.92,18.27c18.47,14.48,39.51,24,61.58,31.28,32.35,10.72,65.73,16.56,99.48,20.32a654.5,654.5,0,0,0,95.08,3.89,619.53,619.53,0,0,0,67.54-5.78c34.29-5,67.47-13.73,99.3-27.55,19.83-8.61,38.42-19,53-35.37,8.71-9.77,14.93-20.63,15.23-34.16C535.71,126.76,529.09,114.11,518.61,103.13Zm-3.29,66.35C503.41,183.35,488.47,193,472,200.64a370.67,370.67,0,0,1-98.35,29.62c-30.87,4.92-61.92,7.07-97.49,7.1-45.61-.18-95-5.06-143.61-17.11-26.79-6.64-52.58-15.89-75.71-31.4a95.38,95.38,0,0,1-22.83-20.7c-15.3-19.8-14.25-40.75,2.93-59C50.34,94.9,66.94,85.64,84.56,78,112.93,65.76,142.63,58.09,173,52.71c37.39-6.63,75.13-9.06,113-8.32,51.85,1,103,7.32,152.54,23.23,23.26,7.46,45.39,17.46,64.76,32.75,8.54,6.75,16,14.44,20.44,24.63C531,141.7,526.67,156.28,515.32,169.48Z"/><path class="cls-2" d="M280.56,70.86l3.58,12c5.61-3.6,10.67-7.75,16.27-11.49Q290.61,71,280.56,70.86Zm-31.18.2c5,3.48,9.83,6.85,14.64,10.27,2.35,1.68,3.56,1.88,4.51-1.55.82-3,1.73-6,2.68-9H270Q259.61,70.79,249.39,71.06Z"/><path class="cls-1" d="M523.76,125c-4.39-10.19-11.89-17.88-20.44-24.63-19.37-15.29-41.5-25.3-64.76-32.75C389,51.71,337.87,45.39,286,44.39c-37.92-.73-75.65,1.7-113,8.32-30.35,5.37-60,13-88.42,25.31C66.94,85.64,50.34,94.9,37,109.11c-17.18,18.29-18.23,39.25-2.93,59a95.38,95.38,0,0,0,22.83,20.7c23.13,15.51,48.92,24.76,75.71,31.4,48.57,12,98,16.92,143.61,17.11,35.57,0,66.62-2.18,97.49-7.1A370.67,370.67,0,0,0,472,200.64c16.42-7.63,31.36-17.3,43.27-31.16C526.67,156.28,531,141.7,523.76,125Zm-274.7,20.38a8.7,8.7,0,0,1,4.68-1.2c1.18.06,2.42-.1,3.1,1.15a3.19,3.19,0,0,1-.53,3.59c-2.42,3.3-4.88,6.56-7.26,9.89-.41.57-1.52,1.14-.66,2s1.52,0,2.21-.37a66,66,0,0,0,9.39-6.08c.77-.56,1.46-1.69,2.69-.77.63-2.8,3.9-3.37,4.9-5.85,2.89-1.77,5.77-3.51,9.34-3.58,4.87-.09,6.89,2.58,5.18,7.17a48.38,48.38,0,0,1-2.61,5c3.57-1.18,5.85-3.65,8.46-5.63.75-.57,1.62-2.06,2.53-1,1.18,1.32-.61,2.06-1.37,2.65a68.94,68.94,0,0,1-18.7,11c-6.82,2.49-9.32.89-10-6-3,1.94-6,4-9.1,5.77-2.28,1.28-5,2.19-7.16-.06s-1.25-5,.25-7.39c1.7-2.65,3.64-5.15,5.85-8.21a24.37,24.37,0,0,0-9.11,5.59,35.52,35.52,0,0,0-6.28,6.61c-2.65,4-6,5.06-10.85,3.89l12.72-16.11a29.52,29.52,0,0,0-12,8.06,28.26,28.26,0,0,0-3.38,4c-2.3,3.7-5.33,5.42-10.27,3.94l12.06-14.61c-1.74-.42-2.35.77-3.27.9a3.91,3.91,0,0,1-2.36,2.27c-4.13,3.8-7.88,8.06-12.85,10.83-2.64,1.48-5.39,2.84-7.51-.85-.73-1.26-1.35-.27-1.93.15-2.49,1.78-5.34,3.46-8,1.13s-1.18-5.46,0-8.17a20,20,0,0,1,7.88-9.21c2.89-1.85,6-2.82,9-.13.41.36.94,1,1.47.37,2.22-2.51,5-.93,8.42-1.49l-12.7,16.92c6.35-1.77,10.2-6.66,14.63-10.8a4.84,4.84,0,0,0,2.48-2.41,42.15,42.15,0,0,1,4.19-3.11c3.91-2.24,6.19-1.28,7.62,3.25,1.39-.89,2.73-1.77,4.08-2.6,1.8-1.11,3.73-2.44,5.85-1.37s1.37,3.36,1,5.44C244.06,148.28,246.54,146.8,249.06,145.38Zm-118,7.89c-3.23,2.45-6.13,4.76-9.14,6.89a24.89,24.89,0,0,1-8.14,4c-3.49.89-6.57.32-9-2.28s-2.47-6-1.37-9.22c1.56-4.58,4.82-8,8.11-11.32,6-6.1,12-12.18,17.28-19a36.71,36.71,0,0,0,6.06-11c2.92-8.83-.89-15.76-10.13-16.92-17.8-2.23-32.94,3.65-45.4,16.42a16.81,16.81,0,0,0-4.46,8.64c-1.85,9.62,5,16,15.33,14.09,11-2,24.87-14.76,24.82-26.84,0-1.17-.22-3.08,1.56-2.89,1.34.13,1,1.9,1,3-.75,14.47-17.44,29.71-31.92,29.18-10-.36-15.68-8.92-12.57-18.84a25.24,25.24,0,0,1,8.69-12.07c12.14-9.85,25.91-14.75,41.65-13.3,14.83,1.37,17.17,13.14,14.27,22.73-3,9.82-9.51,17.37-16.23,24.74-3.63,4-7.55,7.7-11.25,11.63-3.46,3.66-4.35,6.79-2.77,9s5.25,2.29,9.46.25c8.3-4,14.79-10.37,20.49-17.38,8.51-10.45,16.67-21.18,24.72-32,2.18-2.92,4.37-4.58,8.08-3.94a31.43,31.43,0,0,0,4.64,0L143.7,144.63c-2.31,2.81-4.72,5.54-6.92,8.42-1.51,2-2.84,4.32-1.11,6.74,1.59,2.22,4,2,6.42,1.39,4-1,7.24-3.2,10.4-5.63,9.43-7.22,16.46-16.62,23.56-26,5-6.52,10.08-12.94,14.85-19.61,1.8-2.51,3.75-3.52,6.7-3.15a49.79,49.79,0,0,0,5.41,0c-8.32,10.61-16.27,20.69-24.15,30.83-4.31,5.55-9,10.8-12.58,16.89-1,1.8-3.27,4-1.44,6s4.42.52,6.58-.34a25,25,0,0,0,7.55-5.06c2-1.83,4-3.58,6.06-5.35.44-.39,1-.82,1.55-.42a1,1,0,0,1,.06,1.54c-5.83,5.77-11.51,12-20.32,12.84-5.63.56-7.41-2-7.32-9.92-1.93,1.49-3.62,2.8-5.34,4.09a37.84,37.84,0,0,1-11,6.07c-6.24,2-12.77-2.12-11.65-9.08A13.72,13.72,0,0,0,131,153.27ZM64.59,170.45c.82,0,1.64,0,2.46,0H477.51c.82,0,1.64,0,2.46,0,1.2,0,1.68.51,1.65,1.69s-.88,1.21-1.7,1.24-1.88,0-2.82,0H64.54c-.87,0-1.63-.11-1.65-1.3S63.44,170.4,64.59,170.45Zm328.25-16.23,4.32-3.65c.89-.32,1.69-2.11,2.54-.94,1.13,1.57-.89,2.23-1.72,3.18-.76,1.44-2.46,1.65-3.51,2.71.39,2-2.34,4.37,0,5.78,2.15,1.3,4.37-.77,6.38-1.78a9,9,0,0,0,3.85-2.94c-3.35-1.17-4.15-2.89-2.84-6,2.25-5.35,8.94-8,14.4-6.11,1.77.62,3.94-.54,6.36,0-2.9,3.67-5.75,7.15-8.46,10.75-1.13,1.51-3.35,3.56-2,5s3.54-.63,5.16-1.54c2.54-1.43,4.68-3.79,8-3.26A41.5,41.5,0,0,0,428,152a1.16,1.16,0,0,1,2-.35c.76.66-.06,1.17-.44,1.7-.84,1.18-2.21,1.53-3.36,2.23-.58,1.82-3.38,3.61-1.34,5.42,1.88,1.68,3.82-.7,5.51-1.72a51.13,51.13,0,0,0,13-10.59c2.85-3.4,6.09-4.93,10.74-3.52-3.48,5.32-8.51,9.64-12.17,16,7.3-1.66,11.38-6.94,16.87-9.85-4.11,5.89-9.13,10.61-16.18,12.34-4.11,1-4.36-2.37-4.69-5.45-3.29,1.87-6.12,4.18-9.63,5.22-4.54,1.35-6.18.44-7-4.12-2.15,1.14-4.23,2.44-6.46,3.39-5.47,2.35-7.06,1.3-7.13-4.76-3.32,1.82-6.15,4.26-9.69,5.38-5.65,1.78-7.51.27-6.59-5.85-3.3,1.73-6.38,3.43-9.55,5a15.56,15.56,0,0,1-6.73,1.8c-4,0-6-2.31-5.34-6.32,1.25-7.35,10.77-14.51,18.18-13.69,3.18.35,4.63,3.22,3.32,7a41.31,41.31,0,0,1-2.58,5C390.57,156.09,391.54,154.82,392.85,154.22Zm-33.37,53.37c0,1-.32,1.51-1.41,1.44s-1-.74-1-1.46q0-7.52,0-15c0-.8.25-1.33,1.19-1.31s1.23.49,1.23,1.32c0,2.56,0,5.13,0,7.7S359.44,205.14,359.47,207.59Zm-9.15-10.17a5.84,5.84,0,0,0-3.76.09c-.65.15-1.82,1.31-2.11-.51-.22-1.33.78-1.49,1.66-1.77,5.27-1.64,8.71.83,8.75,6.29,0,.7,0,1.4,0,2.11,0,4.94,0,5-4.68,5.42a15.24,15.24,0,0,1-4.16,0c-2.09-.39-3.61-1.48-3.73-3.93a4.11,4.11,0,0,1,3.15-4.45,11.87,11.87,0,0,1,4.48-.59c.68,0,1.72,1,2.06-.29S351.3,197.84,350.32,197.42Zm-18.48,9.12c-1.44-2.92-2.94-5.82-4.31-8.77-.3-.66-1.62-1.62-.08-2.25a1.93,1.93,0,0,1,2.64,1c1.35,2.79,2.76,5.56,4.49,9,1.49-3.35,2.66-5.88,3.75-8.45.51-1.23,1.3-2.15,2.61-1.61,1.62.68.3,1.75,0,2.53-2.1,4.8-4.3,9.56-6.43,14.36a5,5,0,0,1-5.28,3.2c-.78,0-1.68,0-1.65-1.27,0-1,.6-.92,1.32-1.11C332.41,212.29,333.46,209.84,331.84,206.54Zm-6.17-4.35c-.07,4.29-3,7.11-7.43,7.1s-7.36-3-7.29-7.2a7,7,0,0,1,7.42-7.13C322.68,195,325.73,198,325.67,202.19Zm-27.45.49c0,1.63-.07,3.27,0,4.91.06,1.36-.71,1.46-1.77,1.47s-1.39-.49-1.39-1.48c0-4.92,0-9.83,0-14.74,0-1.17.35-1.72,1.6-1.66,2.45.11,4.91.08,7.36.23a3.94,3.94,0,0,1,3.52,3,3.33,3.33,0,0,1-1.21,4.07c-1.76,1.13-1.32,1.94-.33,3.25,1.61,2.12,3,4.37,4.74,6.85-2.35,1-3.7.56-4.75-1.37s-2.58-3.89-3.89-5.82a2.54,2.54,0,0,0-3.06-1.11C297.85,200.63,298.24,201.8,298.22,202.68Zm-37.35-5.39a6.52,6.52,0,0,0-3.78.32c-.73.2-1.66.63-1.91-.65-.22-1.11.63-1.34,1.41-1.64,5-1.93,9,.69,9,5.92,0,.82,0,1.63,0,2.46,0,5,0,5-4.82,5.39l-.35,0c-4.89.4-7.3-1-7.36-4.27s2.91-5,7.53-4.85c.68,0,1.89,1.38,2.14-.46C262.87,198.25,261.91,197.63,260.87,197.3Zm-16.73,9.58a5,5,0,0,0,5.12-1.5c.87-1,1.58-.57,2.35.13s.08,1.21-.33,1.68c-2.36,2.68-8.54,2.86-11.29.35a7.48,7.48,0,0,1-.18-10.66,8,8,0,0,1,10.79.21c1,1,2.08,2.27,1.58,3.68s-2.23.56-3.38.75a14.22,14.22,0,0,1-2.45,0,8,8,0,0,0-2.1,0c-1.2.33-3.32-1-3.49,1A4.06,4.06,0,0,0,244.14,206.87Zm-15.27-7c0-.58.1-1.56-.15-1.68-5-2.27,1.56-3.15.63-5,0-.07,1.7-.62,1.73-.08.15,2.8,2.11,2.19,3.77,2.26.8,0,1.77,0,1.63,1.23-.09.92-.88.84-1.56,1-1.2.3-3.27-1-3.49,1.08-.24,2.37-.75,4.93.47,7.21a1.82,1.82,0,0,0,2.46.64c1.15-.49,2.54-.84,2.8.75.24,1.39-1.45,1.15-2.3,1.55a3.65,3.65,0,0,1-1.52.2c-3.3.12-4.68-1.09-4.5-4C229,203.39,228.88,201.63,228.87,199.87Zm-6.79-2.2c-1.44-.92-2.91-.51-4.39-.11-.72.2-1.65.72-1.93-.58-.23-1.07.54-1.36,1.36-1.68,5-1.92,8.94.7,9,6,0,.82,0,1.64,0,2.46,0,4.84,0,4.84-4.84,5.3-5,.48-7.75-1-7.84-4.16s2.93-5.13,7.85-4.85c.65,0,1.64,1,1.94-.42C223.44,198.72,222.8,198.13,222.08,197.68Zm-11.32,11.39c-1.41,0-1.39-.91-1.39-1.89,0-2.23-.07-4.46,0-6.68.08-2-.63-3.42-2.65-3.25s-4,.65-4,3.42c0,2.11,0,4.22,0,6.32,0,1.12,0,2.11-1.57,2.06s-1.17-1.16-1.17-2c0-4.56,0-9.13,0-13.7,0-1-.36-2.25,1.4-2.16,1.36.08,1.34,1,1.35,2,0,.8.1,1.6.15,2.42a32.55,32.55,0,0,1,4.23-.61c3.39,0,4.91,1.51,5,4.88,0,2.46,0,4.92,0,7.38C212.12,208.2,212.23,209.12,210.75,209.07Zm-24-5a6.34,6.34,0,0,0,7,1.83,21.63,21.63,0,0,0,2.22-1c1-.42,1.45.39,1.92,1,.63.87-.09,1.25-.63,1.63a10.28,10.28,0,0,1-6,1.71,9.24,9.24,0,0,1-9-6,9.37,9.37,0,0,1,2.68-10.5,10.82,10.82,0,0,1,11.87-.67c.82.53,1.62.94.94,2.15s-1.28.74-2.24.34c-4.89-2-8.18-1.17-9.82,2.61A6.07,6.07,0,0,0,186.78,204.09Zm80.89-1.27c0-1.87,0-3.74,0-5.61,0-.75-.27-1.73,1-1.78s1.67.5,1.65,1.68c0,2.1,0,4.2,0,6.31,0,2.28,1,3.69,3.32,3.45,2-.2,4-.63,3.82-3.46-.13-2,0-4,0-6,0-.86-.32-2,1.18-2s1.58,1,1.56,2.11c0,1.51,0,3,0,4.56h0c0,2,.46,4.12-.11,5.92-.91,2.86-3.19,0-5,.64C270,210.28,267.68,208.11,267.67,202.82ZM433,90.05a17.51,17.51,0,0,1,4.08,1.89,9,9,0,0,1,1.13.89,1.73,1.73,0,0,1,.57,2.19c-.63,1.18-1.45.34-2,0-12.46-8-24.67-5.63-36.84.76-1.94,1-2.42,1.82-1,3.87,3.72,5.46,3.67,11.63,1.82,17.58-3.49,11.21-10.42,19.23-22.44,21.8-1.14.24-2.48.65-3.46.28-4.57-1.7-6.62.77-9.13,4.18-12.54,17-36.43,25.18-54.89,19.15-4.64-1.51-8.87-3.73-12-7.62-4-5.12-3.73-11.5.7-16.31,11.58-12.6,35-11.72,45.66,1.73a12.4,12.4,0,0,1,1.14,1.75,1.13,1.13,0,0,1-.23,1.56c-.63.53-1.13.08-1.51-.27-.77-.73-1.43-1.55-2.15-2.32-9.7-10.44-26.66-12-38.09-3.41-7.42,5.55-7.53,13-.18,18.66s15.87,6.24,24.39,3.77c14.07-4.06,24.37-13.55,33.39-24.63a1.71,1.71,0,0,0-.07-2.45,6.37,6.37,0,0,1-1.2-5c3.2-.54,2,3.18,4.08,4,1-1.48,2.1-3,3.15-4.54,6.23-9.08,12.65-18,20.37-25.93,1.58-1.62,5.15-2.73,4.25-5.08-.8-2.09-4.18-2.64-6.63-3.45a8.14,8.14,0,0,0-1.37-.3q-26.43-3.9-46.44,13.8a20.36,20.36,0,0,0-5.28,7.36c-3.58,8.43,1.2,16.09,10.37,16.64,15,.91,30.11-16.09,27.53-31-.18-1-1-2.68.68-2.9,1.33-.18,1.71,1.55,1.82,2.61.46,4.69.3,9.34-1.52,13.81-2.51,6.15-7,10.7-11.94,14.87-4.18,2.38-8.5,4.41-13.38,4.85-6.23.56-11.75-.86-15.42-6.3s-2.35-10.82.44-16c3.54-6.51,9.37-10.72,15.75-14.1a58.85,58.85,0,0,1,38-6.46,16.75,16.75,0,0,1,8.24,3.69c1.82,1.56,3.06,1.21,4.89.13,7.59-4.49,15.47-6.63,23.63-6.09A41.22,41.22,0,0,1,433,90.05ZM246.87,69.3l2.51,1.76q10.21-.27,20.65-.27h1.18c1.51-4.77,3.15-9.68,4.85-15,1.56,5.24,3,10.2,4.5,15.06q10,.14,19.86.53,2-1.34,4.13-2.59a7.8,7.8,0,0,1-.75,2.73,25.28,25.28,0,0,1-2.22,3.4c-5.75,8.37-10.61,17.12-11.68,27.46-.32,3.14-.44,6.31-.51,9.47,0,1.49-.2,2.31-2,2.42-8.19.49-16.37,1-24.56-.15-1.2-.17-2.15-.21-2.25-1.93-.87-14.87-4.63-28.8-13.37-41.06l-.45-.63C246.61,70.37,246.75,70.06,246.87,69.3Z"/><path class="cls-2" d="M197.3,207.57a10.28,10.28,0,0,1-6,1.71,9.24,9.24,0,0,1-9-6,9.37,9.37,0,0,1,2.68-10.5,10.82,10.82,0,0,1,11.87-.67c.82.53,1.62.94.94,2.15s-1.28.74-2.24.34c-4.89-2-8.18-1.17-9.82,2.61a6.07,6.07,0,0,0,1,6.85,6.34,6.34,0,0,0,7,1.83,21.63,21.63,0,0,0,2.22-1c1-.42,1.45.39,1.92,1C198.57,206.8,197.85,207.18,197.3,207.57Z"/><path class="cls-2" d="M186.64,150.92c-5.83,5.77-11.51,12-20.32,12.84-5.63.56-7.41-2-7.32-9.92-1.93,1.49-3.62,2.8-5.34,4.09a37.84,37.84,0,0,1-11,6.07c-6.24,2-12.77-2.12-11.65-9.08a13.72,13.72,0,0,0,0-1.66c-3.23,2.45-6.13,4.76-9.14,6.89a24.89,24.89,0,0,1-8.14,4c-3.49.89-6.57.32-9-2.28s-2.47-6-1.37-9.22c1.56-4.58,4.82-8,8.11-11.32,6-6.1,12-12.18,17.28-19a36.71,36.71,0,0,0,6.06-11c2.92-8.83-.89-15.76-10.13-16.92-17.8-2.23-32.94,3.65-45.4,16.42a16.81,16.81,0,0,0-4.46,8.64c-1.85,9.62,5,16,15.33,14.09,11-2,24.87-14.76,24.82-26.84,0-1.17-.22-3.08,1.56-2.89,1.34.13,1,1.9,1,3-.75,14.47-17.44,29.71-31.92,29.18-10-.36-15.68-8.92-12.57-18.84a25.24,25.24,0,0,1,8.69-12.07c12.14-9.85,25.91-14.75,41.65-13.3,14.83,1.37,17.17,13.14,14.27,22.73-3,9.82-9.51,17.37-16.23,24.74-3.63,4-7.55,7.7-11.25,11.63-3.46,3.66-4.35,6.79-2.77,9s5.25,2.29,9.46.25c8.3-4,14.79-10.37,20.49-17.38,8.51-10.45,16.67-21.18,24.72-32,2.18-2.92,4.37-4.58,8.08-3.94a31.43,31.43,0,0,0,4.64,0L143.7,144.63c-2.31,2.81-4.72,5.54-6.92,8.42-1.51,2-2.84,4.32-1.11,6.74,1.59,2.22,4,2,6.42,1.39,4-1,7.24-3.2,10.4-5.63,9.43-7.22,16.46-16.62,23.56-26,5-6.52,10.08-12.94,14.85-19.61,1.8-2.51,3.75-3.52,6.7-3.15a49.79,49.79,0,0,0,5.41,0c-8.32,10.61-16.27,20.69-24.15,30.83-4.31,5.55-9,10.8-12.58,16.89-1,1.8-3.27,4-1.44,6s4.42.52,6.58-.34a25,25,0,0,0,7.55-5.06c2-1.83,4-3.58,6.06-5.35.44-.39,1-.82,1.55-.42A1,1,0,0,1,186.64,150.92Z"/><path class="cls-2" d="M212.12,207.25c0,1,.11,1.87-1.37,1.82s-1.39-.91-1.39-1.89c0-2.23-.07-4.46,0-6.68.08-2-.63-3.42-2.65-3.25s-4,.65-4,3.42c0,2.11,0,4.22,0,6.32,0,1.12,0,2.11-1.57,2.06s-1.17-1.16-1.17-2c0-4.56,0-9.13,0-13.7,0-1-.36-2.25,1.4-2.16,1.36.08,1.34,1,1.35,2,0,.8.1,1.6.15,2.42a32.55,32.55,0,0,1,4.23-.61c3.39,0,4.91,1.51,5,4.88C212.15,202.32,212.12,204.78,212.12,207.25Z"/><path class="cls-2" d="M217.11,195.31c-.82.32-1.58.61-1.36,1.68.27,1.3,1.21.78,1.93.58,1.49-.41,3-.81,4.39.11.72.46,1.36,1,1.17,2-.3,1.46-1.29.46-1.94.42-4.92-.28-7.94,1.56-7.85,4.85s2.82,4.64,7.84,4.16c4.84-.46,4.84-.46,4.84-5.3,0-.82,0-1.63,0-2.46C226.06,196,222.11,193.4,217.11,195.31Zm6.26,9.39c-.19,2.61-2.09,1.87-3.18,2.27-2-.09-3.89-.29-3.77-2.42s2.27-2.2,3.77-2.16C221.49,202.43,223.57,201.94,223.37,204.71Z"/><path class="cls-2" d="M234.87,208.9a3.65,3.65,0,0,1-1.52.2c-3.3.12-4.68-1.09-4.5-4,.11-1.74,0-3.5,0-5.25,0-.58.1-1.56-.15-1.68-5-2.27,1.56-3.15.63-5,0-.07,1.7-.62,1.73-.08.15,2.8,2.11,2.19,3.77,2.26.8,0,1.77,0,1.63,1.23-.09.92-.88.84-1.56,1-1.2.3-3.27-1-3.49,1.08-.24,2.37-.75,4.93.47,7.21a1.82,1.82,0,0,0,2.46.64c1.15-.49,2.54-.84,2.8.75C237.42,208.74,235.73,208.49,234.87,208.9Z"/><path class="cls-2" d="M244.24,201.59a8,8,0,0,1,2.1,0,14.22,14.22,0,0,0,2.45,0c1.15-.2,2.83.8,3.38-.75s-.61-2.65-1.58-3.68a8,8,0,0,0-10.79-.21,7.48,7.48,0,0,0,.18,10.66c2.75,2.51,8.93,2.32,11.29-.35.42-.47,1.17-.92.33-1.68s-1.48-1.13-2.35-.13a5,5,0,0,1-5.12,1.5,4.06,4.06,0,0,1-3.39-4.3C240.92,200.54,243,201.92,244.24,201.59Zm4.17-2.39h-6.83C243.92,196.39,246.12,196.83,248.41,199.2Z"/><path class="cls-2" d="M256.59,195.32c-.77.3-1.63.53-1.41,1.64.25,1.27,1.18.85,1.91.65a6.52,6.52,0,0,1,3.78-.32c1,.33,2,1,1.83,2.24-.25,1.85-1.46.49-2.14.46-4.62-.2-7.58,1.65-7.53,4.85s2.46,4.67,7.36,4.27l.35,0c4.82-.42,4.82-.42,4.82-5.39,0-.82,0-1.64,0-2.46C265.56,196,261.57,193.4,256.59,195.32Zm3.2,11.61c-1.85,0-3.77-.14-3.89-2.16s2.06-2.42,3.56-2.35c1.26.07,3.47-.74,3.47,2C262.93,207,261.23,206.79,259.8,206.94Z"/><path class="cls-2" d="M280.08,208c-.91,2.86-3.19,0-5,.64-5,1.61-7.39-.56-7.4-5.84,0-1.87,0-3.74,0-5.61,0-.75-.27-1.73,1-1.78s1.67.5,1.65,1.68c0,2.1,0,4.2,0,6.31,0,2.28,1,3.69,3.32,3.45,2-.2,4-.63,3.82-3.46-.13-2,0-4,0-6,0-.86-.32-2,1.18-2s1.58,1,1.56,2.11c0,1.51,0,3,0,4.56h0C280.19,204.09,280.65,206.22,280.08,208Z"/><path class="cls-2" d="M304.55,68.8a7.8,7.8,0,0,1-.75,2.73,25.28,25.28,0,0,1-2.22,3.4c-5.75,8.37-10.61,17.12-11.68,27.46-.32,3.14-.44,6.31-.51,9.47,0,1.49-.2,2.31-2,2.42-8.19.49-16.37,1-24.56-.15-1.2-.17-2.15-.21-2.25-1.93-.87-14.87-4.63-28.8-13.37-41.06l-.45-.63c-.1-.13,0-.44.17-1.19l2.51,1.76c5,3.48,9.83,6.85,14.64,10.27,2.35,1.68,3.56,1.88,4.51-1.55.82-3,1.73-6,2.68-9,1.51-4.77,3.15-9.68,4.85-15,1.56,5.24,3,10.2,4.5,15.06l3.58,12c5.61-3.6,10.67-7.75,16.27-11.49Q302.43,70,304.55,68.8Z"/><path class="cls-2" d="M306,201.71c-1-1.3-1.43-2.12.33-3.25a3.33,3.33,0,0,0,1.21-4.07,3.94,3.94,0,0,0-3.52-3c-2.45-.14-4.91-.11-7.36-.23-1.25-.06-1.61.49-1.6,1.66,0,4.91,0,9.82,0,14.74,0,1,.3,1.49,1.39,1.48s1.82-.11,1.77-1.47c-.07-1.63,0-3.27,0-4.91,0-.89-.37-2.06.82-2.43a2.54,2.54,0,0,1,3.06,1.11c1.31,1.94,2.77,3.78,3.89,5.82s2.4,2.33,4.75,1.37C309,206.08,307.61,203.82,306,201.71Zm-5.23-4c-1.31.11-2.7.22-2.66-2.17s1.39-2,2.79-2c1.65,0,3.62,0,3.58,2.24C304.43,197.93,302.55,197.74,300.77,197.73Z"/><path class="cls-2" d="M318.37,195a7,7,0,0,0-7.42,7.13c-.07,4.25,2.92,7.19,7.29,7.2s7.36-2.81,7.43-7.1S322.68,195,318.37,195Zm0,12.08c-2.53,0-4.35-2-4.36-4.82s1.73-4.89,4.29-4.89a4.56,4.56,0,0,1,4.44,4.84C322.75,205,320.91,207,318.37,207Z"/><path class="cls-2" d="M340.89,198c-2.1,4.8-4.3,9.56-6.43,14.36a5,5,0,0,1-5.28,3.2c-.78,0-1.68,0-1.65-1.27,0-1,.6-.92,1.32-1.11,3.56-.93,4.61-3.38,3-6.68-1.44-2.92-2.94-5.82-4.31-8.77-.3-.66-1.62-1.62-.08-2.25a1.93,1.93,0,0,1,2.64,1c1.35,2.79,2.76,5.56,4.49,9,1.49-3.35,2.66-5.88,3.75-8.45.51-1.23,1.3-2.15,2.61-1.61C342.56,196.19,341.23,197.27,340.89,198Z"/><path class="cls-2" d="M346.11,195.24c-.88.27-1.88.44-1.66,1.77.3,1.82,1.46.66,2.11.51a5.84,5.84,0,0,1,3.76-.09c1,.42,2,1.06,1.67,2.32s-1.38.32-2.06.29a11.87,11.87,0,0,0-4.48.59,4.11,4.11,0,0,0-3.15,4.45c.11,2.45,1.63,3.54,3.73,3.93a15.24,15.24,0,0,0,4.16,0c4.68-.44,4.68-.48,4.68-5.42,0-.7,0-1.4,0-2.11C354.82,196.07,351.38,193.6,346.11,195.24Zm6.06,9.39c-.17,2.59-2,2-3.47,2.34-1.61-.13-3.45-.16-3.48-2.19,0-2.56,2.31-2.37,3.89-2.37C350.34,202.4,352.34,202,352.17,204.63Z"/><path class="cls-2" d="M359.47,207.59c0,1-.32,1.51-1.41,1.44s-1-.74-1-1.46q0-7.52,0-15c0-.8.25-1.33,1.19-1.31s1.23.49,1.23,1.32c0,2.56,0,5.13,0,7.7S359.44,205.14,359.47,207.59Z"/><path class="cls-2" d="M438.21,92.82a9,9,0,0,0-1.13-.89A17.51,17.51,0,0,0,433,90.05a41.22,41.22,0,0,0-11.07-2.31c-8.16-.54-16,1.61-23.63,6.09-1.83,1.08-3.08,1.43-4.89-.13A16.75,16.75,0,0,0,385.15,90a58.85,58.85,0,0,0-38,6.46c-6.38,3.38-12.21,7.58-15.75,14.1-2.79,5.15-4,10.65-.44,16s9.19,6.87,15.42,6.3c4.88-.44,9.2-2.47,13.38-4.85,5-4.18,9.42-8.73,11.94-14.87,1.82-4.47,2-9.12,1.52-13.81-.11-1.06-.49-2.8-1.82-2.61-1.69.23-.86,1.87-.68,2.9,2.58,14.94-12.49,31.94-27.53,31-9.16-.55-14-8.21-10.37-16.64a20.36,20.36,0,0,1,5.28-7.36q20-17.73,46.44-13.8a8.14,8.14,0,0,1,1.37.3c2.45.81,5.84,1.36,6.63,3.45.9,2.35-2.67,3.46-4.25,5.08-7.72,7.93-14.14,16.85-20.37,25.93-1,1.54-2.13,3.06-3.15,4.54-2-.86-.87-4.58-4.08-4a6.37,6.37,0,0,0,1.2,5,1.71,1.71,0,0,1,.07,2.45c-9,11.08-19.32,20.56-33.39,24.63-8.53,2.46-17,1.91-24.39-3.77s-7.24-13.11.18-18.66c11.43-8.55,28.39-7,38.09,3.41.72.77,1.38,1.59,2.15,2.32.38.36.87.8,1.51.27a1.13,1.13,0,0,0,.23-1.56,12.4,12.4,0,0,0-1.14-1.75c-10.62-13.45-34.08-14.33-45.66-1.73-4.42,4.81-4.75,11.19-.7,16.31,3.09,3.89,7.32,6.11,12,7.62,18.46,6,42.35-2.15,54.89-19.15,2.51-3.4,4.56-5.88,9.13-4.18,1,.37,2.32,0,3.46-.28,12-2.58,19-10.59,22.44-21.8,1.85-5.94,1.89-12.12-1.82-17.58-1.39-2-.91-2.85,1-3.87,12.17-6.39,24.37-8.81,36.84-.76.59.39,1.41,1.23,2,0A1.73,1.73,0,0,0,438.21,92.82Zm-40.84,26.44C393.2,128.57,387,135.61,376,136.68a8.74,8.74,0,0,1-1.71.08c-1.15-.11-2.3-.3-3.73-.49,3.61-7.18,7-13.93,10.38-20.7,2.92-5.87,7.42-10.4,12.11-14.86,2.29-2.18,3.12-1.17,4.18,1A19.74,19.74,0,0,1,397.37,119.26Z"/><path class="cls-2" d="M429.58,153.32c-.84,1.18-2.21,1.53-3.36,2.23l-.88-.07A41.5,41.5,0,0,0,428,152a1.16,1.16,0,0,1,2-.35C430.77,152.29,430,152.8,429.58,153.32Z"/><path class="cls-2" d="M481.63,172.14c0,1.21-.88,1.21-1.7,1.24s-1.88,0-2.82,0H64.54c-.87,0-1.63-.11-1.65-1.3s.56-1.68,1.71-1.63c.82,0,1.64,0,2.46,0H477.51c.82,0,1.64,0,2.46,0C481.18,170.4,481.66,171,481.63,172.14Z"/><path class="cls-3" d="M186.64,150.92c-5.83,5.77-11.51,12-20.32,12.84-5.63.56-7.41-2-7.32-9.92-1.93,1.49-3.62,2.8-5.34,4.09a37.84,37.84,0,0,1-11,6.07c-6.24,2-12.77-2.12-11.65-9.08a13.72,13.72,0,0,0,0-1.66c-3.23,2.45-6.13,4.76-9.14,6.89a24.89,24.89,0,0,1-8.14,4c-3.49.89-6.57.32-9-2.28s-2.47-6-1.37-9.22c1.56-4.58,4.82-8,8.11-11.32,6-6.1,12-12.18,17.28-19a36.71,36.71,0,0,0,6.06-11c2.92-8.83-.89-15.76-10.13-16.92-17.8-2.23-32.94,3.65-45.4,16.42a16.81,16.81,0,0,0-4.46,8.64c-1.85,9.62,5,16,15.33,14.09,11-2,24.87-14.76,24.82-26.84,0-1.17-.22-3.08,1.56-2.89,1.34.13,1,1.9,1,3-.75,14.47-17.44,29.71-31.92,29.18-10-.36-15.68-8.92-12.57-18.84a25.24,25.24,0,0,1,8.69-12.07c12.14-9.85,25.91-14.75,41.65-13.3,14.83,1.37,17.17,13.14,14.27,22.73-3,9.82-9.51,17.37-16.23,24.74-3.63,4-7.55,7.7-11.25,11.63-3.46,3.66-4.35,6.79-2.77,9s5.25,2.29,9.46.25c8.3-4,14.79-10.37,20.49-17.38,8.51-10.45,16.67-21.18,24.72-32,2.18-2.92,4.37-4.58,8.08-3.94a31.43,31.43,0,0,0,4.64,0L143.7,144.63c-2.31,2.81-4.72,5.54-6.92,8.42-1.51,2-2.84,4.32-1.11,6.74,1.59,2.22,4,2,6.42,1.39,4-1,7.24-3.2,10.4-5.63,9.43-7.22,16.46-16.62,23.56-26,5-6.52,10.08-12.94,14.85-19.61,1.8-2.51,3.75-3.52,6.7-3.15a49.79,49.79,0,0,0,5.41,0c-8.32,10.61-16.27,20.69-24.15,30.83-4.31,5.55-9,10.8-12.58,16.89-1,1.8-3.27,4-1.44,6s4.42.52,6.58-.34a25,25,0,0,0,7.55-5.06c2-1.83,4-3.58,6.06-5.35.44-.39,1-.82,1.55-.42A1,1,0,0,1,186.64,150.92Z"/><path class="cls-3" d="M438.21,92.82a9,9,0,0,0-1.13-.89A17.51,17.51,0,0,0,433,90.05a41.22,41.22,0,0,0-11.07-2.31c-8.16-.54-16,1.61-23.63,6.09-1.83,1.08-3.08,1.43-4.89-.13A16.75,16.75,0,0,0,385.15,90a58.85,58.85,0,0,0-38,6.46c-6.38,3.38-12.21,7.58-15.75,14.1-2.79,5.15-4,10.65-.44,16s9.19,6.87,15.42,6.3c4.88-.44,9.2-2.47,13.38-4.85,5-4.18,9.42-8.73,11.94-14.87,1.82-4.47,2-9.12,1.52-13.81-.11-1.06-.49-2.8-1.82-2.61-1.69.23-.86,1.87-.68,2.9,2.58,14.94-12.49,31.94-27.53,31-9.16-.55-14-8.21-10.37-16.64a20.36,20.36,0,0,1,5.28-7.36q20-17.73,46.44-13.8a8.14,8.14,0,0,1,1.37.3c2.45.81,5.84,1.36,6.63,3.45.9,2.35-2.67,3.46-4.25,5.08-7.72,7.93-14.14,16.85-20.37,25.93-1,1.54-2.13,3.06-3.15,4.54-2-.86-.87-4.58-4.08-4a6.37,6.37,0,0,0,1.2,5,1.71,1.71,0,0,1,.07,2.45c-9,11.08-19.32,20.56-33.39,24.63-8.53,2.46-17,1.91-24.39-3.77s-7.24-13.11.18-18.66c11.43-8.55,28.39-7,38.09,3.41.72.77,1.38,1.59,2.15,2.32.38.36.87.8,1.51.27a1.13,1.13,0,0,0,.23-1.56,12.4,12.4,0,0,0-1.14-1.75c-10.62-13.45-34.08-14.33-45.66-1.73-4.42,4.81-4.75,11.19-.7,16.31,3.09,3.89,7.32,6.11,12,7.62,18.46,6,42.35-2.15,54.89-19.15,2.51-3.4,4.56-5.88,9.13-4.18,1,.37,2.32,0,3.46-.28,12-2.58,19-10.59,22.44-21.8,1.85-5.94,1.89-12.12-1.82-17.58-1.39-2-.91-2.85,1-3.87,12.17-6.39,24.37-8.81,36.84-.76.59.39,1.41,1.23,2,0A1.73,1.73,0,0,0,438.21,92.82Zm-40.84,26.44C393.2,128.57,387,135.61,376,136.68a8.74,8.74,0,0,1-1.71.08c-1.15-.11-2.3-.3-3.73-.49,3.61-7.18,7-13.93,10.38-20.7,2.92-5.87,7.42-10.4,12.11-14.86,2.29-2.18,3.12-1.17,4.18,1A19.74,19.74,0,0,1,397.37,119.26Z"/><path class="cls-4" d="M304.55,68.8a7.8,7.8,0,0,1-.75,2.73,25.28,25.28,0,0,1-2.22,3.4c-5.75,8.37-10.61,17.12-11.68,27.46-.32,3.14-.44,6.31-.51,9.47,0,1.49-.2,2.31-2,2.42-8.19.49-16.37,1-24.56-.15-1.2-.17-2.15-.21-2.25-1.93-.87-14.87-4.63-28.8-13.37-41.06l-.45-.63c-.1-.13,0-.44.17-1.19l2.51,1.76c5,3.48,9.83,6.85,14.64,10.27,2.35,1.68,3.56,1.88,4.51-1.55.82-3,1.73-6,2.68-9,1.51-4.77,3.15-9.68,4.85-15,1.56,5.24,3,10.2,4.5,15.06l3.58,12c5.61-3.6,10.67-7.75,16.27-11.49Q302.43,70,304.55,68.8Z"/><path class="cls-5" d="M481.63,172.14c0,1.21-.88,1.21-1.7,1.24s-1.88,0-2.82,0H64.54c-.87,0-1.63-.11-1.65-1.3s.56-1.68,1.71-1.63c.82,0,1.64,0,2.46,0H477.51c.82,0,1.64,0,2.46,0C481.18,170.4,481.66,171,481.63,172.14Z"/><path class="cls-3" d="M426.22,155.56l-.88-.07C425.65,155.14,426,155.16,426.22,155.56Z"/><path class="cls-6" d="M306,201.71c-1-1.3-1.43-2.12.33-3.25a3.33,3.33,0,0,0,1.21-4.07,3.94,3.94,0,0,0-3.52-3c-2.45-.14-4.91-.11-7.36-.23-1.25-.06-1.61.49-1.6,1.66,0,4.91,0,9.82,0,14.74,0,1,.3,1.49,1.39,1.48s1.82-.11,1.77-1.47c-.07-1.63,0-3.27,0-4.91,0-.89-.37-2.06.82-2.43a2.54,2.54,0,0,1,3.06,1.11c1.31,1.94,2.77,3.78,3.89,5.82s2.4,2.33,4.75,1.37C309,206.08,307.61,203.82,306,201.71Zm-5.23-4c-1.31.11-2.7.22-2.66-2.17s1.39-2,2.79-2c1.65,0,3.62,0,3.58,2.24C304.43,197.93,302.55,197.74,300.77,197.73Z"/><path class="cls-7" d="M197.3,207.57a10.28,10.28,0,0,1-6,1.71,9.24,9.24,0,0,1-9-6,9.37,9.37,0,0,1,2.68-10.5,10.82,10.82,0,0,1,11.87-.67c.82.53,1.62.94.94,2.15s-1.28.74-2.24.34c-4.89-2-8.18-1.17-9.82,2.61a6.07,6.07,0,0,0,1,6.85,6.34,6.34,0,0,0,7,1.83,21.63,21.63,0,0,0,2.22-1c1-.42,1.45.39,1.92,1C198.57,206.8,197.85,207.18,197.3,207.57Z"/><path class="cls-8" d="M244.24,201.59a8,8,0,0,1,2.1,0,14.22,14.22,0,0,0,2.45,0c1.15-.2,2.83.8,3.38-.75s-.61-2.65-1.58-3.68a8,8,0,0,0-10.79-.21,7.48,7.48,0,0,0,.18,10.66c2.75,2.51,8.93,2.32,11.29-.35.42-.47,1.17-.92.33-1.68s-1.48-1.13-2.35-.13a5,5,0,0,1-5.12,1.5,4.06,4.06,0,0,1-3.39-4.3C240.92,200.54,243,201.92,244.24,201.59Zm4.17-2.39h-6.83C243.92,196.39,246.12,196.83,248.41,199.2Z"/><path class="cls-9" d="M256.59,195.32c-.77.3-1.63.53-1.41,1.64.25,1.27,1.18.85,1.91.65a6.52,6.52,0,0,1,3.78-.32c1,.33,2,1,1.83,2.24-.25,1.85-1.46.49-2.14.46-4.62-.2-7.58,1.65-7.53,4.85s2.46,4.67,7.36,4.27l.35,0c4.82-.42,4.82-.42,4.82-5.39,0-.82,0-1.64,0-2.46C265.56,196,261.57,193.4,256.59,195.32Zm3.2,11.61c-1.85,0-3.77-.14-3.89-2.16s2.06-2.42,3.56-2.35c1.26.07,3.47-.74,3.47,2C262.93,207,261.23,206.79,259.8,206.94Z"/><path class="cls-10" d="M217.11,195.31c-.82.32-1.58.61-1.36,1.68.27,1.3,1.21.78,1.93.58,1.49-.41,3-.81,4.39.11.72.46,1.36,1,1.17,2-.3,1.46-1.29.46-1.94.42-4.92-.28-7.94,1.56-7.85,4.85s2.82,4.64,7.84,4.16c4.84-.46,4.84-.46,4.84-5.3,0-.82,0-1.63,0-2.46C226.06,196,222.11,193.4,217.11,195.31Zm6.26,9.39c-.19,2.61-2.09,1.87-3.18,2.27-2-.09-3.89-.29-3.77-2.42s2.27-2.2,3.77-2.16C221.49,202.43,223.57,201.94,223.37,204.71Z"/><path class="cls-11" d="M346.11,195.24c-.88.27-1.88.44-1.66,1.77.3,1.82,1.46.66,2.11.51a5.84,5.84,0,0,1,3.76-.09c1,.42,2,1.06,1.67,2.32s-1.38.32-2.06.29a11.87,11.87,0,0,0-4.48.59,4.11,4.11,0,0,0-3.15,4.45c.11,2.45,1.63,3.54,3.73,3.93a15.24,15.24,0,0,0,4.16,0c4.68-.44,4.68-.48,4.68-5.42,0-.7,0-1.4,0-2.11C354.82,196.07,351.38,193.6,346.11,195.24Zm6.06,9.39c-.17,2.59-2,2-3.47,2.34-1.61-.13-3.45-.16-3.48-2.19,0-2.56,2.31-2.37,3.89-2.37C350.34,202.4,352.34,202,352.17,204.63Z"/><path class="cls-12" d="M212.12,207.25c0,1,.11,1.87-1.37,1.82s-1.39-.91-1.39-1.89c0-2.23-.07-4.46,0-6.68.08-2-.63-3.42-2.65-3.25s-4,.65-4,3.42c0,2.11,0,4.22,0,6.32,0,1.12,0,2.11-1.57,2.06s-1.17-1.16-1.17-2c0-4.56,0-9.13,0-13.7,0-1-.36-2.25,1.4-2.16,1.36.08,1.34,1,1.35,2,0,.8.1,1.6.15,2.42a32.55,32.55,0,0,1,4.23-.61c3.39,0,4.91,1.51,5,4.88C212.15,202.32,212.12,204.78,212.12,207.25Z"/><path class="cls-13" d="M340.89,198c-2.1,4.8-4.3,9.56-6.43,14.36a5,5,0,0,1-5.28,3.2c-.78,0-1.68,0-1.65-1.27,0-1,.6-.92,1.32-1.11,3.56-.93,4.61-3.38,3-6.68-1.44-2.92-2.94-5.82-4.31-8.77-.3-.66-1.62-1.62-.08-2.25a1.93,1.93,0,0,1,2.64,1c1.35,2.79,2.76,5.56,4.49,9,1.49-3.35,2.66-5.88,3.75-8.45.51-1.23,1.3-2.15,2.61-1.61C342.56,196.19,341.23,197.27,340.89,198Z"/><path class="cls-13" d="M318.37,195a7,7,0,0,0-7.42,7.13c-.07,4.25,2.92,7.19,7.29,7.2s7.36-2.81,7.43-7.1S322.68,195,318.37,195Zm0,12.08c-2.53,0-4.35-2-4.36-4.82s1.73-4.89,4.29-4.89a4.56,4.56,0,0,1,4.44,4.84C322.75,205,320.91,207,318.37,207Z"/><path class="cls-14" d="M280.08,208c-.91,2.86-3.19,0-5,.64-5,1.61-7.39-.56-7.4-5.84,0-1.87,0-3.74,0-5.61,0-.75-.27-1.73,1-1.78s1.67.5,1.65,1.68c0,2.1,0,4.2,0,6.31,0,2.28,1,3.69,3.32,3.45,2-.2,4-.63,3.82-3.46-.13-2,0-4,0-6,0-.86-.32-2,1.18-2s1.58,1,1.56,2.11c0,1.51,0,3,0,4.56h0C280.19,204.09,280.65,206.22,280.08,208Z"/><path class="cls-11" d="M234.87,208.9a3.65,3.65,0,0,1-1.52.2c-3.3.12-4.68-1.09-4.5-4,.11-1.74,0-3.5,0-5.25,0-.58.1-1.56-.15-1.68-5-2.27,1.56-3.15.63-5,0-.07,1.7-.62,1.73-.08.15,2.8,2.11,2.19,3.77,2.26.8,0,1.77,0,1.63,1.23-.09.92-.88.84-1.56,1-1.2.3-3.27-1-3.49,1.08-.24,2.37-.75,4.93.47,7.21a1.82,1.82,0,0,0,2.46.64c1.15-.49,2.54-.84,2.8.75C237.42,208.74,235.73,208.49,234.87,208.9Z"/><path class="cls-3" d="M359.47,207.59c0,1-.32,1.51-1.41,1.44s-1-.74-1-1.46q0-7.52,0-15c0-.8.25-1.33,1.19-1.31s1.23.49,1.23,1.32c0,2.56,0,5.13,0,7.7S359.44,205.14,359.47,207.59Z"/><path class="cls-4" d="M290.49,149.68c-.91-1-1.77.48-2.53,1-2.61,2-4.89,4.45-8.46,5.63a48.38,48.38,0,0,0,2.61-5c1.7-4.59-.32-7.26-5.18-7.17-3.57.06-6.45,1.8-9.34,3.58-1,2.48-4.27,3.06-4.9,5.85-1.23-.92-1.92.21-2.69.77a66,66,0,0,1-9.39,6.08c-.69.35-1.46,1.14-2.21.37s.25-1.46.66-2c2.38-3.32,4.84-6.59,7.26-9.89a3.19,3.19,0,0,0,.53-3.59c-.68-1.25-1.92-1.09-3.1-1.15a8.7,8.7,0,0,0-4.68,1.2c-2.52,1.42-5,2.9-7.82,4.55.33-2.08,1.13-4.36-1-5.44s-4,.27-5.85,1.37c-1.36.83-2.69,1.71-4.08,2.6-1.43-4.54-3.71-5.49-7.62-3.25a42.15,42.15,0,0,0-4.19,3.11,4.84,4.84,0,0,1-2.48,2.41c-4.44,4.13-8.29,9-14.63,10.8L214,144.61c-3.39.56-6.2-1-8.42,1.49-.53.59-1.06,0-1.47-.37-3.06-2.68-6.15-1.72-9,.13a20,20,0,0,0-7.88,9.21c-1.13,2.7-2.55,5.86,0,8.17s5.49.65,8-1.13c.58-.42,1.2-1.42,1.93-.15,2.12,3.68,4.87,2.32,7.51.85,5-2.77,8.73-7,12.85-10.83a3.91,3.91,0,0,0,2.36-2.27c.92-.13,1.53-1.32,3.27-.9L211.1,163.4c4.94,1.49,8-.24,10.27-3.94a28.26,28.26,0,0,1,3.38-4,29.52,29.52,0,0,1,12-8.06L224,163.47c4.82,1.17,8.2.08,10.85-3.89a35.52,35.52,0,0,1,6.28-6.61,24.37,24.37,0,0,1,9.11-5.59c-2.2,3.06-4.15,5.56-5.85,8.21-1.5,2.35-2.55,5-.25,7.39s4.88,1.34,7.16.06c3.13-1.75,6.07-3.83,9.1-5.77.71,6.92,3.22,8.52,10,6a68.94,68.94,0,0,0,18.7-11C289.88,151.75,291.67,151,290.49,149.68Zm-98.25,11.8c-.49.37-1,.55-1.56,0a1.3,1.3,0,0,1-.1-1.6c2.34-5.1,6.21-9,10.08-12.87a1.2,1.2,0,0,1,1.84,0c.54.45,1.11.89,1.1,1.7a1.51,1.51,0,0,1-.15.3C199.85,153.29,196.8,158.06,192.24,161.48Zm85.94-12.32a35.09,35.09,0,0,1-8.87,11.21,23.42,23.42,0,0,1-2.48,1.54c-1.49-.35-1.32-1-.79-1.86,2.87-4.54,5.68-9.15,9.7-12.82.75-.69,1.75-1.52,2.77-.61S278.57,148.43,278.18,149.16Z"/><path class="cls-15" d="M429.58,153.32c-.84,1.18-2.21,1.53-3.36,2.23l-.88-.07A41.5,41.5,0,0,0,428,152a1.16,1.16,0,0,1,2-.35C430.77,152.29,430,152.8,429.58,153.32Z"/><path class="cls-3" d="M442,161.14c3.65-6.36,8.69-10.68,12.17-16-4.65-1.41-7.89.12-10.74,3.52a51.13,51.13,0,0,1-13,10.59c-1.69,1-3.63,3.39-5.51,1.72-2-1.81.75-3.59,1.34-5.42l-.88-.07c-3.33-.53-5.46,1.83-8,3.26-1.63.92-3.82,3-5.16,1.54s.87-3.54,2-5c2.7-3.6,5.56-7.08,8.46-10.75-2.42-.58-4.58.58-6.36,0-5.46-1.9-12.15.75-14.4,6.11-1.31,3.13-.51,4.86,2.84,6a9,9,0,0,1-3.85,2.94c-2,1-4.23,3.08-6.38,1.78-2.34-1.41.39-3.8,0-5.78,1-1.06,2.75-1.27,3.51-2.71.82-1,2.85-1.61,1.72-3.18-.85-1.18-1.65.62-2.54.94l-4.32,3.65c-1.3.6-2.27,1.87-4,2a41.31,41.31,0,0,0,2.58-5c1.32-3.79-.13-6.65-3.32-7-7.41-.82-16.92,6.35-18.18,13.69-.69,4,1.3,6.35,5.34,6.32a15.56,15.56,0,0,0,6.73-1.8c3.17-1.54,6.25-3.25,9.55-5-.92,6.11.94,7.63,6.59,5.85,3.54-1.12,6.37-3.56,9.69-5.38.06,6.06,1.65,7.11,7.13,4.76,2.23-1,4.3-2.25,6.46-3.39.8,4.56,2.44,5.47,7,4.12,3.51-1,6.34-3.35,9.63-5.22.33,3.08.58,6.46,4.69,5.45,7-1.73,12.08-6.45,16.18-12.34C453.37,154.2,449.29,159.48,442,161.14ZM387.8,148.28a27.49,27.49,0,0,1-3,5.12,24.68,24.68,0,0,1-7.78,8c-.62.36-1.25.75-1.91.17-.44-.37-.21-.85,0-1.25,3-4.74,5.81-9.63,10.18-13.32a2.05,2.05,0,0,1,2.25-.55C388,146.64,388.1,147.13,387.8,148.28Zm17.32,6.3a26,26,0,0,1,6.87-9.35,1.15,1.15,0,0,1,1.59-.13c.66.54.15,1.12-.1,1.55C411.44,150,409.08,153.12,405.12,154.58Z"/></svg>