<svg id="Шар_1" data-name="Шар 1" xmlns="http://www.w3.org/2000/svg" viewBox="0 0 482.65 553.51"><defs><style>.cls-1{fill:#251424;}</style></defs><title>5d2c42c081100</title><path class="cls-1" d="M444.87,224.12c-.27-1.7-1.13-2.64-2.85-1.93-6,2.48-11.24.64-16.17-2.78a30.58,30.58,0,0,0-22.12-5.31,7.26,7.26,0,0,1-1.7-.16c0-.43-.13-.65-.06-.78a13.06,13.06,0,0,1,.93-1.37,27.8,27.8,0,0,0,6.18-16.59c.21-5.18,1.6-9.9,6.09-13.09,4.67-3.32,9.3-2.18,12,2.75.35.64,1.33.94,2,1.4.36-.85,1.25-2,1-2.48-1.24-2-2.45-4.32-4.32-5.43-5.25-3.09-12.63-.74-16.3,4.7-.53.78-1.11,1.52-1.91,2.61l-1.23-2.41c-3.32-6.47-8.13-11.45-15.34-13-3.5-.76-5.65-2.12-6.79-5.38a8.88,8.88,0,0,0-1.27-2.14c-2.19-3.07-4.4-6.13-7-9.75l9-3.59c1.62-.65,2.29.1,2.8,1.61,3.81,11.52,12.49,16.71,24,18a19.51,19.51,0,0,0,12-2.51c1.33-.76,1.88-1.67.87-3.15-5.25-7.68-11.79-13.79-20.78-16.76-9.79-3.23-19.19-1.81-28.11,3.09-1.69.93-2.78.85-4.06-.58-2-2.21-4.39-4.06-6.13-6.41-3.18-4.28-6-8.79-8.88-13.3a3.24,3.24,0,0,1,.61-2.51c5.85-.27,11.86-.56,16.59,3.69,7.14,6.42,14.94,8,23.86,4.33a3.11,3.11,0,0,1,2.83.51c3.21,3.69,7.36,4.4,11.86,4a11,11,0,0,0,3.1-1.32,10.75,10.75,0,0,0-1.55-2.67A13.39,13.39,0,0,1,410,122c2.76-11.84.14-21.95-9.24-30.06a3.22,3.22,0,0,1-.93-2.75c2.12-5.8-.16-10-4.4-13.76-1.65-1.44-2.86-1.1-3.68.76-2.49,5.71-7.28,8.17-13,9.19a30.85,30.85,0,0,0-19.32,11.51,9.54,9.54,0,0,0-1,2.5C357.2,98.16,357,98,357,97.88c-.45-7.34-3.45-13.45-8.42-18.82a14.74,14.74,0,0,1-4.26-11.12c.38-6.28,4.87-9.47,10.84-7.76.62.18,1.44-.35,2.17-.55-.21-.72-.2-1.67-.67-2.12-2.32-2.29-6.88-2.18-10,.14-4.76,3.49-6.27,8.25-5.39,13.93l.43,2.75c-1.3-.35-2.07-.54-2.83-.76-7.87-2.32-15.32-1.92-22.17,3.16a4.27,4.27,0,0,1-3,.53c-5-.9-9.93-2.07-14.91-3-1.89-.33-2.44-1.07-1.69-2.78,1-2.28,2-4.54,3.06-6.82.71-1.58,1.68-1.64,3.09-.75,3.82,2.41,8.08,3,12.52,2.86,10.46-.45,20.55-7.56,23.63-16.57.67-2,.47-3.31-1.76-3.73-20.16-3.85-37.76,4.91-43.83,24.87-.6,2-1.46,2.75-3.47,2.66-3.69-.17-7.45.17-11.08-.36a120.45,120.45,0,0,1-13.44-3.07,3.05,3.05,0,0,1-1.3-2c3.8-4.21,7.71-8.8,13.74-9.14,9.91-.55,16.83-4.82,20.74-14a3,3,0,0,1,2.18-1.58c5.26.47,8.74-2.4,11.8-6.06a3,3,0,0,0,.73-2.41,2.8,2.8,0,0,0-2.29-1c-6.25.31-10.34-2.74-13.68-7.79-6.34-9.6-15.19-14.57-27-13.66a3.86,3.86,0,0,1-2.9-1.67c-3-4.92-7.34-7.08-12.83-6.14-1.68.29-2.59,1.09-1.89,2.86,2.38,6,.58,11.19-2.81,16.18a30.51,30.51,0,0,0-5.34,22.12,13.12,13.12,0,0,1-.09,2.2,10.24,10.24,0,0,1-1.37-.71,28.44,28.44,0,0,0-18.31-6.88,17.33,17.33,0,0,1-5.42-1.08c-4-1.41-7.16-3.89-8.25-8.28-1-4,.42-7,3.75-8.53.8-.37,1.27-1.45,1.89-2.2-1-.29-2.07-1-2.92-.78-3.51.89-5.41,3.52-6,6.91-1,5.67,1.21,10.1,5.71,13.52.74.57,1.47,1.16,2.12,1.67a3.44,3.44,0,0,1-.3.64,3.8,3.8,0,0,1-.67.48c-8,3.88-13.39,9.7-14.64,18.85a4,4,0,0,1-1.81,2.19c-4.17,2.88-8.46,5.59-12.6,8.51-1.46,1-2.32.95-3-.67q-1.44-3.59-2.81-7.22c-.56-1.48.09-2.24,1.54-2.61a21.64,21.64,0,0,0,13-9.39C200,45,201.78,36.54,198,27.43c-1.16-2.77-2.2-3.09-4.37-1.58-17.37,12.09-22.8,30.87-12.87,49a3.32,3.32,0,0,1-.35,3,65.27,65.27,0,0,1-8.16,7.91c-3.8,2.89-8,5.29-12,7.8-1.11.68-2.51.83-2.54-1.13-.09-6.14,0-12.12,4.58-17.18,6.12-6.77,7-14.57,3.58-23a3.07,3.07,0,0,1,.53-2.77c4-3.44,4.45-7.92,4-12.67a2.9,2.9,0,0,0-1.3-2.14c-.59-.19-1.73.44-2.26,1-4.1,4.66-9.22,5.33-14.94,4.14-11.35-2.37-21,.42-28.76,9.34a3.89,3.89,0,0,1-3.25,1c-5.61-1.41-9.8-.05-13.46,4.6-1.2,1.52-1.15,2.66.7,3.49,5.74,2.55,8.29,7.35,9.33,13.22a30.42,30.42,0,0,0,11.78,19.45,7.15,7.15,0,0,0,2.11.7l-.93,1.18c-2.41.5-4.85.92-7.22,1.54-5.18,1.35-9.07,4.79-13.15,8-3.59,2.86-7.72,4.41-12.43,3-5-1.48-7.1-5.57-5.42-10.16.24-.65-.27-1.58-.44-2.39-.78.29-1.85.35-2.29.9-1.89,2.41-1.89,5.15-.73,7.87,2.26,5.31,8.45,8.42,14.48,7.36l3-.53a5.28,5.28,0,0,1,0,1.43c-3.26,8.58-2.64,16.65,3,24.14a3.28,3.28,0,0,1,.23,2.31c-1,5.16-2.11,10.3-3.08,15.46-.26,1.39-.72,2.12-2.16,1.51-2.55-1.07-5.14-2.09-7.56-3.41a2.7,2.7,0,0,1-.67-2.56c4.63-8.35,3.66-16.59-.46-24.69a23.38,23.38,0,0,0-13.06-11.82c-1.59-.58-3.25-.78-3.67,1.48-2.31,12.42-.84,24,7.9,33.8,4.69,5.28,10.64,8.53,17.31,10.55,1.36.41,2.28.9,2.2,2.62-.21,4.16.09,8.36-.44,12.47a95.07,95.07,0,0,1-2.94,12.64,3.17,3.17,0,0,1-2.24,1.28c-4.18-3.83-8.63-7.76-9-13.83-.6-9.87-4.91-16.82-14.14-20.64a2.89,2.89,0,0,1-1.5-2.21c.42-5.24-2.29-8.79-6.07-11.78-.63-.5-1.82-1-2.37-.7a2.79,2.79,0,0,0-1,2.29c.56,6.48-2.81,10.55-7.89,13.87-9.34,6.1-14.06,14.72-13.36,26,.13,2-.23,3.16-2.18,4.14a11.26,11.26,0,0,0-5.74,12.69c.34,1.54,1.14,2.37,2.75,1.73,6.07-2.4,11.38-.67,16.43,2.85A30.78,30.78,0,0,0,77,205.41c.74-.08,1.5,0,2.49,0a5.64,5.64,0,0,1-.55,1.35c-4.69,5.29-6.71,11.52-7,18.53-.21,5-2,9.42-6.45,12.3s-9.19,1.69-11.56-3c-.33-.65-1.29-1-2-1.47-.36.84-1.15,1.77-1,2.52a7.85,7.85,0,0,0,5.29,5.93c5.4,2.07,11.87-.17,15.34-5.27l1.69-2.45c.6.9,1,1.38,1.27,1.92,3.89,7.61,9.64,12.73,18.36,14.11a4.73,4.73,0,0,1,2.55,2.1c2.21,3.29,4.23,6.71,6.41,10,.89,1.35,2,2.56,3.46,4.43-3.65,1.38-6.77,2.65-10,3.68-.45.15-1.7-.73-1.87-1.35-2.72-9.36-9.34-14.61-18.26-17.34a22.63,22.63,0,0,0-17.53,1.27c-1.46.76-2.42,1.62-1.18,3.46,11.48,17,30.1,23.76,49.21,13.39,1.46-.79,2.29-.63,3.33.48,2.53,2.69,5.43,5.09,7.65,8,2.88,3.8,5.28,8,7.8,12,.62,1,.93,2.39-.85,2.44-5.83.15-11.79.56-16.59-3.77-7.1-6.4-15-8-23.87-4.19a3.05,3.05,0,0,1-2.77-.61c-3.29-3.8-7.57-4.38-12.14-4-1,.09-1.88.9-2.82,1.38a9.84,9.84,0,0,0,1.44,2.45c4.19,3.83,5.35,8.53,4.14,13.89-2.66,11.75,0,21.75,9.34,29.76a3.57,3.57,0,0,1,.84,3c-1.61,5.82-.21,10.09,4.66,13.64,1.62,1.18,2.66.82,3.47-.94,2.5-5.47,7.07-8.1,12.76-9.07a30.89,30.89,0,0,0,19.58-11.59,9.11,9.11,0,0,0,.94-2.29c1.22,1.2,1.47,1.51,1.5,1.84.56,7.23,3.63,13.23,8.56,18.49a14.56,14.56,0,0,1,4.11,10.35c-.09,6.62-4.91,10.22-10.89,8.29-.59-.19-1.41.33-2.12.53.2.73.25,2,.64,2.09,2.12.64,4.46,1.73,6.47,1.35,6.24-1.18,10.08-7.85,9.06-14.81-.14-.95-.26-1.9-.38-2.76.44-.18.53-.24.61-.24a2.42,2.42,0,0,1,.81.05c8.5,3,16.51,2.53,23.91-3.09a3.28,3.28,0,0,1,2.28-.29c5.06,1,10.1,2.12,15.18,3,1.73.32,2.3,1,1.66,2.63-.91,2.22-2,4.38-2.85,6.61-.82,2-1.9,1.93-3.63,1-12.33-7-31.1.28-35.77,13.71-.82,2.35-.25,3.6,2.12,4,9.55,1.54,18.84,1.06,27.44-4,8.15-4.75,13.27-11.87,16-20.83.44-1.46.81-2.86,2.84-2.76,5.08.22,10.18.13,15.23.6a25.3,25.3,0,0,1,12.1,3.92c-4.38,4.79-8.45,9.61-15.2,10-9.67.61-16.39,5-20.13,14a2.83,2.83,0,0,1-2.15,1.53c-5.55-.57-9,2.68-12.14,6.48a2.64,2.64,0,0,0-.36,2.21c.17.44,1.23.84,1.85.78,6.79-.56,10.92,3,14.49,8.33,6.17,9.22,14.91,13.86,26.2,13a3,3,0,0,1,3.35,1.68,11.94,11.94,0,0,0,12.79,6.26c1.89-.27,2.61-1.24,1.87-3.09-2.27-5.65-.81-10.75,2.49-15.44a31.56,31.56,0,0,0,5.63-22.86,10.69,10.69,0,0,1,.07-1.75c.44,0,.67,0,.78.07,5.88,5,12.74,7.1,20.41,7.53,4.85.27,9.14,2.42,11.5,7.14s.84,8.57-3.66,10.67c-.59.27-.9,1.16-1.34,1.76.7.45,1.7,1.44,2.07,1.25,1.9-1,4.09-1.92,5.36-3.52,3.09-3.87,2.3-10.53-1.42-14.59-1.41-1.54-3.13-2.81-5-4.46.69-.45,1.1-.78,1.57-1,7.7-3.92,12.93-9.69,14.27-18.55.14-.93,1.28-1.88,2.18-2.5,4-2.78,8.19-5.35,12.14-8.22,1.44-1,2.23-1.16,2.92.51,1,2.39,2,4.78,2.89,7.2.51,1.37.07,2.26-1.47,2.66-7.65,2-12.6,7.17-15.74,14.15s-3.68,14.08-.38,21.21c.9,1.93,2,2.78,4.08,1.29,6.93-5,12.76-11,15.77-19.22,3.74-10.2,2.5-20-2.64-29.43-.94-1.72-.82-2.79.59-4.06,3.5-3.15,6.74-6.63,10.43-9.53,2.88-2.26,6.26-3.88,9.47-5.68,1.33-.75,2.38-.4,2.43,1.35.17,6.08-.07,12-4.51,16.94-6.22,6.91-7.11,14.74-3.58,23.24a2.83,2.83,0,0,1-.5,2.57c-4.17,3.46-4.57,8-4.09,12.89a2.69,2.69,0,0,0,1.22,2,2.39,2.39,0,0,0,2.1-.7c4.26-5,9.61-5.57,15.65-4.34,11.26,2.29,20.82-.7,28.44-9.56a3.8,3.8,0,0,1,3.23-.84A11.86,11.86,0,0,0,375,364.36c.93-1.43.73-2.46-.77-3.13-6.07-2.7-8.53-7.82-9.64-14a30.29,30.29,0,0,0-11.88-19.09,13.25,13.25,0,0,1-1.41-1.57c1-.21,1.59-.39,2.2-.45a29.93,29.93,0,0,0,17.08-7.88c4-3.58,8.6-5.85,14.23-4.17,4.78,1.43,6.79,5.48,5.19,10.05-.24.68.24,1.61.4,2.41.79-.25,1.82-.28,2.34-.81,1.88-1.92,2-5.62.47-8.63-2.52-5-8.38-7.71-14.33-6.71-.93.16-1.86.27-2.78.4a5.12,5.12,0,0,1-.16-1,4.25,4.25,0,0,1,.21-.8c2.9-8.3,2.52-16.15-3-23.4a3.54,3.54,0,0,1-.44-2.55c1-5.16,2.1-10.29,3.07-15.45.3-1.57.9-2.16,2.42-1.5,2.45,1.09,5,2.07,7.29,3.37a2.68,2.68,0,0,1,.67,2.55c-3.43,6-3.76,12.32-1.88,18.8,2.41,8.26,7.25,14.46,15.44,17.73,2.07.82,3.36.41,3.79-2,1.5-8.28,1.3-16.43-2.12-24.24C397,272.24,389,266.14,378.6,262.78c-1-.3-2.37-1.35-2.38-2.08-.19-8.5-.48-17.06,2.89-25.16a22.83,22.83,0,0,1,1.62-2.73c4.76,4.53,9.53,8.55,9.92,15.27.55,9.53,4.92,16.28,13.83,19.91a2.51,2.51,0,0,1,1.79,2.95c-.37,5.33,2.71,8.86,6.66,11.72,1.56,1.14,2.86.27,2.7-1.56-.58-6.93,3.09-11.07,8.46-14.71,9.18-6.22,13.83-15,12.79-26.27a2.89,2.89,0,0,1,1.8-3.27C443.78,234.14,445.78,229.84,444.87,224.12Zm-50.56-75.94c11.17.5,19.24,6.2,25.83,14.5.93,1.16.41,1.73-.81,2.22-10,4-25.7-3.91-28.36-14.34C390.06,146.92,393.13,148.75,394.31,148.17Zm-89-90.23c8.27-8.16,18.4-9.88,29.43-8.43.24,0,.47.26,1.06.61-2.57,5.92-7.1,9.51-12.75,11.72s-11.5,2.61-17.18-.16C303.39,60.47,303.33,59.92,305.34,57.95ZM301.18,35.5l6.36,2.28c-1.07,2.06-4.48,3.76-5.89,2.56-1-.84-1-2.83-1.47-4.31ZM179.07,56.3c.36-11.27,6-19.67,14.59-26.38a6.33,6.33,0,0,1,1.44-.56c2.32,4.9,2,9.81.43,14.6-2.22,6.74-6.2,12.13-13.1,14.79C179.63,59.83,179,59.36,179.07,56.3ZM92.39,144.89c-1,1.68-1.78,1.7-3.13.33-6.65-6.71-9.39-14.86-9.24-24.69.07-1.11.14-2.78.31-4.43.16-1.46.85-1.81,2.29-1.19C92.38,119.17,97.79,135.79,92.39,144.89ZM88,271.16c-12.11,0-20.67-6.18-27.89-15.66a12.93,12.93,0,0,1,1.78-1c10.35-3.63,24.84,3.63,28.12,14C90.64,270.47,90,271.16,88,271.16Zm87.68,90.38c-8.17,7.86-18.06,9.84-28.93,8.45a10.34,10.34,0,0,1-1.76-.64c1.15-1.75,2.07-3.4,3.21-4.88,6-7.68,18.38-10.86,26.78-6.91C177.85,358.9,177.93,359.39,175.68,361.55ZM173,381.23c2.44-1.78,4.47-3.18,6.59-2,.89.5.8,2.72,1.35,4.94ZM302,363.2c0,10.1-6.61,21.55-16.38,27.29a69.33,69.33,0,0,1-1.11-8.15c-.13-9.19,6-18.56,13.89-21.58C301.36,359.61,302,360,302,363.2Zm86.62-88.53c.92-1.83,1.81-2,3.31-.49,5.94,5.78,9.18,14,9.27,23.61-.12,1.66-.25,3.32-.36,5-.18,2.55-1.44,2.38-3.12,1.27-6.53-4.29-10-10.44-11-18.07A19.13,19.13,0,0,1,388.58,274.67ZM385,175.78c.14,1.18.24,2.38.35,3.52-.3,6.17-2.74,11-8,14.37-1.4.9-2.28.63-3.25-.63a11.33,11.33,0,0,1,1.21-15.1,31.34,31.34,0,0,1,6.14-4.12C383.61,172.56,384.76,173.49,385,175.78Zm-14.35-1.42c-1-.34-1.78-1.87-2.35-3-.21-.41.3-1.41.76-1.85.21-.21,1.15.17,1.64.47,1.54.93,3,2,4.53,2.94,0,.4-.06.79-.08,1.19C373.66,174.22,372,174.79,370.68,174.35Zm-1.21-16.15c.52-.56,2.16-1,2.51-.62,3.46,3.29,6.78,6.73,10.08,10.18.33.34.33,1,.47,1.49-3.21,1.41-7.56.3-10.37-2.56s-3.75-2.61-5.94.53a6.53,6.53,0,0,0,2.12,9.78c1.81,1,2.24,1.77,1.32,3.83a13.21,13.21,0,0,0,.45,11.78c.36.72.67,1.46,1.11,2.44-5.21.88-11.38-3.21-12.46-10.44a26.77,26.77,0,0,1,4.34-18.76A55.69,55.69,0,0,1,369.48,158.2ZM357.61,139c3.4,3.12,6.33,6.77,9.45,10.19l-.47.76c-.95-.41-1.89-.84-2.84-1.24a31.56,31.56,0,0,0-5.38-2.11c-5-1-6.35-5-7.87-9.36A7.78,7.78,0,0,1,357.61,139Zm45.74-5.77c-.21-1.24,1.3-2.78,2-4.18l1.1.4,2.8,5.86C407.53,136.37,403.68,135.31,403.34,133.27ZM393.56,80a1.83,1.83,0,0,1,1.77.1,9,9,0,0,1,1.79,3.63c.18,1.37-.4,2.83-.64,4.26-1.17-.27-2.37-.47-3.51-.83-1.36-.44-2.69-1-4.37-1.66C390.48,83.37,391.95,81.61,393.56,80Zm-8.76,8.45c14.59,1.27,25.48,16,22.52,30.35-1.54,7.49-6.51,11.84-13.52,14S381,132.85,376,128c-4.57-4.49-4.85-12-.91-17.62,3.43-4.9,9.94-7.09,14.86-5s7.36,7.72,5.24,12.38c-1.48,3.27-3.9,4.47-7.43,3.67-.45-.1-.91-.43-1.32-.36a23.46,23.46,0,0,0-2.61.72c.56.81.93,2,1.7,2.38,5.91,2.6,12.19-.88,13.49-7.35a13,13,0,0,0-12.82-15.54c-10.21-.09-18.67,9.87-17,20,.15.87.24,1.75.3,2.21-4.6,0-8.73.07-12.85-.07a2.43,2.43,0,0,1-1.73-1.59C353.41,103,368.07,87,384.81,88.45ZM326.46,75.9a23.14,23.14,0,0,1,27.25,21.64,86.83,86.83,0,0,1-.76,11.31c-.38,4.31-.83,8.62-1.38,12.9a2.84,2.84,0,0,1-1.3,2c-4.71,1.66-11.2-.1-14.29-3.71-3.31-3.86-2.81-8.79,1.14-11.32,2.26-1.44,4.63-.95,6.27,1.36,1.47,2.07,1.27,3.86-.75,5.58-.62.53-.64,1.74-.95,2.64,1,0,2.18.27,2.93-.18a6.53,6.53,0,0,0,2.36-8.52c-1.73-3.7-5.85-5.8-9.33-4.76A10.5,10.5,0,0,0,331,118a14.27,14.27,0,0,0,12.41,9.2,28.87,28.87,0,0,0,5.54-.09c2.52-.38,3.8.53,4.34,3a27.21,27.21,0,0,0,1.47,3.75l-4.81-.53c-2-.21-2.89.73-2.83,2.74a15,15,0,0,0,10.1,13.67,67.43,67.43,0,0,1,8.82,4,2.42,2.42,0,0,1,.73,2.21c-2.78,3.89-5.71,7.67-8.62,11.47-.1.13-.33.15-1,.44a131.74,131.74,0,0,0-38.79-53.79c4.44-3,8.39-6.1,12.69-8.53,5.35-3,8.3-8.62,6.28-14.16-.7-1.92-2.47-3.55-4.06-5-.5-.45-2,.2-3,.34.45.76.73,1.79,1.38,2.24a6.48,6.48,0,0,1,2.92,6.73A7.81,7.81,0,0,1,330.4,102c-.88-4.48-1-9.06-2.76-12.87s-5.16-6.74-8.27-10.58C321.49,77.77,323.89,76.38,326.46,75.9Zm-11,7.53a2.6,2.6,0,0,1,2.43-.53c5.06,2.61,8.65,8.93,8.61,14.86s-2.19,7.11-7.31,4.17C313.21,98.49,311.24,89,315.47,83.42Zm-20.08-1.65c0-.7.94-1.95,1.45-1.95,4.93,0,9.87.13,14.8.29.28,0,.55.41,1.1.87-2.64,3.21-5.64,5.31-9.86,5.23-3.16-.05-3.89.72-3.55,3.88.51,4.69,4.23,7.13,8.93,6,.78-.19,2.33.1,2.49.53,2,5.53,6.21,8.5,11.93,10.26a9.37,9.37,0,0,1-6.34,3.8c-4.22.9-7.92-.53-11-3.26C297.6,100.63,295,91.76,295.39,81.77ZM307,92.9c-2.25.58-3.65-.45-4.35-3l7.25-1.71C310.3,90.85,309.24,92.33,307,92.9Zm-8.59,12c3.7,4.41,7.72,8.2,13.72,9.22a7.18,7.18,0,0,1,3.12,1.66c18.28,15.12,31.89,33.58,39.78,56.07a10.36,10.36,0,0,1,.48,4.56c-.76,6-.31,11.59,3.34,16.7a8.21,8.21,0,0,1,1,4c1.91,23.42-1.45,45.93-11.78,67.22a8.38,8.38,0,0,1-4.93,4.46c-.53-4.21-1.54-5.73-3.72-5.46a3.16,3.16,0,0,0-3,3.35c0,2.15,1.5,3.11,5.51,3.33-.57.82-1.05,1.41-1.41,2.06q-2.07,3.72-4.06,7.48c-1.1,2.07-1.81,4.44-3.27,6.2a124.06,124.06,0,0,1-54.9,38.59,9.87,9.87,0,0,1-4.3.47c-6-.69-11.81-.48-17,3.38a6.05,6.05,0,0,1-2.89.76c-23.34,2.34-45.74-1.12-67-11.09a14.74,14.74,0,0,1-4.64-3.73c-3.71-4.27-7.64-8-13.59-8.9a6.37,6.37,0,0,1-2.86-1.55c-18.5-15.19-32.09-33.88-40.08-56.51a9.66,9.66,0,0,1-.36-4.29c.75-5.85.44-11.43-3.23-16.42a5.91,5.91,0,0,1-.9-2.84c-2.28-23.71,1.05-46.49,11.39-68.08a11.14,11.14,0,0,1,3.06-3.8c4.66-3.64,8.07-7.91,9.36-13.94.46-2.14,2.44-4.06,4-5.84,14.5-16.62,31.9-29.13,52.75-36.59a15.23,15.23,0,0,1,6.18-.63c5.59.44,10.72-.24,15.71-3.23,2.26-1.36,5.49-1.35,8.31-1.52a125.89,125.89,0,0,1,62.3,11.72A12.46,12.46,0,0,1,298.44,104.95Zm60.19,177.2c2.54.74,5.1,1.41,7.6,2.24,1.6.53,1.72,1.59.86,3a17.27,17.27,0,0,1-17.79,8c-2.32-.41-2.89-1.54-2.42-3.66C348,286.43,352.87,282.6,358.63,282.15Zm-.58-9.2c.19-.47,1.19-.8,1.83-.8.29,0,.7.93.84,1.5.44,1.76.76,3.55,1.19,5.57a3.67,3.67,0,0,1-4.54-2.55C357,275.6,357.58,274.12,358,272.95Zm6-1.07c.32-2.75-1.05-3.44-3.37-3.4-4.9.09-8,4.14-6.67,8.87.36,1.27.73,2.29-.88,2.9a15,15,0,0,0-9.44,10.5c-.09.3-.43.53-.65.78-4.19-3.11-5.19-9.25-2.17-14.24,4.86-8,12.52-11.67,21.44-12.53,9.19-.89,8.12-1.28,8.48,7.61.12,3.15.55,6.45-1.61,9.84C366,279.14,363.57,276.17,364.07,271.88ZM114.33,134.62a2.52,2.52,0,0,1-.37-2.41,18.68,18.68,0,0,1,14.77-9c1.84.67,4.79.91,5.25,2.12.6,1.55-.37,4.12-1.37,5.83C128.35,138.43,119.76,137.69,114.33,134.62Zm6.55,12.86c-.56-2.41-1.1-4.73-1.72-7.38,3-.13,4.53,1.19,4.88,3.5C124.34,145.61,123.32,147.07,120.88,147.48Zm-3.77-.12c-.13,3,.63,3.75,3.65,3.55a6.74,6.74,0,0,0,6.27-9c-.33-1.11-.89-2.09.7-2.68a15.16,15.16,0,0,0,9.67-10.66c.09-.32.41-.57.76-1,4.57,5,5,10.64,1.19,15.88-5.8,8-14.13,11-23.6,11.44-4.94.24-5.11.08-5.4-4.91a69.35,69.35,0,0,1,0-8,31.57,31.57,0,0,1,1.2-5C115.11,140.13,117.29,143.1,117.11,147.36ZM268.86,78.73a12,12,0,0,1,7.83-1.93c3.59.42,7.28.1,10.92.1.07.38.14.77.21,1.15-2.92,1.26-6,2.23-8.69,3.85-3.63,2.18-6.88,1.13-10.23-.33C266.91,80.71,267.16,79.73,268.86,78.73ZM258.64,8.45c2.14-.24,5.41,2,6,4.12a1.91,1.91,0,0,1-.6,1.73c-2,1-4.17,1.75-6.56,2.72-.18-2.73-.41-5-.39-7.26C257.11,9.3,258.07,8.52,258.64,8.45Zm-2.69,14.29c10.44-9.71,30.92-9.73,39.7,7.14,3.24,6.24,1.52,15.08-3.63,20.64-4.46,4.82-12,6.78-17.79,4.63-9.11-3.38-11.84-16.28-4.87-23,4.57-4.41,12.38-3.34,15.24,2.09,1.87,3.55,1,6.73-2.35,8.85-.47.3-1.14.43-1.41.84a11.34,11.34,0,0,0-.95,2.24c.8.21,1.72.79,2.38.58a9.57,9.57,0,0,0,5.31-13.85c-2.58-4.81-6.79-7-12.13-6.76-6,.23-9.73,3.8-12,8.93a17.64,17.64,0,0,0,6,21.27c.57.41,1.12.86,1.73,1.33-3.38,3.18-6.42,6.11-9.59,8.9a2.42,2.42,0,0,1-2.32,0C245.1,54.22,244.33,33.55,255.95,22.74ZM204.57,58.8c4.69-14,23.06-19.13,35.13-9.66,3.35,2.64,6,6.17,8.86,9.43s5.71,7,8.5,10.53c.39.5.82,1.35.65,1.83-1.88,5.12-9.73,9-15,7.49a7.29,7.29,0,0,1-5.28-7.28c.11-3,2.08-4.87,5-4.69,2.73.17,3.85,1.7,3.84,4.84,0,.75.69,1.5,1.06,2.24.69-.5,2-1,2-1.49-.09-2,0-4.34-1-6-1.67-2.8-4.73-3.4-7.85-2.79a7.23,7.23,0,0,0-6,5.45,10.38,10.38,0,0,0,6.51,12.55c5.07,1.75,9.87,1.1,14-2.55a41.06,41.06,0,0,0,4.44-4.57c1.26-1.53,2.41-2.07,4.22-.83a29.79,29.79,0,0,0,4.2,2c-1.67,1.32-2.82,2.2-3.94,3.12-1.46,1.21-1.52,2.46,0,3.69A19.06,19.06,0,0,0,276,86.62a7.27,7.27,0,0,0,2.58-.87c3.4-1.4,6.8-2.86,10.22-4.23a16.51,16.51,0,0,1,2.55-.61c.83,5.61,1.61,10.93,2.48,16.77a133.66,133.66,0,0,0-32-9.59,146.12,146.12,0,0,0-33.65-1.17c.13-.93.19-1.52.32-2.1.34-1.53,1.06-3.06,1-4.57a24.72,24.72,0,0,1,1.61-9,11.26,11.26,0,0,0-8.39-14.7,9.71,9.71,0,0,0-4.5.68c-.54.17-.81,1.23-1.19,1.88.76.35,1.55,1.07,2.26,1,5.68-.69,9.86,3.41,9,9a8.63,8.63,0,0,1-.74,1.66c-6-7.82-13.66-10.77-23.55-8.59A22.69,22.69,0,0,1,204.57,58.8Zm18.5,17.74c-6,3.68-13.4,1.3-17.34-5.62-2.82-5-2-6.12,5.54-6.17,4.74.1,9.41,2.46,12.83,7.19C225.74,74.23,225.53,75,223.06,76.54Zm-19.34-1.91c1.9,1.14,2.5,2.84,1.73,4.51-.53,1.15-1.92,2-3.1,2.72-.39.24-1.54-.2-1.89-.67s.1-1.31.41-1.87C201.7,77.81,202.66,76.37,203.72,74.63Zm-11.3-1.26a33,33,0,0,1,4.43-4.18A27.83,27.83,0,0,1,200.75,67c.42,4.87-.44,8.62-3.7,11.41-2,1.69-1.67,3,0,4.54,3.71,3.58,8.41,3,11.13-1.61.71-1.19,1.21-1.92,2.75-1.2a14.16,14.16,0,0,0,13.8-.79,6.89,6.89,0,0,1,1.23-.38c.71,5.33-3.2,10.65-8.85,12-9.24,2.18-17.32-.81-24.13-6.77C186.48,78.51,186.45,80.34,192.43,73.37ZM170,92.48c3.12-3.45,6.79-6.4,10.87-10.12a16.37,16.37,0,0,1-.44,2.44c-1.12,2.83-2.35,5.63-3.41,8.48-1.17,3.16-5.23,5.9-9.69,5.77C168.3,96.58,168.61,94,170,92.48ZM166.6,40.62c.58,2.47-.9,6.36-2.63,6.25-1.43-.08-2.77-1.65-4.6-2.86ZM119,55.24a63.2,63.2,0,0,1-2.65,6.11l-6-5.46c2-2.75,4.8-3.83,7.53-2.72A2.41,2.41,0,0,1,119,55.24Zm1,7.34c4.09-17.7,21.32-23.7,33.47-18.57,7,2.95,10.3,8.88,10.94,16.16.59,6.62-2.29,12-7.79,15.57-4.94,3.25-10.09,2.57-14.86-.58s-6.83-7.47-6-13.06c.67-4.74,5.8-8.56,10.47-8,4.94.61,7.31,4.37,6,9.17-.25.89.37,2,.58,3,.84-.66,2.11-1.15,2.44-2,1.35-3.49,1.15-7-1.49-9.87a10.91,10.91,0,0,0-11.12-3.38c-9.08,2.15-13,11.68-8.51,20.49a18,18,0,0,0,18.62,9.26c.69-.12,1.39-.16,1.75-.2,0,4.55.08,8.69-.09,12.82a2.63,2.63,0,0,1-1.83,1.81C133.24,96.62,115.83,80.51,120,62.57ZM108.37,128.4c-5.44-11.11.78-25.78,12.89-30.38,6.58-2.49,13.22-1.93,20-.65,3.7.7,7.51.8,11.25,1.27.77.1,2.11.61,2.13,1,.34,4.94,1.24,10-3.06,14-3.68,3.43-7.87,3.64-11.07.35-2.75-2.84-1.63-7.2,2.25-8,1.12-.22,2.49.95,3.77,1.44.9.35,1.82.62,2.74.93,0-1,.24-2.18-.19-3-1.76-3.14-5.75-3.88-9.25-1.92a8.18,8.18,0,0,0-3.47,10.33c2.25,4.69,8.53,7.24,13.22,5,5-2.34,8.28-6.17,8.59-12a34,34,0,0,0-.05-5.83c-.3-2.44.37-3.9,3-4.34a25,25,0,0,0,3.82-1.4c-.27,2-.47,3.38-.61,4.73-.23,2.18.74,3,2.93,2.83a15,15,0,0,0,13.6-10.27,78.27,78.27,0,0,1,3.82-8.61c.29-.57,1.84-1.19,2.16-.94,4,3.06,7.87,6.28,12.13,9.75-21.08,8.16-38.93,21.18-53.86,39a29.72,29.72,0,0,0-2.52-4.29,79.5,79.5,0,0,1-7.45-10.44,10.74,10.74,0,0,0-15.57-2.9,5.67,5.67,0,0,0-2,2.24,10.09,10.09,0,0,0-.09,3.25c.92-.45,2.15-.67,2.69-1.41a6.7,6.7,0,0,1,6.82-2.72,7.81,7.81,0,0,1,6.28,4.8,15.25,15.25,0,0,1-2.2.19c-7.87-.76-14.08,2.2-18.87,8.36C110.24,131.34,109.79,131.3,108.37,128.4ZM107.73,174c.5-3.78.44-7.64.67-12.31a19.38,19.38,0,0,1,1.35,2c1.32,3,2.57,6.11,3.93,9.13,1.19,2.66.09,7.33-2.78,10.13C109,180.07,107.27,177.57,107.73,174ZM68.85,142.76c2.09,1.13,3.72,4.17,2.55,5.64-.83,1-2.93,1.06-4.46,1.53l-.4-.84C67.31,147,68.08,144.89,68.85,142.76Zm-28.08,50.3c-.41,0-1.25-1-1.17-1.37a10.74,10.74,0,0,1,1.48-4.07c2.35-3.12,3.75-2.83,5.12.78.51,1.35,1.15,2.65,1.83,4.2C45.44,192.79,43.1,193,40.76,193.07Zm11.35-.95c-8.87-12.44-5.74-29.8,8.52-37.44,6.5-3.49,13-2,18.87,2,5.69,3.86,8.13,9.56,7.39,16.31-.65,6-4.54,9.6-10.1,11.27a12.64,12.64,0,0,1-14.06-4,9.56,9.56,0,0,1,2-14.29c3.69-2.35,7.22-1.51,9.42,2.26.19.32.26.78.53,1,.74.52,1.55.93,2.33,1.38.22-1,.86-2.07.59-2.88a9.46,9.46,0,0,0-12.19-5.72c-8.89,3.12-11.22,15-4.26,21.64,7.16,6.85,19.61,5.83,25.61-2.09.64-.85,1.29-1.69,1.88-2.47,3.17,3.4,6.14,6.52,9,9.76a2.23,2.23,0,0,1-.07,2.15C84.64,205.89,62.13,206.17,52.11,192.12ZM92.7,243.57c.4,2.92.16,3.15-2.67,2.26-11.84-3.72-18.1-18.87-12.74-30.61,2.76-6,7.47-10.21,12.71-14,3.43-2.47,6.61-5.28,9.95-7.88.57-.44,1.53-1,2-.79,4.75,1.89,8.57,9.2,7.59,14.25a7.31,7.31,0,0,1-7.76,6.09,4.62,4.62,0,0,1-4.1-6.4c.76-1.87,2-3,4.34-2.53.73.14,1.64-.66,2.46-1-.57-.72-1.17-2.07-1.72-2.05-1.93.07-4.13.14-5.7,1.09-2.75,1.64-3.61,5.4-2.64,8.67a7.49,7.49,0,0,0,6.63,5.48,10.42,10.42,0,0,0,11.52-7.84,14,14,0,0,0-4-14.21c-.66-.65-1.29-1.32-2-2-3.7-3.39-3.75-4.73-.07-9.09l3,3.52c1.16,1.36,2.33,1.3,3.48,0A19.36,19.36,0,0,0,117.6,174c0-.92-.68-1.87-1.06-2.79-1.45-3.59-3-7.16-4.31-10.8-.2-.55.39-2,.76-2.05,5.06-.71,10.14-1.24,15.58-1.86A132.55,132.55,0,0,0,119,188.65a143.71,143.71,0,0,0-1.09,34.09c-5.4-3.34-10.95-1.44-16.08-3.51-5.93-2.39-12.33,1.33-14.07,7.29a11,11,0,0,0,.15,5.11c.13.63,1.45,1,2.24,1.5.29-.84,1-1.81.8-2.51-.85-3,.49-5.08,2.55-6.82s4.66-2.58,7.45-1.41c.07,0,.1.15.3.46a9.29,9.29,0,0,1-1.1,1.24C94,229.16,91.62,235.71,92.7,243.57Zm3.39.19c-.1-1.19-.29-2.38-.4-3.32.22-6.29,2.59-11.1,7.67-14.57,1.75-1.2,2.73-.78,3.83.83,2.84,4.18,3,9.53-.38,13.39-2,2.27-4.82,3.9-7.42,5.57C97.44,246.91,96.28,246,96.09,243.76Zm14.23,1.13c1.08.33,1.87,2,2.51,3.16a2.1,2.1,0,0,1-.68,1.89c-.32.24-1.29-.16-1.84-.47-1.55-.9-3-1.92-4.54-2.89,0-.38-.05-.78-.07-1.17C107.25,245.19,109,244.48,110.33,244.89Zm1.56,16.1c-1.06,1.47-2.37,1.57-3.72.19-2.9-3-5.88-5.84-8.71-8.87-.52-.56-.47-1.64-.67-2.48a9.35,9.35,0,0,1,2.35-.41c3.32.24,6.37,1.21,8.48,4,1.38,1.84,2.67,1.43,4.12,0,3.67-3.52,3.28-8.63-1.11-11.18-1.76-1-2-1.87-1.21-3.69a13.52,13.52,0,0,0-.56-12c-.33-.64-.58-1.3-1-2.21A10.83,10.83,0,0,1,121.16,231c2.52,5.93,1.89,12-.72,17.5C118.3,253,114.84,256.91,111.89,261Zm9.44,17.34c-2.29-3-4.94-5.61-7.45-8.4l.36-.61c2.94,1.18,5.79,2.72,8.83,3.48,4.15,1,5.64,4.12,7,7.54.59,1.55.1,2.41-1.66,2C125.64,281.69,123.17,280.73,121.32,278.33Zm-43.47,8.08C77.73,287.79,76.28,289,75,291l-3.18-7.19C74.36,283.29,78,284.78,77.85,286.41Zm8.87,53.78c-2.51-2.07-3.43-4.44-2.75-7.42.36-1.6,1.07-2.17,2.72-1.32S90.33,333,92.5,334Zm15.56-9.46c-12.32,2.38-29.09-8.33-29-25.28.08-11.71,8.94-20.35,20.66-19.56,6.18.41,12.86,5.6,14.29,11.1a14.77,14.77,0,0,1-6.42,15.9c-6.48,4.09-14.19,1.66-16.33-5.2a8,8,0,0,1,1.84-8.25c2-2.1,4.37-1.9,7-1.24.89.22,2-.47,3-.74-.73-.79-1.32-2-2.24-2.32-3.77-1.49-7.31-.93-10.18,2.08-3.33,3.5-3.94,7.72-2.35,12.12,3.4,9.44,15.08,11.86,23.16,4.79a17.47,17.47,0,0,0,6-16.43,16,16,0,0,1-.1-1.7c4.49,0,8.79-.07,13.06.1.55,0,1.46,1.35,1.5,2.12C127,312.67,118,327.69,102.28,330.73ZM162,340.78c-2.61.94-5.14,2.32-7.82,2.75a22.86,22.86,0,0,1-26.66-20.76c-.35-4,.3-8.08.64-12.12.36-4.22.87-8.43,1.43-12.63.12-.86.57-2.13,1.21-2.4,4.77-2,12.07.42,15.12,4.8a7.1,7.1,0,0,1-1.73,10.06,4.42,4.42,0,0,1-6.36-1c-1.64-2.07-1.37-3.76.67-5.78a7,7,0,0,0,1-2.44c-1.06,0-2.37-.43-3.15,0-2.93,1.78-3.72,5.62-2.09,8.82,1.81,3.57,6,5.46,9.54,4.28a10.38,10.38,0,0,0,6-13.65c-2.2-4.86-5.93-8-11.41-8.55a26.16,26.16,0,0,0-6.37,0c-2.54.36-3.79-.5-4.31-2.94a24.86,24.86,0,0,0-1.47-3.71l4,.41c3.39.33,4.46-.47,3.48-3.59A53.69,53.69,0,0,0,129,272.21c-.56-1-2.24-1.46-3.48-2-4-1.72-8.09-3.36-12.28-5.09l10.55-14c8.16,21.47,21.27,39.24,38.79,54.1-2.26,1.54-4.41,2.64-6.09,4.23a23,23,0,0,1-6.66,4.67,11.15,11.15,0,0,0-5.6,15.14,12.32,12.32,0,0,0,4,4c.48.35,1.72-.35,2.61-.57-.36-.74-.53-1.89-1.12-2.15-5-2.29-4.2-11,2-13.36-1.64,10.06,2.24,17.38,10.33,22.78C162,340.2,162,340.49,162,340.78Zm3.76-5.06c-.44,1.29-1.29,1.58-2.6.81-5.76-3.39-9.33-10.47-8.44-16.92.49-3.53,1.69-4.26,5.06-3.09,4.89,1.7,8,6.25,8,12.88C167.35,330.67,166.63,333.22,165.76,335.72Zm20,2c0,.64-.83,1.8-1.28,1.8-5,0-10-.13-15.07-.27-.28,0-.55-.42-1.15-.92,3-3.23,6.1-5.55,10.5-5,2.18.26,3-.67,3.11-2.76.17-5.12-3.89-8.38-8.94-7.26-.83.19-2.44-.16-2.66-.7-2.17-5.26-6-8.46-12-9.93a12.15,12.15,0,0,1,1.78-1.9c5-3.31,10.72-3,15.6,1.16C183.51,318.66,186.13,327.65,185.76,337.72Zm-14.64-7c.25-.93.22-2.29.82-2.7A8.19,8.19,0,0,1,176,326.6c.78,0,1.61,1.18,2.77,2.11-.88.6-1.3,1.1-1.79,1.18C175.05,330.23,173.08,330.44,171.12,330.69Zm40.2,10.38a30.17,30.17,0,0,1-7.1,1.37c-3.42.1-6.85-.32-10.28-.52,0-.38-.09-.76-.14-1.14,5.84-.68,10.38-7,17.18-3.41a20.74,20.74,0,0,1,2.52,1.84C212.78,339.85,212.15,340.83,211.32,341.07ZM224,409.31c0,.55-1.16,1.61-1.56,1.51a10.91,10.91,0,0,1-4.2-1.75c-2.79-2.2-2.52-3.39.73-4.69,1.5-.6,3-1.3,4.67-2.06C223.77,405,224,407.16,224,409.31ZM226,395.76c-11.38,12.18-32.82,9-40.38-5.85-3.46-6.8-2.06-13.4,2.15-19.36,4-5.72,9.9-7.88,16.76-6.94,5.79.78,10.49,6.3,11.13,12.6.58,5.77-2.61,11.38-7.54,13.25a9.8,9.8,0,0,1-10.61-2.73c-3.25-3.87-2.48-8,1.81-10.81.86-.55,1.25-1.81,1.85-2.75-1.14,0-2.48-.41-3.39,0-5.57,2.79-7.21,8.45-4,13.8a12.29,12.29,0,0,0,12.15,6.24c5.73-.41,9.52-3.86,11.7-9a17.66,17.66,0,0,0-6.46-21.56c-.44-.3-.83-.67-1.29-1,3.39-3.18,6.5-6.15,9.73-9a2.21,2.21,0,0,1,2.11.08C233.42,362.65,238.56,382.35,226,395.76Zm50.3-34.56A22.56,22.56,0,0,1,242,370.65c-3.9-2.94-6.9-7.11-10.18-10.84-2.67-3-5.07-6.31-7.74-9.36-.9-1-1.26-1.74-.19-2.76a71,71,0,0,1,5.38-5.19c5.48-4.28,13.61-1.53,14.42,4.76.51,4-2.79,6.81-6.4,5.43a3.56,3.56,0,0,1-2.6-4c.08-.88-.59-1.84-.93-2.76-.78.85-2,1.59-2.26,2.58-.71,2.67.82,5.33,3.54,6.88a8.27,8.27,0,0,0,9.12-.78c4.83-3.89,3.52-12.49-2.38-15.74a14.13,14.13,0,0,0-14.91,1.31A36.88,36.88,0,0,0,222,345c-1.39,1.7-2.61,2.41-4.61,1a22.88,22.88,0,0,0-3.95-1.78l4-3.22c1.5-1.23,1.38-2.38,0-3.68a15.11,15.11,0,0,0-17.1-2.57,73.6,73.6,0,0,1-8.76,3.42c-.62.21-2.17-.42-2.23-.83-.37-2.55-.32-5.15-.67-7.71s-1-4.81-1.67-8a137.46,137.46,0,0,0,66.16,11.24c-3,4.72-.58,10-2.84,14.87-2.83,6,1.1,13.46,7.36,15a11.79,11.79,0,0,0,5.11-.34c.57-.13.89-1.35,1.32-2.07-.77-.31-1.58-1-2.29-.89-6,.84-10.12-3.89-8.3-10.81,6.17,7.93,13.83,10.84,23.8,8.65A26.37,26.37,0,0,1,276.34,361.2Zm-18.93-17.9c6-4.34,14.37-1.72,18.28,5.82.34.65.6,1.35.89,2,.74,1.78.27,2.86-1.74,3.09l-3.78.41c-6.29-.26-11-2.73-14.34-7.7C255.64,345.36,255.89,344.39,257.41,343.3Zm18.37-3.49a6.21,6.21,0,0,1,3.89-2.2c1.24-.21,1.94.81,1,2.18-1.1,1.55-2.1,3.15-3.32,5C275.25,343.45,274.67,341.55,275.78,339.81Zm16.74,1.49c-3.38,3.49-6.88,6.87-10.38,10.24-.28.27-.84.24-1.79.5-.35-4.43.27-8.16,3.52-10.88,2.18-1.84,1.85-3.2,0-4.93-3.49-3.29-8.31-2.77-10.76,1.52-1.05,1.82-1.84,1.92-3.69,1.18a14.32,14.32,0,0,0-12.32.68c-.41.21-.81.45-1.23.64-.15.06-.36,0-.79-.06-.78-2.14.29-4,1.2-5.81a11.69,11.69,0,0,1,9.53-6.32c10.86-1.25,19.36,3.36,26.46,11.1A2.27,2.27,0,0,1,292.52,341.3Zm18.65-14.5c-3.32,3.5-7,6.64-10.56,9.92l-.5-.43c1.55-4,2.6-8.28,4.83-11.83,1.29-2.06,4.44-3,6.83-4.26.16-.09,1.44,1.13,1.34,1.51C312.66,323.48,312.34,325.57,311.17,326.8Zm51.58,35.85c.65-1.41,1.18-2.86,1.89-4.6,2,1.72,3.78,3.15,5.39,4.75a2,2,0,0,1-.16,1.93,12.34,12.34,0,0,1-4.51,1.81C362,366.85,361.34,365.72,362.75,362.66Zm-1-10.51c0,17-18.62,29.71-34.09,23.37-9.69-4-16.71-20.2-4.84-30.71,4.17-3.69,9.07-4,14-1.94a13.3,13.3,0,0,1,8.66,11.32c.81,7.16-5.9,12.89-12.36,10.69-3.8-1.3-5.44-4.48-4.27-8.32.08-.26.33-.54.28-.77-.2-.88-.49-1.75-.74-2.61-.78.44-1.89.7-2.28,1.38a9.39,9.39,0,0,0,3.07,12c7.22,4.93,17.81.3,19.42-8.49,2-11-7.89-20.92-19.66-19.57-.89.1-1.77.24-2.29.3,0-4.53-.09-8.66.08-12.78a2.67,2.67,0,0,1,1.81-1.84C346.24,322.85,361.74,336,361.74,352.15Zm12-58.16c4,14.38-6.64,28.37-22.21,29-3.65.16-7.34-.56-11-.93-3.94-.41-7.86-1-11.81-1.25-1.79-.1-2.46-.61-2.52-2.38-.14-4.94-.52-9.87,4.08-13.4,3.55-2.73,7.51-2.61,10.46.53,2,2.09,1.89,4.58-.21,6.62s-3.93,1.79-6.17-.44c-.56-.56-1.64-.61-2.47-.89-.05.92-.43,2-.1,2.72a6.15,6.15,0,0,0,6.75,3.22,8.34,8.34,0,0,0,6.64-6c1-3.2-.2-5.8-2.49-8-6.35-6.08-17.14-2.39-19.26,6.75a28.6,28.6,0,0,0-.43,8.53c.2,2.54-.21,4.09-3,4.52a21.22,21.22,0,0,0-3.77,1.42c.24-2.19.46-3.63.54-5.08.1-1.84-.77-2.66-2.69-2.62A15.56,15.56,0,0,0,300.6,326c-1.27,3.36-2.88,6.59-4.37,9.86a3.6,3.6,0,0,1-.8.88L282,326.6a131.83,131.83,0,0,0,54-39c3.08,4.57,6.18,8.61,8.67,13,3.19,5.6,10,8.3,15.34,5.49a11.76,11.76,0,0,0,3.18-2.6c1-1.12,2-2.67.3-3.83s-2.14.64-2.84,1.65c-1.56,2.24-3.81,2.79-6.35,2.49-2.95-.35-5-1.95-6.72-5.13,10.17,1.49,17.58-2.21,23.32-11C372.13,290.28,373.24,292.06,373.78,294Zm-.44-48.59c-.36,2.81-.34,5.68-.51,8.53a4.51,4.51,0,0,1-.91,2.71c-1.11-2.64-1.9-5.48-3.41-7.87-2.35-3.72-1.59-7.16.07-10.7a14.6,14.6,0,0,1,1.43-1.9C372.11,239.27,373.79,241.87,373.34,245.4Zm4.77-19.32c-3.15-3.1-6.77-5.81-6.84-10.9-.07-5.32,3.38-9.12,8.14-8.67a4.7,4.7,0,0,1,4.36,4.86c-.13,2.66-1.91,4-4.82,4-.8,0-1.59.77-2.38,1.18.53.67.93,1.65,1.61,1.93,2.64,1.08,4.91.18,6.75-1.81a8.18,8.18,0,0,0,.61-10.26c-2.31-3.2-7-4.22-11-2.38-6.39,2.9-8.73,11.9-4.52,18.05a27.09,27.09,0,0,0,5.23,5.69c2.14,1.74,2.93,3.31,1.17,5.71a21.69,21.69,0,0,0-1.58,3.26c-1.27-1.52-2.23-2.72-3.22-3.88-1.13-1.35-2.26-1.4-3.46,0A19.36,19.36,0,0,0,363.44,245c-.05,1.09.75,2.23,1.19,3.32,1.41,3.51,2.92,7,4.18,10.55.21.57-.52,2.12-1,2.18-5,.69-10,1.17-15.39,1.75,9.3-20.75,12.55-42.61,10.67-65.71a36.69,36.69,0,0,0,4,1,120.78,120.78,0,0,1,14,2.4c5.34,1.33,10.92-2.64,12.26-8,.41-1.65-.08-3.59-.49-5.32-.1-.45-1.44-.61-2.21-.9-.24.71-.86,1.55-.67,2.1,1.08,3.06-.26,5.2-2.38,7.11s-4.89,2.24-8.67,1.35c8.45-6.17,11-14.06,8.9-24.34a45.7,45.7,0,0,1,6.07,2.19c13.51,7.31,15.85,25.37,4.7,37-2.53,2.64-5.7,4.67-8.56,7s-5.91,4.69-8.72,7.22C380.12,227.06,379.34,227.28,378.12,226.09Zm34.19,50.54c-2.11-.9-3.83-4-2.63-5.66.78-1.06,2.92-1.13,4.45-1.63l.5,1C413.85,272.42,413.08,274.52,412.31,276.63Zm8.33-12c-6.81,3.45-13.38,2.06-19.37-2.14-5.67-4-7.88-9.76-7-16.48.78-6,4.89-9.36,10.41-11a13.05,13.05,0,0,1,14,4.46c3.81,4.88,1.92,12.46-3.66,14.69-3.19,1.27-5.79.5-7.73-2.35-.36-.53-.53-1.26-1-1.65a12.14,12.14,0,0,0-2.18-1.21c-.25.87-.9,1.84-.7,2.59,1.26,4.66,6.76,7.59,11.47,6.17a12,12,0,0,0,8.84-10,12.46,12.46,0,0,0-4.91-12.75,17.46,17.46,0,0,0-24.86,3.49l-1.51,2c-3.16-3.4-6.1-6.45-8.87-9.63a2.43,2.43,0,0,1,0-2.34c11.1-12.84,30.88-15.68,43-4.09C438.37,235.61,435.22,257.23,420.64,264.63ZM441.57,228a11.07,11.07,0,0,1-1.87,4.2c-2.41,2.8-3.48,2.49-4.75-.95-.53-1.43-1.18-2.81-1.91-4.51,2.73-.2,5.07-.46,7.42-.46C440.85,226.29,441.7,227.54,441.57,228Z"/><path class="cls-1" d="M480.93,498.78c-2.9-2.52-6.33-4.52-8.89-7.34-6.23-6.82-12.09-14-18.08-21a10.64,10.64,0,0,1-.87-1.47,74.64,74.64,0,0,0,7.72-3.25c6.51-3.62,10.61-8.94,10.34-16.74s-4.47-13-11.33-15.66a41.33,41.33,0,0,0-13.44-2.75c-11.18-.38-22.38-.12-33.57-.11a31.15,31.15,0,0,0-4.71.07c-.66.1-1.65,1-1.65,1.59s.93,1.27,1.58,1.75c.31.23.9.09,1.35.13,6.74.58,8.16,2.07,8.39,8.76,0,.65,0,1.3,0,1.95q0,22.06,0,44.12c0,8.23-1,9.33-9.22,10.14-.37,0-.87-.07-1.08.12-.47.46-1.09,1.07-1.08,1.61a2.18,2.18,0,0,0,1.13,1.55,5.63,5.63,0,0,0,2.19.12c9.44,0,18.87,0,28.3,0,1.4,0,3.62.94,3.86-1.41.29-2.71-2.21-1.88-3.64-2.08-5.51-.76-7.34-2.4-7.45-7.43-.13-6.47,0-13-.08-19.42,0-1.67.67-2.21,2.29-2.37a8.57,8.57,0,0,1,8,3.43c6,7.41,12,14.75,18,22.21,6.09,7.65,14.29,7.83,23.67,6.74C482,500.69,481.7,499.45,480.93,498.78Zm-61-.5c-.37.17-.83.13-.64.1.21-5,.56-9.87.59-14.76q.13-18,0-36c0-4.44,1-9.05-2.14-13.41,3,.05,4,1.64,4.36,3.6a28.17,28.17,0,0,1,.39,5.24q0,24.95,0,49.89C422.52,495.14,422.25,497.2,419.94,498.28Zm41.92-49.9c.37,7.65-2.55,13.77-7.65,15.41,7.27-9.53,6.48-18.86-.47-28.08C458.69,436.43,461.62,443.11,461.87,448.38ZM433,466.28c-1.7.07-2.26-.76-2.23-2.38.07-3.6,0-7.2,0-10.81H431c0-4.33-.2-8.68.07-13,.24-3.95,2-5.52,5.91-6.1,8.63-1.3,15.17,1.63,18.28,8.17,5.31,11.13-.51,22.12-12.66,23.71C439.43,466.29,436.18,466.14,433,466.28Zm36.25,33.78c-1.82-1.09-4-1.87-5.4-3.35-3.65-3.77-7-7.81-10.42-11.82-3.76-4.44-7.42-9-11.11-13.46a10.34,10.34,0,0,1-.76-1.32c2.32-1,3.4.52,4.46,1.79,4.85,5.83,9.58,11.75,14.49,17.52,2.9,3.41,6.06,6.61,9.1,9.9Z"/><path class="cls-1" d="M144.6,486.17c-7.58,9.28-17.08,14.06-29.37,12.83-6.55-.66-8.3-2-8.45-8.67-.16-6.93,0-13.87-.09-20.81,0-2,.85-2.58,2.7-2.51,2.78.1,5.55,0,8.33,0,7.49.06,10.48,2.51,12.29,9.75.21.85,1.41,1.46,2.16,2.18.54-.88,1.54-1.75,1.55-2.64.13-7.31.07-14.61.06-21.92,0-1.27.29-2.69-1.68-2.89s-2.41,1.07-2.59,2.72c-.55,4.94-3.4,8.07-8.18,8.86-3.8.63-7.73.4-11.59.66-2.26.16-3.12-.64-3.07-3,.13-6,0-12,.06-18,0-6.37,2-8.47,8.4-8.81,10.81-.58,19.86,3.4,27.5,10.89.59.58,1,1.52,1.74,1.75A16.79,16.79,0,0,0,148,447a10.33,10.33,0,0,0-.21-2.77c-1.36-3.83-2.89-7.59-4.27-11.42a3.17,3.17,0,0,0-3.49-2.38c-17.85.07-35.69,0-53.54.1-1.43,0-3.83-1.07-4,1.51-.21,2.87,2.45,1.89,3.94,2.07,5.65.71,7.11,2.12,7.12,7.79q.08,24.68,0,49.38c0,5-1.7,6.85-6.61,7.5a8.05,8.05,0,0,0-2.19.25,15,15,0,0,0-2.38,1.64c.85.58,1.7,1.66,2.55,1.67q29,.14,58,0a3.3,3.3,0,0,0,2.58-1.44c2.09-5.5,4-11.09,6-16.85C148.21,482.82,146.33,484,144.6,486.17Zm-15.65-24.1v6l-5-3Zm10.64-23.2-7.63-4.45C137.12,432.88,138.25,434.32,139.58,438.87Zm-41.17,52a12.89,12.89,0,0,1-.73,4.62,7.73,7.73,0,0,1-3,3.18c2.41-8.58.76-17.14,1-25.6s.13-17,0-25.52c-.05-4.17-.44-8.33-.72-13.39a20.55,20.55,0,0,1,2.87,3.53,8.31,8.31,0,0,1,.52,3.53Q98.47,466.08,98.41,490.9Zm35.17,7.59,7.85-5.36C140.42,498.84,139,499.86,133.58,498.49Z"/><path class="cls-1" d="M394.59,430.5q-11.24-.14-22.47,0c-.65,0-1.29.93-1.93,1.42.58.67,1.08,1.87,1.74,2,7.53,1.06,10.07,6,10.32,12.09q.73,17.31.4,34.66c-.16,7.61-3.88,13.49-11.1,16.51a25.48,25.48,0,0,1-19.76.07c-6.15-2.45-9.84-7.19-10-13.78-.29-14.52-.14-29-.09-43.56,0-3.06,1.57-4.76,4.57-5.41,1.07-.24,2.29-.08,3.26-.5a10.32,10.32,0,0,0,2.36-2c-.81-.52-1.61-1.45-2.44-1.48-4.06-.16-8.13-.07-12.21-.07-5.74,0-11.47,0-17.2,0-1.34,0-3.07-.41-3.11,1.72s1.77,1.71,3.06,1.92c.54.09,1.1.11,1.65.17,5,.57,6.58,2.29,6.6,7.38,0,6.75,0,13.5,0,20.26h0c0,6.57,0,13.13,0,19.7,0,9.07,4.4,15.34,12.43,19,9.05,4.11,18.56,4.21,27.94,1.5a30.41,30.41,0,0,0,10.36-5.59c5.38-4.34,7.17-10.53,7.21-17.32.07-11.1.05-22.2.42-33.29.19-5.61,2.38-10.26,8.53-11.92.65-.18,1-1.45,1.5-2.22C396,431.32,395.3,430.51,394.59,430.5Zm-61.88,59.93a26.47,26.47,0,0,1-2-9.36c-.24-10.71,0-21.43-.13-32.14-.07-4.89,1.16-10-2.06-14.75a3.79,3.79,0,0,1,4.23,3,15.35,15.35,0,0,1,.55,4.36c0,12.29.19,24.58,0,36.86-.15,7.91,1.87,14.59,8.67,19.26.19.13.25.44.37.66C338,497,334.42,494.53,332.71,490.43Zm50.47-51.21-3.71-5.09h6.41C384.95,435.88,384.15,437.39,383.17,439.21Z"/><path class="cls-1" d="M306.33,430.5q-8.87-.19-17.74,0c-1,0-1.91.87-2.86,1.34.75.73,1.36,1.8,2.26,2.13,3,1.11,5,3.57,4.57,6.76a16.42,16.42,0,0,1-1.59,5.83c-3.93,7.22-8.08,14.32-12.18,21.44-.16.28-.54.44-.93.73a6,6,0,0,1-1-1c-4.94-8.24-10-16.42-14.74-24.77-3.75-6.61-2.7-8.39,4.76-9.05,1.33-.12,2.95-.1,2.53-2-.16-.67-1.69-1.47-2.6-1.47-9.43-.12-18.86-.08-28.29-.08-.46,0-1-.15-1.36.05-.56.33-1.38.9-1.37,1.35,0,.65.67,1.85,1.06,1.85,5,.07,6.74,4,8.82,7.45,5.22,8.62,10.16,17.41,15.62,25.87,3.77,5.86,6.22,11.83,5.19,18.92a35.65,35.65,0,0,0,0,4.71c0,6-1.87,7.94-7.85,8.35-1.27.08-2.83-.21-2.78,1.78s1.67,1.6,2.89,1.61q14.57,0,29.13,0c.37,0,.85.16,1.09,0,.58-.45,1.44-1,1.47-1.59a2.32,2.32,0,0,0-1.27-1.73,12.69,12.69,0,0,0-3-.45c-5.11-.79-6.38-2.17-6.42-7.23q-.08-8,0-16.09a5.5,5.5,0,0,1,.54-2.65c5.83-10,11.65-20,17.67-29.81,2.22-3.63,5.06-6.82,9.15-8.64.79-.36,1.23-1.52,1.84-2.32C308,431.39,307.19,430.52,306.33,430.5Zm-35,62.93c-.07,3.69-1.49,5.23-3.92,5.19.44-2.6,1-5,1.23-7.48.21-2.2-.2-4.46.09-6.64.93-6.92-1.55-12.63-5.22-18.35-6.52-10.18-12.54-20.69-18.76-31.06-.08-.14,0-.36-.05-.71,2.05-.67,3,.87,3.8,2.15,2.72,4.29,5.32,8.65,7.93,13,4.51,7.54,9.05,15,13.4,22.66a12.26,12.26,0,0,1,1.47,5.43C271.44,482.89,271.37,488.16,271.29,493.43Zm23.93-55c-.73-1.59-1.24-2.73-1.95-4.29H299Z"/><path class="cls-1" d="M221.49,486.05c-7.28,9.3-16.7,14-28.75,12.89-6.54-.61-8.21-2.31-8.22-8.85q0-23.32,0-46.62c0-7.87,1.14-9.07,9-9.62.27,0,.64.09.81-.06.56-.49,1.43-1.05,1.44-1.6s-.76-1.32-1.36-1.66-1.27-.08-1.91-.08c-9.44,0-18.87-.05-28.3,0-1.44,0-3.84-1-4,1.54s2.34,1.75,3.75,1.92c5.53.64,7.28,2.45,7.34,8,.05,4.54,0,9.07,0,13.6,0,11.84,0,23.68,0,35.51,0,5.37-1.88,7.34-7.21,7.82-.56.05-1.2-.11-1.64.12a18.17,18.17,0,0,0-2.34,1.67c.78.56,1.55,1.6,2.33,1.61q28.72.14,57.45,0a3.27,3.27,0,0,0,2.49-1.58c2.16-5.39,4.12-10.87,6.24-16.59C225.5,483.16,223.41,483.6,221.49,486.05Zm-45.32,5.35a18.25,18.25,0,0,1-.44,4.12c-.44,1.91-1.52,3.3-4.58,3.63,3.32-4.22,2.29-8.56,2.32-12.71q.13-19.94,0-39.9c0-4.06-.49-8.11-.77-12.41,1.66-.24,2.57,1.27,2.9,3a33,33,0,0,1,.57,6.33Q176.23,467.44,176.16,491.4Zm34.56,7,7.79-5.64C219,497.77,215.84,500.15,210.72,498.39Z"/><path class="cls-1" d="M73.89,431.85a2.65,2.65,0,0,0-2-1.37q-9.7-.14-19.41,0c-.78,0-1.54.89-2.31,1.36.64.72,1.17,1.82,2,2.09,4,1.35,6,3.67,6,7.91a16.86,16.86,0,0,1-.87,5.71c-4.63,12.17-9.42,24.29-14.16,36.42a6.18,6.18,0,0,1-.88,1.1c-.48-1-.88-1.64-1.18-2.35-3.5-8.35-7-16.69-10.47-25.06-2.32-5.63-4.82-11.21-6.76-17-1.43-4.26.18-6.08,4.66-6.81.94-.16,2.41-1,2.5-1.71.24-1.86-1.35-1.72-2.69-1.72-8.41,0-16.82,0-25.24,0-.55,0-1.22-.16-1.63.1-.61.37-1.4,1-1.43,1.59s.78,1.63,1.25,1.64c4.94.12,6.62,3.65,8.21,7.45q12.45,29.79,25,59.53c.5,1.18,1.81,2,2.74,3,.93-1,2.24-1.8,2.72-3,7-17.39,13.84-34.86,21-52.21,2.47-6,5-12.29,12-14.78A2.19,2.19,0,0,0,73.89,431.85ZM36.33,499.49,9,434.33c2.43,0,3.38,2,4.17,3.66,2.29,4.94,4.39,10,6.49,15q8.53,20.31,17,40.64C37.38,495.33,38.37,497.11,36.33,499.49Zm24.13-60.09-3-5.38H64Z"/><path class="cls-1" d="M398.26,344.77c-1.64-2.68-3-5.57-4.82-8.09-8-10.92-18.87-11.48-29.84-6.31a3.22,3.22,0,0,0-1.28,2.82c3.23,9.79,9.78,17.86,22.09,18.29,4.12-1,8.25-1.89,12.33-3C398.73,348,399.47,346.77,398.26,344.77Zm-6,1.74-7.91,1.35a19.13,19.13,0,0,1-18-13c-.58-1.64.22-2.16,1.47-2.66,8.7-3.53,16.73-1.45,22.55,5.94,1.25,1.59,2.27,3.36,3.42,5C395.13,345.14,394.39,346.14,392.22,346.51Z"/><path class="cls-1" d="M120.09,333.13a3.41,3.41,0,0,0-3-1.47c-10.5,3.45-17.8,10.21-17.66,24.35.47,2,1.38,6,2.37,10.07.49,2,1.83,2.53,3.56,1.51,3.33-2,6.9-3.67,9.83-6.12C125,353.26,124.6,342.95,120.09,333.13ZM110,361.35c-5.39,3.56-5.91,3.3-6.85-3.21-1.58-11,2-17.67,11.77-22.21,1.72-.8,2.78-.79,3.27,1.24l1.71,7.11C119.68,352.75,115.71,357.59,110,361.35Z"/><path class="cls-1" d="M239,8.63c-3.32-3.22-7.49-5.58-11.35-8.24-1.33-.92-2.3-.13-2.69,1.24-1.29,4.49-2.51,9-3.76,13.49l.66.18c-.46,11.47,7.44,18.74,17.18,22a3,3,0,0,0,2.63-1.18C246.16,27.15,247.65,17,239,8.63Zm.89,23.49c-.44,1.51-1.37,1.65-2.78,1C225.18,27.31,222.88,17.95,226.87,6c.18-.54,1.58-1.26,1.92-1.06,6.54,3.81,12.24,8.35,13.11,16.65a11,11,0,0,1,0,1.1l.47.12C241.54,25.95,240.75,29.06,239.87,32.13Z"/><path class="cls-1" d="M67.14,208.62c-8.87-4.75-20-5.82-28.16,3.27-2.75,3-4.74,6.78-7.06,10.21-1.24,1.84-.47,3,1.4,3.53,4.34,1.19,8.72,2.26,13.09,3.38,11.49-.39,18.42-7.74,21.85-17.53A3.21,3.21,0,0,0,67.14,208.62ZM64.24,213a19.37,19.37,0,0,1-17.63,12.49c-3.06-.64-6.15-1.18-9.17-2-.63-.16-1.55-1.47-1.41-2,1.76-6.09,10.4-12.93,16.94-13,3.33,0,6.68,1,10,1.72C64.37,210.56,64.85,211.44,64.24,213Z"/><path class="cls-1" d="M444.07,192.44c-14.71-4.4-24.94.36-31,14.33-1,2.25-.64,3.78,1.75,4.55,3.92,1.26,7.87,2.44,11.16,3.46a69,69,0,0,0,7.09-1.4c6.65-2.12,10.88-7,14.26-12.84S450.65,194.4,444.07,192.44Zm1,5.4c-1.74,6.51-11.24,13.3-18.4,13.59-2.84-.76-5.68-1.5-8.51-2.29-1.61-.45-1.94-1.41-1.2-2.94,6-12.57,15.78-13.86,27.15-10.16A2.09,2.09,0,0,1,445.09,197.84Z"/><path class="cls-1" d="M379.32,53.39c-.5-2.12-1.94-2.63-3.79-1.58a75.08,75.08,0,0,0-8.29,5c-11,8.33-11,19.05-6.37,29.41.66,1.48,1.63,2.16,3.29,1.6,9.7-3.3,17.64-10.09,17.93-22C381.17,61.64,380.31,57.5,379.32,53.39ZM365.64,83.68c-1.68.61-2.27-.09-2.84-1.52-3.56-9-1-17.65,6.93-23.17,1.44-1,2.95-1.89,4.43-2.83s2.46-.76,2.81,1.08c.56,2.89,1.09,5.78,1.64,8.67A19.15,19.15,0,0,1,365.64,83.68Z"/><path class="cls-1" d="M118.73,86.24C115.38,76,108.82,68.61,95,68.39c-2.17.49-6.4,1.37-10.58,2.41-2,.51-2.63,1.9-1.53,3.8a84.76,84.76,0,0,0,4.78,8.09c7.95,10.77,18.76,11.54,29.53,6.45C118,88.74,119,87,118.73,86.24Zm-5.42,1c-7.83,2.72-15.5,2.37-21.46-4.68a75.19,75.19,0,0,1-4.74-6.79c-1-1.5-.47-2.47,1.2-2.78,2.89-.55,5.8-1,8.71-1.5,8.94.25,14.12,5.09,17.67,13.06C115.39,86.11,114.6,86.82,113.32,87.27Z"/><path class="cls-1" d="M242.06,382c-.7-.25-2.44.83-2.87,1.7a35.62,35.62,0,0,0-2.68,7.26,20.94,20.94,0,0,0,15.79,25.6c3.45.8,4.4.4,5.31-2.95.87-3.19,1.35-6.48,2-9.73C259.44,391.68,251.39,385.39,242.06,382Zm11.37,32.69c-11.74-4-17-15.66-12.49-26.86.75-1.85,1.52-2.32,3.51-1.35C255.56,391.89,258.95,402.24,253.43,414.72Z"/><path class="cls-1" d="M284.69,551.48a28.53,28.53,0,0,1-5.11,1.69c-.45.07-1.71-1.64-1.64-2.46a59.93,59.93,0,0,1,1.35-7.34c.11-.54.5-1.07.47-1.58-.05-1.21-.29-2.41-.44-3.61-1.11.45-2.69.58-3.25,1.41-2.3,3.41-4.31,7-6.4,10.58-.27.47-.21,1.21-.58,1.53a12,12,0,0,1-2.18,1.3c-.19-.73-.68-1.52-.53-2.18,2.15-9.65,4.37-19.28,6.58-28.92.06-.27.07-.66.25-.77.84-.56,1.72-1,2.6-1.53.19.86.72,1.81.52,2.57-1.54,6-3.22,11.95-4.83,17.92a2.74,2.74,0,0,0,.34,2.08c.72-1,1.38-2,2.18-3,1-1.17,2-2.6,3.35-3.23s3.36-1,4.47-.38c.89.49,1.27,2.68,1.14,4a55.68,55.68,0,0,1-1.58,6.73C280.49,550.44,280.57,550.54,284.69,551.48Z"/><path class="cls-1" d="M233.82,551.4c-1.69.64-3.33,1.64-5.06,1.84-2,.23-2-1.62-1.81-3,.44-2.72,1.27-5.4,1.65-8.13a16,16,0,0,0-.47-4c-1.22.65-2.9,1-3.59,2-2.11,3.09-3.86,6.44-5.71,9.72-.36.63-.36,1.52-.83,2A6.87,6.87,0,0,1,216,552.9c-.18-.71-.62-1.47-.49-2.12.65-3.25,1.47-6.47,2.21-9.71.47-2.09,1.38-4.45-2.93-3.95.15-.36.3-.73.45-1.1l5.24-.81c.13,2.12.26,4.24.41,6.61l1.34-1.43c1.3-1.42,2.38-3.2,3.95-4.17,1.3-.8,3.65-1.37,4.66-.7s1.3,3,1.2,4.57c-.12,2-1,3.92-1.47,5.88C229.44,550.44,229.46,550.44,233.82,551.4Z"/><path class="cls-1" d="M301.83,546.87c.52-2.44,1.27-4.85,1.59-7.31.15-1.16-.18-3.24-.81-3.48-1.85-.68-4.17-1.28-5.92-.72-2,.64-3.6,2.54-5.24,4a14.67,14.67,0,0,0,1.39,2.15,9.26,9.26,0,0,0,1.52-1.69c.37-.67.27-2,.7-2.16,1.27-.47,2.86-1,4-.57.72.24,1.18,2.07,1.27,3.21.1,1.5-.68,2.5-2.47,2.7-3.44.4-6.78,1.19-8.78,4.48-1.07,1.76-1.37,3.81.48,4.92,1.12.67,3.1.51,4.45,0s2.61-1.85,3.94-2.85c2.21,4.42,4.06,4.89,7.34,1.81C301.35,551.09,301,550.65,301.83,546.87Zm-7.57,3.36a2.09,2.09,0,0,1-2-.22,2.81,2.81,0,0,1-.3-2.22c.67-2.15,3.34-3.33,7.19-3.12A9.66,9.66,0,0,1,294.25,550.23Z"/><path class="cls-1" d="M166.31,543.74a18.07,18.07,0,0,0,5.51-1.71c2-.93,3.73-2.32,3-4.93-.51-1.84-3.12-2.69-5.7-2.07-5.23,1.25-9.85,8.09-9.06,13.38.39,2.58,2.53,4.79,4.83,5,3.21.27,6.53-1.61,7.52-4.49a35.89,35.89,0,0,1-4.07,1.84c-2.27.69-4.23-.73-4.89-3.25S163.82,544,166.31,543.74Zm1.65-6.58c.64-.48,2.07.12,3.15.22-.25,1.12-.14,2.83-.83,3.24a29.24,29.24,0,0,1-5.6,2.14l-.86-1.3A32.61,32.61,0,0,1,168,537.16Z"/><path class="cls-1" d="M211.23,537.44c-.25-1.07-2.1-2.15-3.43-2.47a6.28,6.28,0,0,0-4,.73,13.13,13.13,0,0,0-7.18,10.24c-.54,3.39,1.09,6.45,3.68,7.31,2.81.93,7-1,8.91-4.58a39.67,39.67,0,0,1-4.32,2c-2.33.75-4.43-.81-5-3.45-.54-2.43.48-3.15,2.82-3.52a18.37,18.37,0,0,0,6.68-2.46A4.55,4.55,0,0,0,211.23,537.44Zm-3.92,2.68c-1.69,1.82-3.9,2.39-6.75,2.15.89-2.75,2.14-4.7,4.58-5.44a2.93,2.93,0,0,1,2.52.89A2.52,2.52,0,0,1,207.31,540.12Z"/><path class="cls-1" d="M325.58,547c-.64,3.69-.5,3.86,3,3.72l.36.7a25.3,25.3,0,0,1-4.6,1.85c-2,.38-2.35-1.23-2.12-2.69q.93-5.73,2.16-11.41c1.22-5.68,2.57-11.33,3.87-17,.1-.44.11-1.09.41-1.28a17.65,17.65,0,0,1,2.52-1.22c.17.78.64,1.64.47,2.33-1.84,7.62-3.77,15.21-5.67,22.81C325.81,545.5,325.7,546.24,325.58,547Z"/><path class="cls-1" d="M313.68,546.45c-.88,4-.62,4,3.17,5a24.55,24.55,0,0,1-4.84,1.72c-.49.07-1.74-1.55-1.75-2.39a26.82,26.82,0,0,1,.81-6c1.6-7.3,3.28-14.57,4.94-21.86.16-.72.21-1.64.67-2.07a9,9,0,0,1,2.46-1.21,6.23,6.23,0,0,1,.43,2.35C317.64,530.16,315.5,538.27,313.68,546.45Z"/><path class="cls-1" d="M246.76,550.47a8.7,8.7,0,0,1,1.39-.13c-1.29,2.14-4.69,3.7-6.62,2.94-2.38-.93-2.4-3.1-2.07-5.15.54-3.35,1.28-6.68,2-10.17l-3-1.47c4.68-.33,4.45-3.6,5.36-6.08a9.9,9.9,0,0,1,1.06-2.83,8.5,8.5,0,0,1,2.53-1.49,9.9,9.9,0,0,1,0,2.44c-.59,2.2-1.34,4.36-2.15,6.92l5,.55.13,1a10.24,10.24,0,0,1-3,.45c-2.13-.33-3,.52-3.35,2.55-.34,2.28-1,4.52-1.3,6.79C242.15,550.41,243.34,551.41,246.76,550.47Z"/><path class="cls-1" d="M194.35,537.73c-2.35,6.36-7.06,11-11.5,15.77l-.77-.24c-.1-.94-.24-1.88-.29-2.83-.16-3-.22-6.08-.41-9.11-.14-2.16.28-4.78-3.89-4.3.2-.39.4-.79.61-1.18,1.59-.22,3.27-.83,4.73-.5.73.16,1.38,2,1.5,3.2.35,3.16.39,6.36.56,9.54l.93.33c2.46-4.18,7-7.45,5.12-13.48C193.54,534.4,195.12,535.62,194.35,537.73Z"/><path class="cls-1" d="M375.81,139.28c-.16,2.25-1.32,3.55-3.3,3.57s-3.58-1.38-3.21-3.29a4.89,4.89,0,0,1,3-3.18C374.24,135.93,375.41,137.53,375.81,139.28Z"/><path class="cls-1" d="M386.51,253.84a4.79,4.79,0,0,1-3.35,2.81c-1.84.19-3.12-1.32-3.12-3.53.49-1.81,1.61-3.14,3.66-2.93S387.06,252,386.51,253.84Z"/><path class="cls-1" d="M199.95,352.78a4.83,4.83,0,0,1-3.13,3.06c-1.87.35-3.15-1.13-3.34-3.22.26-2,1.37-3.3,3.39-3.25S200.35,350.91,199.95,352.78Z"/><path class="cls-1" d="M112.09,280.64c-.93.67-2,2.09-3.35,2.32a2.7,2.7,0,0,1-3.29-3.09,4.89,4.89,0,0,1,3-3.19C110.49,276.19,111.58,277.86,112.09,280.64Z"/><path class="cls-1" d="M313.93,341.78c-.38,2.16-1.55,3.38-3.58,3.2s-3.49-1.55-2.92-3.49a4.9,4.9,0,0,1,3.29-2.85C312.65,338.34,313.73,339.94,313.93,341.78Z"/><path class="cls-1" d="M173.77,77.75c-.3,2-1.55,3.5-3.4,3.1a4.9,4.9,0,0,1-3-3.18c-.42-1.95,1.23-3.28,3.17-3.29S173.59,75.7,173.77,77.75Z"/><path class="cls-1" d="M287.58,65.78c-.24,3-1.38,4.19-3.44,4.13a3,3,0,0,1-3.1-3.19c0-2,1.38-3.49,3.35-3.16C285.68,63.78,286.78,65.19,287.58,65.78Z"/><path class="cls-1" d="M101,166c0,2.05-1.47,3.46-3.42,3.09-1.3-.24-2.38-1.7-4.35-3.23,2-1.49,3.17-2.93,4.48-3.12C99.65,162.44,101,163.94,101,166Z"/><path class="cls-1" d="M261.83,542.77c-1,1.85-3.34,2.14-9.93,1.24C252.9,541.85,258.1,541.2,261.83,542.77Z"/><path class="cls-1" d="M241.74,102.15c-59.82-.5-108.8,47.31-109.37,106.77C131.8,268.81,179.8,318,239.29,318.49A108.22,108.22,0,0,0,348.5,211C349,151.71,300.89,102.65,241.74,102.15Zm-1.87,213A104.86,104.86,0,0,1,135.7,208.74c.56-57.36,48.32-103.93,105.86-103.34,58,.6,105.19,49,103.6,107.8C343.65,269.12,297.5,315.47,239.87,315.16Z"/><path class="cls-1" d="M197.5,105.89a4.91,4.91,0,0,1-3.16,3.06c-1.89.35-3.3-1.2-3.29-3.23s1.36-3.12,3.43-3.31C196.37,102.81,198,103.92,197.5,105.89Z"/><path class="cls-1" d="M350.68,250.24c-.18,2.25-1.37,3.51-3.36,3.51a3.28,3.28,0,0,1-.13-6.55C349.23,247.11,350.34,248.42,350.68,250.24Z"/><path class="cls-1" d="M355.64,233.1c.17,2.05-1.24,3.1-3.12,3.53-2.05-.22-3.67-1.34-3.34-3.29a4.89,4.89,0,0,1,3-3.26C354,229.59,355.47,231.14,355.64,233.1Z"/><path class="cls-1" d="M315.65,121c.06,2.06-1.31,3.09-4.08,3.59-.69-.9-2.12-2-2.37-3.29-.37-1.92,1-3.38,3-3.47A3,3,0,0,1,315.65,121Z"/><path class="cls-1" d="M339.51,147.29a3.1,3.1,0,0,1-3.09,3.54c-2,.11-3.16-1.19-3.52-3.09.16-2.15,1.25-3.39,3.31-3.45A3,3,0,0,1,339.51,147.29Z"/><path class="cls-1" d="M284.67,103.5a4.89,4.89,0,0,1-3.25,3c-1.88.33-3.32-1.16-3.25-3.23s1.5-3,3.48-3.26C283.64,100.34,285.13,101.62,284.67,103.5Z"/><path class="cls-1" d="M155.5,138.12c.13,2-1.23,3.15-3.17,3.46-2.13-.16-3.66-1.36-3.31-3.3a4.94,4.94,0,0,1,3-3.22C153.94,134.59,155.37,136.17,155.5,138.12Z"/><path class="cls-1" d="M130.75,222.16c-.42,1.34-1.7,2.42-2.37,3.32-2.84-.46-4.14-1.61-4.06-3.64s1.41-3,3.3-3.09C129.37,218.64,131.27,220.51,130.75,222.16Z"/><path class="cls-1" d="M187.51,308.69c-.34,2-1.39,3.38-3.43,3.29a3.16,3.16,0,0,1-3.2-3.42,3,3,0,0,1,3.2-3.09A3.37,3.37,0,0,1,187.51,308.69Z"/><path class="cls-1" d="M290.69,313.8a3.1,3.1,0,0,1-3.21,3.42c-2.09.06-3.06-1.36-3.38-3.14.24-2.23,1.43-3.46,3.43-3.46A3,3,0,0,1,290.69,313.8Z"/><path class="cls-1" d="M238.55,323.72c-.31,2-1.38,3.28-3.43,3.26a3.06,3.06,0,0,1-3.24-3.36,3,3,0,0,1,3.18-3.12C237.11,320.47,238.21,321.72,238.55,323.72Z"/><path class="cls-1" d="M132.53,186.51a4.91,4.91,0,0,1-3.12,3.08c-1.81.29-3.29-1.18-3.3-3.24s1.5-3,3.19-3.37C131.39,183.44,133,184.52,132.53,186.51Z"/><path class="cls-1" d="M220.72,321.3c.08,2-1.17,3.16-3.09,3.46-2.09-.2-3.43-1.24-3.45-3.29a3.27,3.27,0,0,1,6.54-.18Z"/><path class="cls-1" d="M167.85,125.36c-.34,1.95-1.52,3.52-3.46,3.07a5,5,0,0,1-3.14-3.09c-.42-1.95,1.27-3.32,3.18-3.35S167.59,123.3,167.85,125.36Z"/><path class="cls-1" d="M181.92,114.33a3.1,3.1,0,0,1-3.34,3.26,3,3,0,0,1-3.19-3.12c-.09-2.09,1.31-3.06,3-3.53C180.49,111.31,181.92,112.25,181.92,114.33Z"/><path class="cls-1" d="M232,96.63c-.14,2-1.56,3.52-3.46,3.06a4.92,4.92,0,0,1-3-3.23c-.36-2,1.38-3,3.14-3.37C230.72,93.52,232.12,94.5,232,96.63Z"/><path class="cls-1" d="M332.79,281.58a3,3,0,0,1-3.21,3.1c-2.07,0-3.11-1.27-3.33-3.2.22-2.13,1.35-3.38,3.39-3.32A3,3,0,0,1,332.79,281.58Z"/><path class="cls-1" d="M159.78,286.26c-.41,2.09-1.47,3.49-3.5,3.38a3.1,3.1,0,0,1-3.15-3.46,3,3,0,0,1,3.24-3.09C158.4,283.08,159.41,284.49,159.78,286.26Z"/><path class="cls-1" d="M357.95,215.77c-.36,2-1.52,3.26-3.55,3.07s-3.43-1.72-2.92-3.57a4.88,4.88,0,0,1,3.3-2.92C356.67,212.12,357.82,213.72,357.95,215.77Z"/><path class="cls-1" d="M273.91,319.61c-.1,2.33-1.35,3.52-3.31,3.53a3,3,0,0,1-3.26-3,3.13,3.13,0,0,1,3.12-3.49C272.47,316.48,273.57,317.87,273.91,319.61Z"/><path class="cls-1" d="M137.73,169.17a3.08,3.08,0,0,1-3.32,3.29,3,3,0,0,1-3.26-3c-.1-2.05,1.2-3.16,3.21-3.55C136.27,166.13,137.68,167.11,137.73,169.17Z"/><path class="cls-1" d="M256.21,323.18a4.91,4.91,0,0,1-3,3.21c-1.89.48-3.35-1-3.46-3s1.2-3.16,3.2-3.45C255,320,256.53,321.29,256.21,323.18Z"/><path class="cls-1" d="M357.39,197.65c0,2.05-1.29,3.12-3.35,3.37-1.88-.39-3.3-1.43-3.21-3.47a3.13,3.13,0,0,1,3.48-3.15A3,3,0,0,1,357.39,197.65Z"/><path class="cls-1" d="M320.63,294.19c-.26,2.16-1.41,3.75-3.35,3.4a4.91,4.91,0,0,1-3.21-3c-.49-1.93,1.15-3.31,3.06-3.46S320.18,292.47,320.63,294.19Z"/><path class="cls-1" d="M130.37,203.87c0,2-1.68,3.76-3.38,3.55a3.17,3.17,0,0,1-3.12-3.29,3,3,0,0,1,3.06-3.24A3.11,3.11,0,0,1,130.37,203.87Z"/><path class="cls-1" d="M203.56,316.77c-.27,2-1.82,3.35-3.69,2.73a4.89,4.89,0,0,1-2.78-3.36c-.21-1.95,1.5-2.92,3.3-3C202.49,313.61,203.84,314.72,203.56,316.77Z"/><path class="cls-1" d="M214.46,99.8a3.12,3.12,0,0,1-3.38,3.23,3.05,3.05,0,0,1-3.21-3.11c-.08-2.06,1.21-3.15,3.29-3.38C213.12,96.71,214.46,97.78,214.46,99.8Z"/><path class="cls-1" d="M134.2,239.62c0,2-1.44,3.54-3.34,3.13a4.92,4.92,0,0,1-3.09-3.12c-.44-1.94,1.24-3,3-3.47C132.86,236.52,134.2,237.62,134.2,239.62Z"/><path class="cls-1" d="M267.66,98.4c-.31,1.9-1.41,3.17-3.46,3.1a3.24,3.24,0,0,1,.1-6.48C266.36,95,267.43,96.3,267.66,98.4Z"/><path class="cls-1" d="M249.89,95.9c-.22,2-1.21,3.31-3.31,3.32a3,3,0,0,1-3.27-3,3.14,3.14,0,0,1,3.14-3.49C248.57,92.53,249.52,94,249.89,95.9Z"/><path class="cls-1" d="M140.08,256.51c-.37,1.35-1.62,2.46-2.49,3.67l-1.24,0c-.92-1.18-2.38-2.26-2.64-3.57-.37-2,1.16-3.23,3.14-3.48C138.53,253,140.53,254.86,140.08,256.51Z"/><path class="cls-1" d="M350.89,183.37a3.11,3.11,0,0,1-3.36-3.26c0-2.09,1.41-3,4.12-3.52.67.93,2,2,2.27,3.35A2.87,2.87,0,0,1,350.89,183.37Z"/><path class="cls-1" d="M172.89,297.76c-.44,2.88-1.58,4.15-3.59,4.12a3,3,0,0,1-3.18-3.14c0-2,1.31-3.56,3.2-3.32C170.69,295.58,171.92,297.07,172.89,297.76Z"/><path class="cls-1" d="M148.77,272.13c-.25,2-1.3,3.37-3.38,3.29s-3.49-1.54-3.09-3.4a4.89,4.89,0,0,1,3.16-3C147.45,268.55,148.52,270.19,148.77,272.13Z"/><path class="cls-1" d="M145.39,153c0,2-1.32,3.09-3.25,3.5-1.84-.42-3.34-1.31-3.3-3.4a3.15,3.15,0,0,1,3.39-3.23A3,3,0,0,1,145.39,153Z"/><path class="cls-1" d="M301.15,110.37c-.58,2.81-1.81,4-3.79,3.86a3,3,0,0,1-3-3.29c.08-2,1.38-3.55,3.32-3.15C299.09,108.06,300.2,109.61,301.15,110.37Z"/><path class="cls-1" d="M303.27,308.79c-2.14-.43-3.48-1.49-3.42-3.55s1.55-3.49,3.41-3.06a4.88,4.88,0,0,1,3,3.18C306.65,307.28,305,308.38,303.27,308.79Z"/><path class="cls-1" d="M348.09,163.13c.06,2-1.25,3.11-3.13,3.46-2.09-.26-3.38-1.35-3.35-3.38a3.24,3.24,0,0,1,6.48-.07Z"/><path class="cls-1" d="M328.66,133.5c-.3,2-1.47,3.23-3.47,3.1a3.24,3.24,0,0,1,.2-6.48C327.43,130.11,328.52,131.42,328.66,133.5Z"/><path class="cls-1" d="M349.06,94.21c-.48,2.77-1.54,4.08-3.61,4A3.16,3.16,0,0,1,342.28,95c-.13-1.66,1.84-3.67,3.4-3.18C347,92.25,348.12,93.52,349.06,94.21Z"/><path class="cls-1" d="M135.42,327.62a3,3,0,0,1-3.18-3.15c-.06-2.05,1.26-3.13,4.09-3.69.72,1,2.19,2.21,2.41,3.61C139,326.37,137.38,327.62,135.42,327.62Z"/><path class="cls-1" d="M129.29,104.38c-.14,2.09-1.24,3.35-3.26,3.4a3.25,3.25,0,0,1-.22-6.49C127.85,101.2,129,102.42,129.29,104.38Z"/><path class="cls-1" d="M88.48,216.19a3,3,0,0,1-3,3.52c-2,.11-3.2-1.13-3.49-3.19.16-2,1.24-3.28,3.27-3.34A3,3,0,0,1,88.48,216.19Z"/><path class="cls-1" d="M237.22,54.17c-.33,2-1.41,3.4-3.41,3.4s-3.6-1.38-3.2-3.32a4.93,4.93,0,0,1,3.09-3.14C235.66,50.63,236.75,52.33,237.22,54.17Z"/><path class="cls-1" d="M358.45,314.88c-.33,2.15-1.53,3.39-3.55,3.26a3.29,3.29,0,0,1,.26-6.57C357.21,311.62,358.24,313,358.45,314.88Z"/><path class="cls-1" d="M399.08,202.67A3.05,3.05,0,0,1,396,206.2c-2,.14-3.19-1.13-3.52-3.16a3.26,3.26,0,0,1,3.27-3.39A3.06,3.06,0,0,1,399.08,202.67Z"/><path class="cls-1" d="M250.67,365c-.33,2.09-1.47,3.38-3.46,3.39a3,3,0,0,1-3.22-3.12,3.07,3.07,0,0,1,3.2-3.41C249.24,361.77,250.27,363.18,250.67,365Z"/><path class="cls-1" d="M301.81,160c-11.75-.09-23.49-.05-35.24-.07-1.44,0-2.24.42-2.22,2.06,0,1.47.19,2.34,2,2.63,7.34,1.19,11.49,5.28,11.4,12.67a49.75,49.75,0,0,1-2.77,16c-4.82,13.39-10.33,26.53-15.57,39.76q-4.12,10.41-8.26,20.82l-.78.12c-.35-.69-.74-1.35-1-2.07-8.38-20-16.81-40.05-25.07-60.14A167.71,167.71,0,0,1,218,174.06c-1.2-4.2.8-7.14,5-8.53a20.61,20.61,0,0,1,5.15-.95c1.67-.11,2.85-.26,2.81-2.42s-1.42-2.21-3-2.21q-22.88,0-45.78,0c-1.56,0-2.88-.05-3,2.22s1.06,2.44,2.7,2.52c5.2.25,8.87,2.62,10.93,7.55,4.06,9.72,8.28,19.37,12.36,29.09q16.71,39.74,33.34,79.53c.67,1.61,1.37,2.63,3.38,2.56s2.73-.84,3.4-2.54q12.56-31.85,25.26-63.66c4.75-11.84,9.41-23.72,14.77-35.28,3.59-7.71,8.09-15.11,17.4-17.49.61-.16,1.11-1.94,1.06-2.93C303.76,161,302.51,160,301.81,160ZM240.4,278.38c-2-4.61-3.74-8.73-5.47-12.87q-19.14-45.9-38.32-91.79c-1.39-3.3-3.59-6.26-5.51-9.54,4.25.35,7.71,2.21,9.61,6.14,2.89,6,5.54,12.08,8.11,18.21,11,26.24,21.91,52.51,32.92,78.74C243.34,271,243.64,274.48,240.4,278.38ZM281.08,176,275,164.77h13.94Z"/></svg>