<svg id="Layer_1" data-name="Layer 1" xmlns="http://www.w3.org/2000/svg" viewBox="0 0 711.42 565.26"><defs><style>.cls-1{fill:#1d1d1b;}</style></defs><title>vinoteka logo</title><path class="cls-1" d="M19.76,426.14l25.74,53.8,23.88-53.8H81.66L46.59,505.23H37.65L0,426.14Z"/><path class="cls-1" d="M108.28,426.14h19.11V504H108.28Z"/><path class="cls-1" d="M159,426.14h12.16l44.4,49.55V426.14h12v79.09h-8.3l-48.2-54.7V504H159Z"/><path class="cls-1" d="M301.37,505.75a51.21,51.21,0,0,1-12-1.38,46.9,46.9,0,0,1-10.71-4,41.89,41.89,0,0,1-9-6.24,39.07,39.07,0,0,1-11.3-18.25,41.21,41.21,0,0,1-1.54-11.42,39.39,39.39,0,0,1,1.54-11.17,37.5,37.5,0,0,1,11.3-17.73,42.65,42.65,0,0,1,9-6,46.53,46.53,0,0,1,10.68-3.83,53.37,53.37,0,0,1,12-1.32,51,51,0,0,1,17.53,3A43.38,43.38,0,0,1,333,435.63a38.56,38.56,0,0,1,9.43,12.68,37.62,37.62,0,0,1,3.44,16.12,40.59,40.59,0,0,1-3.44,16.89A39.19,39.19,0,0,1,333,494.39a42.17,42.17,0,0,1-14.13,8.4A50.9,50.9,0,0,1,301.37,505.75Zm0-6.63a19.1,19.1,0,0,0,10-2.61,22.33,22.33,0,0,0,7.3-7.21,35.11,35.11,0,0,0,4.47-10.94,59.74,59.74,0,0,0,1.51-13.87A56.4,56.4,0,0,0,323.15,451a33.3,33.3,0,0,0-4.47-10.59,21.6,21.6,0,0,0-7.3-6.92,19.84,19.84,0,0,0-10-2.48,20.16,20.16,0,0,0-10.11,2.48,21.48,21.48,0,0,0-7.33,6.92A32.76,32.76,0,0,0,279.48,451,57.53,57.53,0,0,0,278,464.5a61,61,0,0,0,1.48,13.87,34.54,34.54,0,0,0,4.44,10.94,22.19,22.19,0,0,0,7.33,7.21A19.4,19.4,0,0,0,301.37,499.12Z"/><path class="cls-1" d="M431.16,426.14v6.56h-27V504h-19V432.71h-27v-6.56Z"/><path class="cls-1" d="M515.9,426.14v6.56H476.84v25.74h32.43v6.69H476.84V496H515.9v8H457.79V426.14Z"/><path class="cls-1" d="M544.71,426.14h19.18v29.22l34.49-29.22h14.87L574.31,459l49.36,45h-23.1l-36.68-33.33V504H544.71Z"/><path class="cls-1" d="M674.93,424.41,711.42,504H691.86l-9.72-21.3H651.9L641.66,504h-13l38-79.6Zm-19.5,51h23.49L667.4,450.28Z"/><path class="cls-1" d="M130.6,540.56l6.24,14.37L143,540.4h1.46l6.27,14.31,6.09-14.15h4.68L150.9,565.26h-3.33l-5.15-11.92-5.13,11.92h-3.54L123,540.56Z"/><path class="cls-1" d="M175.16,533.41a3.16,3.16,0,0,1,.3-1.37,3.62,3.62,0,0,1,.82-1.12,3.84,3.84,0,0,1,1.22-.75,4.08,4.08,0,0,1,1.51-.28,4.19,4.19,0,0,1,1.52.28,3.8,3.8,0,0,1,1.24.75,3.86,3.86,0,0,1,.83,1.12,3.15,3.15,0,0,1,0,2.73,3.86,3.86,0,0,1-.83,1.12,3.8,3.8,0,0,1-1.24.75,4.18,4.18,0,0,1-1.52.27,4.07,4.07,0,0,1-1.51-.27,3.84,3.84,0,0,1-1.22-.75,3.62,3.62,0,0,1-.82-1.12A3.16,3.16,0,0,1,175.16,533.41Zm.31,8.87,7.18-2v24.43h-7.18Z"/><path class="cls-1" d="M214,548.47a4.64,4.64,0,0,0-.72-2.79,2.07,2.07,0,0,0-1.68-1,3.76,3.76,0,0,0-1.07.18,7,7,0,0,0-1.26.54,12.9,12.9,0,0,0-1.35.83,13.2,13.2,0,0,0-1.34,1.08v17.38h-7.23V541h7.23v1.85a11.2,11.2,0,0,1,3.55-1.78,13.48,13.48,0,0,1,3.81-.56,6.85,6.85,0,0,1,2.77.57,7.56,7.56,0,0,1,2.3,1.55,7.47,7.47,0,0,1,1.58,2.29,6.87,6.87,0,0,1,.58,2.82v17H214Z"/><path class="cls-1" d="M248.44,565.26a12.12,12.12,0,0,1-4.76-.94,12.91,12.91,0,0,1-3.88-2.52,11.7,11.7,0,0,1-2.61-3.71,10.79,10.79,0,0,1-1-4.46,14.89,14.89,0,0,1,.89-5.21,12.44,12.44,0,0,1,2.5-4.15,11.53,11.53,0,0,1,3.89-2.76,13.37,13.37,0,0,1,9.61-.21,10.93,10.93,0,0,1,3.53,2.16,9.74,9.74,0,0,1,3.11,7.2H243.31a17.19,17.19,0,0,0,.56,3.77,11.8,11.8,0,0,0,1.33,3.16,7.45,7.45,0,0,0,2,2.17,4.24,4.24,0,0,0,2.51.81,6.82,6.82,0,0,0,2.34-.42,8.75,8.75,0,0,0,2.12-1.12,7.92,7.92,0,0,0,1.69-1.65,6.3,6.3,0,0,0,1-2l3.7.55a11.73,11.73,0,0,1-1.77,3.63,14.39,14.39,0,0,1-2.88,3,13.81,13.81,0,0,1-3.59,2A11,11,0,0,1,248.44,565.26Zm3-17a6.16,6.16,0,0,0-.44-1.91,5.22,5.22,0,0,0-.94-1.5,4.09,4.09,0,0,0-1.31-1,3.8,3.8,0,0,0-1.6-.34,2.76,2.76,0,0,0-1.31.34,4.06,4.06,0,0,0-1.17,1,5.36,5.36,0,0,0-.9,1.48,6.63,6.63,0,0,0-.47,1.94Z"/><path class="cls-1" d="M328.28,548.6a5.58,5.58,0,0,0-.2-1.49,4.27,4.27,0,0,0-.53-1.24,2.85,2.85,0,0,0-.81-.83,1.8,1.8,0,0,0-1-.31,4.45,4.45,0,0,0-1.3.21,7.24,7.24,0,0,0-1.33.56,8.84,8.84,0,0,0-1.25.82,6.08,6.08,0,0,0-1,1v17.43h-7.16V548.6a5.32,5.32,0,0,0-.21-1.49,4.3,4.3,0,0,0-.56-1.24,3,3,0,0,0-.82-.83,1.72,1.72,0,0,0-1-.31,4.17,4.17,0,0,0-1.24.21,7.35,7.35,0,0,0-1.31.56,10.28,10.28,0,0,0-1.28.82,8.83,8.83,0,0,0-1.12,1v17.43H299V541h7.18v2a17.75,17.75,0,0,1,3.53-1.84,9.85,9.85,0,0,1,3.5-.69,8.82,8.82,0,0,1,1.89.21,9.17,9.17,0,0,1,1.82.6,8.17,8.17,0,0,1,1.6.94,6.15,6.15,0,0,1,1.25,1.25,13.23,13.23,0,0,1,1.79-1.21,13.78,13.78,0,0,1,2.07-1,15.3,15.3,0,0,1,2.2-.61,11.38,11.38,0,0,1,2.21-.22,7.2,7.2,0,0,1,2.88.59,7.57,7.57,0,0,1,2.39,1.61,7.8,7.8,0,0,1,1.63,2.39,7.23,7.23,0,0,1,.6,2.93v16.7h-7.26Z"/><path class="cls-1" d="M362.85,565.26a12.12,12.12,0,0,1-4.76-.94,12.91,12.91,0,0,1-3.88-2.52,11.7,11.7,0,0,1-2.61-3.71,10.79,10.79,0,0,1-1-4.46,14.89,14.89,0,0,1,.89-5.21,12.44,12.44,0,0,1,2.5-4.15,11.53,11.53,0,0,1,3.89-2.76,13.37,13.37,0,0,1,9.61-.21,10.93,10.93,0,0,1,3.53,2.16,9.74,9.74,0,0,1,3.11,7.2H357.72a17.19,17.19,0,0,0,.56,3.77,11.8,11.8,0,0,0,1.33,3.16,7.45,7.45,0,0,0,2,2.17,4.24,4.24,0,0,0,2.51.81,6.82,6.82,0,0,0,2.34-.42,8.75,8.75,0,0,0,2.12-1.12,7.92,7.92,0,0,0,1.69-1.65,6.3,6.3,0,0,0,1-2l3.7.55a11.73,11.73,0,0,1-1.77,3.63,14.39,14.39,0,0,1-2.88,3,13.81,13.81,0,0,1-3.59,2A11,11,0,0,1,362.85,565.26Zm3-17a6.16,6.16,0,0,0-.44-1.91,5.22,5.22,0,0,0-.94-1.5,4.09,4.09,0,0,0-1.31-1,3.8,3.8,0,0,0-1.6-.34,2.76,2.76,0,0,0-1.31.34,4.06,4.06,0,0,0-1.17,1,5.36,5.36,0,0,0-.9,1.48,6.63,6.63,0,0,0-.47,1.94Z"/><path class="cls-1" d="M409,564.73h-7.23v-1.9c-.4.33-.79.64-1.17.92a6.44,6.44,0,0,1-1.26.74,7.38,7.38,0,0,1-1.59.49,10.4,10.4,0,0,1-2.09.18,8.73,8.73,0,0,1-3-.47,6.48,6.48,0,0,1-2.22-1.29,5.53,5.53,0,0,1-1.4-2,6,6,0,0,1-.5-2.43,5.65,5.65,0,0,1,.52-2.47,6.94,6.94,0,0,1,1.42-2,10.49,10.49,0,0,1,2.11-1.59,23.73,23.73,0,0,1,2.59-1.29q1.38-.59,2.85-1.07l2.93-1,.78-.18v-2.37a4.73,4.73,0,0,0-.87-3.22,3,3,0,0,0-2.3-.95,4.11,4.11,0,0,0-1.44.22,2.38,2.38,0,0,0-.94.61,2.21,2.21,0,0,0-.49.9,4,4,0,0,0-.14,1.08,5.84,5.84,0,0,1-.14,1.3,2.88,2.88,0,0,1-.51,1.1,2.5,2.5,0,0,1-1,.77,4,4,0,0,1-1.63.29,3.48,3.48,0,0,1-2.47-.87,2.84,2.84,0,0,1-.94-2.17,3.63,3.63,0,0,1,.83-2.3,7.11,7.11,0,0,1,2.26-1.82,13.19,13.19,0,0,1,3.31-1.19,17.4,17.4,0,0,1,4-.43,18.53,18.53,0,0,1,4.4.46,8.84,8.84,0,0,1,3,1.3,5.33,5.33,0,0,1,1.76,2,6.15,6.15,0,0,1,.57,2.68Zm-7.23-12.28a22.94,22.94,0,0,0-2.11,1,12.28,12.28,0,0,0-1.93,1.29,7,7,0,0,0-1.39,1.48,2.85,2.85,0,0,0-.54,1.64,4.57,4.57,0,0,0,.18,1.29,4.12,4.12,0,0,0,.48,1.07,2.65,2.65,0,0,0,.69.73,1.44,1.44,0,0,0,.83.27,3.43,3.43,0,0,0,1.77-.54q.91-.55,2-1.36Z"/><path class="cls-1" d="M424.31,543.89v-2.37a4.83,4.83,0,0,0,2.41-.64,7.58,7.58,0,0,0,2.06-1.74,11.14,11.14,0,0,0,1.59-2.58,13.92,13.92,0,0,0,1-3.13h4V541h5.85v2.89h-5.85v15.32a2.11,2.11,0,0,0,.36,1.25,1.17,1.17,0,0,0,1,.52,1.64,1.64,0,0,0,.82-.25,5.93,5.93,0,0,0,.83-.59,7.82,7.82,0,0,0,.72-.67,6.66,6.66,0,0,0,.44-.52l2.5,2a13.69,13.69,0,0,1-1.31,1.7A7.59,7.59,0,0,1,439,564a8,8,0,0,1-2.15.92,10.4,10.4,0,0,1-2.8.34,7.35,7.35,0,0,1-2.61-.43,5.07,5.07,0,0,1-1.88-1.2,5,5,0,0,1-1.12-1.83,7.1,7.1,0,0,1-.38-2.37V543.89Z"/><path class="cls-1" d="M489,541h5.93v2.89H489v20.84h-7.18V543.89h-4.66V541h4.66v-2.73a8.64,8.64,0,0,1,.73-3.49,9.08,9.08,0,0,1,2-2.93,10.06,10.06,0,0,1,3.12-2,10.2,10.2,0,0,1,4-.75,12.21,12.21,0,0,1,3.13.35,7.07,7.07,0,0,1,2.17.94,3.84,3.84,0,0,1,1.26,1.32,3.16,3.16,0,0,1,.4,1.52,2.8,2.8,0,0,1-.88,2.06,3.24,3.24,0,0,1-1,.62,3.1,3.1,0,0,1-1.21.24,2.28,2.28,0,0,1-1.38-.35,2.24,2.24,0,0,1-.7-.86,4.36,4.36,0,0,1-.34-1.12,6.68,6.68,0,0,0-.29-1.12,2.26,2.26,0,0,0-.53-.86,1.47,1.47,0,0,0-1.08-.35q-2.26,0-2.26,3.88Z"/><path class="cls-1" d="M509.42,533.41a3.16,3.16,0,0,1,.3-1.37,3.62,3.62,0,0,1,.82-1.12,3.84,3.84,0,0,1,1.22-.75,4.08,4.08,0,0,1,1.51-.28,4.19,4.19,0,0,1,1.52.28,3.8,3.8,0,0,1,1.24.75,3.86,3.86,0,0,1,.83,1.12,3.15,3.15,0,0,1,0,2.73,3.86,3.86,0,0,1-.83,1.12,3.8,3.8,0,0,1-1.24.75,4.18,4.18,0,0,1-1.52.27,4.07,4.07,0,0,1-1.51-.27,3.84,3.84,0,0,1-1.22-.75,3.62,3.62,0,0,1-.82-1.12A3.16,3.16,0,0,1,509.42,533.41Zm.31,8.87,7.18-2v24.43h-7.18Z"/><path class="cls-1" d="M536.57,558.1a7.17,7.17,0,0,0,1.82,3,4.14,4.14,0,0,0,2.94,1.09,3.89,3.89,0,0,0,2.42-.72,2.13,2.13,0,0,0,.94-1.73,3.45,3.45,0,0,0-.31-1.5,4.05,4.05,0,0,0-.88-1.21,7,7,0,0,0-1.34-1,17.83,17.83,0,0,0-1.65-.83q-1.4-.62-2.78-1.35a14.35,14.35,0,0,1-2.5-1.67,7.94,7.94,0,0,1-1.81-2.15,5.56,5.56,0,0,1-.69-2.8,6.1,6.1,0,0,1,.62-2.76,6.24,6.24,0,0,1,1.76-2.13,8.19,8.19,0,0,1,2.72-1.37,11.89,11.89,0,0,1,3.49-.48,13.13,13.13,0,0,1,3.08.33,9.11,9.11,0,0,1,2.38.92,7.57,7.57,0,0,1,1.82,1.46,11,11,0,0,1,1.4,2l-4.16,1.49a5.78,5.78,0,0,0-.81-1.79,3.56,3.56,0,0,0-1-1,2.59,2.59,0,0,0-1-.38,6.91,6.91,0,0,0-.87-.06,5.54,5.54,0,0,0-1.25.14,3.74,3.74,0,0,0-1.07.43,2.42,2.42,0,0,0-.74.69,1.65,1.65,0,0,0-.27,1,2.47,2.47,0,0,0,.35,1.27,4.51,4.51,0,0,0,1,1.13,8.49,8.49,0,0,0,1.47,1q.85.46,1.84.87a32.32,32.32,0,0,1,2.94,1.39,14.64,14.64,0,0,1,2.55,1.72,7.8,7.8,0,0,1,1.78,2.13,5.32,5.32,0,0,1,.66,2.64,8.13,8.13,0,0,1-.51,2.89,5.75,5.75,0,0,1-1.65,2.35,8.17,8.17,0,0,1-3,1.58,15.09,15.09,0,0,1-4.45.57,12.21,12.21,0,0,1-3.76-.51,9.31,9.31,0,0,1-2.63-1.3,7.58,7.58,0,0,1-1.77-1.79,19.34,19.34,0,0,1-1.21-2Z"/><path class="cls-1" d="M581.16,548.47a5.32,5.32,0,0,0-.6-2.79,1.79,1.79,0,0,0-1.56-1,3.74,3.74,0,0,0-1.07.2,11,11,0,0,0-1.34.53,13.21,13.21,0,0,0-1.44.81,10,10,0,0,0-1.35,1v17.43h-7.28V531.46l7.28-2v13.4a10.19,10.19,0,0,1,1.76-1,14.32,14.32,0,0,1,1.94-.74,13.8,13.8,0,0,1,2-.44,14.39,14.39,0,0,1,2-.14,6.58,6.58,0,0,1,2.71.57,6.93,6.93,0,0,1,2.21,1.56,7.49,7.49,0,0,1,1.48,2.3,7.28,7.28,0,0,1,.55,2.82v17h-7.23Z"/><path class="cls-1" d="M405.4,127.54H313.47a50.09,50.09,0,0,0-4,13h100A50.09,50.09,0,0,0,405.4,127.54Z"/><path class="cls-1" d="M377.65,101.58H341.22a50.85,50.85,0,0,0-19.06,13h74.55A50.85,50.85,0,0,0,377.65,101.58Z"/><rect class="cls-1" x="342.09" y="75.63" width="34.68" height="12.98"/><rect class="cls-1" x="342.09" y="49.68" width="34.68" height="12.98"/><rect class="cls-1" x="342.09" y="23.73" width="34.68" height="12.98"/><rect class="cls-1" x="342.09" width="34.68" height="12.98"/><rect class="cls-1" x="308.75" y="153.49" width="101.37" height="12.98"/><polygon class="cls-1" points="308.75 334.6 308.75 347.57 401.59 347.57 401.56 334.6 308.75 334.6"/><polygon class="cls-1" points="308.75 308.64 308.75 321.62 401.53 321.62 401.5 308.64 308.75 308.64"/><path class="cls-1" d="M308.75,282.69v13h91.52a110.29,110.29,0,0,1-20.1-13Z"/><path class="cls-1" d="M367.12,256.74H308.75v13h60.37a18.21,18.21,0,0,1-2.16-8.09C367,260.21,367,258.56,367.12,256.74Z"/><path class="cls-1" d="M308.75,230.79v13h59.51c.45-4.14,1-8.55,1.58-13Z"/><path class="cls-1" d="M384.7,360.55h-76v13h49.42C358.16,367.89,372.5,364.69,384.7,360.55Z"/><path class="cls-1" d="M410.12,347.57h-8.53v.84c0,5.49-7.86,9.07-16.89,12.13h25.42Z"/><path class="cls-1" d="M410.12,269.72h-41c2.38,4.75,6.49,9.16,11,13h30Z"/><path class="cls-1" d="M410.12,217.81H371.63c-.61,4.18-1.22,8.59-1.8,13h40.29Z"/><path class="cls-1" d="M410.12,205.39v12.42h38.75c-.67-4.5-1.33-8.73-1.92-12.42l-.09-.56H410.12V192.42h-.24l-34.34.08s-.83,5-2,12.34H308.75v13h62.88c.65-4.51,1.29-8.74,1.86-12.42Z"/><polygon class="cls-1" points="444.8 192.33 441.66 179.44 410.25 179.44 410.12 179.44 410.12 192.42 410.12 192.42 410.25 192.42 444.8 192.33"/><path class="cls-1" d="M444.81,192.33h0l0,.08Z"/><polygon class="cls-1" points="378.71 179.44 308.75 179.44 308.75 192.42 375.55 192.42 410.12 192.42 375.57 192.33 378.71 179.44"/><polygon class="cls-1" points="410.12 321.62 401.53 321.62 401.56 334.6 410.12 334.6 410.12 321.62"/><path class="cls-1" d="M410.12,295.67h-9.85l1.2.59,0,12.39h8.62Z"/><polygon class="cls-1" points="419.5 347.57 419.47 334.6 410.12 334.6 410.12 347.57 419.5 347.57"/><polygon class="cls-1" points="419.44 321.62 419.41 308.64 410.12 308.64 410.12 321.62 419.44 321.62"/><path class="cls-1" d="M436.53,360.55H410.12v13h52.93C463,367.9,448.74,364.69,436.53,360.55Z"/><path class="cls-1" d="M359.36,380h50.76v-6.44h-52C357.93,376.36,358.46,379.21,359.36,380Z"/><path class="cls-1" d="M420.45,295.67a112.51,112.51,0,0,0,19.9-13H410.12v13Z"/><path class="cls-1" d="M410.12,269.72h41.34a18.16,18.16,0,0,0,2.26-8.3c0-1.36-.07-2.94-.17-4.68H410.12v-13H368.26c-.53,4.82-.93,9.27-1.14,13h43Z"/><path class="cls-1" d="M452.36,243.76c-.47-4.14-1-8.54-1.63-13H410.12v13Z"/></svg>