<svg id="Шар_1" data-name="Шар 1" xmlns="http://www.w3.org/2000/svg" viewBox="0 0 499.18 289.86"><defs><style>.cls-1{fill:#fdcb00;}.cls-2{fill:#fde16c;}.cls-3{fill:#feea9a;}.cls-4{fill:#fddb4f;}</style></defs><title>vipsm</title><path class="cls-1" d="M127.08,53.1c-.73,3-2.9,4.65-5.37,6a29.2,29.2,0,0,1-10.84,3.19c-.37.16-.79,0-1.17.12l-.12,0-2.07.07a17.14,17.14,0,0,1-3.58,0l-1.85-.06-.13-.05c-.37-.12-.77,0-1.14-.12-3-.34-6-.63-8.93-1-2.5-.33-5-.91-7.47-1.16s-5.21-.85-7.86-1a6.26,6.26,0,0,1-2.37-.37,0,0,0,0,1,0,0h0c-4-.69-8.08-1.07-12.13-1.44a125.4,125.4,0,0,0-18-.51c-6.22.33-12.32,1.23-18,3.85a23.84,23.84,0,0,0-7.93,5.69A12.7,12.7,0,0,0,16.86,82c2.51,4.1,6.19,7,10.31,9.28a56.71,56.71,0,0,0,20.26,6.58c1.51.21,3,.31,4.53.49a3.82,3.82,0,0,1,2.79,1.45,1.82,1.82,0,0,1-.61,2.85,3.88,3.88,0,0,1-2.3.53C36.18,102.26,21.67,98,9,88.5a24.62,24.62,0,0,1-7.35-8.42A12,12,0,0,1,.19,75.53a.22.22,0,0,1,0-.08C0,74.6.31,73.7,0,72.85v-.24a8.18,8.18,0,0,0,.8-2.32c2.76-7.24,8.14-11.77,15.07-14.72A59.69,59.69,0,0,1,32.56,51.5,138.33,138.33,0,0,1,57,51c.3,0,.61,0,.91,0h.17a.52.52,0,0,0,.16.06c.5.15,1-.08,1.53.12l1.37.06a.93.93,0,0,0,.15.06c.44.12.92-.06,1.36.12l1.14.06a.56.56,0,0,0,.16.07c.36.1.75,0,1.1.1l1.16.07a.56.56,0,0,0,.16.07c.35.11.73-.05,1.08.1l1.14.07.12,0c.37.13.78,0,1.14.13l.91.06.12.06c.36.13.77,0,1.13.12l.91.06c.39.22.85,0,1.25.18l.91.06.12.06c.36.13.77,0,1.13.12a29,29,0,0,0,5,.54l.13.06c.36.12.76,0,1.11.12l.9.06.12,0c.37.13.78,0,1.14.13a10.21,10.21,0,0,0,3.06.3l.13.06c.37.12.77,0,1.13.12l.92.06.13.06c.36.12.75,0,1.11.12l1.14.06.13.06c.37.12.77,0,1.13.12l1.35.07c.41.19.88,0,1.29.17l1.37.06a.67.67,0,0,0,.18.07c.44.11.9-.06,1.33.1l1.84.08c.65.24,1.35,0,2,.17l2.81.06a34.41,34.41,0,0,0,5.92,0l2.09-.06c.41-.17.88,0,1.29-.17,3.58-.24,7-1,9.54-3.79a1.59,1.59,0,0,1,2.11-.52C127.53,51.55,127.25,52.39,127.08,53.1Z"/><path class="cls-2" d="M.19,75.45v.08a.22.22,0,0,1-.19,0V72.85C.48,73.69.17,74.59.19,75.45Z"/><path class="cls-1" d="M499.18,242.22a8,8,0,0,0-4.36-7.47,20.78,20.78,0,0,0-5.47-1.85c-.37-.18-.78,0-1.16-.13l-.12,0h-3.2a.67.67,0,0,1-.18.07c-.36.09-.74,0-1.08.11a22.36,22.36,0,0,0-7.34,2.39,10.46,10.46,0,0,0-4.92,5.88c-.15.44-.34.71-.88.26a23.28,23.28,0,0,1-2.36-2.19,9.1,9.1,0,0,1-2.77-6.24,2.78,2.78,0,0,1,0-1.59,6.6,6.6,0,0,1,.16-1.77c.92-4.24,3.45-7.54,6.27-10.64,4.18-4.59,9.4-8,14.23-11.77,2.47-2,5-3.89,6.7-6.58a6.77,6.77,0,0,0,1.36-4.92,13.16,13.16,0,0,0-5.54-8.43c-4.12-3-8.88-4-13.8-4.56-.79-.22-1.62.1-2.41-.19l-.82-.68a26.18,26.18,0,0,0-7-4.62,44.67,44.67,0,0,0-11.82-2.91c-.41-.18-.88,0-1.29-.17l-1.59-.07a25.2,25.2,0,0,0-2.61-.1l-.34-.08L442,174c-.52,0-.67-.14-.55-.71.4-2,.71-4,1.08-6.08a185.8,185.8,0,0,1,7.61-28.58c5.28-15,12.67-29,20.76-42.66,2-3.34,4-6.67,6-10a3.39,3.39,0,0,0-.67-4.69,5.56,5.56,0,0,0-4.48-1.09,8.93,8.93,0,0,0-5.95,4.06,44.9,44.9,0,0,0-5,8.75,7.93,7.93,0,0,0-.69,5.2,1.88,1.88,0,0,1-.28,1.78c-8.75,12.3-17.42,24.66-27,36.37a177.08,177.08,0,0,1-13.25,14.93,57.44,57.44,0,0,1-5.9,5.34,20.76,20.76,0,0,1-5.91,3.46c-2.33.76-3.92.09-4.76-2.15a17.41,17.41,0,0,1-1.26-6.5.58.58,0,0,1-.06-.17c-.14-.51.07-1.06-.12-1.56a70.11,70.11,0,0,1,0-7.94c.19-.66,0-1.36.12-2a.76.76,0,0,1,.06-.2c0-.61,0-1.23.07-1.84.16-.42,0-.88.1-1.31a.67.67,0,0,1,.07-.18L402,135c.18-.43,0-.9.12-1.34a.93.93,0,0,1,.06-.15l.06-.91c.18-.4,0-.87.18-1.27l.06-.89c.17-.35,0-.76.12-1.12l.06-.12a24.57,24.57,0,0,1,.49-4.37c.62-4.39,1.2-8.79,2.21-13.11a2,2,0,0,0,0-1.18c-.39-2.24-2-3-4.08-3.18a7.44,7.44,0,0,0,1.43-3.59c0-.44.24-.88.86-.7a.52.52,0,0,1,.16-.06c.44-.12.91.06,1.34-.12a28.13,28.13,0,0,0,7.61-1.54c2.94-1.07,5.73-2.47,7.55-5.23a2.15,2.15,0,0,0,0-1.18,1.67,1.67,0,0,0-.63-.51,2.83,2.83,0,0,0-2.57.41,27,27,0,0,1-11.64,3c-.58.23-1.2,0-1.77.17a68.21,68.21,0,0,1-7.7,0c-.67-.19-1.37,0-2-.12a1.52,1.52,0,0,1-.2-.06l-1.84-.06c-.57-.2-1.19.06-1.76-.17l-1.36-.07c-.5-.19-1.05,0-1.56-.12a.58.58,0,0,1-.17-.06l-1.15-.06c-.44-.18-.92,0-1.36-.12l-.15-.06L383,97.05c-.43-.18-.91,0-1.34-.12l-.15-.06-1.39-.07c-.42-.16-.88,0-1.3-.1a.62.62,0,0,1-.19-.07l-1.39-.06c-.57-.2-1.19.06-1.76-.17l-2.08-.07a20,20,0,0,0-2.19-.11,1.43,1.43,0,0,1-.28-.07H364.4a.9.9,0,0,1-.22.06c-.66.15-1.35-.08-2,.12l-1.38.06-.13.06c-.37.12-.77,0-1.13.12a43.27,43.27,0,0,0-12.08,3.17,22.33,22.33,0,0,0-7.68,5.77s0,0,0,0l0,0a11.2,11.2,0,0,0-1.38-3.07.71.71,0,0,1-.15-.3.78.78,0,0,1,0-.37,1.25,1.25,0,0,1,.15-.31,20.67,20.67,0,0,0,2.5-7.73c.19-.5,0-1,.12-1.56A.58.58,0,0,1,341,92c0-1.37-.09-2.73-1.43-3.57a2,2,0,0,0-1.18,0,2.41,2.41,0,0,0-1.9,2.34,13.64,13.64,0,0,1-1.41,5.37c-.3.54-.59.81-1.23.24a11.83,11.83,0,0,0-2.19-1.4c-3.28-1.82-6.9-2.47-10.57-2.95-.65-.19-1.33,0-2-.11l-.25-.07h-2.94l-.19.05c-.67.14-1.38-.08-2,.12l-1.16.06a.71.71,0,0,1-.18.08s0,0-.05,0c-.33.06-.69-.06-1,.09a66.41,66.41,0,0,0-18.84,5.32,44.83,44.83,0,0,0-13.8,9.28c-3.53,3.65-6.19,7.65-6.78,12.81-.15.35,0,.74-.1,1.1a.46.46,0,0,1-.07.16,13.75,13.75,0,0,0,.17,4c.82,3.11,3,5,5.72,6.49,4,2.12,8.29,3.19,12.55,4.47s8.69,2.08,12.74,3.93c6.11,2.79,11.72,6.23,13.22,13.58a2.63,2.63,0,0,1,0,1.57,16.52,16.52,0,0,1-3.41,7.25,59.17,59.17,0,0,1-8.82,9.89c-2.41,2.12-4.83,4.23-7.42,6.13a67.07,67.07,0,0,1-19.56,10.18,60,60,0,0,1-14.28,3l-.15.06c-.43.13-.9-.06-1.33.12l-2.09.06a16.31,16.31,0,0,1-4,0l-1.84-.06c-.36-.16-.77,0-1.14-.12l-.12-.06a15.55,15.55,0,0,1-7.26-1.93c-3.49-2-4.29-5.44-4.69-9.06a5.5,5.5,0,0,1,0-2.32,13.21,13.21,0,0,1,2.67-7.48c3.78-5.59,9.27-9.13,15-12.35,1.86-1,3.77-2,5.69-2.87s2.17-2.8.77-3.81a2.9,2.9,0,0,0-2.39-.39c-1.88.38-3.39,1.52-5,2.46a72.83,72.83,0,0,0-16.67,12.61,30.8,30.8,0,0,0-6.81,10c-1.53,3.93-1.82,7.91.06,11.83s5,6.24,8.59,8.1a28.41,28.41,0,0,0,10.82,3c.43.19.9,0,1.33.13a.52.52,0,0,1,.16.06l1.76.06h.1a76.47,76.47,0,0,0,27.81-4.88c12-4.31,23-10.37,32.26-19.31,5-4.77,9-10.17,11.06-16.86A13.48,13.48,0,0,0,328,152c-.73-4.13-3.15-7.2-6.2-9.84a37.57,37.57,0,0,0-14.43-7.57C302.18,133.06,297,131.76,292,130a25.8,25.8,0,0,1-8.07-4.12,7.28,7.28,0,0,1-2.69-7.37c.74-4.06,3.2-7.06,6.26-9.51a47.4,47.4,0,0,1,32-10.88,16.54,16.54,0,0,1,9.93,3.4c1.64,1.28,1.81,2,.92,3.9a11.83,11.83,0,0,1-.62,1.16c-1.18,2-2.64,3.71-4,5.56a20.48,20.48,0,0,0-3,5,4.15,4.15,0,0,0,3.76,5.7,7.25,7.25,0,0,0,5.36-2,16.56,16.56,0,0,0,4.65-7c.47-1.25.85-2.54,1.3-3.92.27.45.46.79.67,1.13a29.24,29.24,0,0,0,15,12.63,40,40,0,0,0,13.62,2.43,22.9,22.9,0,0,0,2.75,0,2,2,0,0,0,1.91-2c-.08-1.15-.89-1.51-1.89-1.62-.51,0-1-.11-1.55-.14a28.36,28.36,0,0,1-9-2,14.35,14.35,0,0,1-6.73-4.82,6.48,6.48,0,0,1,.8-8.9,14,14,0,0,1,6.17-3.3c5.12-1.47,10.35-1.39,15.59-1.05,4.75.31,9.49.71,14.23,1.1a47.66,47.66,0,0,0,8.93-.09h0s0,0,0,0c-.19.56-.34,1-.52,1.44a386.62,386.62,0,0,1-22.1,45.17c-5.66,10-11.64,19.77-19,28.65a36.13,36.13,0,0,1-8.89,8.33c-3.59,2.17-6.43,1.66-9.06-1.61a19.89,19.89,0,0,1-3.75-9.35,68.94,68.94,0,0,1,.59-24.68c.33-1.76.76-3.51,1.06-5.28a1.76,1.76,0,0,0-1-2,2.15,2.15,0,0,0-2.45.42,2.72,2.72,0,0,0-.87,1.66c-.71,3.2-1.33,6.41-1.8,9.65-1.16,8-1.7,16.07-.34,24.12.79,4.7,2.17,9.19,5.25,13q5.5,6.71,13.37,3a31.79,31.79,0,0,0,7.82-5.49,95.58,95.58,0,0,0,14.88-18.13c8.78-13.29,15.58-27.59,21.33-42.42l0,0c.06-.09.12-.21.15-.21s.06.2.11.31v0a.47.47,0,0,1,0,.43c-.51,5.09-1,10.18-1.12,15.31-.11,5.56,0,11.11,1.56,16.52a13.06,13.06,0,0,0,3.64,6.5,6.65,6.65,0,0,0,5.83,1.82,22,22,0,0,0,8.71-3.8,65.6,65.6,0,0,0,10.27-9c7.47-7.77,14-16.32,20.59-24.82.71-.92,1.42-1.83,2.14-2.74a25.82,25.82,0,0,1-1.17,3.8C440.07,143.5,436.18,153,433.3,163c-1.74,6-3.25,12-2.73,18.27s3.45,10.19,9.33,11.41a15.56,15.56,0,0,0,13.45-3.58,6.41,6.41,0,0,0,2-7.48,14.16,14.16,0,0,0-1.62-3.2c-.15-.24-.48-.43-.32-.83,5.14.42,9.87,1.77,13.89,5.52l.14.13-.17,0a12.43,12.43,0,0,0-7.41,2.87c-3,2.63-2.89,6,.32,8.31a12.9,12.9,0,0,0,9.94,2.55c4.28-.72,6.72-4,6.12-8.23-.13-.93-.32-1.84-.51-2.88h0a23.89,23.89,0,0,1,6.8,2.46,12.77,12.77,0,0,1,6.46,8.53,3.22,3.22,0,0,1-.08,1.87,11.47,11.47,0,0,1-3.71,5.06,54.77,54.77,0,0,1-6.81,4.68,64.89,64.89,0,0,0-9.28,6.58c-3.64,3.29-7,6.78-9.09,11.33a12.82,12.82,0,0,0,1.89,14.34,29.07,29.07,0,0,0,8.14,6.62,1.57,1.57,0,0,1,.89,1.51,15.38,15.38,0,0,1-3.17,10,23.89,23.89,0,0,1-7.32,6.28c-6.64,3.84-13.93,5.73-21.4,7a148.59,148.59,0,0,1-29,1.74,135.33,135.33,0,0,1-30.58-4.14c-8.42-2.2-16.56-5.11-23.91-9.9a21.21,21.21,0,0,1-6.77-6.36c-1.71-2.78-1.15-4.67,1.76-6.14a15.67,15.67,0,0,1,6-1.47,21.25,21.25,0,0,1,10.08,1.62c.69.29.85.57.28,1.18-.82.86-1.3.95-2.6,0a7,7,0,0,0-6.94-.79c-1.57.61-2.28,1.59-2.18,2.81a2.91,2.91,0,0,0,2.65,2.67,18.56,18.56,0,0,0,7.85-.13,10,10,0,0,0,3.84-1.6c1.8-1.32,2.06-3,.73-4.77a8.52,8.52,0,0,0-4.09-2.81A26.13,26.13,0,0,0,353,242.89a17,17,0,0,0-7.69,2.82,6.08,6.08,0,0,0-2.84,6.17,8.71,8.71,0,0,0,1.71,3.79,24.93,24.93,0,0,0,6.2,5.79c8.09,5.55,17.14,8.86,26.62,11.05a233.82,233.82,0,0,0,38.25,5.6c11,.69,22.07.6,33-1.53,8.87-1.73,17.2-4.63,23.55-11.54l0,0a1.44,1.44,0,0,1,.18-.42,20.36,20.36,0,0,0,3.86-6.9,28.12,28.12,0,0,0,1.24-6.63c0-.35,0-.8.55-.62a28.31,28.31,0,0,0,4.77.52,27.53,27.53,0,0,0,4.54,0c.93-.15,1.88-.12,2.82-.33,4.21-.94,7.92-2.49,9.22-7.16.17-.34,0-.71.11-1.06A1.67,1.67,0,0,1,499.18,242.22Zm-4.73.23a4.77,4.77,0,0,1-2.33,2.65,16.17,16.17,0,0,1-12.47,1.68c-2.77-.72-3.29-2.69-1.38-4.84,2.06-2.33,4.84-3.29,7.76-4a12.4,12.4,0,0,1,2.95-.31,10.81,10.81,0,0,1,3.56.46C494.73,238.88,495.22,240,494.45,242.45Zm-52.16-56.84a5,5,0,0,1-.2-5.52,3.47,3.47,0,0,1,3.63-1.52,4.79,4.79,0,0,1,3.55,3.93,7.19,7.19,0,0,1,.06.79,3.78,3.78,0,0,1-7,2.32Zm26.54-.65c.86,0,1.81-.55,2.59.32a5.58,5.58,0,0,1,1.72,4.06,3.63,3.63,0,0,1-2.27,3.25,8.38,8.38,0,0,1-3.86.74,9,9,0,0,1-3.67-.88c-2.32-1.17-2.68-3.28-.89-5.18a6.72,6.72,0,0,1,2.87-1.64A11.85,11.85,0,0,1,468.83,185Z"/><path class="cls-1" d="M193.61,38c-.13-.45,0-.93-.12-1.37-.55-2.27-1.42-4.31-3.68-5.4a18.72,18.72,0,0,0-5.26-1.37,11,11,0,0,0-2.86,0,39.43,39.43,0,0,0-5.28.93c-8.86,2.47-16.26,7.45-23.06,13.45a1.18,1.18,0,0,1-1.71.2A19,19,0,0,1,147,40.62a10.7,10.7,0,0,1-3-6.35A11.2,11.2,0,0,1,144,31a7.26,7.26,0,0,1,.19-1.52,20.67,20.67,0,0,1,5.76-9.43,42.53,42.53,0,0,1,15.36-9.64c1.65-.62,1.66-.59,1.47,1a6.68,6.68,0,0,0,0,2.14c.53,3,2,3.91,4.85,4.37a5.28,5.28,0,0,0,1.9,0A9.71,9.71,0,0,0,178,15.46,5.2,5.2,0,0,0,177,6.79a11.09,11.09,0,0,0-5.36-1.36c-6.72-.08-12.77,2.16-18.41,5.59a38.92,38.92,0,0,0-11,9.83c-3,3.93-5.54,8-5.64,13.13a2.85,2.85,0,0,0,0,1.42,14.42,14.42,0,0,0,1.31,5.77,17.47,17.47,0,0,0,8.38,8.37c.8.4.78.79.12,1.21a29.65,29.65,0,0,0-4.42,3.71q-3.42,3.21-6.65,6.64c-2.68,2.85-5.2,5.84-7.69,8.86-4.22,5.1-8.18,10.39-12,15.78-3.12,4.36-6.11,8.81-9.16,13.22l0,.05c0,.32-.19.52-.34.74-13.87,21-26.53,42.69-38.86,64.59-.15.27-.22.66-.63.81l-.07,0s0,0,0-.06c0-.33.08-.62.13-.91.67-4,1.43-7.94,2-11.93A267.72,267.72,0,0,0,71.11,123c.51-15.6.13-31.18-.83-46.75a18,18,0,0,0-3.58-9.9A9.49,9.49,0,0,0,62.45,63c-2.87-1.07-4.62.22-4.34,3.23q.46,4.89,1,9.78c1.07,9.94,1.82,19.9,2,29.9.3,15-1.89,29.79-4.6,44.51-2.07,11.23-4.38,22.42-6,33.73a11.68,11.68,0,0,0,.14,4.29c.71,3,3.11,4.14,5.87,2.83a10.83,10.83,0,0,0,4-3.32,16.89,16.89,0,0,0,3-9.67c0-1.11-.34-2.44,1.6-2.33.45,0,1-.52,1.38-.89a20.55,20.55,0,0,0,1.81-1.92A73,73,0,0,0,74.54,164c7.77-13.18,15.49-26.4,23.92-39.18,4.44-6.74,8.88-13.48,13.62-20l0-.06c2.68-4.11,5.65-8,8.55-11.93q6.08-8.25,12.54-16.21,5-6.15,10.28-12.08c3.48-3.91,7-7.74,10.74-11.41a1,1,0,0,1,1.16-.38,40.43,40.43,0,0,0,9.26,1.71c.41.15.87,0,1.28.1a.87.87,0,0,1,.21.07l2.11.06a33.65,33.65,0,0,0,5,0l2.11-.06a.87.87,0,0,1,.21-.07c.41-.1.87.05,1.28-.1l1.16-.07a2,2,0,0,1,1.45,0c.36.79.64,1.67,1.73,1.72a2.63,2.63,0,0,0,1.42,0,10.17,10.17,0,0,0,3.83-2.59,26,26,0,0,0,7-13.53,9.17,9.17,0,0,0,.1-1.49h0a1.29,1.29,0,0,1,.08-.26v-.06A.88.88,0,0,1,193.61,38Zm-13,8a23.64,23.64,0,0,1-8.38,2.28,35,35,0,0,1-10.48-.74c5.5-4.73,11.14-8.82,18.42-9.84a5.66,5.66,0,0,1,1.79,0c2.77.44,3.77,2.4,2.43,4.88A8.49,8.49,0,0,1,180.57,46Z"/><path class="cls-1" d="M202.77,138.47c-.19-.41,0-.88-.17-1.29-.19-1.18-.33-2.36-.58-3.52-2.11-9.81-6.92-18.25-13.23-25.91a1.24,1.24,0,0,1-.17-1.62,76.25,76.25,0,0,1,6.89-11.26c1.26-1.69,1-2.57-.64-3.57a1.77,1.77,0,0,0-1.18,0,5.41,5.41,0,0,0-2.25,1.44,44.77,44.77,0,0,0-5.25,6.41c-2.11,2.87-1.27,2.78-3.6,0a55.77,55.77,0,0,0-4.15-4.93,4.3,4.3,0,0,0-5.21-1A9.71,9.71,0,0,0,168,99.74a2.84,2.84,0,0,0,0,1.42c.4.62,1.1.9,1.59,1.39a59.17,59.17,0,0,1,8.39,9.82.89.89,0,0,1,0,1.22c-.76,1.1-1.51,2.2-2.19,3.35q-4.27,7.18-8.5,14.41-4.57,7.77-8.69,15.8a5.29,5.29,0,0,1-1.93,2.3l-.09.06a2,2,0,0,1-.27.24c-5.34,3.51-7.62,8.43-6.77,14.77a2.43,2.43,0,0,1-.21,1.28c-5.6,13.82-10,28-14.16,42.34-3.11,10.69-6.15,21.4-9.57,32-.31,1-.53,1.09-1.33.38-2.55-2.28-3.67-5-2.74-8.37.2-.69.21-1.39-.52-1.78s-1.19.27-1.62.68a8.31,8.31,0,0,0-.37,11.32,12,12,0,0,0,4.81,3.47c1,.37,1,.83.76,1.67-.41,1.21-.74,2.45-1.07,3.68-2.17,8.11-4.43,16.2-4.75,24.65-.18,4.75,0,9.42,5.11,12.07a14.17,14.17,0,0,0,5.48,1.9,21.77,21.77,0,0,0,22.11-15.28,1.29,1.29,0,0,1,.85-1,15.51,15.51,0,0,0,4.82-2.86A51.44,51.44,0,0,0,169,256.06c2.16-3.81,4-7.75,4.38-12.2.37-3.94-1.27-6.39-5.07-7.37a26.09,26.09,0,0,0-8.22-.56,117.91,117.91,0,0,0-20.85,3.65,16.08,16.08,0,0,1-3.39.74c2.73-11.07,5.32-22.06,8.25-33A263.34,263.34,0,0,1,155.41,173c.37-.88.69-1.12,1.63-.8a34,34,0,0,0,9.16,1.67A35.88,35.88,0,0,0,179.28,172l.16-.06c.75-.31,1.49-.59,2.22-.93a41.79,41.79,0,0,0,15.54-12.86,28.53,28.53,0,0,0,5.41-13.54c.15-.37,0-.78.12-1.15a.61.61,0,0,1,.05-.12C202.78,141.71,202.77,140.09,202.77,138.47ZM175,167.39a22.58,22.58,0,0,1-11.79-1.15c-3.86-1.5-4.15-2.11-2.88-5.92a36,36,0,0,1,3.68-7.91,3.17,3.17,0,0,1,1.4-1.24,16.8,16.8,0,0,0,4.72-3c2-1.92,1.78-3.59-.56-5-.47-.29-.94-.4-.44-1.19a224,224,0,0,0,12.59-23.14c.09-.17.19-.33.3-.53.13.11.25.16.31.26,4.45,7.19,8.52,14.56,10.24,23,1.28,6.25.87,12.28-3,17.67C186,164.12,180.92,166.49,175,167.39Zm-5.91,79.42a19.52,19.52,0,0,1-2.44,6c-3.3,5.63-7.57,10.48-12,15.21a3,3,0,0,1-.54.36,28.73,28.73,0,0,0,.93-3.71c.21-.31.4-.67.09-1-.08-.09-.29.26-.36.47-2.65,3.55-5.13,7.24-8.11,10.54a26.78,26.78,0,0,1-6.37,5.4,12.63,12.63,0,0,1-5.8,1.73,3.09,3.09,0,0,1-3.6-2.45,12.74,12.74,0,0,1-.6-3.53c-.25-6,.74-11.86,1.79-17.72.79-4.4,1.78-8.76,2.74-13.13a1.8,1.8,0,0,1,1.65-1.62c7.08-1.49,14.14-3,21.4-3.32a21.07,21.07,0,0,1,7.93.9C168.7,241.94,169.72,243.8,169.11,246.81Z"/><path class="cls-1" d="M146.25,155.89a9.91,9.91,0,0,1-2.44,4.46c-5.17,5.57-11,10.26-18,13.19A21.35,21.35,0,0,1,120,175a9,9,0,0,1-10.06-6.68c-1.17-3.82-.82-7.67-.09-11.51,1.66-8.65,5-16.73,8.61-24.71,2.18-4.83,4.53-9.6,6.81-14.39l0,0a9.33,9.33,0,0,1,6-4.06,5.7,5.7,0,0,1,2.14,0c3.89,1.11,4.21,5.06,2.55,8.6-.67,1.42-1.54,2.73-2.32,4.1-5.69,9.45-11.29,18.95-14,29.8a14.66,14.66,0,0,0-.16,7.47c.85,3.13,3,4.43,6.17,3.69,3.69-.85,6.63-3.08,9.51-5.37a93.74,93.74,0,0,0,8.26-7.68c.68-.7,1.46-1.75,2.51-1.11S146.49,154.94,146.25,155.89Z"/><path class="cls-3" d="M393.3,129.94a1.35,1.35,0,0,1-.14.3c-.09-.16-.18-.33-.26-.5a.13.13,0,0,1,0-.06,1,1,0,0,1,.37-.76A1.62,1.62,0,0,1,393.3,129.94Z"/><path class="cls-1" d="M471.88,41.88a6.13,6.13,0,0,1-4.49,4.61,5.41,5.41,0,0,1-3.33-.13c-.53-.2-.71-.13-1,.31a88.79,88.79,0,0,0-10.19,20,163.81,163.81,0,0,0-6.21,22.59c-.16.73-.41.92-1.09.54-3-1.7-6-3.35-9.17-4.83-4.75-2.26-9.57-4.37-14.52-6.17A120.46,120.46,0,0,0,405.41,74c-2.94-.62-5.87-1.26-8.87-1.64-2.39-.31-4.76-.74-7.17-.93-.41-.19-.87,0-1.28-.16l-1.63-.07a.9.9,0,0,0-.22-.06c-.66-.14-1.34.08-2-.12l-3.53-.06a22,22,0,0,0-4.73,0l-3.52.06c-.66.2-1.36,0-2,.12l-.21.06-1.61.06c-.44.17-.92,0-1.36.12a.47.47,0,0,0-.15.06l-1.13.06c-.37.16-.78,0-1.15.12l-.12,0c-1,.1-2.05.11-3,.3-.68.14-.54,0-.48-.54.38-3.32,1.07-6.6,1.22-9.94,0-.42.37-.79.24-1.25a.62.62,0,0,0,0-.12c.13-.37,0-.77.13-1.13.1-1.17.2-2.35.31-3.52.2-.41,0-.87.17-1.28s0-.91.07-1.36a.78.78,0,0,0,0-.14c.12-.45,0-.94.12-1.38l.06-1.61a1.27,1.27,0,0,0,.06-.18c.14-.59-.07-1.22.12-1.81l.06-2.1a1.4,1.4,0,0,0,.06-.28c.15-1-.08-1.94.12-2.9.13-3.29.13-6.57,0-9.86-.2-.8,0-1.64-.12-2.44a1.22,1.22,0,0,0-.06-.26c0-.62,0-1.24-.07-1.86-.16-.44,0-.93-.11-1.37a.42.42,0,0,0-.06-.14c0-.46,0-.91-.07-1.37s0-.74-.1-1.09a1,1,0,0,0-.07-.15,1.38,1.38,0,0,0-1.28-1.7c-2-.43-3.78-2.86-4-4.91a5.76,5.76,0,0,1,4.78-6.35,6.68,6.68,0,0,1,2.14,0,6.18,6.18,0,0,1,4.61,4.85,4,4,0,0,1,0,1.66,6,6,0,0,1-3.45,4.43c-.41.19-.52.38-.26.81,3,4.81,4.61,10.22,7,15.27a14.7,14.7,0,0,0,2.55,3.86c2.32,2.41,3.65,1.88,5.9.35,3.3-2.23,5-5.71,6.57-9.19a64.47,64.47,0,0,0,3.8-11.7c.49-2,.88-4,1.32-6,.11-.49-.07-.61-.56-.79A5.86,5.86,0,0,1,389.31,6a5.26,5.26,0,0,1,5.22-2.91,5.71,5.71,0,0,1,5.28,3.82c.12.29.21.6.31.9a5.27,5.27,0,0,1,0,1.9,5.91,5.91,0,0,1-4.72,4.8c-.65.14-1,.46-.85,1.14s.18,1.17.28,1.76c.17.34,0,.73.11,1.08a1,1,0,0,0,.07.15c.63,6.68,1.82,13.19,5.75,18.85a17.33,17.33,0,0,0,1.55,2c.36.39.33.63,0,1-5.11,5.12-10.79,9.26-18.12,10.52A16.28,16.28,0,0,1,372,48.63c-.61-.4-.95-1.06-1.69-1.47v2.42c.17,1.83,0,3.66.08,5.49a1.93,1.93,0,0,1,0,.24,2.24,2.24,0,0,0,.11,1.06L370.6,63c0,.6.27.88.95.85a15.84,15.84,0,0,1,3.08.06l4,.06h0l.26.07c.81.14,1.64-.1,2.44.11l1.85.06a.63.63,0,0,0,.18.06c.51.13,1.06-.06,1.57.12l1.39.06.15.06c.43.13.91-.06,1.34.12l1.14.06.13.06c.37.12.77,0,1.13.12a159.54,159.54,0,0,1,35.25,7.94,150.72,150.72,0,0,1,14.89,6.27c.49.24.88.6,1.26-.26,2-4.56,4.14-9.08,6.22-13.62a3.7,3.7,0,0,0,.15-.49c-10.46-.46-20.91-.25-31.27-2.45a6.91,6.91,0,0,1,3-1.46l.14-.07c.22,0,.53.11.55-.3A47.91,47.91,0,0,1,415,51.78c-1.6-3.16-2.51-6.57-3.81-10.1a22.14,22.14,0,0,1-17.36,12.73,11.29,11.29,0,0,1-1.84.09h-.06a2,2,0,0,0-.33.08h-.32l-.21-.07c-.51-.11-1,.07-1.54-.11a4.27,4.27,0,0,1-1.4-.17c-.59-.27-1.33-.11-1.92-.7,1.27-.28,2.46-.52,3.65-.81a28.64,28.64,0,0,0,3.45-1.18,26.3,26.3,0,0,0,6.6-3.87,31.71,31.71,0,0,0,8.28-9.93,61.42,61.42,0,0,0,5.2-13c1.18-4.24,2.09-8.56,3.45-12.75.24-.74-.16-1-.67-1.26A5.42,5.42,0,0,1,413.57,5,5.09,5.09,0,0,1,416.76.6c.51-.21,1-.34,1.57-.51a5.06,5.06,0,0,1,1.9,0c2.8.78,4.57,2.49,4.79,5.48a5.63,5.63,0,0,1-3.78,5.63,2.51,2.51,0,0,0-1.5,1.63,76.8,76.8,0,0,0-4,15.78,19.21,19.21,0,0,0-.06,2.15c-.24.65,0,1.35-.17,2V35.9c.19.59,0,1.21.12,1.8a.63.63,0,0,0,.06.18,28.22,28.22,0,0,0,5.9,16,34.27,34.27,0,0,0,5.93,5.86c2.89,2.31,6.07,2.51,9.45,1.64,4.33-1.11,8-3.6,11.55-6.11,4.44-3.09,8.4-6.78,12.7-10,.48-.37.37-.69.06-1.19a5.87,5.87,0,0,1,2.1-8.32,11.23,11.23,0,0,1,2-.6,4.22,4.22,0,0,1,1.66,0A6.06,6.06,0,0,1,471.89,40,5.27,5.27,0,0,1,471.88,41.88Z"/><path class="cls-1" d="M443.08,22.68c-.72,2.92-2.46,4.71-5.55,5-.25,0-.42.08-.49.39-1,3.82-2.3,7.56-2.43,11.56-.19.41,0,.88-.17,1.29a7.7,7.7,0,0,0-.06,2.09,2.73,2.73,0,0,0,0,1.6,17.54,17.54,0,0,0,4.81,13c.66.68.42.89-.31,1s-1.71.24-2.57.36a2,2,0,0,1-1.18,0,13.51,13.51,0,0,1-9.38-4.11,20.65,20.65,0,0,1-5-7.87,29.9,29.9,0,0,1-1-3.07c-.13-.54-.17-.78.45-1a24.53,24.53,0,0,0,11.69-10.63c1-1.68,1.7-3.47,2.74-5.1-3.08-2-3.58-4.5-2.71-7.38a5.33,5.33,0,0,1,4.46-3.59,4.86,4.86,0,0,1,1.9,0A6.15,6.15,0,0,1,443.08,21,3.72,3.72,0,0,1,443.08,22.68Z"/><path class="cls-1" d="M255.52,131.63c-2.22-.6-4.38-1.42-6.65-1.8-1.33-.22-2.67-.4-4-.6a.84.84,0,0,0-.14-.06c-.45-.13-.93,0-1.36-.12a36.59,36.59,0,0,0-5.54,0c-.51.19-1,0-1.56.12a.52.52,0,0,0-.16.06,62.23,62.23,0,0,0-11.47,2.17l-4.44,1.22c-.43.12-.75.19-.83-.44a27.92,27.92,0,0,0-.75-4.08c-.2-.67,0-.79.47-1A49.73,49.73,0,0,1,232.84,123l1.89-.29c.37-.16.79,0,1.17-.12l.12,0,1.83-.07a36.94,36.94,0,0,1,5.26,0l1.87.06.16.07c.43.12.9-.07,1.33.11,2,.32,4,.65,6.07,1a1.24,1.24,0,0,1,1,.69,17.51,17.51,0,0,1,2.12,5.37A2.85,2.85,0,0,1,255.52,131.63Z"/><path class="cls-1" d="M149.39,95.05c-.6,2.34-2.25,3.9-4.07,5.27a52.36,52.36,0,0,1-9.28,5.25c-2.25,1.07-3.53-.49-4.22-3.1a7.85,7.85,0,0,1-.11-.83c-.14-.37,0-.77-.12-1.14a.7.7,0,0,0,0-.13c0-.19,0-.37,0-.55a.7.7,0,0,0,.05-.13c.11-.38,0-.78.12-1.15a3.25,3.25,0,0,1,2.46-3.15c3-1.08,5.87-2.74,9-3.7a11,11,0,0,1,3.16-.6A2.94,2.94,0,0,1,149.39,95.05Z"/><path class="cls-4" d="M155.06,264.63c-.06-.18,0-.41-.27-.51.07-.21.28-.56.36-.47C155.46,264,155.27,264.32,155.06,264.63Z"/></svg>