<svg id="Capa_1" enable-background="new 0 0 512 512" height="512" viewBox="0 0 512 512" width="512" xmlns="http://www.w3.org/2000/svg"><path d="m480.297 173.977c0-33.312-27.004-60.316-60.316-60.316-1.584 0-3.149.08-4.702.2 0-.067.005-.133.005-.2 0-30.717-24.901-55.619-55.619-55.619-9.639 0-18.704 2.454-26.608 6.769-10.163-32.903-40.817-56.811-77.057-56.811s-66.894 23.908-77.057 56.81c-7.904-4.314-16.969-6.769-26.608-6.769-30.718 0-55.619 24.901-55.619 55.619 0 .067.005.133.005.2-1.553-.12-3.118-.2-4.702-.2-33.312 0-60.316 27.004-60.316 60.316 0 25.511 15.846 47.306 38.225 56.123-1.489 5.577-2.294 11.432-2.294 17.478 0 37.334 30.265 67.599 67.599 67.599 19.771 0 37.557-8.491 49.918-22.021 13.672 25.081 40.272 42.101 70.849 42.101s57.177-17.02 70.849-42.101c12.361 13.531 30.147 22.021 49.918 22.021 37.334 0 67.599-30.265 67.599-67.599 0-6.046-.805-11.901-2.294-17.478 22.38-8.816 38.225-30.611 38.225-56.122z" fill="#348021"/><path d="m480.297 173.977c0-12.406-3.75-23.934-10.172-33.522 1.352 4.918 2.088 10.09 2.088 15.437 0 23.198-13.593 43.21-33.244 52.537-2.072.983-3.126 3.29-2.673 5.539.837 4.161 1.281 8.464 1.281 12.872 0 35.989-29.174 65.163-65.163 65.163-16.858 0-32.218-6.403-43.786-16.908-2.275-2.066-5.844-1.554-7.526 1.018-13.878 21.223-37.852 35.246-65.103 35.246s-51.224-14.023-65.102-35.246c-1.682-2.572-5.251-3.084-7.526-1.018-11.569 10.505-26.929 16.908-43.786 16.908-35.988 0-65.163-29.174-65.163-65.163 0-4.408.444-8.711 1.281-12.872.452-2.248-.601-4.556-2.673-5.539-19.651-9.327-33.244-29.339-33.244-52.537 0-5.347.736-10.52 2.088-15.437-6.422 9.587-10.172 21.116-10.172 33.522 0 25.511 15.846 47.306 38.225 56.123-1.868 6.997-2.66 14.433-2.135 22.132 2.282 33.508 29.308 60.562 62.82 62.791 21.609 1.437 41.222-7.29 54.539-21.867 13.672 25.081 40.272 42.101 70.849 42.101s57.177-17.02 70.849-42.101c13.315 14.575 32.924 23.302 54.529 21.868 33.514-2.224 60.544-29.277 62.829-62.787.525-7.701-.267-15.139-2.135-22.137 22.38-8.817 38.225-30.612 38.225-56.123z" fill="#2e701b"/><path d="m326.849 293.156c-8.943 16.406-23.418 29.36-40.919 36.36-11.619 19.838-24.675 44.209-29.931 61.608-5.256-17.399-18.312-41.77-29.93-61.608-17.5-7-31.976-19.954-40.919-36.36-7.267 7.955-16.419 14.147-26.737 17.917 18.744 38.38 40.625 97.262 50.154 175.711 1.193 9.824 9.531 17.216 19.427 17.216h56.011c9.896 0 18.234-7.392 19.427-17.216 9.529-78.449 31.41-137.331 50.154-175.711-10.318-3.77-19.47-9.963-26.737-17.917z" fill="#98db7c"/><path d="m326.849 293.156c-8.943 16.406-23.418 29.36-40.919 36.36-4.736 8.086-9.704 16.925-14.292 25.738l72.809-24.268c3.084-7.155 6.151-13.797 9.138-19.914-10.317-3.769-19.469-9.962-26.736-17.916z" fill="#82d361"/><path d="m226.07 329.516c-17.5-7-31.976-19.954-40.919-36.36-7.267 7.955-16.419 14.147-26.737 17.917 2.439 4.994 4.932 10.344 7.443 16.031l76.459 31.953c-5.106-10.056-10.828-20.29-16.246-29.541z" fill="#82d361"/><path d="m329.938 145.339c-3.449 17.129-18.579 30.03-36.725 30.03-10.708 0-20.364-4.494-27.191-11.697-2.334-2.462-6.314-2.035-8.03.891-7.397 12.61-21.092 21.078-36.768 21.078-20.944 0-38.346-15.119-41.918-35.036-.861 3.3-.349 5.174-.349 5.174-.213 1.725-.335 3.478-.335 5.26 0 23.528 19.073 42.601 42.601 42.601 18.442 0 34.143-11.72 40.071-28.117 6.595 10.706 18.421 17.845 31.918 17.845 20.692 0 37.465-16.774 37.465-37.465.001.001.527-4.754-.739-10.564z" fill="#2e701b"/><path d="m488.251 173.817c0-36.674-29.206-66.655-65.58-67.908-3.709-31.363-30.46-55.769-62.803-55.769-7.66 0-15.267 1.399-22.388 4.088-6.062-14.409-16.002-27.209-28.572-36.629-15.363-11.513-33.658-17.599-52.908-17.599s-37.545 6.086-52.908 17.599c-12.569 9.42-22.51 22.22-28.572 36.629-7.121-2.689-14.728-4.088-22.388-4.088-32.343 0-59.094 24.407-62.803 55.77-10.08.353-20.036 2.958-28.934 7.584-3.633 1.889-5.09 6.501-3.201 10.134s6.501 5.087 10.134 3.201c7.57-3.936 15.768-5.931 24.37-5.931 2.954 0 6.101.72 8.756-.981 2.222-1.424 3.542-3.997 3.465-6.627.05-26.542 21.66-48.119 48.213-48.119 8.059 0 16.032 2.027 23.059 5.863 4.11 2.245 9.403.086 10.781-4.378 9.538-30.88 37.681-51.627 70.028-51.627s60.49 20.747 70.028 51.625c1.378 4.464 6.671 6.623 10.781 4.378 7.026-3.836 15-5.863 23.059-5.863 26.554 0 48.163 21.576 48.213 48.119-.079 2.626 1.24 5.213 3.465 6.629 2.658 1.691 5.802.98 8.756.98 29.18 0 52.92 23.74 52.92 52.92 0 21.885-13.165 41.213-33.54 49.24-3.553 1.4-5.491 5.242-4.506 8.931 1.356 5.079 2.044 10.319 2.044 15.573 0 15.013-5.557 29.394-15.647 40.493-2.534 2.787-2.582 7.169-.095 10.004 2.919 3.328 8.239 3.38 11.217.106 12.61-13.872 19.555-31.842 19.555-50.603 0-4.416-.388-8.823-1.16-13.166 22.773-11.517 37.161-34.649 37.161-60.578z"/><path d="m399.669 303.369c-7.195 2.926-14.82 4.409-22.665 4.409-16.871 0-33.079-7.151-44.469-19.618-3.424-3.751-9.72-2.978-12.146 1.472-12.866 23.604-37.538 38.266-64.389 38.266s-51.523-14.663-64.389-38.266c-2.427-4.452-8.721-5.222-12.146-1.472-11.389 12.468-27.598 19.618-44.469 19.618-33.203 0-60.216-27.014-60.216-60.217 0-5.254.688-10.494 2.044-15.573.985-3.689-.953-7.53-4.506-8.931-20.375-8.026-33.54-27.354-33.54-49.24 0-10.533 3.085-20.704 8.921-29.415 2.31-3.448 1.389-8.116-2.06-10.426-3.447-2.311-8.115-1.388-10.426 2.06-7.5 11.194-11.465 24.258-11.465 37.781 0 25.929 14.389 49.061 37.161 60.577-.771 4.343-1.16 8.751-1.16 13.166 0 41.491 33.755 75.246 75.246 75.246 6.55 0 13.017-.869 19.251-2.525 7.268 15.449 13.906 31.834 19.758 48.811 1.39 4.03 5.999 6.109 9.948 4.506 3.646-1.48 5.541-5.69 4.261-9.404-5.891-17.089-12.559-33.611-19.858-49.228 5.405-2.674 10.504-5.982 15.154-9.898 9.45 13.572 22.408 24.058 37.254 30.52 14.339 24.671 24.031 44.693 28.043 57.974.94 3.111 3.944 5.341 7.194 5.341s6.254-2.23 7.194-5.341c4.012-13.281 13.704-33.302 28.043-57.974 14.846-6.461 27.804-16.948 37.254-30.52 4.649 3.916 9.748 7.223 15.152 9.897-17.247 36.946-38.292 94.917-47.578 171.365-.737 6.066-5.897 10.64-12.004 10.64h-56.121c-6.107 0-11.267-4.574-12.004-10.641-3.892-32.046-10.15-63.36-18.597-93.07-1.134-3.992-5.295-6.311-9.283-5.173-3.992 1.135-6.308 5.291-5.173 9.283 8.234 28.961 14.335 59.501 18.133 90.772 1.65 13.602 13.226 23.859 26.923 23.859h56.121c13.698 0 25.273-10.257 26.924-23.858 9.142-75.261 29.917-132.015 46.768-167.86 6.234 1.656 12.702 2.525 19.252 2.525 9.796 0 19.327-1.856 28.327-5.517 3.844-1.564 5.694-5.947 4.13-9.792-1.563-3.844-5.946-5.693-9.792-4.129zm-143.669 67.087c-3.766-8.445-8.605-18.041-14.485-28.732 4.742.787 9.582 1.202 14.485 1.202s9.743-.415 14.485-1.202c-5.88 10.691-10.719 20.286-14.485 28.732z"/><path d="m179.728 148.125c-4.123-.513-7.87 2.419-8.379 6.537-.26 2.109-.392 4.192-.392 6.191 0 27.68 22.519 50.2 50.199 50.2 16.893 0 32.437-8.555 41.631-22.155 8.195 7.569 18.969 11.863 30.499 11.863 24.842 0 45.054-20.211 45.054-45.054 0-.133-.003-.265-.006-.303-.1-4.148-3.522-7.387-7.692-7.334-4.149.099-7.432 3.542-7.334 7.692l.002.047c-.054 16.51-13.502 29.923-30.025 29.923-10.5 0-20.063-5.348-25.582-14.307-3.236-5.254-11.37-4.409-13.466 1.387-5.019 13.883-18.314 23.212-33.082 23.212-19.392 0-35.169-15.777-35.169-35.17 0-1.406.091-2.829.279-4.349.509-4.12-2.419-7.871-6.537-8.38z"/></svg>