<?xml version="1.0" encoding="utf-8"?>
<!DOCTYPE html>
<svg xmlns="http://www.w3.org/2000/svg" xmlns:xlink="http://www.w3.org/1999/xlink" version="1.1">
	<symbol id="icon-instagram" viewBox="0 0 32 32">
		<title>Instagram</title>
		<path d="M16.005 7.784c-4.537 0-8.211 3.677-8.211 8.211 0 4.537 3.677 8.211 8.211 8.211 4.537 0 8.211-3.677 8.211-8.211 0-4.537-3.677-8.211-8.211-8.211zM16.005 21.324c-2.945 0-5.329-2.385-5.329-5.329s2.385-5.329 5.329-5.329 5.329 2.385 5.329 5.329c0.001 2.944-2.384 5.329-5.329 5.329z"></path>
		<path d="M22.597 0.101c-2.944-0.137-10.236-0.131-13.183 0-2.589 0.121-4.873 0.747-6.715 2.588-3.077 3.077-2.684 7.224-2.684 13.305 0 6.224-0.347 10.275 2.684 13.305 3.089 3.088 7.296 2.684 13.305 2.684 6.165 0 8.293 0.004 10.473-0.84 2.964-1.151 5.201-3.8 5.42-8.559 0.139-2.945 0.131-10.236 0-13.183-0.264-5.617-3.279-9.024-9.301-9.301zM27.257 27.264c-2.017 2.017-4.816 1.837-11.291 1.837-6.667 0-9.34 0.099-11.291-1.857-2.247-2.236-1.84-5.827-1.84-11.271 0-7.367-0.756-12.672 6.637-13.051 1.699-0.060 2.199-0.080 6.475-0.080l0.060 0.040c7.105 0 12.68-0.744 13.015 6.648 0.076 1.687 0.093 2.193 0.093 6.463-0.001 6.589 0.124 9.279-1.859 11.271z"></path>
		<path d="M26.46 7.46c0 1.060-0.859 1.919-1.919 1.919s-1.919-0.859-1.919-1.919c0-1.060 0.859-1.919 1.919-1.919s1.919 0.859 1.919 1.919z"></path>
	</symbol>
	<symbol id="icon-facebook" viewBox="0 0 32 32">
		<title>Facebook</title>
		<path d="M18 11v-4c0-1.104 0.896-2 2-2h2v-5h-4c-3.314 0-6 2.686-6 6v5h-4v5h4v16h6v-16h4l2-5h-6z"></path>
	</symbol>
	<symbol id="icon-youtube" viewBox="0 0 32 32">
		<title>YouTube</title>
		<path d="M30.64 7.12c-0.868-1.544-1.81-1.828-3.728-1.936-1.916-0.13-6.734-0.184-10.908-0.184-4.182 0-9.002 0.054-10.916 0.182-1.914 0.11-2.858 0.392-3.734 1.938-0.894 1.542-1.354 4.198-1.354 8.874 0 0.004 0 0.006 0 0.006 0 0.004 0 0.006 0 0.006v0.004c0 4.656 0.46 7.332 1.354 8.858 0.876 1.544 1.818 1.824 3.732 1.954 1.916 0.112 6.736 0.178 10.918 0.178 4.174 0 8.992-0.066 10.91-0.176 1.918-0.13 2.86-0.41 3.728-1.954 0.902-1.526 1.358-4.202 1.358-8.858 0 0 0-0.006 0-0.010 0 0 0-0.004 0-0.006 0-4.678-0.456-7.334-1.36-8.876zM12 22v-12l10 6-10 6z"></path>
	</symbol>
	<symbol id="icon-arrow" viewBox="0 0 32 32">
		<title>Arrow</title>
		<path d="M30.685 7.344l1.315 1.315-15.999 16-16.001-16.003 1.315-1.315 14.687 14.687 14.683-14.684z"></path>
	</symbol>
	<symbol id="icon-delivery" viewBox="0 0 32 32">
		<title>Доставка</title>
		<path d="M10 20.183c-1.553 0-2.812 1.258-2.812 2.811s1.259 2.811 2.812 2.811c1.554 0 2.812-1.258 2.812-2.811s-1.258-2.811-2.812-2.811zM10 24.217c-0.675 0-1.222-0.547-1.222-1.222s0.547-1.222 1.222-1.222c0.675 0 1.223 0.547 1.223 1.222s-0.547 1.222-1.223 1.222z"></path>
		<path d="M24.826 20.183c-1.553 0-2.812 1.258-2.812 2.811s1.259 2.811 2.812 2.811c1.554 0 2.812-1.258 2.812-2.811s-1.258-2.811-2.812-2.811zM24.826 24.217c-0.675 0-1.222-0.547-1.222-1.222s0.547-1.222 1.222-1.222c0.675 0 1.223 0.547 1.223 1.222s-0.547 1.222-1.223 1.222z"></path>
		<path d="M13.163 11.545c0 0.394-0.322 0.716-0.716 0.716h-9.884c-0.394 0-0.716-0.322-0.716-0.716v-0.43c0-0.394 0.322-0.716 0.716-0.716h9.884c0.394 0 0.716 0.322 0.716 0.716v0.43z"></path>
		<path d="M30.335 15.738c-1.031-0.268-1.621-0.437-2.026-1.218l-1.354-2.741c-0.405-0.782-1.457-1.421-2.337-1.421h-1.851c0 0-0.249 0.005-0.249-0.245 0-0.575 0-2.299 0-2.299 0-0.891-0.504-1.62-1.577-1.62h-15.089c-1.536 0-2.265 0.729-2.265 1.62v1.44c0 0 0 0.428 0.415 0.428 2.111 0 8.444 0 8.444 0 0.79 0 1.433 0.643 1.433 1.432v0.43c0 0.79-0.643 1.432-1.433 1.432h-8.444c0 0-0.415-0.034-0.415 0.413 0 0.222 0 0.372 0 0.495 0 0.394 0.54 0.394 0.54 0.394h5.684c0.79 0 1.433 0.643 1.433 1.432v0.43c0 0.79-0.643 1.432-1.433 1.432h-5.594c0 0-0.63-0.012-0.63 0.49 0 0.87 0 3.481 0 3.481 0 0.891 0.729 1.62 1.62 1.62 0 0 0.671 0 0.895 0 0.203 0 0.233-0.113 0.233-0.17 0-2.020 1.644-3.663 3.664-3.663s3.664 1.643 3.664 3.663c0 0.057-0.016 0.17 0.139 0.17 1.774 0 7.222 0 7.222 0 0.143 0 0.137-0.121 0.137-0.17 0-2.020 1.644-3.663 3.664-3.663s3.664 1.643 3.664 3.663c0 0.057-0.001 0.17 0.088 0.17 0.813 0 1.821 0 1.821 0 0.881 0 1.601-0.72 1.601-1.601v-3.042c0-2.561-0.809-2.561-1.665-2.784zM27.289 15.596c0 0-3.4 0-4.557 0-0.188 0-0.213-0.183-0.213-0.183v-3.796c0 0-0.011-0.146 0.231-0.146 0.325 0 1.3 0 1.3 0 0.783 0 1.719 0.569 2.079 1.265l1.205 2.439c0.051 0.098 0.105 0.185 0.163 0.263 0.043 0.057-0.029 0.158-0.208 0.158z"></path>
		<path d="M10.528 16.142c0 0.394-0.322 0.716-0.716 0.716h-9.096c-0.394 0-0.716-0.322-0.716-0.716v-0.43c0-0.394 0.322-0.716 0.716-0.716h9.096c0.394 0 0.716 0.322 0.716 0.716v0.43z"></path>
	</symbol>
</svg>