<?xml version="1.0" encoding="utf-8"?>
<!DOCTYPE html>
<svg xmlns="http://www.w3.org/2000/svg" xmlns:xlink="http://www.w3.org/1999/xlink" version="1.1">
<symbol id="icon-instagram" viewBox="0 0 32 32">
<title>Instagram</title>
<path d="M16.005 7.784c-4.537 0-8.211 3.677-8.211 8.211 0 4.537 3.677 8.211 8.211 8.211 4.537 0 8.211-3.677 8.211-8.211 0-4.537-3.677-8.211-8.211-8.211zM16.005 21.324c-2.945 0-5.329-2.385-5.329-5.329s2.385-5.329 5.329-5.329 5.329 2.385 5.329 5.329c0.001 2.944-2.384 5.329-5.329 5.329z"></path>
<path d="M22.597 0.101c-2.944-0.137-10.236-0.131-13.183 0-2.589 0.121-4.873 0.747-6.715 2.588-3.077 3.077-2.684 7.224-2.684 13.305 0 6.224-0.347 10.275 2.684 13.305 3.089 3.088 7.296 2.684 13.305 2.684 6.165 0 8.293 0.004 10.473-0.84 2.964-1.151 5.201-3.8 5.42-8.559 0.139-2.945 0.131-10.236 0-13.183-0.264-5.617-3.279-9.024-9.301-9.301zM27.257 27.264c-2.017 2.017-4.816 1.837-11.291 1.837-6.667 0-9.34 0.099-11.291-1.857-2.247-2.236-1.84-5.827-1.84-11.271 0-7.367-0.756-12.672 6.637-13.051 1.699-0.060 2.199-0.080 6.475-0.080l0.060 0.040c7.105 0 12.68-0.744 13.015 6.648 0.076 1.687 0.093 2.193 0.093 6.463-0.001 6.589 0.124 9.279-1.859 11.271z"></path>
<path d="M26.46 7.46c0 1.060-0.859 1.919-1.919 1.919s-1.919-0.859-1.919-1.919c0-1.060 0.859-1.919 1.919-1.919s1.919 0.859 1.919 1.919z"></path>
</symbol>
<symbol id="icon-facebook" viewBox="0 0 32 32">
<title>Facebook</title>
<path d="M18 11v-4c0-1.104 0.896-2 2-2h2v-5h-4c-3.314 0-6 2.686-6 6v5h-4v5h4v16h6v-16h4l2-5h-6z"></path>
</symbol>
<symbol id="icon-youtube" viewBox="0 0 32 32">
<title>YouTube</title>
<path d="M30.64 7.12c-0.868-1.544-1.81-1.828-3.728-1.936-1.916-0.13-6.734-0.184-10.908-0.184-4.182 0-9.002 0.054-10.916 0.182-1.914 0.11-2.858 0.392-3.734 1.938-0.894 1.542-1.354 4.198-1.354 8.874 0 0.004 0 0.006 0 0.006 0 0.004 0 0.006 0 0.006v0.004c0 4.656 0.46 7.332 1.354 8.858 0.876 1.544 1.818 1.824 3.732 1.954 1.916 0.112 6.736 0.178 10.918 0.178 4.174 0 8.992-0.066 10.91-0.176 1.918-0.13 2.86-0.41 3.728-1.954 0.902-1.526 1.358-4.202 1.358-8.858 0 0 0-0.006 0-0.010 0 0 0-0.004 0-0.006 0-4.678-0.456-7.334-1.36-8.876zM12 22v-12l10 6-10 6z"></path>
</symbol>
<symbol id="icon-arrow" viewBox="0 0 32 32">
<title>Arrow</title>
<path d="M30.685 7.344l1.315 1.315-15.999 16-16.001-16.003 1.315-1.315 14.687 14.687 14.683-14.684z"></path>
</symbol>
<symbol id="icon-delivery" viewBox="0 0 32 32">
<title>Доставка</title>
<path d="M10 20.183c-1.553 0-2.812 1.258-2.812 2.811s1.259 2.811 2.812 2.811c1.554 0 2.812-1.258 2.812-2.811s-1.258-2.811-2.812-2.811zM10 24.217c-0.675 0-1.222-0.547-1.222-1.222s0.547-1.222 1.222-1.222c0.675 0 1.223 0.547 1.223 1.222s-0.547 1.222-1.223 1.222z"></path>
<path d="M24.826 20.183c-1.553 0-2.812 1.258-2.812 2.811s1.259 2.811 2.812 2.811c1.554 0 2.812-1.258 2.812-2.811s-1.258-2.811-2.812-2.811zM24.826 24.217c-0.675 0-1.222-0.547-1.222-1.222s0.547-1.222 1.222-1.222c0.675 0 1.223 0.547 1.223 1.222s-0.547 1.222-1.223 1.222z"></path>
<path d="M13.163 11.545c0 0.394-0.322 0.716-0.716 0.716h-9.884c-0.394 0-0.716-0.322-0.716-0.716v-0.43c0-0.394 0.322-0.716 0.716-0.716h9.884c0.394 0 0.716 0.322 0.716 0.716v0.43z"></path>
<path d="M30.335 15.738c-1.031-0.268-1.621-0.437-2.026-1.218l-1.354-2.741c-0.405-0.782-1.457-1.421-2.337-1.421h-1.851c0 0-0.249 0.005-0.249-0.245 0-0.575 0-2.299 0-2.299 0-0.891-0.504-1.62-1.577-1.62h-15.089c-1.536 0-2.265 0.729-2.265 1.62v1.44c0 0 0 0.428 0.415 0.428 2.111 0 8.444 0 8.444 0 0.79 0 1.433 0.643 1.433 1.432v0.43c0 0.79-0.643 1.432-1.433 1.432h-8.444c0 0-0.415-0.034-0.415 0.413 0 0.222 0 0.372 0 0.495 0 0.394 0.54 0.394 0.54 0.394h5.684c0.79 0 1.433 0.643 1.433 1.432v0.43c0 0.79-0.643 1.432-1.433 1.432h-5.594c0 0-0.63-0.012-0.63 0.49 0 0.87 0 3.481 0 3.481 0 0.891 0.729 1.62 1.62 1.62 0 0 0.671 0 0.895 0 0.203 0 0.233-0.113 0.233-0.17 0-2.020 1.644-3.663 3.664-3.663s3.664 1.643 3.664 3.663c0 0.057-0.016 0.17 0.139 0.17 1.774 0 7.222 0 7.222 0 0.143 0 0.137-0.121 0.137-0.17 0-2.020 1.644-3.663 3.664-3.663s3.664 1.643 3.664 3.663c0 0.057-0.001 0.17 0.088 0.17 0.813 0 1.821 0 1.821 0 0.881 0 1.601-0.72 1.601-1.601v-3.042c0-2.561-0.809-2.561-1.665-2.784zM27.289 15.596c0 0-3.4 0-4.557 0-0.188 0-0.213-0.183-0.213-0.183v-3.796c0 0-0.011-0.146 0.231-0.146 0.325 0 1.3 0 1.3 0 0.783 0 1.719 0.569 2.079 1.265l1.205 2.439c0.051 0.098 0.105 0.185 0.163 0.263 0.043 0.057-0.029 0.158-0.208 0.158z"></path>
<path d="M10.528 16.142c0 0.394-0.322 0.716-0.716 0.716h-9.096c-0.394 0-0.716-0.322-0.716-0.716v-0.43c0-0.394 0.322-0.716 0.716-0.716h9.096c0.394 0 0.716 0.322 0.716 0.716v0.43z"></path>
</symbol>
<symbol id="icon-phone" viewBox="0 0 32 32">
<title>Телефон</title>
<path d="M31.283 25.289l-4.942-4.942c-0.984-0.98-2.614-0.951-3.633 0.068l-2.49 2.489c-0.157-0.087-0.32-0.177-0.491-0.273-1.572-0.871-3.724-2.065-5.989-4.331-2.271-2.271-3.466-4.426-4.34-5.999-0.092-0.167-0.181-0.327-0.268-0.48l2.492-2.491c1.020-1.020 1.048-2.65 0.066-3.633l-4.942-4.943c-0.982-0.982-2.613-0.952-3.633 0.068l-1.393 1.401 0.038 0.038c-0.467 0.596-0.857 1.283-1.148 2.024-0.268 0.705-0.434 1.379-0.511 2.053-0.653 5.41 1.82 10.354 8.529 17.063 9.274 9.273 16.747 8.573 17.070 8.538 0.702-0.084 1.375-0.252 2.059-0.517 0.735-0.287 1.422-0.677 2.017-1.143l0.030 0.027 1.411-1.382c1.018-1.020 1.047-2.65 0.066-3.635z"></path>
</symbol>
<symbol id="icon-placeholder" viewBox="0 0 32 32">
<title>Розташування</title>
<path d="M23.925 3.283c-2.117-2.117-4.931-3.283-7.924-3.283s-5.808 1.166-7.924 3.283c-3.917 3.917-4.404 11.286-1.054 15.751l8.979 12.967 8.965-12.949c3.363-4.483 2.876-11.852-1.041-15.769zM16.104 15.194c-2.255 0-4.091-1.836-4.091-4.091s1.836-4.091 4.091-4.091 4.091 1.836 4.091 4.091-1.836 4.091-4.091 4.091z"></path>
</symbol>
<!-- Icon Pack -->
<symbol id="icon-menu" viewBox="0 0 32 32">
<title>Menu</title>
<path d="M28.966 5.517h-2.207c-0.305 0-0.552 0.247-0.552 0.552s0.247 0.552 0.552 0.552h1.655v24.276h-25.379c-0.305 0-0.552 0.247-0.552 0.552s0.247 0.552 0.552 0.552h25.931c0.305 0 0.552-0.247 0.552-0.552v-25.379c0-0.305-0.247-0.552-0.552-0.552z"></path>
<path d="M26.759 3.31h-2.586c-0.305 0-0.552 0.247-0.552 0.552s0.247 0.552 0.552 0.552h2.034v24.828h-12.69c-0.305 0-0.552 0.247-0.552 0.552s0.247 0.552 0.552 0.552h13.241c0.305 0 0.552-0.247 0.552-0.552v-25.931c0-0.305-0.247-0.552-0.552-0.552z"></path>
<path d="M24.358 0.132c-0.123-0.105-0.282-0.15-0.445-0.126l-20.965 3.31c-0.268 0.042-0.466 0.273-0.466 0.545v27.586c0 0.161 0.070 0.315 0.193 0.419 0.101 0.086 0.228 0.132 0.358 0.132 0.029 0 0.057-0.002 0.086-0.007l20.966-3.31c0.268-0.042 0.466-0.273 0.466-0.545v-27.586c0-0.161-0.070-0.315-0.193-0.419zM23.448 27.666l-19.862 3.136v-26.469l19.862-3.136v26.469z"></path>
<path d="M15.831 5.043c-0.005-0.088-0.023-0.167-0.053-0.236s-0.078-0.124-0.144-0.167-0.159-0.063-0.28-0.063h-0.472c-0.071 0-0.131 0.003-0.181 0.008s-0.095 0.024-0.137 0.055c-0.042 0.031-0.082 0.080-0.12 0.146s-0.080 0.159-0.128 0.281-0.102 0.276-0.165 0.464-0.138 0.417-0.226 0.689l-0.103 0.323h-0.078l-0.084-0.259c-0.097-0.285-0.179-0.524-0.246-0.719s-0.126-0.356-0.176-0.482c-0.051-0.126-0.097-0.224-0.139-0.293s-0.085-0.119-0.128-0.15c-0.043-0.031-0.090-0.050-0.141-0.055s-0.113-0.008-0.186-0.008h-0.44c-0.121 0-0.214 0.021-0.28 0.063s-0.114 0.098-0.144 0.167c-0.030 0.069-0.048 0.148-0.053 0.236s-0.008 0.179-0.008 0.272v3.284c0 0.069 0.004 0.134 0.013 0.194s0.029 0.114 0.061 0.16c0.032 0.046 0.081 0.083 0.146 0.11s0.153 0.040 0.265 0.040c0.099 0 0.177-0.014 0.234-0.040s0.1-0.064 0.129-0.11 0.048-0.1 0.057-0.16c0.009-0.060 0.013-0.125 0.013-0.194v-2.696h0.084l0.614 1.772c0.015 0.043 0.034 0.087 0.057 0.133s0.050 0.086 0.083 0.123 0.071 0.067 0.115 0.091c0.044 0.024 0.098 0.036 0.16 0.036h0.065c0.060 0 0.112-0.012 0.155-0.036s0.081-0.054 0.113-0.091c0.032-0.037 0.059-0.078 0.081-0.123s0.041-0.090 0.058-0.133l0.608-1.772h0.091v2.696c0 0.069 0.004 0.134 0.013 0.194s0.027 0.114 0.057 0.16 0.072 0.083 0.129 0.11c0.057 0.027 0.135 0.040 0.234 0.040 0.112 0 0.2-0.014 0.265-0.040s0.113-0.064 0.146-0.11c0.032-0.046 0.053-0.1 0.061-0.16s0.013-0.125 0.013-0.194v-3.284c-0-0.093-0.003-0.183-0.008-0.272z"></path>
<path d="M14.905 13.986c-0.071-0.029-0.151-0.047-0.239-0.053s-0.176-0.010-0.262-0.010h-0.769v-0.931h0.407c0.086 0 0.173-0.003 0.26-0.008s0.165-0.023 0.233-0.052c0.068-0.029 0.123-0.073 0.166-0.131s0.065-0.141 0.065-0.249c0-0.106-0.022-0.188-0.065-0.247s-0.099-0.103-0.166-0.133-0.146-0.046-0.233-0.052c-0.087-0.005-0.174-0.008-0.26-0.008h-0.407v-0.879h0.769c0.086 0 0.174-0.003 0.262-0.010s0.168-0.025 0.239-0.055c0.071-0.030 0.129-0.076 0.175-0.137s0.068-0.147 0.068-0.257-0.023-0.196-0.068-0.257-0.104-0.107-0.175-0.137c-0.071-0.030-0.151-0.048-0.239-0.055s-0.176-0.010-0.262-0.010v-0h-1.267c-0.121 0-0.214 0.022-0.28 0.065s-0.114 0.1-0.144 0.17c-0.030 0.070-0.048 0.149-0.053 0.238s-0.008 0.179-0.008 0.272v3.039c0 0.093 0.003 0.183 0.008 0.272s0.023 0.168 0.053 0.238c0.030 0.070 0.078 0.126 0.144 0.17s0.159 0.065 0.28 0.065h1.267c0.084 0 0.17-0.003 0.259-0.010s0.168-0.025 0.239-0.055 0.13-0.077 0.176-0.139c0.046-0.062 0.069-0.15 0.069-0.262 0-0.108-0.023-0.192-0.068-0.254s-0.104-0.106-0.175-0.136z"></path>
<path d="M15.532 16.362c-0.009-0.061-0.029-0.115-0.061-0.16s-0.080-0.081-0.144-0.108c-0.064-0.027-0.15-0.040-0.26-0.040-0.099 0-0.177 0.014-0.234 0.040s-0.1 0.063-0.129 0.108-0.048 0.099-0.057 0.16c-0.009 0.061-0.013 0.127-0.013 0.196v2.683h-0.078l-1.028-2.787c-0.028-0.076-0.066-0.142-0.113-0.2-0.043-0.050-0.099-0.095-0.166-0.137s-0.156-0.063-0.263-0.063h-0.427c-0.121 0-0.214 0.021-0.28 0.063s-0.114 0.098-0.144 0.168c-0.030 0.070-0.048 0.15-0.053 0.239s-0.008 0.18-0.008 0.273v3.278c0 0.069 0.004 0.134 0.013 0.196s0.029 0.115 0.061 0.16 0.081 0.081 0.146 0.108c0.065 0.027 0.153 0.040 0.265 0.040 0.099 0 0.177-0.014 0.234-0.040s0.1-0.063 0.129-0.108 0.048-0.099 0.057-0.16 0.013-0.127 0.013-0.196v-2.683h0.078l0.976 2.644c0.015 0.043 0.036 0.096 0.063 0.158s0.063 0.122 0.108 0.179c0.045 0.057 0.102 0.106 0.17 0.146s0.153 0.060 0.254 0.060h0.427c0.118 0 0.211-0.021 0.276-0.063s0.113-0.098 0.142-0.168 0.046-0.149 0.052-0.238c0.005-0.088 0.008-0.18 0.008-0.275v-3.278c-0-0.069-0.005-0.134-0.013-0.195z"></path>
<path d="M15.285 22.257c-0.010-0.088-0.032-0.167-0.068-0.236s-0.089-0.124-0.16-0.166-0.169-0.063-0.294-0.063c-0.127 0-0.226 0.021-0.297 0.063s-0.125 0.098-0.16 0.166-0.058 0.148-0.066 0.236c-0.009 0.088-0.013 0.179-0.013 0.272v2.547c-0.004 0.095-0.023 0.179-0.055 0.252-0.013 0.032-0.030 0.064-0.052 0.094s-0.047 0.057-0.076 0.081-0.064 0.043-0.105 0.057c-0.041 0.014-0.087 0.021-0.139 0.021s-0.098-0.007-0.137-0.021c-0.040-0.014-0.074-0.033-0.103-0.057s-0.054-0.051-0.076-0.081c-0.021-0.030-0.039-0.061-0.052-0.094-0.032-0.073-0.052-0.157-0.058-0.252v-2.547c0-0.093-0.004-0.183-0.013-0.272s-0.031-0.167-0.066-0.236-0.089-0.124-0.162-0.166c-0.072-0.042-0.171-0.063-0.296-0.063s-0.223 0.021-0.294 0.063c-0.071 0.042-0.124 0.098-0.16 0.166s-0.058 0.148-0.068 0.236c-0.010 0.088-0.014 0.179-0.014 0.272h-0v2.463c0 0.218 0.036 0.411 0.108 0.579s0.175 0.309 0.307 0.423c0.133 0.114 0.29 0.201 0.474 0.26s0.387 0.089 0.611 0.089c0.222 0 0.425-0.029 0.609-0.086s0.343-0.142 0.475-0.255c0.133-0.113 0.235-0.254 0.307-0.422s0.108-0.364 0.108-0.588v-2.463c-0-0.092-0.005-0.183-0.015-0.271z"></path>
</symbol>
<symbol id="icon-dinner-table" viewBox="0 0 32 32">
<title>Dinner Table</title>
<path d="M31.5 14h-31c-0.276 0-0.5 0.224-0.5 0.5v2.5c0 0.276 0.224 0.5 0.5 0.5h31c0.276 0 0.5-0.224 0.5-0.5v-2.5c0-0.276-0.224-0.5-0.5-0.5zM31 16.5h-30v-1.5h30v1.5z"></path>
<path d="M12.5 12h-9.5c-0.276 0-0.5 0.224-0.5 0.5s0.224 0.5 0.5 0.5h9.5c0.276 0 0.5-0.224 0.5-0.5s-0.224-0.5-0.5-0.5z"></path>
<path d="M11 12h-6c-0.276 0-0.5 0.224-0.5 0.5v2c0 0.276 0.224 0.5 0.5 0.5h6c0.276 0 0.5-0.224 0.5-0.5v-2c-0-0.276-0.224-0.5-0.5-0.5zM10.5 14h-5v-1h5v1z"></path>
<path d="M29.5 16.5h-27c-0.276 0-0.5 0.224-0.5 0.5v10.5c0 0.152 0.069 0.295 0.188 0.391s0.273 0.131 0.422 0.097l4.741-1.066c1.189-0.268 2.446-0.27 3.637-0.010l3.055 0.67c1.295 0.285 2.612 0.292 3.913 0.024l3.453-0.714c1.2-0.248 2.464-0.228 3.655 0.058l4.32 1.037c0.039 0.009 0.078 0.014 0.117 0.014 0.111 0 0.221-0.037 0.31-0.107 0.12-0.095 0.19-0.239 0.19-0.393v-10.5c0-0.276-0.224-0.5-0.5-0.5zM29 26.866l-3.704-0.889c-1.334-0.32-2.749-0.342-4.090-0.065l-3.453 0.714c-1.162 0.24-2.337 0.234-3.496-0.021l-3.055-0.67c-1.333-0.293-2.741-0.29-4.071 0.011l-4.131 0.929v-9.375h26v9.366z"></path>
<path d="M6 26.5c-0.276 0-0.5 0.224-0.5 0.5v3.5c0 0.276 0.224 0.5 0.5 0.5s0.5-0.224 0.5-0.5v-3.5c0-0.276-0.224-0.5-0.5-0.5z"></path>
<path d="M25.5 26.5c-0.276 0-0.5 0.224-0.5 0.5v3.5c0 0.276 0.224 0.5 0.5 0.5s0.5-0.224 0.5-0.5v-3.5c0-0.276-0.224-0.5-0.5-0.5z"></path>
<path d="M21.384 8.68c-0.095-0.114-0.235-0.18-0.384-0.18h-4.5c-0.149 0-0.289 0.066-0.384 0.18s-0.135 0.264-0.108 0.41l1 5.5c0.043 0.238 0.25 0.411 0.492 0.411h2.5c0.242 0 0.449-0.173 0.492-0.411l1-5.5c0.027-0.146-0.013-0.296-0.108-0.41zM19.582 14h-1.665l-0.818-4.5h3.302l-0.818 4.5z"></path>
<path d="M28.5 4h-4c-0.276 0-0.5 0.224-0.5 0.5v10c0 0.276 0.224 0.5 0.5 0.5h4c0.276 0 0.5-0.224 0.5-0.5v-10c0-0.276-0.224-0.5-0.5-0.5zM28 14h-3v-9h3v9z"></path>
<path d="M27.5 1h-2c-0.276 0-0.5 0.224-0.5 0.5v3c0 0.276 0.224 0.5 0.5 0.5h2c0.276 0 0.5-0.224 0.5-0.5v-3c-0-0.276-0.224-0.5-0.5-0.5zM27 4h-1v-2h1v2z"></path>
</symbol>
<symbol id="icon-dinner" viewBox="0 0 32 32">
<title>Dinner</title>
<path d="M16 4.853c-8.271 0-15 6.729-15 15 0 0.276 0.224 0.5 0.5 0.5h29c0.276 0 0.5-0.224 0.5-0.5-0-8.271-6.729-15-15-15zM2.009 19.353c0.264-7.489 6.439-13.5 13.991-13.5s13.727 6.011 13.991 13.5h-27.982z"></path>
<path d="M30.25 19.353h-28.5c-0.965 0-1.75 0.785-1.75 1.75s0.785 1.75 1.75 1.75h28.5c0.965 0 1.75-0.785 1.75-1.75s-0.785-1.75-1.75-1.75zM30.25 21.853h-28.5c-0.414 0-0.75-0.336-0.75-0.75s0.336-0.75 0.75-0.75h28.5c0.414 0 0.75 0.336 0.75 0.75s-0.336 0.75-0.75 0.75z"></path>
<path d="M9.25 24.018c-0.52-0.866-1.648-1.147-2.514-0.627-0.42 0.252-0.717 0.652-0.835 1.125-0.119 0.475-0.045 0.968 0.208 1.389l0.717 1.192 0.857-0.515-0.717-1.192c-0.115-0.192-0.149-0.416-0.095-0.631s0.189-0.396 0.38-0.511c0.393-0.236 0.906-0.109 1.142 0.284l1.543 2.568 0.858-0.515-1.543-2.568z"></path>
<path d="M18.453 25.875l0.112 0.062 5.706 0.013 0.002-1-5.45-0.012c-2.318-1.273-7.545-3.9-8.723-2.44-0.261 0.323-0.351 0.705-0.261 1.105 0.223 0.99 1.577 1.92 2.497 2.45l-0.709 0.446-4.854 0.088-2.133-1.125c-0.858-0.453-1.918-0.157-2.421 0.654l-0.003-0.002c-0 0.001-0.001 0.002-0.001 0.002l-0.055 0.103 0.003 0.002c-0.395 0.87-0.050 1.914 0.806 2.375l3.25 1.749 5.765 0.762c0.334 0.167 1.346 0.542 3.705 0.542 1.866 0 4.575-0.234 8.458-0.991l-0.191-0.982c-9.21 1.795-11.53 0.534-11.542 0.528l-0.095-0.062-5.788-0.765-3.089-1.662c-0.389-0.209-0.547-0.682-0.371-1.076 0.23-0.366 0.711-0.498 1.101-0.293l2.36 1.246 5.391-0.098 2.439-1.536-0.813-0.392c-1.045-0.504-2.585-1.515-2.735-2.182-0.023-0.101-0.005-0.173 0.063-0.258 0.235-0.294 2.749 0.085 7.574 2.749z"></path>
<path d="M28.529 23.353h-4.497c-0.276 0-0.5 0.224-0.5 0.5v7c0 0.276 0.224 0.5 0.5 0.5h4.497c0.276 0 0.5-0.224 0.5-0.5v-7c-0-0.276-0.224-0.5-0.5-0.5zM28.029 30.353h-3.498v-6h3.498v6z"></path>
<path d="M14.493 7.936c-0.046-0.272-0.3-0.455-0.576-0.41-3.632 0.609-6.795 2.784-8.68 5.966-0.141 0.238-0.062 0.544 0.175 0.685 0.080 0.047 0.168 0.070 0.254 0.070 0.171 0 0.337-0.088 0.431-0.245 1.734-2.928 4.644-4.929 7.985-5.489 0.272-0.046 0.456-0.303 0.41-0.576z"></path>
<path d="M16 0.353c-1.654 0-3 1.346-3 3 0 0.874 0.38 1.703 1.043 2.274 0.209 0.181 0.524 0.157 0.705-0.053s0.157-0.525-0.053-0.705c-0.442-0.381-0.696-0.934-0.696-1.516 0-1.103 0.897-2 2-2s2 0.897 2 2c0 0.585-0.255 1.139-0.7 1.52-0.21 0.18-0.234 0.495-0.054 0.705 0.099 0.115 0.239 0.175 0.379 0.175 0.115 0 0.231-0.040 0.325-0.12 0.667-0.572 1.049-1.402 1.049-2.279-0-1.654-1.346-3-3-3z"></path>
</symbol>
<symbol id="icon-chef" viewBox="0 0 32 32">
<title>Chef</title>
<path d="M18.4 21.333h-4.8c-0.295 0-0.533 0.239-0.533 0.533v2.495c0 0.295 0.239 0.533 0.533 0.533s0.533-0.239 0.533-0.533v-1.962h3.733v1.853c0 0.295 0.239 0.533 0.533 0.533s0.533-0.239 0.533-0.533v-2.386c-0-0.295-0.239-0.533-0.533-0.533z"></path>
<path d="M22.050 24.991l-1.145-0.189c-0.295-0.048-0.565 0.149-0.613 0.44s0.149 0.565 0.44 0.613l1.186 0.196c0.029 0.005 0.058 0.007 0.087 0.007 1.835 0 3.329 1.239 3.329 2.762v2.114h-18.667v-2.114c0-1.523 1.493-2.762 3.329-2.762 0.029 0 0.058-0.002 0.087-0.007l1.281-0.211c0.291-0.048 0.488-0.322 0.44-0.613s-0.322-0.488-0.613-0.44l-1.239 0.204c-2.403 0.021-4.351 1.731-4.351 3.829v2.647c0 0.295 0.239 0.533 0.533 0.533h19.733c0.295 0 0.533-0.239 0.533-0.533v-2.647c-0-2.098-1.947-3.808-4.35-3.829z"></path>
<path d="M21.067 11.2h-10.133c-0.295 0-0.533 0.239-0.533 0.533v7.929c0 1.51 1.228 2.738 2.738 2.738h5.725c1.51 0 2.738-1.228 2.738-2.738v-7.929c0-0.295-0.239-0.533-0.533-0.533zM20.533 19.662c0 0.921-0.75 1.671-1.671 1.671h-5.725c-0.921 0-1.671-0.75-1.671-1.671v-7.396h9.067v7.396z"></path>
<path d="M16.783 24.399c-0.061-0.235-0.273-0.399-0.516-0.399h-4.8c-0.295 0-0.533 0.239-0.533 0.533v2.667c0 0.189 0.1 0.364 0.263 0.46 0.084 0.049 0.177 0.074 0.271 0.074 0.089 0 0.178-0.022 0.259-0.067l4.8-2.667c0.212-0.118 0.318-0.365 0.257-0.6zM12 26.293v-1.227h2.209l-2.209 1.227z"></path>
<path d="M20.533 24h-4.8c-0.243 0-0.455 0.164-0.516 0.399s0.045 0.482 0.257 0.6l4.8 2.667c0.081 0.045 0.17 0.067 0.259 0.067 0.093 0 0.187-0.025 0.271-0.074 0.163-0.096 0.263-0.271 0.263-0.46v-2.667c-0-0.294-0.239-0.533-0.533-0.533zM20 26.293l-2.209-1.227h2.209v1.227z"></path>
<path d="M19.467 0c-1.313 0-2.567 0.546-3.467 1.486-0.9-0.94-2.153-1.486-3.467-1.486-2.647 0-4.8 2.153-4.8 4.8 0 1.841 1.035 3.491 2.667 4.298v2.635c0 0.295 0.239 0.533 0.533 0.533h10.133c0.295 0 0.533-0.239 0.533-0.533v-2.635c1.631-0.807 2.667-2.457 2.667-4.298-0-2.647-2.153-4.8-4.8-4.8zM20.866 8.259c-0.201 0.081-0.333 0.277-0.333 0.494v2.446h-9.067v-2.446c0-0.217-0.132-0.413-0.333-0.494-1.418-0.574-2.334-1.932-2.334-3.459 0-2.058 1.675-3.733 3.733-3.733 1.197 0 2.331 0.584 3.033 1.563 0.2 0.28 0.667 0.28 0.867 0 0.702-0.979 1.836-1.563 3.033-1.563 2.058 0 3.733 1.675 3.733 3.733-0 1.527-0.916 2.885-2.334 3.459z"></path>
<path d="M16.11 17.756c-0.055-0.055-1.355-1.331-2.749-0.633-0.102 0.051-0.229 0.117-0.375 0.193-0.802 0.417-3.245 1.682-4.057 1.354-0.084-0.034-0.126-0.080-0.157-0.171-0.093-0.279-0.394-0.431-0.675-0.337-0.279 0.093-0.43 0.395-0.337 0.675 0.129 0.387 0.394 0.671 0.768 0.822 0.216 0.087 0.46 0.127 0.725 0.127 1.175 0 2.772-0.768 4.224-1.522 0.14-0.073 0.262-0.136 0.361-0.185 0.7-0.351 1.496 0.413 1.519 0.435 0.208 0.207 0.545 0.207 0.753-0.001s0.208-0.546-0-0.754z"></path>
<path d="M23.902 18.161c-0.28-0.093-0.582 0.058-0.675 0.337-0.030 0.091-0.073 0.137-0.157 0.171-0.811 0.33-3.255-0.937-4.057-1.354-0.146-0.075-0.273-0.141-0.375-0.193-1.394-0.697-2.694 0.579-2.749 0.633-0.208 0.208-0.208 0.546 0 0.754s0.546 0.208 0.754 0c0.008-0.008 0.815-0.786 1.518-0.433 0.099 0.049 0.221 0.113 0.361 0.185 1.452 0.754 3.049 1.522 4.224 1.522 0.266 0 0.51-0.039 0.725-0.127 0.373-0.151 0.639-0.436 0.768-0.822 0.093-0.279-0.058-0.582-0.337-0.675z"></path>
</symbol>
<symbol id="icon-quote" viewBox="0 0 32 32">
<title>Quote</title>
<path d="M18.286 2.286v13.714h9.143c0 5.041-4.102 9.143-9.143 9.143v4.571c7.563 0 13.714-6.152 13.714-13.714v-13.714z"></path>
<path d="M0 16h9.143c0 5.041-4.102 9.143-9.143 9.143v4.571c7.563 0 13.714-6.152 13.714-13.714v-13.714h-13.714z"></path>
</symbol>
<symbol id="icon-email" viewBox="0 0 32 32">
<title>Email</title>
<path d="M29.188 3.813h-26.375c-0.433 0-0.838 0.106-1.205 0.282l14.33 14.33 3.212-3.087c0 0 0-0 0-0s0-0 0-0l11.243-11.242c-0.367-0.176-0.772-0.282-1.205-0.282z"></path>
<path d="M31.718 5.42l-10.58 10.58 10.58 10.58c0.175-0.367 0.282-0.772 0.282-1.205v-18.75c0-0.433-0.106-0.838-0.282-1.204z"></path>
<path d="M0.282 5.42c-0.175 0.367-0.282 0.772-0.282 1.205v18.75c0 0.433 0.106 0.838 0.282 1.205l10.58-10.58-10.58-10.58z"></path>
<path d="M19.813 17.326l-3.212 3.087c-0.183 0.183-0.423 0.275-0.663 0.275s-0.48-0.092-0.663-0.275l-3.087-3.087-10.58 10.58c0.367 0.176 0.772 0.282 1.205 0.282h26.375c0.433 0 0.838-0.106 1.205-0.282l-10.58-10.58z"></path>
</symbol>
<symbol id="icon-clock" viewBox="0 0 32 32">
<title>Clock</title>
<path d="M16 0c-8.822 0-16 7.178-16 16s7.178 16 16 16 16-7.178 16-16-7.178-16-16-16zM16 28.595c-6.945 0-12.596-5.65-12.596-12.595s5.651-12.595 12.596-12.595 12.596 5.65 12.596 12.595-5.651 12.595-12.596 12.595z"></path>
<path d="M24.339 15.506h-7.19v-8.646c0-0.728-0.59-1.317-1.317-1.317s-1.317 0.59-1.317 1.317v9.963c0 0.728 0.59 1.317 1.317 1.317h8.508c0.728 0 1.317-0.59 1.317-1.317s-0.59-1.317-1.317-1.317z"></path>
</symbol>
<symbol id="icon-guests" viewBox="0 0 32 32">
<title>Guests</title>
<path d="M19.311 7.157c1.48 0.928 2.517 2.498 2.706 4.32 0.603 0.282 1.273 0.444 1.983 0.444 2.592 0 4.693-2.101 4.693-4.693s-2.101-4.693-4.693-4.693c-2.567 0.001-4.65 2.064-4.689 4.622zM16.236 16.766c2.592 0 4.693-2.101 4.693-4.693s-2.101-4.693-4.693-4.693c-2.592 0-4.694 2.101-4.694 4.693s2.102 4.693 4.694 4.693zM18.227 17.086h-3.982c-3.313 0-6.009 2.696-6.009 6.009v4.87l0.012 0.076 0.335 0.105c3.162 0.988 5.909 1.317 8.17 1.317 4.416 0 6.976-1.259 7.134-1.339l0.314-0.159h0.034v-4.871c0.001-3.313-2.694-6.009-6.008-6.009zM25.991 12.241h-3.952c-0.043 1.581-0.718 3.005-1.785 4.029 2.945 0.876 5.1 3.607 5.1 6.833v1.501c3.902-0.143 6.15-1.249 6.298-1.323l0.314-0.159h0.034v-4.872c0-3.313-2.696-6.009-6.009-6.009zM8.001 11.922c0.918 0 1.772-0.268 2.496-0.724 0.23-1.5 1.034-2.811 2.183-3.704 0.005-0.088 0.013-0.175 0.013-0.264 0-2.592-2.101-4.693-4.692-4.693-2.593 0-4.693 2.101-4.693 4.693 0 2.591 2.101 4.692 4.693 4.692zM12.216 16.27c-1.062-1.019-1.735-2.435-1.784-4.006-0.147-0.011-0.292-0.022-0.441-0.022h-3.982c-3.313 0-6.009 2.696-6.009 6.009v4.871l0.012 0.075 0.335 0.106c2.537 0.792 4.801 1.157 6.767 1.272v-1.471c0.001-3.226 2.155-5.956 5.101-6.833z"></path>
</symbol>
<symbol id="icon-menu" viewBox="0 0 32 32">
<title>Menu</title>
<path d="M13.553 0h-9.82c-0.295 0-0.533 0.239-0.533 0.533v29.333c0 0.295 0.239 0.533 0.533 0.533h12.267c0.295 0 0.533-0.239 0.533-0.533v-26.887c0-1.643-1.337-2.98-2.98-2.98zM15.467 29.333h-11.2v-28.267h9.286c1.055 0 1.914 0.858 1.914 1.913v26.353z"></path>
<path d="M28.267 0h-9.82c-1.643 0-2.98 1.337-2.98 2.98v26.887c0 0.295 0.239 0.533 0.533 0.533h12.267c0.295 0 0.533-0.239 0.533-0.533v-29.333c-0-0.295-0.239-0.533-0.533-0.533zM27.733 29.333h-11.2v-26.353c0-1.055 0.858-1.913 1.914-1.913h9.286v28.267z"></path>
<path d="M28.267 30.933h-24.533c-0.295 0-0.533 0.239-0.533 0.533s0.239 0.533 0.533 0.533h24.533c0.295 0 0.533-0.239 0.533-0.533s-0.239-0.533-0.533-0.533z"></path>
<path d="M26.133 2.667h-8c-0.295 0-0.533 0.239-0.533 0.533s0.238 0.533 0.533 0.533h8c0.295 0 0.533-0.239 0.533-0.533s-0.239-0.533-0.533-0.533z"></path>
<path d="M26.133 5.333h-8c-0.295 0-0.533 0.239-0.533 0.533s0.238 0.533 0.533 0.533h8c0.295 0 0.533-0.239 0.533-0.533s-0.239-0.533-0.533-0.533z"></path>
<path d="M26.133 8h-8c-0.295 0-0.533 0.239-0.533 0.533s0.238 0.533 0.533 0.533h8c0.295 0 0.533-0.239 0.533-0.533s-0.239-0.533-0.533-0.533z"></path>
<path d="M26.133 21.333h-8c-0.295 0-0.533 0.239-0.533 0.533s0.238 0.533 0.533 0.533h8c0.295 0 0.533-0.239 0.533-0.533s-0.239-0.533-0.533-0.533z"></path>
<path d="M22.4 18.133h-4.267c-0.295 0-0.533 0.239-0.533 0.533s0.239 0.533 0.533 0.533h4.267c0.295 0 0.533-0.239 0.533-0.533s-0.239-0.533-0.533-0.533z"></path>
<path d="M26.133 10.667h-8c-0.295 0-0.533 0.239-0.533 0.533s0.238 0.533 0.533 0.533h8c0.295 0 0.533-0.239 0.533-0.533s-0.239-0.533-0.533-0.533z"></path>
<path d="M26.133 22.933h-8c-0.295 0-0.533 0.239-0.533 0.533s0.238 0.533 0.533 0.533h8c0.295 0 0.533-0.239 0.533-0.533s-0.239-0.533-0.533-0.533z"></path>
<path d="M26.133 12.267h-8c-0.295 0-0.533 0.239-0.533 0.533s0.238 0.533 0.533 0.533h8c0.295 0 0.533-0.239 0.533-0.533s-0.239-0.533-0.533-0.533z"></path>
<path d="M26.133 13.867h-8c-0.295 0-0.533 0.239-0.533 0.533s0.238 0.533 0.533 0.533h8c0.295 0 0.533-0.239 0.533-0.533s-0.239-0.533-0.533-0.533z"></path>
<path d="M7.467 8.533c-0.295 0-0.533 0.239-0.533 0.533v14.933c0 0.295 0.239 0.533 0.533 0.533s0.533-0.239 0.533-0.533v-14.933c0-0.295-0.239-0.533-0.533-0.533z"></path>
<path d="M12.8 8.533c-0.295 0-0.533 0.239-0.533 0.533v14.933c0 0.295 0.239 0.533 0.533 0.533s0.533-0.239 0.533-0.533v-14.933c0-0.295-0.239-0.533-0.533-0.533z"></path>
<path d="M9.067 8.533c-0.295 0-0.533 0.239-0.533 0.533v2.667c0 0.588-0.479 1.067-1.067 1.067s-1.067-0.478-1.067-1.067v-2.667c0-0.295-0.239-0.533-0.533-0.533s-0.533 0.239-0.533 0.533v2.667c0 1.176 0.957 2.133 2.133 2.133s2.133-0.957 2.133-2.133v-2.667c0-0.295-0.239-0.533-0.533-0.533z"></path>
<path d="M12.8 8.533c-1.177 0-2.133 0.957-2.133 2.133v6.4c0 0.295 0.239 0.533 0.533 0.533h1.6c0.295 0 0.533-0.239 0.533-0.533v-8c0-0.295-0.239-0.533-0.533-0.533zM12.267 16.533h-0.533v-5.867c0-0.394 0.215-0.739 0.533-0.923v6.79z"></path>
</symbol>
<symbol id="icon-pizza" viewBox="0 0 32 32">
<title>Pizza</title>
<path d="M31.998 14.79c-0.576-7.855-6.933-14.213-14.788-14.789-0.16-0.011-0.315 0.044-0.431 0.152s-0.183 0.26-0.183 0.419v14.26c0 0.316 0.256 0.572 0.572 0.572h14.26c0.159 0 0.311-0.066 0.419-0.183s0.163-0.273 0.151-0.432zM17.74 14.26v-13.059c6.805 0.787 12.272 6.254 13.059 13.059h-13.059z"></path>
<path d="M29.327 14.782c-0.572-6.444-5.664-11.536-12.108-12.108-0.163-0.011-0.319 0.040-0.437 0.148s-0.186 0.262-0.186 0.422v11.589c0 0.316 0.256 0.572 0.572 0.572h11.589c0.16 0 0.314-0.067 0.422-0.186s0.162-0.277 0.148-0.437zM17.74 14.26v-10.375c5.388 0.755 9.621 4.988 10.376 10.375h-10.376z"></path>
<path d="M29.186 16.549h-13.734v-13.734c0-0.316-0.256-0.572-0.572-0.572-8.205 0-14.879 6.675-14.879 14.879s6.674 14.879 14.879 14.879 14.879-6.675 14.879-14.879c0-0.316-0.256-0.572-0.572-0.572zM14.879 30.855c-7.573 0-13.734-6.161-13.734-13.734 0-7.381 5.853-13.421 13.162-13.723v13.723c0 0.316 0.256 0.572 0.572 0.572h13.723c-0.301 7.309-6.341 13.162-13.723 13.162z"></path>
<path d="M26.324 16.549h-10.873v-10.873c0-0.316-0.256-0.572-0.572-0.572-6.626 0-12.018 5.391-12.018 12.018s5.391 12.018 12.018 12.018c6.626 0 12.018-5.391 12.018-12.017 0-0.316-0.256-0.572-0.572-0.572zM14.879 27.994c-5.995 0-10.873-4.878-10.873-10.873 0-5.803 4.57-10.559 10.301-10.858v10.858c0 0.316 0.256 0.572 0.572 0.572h10.858c-0.298 5.73-5.055 10.301-10.858 10.301z"></path>
<path d="M11.129 8.598c-0.283-0.141-0.627-0.027-0.768 0.256-0.148 0.295-0.621 1.153-1.037 1.568-0.223 0.223-0.223 0.586 0 0.809 0.112 0.112 0.258 0.168 0.405 0.168s0.293-0.056 0.405-0.168c0.631-0.631 1.227-1.815 1.252-1.865 0.141-0.283 0.027-0.627-0.256-0.768z"></path>
<path d="M22.776 7.622l-1.717-2.289c-0.19-0.253-0.548-0.305-0.801-0.114-0.253 0.19-0.305 0.548-0.115 0.801l1.717 2.289c0.112 0.15 0.284 0.229 0.458 0.229 0.12 0 0.24-0.037 0.343-0.115 0.253-0.19 0.305-0.548 0.115-0.801z"></path>
<path d="M26.324 9.682c-0.316 0-0.572 0.256-0.572 0.572v1.145c0 0.316 0.256 0.572 0.572 0.572s0.572-0.256 0.572-0.572v-1.145c0-0.316-0.256-0.572-0.572-0.572z"></path>
<path d="M22.891 18.266h-1.145c-0.316 0-0.572 0.256-0.572 0.572s0.256 0.572 0.572 0.572h1.145c0.316 0 0.572-0.256 0.572-0.572s-0.256-0.572-0.572-0.572z"></path>
<path d="M20.602 8.537c-1.578 0-2.861 1.284-2.861 2.861s1.284 2.861 2.861 2.861c1.578 0 2.861-1.284 2.861-2.861s-1.284-2.861-2.861-2.861zM20.602 13.115c-0.947 0-1.717-0.77-1.717-1.717s0.77-1.717 1.717-1.717c0.947 0 1.717 0.77 1.717 1.717s-0.77 1.717-1.717 1.717z"></path>
<path d="M20.602 19.983c-1.262 0-2.289 1.027-2.289 2.289s1.027 2.289 2.289 2.289c1.263 0 2.289-1.027 2.289-2.289s-1.027-2.289-2.289-2.289zM20.602 23.416c-0.631 0-1.145-0.513-1.145-1.145s0.514-1.145 1.145-1.145c0.631 0 1.145 0.513 1.145 1.145s-0.514 1.145-1.145 1.145z"></path>
<path d="M12.018 19.41c-1.262 0-2.289 1.027-2.289 2.289s1.027 2.289 2.289 2.289c1.263 0 2.289-1.027 2.289-2.289s-1.027-2.289-2.289-2.289zM12.018 22.844c-0.631 0-1.145-0.513-1.145-1.145s0.514-1.145 1.145-1.145c0.631 0 1.145 0.513 1.145 1.145s-0.514 1.145-1.145 1.145z"></path>
<path d="M7.44 13.115c-1.893 0-3.434 1.54-3.434 3.434s1.54 3.434 3.434 3.434c1.893 0 3.434-1.54 3.434-3.434s-1.54-3.434-3.434-3.434zM7.44 18.838c-1.262 0-2.289-1.027-2.289-2.289s1.027-2.289 2.289-2.289c1.263 0 2.289 1.027 2.289 2.289s-1.027 2.289-2.289 2.289z"></path>
<path d="M17.424 18.898c-0.283-0.142-0.627-0.027-0.768 0.256l-0.572 1.145c-0.141 0.283-0.027 0.627 0.256 0.768 0.082 0.041 0.169 0.060 0.255 0.060 0.21 0 0.412-0.116 0.512-0.316l0.572-1.145c0.141-0.283 0.027-0.627-0.256-0.768z"></path>
<path d="M17.486 24.085l-1.717-1.145c-0.264-0.176-0.619-0.105-0.794 0.159s-0.105 0.618 0.159 0.794l1.717 1.145c0.098 0.065 0.208 0.096 0.317 0.096 0.185 0 0.366-0.089 0.477-0.255 0.175-0.263 0.105-0.618-0.159-0.794z"></path>
<path d="M15.391 24.877c-0.142-0.283-0.485-0.398-0.768-0.256l-1.145 0.572c-0.283 0.141-0.397 0.485-0.256 0.768 0.101 0.201 0.302 0.316 0.512 0.316 0.086 0 0.173-0.019 0.255-0.060l1.145-0.572c0.283-0.141 0.397-0.485 0.256-0.768z"></path>
<path d="M13.343 15.434c-0.302-0.1-0.624 0.062-0.724 0.362l-0.572 1.717c-0.1 0.3 0.062 0.624 0.362 0.724 0.060 0.020 0.121 0.030 0.181 0.030 0.24 0 0.463-0.152 0.543-0.391l0.572-1.717c0.1-0.3-0.062-0.624-0.362-0.724z"></path>
<path d="M13.567 12.139c-0.223-0.223-0.586-0.223-0.809 0l-1.145 1.145c-0.223 0.223-0.223 0.586 0 0.809 0.112 0.112 0.258 0.168 0.405 0.168s0.293-0.056 0.405-0.168l1.145-1.145c0.223-0.223 0.223-0.586 0-0.809z"></path>
<path d="M12.59 9.11c-0.316 0-0.572 0.256-0.572 0.572v0.572c0 0.316 0.256 0.572 0.572 0.572s0.572-0.256 0.572-0.572v-0.572c0-0.316-0.256-0.572-0.572-0.572z"></path>
<path d="M8.989 22.439l-0.572-0.572c-0.223-0.223-0.586-0.223-0.809 0s-0.223 0.586 0 0.809l0.572 0.572c0.112 0.112 0.258 0.168 0.405 0.168s0.293-0.056 0.405-0.168c0.224-0.223 0.224-0.586 0-0.809z"></path>
</symbol>
<symbol id="icon-champagne" viewBox="0 0 32 32">
<title>Champagne</title>
<path d="M7.8 27.915c-2.689 0-5.583 0.635-5.583 2.030s2.894 2.030 5.583 2.030 5.583-0.635 5.583-2.030-2.894-2.030-5.583-2.030zM7.8 30.96c-2.969 0-4.491-0.741-4.569-1.007 0.078-0.282 1.6-1.023 4.569-1.023s4.491 0.741 4.569 1.007c-0.078 0.282-1.6 1.023-4.569 1.023z"></path>
<path d="M7.8 20.897c-0.28 0-0.508 0.227-0.508 0.508v8.54c0 0.28 0.227 0.508 0.508 0.508s0.508-0.227 0.508-0.508v-8.54c-0-0.28-0.227-0.508-0.508-0.508z"></path>
<path d="M2.217 5.583c-0.28 0-0.507 0.227-0.507 0.508v6.448c0 0.28 0.227 0.508 0.508 0.508s0.508-0.227 0.508-0.508v-6.448c-0-0.28-0.227-0.508-0.508-0.508z"></path>
<path d="M13.383 5.583c-0.28 0-0.508 0.227-0.508 0.508v6.486c0 0.28 0.227 0.508 0.508 0.508s0.508-0.227 0.508-0.508v-6.486c0-0.28-0.227-0.508-0.508-0.508z"></path>
<path d="M12.876 12.069v4.178c0 2.516-2.050 4.563-4.569 4.563h-1.013c-2.519 0-4.569-2.050-4.569-4.57v-4.208h-1.015v4.208c0 3.080 2.505 5.585 5.584 5.585h1.013c3.079 0 5.584-2.502 5.584-5.578v-4.178h-1.015z"></path>
<path d="M7.8 3.553c-3.027 0-6.090 0.872-6.090 2.538s3.064 2.538 6.090 2.538c3.026 0 6.090-0.872 6.090-2.538s-3.064-2.538-6.090-2.538zM7.8 7.613c-3.051 0-5.075-0.916-5.075-1.523s2.024-1.523 5.075-1.523 5.075 0.916 5.075 1.523c-0 0.606-2.024 1.523-5.075 1.523z"></path>
<path d="M7.8 10.151c-3.026 0-6.090 0.872-6.090 2.538s3.064 2.538 6.090 2.538c3.026 0 6.090-0.872 6.090-2.538s-3.064-2.538-6.090-2.538zM7.8 14.211c-3.051 0-5.075-0.916-5.075-1.523s2.024-1.523 5.075-1.523 5.075 0.916 5.075 1.523c-0 0.606-2.024 1.523-5.075 1.523z"></path>
<path d="M30.28 29.030c-0.199-1.381-3.153-1.599-5.814-1.218-1.39 0.199-2.679 0.551-3.631 0.992-1.162 0.538-1.703 1.147-1.608 1.809s0.785 1.095 2.051 1.285c0.452 0.068 0.962 0.102 1.507 0.102 0.706 0 1.473-0.057 2.256-0.169 2.662-0.381 5.436-1.42 5.239-2.801zM24.898 30.827c-2.94 0.421-4.55-0.096-4.666-0.35 0.037-0.29 1.438-1.239 4.378-1.66 0.798-0.114 1.498-0.159 2.097-0.159 1.607 0 2.485 0.325 2.569 0.509-0.037 0.29-1.438 1.239-4.378 1.66z"></path>
<path d="M25.256 29.75l-1.205-8.417c-0.040-0.278-0.298-0.471-0.574-0.431-0.278 0.040-0.47 0.297-0.431 0.574l1.205 8.417c0.036 0.253 0.253 0.436 0.502 0.436 0.024 0 0.048-0.002 0.072-0.005 0.278-0.040 0.47-0.297 0.431-0.574z"></path>
<path d="M17.262 13.311l-0.914-6.382c-0.040-0.278-0.296-0.472-0.574-0.431-0.278 0.040-0.47 0.297-0.431 0.574l0.914 6.382c0.036 0.253 0.253 0.436 0.502 0.436 0.024 0 0.048-0.002 0.072-0.005 0.278-0.040 0.47-0.297 0.431-0.574z"></path>
<path d="M28.32 11.765l-0.919-6.42c-0.040-0.278-0.297-0.471-0.574-0.431s-0.47 0.297-0.431 0.574l0.919 6.42c0.036 0.253 0.253 0.436 0.502 0.436 0.024 0 0.048-0.002 0.072-0.005 0.278-0.040 0.47-0.297 0.431-0.574z"></path>
<path d="M28.84 15.398l-0.592-4.135-1.005 0.144 0.592 4.135c0.173 1.206-0.135 2.408-0.867 3.384s-1.801 1.608-3.009 1.781l-1.003 0.144c-1.209 0.173-2.411-0.135-3.388-0.866s-1.609-1.801-1.782-3.010l-0.597-4.166-1.005 0.144 0.597 4.166c0.212 1.477 0.985 2.784 2.179 3.678 0.976 0.732 2.138 1.116 3.337 1.116 0.267 0 0.535-0.019 0.804-0.057l1.003-0.144c1.477-0.211 2.782-0.984 3.677-2.177s1.271-2.661 1.060-4.136z"></path>
<path d="M27.401 5.345c-0.236-1.649-3.393-2.078-6.389-1.648-1.534 0.22-2.951 0.647-3.991 1.203-1.527 0.817-1.756 1.632-1.678 2.172s0.525 1.259 2.22 1.614c0.607 0.127 1.303 0.191 2.050 0.191 0.675 0 1.391-0.052 2.119-0.156 1.534-0.22 2.951-0.647 3.991-1.203 1.527-0.817 1.756-1.632 1.678-2.172zM25.243 6.622c-0.938 0.502-2.237 0.89-3.656 1.094s-2.775 0.195-3.816-0.023c-0.936-0.196-1.389-0.525-1.424-0.764s0.308-0.682 1.152-1.133c0.938-0.502 2.237-0.89 3.656-1.093 0.704-0.101 1.36-0.145 1.953-0.145 1.951 0 3.221 0.472 3.287 0.932 0.035 0.239-0.308 0.682-1.152 1.133z"></path>
<path d="M28.336 11.876c-0.077-0.54-0.525-1.259-2.221-1.614-1.155-0.242-2.636-0.254-4.168-0.034-1.534 0.22-2.951 0.647-3.991 1.203-1.527 0.817-1.756 1.632-1.678 2.173 0.18 1.256 2.055 1.804 4.263 1.804 0.69 0 1.413-0.054 2.126-0.156 1.534-0.22 2.951-0.647 3.991-1.203 1.527-0.817 1.756-1.632 1.678-2.172zM26.179 13.154c-0.938 0.502-2.237 0.89-3.656 1.093-3.020 0.432-5.154-0.188-5.24-0.788-0.035-0.239 0.308-0.682 1.152-1.133 0.938-0.502 2.237-0.89 3.656-1.093 0.684-0.098 1.352-0.147 1.978-0.147 0.674 0 1.299 0.057 1.839 0.17 0.936 0.196 1.389 0.525 1.424 0.764s-0.308 0.682-1.152 1.133z"></path>
<path d="M14.906 0c-0.28 0-0.508 0.227-0.508 0.508v2.538c0 0.28 0.227 0.508 0.508 0.508s0.508-0.227 0.508-0.508v-2.538c0-0.28-0.227-0.508-0.508-0.508z"></path>
<path d="M13.688 2.639l-2.030-1.523c-0.224-0.168-0.542-0.122-0.71 0.101s-0.123 0.543 0.102 0.711l2.030 1.523c0.091 0.069 0.198 0.102 0.304 0.102 0.155 0 0.307-0.070 0.406-0.203 0.169-0.224 0.123-0.543-0.102-0.711z"></path>
<path d="M18.865 1.218c-0.168-0.224-0.487-0.27-0.71-0.101l-2.030 1.523c-0.225 0.168-0.27 0.486-0.102 0.711 0.1 0.133 0.252 0.203 0.406 0.203 0.106 0 0.213-0.033 0.304-0.102l2.030-1.523c0.225-0.168 0.27-0.486 0.102-0.711z"></path>
</symbol>
<symbol id="icon-coffee-cup" viewBox="0 0 32 32">
<title>Coffee cup</title>
<path d="M28.889 28.746h-26.576c-0.3 0-0.542 0.243-0.542 0.542v2.17c0 0.3 0.243 0.542 0.542 0.542h26.576c0.3 0 0.542-0.243 0.542-0.542v-2.17c-0-0.3-0.243-0.542-0.542-0.542zM28.346 30.915h-25.492v-1.085h25.492v1.085z"></path>
<path d="M25.092 18.983c-0.3 0-0.542 0.243-0.542 0.542v1.356c0 4.336-3.528 7.864-7.864 7.864h-1.627c-4.336 0-7.864-3.528-7.864-7.864v-7.864h11.45c0.3 0 0.542-0.243 0.542-0.542s-0.243-0.542-0.542-0.542h-11.993c-0.3 0-0.542 0.243-0.542 0.542v8.407c0 4.935 4.015 8.949 8.949 8.949h1.627c4.934 0 8.949-4.014 8.949-8.949v-1.356c0-0.299-0.243-0.542-0.542-0.542z"></path>
<path d="M6.651 11.932h-5.424c-0.3 0-0.542 0.243-0.542 0.542v1.627c0 3.29 2.676 5.966 5.966 5.966 0.3 0 0.542-0.243 0.542-0.542v-7.051c0-0.299-0.242-0.542-0.542-0.542zM6.109 18.953c-2.438-0.271-4.339-2.343-4.339-4.851v-1.085h4.339v5.936z"></path>
<path d="M13.041 5.085c-0.458-0.572-0.628-1.128-0.52-1.7 0.257-1.358 1.976-2.362 1.993-2.372 0.26-0.149 0.35-0.48 0.201-0.74s-0.481-0.349-0.739-0.201c-0.088 0.050-2.166 1.257-2.519 3.107-0.169 0.891 0.079 1.76 0.737 2.584 1.954 2.442 1.542 4.336 1.525 4.411-0.073 0.291 0.104 0.585 0.395 0.658 0.044 0.011 0.089 0.016 0.132 0.016 0.243 0 0.464-0.164 0.525-0.411 0.025-0.099 0.581-2.464-1.729-5.352z"></path>
<path d="M17.38 5.085c-0.458-0.572-0.628-1.128-0.52-1.7 0.257-1.358 1.976-2.362 1.993-2.372 0.26-0.149 0.35-0.48 0.201-0.74s-0.481-0.349-0.739-0.201c-0.088 0.050-2.166 1.257-2.519 3.107-0.169 0.891 0.079 1.76 0.737 2.584 1.954 2.442 1.542 4.336 1.525 4.411-0.073 0.291 0.104 0.585 0.395 0.658 0.044 0.011 0.088 0.016 0.132 0.016 0.243 0 0.464-0.164 0.525-0.411 0.025-0.099 0.581-2.464-1.729-5.352z"></path>
<path d="M15.872 27.119c-3.888 0-7.051-3.163-7.051-7.051 0-0.3-0.243-0.542-0.542-0.542s-0.542 0.243-0.542 0.542c0 4.486 3.649 8.136 8.136 8.136 0.3 0 0.542-0.243 0.542-0.542s-0.242-0.542-0.542-0.542z"></path>
<path d="M29.217 6.353c-1.333-0.934-3.076-1.093-4.909-0.446-1.767 0.624-3.417 1.934-4.645 3.687s-1.895 3.751-1.878 5.625c0.018 1.943 0.763 3.527 2.097 4.461 0.794 0.556 1.733 0.838 2.75 0.838 0.691 0 1.418-0.13 2.159-0.392 1.767-0.624 3.417-1.934 4.645-3.687s1.895-3.751 1.878-5.625c-0.018-1.942-0.763-3.527-2.097-4.461zM28.548 15.817c-1.099 1.569-2.561 2.736-4.118 3.286-1.492 0.527-2.887 0.416-3.926-0.311s-1.619-2-1.634-3.583c-0.015-1.65 0.582-3.424 1.682-4.993s2.561-2.736 4.118-3.286c0.621-0.219 1.225-0.328 1.793-0.328 0.798 0 1.526 0.215 2.133 0.64 1.039 0.728 1.619 2 1.634 3.583 0.015 1.651-0.582 3.424-1.682 4.993z"></path>
<path d="M29.89 7.304c-0.16-0.253-0.494-0.329-0.748-0.17-0.325 0.205-7.97 5.098-9.002 12.314-0.042 0.297 0.164 0.571 0.46 0.614 0.026 0.004 0.052 0.006 0.077 0.006 0.266 0 0.498-0.195 0.537-0.465 0.96-6.715 8.431-11.503 8.506-11.55 0.253-0.16 0.329-0.495 0.169-0.748z"></path>
</symbol>
<symbol id="icon-croissant" viewBox="0 0 32 32">
<title>Croissant</title>
<path d="M9.577 20.47c-0.069-0.28-0.351-0.454-0.633-0.382-5.685 1.399-7.648 1.227-7.884 0.953-0.162-0.451 1.299-2.709 5.906-6.848 0.215-0.193 0.232-0.524 0.039-0.738s-0.523-0.232-0.738-0.040c-6.939 6.234-6.36 7.591-6.169 8.036 0.126 0.294 0.348 0.815 2.1 0.815 1.298 0 3.436-0.287 6.997-1.163 0.28-0.069 0.452-0.352 0.383-0.633z"></path>
<path d="M25.871 13.538c-0.214-0.194-0.545-0.177-0.738 0.038s-0.177 0.545 0.038 0.738c4.503 4.068 5.929 6.285 5.778 6.713-0.245 0.29-2.225 0.462-7.962-0.957-0.28-0.069-0.564 0.102-0.633 0.382s0.102 0.564 0.382 0.633c3.604 0.891 5.762 1.181 7.069 1.181 1.751 0 1.974-0.521 2.099-0.816 0.188-0.44 0.759-1.778-6.031-7.912z"></path>
<path d="M12.921 20.705h-2.455c-0.357 0-0.796-0.304-0.921-0.637l-2.405-6.413c-0.046-0.123-0.042-0.249 0.011-0.355s0.153-0.185 0.279-0.221l4.682-1.338c0.277-0.080 0.438-0.369 0.359-0.646s-0.369-0.436-0.646-0.359l-4.682 1.338c-0.41 0.117-0.739 0.385-0.925 0.756s-0.207 0.794-0.057 1.194l2.405 6.413c0.277 0.737 1.111 1.315 1.9 1.315h2.455c0.289 0 0.523-0.234 0.523-0.523s-0.234-0.523-0.523-0.523z"></path>
<path d="M25.695 12.829c-0.186-0.37-0.515-0.638-0.925-0.756l-4.682-1.338c-0.278-0.076-0.567 0.082-0.646 0.359s0.081 0.567 0.359 0.646l4.682 1.338c0.126 0.036 0.225 0.114 0.279 0.221s0.058 0.233 0.012 0.355l-2.404 6.413c-0.125 0.333-0.564 0.637-0.921 0.637h-2.434c-0.289 0-0.523 0.234-0.523 0.523s0.234 0.523 0.523 0.523h2.434c0.789 0 1.623-0.578 1.9-1.315l2.405-6.413c0.15-0.4 0.129-0.824-0.057-1.194z"></path>
<path d="M19.764 9.83c-0.372-0.404-0.888-0.626-1.455-0.626h-4.706c-0.566 0-1.083 0.223-1.455 0.626s-0.551 0.938-0.504 1.504l0.785 9.42c0.094 1.127 1.091 2.043 2.223 2.043h2.608c1.132 0 2.129-0.916 2.223-2.043l0.785-9.42c0.047-0.565-0.132-1.099-0.504-1.504zM19.226 11.247l-0.785 9.42c-0.049 0.588-0.589 1.084-1.181 1.084h-2.608c-0.591 0-1.132-0.497-1.181-1.084l-0.785-9.42c-0.023-0.271 0.060-0.522 0.232-0.709s0.415-0.289 0.685-0.289h4.706c0.27 0 0.514 0.103 0.685 0.289s0.254 0.439 0.232 0.709z"></path>
</symbol>
<symbol id="icon-drink" viewBox="0 0 32 32">
<title>Drink</title>
<path d="M18.581 2.581h-5.161c-0.285 0-0.516 0.231-0.516 0.516v4.349c0 0.285 0.231 0.516 0.516 0.516s0.516-0.231 0.516-0.516v-3.833h4.129v3.847c0 0.285 0.231 0.516 0.516 0.516s0.516-0.231 0.516-0.516v-4.363c0-0.285-0.231-0.516-0.516-0.516z"></path>
<path d="M22.733 9.625c-1.764-1.88-4.155-2.915-6.733-2.915s-4.969 1.035-6.733 2.915c-1.764 1.88-2.645 4.333-2.481 6.905l0.957 14.986c0.017 0.272 0.243 0.483 0.515 0.483h15.484c0.272 0 0.498-0.212 0.515-0.483l0.957-14.986c0.164-2.573-0.717-5.025-2.481-6.905zM24.183 16.465l-0.926 14.503h-14.515l-0.926-14.503c-0.146-2.285 0.637-4.463 2.203-6.133s3.691-2.59 5.98-2.59 4.413 0.92 5.98 2.59c1.566 1.67 2.349 3.848 2.203 6.133z"></path>
<path d="M20.129 0h-8.258c-0.285 0-0.516 0.231-0.516 0.516v2.581c0 0.285 0.231 0.516 0.516 0.516h8.258c0.285 0 0.516-0.231 0.516-0.516v-2.581c0-0.285-0.231-0.516-0.516-0.516zM19.613 2.581h-7.226v-1.548h7.226v1.548z"></path>
<path d="M18.581 12.387h-5.161c-0.285 0-0.516 0.231-0.516 0.516v14.968c0 0.285 0.231 0.516 0.516 0.516h5.161c0.285 0 0.516-0.231 0.516-0.516v-14.968c0-0.285-0.231-0.516-0.516-0.516zM18.064 27.355h-4.129v-13.935h4.129v13.935z"></path>
</symbol>
<symbol id="icon-wine-box" viewBox="0 0 32 32">
<title>Wine box</title>
<path d="M10.667 25.333h10.667c0.882 0 1.6-0.718 1.6-1.6s-0.718-1.6-1.6-1.6h-10.667c-0.882 0-1.6 0.718-1.6 1.6s0.718 1.6 1.6 1.6zM10.667 23.2h10.667c0.294 0 0.533 0.239 0.533 0.533s-0.239 0.533-0.533 0.533h-10.667c-0.294 0-0.533-0.239-0.533-0.533s0.239-0.533 0.533-0.533z"></path>
<path d="M31.467 20h-30.933c-0.295 0-0.533 0.238-0.533 0.533v10.133c0 0.295 0.239 0.533 0.533 0.533h30.933c0.295 0 0.533-0.238 0.533-0.533v-10.133c-0-0.295-0.239-0.533-0.533-0.533zM30.933 30.133h-29.867v-9.067h29.867v9.067z"></path>
<path d="M8 10.764v-6.23c0-0.295-0.239-0.533-0.533-0.533h-2.133c-0.295 0-0.533 0.239-0.533 0.533v6.23c-1.29 0.612-2.133 1.922-2.133 3.37v6.4c0 0.295 0.239 0.533 0.533 0.533h6.4c0.295 0 0.533-0.238 0.533-0.533v-6.4c0-1.447-0.843-2.757-2.133-3.37zM9.067 20h-5.333v-5.867c0-1.125 0.715-2.134 1.778-2.511 0.213-0.076 0.355-0.277 0.355-0.503v-6.053h1.067v6.053c0 0.226 0.142 0.427 0.355 0.503 1.064 0.377 1.778 1.386 1.778 2.511v5.867z"></path>
<path d="M7.467 0.8h-2.133c-0.295 0-0.533 0.239-0.533 0.533v3.2c0 0.295 0.239 0.533 0.533 0.533h2.133c0.295 0 0.533-0.239 0.533-0.533v-3.2c-0-0.295-0.239-0.533-0.533-0.533zM6.933 4h-1.067v-2.133h1.067v2.133z"></path>
<path d="M7.467 14.133h-2.133c-0.295 0-0.533 0.239-0.533 0.533v5.867c0 0.295 0.239 0.533 0.533 0.533h2.133c0.295 0 0.533-0.238 0.533-0.533v-5.867c-0-0.295-0.239-0.533-0.533-0.533zM6.933 20h-1.067v-4.8h1.067v4.8z"></path>
<path d="M17.6 10.764v-6.23c0-0.295-0.239-0.533-0.533-0.533h-2.133c-0.295 0-0.533 0.239-0.533 0.533v6.23c-1.29 0.612-2.133 1.922-2.133 3.37v6.4c0 0.295 0.239 0.533 0.533 0.533h6.4c0.295 0 0.533-0.238 0.533-0.533v-6.4c0-1.447-0.843-2.757-2.133-3.37zM18.667 20h-5.333v-5.867c0-1.125 0.715-2.134 1.778-2.511 0.213-0.076 0.355-0.277 0.355-0.503v-6.053h1.067v6.053c0 0.226 0.142 0.427 0.355 0.503 1.064 0.377 1.778 1.386 1.778 2.511v5.867z"></path>
<path d="M17.067 0.8h-2.133c-0.295 0-0.533 0.239-0.533 0.533v3.2c0 0.295 0.239 0.533 0.533 0.533h2.133c0.295 0 0.533-0.239 0.533-0.533v-3.2c0-0.295-0.239-0.533-0.533-0.533zM16.533 4h-1.067v-2.133h1.067v2.133z"></path>
<path d="M17.067 14.133h-2.133c-0.295 0-0.533 0.239-0.533 0.533v5.867c0 0.295 0.239 0.533 0.533 0.533h2.133c0.295 0 0.533-0.238 0.533-0.533v-5.867c0-0.295-0.239-0.533-0.533-0.533zM16.533 20h-1.067v-4.8h1.067v4.8z"></path>
<path d="M27.2 10.764v-6.23c0-0.295-0.239-0.533-0.533-0.533h-2.133c-0.295 0-0.533 0.239-0.533 0.533v6.23c-1.29 0.612-2.133 1.922-2.133 3.37v6.4c0 0.295 0.238 0.533 0.533 0.533h6.4c0.295 0 0.533-0.238 0.533-0.533v-6.4c0-1.447-0.843-2.757-2.133-3.37zM28.267 20h-5.333v-5.867c0-1.125 0.715-2.134 1.778-2.511 0.213-0.076 0.355-0.277 0.355-0.503v-6.053h1.067v6.053c0 0.226 0.142 0.427 0.355 0.503 1.064 0.377 1.778 1.386 1.778 2.511v5.867z"></path>
<path d="M26.667 0.8h-2.133c-0.295 0-0.533 0.239-0.533 0.533v3.2c0 0.295 0.238 0.533 0.533 0.533h2.133c0.295 0 0.533-0.239 0.533-0.533v-3.2c0-0.295-0.239-0.533-0.533-0.533zM26.133 4h-1.067v-2.133h1.067v2.133z"></path>
<path d="M26.667 14.133h-2.133c-0.295 0-0.533 0.239-0.533 0.533v5.867c0 0.295 0.238 0.533 0.533 0.533h2.133c0.295 0 0.533-0.238 0.533-0.533v-5.867c0-0.295-0.239-0.533-0.533-0.533zM26.133 20h-1.067v-4.8h1.067v4.8z"></path>
<path d="M19.2 22.133h-6.4c-0.295 0-0.533 0.239-0.533 0.533v2.133c0 0.295 0.239 0.533 0.533 0.533h6.4c0.295 0 0.533-0.238 0.533-0.533v-2.133c0-0.295-0.239-0.533-0.533-0.533zM18.667 24.267h-5.333v-1.067h5.333v1.067z"></path>
<path d="M17.067 22.133h-2.133c-0.295 0-0.533 0.239-0.533 0.533v2.133c0 0.295 0.239 0.533 0.533 0.533h2.133c0.295 0 0.533-0.238 0.533-0.533v-2.133c0-0.295-0.239-0.533-0.533-0.533zM16.533 24.267h-1.067v-1.067h1.067v1.067z"></path>
</symbol>
<symbol id="icon-grill" viewBox="0 0 32 32">
<title>Grill</title>
<path d="M9.655 22.33c-0.202-0.202-0.528-0.202-0.73 0l-4.674 4.674c-0.202 0.202-0.202 0.528 0 0.73 0.101 0.101 0.233 0.151 0.365 0.151s0.264-0.050 0.365-0.151l4.674-4.674c0.202-0.201 0.202-0.528 0-0.73z"></path>
<path d="M27.748 27.004l-4.674-4.674c-0.202-0.202-0.528-0.202-0.73 0s-0.202 0.528 0 0.73l4.674 4.674c0.101 0.101 0.233 0.151 0.365 0.151s0.264-0.050 0.365-0.151c0.202-0.201 0.202-0.528 0-0.73z"></path>
<path d="M16 25.276c-0.285 0-0.516 0.231-0.516 0.516v1.548c0 0.285 0.231 0.516 0.516 0.516s0.516-0.231 0.516-0.516v-1.548c-0-0.285-0.231-0.516-0.516-0.516z"></path>
<path d="M31.484 9.792c-0.285 0-0.516 0.231-0.516 0.516 0 8.253-6.715 14.968-14.968 14.968s-14.968-6.714-14.968-14.968c0-0.285-0.231-0.516-0.516-0.516s-0.516 0.231-0.516 0.516c0 8.822 7.177 16 16 16s16-7.178 16-16c-0-0.285-0.231-0.516-0.516-0.516z"></path>
<path d="M16 4.115c-8.972 0-16 2.607-16 5.935s7.028 5.936 16 5.936 16-2.607 16-5.936-7.028-5.935-16-5.935zM16 14.954c-8.953 0-14.968-2.535-14.968-4.903s6.015-4.903 14.968-4.903 14.968 2.535 14.968 4.903-6.015 4.903-14.968 4.903z"></path>
<path d="M14.944 6.541c-0.085-0.272-0.376-0.424-0.646-0.339l-8.258 2.581c-0.272 0.085-0.424 0.375-0.339 0.647 0.069 0.221 0.273 0.362 0.492 0.362 0.051 0 0.103-0.008 0.154-0.024l8.258-2.581c0.272-0.085 0.424-0.375 0.339-0.647z"></path>
<path d="M25.783 10.154c-0.085-0.272-0.376-0.423-0.646-0.339l-8.258 2.581c-0.272 0.085-0.424 0.375-0.339 0.647 0.069 0.221 0.273 0.362 0.492 0.362 0.051 0 0.103-0.008 0.154-0.024l8.258-2.581c0.272-0.085 0.424-0.375 0.339-0.647z"></path>
<path d="M20.62 7.054c-0.087-0.271-0.375-0.421-0.649-0.334l-12.903 4.129c-0.272 0.087-0.421 0.377-0.334 0.649 0.070 0.219 0.273 0.359 0.492 0.359 0.052 0 0.105-0.008 0.157-0.025l12.903-4.129c0.272-0.087 0.421-0.378 0.334-0.649z"></path>
<path d="M24.749 8.087c-0.087-0.271-0.376-0.422-0.649-0.334l-12.903 4.129c-0.272 0.087-0.421 0.377-0.334 0.649 0.070 0.219 0.273 0.359 0.492 0.359 0.052 0 0.105-0.008 0.157-0.025l12.903-4.129c0.272-0.087 0.421-0.377 0.334-0.649z"></path>
</symbol>
<symbol id="icon-cutlery" viewBox="0 0 32 32">
<title>Cutlery</title>
<path d="M29.353 15.646l-8.394-8.394c-0.195-0.195-0.512-0.195-0.707 0s-0.195 0.512 0 0.707l8.040 8.041-8.146 8.146c-0.195 0.195-0.195 0.512 0 0.707 0.098 0.098 0.226 0.146 0.353 0.146s0.256-0.049 0.353-0.146l8.5-8.5c0.195-0.195 0.195-0.512 0-0.707z"></path>
<path d="M18.604 26.396c-0.195-0.195-0.512-0.195-0.707 0l-1.897 1.897-1.396-1.395c-0.195-0.195-0.512-0.195-0.707 0s-0.195 0.512 0 0.707l1.749 1.749c0.098 0.098 0.226 0.146 0.353 0.146s0.256-0.049 0.353-0.146l2.25-2.25c0.195-0.195 0.195-0.512 0-0.707z"></path>
<path d="M17.743 4.036l-1.39-1.39c-0.195-0.195-0.512-0.195-0.707 0l-13 13c-0.195 0.195-0.195 0.512 0 0.707l8.938 8.938c0.098 0.098 0.226 0.146 0.353 0.146s0.256-0.049 0.353-0.146c0.195-0.195 0.195-0.512 0-0.707l-8.584-8.585 12.293-12.293 1.036 1.036c0.195 0.195 0.512 0.195 0.707 0s0.195-0.512 0-0.707z"></path>
<path d="M25.853 15.646l-4.747-4.747c-0.195-0.195-0.512-0.195-0.707 0s-0.195 0.512 0 0.707l4.393 4.393-4.447 4.448c-0.195 0.195-0.195 0.512 0 0.707 0.098 0.098 0.226 0.146 0.353 0.146s0.256-0.049 0.353-0.146l4.801-4.801c0.195-0.195 0.195-0.512 0-0.707z"></path>
<path d="M18.604 22.897c-0.195-0.195-0.512-0.195-0.707 0l-1.897 1.897-1.398-1.398c-0.195-0.195-0.512-0.195-0.707 0s-0.195 0.512 0 0.707l1.751 1.751c0.098 0.098 0.226 0.146 0.353 0.146s0.256-0.049 0.353-0.146l2.25-2.25c0.195-0.195 0.195-0.512 0-0.707z"></path>
<path d="M17.601 7.394l-1.247-1.248c-0.094-0.094-0.221-0.146-0.353-0.146s-0.26 0.053-0.353 0.146l-9.5 9.5c-0.195 0.195-0.195 0.512 0 0.707l5.262 5.262c0.098 0.098 0.226 0.146 0.353 0.146s0.256-0.049 0.353-0.146c0.195-0.195 0.195-0.512 0-0.707l-4.909-4.909 8.793-8.793 0.894 0.894c0.195 0.195 0.512 0.195 0.707 0s0.195-0.512 0-0.707z"></path>
<path d="M14 10h-2c-0.276 0-0.5 0.224-0.5 0.5v20c0 0.827 0.673 1.5 1.5 1.5s1.5-0.673 1.5-1.5v-20c0-0.276-0.224-0.5-0.5-0.5zM13.5 30.5c0 0.276-0.224 0.5-0.5 0.5s-0.5-0.224-0.5-0.5v-19.5h1v19.5z"></path>
<path d="M20.5 15.5h-2c-0.276 0-0.5 0.224-0.5 0.5v14.5c0 0.827 0.673 1.5 1.5 1.5s1.5-0.673 1.5-1.5v-14.5c0-0.276-0.224-0.5-0.5-0.5zM20 30.5c0 0.276-0.224 0.5-0.5 0.5s-0.5-0.224-0.5-0.5v-14h1v14z"></path>
<path d="M15 0.5v7.5c0 1.103-0.897 2-2 2s-2-0.897-2-2v-7.5h-1v7.5c0 1.654 1.346 3 3 3s3-1.346 3-3v-7.5h-1z"></path>
<path d="M12.5 0.5h1v10h-1v-10z"></path>
<path d="M20.5 0c-1.676 0-3.101 1.253-3.319 2.954l-0.68 13.020c-0.007 0.137 0.042 0.27 0.137 0.37s0.225 0.156 0.362 0.156h3.5c0.276 0 0.5-0.224 0.5-0.5v-15.5c0-0.276-0.224-0.5-0.5-0.5zM20 15.5h-2.473l0.649-12.457c0.128-0.995 0.876-1.782 1.824-1.989v14.446z"></path>
</symbol>
<symbol id="icon-dishes" viewBox="0 0 32 32">
<title>Dishes</title>
<path d="M31.008 20.539c-0.188-0.239-0.536-0.28-0.775-0.092s-0.28 0.536-0.092 0.775c0.501 0.635 0.755 1.291 0.755 1.95 0 3.439-6.822 6.345-14.897 6.345s-14.897-2.906-14.897-6.345c0-0.655 0.25-1.307 0.745-1.937 0.188-0.24 0.146-0.587-0.094-0.775-0.238-0.188-0.587-0.145-0.774 0.094-0.65 0.83-0.98 1.711-0.98 2.618 0 4.177 7.028 7.448 16 7.448s16-3.272 16-7.448c0-0.913-0.334-1.8-0.992-2.634z"></path>
<path d="M31.207 15.842c-0.174-0.25-0.518-0.311-0.768-0.137s-0.312 0.518-0.138 0.768c0.395 0.567 0.595 1.15 0.595 1.734 0 3.439-6.822 6.345-14.897 6.345s-14.897-2.906-14.897-6.345c0-0.594 0.207-1.187 0.615-1.763 0.176-0.248 0.117-0.593-0.131-0.769-0.248-0.177-0.593-0.118-0.769 0.131-0.543 0.766-0.818 1.574-0.818 2.401 0 4.177 7.028 7.448 16 7.448s16-3.272 16-7.448c0-0.814-0.267-1.609-0.793-2.365z"></path>
<path d="M31.027 11.184c-0.187-0.241-0.535-0.283-0.774-0.095s-0.283 0.534-0.096 0.774c0.491 0.629 0.739 1.278 0.739 1.93 0 1.973-2.283 3.877-6.106 5.094-0.29 0.093-0.451 0.403-0.359 0.693 0.075 0.234 0.292 0.384 0.526 0.384 0.056 0 0.112-0.008 0.168-0.026 4.369-1.391 6.875-3.631 6.875-6.146 0-0.904-0.327-1.781-0.973-2.609z"></path>
<path d="M22.457 20.066c-0.056-0.3-0.343-0.502-0.643-0.442-1.844 0.342-3.8 0.514-5.814 0.514-8.075 0-14.897-2.906-14.897-6.345 0-0.668 0.261-1.331 0.774-1.974 0.19-0.238 0.151-0.585-0.086-0.775s-0.585-0.151-0.776 0.087c-0.674 0.843-1.015 1.739-1.015 2.663 0 4.177 7.028 7.448 16 7.448 2.081 0 4.105-0.179 6.015-0.533 0.3-0.055 0.498-0.343 0.442-0.643z"></path>
<path d="M22.457 15.1c-0.056-0.3-0.343-0.502-0.643-0.442-1.844 0.342-3.8 0.514-5.814 0.514-1.616 0-3.206-0.113-4.723-0.334-0.302-0.052-0.582 0.164-0.626 0.466s0.165 0.581 0.466 0.626c1.57 0.23 3.213 0.346 4.882 0.346 2.081 0 4.105-0.179 6.015-0.533 0.299-0.055 0.497-0.343 0.442-0.643z"></path>
<path d="M16 1.379c-8.972 0-16 3.272-16 7.448 0 2.698 2.94 5.104 7.864 6.435 0.048 0.014 0.097 0.019 0.144 0.019 0.243 0 0.466-0.162 0.532-0.408 0.080-0.294-0.094-0.597-0.388-0.676-4.348-1.176-7.049-3.234-7.049-5.371 0-3.439 6.822-6.345 14.897-6.345s14.897 2.906 14.897 6.345c0 1.948-2.239 3.838-5.989 5.056-0.29 0.094-0.448 0.405-0.354 0.695s0.403 0.449 0.695 0.354c4.291-1.393 6.752-3.619 6.752-6.106 0-4.177-7.028-7.448-16-7.448z"></path>
<path d="M28.803 6.992c-0.397-0.636-1.645-0.863-4.477-1.162-0.879-0.093-1.599-0.335-2.296-0.568-0.758-0.254-1.473-0.495-2.315-0.528-1.186-0.057-2.149 0.657-2.678 1.154-0.684-0.677-2.070-1.784-3.446-1.325-1.451 0.483-3.169 0.809-5.568 1.057-2.434 0.252-3.436 0.57-3.541 2.738-0.039 0.802 0.509 1.786 3.241 2.063v6.683c0 1.065 0.866 1.931 1.931 1.931s1.931-0.866 1.931-1.931v-6.19c0.741 0.116 1.688 0.235 2.759 0.304v3.127c0 1.065 0.866 1.931 1.931 1.931s1.931-0.866 1.931-1.931v-3.147c1.025-0.075 2.134-0.204 3.31-0.384v9.047c0 1.065 0.866 1.931 1.931 1.931s1.931-0.866 1.931-1.931v-9.766c0.266-0.057 0.505-0.109 0.712-0.154l0.462-0.1c1.4-0.296 2.183-0.74 2.462-1.395 0.282-0.663-0.090-1.259-0.212-1.455zM28 8.015c-0.031 0.072-0.256 0.448-1.675 0.748l-0.469 0.102c-0.312 0.068-0.698 0.152-1.141 0.245-0.256 0.053-0.439 0.278-0.439 0.54v10.213c0 0.456-0.371 0.828-0.828 0.828s-0.828-0.371-0.828-0.828v-9.694c0-0.162-0.071-0.316-0.195-0.421-0.101-0.085-0.227-0.131-0.357-0.131-0.030 0-0.060 0.003-0.090 0.008-1.583 0.262-3.048 0.432-4.355 0.507-0.292 0.016-0.52 0.258-0.52 0.551v3.664c0 0.456-0.371 0.828-0.828 0.828s-0.828-0.371-0.828-0.828v-3.649c0-0.295-0.232-0.538-0.526-0.551-1.584-0.073-2.935-0.272-3.79-0.426-0.161-0.031-0.326 0.014-0.452 0.12s-0.198 0.26-0.198 0.424v6.842c0 0.456-0.371 0.828-0.828 0.828s-0.828-0.371-0.828-0.828v-7.192c0-0.291-0.227-0.532-0.517-0.551-1.908-0.12-2.744-0.564-2.725-0.95 0.060-1.233 0.138-1.444 2.552-1.693 2.482-0.256 4.272-0.598 5.803-1.107 0.943-0.319 2.277 0.965 2.67 1.438 0.107 0.128 0.251 0.178 0.432 0.198 0.167-0.002 0.324-0.080 0.427-0.211 0.010-0.013 0.989-1.26 2.202-1.199 0.684 0.027 1.298 0.233 2.008 0.472 0.718 0.241 1.532 0.514 2.532 0.619 1.074 0.114 3.301 0.348 3.668 0.667 0.123 0.2 0.16 0.331 0.122 0.421z"></path>
</symbol>
<symbol id="icon-dinner" viewBox="0 0 32 32">
<title>Dinner</title>
<path d="M16 9.25c-8.271 0-15 6.729-15 15 0 0.276 0.224 0.5 0.5 0.5h29c0.276 0 0.5-0.224 0.5-0.5-0-8.271-6.729-15-15-15zM2.009 23.75c0.264-7.489 6.439-13.5 13.991-13.5s13.727 6.011 13.991 13.5h-27.982z"></path>
<path d="M30.25 23.75h-28.5c-0.965 0-1.75 0.785-1.75 1.75s0.785 1.75 1.75 1.75h28.5c0.965 0 1.75-0.785 1.75-1.75s-0.785-1.75-1.75-1.75zM30.25 26.25h-28.5c-0.414 0-0.75-0.336-0.75-0.75s0.336-0.75 0.75-0.75h28.5c0.414 0 0.75 0.336 0.75 0.75s-0.336 0.75-0.75 0.75z"></path>
<path d="M14.493 12.333c-0.046-0.272-0.301-0.455-0.576-0.41-3.632 0.609-6.795 2.784-8.68 5.966-0.141 0.238-0.062 0.544 0.175 0.685 0.080 0.047 0.168 0.070 0.254 0.070 0.171 0 0.337-0.088 0.431-0.245 1.734-2.928 4.644-4.929 7.985-5.489 0.272-0.046 0.456-0.303 0.41-0.576z"></path>
<path d="M16 4.75c-1.654 0-3 1.346-3 3 0 0.953 0.438 1.828 1.201 2.401 0.090 0.068 0.195 0.1 0.3 0.1 0.152 0 0.302-0.069 0.4-0.2 0.166-0.221 0.121-0.534-0.1-0.7-0.509-0.382-0.801-0.966-0.801-1.601 0-1.103 0.897-2 2-2s2 0.897 2 2c0 0.56-0.226 1.080-0.636 1.462-0.202 0.189-0.213 0.505-0.024 0.707s0.505 0.213 0.707 0.024c0.605-0.566 0.953-1.365 0.953-2.193 0-1.654-1.346-3-3-3z"></path>
</symbol>
<symbol id="icon-dinner-table-2" viewBox="0 0 32 32">
<title>Dinner table</title>
<path d="M31.5 14h-31c-0.276 0-0.5 0.224-0.5 0.5v2.5c0 0.276 0.224 0.5 0.5 0.5h31c0.276 0 0.5-0.224 0.5-0.5v-2.5c0-0.276-0.224-0.5-0.5-0.5zM31 16.5h-30v-1.5h30v1.5z"></path>
<path d="M29.5 16.5h-27c-0.276 0-0.5 0.224-0.5 0.5v10.5c0 0.152 0.069 0.295 0.188 0.391s0.273 0.131 0.422 0.097l4.741-1.066c1.19-0.268 2.447-0.27 3.637-0.010l3.055 0.67c1.295 0.285 2.612 0.292 3.913 0.024l3.453-0.714c1.2-0.248 2.464-0.228 3.655 0.058l4.32 1.037c0.039 0.009 0.078 0.014 0.117 0.014 0.111 0 0.221-0.037 0.31-0.107 0.12-0.095 0.19-0.239 0.19-0.393v-10.5c0-0.276-0.224-0.5-0.5-0.5zM29 26.866l-3.704-0.889c-1.334-0.32-2.749-0.342-4.090-0.065l-3.453 0.714c-1.162 0.24-2.337 0.234-3.496-0.021l-3.055-0.67c-1.333-0.293-2.741-0.29-4.071 0.011l-4.131 0.929v-9.375h26v9.366z"></path>
<path d="M6 26.5c-0.276 0-0.5 0.224-0.5 0.5v3.5c0 0.276 0.224 0.5 0.5 0.5s0.5-0.224 0.5-0.5v-3.5c0-0.276-0.224-0.5-0.5-0.5z"></path>
<path d="M25.5 26.5c-0.276 0-0.5 0.224-0.5 0.5v3.5c0 0.276 0.224 0.5 0.5 0.5s0.5-0.224 0.5-0.5v-3.5c0-0.276-0.224-0.5-0.5-0.5z"></path>
<path d="M16 4c-1.378 0-2.5 1.122-2.5 2.5v8c0 0.276 0.224 0.5 0.5 0.5h4c0.276 0 0.5-0.224 0.5-0.5v-8c0-1.378-1.122-2.5-2.5-2.5zM17.5 14h-3v-7.5c0-0.827 0.673-1.5 1.5-1.5s1.5 0.673 1.5 1.5v7.5z"></path>
<path d="M17 1h-2c-0.276 0-0.5 0.224-0.5 0.5v3c0 0.276 0.224 0.5 0.5 0.5h2c0.276 0 0.5-0.224 0.5-0.5v-3c-0-0.276-0.224-0.5-0.5-0.5zM16.5 4h-1v-2h1v2z"></path>
<path d="M10.399 4.699c-0.095-0.125-0.243-0.199-0.399-0.199h-5c-0.157 0-0.305 0.074-0.4 0.199s-0.125 0.288-0.082 0.439l1 3.5c0.062 0.215 0.258 0.363 0.481 0.363h3c0.223 0 0.419-0.148 0.481-0.363l1-3.5c0.043-0.151 0.013-0.313-0.081-0.439zM8.623 8h-2.246l-0.714-2.5h3.674l-0.714 2.5z"></path>
<path d="M7.5 8.5c-0.276 0-0.5 0.224-0.5 0.5v4.5c0 0.276 0.224 0.5 0.5 0.5s0.5-0.224 0.5-0.5v-4.5c0-0.276-0.224-0.5-0.5-0.5z"></path>
<path d="M9 13h-3c-0.276 0-0.5 0.224-0.5 0.5s0.224 0.5 0.5 0.5h3c0.276 0 0.5-0.224 0.5-0.5s-0.224-0.5-0.5-0.5z"></path>
<path d="M27.399 4.699c-0.095-0.125-0.243-0.199-0.399-0.199h-5c-0.157 0-0.305 0.074-0.399 0.199s-0.125 0.288-0.082 0.439l1 3.5c0.062 0.215 0.258 0.363 0.481 0.363h3c0.223 0 0.419-0.148 0.481-0.363l1-3.5c0.043-0.151 0.013-0.313-0.081-0.439zM25.623 8h-2.246l-0.714-2.5h3.674l-0.714 2.5z"></path>
<path d="M24.5 8.5c-0.276 0-0.5 0.224-0.5 0.5v4.5c0 0.276 0.224 0.5 0.5 0.5s0.5-0.224 0.5-0.5v-4.5c-0-0.276-0.224-0.5-0.5-0.5z"></path>
<path d="M26 13h-3c-0.276 0-0.5 0.224-0.5 0.5s0.224 0.5 0.5 0.5h3c0.276 0 0.5-0.224 0.5-0.5s-0.224-0.5-0.5-0.5z"></path>
</symbol>
<symbol id="icon-check" viewBox="0 0 32 32">
<title>Check</title>
<path d="M10.182 23.091l-7.636-7.636-2.545 2.545 10.182 10.182 21.818-21.818-2.545-2.545z"></path>
</symbol>
<symbol id="icon-crown" viewBox="0 0 32 32">
<title>Crown</title>
<path d="M29.553 6.992c-1.352 0-2.447 1.096-2.447 2.447 0 0.662 0.265 1.26 0.692 1.701l-5.024 4.87-5.211-8.265c0.827-0.521 1.38-1.436 1.38-2.485 0-1.625-1.318-2.943-2.943-2.943s-2.943 1.318-2.943 2.943c0 1.047 0.551 1.961 1.375 2.483l-5.209 8.267-5.022-4.87c0.427-0.44 0.693-1.039 0.693-1.701 0-1.352-1.096-2.447-2.447-2.447s-2.447 1.096-2.447 2.447c0 1.351 1.096 2.447 2.447 2.447 0.149 0 0.293-0.018 0.434-0.044l2.32 11.272h21.597l2.32-11.272c0.141 0.026 0.285 0.044 0.434 0.044 1.351 0 2.447-1.096 2.447-2.447s-1.096-2.447-2.447-2.447z"></path>
<path d="M26.522 24.447h-21.046l-1.271 5.236h23.588z"></path>
</symbol>
<symbol id="icon-calendar" viewBox="0 0 32 32">
<title>Calendar</title>
<path d="M0 31.413h32v-21.446h-32v21.446zM23.725 13.094h3.311v3.31h-3.311v-3.31zM23.725 18.722h3.311v3.311h-3.311v-3.311zM23.725 24.35h3.311v3.31h-3.311v-3.31zM17.471 13.094h3.31v3.31h-3.31v-3.31zM17.471 18.722h3.31v3.311h-3.31v-3.311zM17.471 24.35h3.31v3.31h-3.31v-3.31zM11.218 13.094h3.311v3.31h-3.311v-3.31zM11.218 18.722h3.311v3.311h-3.311v-3.311zM11.218 24.35h3.311v3.31h-3.311v-3.31zM4.965 13.094h3.31v3.31h-3.31v-3.31zM4.965 18.722h3.31v3.311h-3.31v-3.311zM8.275 24.35v3.31h-3.31v-3.31h3.31z"></path>
<path d="M32 2.463h-5.628v3.752h-1.876v-3.752h-16.992v3.752h-1.876v-3.752h-5.628v5.628h32z"></path>
<path d="M5.628 0.587h1.876v1.876h-1.876v-1.876z"></path>
<path d="M24.496 0.587h1.876v1.876h-1.876v-1.876z"></path>
</symbol>
<symbol id="icon-receipt" viewBox="0 0 32 32">
<title>Receipt</title>
<path d="M18.122 27.21c-0.080-0.39-0.122-0.796-0.122-1.21h-18c0 3.314 2.686 6 6 6h14.764c-1.39-1.214-2.348-2.884-2.642-4.79z"></path>
<path d="M14 8h2v2h-2v-2z"></path>
<path d="M8 0v24h11c0.552 0 1 0.448 1 1v1c0 3.308 2.692 6 6 6s6-2.692 6-6v-26h-24zM18 19c0 0.552-0.448 1-1 1h-4c-0.552 0-1-0.448-1-1v-4c0-0.552 0.448-1 1-1h4c0.552 0 1 0.448 1 1v4zM18 11c0 0.552-0.448 1-1 1h-4c-0.552 0-1-0.448-1-1v-4c0-0.552 0.448-1 1-1h4c0.552 0 1 0.448 1 1v4zM27 18h-6c-0.552 0-1-0.448-1-1s0.448-1 1-1h6c0.552 0 1 0.448 1 1s-0.448 1-1 1zM27 10h-6c-0.552 0-1-0.448-1-1s0.448-1 1-1h6c0.552 0 1 0.448 1 1s-0.448 1-1 1z"></path>
<path d="M14 16h2v2h-2v-2z"></path>
</symbol>
<symbol id="icon-recipe-book" viewBox="0 0 32 32">
<title>Recipe book</title>
<path d="M9.544 0h-5.053c-0.31 0-0.561 0.251-0.561 0.561v28.070c0 0.31 0.251 0.561 0.561 0.561s0.561-0.251 0.561-0.561v-27.509h3.93v25.117c0 0.31 0.251 0.561 0.561 0.561s0.561-0.251 0.561-0.561v-25.678c-0-0.31-0.251-0.561-0.562-0.561z"></path>
<path d="M25.756 0h-16.212c-0.31 0-0.561 0.251-0.561 0.561v25.623c0 0.31 0.251 0.561 0.561 0.561s0.561-0.251 0.561-0.561v-25.062h15.651c0.657 0 1.191 0.534 1.191 1.191v29.125c0 0.31 0.251 0.561 0.561 0.561s0.561-0.251 0.561-0.561v-29.124c-0-1.276-1.038-2.314-2.314-2.314z"></path>
<path d="M27.509 25.825h-20.491c-1.702 0-3.088 1.385-3.088 3.088s1.385 3.088 3.088 3.088h20.491c0.31 0 0.561-0.251 0.561-0.561v-5.053c0-0.31-0.251-0.561-0.561-0.561zM26.947 30.877h-19.93c-1.083 0-1.965-0.882-1.965-1.965s0.882-1.965 1.965-1.965h19.93v3.93z"></path>
<path d="M23.159 9.687c-0.112-0.257-0.396-0.391-0.665-0.317-0.2 0.055-4.899 1.397-6.254 4.917-0.111 0.29 0.033 0.615 0.322 0.726 0.287 0.11 0.614-0.032 0.726-0.322 0.631-1.641 2.216-2.754 3.524-3.426-0.602 1.428-0.482 3.097-0.362 3.948 0.040 0.28 0.28 0.483 0.555 0.483 0.026 0 0.053-0.002 0.080-0.006 0.307-0.044 0.52-0.328 0.477-0.635-0.15-1.058-0.317-3.63 1.374-4.664 0.239-0.146 0.334-0.446 0.222-0.703z"></path>
<path d="M21.778 8.853c-0.062-0.062-1.533-1.54-3.825-1.467-1.771 0.039-3.496 0.964-5.127 2.748-0.202 0.221-0.195 0.563 0.018 0.776 0.127 0.127 0.85 0.766 2.53 0.766 1.378 0 3.402-0.43 6.267-1.929 0.158-0.082 0.268-0.236 0.295-0.412s-0.031-0.356-0.158-0.482zM14.163 10.37c1.249-1.202 2.525-1.827 3.799-1.861 1.009-0.032 1.821 0.327 2.354 0.646-3.465 1.654-5.33 1.479-6.153 1.214z"></path>
<path d="M23.831 15.296c-0.661-0.662-1.508-0.628-2.257-0.599-0.327 0.013-0.676 0.013-1.004 0-0.747-0.027-1.595-0.062-2.257 0.599-0.737 0.737-1.143 1.718-1.143 2.76 0 2.153 1.75 3.904 3.901 3.904s3.901-1.751 3.901-3.904c0-1.043-0.406-2.023-1.143-2.76zM21.072 20.837c-1.532 0-2.779-1.248-2.779-2.781 0-0.743 0.289-1.441 0.814-1.967 0.229-0.229 0.525-0.282 0.968-0.282 0.136 0 0.286 0.005 0.451 0.011 0.355 0.013 0.735 0.013 1.092 0 0.704-0.027 1.119-0.028 1.419 0.271 0.525 0.525 0.814 1.224 0.814 1.967-0 1.533-1.246 2.781-2.779 2.781z"></path>
<path d="M15.739 20.276c-1.564 0-2.836-1.248-2.836-2.781 0-0.741 0.294-1.438 0.827-1.963 0.307-0.303 0.729-0.303 1.454-0.274 0.361 0.013 0.748 0.013 1.108 0 0.723-0.027 1.146-0.028 1.454 0.274 0.145 0.143 0.274 0.301 0.384 0.469l0.941-0.612c-0.153-0.236-0.333-0.457-0.537-0.657-0.669-0.658-1.527-0.624-2.285-0.596-0.332 0.013-0.69 0.013-1.022 0-0.76-0.029-1.617-0.062-2.284 0.596-0.75 0.738-1.163 1.719-1.163 2.764 0 2.153 1.776 3.904 3.958 3.904 1.026 0 1.999-0.385 2.74-1.086l-0.771-0.816c-0.532 0.502-1.231 0.779-1.969 0.779z"></path>
</symbol>
<symbol id="icon-recipe-book-2" viewBox="0 0 32 32">
<title>Recipe book</title>
<path d="M9.544 0h-5.053c-0.31 0-0.561 0.251-0.561 0.561v28.070c0 0.31 0.251 0.561 0.561 0.561s0.561-0.251 0.561-0.561v-27.509h3.93v25.263c0 0.31 0.251 0.561 0.561 0.561s0.561-0.251 0.561-0.561v-25.825c-0-0.31-0.251-0.561-0.562-0.561z"></path>
<path d="M25.756 0h-16.212c-0.31 0-0.561 0.251-0.561 0.561v25.526c0 0.31 0.251 0.561 0.561 0.561s0.561-0.251 0.561-0.561v-24.965h15.651c0.657 0 1.191 0.534 1.191 1.191v29.125c0 0.31 0.251 0.561 0.561 0.561s0.561-0.251 0.561-0.561v-29.124c-0-1.276-1.038-2.314-2.314-2.314z"></path>
<path d="M27.509 25.825h-20.491c-1.702 0-3.088 1.385-3.088 3.088s1.385 3.088 3.088 3.088h20.491c0.31 0 0.561-0.251 0.561-0.561v-5.053c0-0.31-0.251-0.561-0.561-0.561zM26.947 30.877h-19.93c-1.083 0-1.965-0.882-1.965-1.965s0.882-1.965 1.965-1.965h19.93v3.93z"></path>
<path d="M24.537 10.831c-1.214-1.214-3.751-2.534-5.761-1.193-1.5 1-3.022 1.028-3.058 1.028h-0.56c-0.122 0-0.24 0.039-0.337 0.112-0.955 0.716-2.187 1.519-2.47 1.572-1.071 0-1.123 1.623-1.123 4.491 0 2.070 1.45 2.807 2.807 2.807 0.625 0 1.194-0.255 1.795-0.526 0.653-0.294 1.328-0.597 2.135-0.597 0.53 0 1.061 0.059 1.622 0.121 1.164 0.129 2.367 0.263 3.608-0.15 1.114-0.371 1.629-1.902 1.836-2.782 0.417-1.765 0.381-4.009-0.494-4.884zM23.939 15.457c-0.25 1.061-0.681 1.836-1.099 1.975-1.005 0.334-2.036 0.22-3.129 0.099-0.567-0.063-1.153-0.128-1.746-0.128-1.048 0-1.869 0.37-2.595 0.696-0.51 0.229-0.951 0.427-1.335 0.427-0.768 0-1.684-0.292-1.684-1.684 0-0.95 0-2.869 0.211-3.397 0.658-0.158 1.825-0.946 2.783-1.656h0.375c0.076 0 1.875-0.014 3.68-1.217 1.439-0.959 3.428 0.137 4.344 1.053 0.42 0.42 0.593 2.148 0.195 3.832z"></path>
<path d="M21.333 11.228c-1.238 0-2.246 1.007-2.246 2.246s1.007 2.246 2.246 2.246c1.238 0 2.246-1.007 2.246-2.246s-1.007-2.246-2.246-2.246zM21.333 14.596c-0.619 0-1.123-0.504-1.123-1.123s0.504-1.123 1.123-1.123c0.619 0 1.123 0.504 1.123 1.123s-0.504 1.123-1.123 1.123z"></path>
</symbol>
<symbol id="icon-right-arrow" viewBox="0 0 32 32">
<title>Arrow</title>
<path d="M23.224 7.224l-1.425 1.425 6.343 6.343h-28.141v2.016h28.141l-6.343 6.343 1.425 1.425 8.776-8.776z"></path>
</symbol>
<symbol id="icon-vermut" viewBox="0 0 32 32">
<title>Vermut</title>
<path d="M20.725 13.050c-0.236 0.054-0.481 0.083-0.733 0.083-1.162 0-2.184-0.613-2.761-1.532h-9.448l7.296 9.276v9.247h-4.449c-0.518 0-0.938 0.42-0.938 0.938s0.419 0.938 0.938 0.938h10.774c0.518 0 0.938-0.42 0.938-0.938s-0.42-0.938-0.938-0.938h-4.449v-9.247l7.296-9.276h-1.497c-0.452 0.72-1.177 1.252-2.028 1.449z"></path>
<path d="M30.063 3.358c-0.157-0.323-0.484-0.528-0.843-0.528h-4.967l-2.171 4.53c0.682 0.572 1.127 1.417 1.167 2.367h2.476l4.232-5.38c0.222-0.282 0.263-0.666 0.106-0.989z"></path>
<path d="M24.965 1.343c0.224-0.467 0.026-1.027-0.44-1.25s-1.027-0.026-1.251 0.44l-1.1 2.297h2.079z"></path>
<path d="M19.992 6.598c0.124 0 0.246 0.007 0.366 0.021l1.815-3.789h-19.361c-0.359 0-0.687 0.205-0.843 0.528s-0.115 0.707 0.106 0.989l4.232 5.38h10.427c0.073-1.738 1.506-3.128 3.258-3.128z"></path>
<path d="M21.293 10.344c-0.194 0.533-0.704 0.914-1.301 0.914-0.573 0-1.066-0.352-1.277-0.851-0.070-0.166-0.109-0.349-0.109-0.541 0-0.768 0.621-1.393 1.386-1.393 0.186 0 0.364 0.038 0.527 0.104 0.504 0.209 0.859 0.708 0.859 1.288 0 0.168-0.030 0.329-0.084 0.478z"></path>
<path d="M20.519 8.578c-0.163-0.067-0.341-0.104-0.527-0.104-0.764 0-1.386 0.625-1.386 1.393 0 0.192 0.039 0.375 0.109 0.541 0.21 0.499 0.704 0.851 1.277 0.851 0.597 0 1.107-0.381 1.301-0.914 0.054-0.149 0.084-0.31 0.084-0.478 0-0.58-0.355-1.079-0.859-1.288z"></path>
</symbol>
<symbol id="icon-car" viewBox="0 0 32 32">
<title>Car</title>
<path d="M29.439 27.413v-1.896h-4.816v1.896c0.013 3.355 4.816 3.394 4.816 0z"></path>
<path d="M7.355 27.413v-1.896h-4.797v1.896c-0.007 3.394 4.797 3.355 4.797 0z"></path>
<path d="M32 21.566v-6.65c-0.007-2.318-1.854-3.542-2.904-3.677l-2.624-6.772c-0.491-1.297-1.564-2.4-3.592-2.41h-13.784c-2.018 0.010-3.091 1.113-3.592 2.41l-2.624 6.772c-1.040 0.135-2.884 1.36-2.881 3.677v6.65c0 1.090 0.886 1.975 1.975 1.975h28.049c1.090 0 1.975-0.882 1.975-1.975zM5.366 18.665c-0.003 0-0.003 0-0.007 0s-0.003 0-0.007 0c-1.225 0-2.212-1.021-2.209-2.278-0.007-1.261 0.978-2.281 2.196-2.281 0.007 0 0.013 0 0.020 0s0.013 0 0.020 0c1.215 0 2.199 1.021 2.196 2.281 0.003 1.258-0.988 2.278-2.209 2.278zM16 11.176h-8.234c-0.724 0-1.215-0.737-0.932-1.406l1.383-3.269c0.207-0.517 0.609-1.3 1.485-1.314h12.566c0.863 0.013 1.080 0.497 1.485 1.314l1.383 3.269c0.283 0.668-0.207 1.406-0.932 1.406h-8.204zM26.479 18.83c-0.003 0-0.003 0-0.007 0s-0.003 0-0.007 0c-1.231 0-2.222-1.021-2.229-2.278 0.007-1.261 0.991-2.281 2.219-2.281 0.007 0 0.013 0 0.020 0s0.013 0 0.020 0c1.205 0 2.189 1.021 2.196 2.281-0.010 1.258-1.001 2.278-2.212 2.278z"></path>
</symbol>
<symbol id="icon-dish" viewBox="0 0 32 32">
<title>Dish</title>
<path d="M32 25.772v0.719c0 0.596-0.483 1.079-1.079 1.079h-29.843c-0.596 0-1.079-0.483-1.079-1.079v-0.719c0-0.596 0.483-1.079 1.079-1.079h29.843c0.596 0 1.079 0.483 1.079 1.079zM31.029 22.343c0 0.596-0.483 1.079-1.079 1.079h-27.901c-0.596 0-1.079-0.483-1.079-1.079 0-7.515 5.544-13.759 12.757-14.858-0.065-0.216-0.101-0.445-0.101-0.682 0-1.308 1.065-2.373 2.373-2.373s2.373 1.065 2.373 2.373c0 0.237-0.036 0.466-0.101 0.682 7.213 1.098 12.757 7.343 12.757 14.858zM14.895 10.576c-0.145-0.578-0.731-0.928-1.309-0.783-0.171 0.043-4.231 1.091-6.848 4.189-2.218 2.627-2.499 5.908-2.51 6.046-0.047 0.594 0.397 1.113 0.991 1.16 0.029 0.002 0.057 0.003 0.086 0.003 0.557 0 1.030-0.429 1.074-0.994 0.002-0.027 0.233-2.721 2.008-4.823 2.152-2.548 5.669-3.474 5.726-3.489 0.577-0.146 0.927-0.731 0.782-1.308z"></path>
</symbol>
<symbol id="icon-football" viewBox="0 0 32 32">
<title>Football</title>
<path d="M15.433 22.926l-5.049-2.914-5.235 3.016v4.721c1.748 1.613 3.833 2.817 6.103 3.525l4.181-2.413z"></path>
<path d="M21.787 19.919l-5.212 3.008 0.003 5.841 4.282 2.471c2.232-0.706 4.28-1.896 5.999-3.485l-0.004-4.911z"></path>
<path d="M4.006 26.583v-3.536l-3.105-1.79c0.677 1.961 1.732 3.77 3.105 5.326z"></path>
<path d="M9.719 18.972v-5.848l-5.16-2.98-4.177 2.406c-0.519 2.346-0.5 4.778 0.057 7.115l4.035 2.33z"></path>
<path d="M31.568 12.336l-4.035-2.33-5.244 3.024 0.003 5.851 5.159 2.977 4.176-2.407c0.519-2.345 0.499-4.778-0.058-7.115z"></path>
<path d="M29.855 23.999c0.545-0.943 0.993-1.94 1.337-2.974l-3.19 1.838 0.003 3.719c0.7-0.798 1.32-1.662 1.85-2.582z"></path>
<path d="M28.002 5.419v3.536l3.105 1.79c-0.677-1.961-1.732-3.771-3.105-5.326z"></path>
<path d="M5.149 4.247l0.003 4.913 5.069 2.925 5.212-3.011v-5.843l-4.28-2.469c-2.234 0.705-4.284 1.895-6.003 3.485z"></path>
<path d="M19.284 31.655l-3.199-1.846-3.249 1.875c2.128 0.432 4.323 0.422 6.448-0.028z"></path>
<path d="M2.153 8.002c-0.545 0.944-0.993 1.94-1.337 2.974l3.19-1.837v-3.719c-0.701 0.798-1.322 1.662-1.853 2.582z"></path>
<path d="M15.924 2.193l3.25-1.875c-1.034-0.211-2.087-0.317-3.142-0.318-1.109 0.002-2.214 0.119-3.299 0.35z"></path>
<path d="M10.862 13.123l0.003 5.847 5.060 2.92 5.221-3.010-0.003-5.85-5.058-2.92z"></path>
<path d="M26.859 8.974v-4.721c-1.748-1.614-3.835-2.818-6.107-3.522l-4.176 2.411 0.003 5.935 5.049 2.914z"></path>
</symbol>
<symbol id="logotype" viewBox="0 0 54 32">
<title>Carte Royal Logotype</title>
<path d="M36.608 0.576c-0.578-0.673-1.638-0.769-2.312-0.096s-0.771 1.633-0.096 2.402c0.193 0.192 0.193 0.288 0 0.48-0.867 0.865-1.734 1.729-2.505 2.594-0.193 0.192-0.289 0.192-0.482 0-0.867-0.865-1.734-1.826-2.697-2.69-0.193-0.192-0.193-0.288 0-0.48 0.578-0.769 0.482-1.729-0.193-2.306-0.578-0.577-1.541-0.577-2.119 0-0.674 0.577-0.771 1.537-0.193 2.306 0.193 0.192 0.193 0.288 0 0.48-0.867 0.865-1.734 1.826-2.601 2.69-0.193 0.192-0.385 0.192-0.578 0-0.771-0.865-1.638-1.729-2.408-2.498-0.289-0.288-0.289-0.48 0-0.769 0.578-0.576 0.482-1.729-0.193-2.306s-1.638-0.48-2.216 0.096c-0.674 0.673-0.674 1.826 0 2.402 0.289 0.192 0.289 0.48 0.289 0.769 0 3.747 0 7.494 0 11.338 0 0.961 0.193 1.057 1.060 1.057h15.606c0.963 0 1.060-0.192 1.060-1.057v-11.241c0-0.288 0-0.48 0.193-0.673 0.963-0.673 1.060-1.729 0.385-2.498zM32.658 6.822c0.771-0.673 1.445-1.345 2.119-2.018v4.804c-0.771-0.673-1.445-1.441-2.119-2.114-0.289-0.192-0.289-0.384 0-0.673zM27.263 1.345c0.289 0 0.385 0.192 0.385 0.384s-0.096 0.384-0.385 0.384c-0.193 0-0.289-0.192-0.289-0.384s0.096-0.288 0.289-0.384zM24.662 6.534c0.771-0.769 1.541-1.537 2.312-2.306 0.193-0.288 0.385-0.288 0.674 0 0.867 0.865 1.734 1.729 2.601 2.594 0.289 0.288 0.289 0.48 0 0.673-0.193 0.192-0.385 0.384-0.674 0.673-0.096-0.096-0.289-0.192-0.289-0.288-0.482-0.48-0.963-0.961-1.349-1.345s-0.771-0.384-1.156 0c-0.482 0.48-0.963 0.961-1.445 1.441-0.193 0.288-0.385 0.192-0.578 0-0.771-0.769-0.771-0.769-0.096-1.441zM28.612 9.128c-0.289 0.288-0.482 0.576-0.771 0.865-0.482 0.576-0.482 0.576-1.060 0-0.771-0.769-0.771-0.769 0-1.537 0.578-0.576 0.578-0.576 1.156 0 0.193 0.192 0.385 0.384 0.674 0.673zM19.653 4.9c0.771 0.769 1.638 1.537 2.408 2.306-0.771 0.769-1.541 1.633-2.408 2.402v-4.708zM19.171 2.018c-0.289 0-0.385-0.096-0.385-0.288 0-0.288 0.096-0.384 0.385-0.384 0.193 0 0.289 0.192 0.289 0.384s-0.096 0.288-0.289 0.288zM19.653 13.547c0-0.576 0-1.057 0-1.633 0-0.288 0.193-0.384 0.289-0.576 0.963-0.961 1.927-1.922 2.89-2.882 0.289-0.288 0.385-0.192 0.578 0 0.674 0.769 0.674 0.769 0 1.441-1.156 1.153-2.312 2.306-3.372 3.459-0.096 0.096-0.193 0.192-0.385 0.192zM22.543 14.796c-0.674 0-1.349 0-2.023 0 0.482-0.769 1.156-1.249 1.638-1.826 0.867-0.865 1.734-1.729 2.601-2.594 0.289-0.288 0.385-0.288 0.578 0 1.060 1.057 1.060 1.057 0 2.018-0.674 0.673-1.349 1.345-1.927 2.018-0.289 0.288-0.482 0.384-0.867 0.384zM24.855 14.7c0.771-0.769 1.541-1.537 2.216-2.306 0.096-0.096 0.193-0.096 0.289 0 0.674 0.769 1.445 1.441 2.216 2.21h-4.721v0.096zM31.695 14.796c-0.193 0-0.289-0.096-0.482-0.192-0.963-0.961-1.83-1.922-2.794-2.786-0.289-0.288-0.193-0.384 0-0.576 0.385-0.288 0.674-0.961 1.060-0.961 0.289 0 0.674 0.576 0.963 0.865 1.156 1.153 2.312 2.402 3.661 3.651-0.867 0-1.638 0-2.408 0zM34.874 13.451c-1.349-1.345-2.697-2.594-4.142-3.939-0.289-0.288-0.289-0.48 0-0.673 0.096-0.096 0.193-0.192 0.193-0.288 0.289-0.48 0.578-0.48 0.963 0 0.771 0.865 1.638 1.729 2.505 2.594 0.385 0.384 0.482 0.673 0.482 1.153 0 0.384 0 0.769 0 1.153zM35.355 2.114c-0.193 0-0.385-0.192-0.385-0.384s0.193-0.288 0.385-0.384c0.193 0 0.289 0.096 0.289 0.384 0.096 0.192 0 0.384-0.289 0.384z"></path>
<path d="M27.263 18.544c-2.601 0-5.202 0-7.803 0-0.193 0-0.289 0-0.482 0-0.385-0.096-0.578-0.288-0.578-0.576 0-0.384 0.193-0.576 0.482-0.673 0.193 0 0.385 0 0.578 0 5.202 0 10.404 0 15.703 0 0.096 0 0.193 0 0.289 0 0.385 0 0.674 0.192 0.674 0.673s-0.289 0.673-0.674 0.673c-0.674 0-1.349 0-1.927 0-2.119-0.096-4.239-0.096-6.262-0.096z"></path>
<path d="M4.335 28.056c-0.674 0-1.156-0.096-1.638-0.384s-0.867-0.673-1.060-1.057c-0.289-0.48-0.385-0.961-0.385-1.441 0-0.576 0.096-1.057 0.385-1.441 0.289-0.48 0.578-0.865 1.060-1.153 0.482-0.384 0.963-0.48 1.638-0.48 0.867 0 1.83 0.288 2.697 0.769v-1.153c-0.963-0.384-1.927-0.673-2.794-0.673-0.771 0-1.445 0.192-2.119 0.576s-1.156 0.865-1.541 1.441c-0.385 0.576-0.578 1.249-0.578 2.018 0 0.673 0.193 1.249 0.482 1.922 0.289 0.576 0.771 1.153 1.445 1.537s1.445 0.576 2.312 0.576c1.060 0 2.023-0.192 2.89-0.673v-1.249c-0.867 0.576-1.83 0.865-2.794 0.865z"></path>
<path d="M11.849 28.248c-0.096 0-0.193-0.096-0.193-0.288v-2.594c0-0.48-0.193-0.961-0.482-1.249s-0.771-0.48-1.349-0.48c-0.771 0-1.349 0.192-1.734 0.673v1.153c0.289-0.288 0.482-0.48 0.771-0.673s0.578-0.192 0.867-0.192c0.289 0 0.578 0.096 0.674 0.192 0.193 0.096 0.193 0.384 0.193 0.673v0.288l-0.289 0.192c-0.482 0.192-0.867 0.288-1.252 0.48-0.289 0.096-0.578 0.288-0.771 0.576-0.193 0.192-0.289 0.48-0.289 0.865s0.096 0.673 0.385 0.865c0.289 0.192 0.578 0.384 0.963 0.384 0.482 0 0.963-0.192 1.445-0.48 0.096 0.384 0.289 0.48 0.674 0.48 0.289 0 0.674-0.096 1.060-0.384v-0.769c-0.385 0.192-0.482 0.288-0.674 0.288zM10.693 27.96c-0.289 0.288-0.578 0.384-0.867 0.384-0.193 0-0.385-0.096-0.482-0.192s-0.193-0.288-0.193-0.48c0-0.288 0.096-0.48 0.385-0.673s0.674-0.384 1.252-0.576v1.537h-0.096z"></path>
<path d="M16.377 23.828c-0.193-0.096-0.385-0.192-0.578-0.192-0.289 0-0.482 0.096-0.771 0.288s-0.482 0.48-0.771 0.961v-1.153h-1.060v5.188h1.060v-2.786c0-0.288 0.096-0.576 0.193-0.769s0.289-0.384 0.482-0.576c0.193-0.096 0.385-0.192 0.578-0.192 0.096 0 0.289 0 0.482 0.192 0.193 0.096 0.385 0.192 0.482 0.384l0.578-0.865c-0.193-0.192-0.385-0.288-0.674-0.48z"></path>
<path d="M19.845 28.152c-0.289 0-0.482-0.096-0.578-0.288s-0.096-0.48-0.096-0.769v-2.402h1.638v-0.961h-1.638v-1.057l-1.927 1.922v0.096h0.867v2.402c0 0.673 0.096 1.153 0.385 1.537 0.289 0.288 0.674 0.48 1.156 0.48 0.193 0 0.482 0 0.674-0.096 0.289-0.096 0.482-0.192 0.674-0.288v-0.961c-0.289 0.288-0.771 0.384-1.156 0.384z"></path>
<path d="M26.203 26.422c0-0.576-0.096-1.057-0.289-1.441s-0.482-0.673-0.771-0.961c-0.385-0.192-0.771-0.288-1.156-0.288-0.482 0-0.963 0.096-1.252 0.384s-0.674 0.576-0.867 0.961c-0.193 0.384-0.289 0.865-0.289 1.345 0 0.576 0.096 1.057 0.385 1.441 0.193 0.384 0.578 0.769 0.963 0.961s0.771 0.288 1.252 0.288c0.385 0 0.771 0 1.060-0.192 0.289-0.096 0.674-0.288 0.963-0.48v-0.961c-0.289 0.192-0.578 0.384-0.867 0.48s-0.674 0.192-0.963 0.192c-0.482 0-0.867-0.096-1.156-0.48-0.289-0.288-0.482-0.673-0.482-1.153h3.661v-0.096h-0.193zM22.639 25.846c0-0.384 0.193-0.673 0.385-0.865 0.289-0.288 0.578-0.384 0.963-0.384s0.674 0.096 0.867 0.384c0.193 0.192 0.289 0.576 0.385 0.961h-2.601v-0.096z"></path>
<path d="M35.452 26.903c-0.385-0.576-0.674-0.961-0.771-1.153-0.193-0.192-0.385-0.384-0.674-0.576 0.385-0.192 0.771-0.384 0.963-0.769 0.193-0.288 0.289-0.769 0.289-1.153s-0.096-0.769-0.289-1.057c-0.193-0.288-0.482-0.576-0.867-0.769s-0.771-0.288-1.252-0.288h-2.216v7.879h1.156v-3.459h0.482c0.289 0 0.578 0.096 0.867 0.288s0.578 0.576 0.963 1.153l1.252 1.922h1.349l-1.252-2.018zM33.718 24.308c-0.289 0.192-0.674 0.288-1.156 0.288h-0.771v-2.498h0.963c0.482 0 0.771 0.096 0.963 0.288s0.385 0.48 0.385 0.865c0.096 0.576-0.096 0.865-0.385 1.057z"></path>
<path d="M42.003 24.981c-0.289-0.384-0.578-0.769-0.963-0.961s-0.867-0.288-1.445-0.288c-0.578 0-1.060 0.096-1.445 0.384s-0.771 0.576-0.963 0.961-0.385 0.865-0.385 1.441c0 0.48 0.096 0.865 0.289 1.249s0.482 0.769 0.963 0.961c0.385 0.288 0.963 0.384 1.445 0.384s0.867-0.096 1.349-0.288c0.385-0.192 0.771-0.48 1.060-0.865s0.385-0.865 0.385-1.537c0.096-0.576 0-1.057-0.289-1.441zM40.847 27.671c-0.289 0.288-0.771 0.48-1.252 0.48s-0.963-0.192-1.252-0.48c-0.289-0.288-0.482-0.769-0.482-1.249 0-0.576 0.193-0.961 0.482-1.249s0.674-0.48 1.252-0.48 0.867 0.192 1.252 0.48c0.385 0.288 0.482 0.769 0.482 1.345 0 0.384-0.193 0.769-0.482 1.153z"></path>
<path d="M46.53 23.828l-1.349 2.882-1.445-2.882h-1.156l2.023 4.035-1.734 3.747h1.156l3.661-7.879h-1.156v0.096z"></path>
<path d="M51.829 28.248c-0.096 0-0.193-0.096-0.193-0.288v-2.594c0-0.48-0.193-0.961-0.482-1.249s-0.771-0.48-1.349-0.48c-0.771 0-1.349 0.192-1.734 0.673v1.153c0.289-0.288 0.482-0.48 0.771-0.673s0.578-0.192 0.867-0.192c0.289 0 0.578 0.096 0.674 0.192 0.193 0.096 0.193 0.384 0.193 0.673v0.288l-0.289 0.192c-0.482 0.192-0.867 0.288-1.252 0.48-0.289 0.096-0.578 0.288-0.771 0.576-0.193 0.192-0.289 0.48-0.289 0.865s0.096 0.673 0.385 0.865c0.289 0.192 0.578 0.384 0.867 0.384 0.482 0 0.963-0.192 1.445-0.48 0.096 0.384 0.289 0.48 0.674 0.48 0.289 0 0.674-0.096 1.060-0.384v-0.769c-0.289 0.192-0.385 0.288-0.578 0.288zM50.673 27.96c-0.289 0.288-0.578 0.384-0.867 0.384-0.193 0-0.385-0.096-0.578-0.192-0.096-0.096-0.193-0.288-0.193-0.48 0-0.288 0.096-0.48 0.385-0.673s0.674-0.384 1.252-0.576v1.537z"></path>
<path d="M53.274 21.138v7.879h1.060v-7.879h-1.060z"></path>
</symbol>
<symbol id="icon-cookie" viewBox="0 0 32 32">
<title>Cookie</title>
<path d="M16 0c-0.824 0-1.652 0.064-2.463 0.188-0.152 0.023-0.285 0.113-0.364 0.245s-0.095 0.292-0.044 0.437c0.193 0.547 0.29 1.123 0.29 1.711 0 2.846-2.315 5.161-5.161 5.161-0.418 0-0.834-0.050-1.235-0.149-0.261-0.064-0.521 0.080-0.609 0.329-0.729 2.053-2.684 3.433-4.865 3.433-0.144 0-0.287-0.006-0.428-0.018-0.241-0.018-0.473 0.138-0.539 0.377-0.385 1.389-0.581 2.831-0.581 4.286 0 8.823 7.177 16 16 16s16-7.177 16-16-7.177-16-16-16zM16 30.968c-8.253 0-14.968-6.715-14.968-14.968 0-1.224 0.148-2.438 0.439-3.613 0.026 0.001 0.052 0.001 0.077 0.001 2.465 0 4.69-1.469 5.671-3.7 0.342 0.057 0.69 0.087 1.039 0.087 3.415 0 6.194-2.778 6.194-6.194 0-0.492-0.057-0.978-0.171-1.451 0.57-0.065 1.146-0.098 1.719-0.098 8.253 0 14.968 6.715 14.968 14.968s-6.715 14.968-14.968 14.968z"></path>
<path d="M15.742 2.581c-0.285 0-0.516 0.231-0.516 0.516s0.231 0.516 0.516 0.516c6.688 0 12.129 5.441 12.129 12.129s-5.441 12.129-12.129 12.129-12.129-5.441-12.129-12.129c0-0.285-0.231-0.516-0.516-0.516s-0.516 0.231-0.516 0.516c0 7.257 5.904 13.161 13.161 13.161s13.161-5.904 13.161-13.161-5.904-13.161-13.161-13.161z"></path>
<path d="M20.129 6.71c-1.139 0-2.065 0.926-2.065 2.065s0.926 2.065 2.065 2.065c1.139 0 2.065-0.926 2.065-2.065s-0.926-2.065-2.065-2.065zM20.129 9.806c-0.569 0-1.032-0.463-1.032-1.032s0.463-1.032 1.032-1.032 1.032 0.463 1.032 1.032c0 0.569-0.463 1.032-1.032 1.032z"></path>
<path d="M19.613 13.419c-1.139 0-2.065 0.926-2.065 2.065s0.926 2.065 2.065 2.065c1.139 0 2.065-0.926 2.065-2.065s-0.926-2.065-2.065-2.065zM19.613 16.516c-0.569 0-1.032-0.463-1.032-1.032s0.463-1.032 1.032-1.032c0.569 0 1.032 0.463 1.032 1.032s-0.463 1.032-1.032 1.032z"></path>
<path d="M13.935 10.323c-1.139 0-2.065 0.926-2.065 2.065s0.926 2.065 2.065 2.065 2.065-0.926 2.065-2.065-0.926-2.065-2.065-2.065zM13.935 13.419c-0.569 0-1.032-0.463-1.032-1.032s0.463-1.032 1.032-1.032c0.569 0 1.032 0.463 1.032 1.032s-0.463 1.032-1.032 1.032z"></path>
<path d="M12.903 19.613c-1.139 0-2.065 0.926-2.065 2.065s0.926 2.065 2.065 2.065c1.139 0 2.065-0.926 2.065-2.065s-0.926-2.065-2.065-2.065zM12.903 22.71c-0.569 0-1.032-0.463-1.032-1.032s0.463-1.032 1.032-1.032c0.569 0 1.032 0.463 1.032 1.032s-0.463 1.032-1.032 1.032z"></path>
<path d="M8.774 14.968c-1.139 0-2.065 0.926-2.065 2.065s0.926 2.065 2.065 2.065c1.139 0 2.065-0.926 2.065-2.065s-0.926-2.065-2.065-2.065zM8.774 18.064c-0.569 0-1.032-0.463-1.032-1.032s0.463-1.032 1.032-1.032c0.569 0 1.032 0.463 1.032 1.032s-0.463 1.032-1.032 1.032z"></path>
<path d="M20.129 19.613c-1.139 0-2.065 0.926-2.065 2.065s0.926 2.065 2.065 2.065c1.139 0 2.065-0.926 2.065-2.065s-0.926-2.065-2.065-2.065zM20.129 22.71c-0.569 0-1.032-0.463-1.032-1.032s0.463-1.032 1.032-1.032 1.032 0.463 1.032 1.032c0 0.569-0.463 1.032-1.032 1.032z"></path>
</symbol>
</svg>