<?xml version="1.0" encoding="utf-8"?>
<!DOCTYPE html>
<svg xmlns="http://www.w3.org/2000/svg" xmlns:xlink="http://www.w3.org/1999/xlink" version="1.1">
	<symbol id="icon-instagram" viewBox="0 0 32 32">
		<title>Instagram</title>
		<path d="M16.005 7.784c-4.537 0-8.211 3.677-8.211 8.211 0 4.537 3.677 8.211 8.211 8.211 4.537 0 8.211-3.677 8.211-8.211 0-4.537-3.677-8.211-8.211-8.211zM16.005 21.324c-2.945 0-5.329-2.385-5.329-5.329s2.385-5.329 5.329-5.329 5.329 2.385 5.329 5.329c0.001 2.944-2.384 5.329-5.329 5.329z"></path>
		<path d="M22.597 0.101c-2.944-0.137-10.236-0.131-13.183 0-2.589 0.121-4.873 0.747-6.715 2.588-3.077 3.077-2.684 7.224-2.684 13.305 0 6.224-0.347 10.275 2.684 13.305 3.089 3.088 7.296 2.684 13.305 2.684 6.165 0 8.293 0.004 10.473-0.84 2.964-1.151 5.201-3.8 5.42-8.559 0.139-2.945 0.131-10.236 0-13.183-0.264-5.617-3.279-9.024-9.301-9.301zM27.257 27.264c-2.017 2.017-4.816 1.837-11.291 1.837-6.667 0-9.34 0.099-11.291-1.857-2.247-2.236-1.84-5.827-1.84-11.271 0-7.367-0.756-12.672 6.637-13.051 1.699-0.060 2.199-0.080 6.475-0.080l0.060 0.040c7.105 0 12.68-0.744 13.015 6.648 0.076 1.687 0.093 2.193 0.093 6.463-0.001 6.589 0.124 9.279-1.859 11.271z"></path>
		<path d="M26.46 7.46c0 1.060-0.859 1.919-1.919 1.919s-1.919-0.859-1.919-1.919c0-1.060 0.859-1.919 1.919-1.919s1.919 0.859 1.919 1.919z"></path>
	</symbol>
	<symbol id="icon-facebook" viewBox="0 0 32 32">
		<title>Facebook</title>
		<path d="M18 11v-4c0-1.104 0.896-2 2-2h2v-5h-4c-3.314 0-6 2.686-6 6v5h-4v5h4v16h6v-16h4l2-5h-6z"></path>
	</symbol>
	<symbol id="icon-youtube" viewBox="0 0 32 32">
		<title>YouTube</title>
		<path d="M30.64 7.12c-0.868-1.544-1.81-1.828-3.728-1.936-1.916-0.13-6.734-0.184-10.908-0.184-4.182 0-9.002 0.054-10.916 0.182-1.914 0.11-2.858 0.392-3.734 1.938-0.894 1.542-1.354 4.198-1.354 8.874 0 0.004 0 0.006 0 0.006 0 0.004 0 0.006 0 0.006v0.004c0 4.656 0.46 7.332 1.354 8.858 0.876 1.544 1.818 1.824 3.732 1.954 1.916 0.112 6.736 0.178 10.918 0.178 4.174 0 8.992-0.066 10.91-0.176 1.918-0.13 2.86-0.41 3.728-1.954 0.902-1.526 1.358-4.202 1.358-8.858 0 0 0-0.006 0-0.010 0 0 0-0.004 0-0.006 0-4.678-0.456-7.334-1.36-8.876zM12 22v-12l10 6-10 6z"></path>
	</symbol>
	<symbol id="icon-arrow" viewBox="0 0 32 32">
		<title>Arrow</title>
		<path d="M30.685 7.344l1.315 1.315-15.999 16-16.001-16.003 1.315-1.315 14.687 14.687 14.683-14.684z"></path>
	</symbol>
	<symbol id="icon-delivery" viewBox="0 0 32 32">
		<title>Доставка</title>
		<path d="M10 20.183c-1.553 0-2.812 1.258-2.812 2.811s1.259 2.811 2.812 2.811c1.554 0 2.812-1.258 2.812-2.811s-1.258-2.811-2.812-2.811zM10 24.217c-0.675 0-1.222-0.547-1.222-1.222s0.547-1.222 1.222-1.222c0.675 0 1.223 0.547 1.223 1.222s-0.547 1.222-1.223 1.222z"></path>
		<path d="M24.826 20.183c-1.553 0-2.812 1.258-2.812 2.811s1.259 2.811 2.812 2.811c1.554 0 2.812-1.258 2.812-2.811s-1.258-2.811-2.812-2.811zM24.826 24.217c-0.675 0-1.222-0.547-1.222-1.222s0.547-1.222 1.222-1.222c0.675 0 1.223 0.547 1.223 1.222s-0.547 1.222-1.223 1.222z"></path>
		<path d="M13.163 11.545c0 0.394-0.322 0.716-0.716 0.716h-9.884c-0.394 0-0.716-0.322-0.716-0.716v-0.43c0-0.394 0.322-0.716 0.716-0.716h9.884c0.394 0 0.716 0.322 0.716 0.716v0.43z"></path>
		<path d="M30.335 15.738c-1.031-0.268-1.621-0.437-2.026-1.218l-1.354-2.741c-0.405-0.782-1.457-1.421-2.337-1.421h-1.851c0 0-0.249 0.005-0.249-0.245 0-0.575 0-2.299 0-2.299 0-0.891-0.504-1.62-1.577-1.62h-15.089c-1.536 0-2.265 0.729-2.265 1.62v1.44c0 0 0 0.428 0.415 0.428 2.111 0 8.444 0 8.444 0 0.79 0 1.433 0.643 1.433 1.432v0.43c0 0.79-0.643 1.432-1.433 1.432h-8.444c0 0-0.415-0.034-0.415 0.413 0 0.222 0 0.372 0 0.495 0 0.394 0.54 0.394 0.54 0.394h5.684c0.79 0 1.433 0.643 1.433 1.432v0.43c0 0.79-0.643 1.432-1.433 1.432h-5.594c0 0-0.63-0.012-0.63 0.49 0 0.87 0 3.481 0 3.481 0 0.891 0.729 1.62 1.62 1.62 0 0 0.671 0 0.895 0 0.203 0 0.233-0.113 0.233-0.17 0-2.020 1.644-3.663 3.664-3.663s3.664 1.643 3.664 3.663c0 0.057-0.016 0.17 0.139 0.17 1.774 0 7.222 0 7.222 0 0.143 0 0.137-0.121 0.137-0.17 0-2.020 1.644-3.663 3.664-3.663s3.664 1.643 3.664 3.663c0 0.057-0.001 0.17 0.088 0.17 0.813 0 1.821 0 1.821 0 0.881 0 1.601-0.72 1.601-1.601v-3.042c0-2.561-0.809-2.561-1.665-2.784zM27.289 15.596c0 0-3.4 0-4.557 0-0.188 0-0.213-0.183-0.213-0.183v-3.796c0 0-0.011-0.146 0.231-0.146 0.325 0 1.3 0 1.3 0 0.783 0 1.719 0.569 2.079 1.265l1.205 2.439c0.051 0.098 0.105 0.185 0.163 0.263 0.043 0.057-0.029 0.158-0.208 0.158z"></path>
		<path d="M10.528 16.142c0 0.394-0.322 0.716-0.716 0.716h-9.096c-0.394 0-0.716-0.322-0.716-0.716v-0.43c0-0.394 0.322-0.716 0.716-0.716h9.096c0.394 0 0.716 0.322 0.716 0.716v0.43z"></path>
	</symbol>
	<symbol id="icon-phone" viewBox="0 0 32 32">
		<title>Телефон</title>
		<path d="M31.283 25.289l-4.942-4.942c-0.984-0.98-2.614-0.951-3.633 0.068l-2.49 2.489c-0.157-0.087-0.32-0.177-0.491-0.273-1.572-0.871-3.724-2.065-5.989-4.331-2.271-2.271-3.466-4.426-4.34-5.999-0.092-0.167-0.181-0.327-0.268-0.48l2.492-2.491c1.020-1.020 1.048-2.65 0.066-3.633l-4.942-4.943c-0.982-0.982-2.613-0.952-3.633 0.068l-1.393 1.401 0.038 0.038c-0.467 0.596-0.857 1.283-1.148 2.024-0.268 0.705-0.434 1.379-0.511 2.053-0.653 5.41 1.82 10.354 8.529 17.063 9.274 9.273 16.747 8.573 17.070 8.538 0.702-0.084 1.375-0.252 2.059-0.517 0.735-0.287 1.422-0.677 2.017-1.143l0.030 0.027 1.411-1.382c1.018-1.020 1.047-2.65 0.066-3.635z"></path>
	</symbol>
	<symbol id="icon-placeholder" viewBox="0 0 32 32">
		<title>Розташування</title>
		<path d="M23.925 3.283c-2.117-2.117-4.931-3.283-7.924-3.283s-5.808 1.166-7.924 3.283c-3.917 3.917-4.404 11.286-1.054 15.751l8.979 12.967 8.965-12.949c3.363-4.483 2.876-11.852-1.041-15.769zM16.104 15.194c-2.255 0-4.091-1.836-4.091-4.091s1.836-4.091 4.091-4.091 4.091 1.836 4.091 4.091-1.836 4.091-4.091 4.091z"></path>
	</symbol>
	<!-- Icon Pack -->
	<symbol id="icon-menu" viewBox="0 0 32 32">
		<title>Menu</title>
		<path d="M28.966 5.517h-2.207c-0.305 0-0.552 0.247-0.552 0.552s0.247 0.552 0.552 0.552h1.655v24.276h-25.379c-0.305 0-0.552 0.247-0.552 0.552s0.247 0.552 0.552 0.552h25.931c0.305 0 0.552-0.247 0.552-0.552v-25.379c0-0.305-0.247-0.552-0.552-0.552z"></path>
		<path d="M26.759 3.31h-2.586c-0.305 0-0.552 0.247-0.552 0.552s0.247 0.552 0.552 0.552h2.034v24.828h-12.69c-0.305 0-0.552 0.247-0.552 0.552s0.247 0.552 0.552 0.552h13.241c0.305 0 0.552-0.247 0.552-0.552v-25.931c0-0.305-0.247-0.552-0.552-0.552z"></path>
		<path d="M24.358 0.132c-0.123-0.105-0.282-0.15-0.445-0.126l-20.965 3.31c-0.268 0.042-0.466 0.273-0.466 0.545v27.586c0 0.161 0.070 0.315 0.193 0.419 0.101 0.086 0.228 0.132 0.358 0.132 0.029 0 0.057-0.002 0.086-0.007l20.966-3.31c0.268-0.042 0.466-0.273 0.466-0.545v-27.586c0-0.161-0.070-0.315-0.193-0.419zM23.448 27.666l-19.862 3.136v-26.469l19.862-3.136v26.469z"></path>
		<path d="M15.831 5.043c-0.005-0.088-0.023-0.167-0.053-0.236s-0.078-0.124-0.144-0.167-0.159-0.063-0.28-0.063h-0.472c-0.071 0-0.131 0.003-0.181 0.008s-0.095 0.024-0.137 0.055c-0.042 0.031-0.082 0.080-0.12 0.146s-0.080 0.159-0.128 0.281-0.102 0.276-0.165 0.464-0.138 0.417-0.226 0.689l-0.103 0.323h-0.078l-0.084-0.259c-0.097-0.285-0.179-0.524-0.246-0.719s-0.126-0.356-0.176-0.482c-0.051-0.126-0.097-0.224-0.139-0.293s-0.085-0.119-0.128-0.15c-0.043-0.031-0.090-0.050-0.141-0.055s-0.113-0.008-0.186-0.008h-0.44c-0.121 0-0.214 0.021-0.28 0.063s-0.114 0.098-0.144 0.167c-0.030 0.069-0.048 0.148-0.053 0.236s-0.008 0.179-0.008 0.272v3.284c0 0.069 0.004 0.134 0.013 0.194s0.029 0.114 0.061 0.16c0.032 0.046 0.081 0.083 0.146 0.11s0.153 0.040 0.265 0.040c0.099 0 0.177-0.014 0.234-0.040s0.1-0.064 0.129-0.11 0.048-0.1 0.057-0.16c0.009-0.060 0.013-0.125 0.013-0.194v-2.696h0.084l0.614 1.772c0.015 0.043 0.034 0.087 0.057 0.133s0.050 0.086 0.083 0.123 0.071 0.067 0.115 0.091c0.044 0.024 0.098 0.036 0.16 0.036h0.065c0.060 0 0.112-0.012 0.155-0.036s0.081-0.054 0.113-0.091c0.032-0.037 0.059-0.078 0.081-0.123s0.041-0.090 0.058-0.133l0.608-1.772h0.091v2.696c0 0.069 0.004 0.134 0.013 0.194s0.027 0.114 0.057 0.16 0.072 0.083 0.129 0.11c0.057 0.027 0.135 0.040 0.234 0.040 0.112 0 0.2-0.014 0.265-0.040s0.113-0.064 0.146-0.11c0.032-0.046 0.053-0.1 0.061-0.16s0.013-0.125 0.013-0.194v-3.284c-0-0.093-0.003-0.183-0.008-0.272z"></path>
		<path d="M14.905 13.986c-0.071-0.029-0.151-0.047-0.239-0.053s-0.176-0.010-0.262-0.010h-0.769v-0.931h0.407c0.086 0 0.173-0.003 0.26-0.008s0.165-0.023 0.233-0.052c0.068-0.029 0.123-0.073 0.166-0.131s0.065-0.141 0.065-0.249c0-0.106-0.022-0.188-0.065-0.247s-0.099-0.103-0.166-0.133-0.146-0.046-0.233-0.052c-0.087-0.005-0.174-0.008-0.26-0.008h-0.407v-0.879h0.769c0.086 0 0.174-0.003 0.262-0.010s0.168-0.025 0.239-0.055c0.071-0.030 0.129-0.076 0.175-0.137s0.068-0.147 0.068-0.257-0.023-0.196-0.068-0.257-0.104-0.107-0.175-0.137c-0.071-0.030-0.151-0.048-0.239-0.055s-0.176-0.010-0.262-0.010v-0h-1.267c-0.121 0-0.214 0.022-0.28 0.065s-0.114 0.1-0.144 0.17c-0.030 0.070-0.048 0.149-0.053 0.238s-0.008 0.179-0.008 0.272v3.039c0 0.093 0.003 0.183 0.008 0.272s0.023 0.168 0.053 0.238c0.030 0.070 0.078 0.126 0.144 0.17s0.159 0.065 0.28 0.065h1.267c0.084 0 0.17-0.003 0.259-0.010s0.168-0.025 0.239-0.055 0.13-0.077 0.176-0.139c0.046-0.062 0.069-0.15 0.069-0.262 0-0.108-0.023-0.192-0.068-0.254s-0.104-0.106-0.175-0.136z"></path>
		<path d="M15.532 16.362c-0.009-0.061-0.029-0.115-0.061-0.16s-0.080-0.081-0.144-0.108c-0.064-0.027-0.15-0.040-0.26-0.040-0.099 0-0.177 0.014-0.234 0.040s-0.1 0.063-0.129 0.108-0.048 0.099-0.057 0.16c-0.009 0.061-0.013 0.127-0.013 0.196v2.683h-0.078l-1.028-2.787c-0.028-0.076-0.066-0.142-0.113-0.2-0.043-0.050-0.099-0.095-0.166-0.137s-0.156-0.063-0.263-0.063h-0.427c-0.121 0-0.214 0.021-0.28 0.063s-0.114 0.098-0.144 0.168c-0.030 0.070-0.048 0.15-0.053 0.239s-0.008 0.18-0.008 0.273v3.278c0 0.069 0.004 0.134 0.013 0.196s0.029 0.115 0.061 0.16 0.081 0.081 0.146 0.108c0.065 0.027 0.153 0.040 0.265 0.040 0.099 0 0.177-0.014 0.234-0.040s0.1-0.063 0.129-0.108 0.048-0.099 0.057-0.16 0.013-0.127 0.013-0.196v-2.683h0.078l0.976 2.644c0.015 0.043 0.036 0.096 0.063 0.158s0.063 0.122 0.108 0.179c0.045 0.057 0.102 0.106 0.17 0.146s0.153 0.060 0.254 0.060h0.427c0.118 0 0.211-0.021 0.276-0.063s0.113-0.098 0.142-0.168 0.046-0.149 0.052-0.238c0.005-0.088 0.008-0.18 0.008-0.275v-3.278c-0-0.069-0.005-0.134-0.013-0.195z"></path>
		<path d="M15.285 22.257c-0.010-0.088-0.032-0.167-0.068-0.236s-0.089-0.124-0.16-0.166-0.169-0.063-0.294-0.063c-0.127 0-0.226 0.021-0.297 0.063s-0.125 0.098-0.16 0.166-0.058 0.148-0.066 0.236c-0.009 0.088-0.013 0.179-0.013 0.272v2.547c-0.004 0.095-0.023 0.179-0.055 0.252-0.013 0.032-0.030 0.064-0.052 0.094s-0.047 0.057-0.076 0.081-0.064 0.043-0.105 0.057c-0.041 0.014-0.087 0.021-0.139 0.021s-0.098-0.007-0.137-0.021c-0.040-0.014-0.074-0.033-0.103-0.057s-0.054-0.051-0.076-0.081c-0.021-0.030-0.039-0.061-0.052-0.094-0.032-0.073-0.052-0.157-0.058-0.252v-2.547c0-0.093-0.004-0.183-0.013-0.272s-0.031-0.167-0.066-0.236-0.089-0.124-0.162-0.166c-0.072-0.042-0.171-0.063-0.296-0.063s-0.223 0.021-0.294 0.063c-0.071 0.042-0.124 0.098-0.16 0.166s-0.058 0.148-0.068 0.236c-0.010 0.088-0.014 0.179-0.014 0.272h-0v2.463c0 0.218 0.036 0.411 0.108 0.579s0.175 0.309 0.307 0.423c0.133 0.114 0.29 0.201 0.474 0.26s0.387 0.089 0.611 0.089c0.222 0 0.425-0.029 0.609-0.086s0.343-0.142 0.475-0.255c0.133-0.113 0.235-0.254 0.307-0.422s0.108-0.364 0.108-0.588v-2.463c-0-0.092-0.005-0.183-0.015-0.271z"></path>
	</symbol>
	<symbol id="icon-dinner-table" viewBox="0 0 32 32">
		<title>Dinner Table</title>
		<path d="M31.5 14h-31c-0.276 0-0.5 0.224-0.5 0.5v2.5c0 0.276 0.224 0.5 0.5 0.5h31c0.276 0 0.5-0.224 0.5-0.5v-2.5c0-0.276-0.224-0.5-0.5-0.5zM31 16.5h-30v-1.5h30v1.5z"></path>
		<path d="M12.5 12h-9.5c-0.276 0-0.5 0.224-0.5 0.5s0.224 0.5 0.5 0.5h9.5c0.276 0 0.5-0.224 0.5-0.5s-0.224-0.5-0.5-0.5z"></path>
		<path d="M11 12h-6c-0.276 0-0.5 0.224-0.5 0.5v2c0 0.276 0.224 0.5 0.5 0.5h6c0.276 0 0.5-0.224 0.5-0.5v-2c-0-0.276-0.224-0.5-0.5-0.5zM10.5 14h-5v-1h5v1z"></path>
		<path d="M29.5 16.5h-27c-0.276 0-0.5 0.224-0.5 0.5v10.5c0 0.152 0.069 0.295 0.188 0.391s0.273 0.131 0.422 0.097l4.741-1.066c1.189-0.268 2.446-0.27 3.637-0.010l3.055 0.67c1.295 0.285 2.612 0.292 3.913 0.024l3.453-0.714c1.2-0.248 2.464-0.228 3.655 0.058l4.32 1.037c0.039 0.009 0.078 0.014 0.117 0.014 0.111 0 0.221-0.037 0.31-0.107 0.12-0.095 0.19-0.239 0.19-0.393v-10.5c0-0.276-0.224-0.5-0.5-0.5zM29 26.866l-3.704-0.889c-1.334-0.32-2.749-0.342-4.090-0.065l-3.453 0.714c-1.162 0.24-2.337 0.234-3.496-0.021l-3.055-0.67c-1.333-0.293-2.741-0.29-4.071 0.011l-4.131 0.929v-9.375h26v9.366z"></path>
		<path d="M6 26.5c-0.276 0-0.5 0.224-0.5 0.5v3.5c0 0.276 0.224 0.5 0.5 0.5s0.5-0.224 0.5-0.5v-3.5c0-0.276-0.224-0.5-0.5-0.5z"></path>
		<path d="M25.5 26.5c-0.276 0-0.5 0.224-0.5 0.5v3.5c0 0.276 0.224 0.5 0.5 0.5s0.5-0.224 0.5-0.5v-3.5c0-0.276-0.224-0.5-0.5-0.5z"></path>
		<path d="M21.384 8.68c-0.095-0.114-0.235-0.18-0.384-0.18h-4.5c-0.149 0-0.289 0.066-0.384 0.18s-0.135 0.264-0.108 0.41l1 5.5c0.043 0.238 0.25 0.411 0.492 0.411h2.5c0.242 0 0.449-0.173 0.492-0.411l1-5.5c0.027-0.146-0.013-0.296-0.108-0.41zM19.582 14h-1.665l-0.818-4.5h3.302l-0.818 4.5z"></path>
		<path d="M28.5 4h-4c-0.276 0-0.5 0.224-0.5 0.5v10c0 0.276 0.224 0.5 0.5 0.5h4c0.276 0 0.5-0.224 0.5-0.5v-10c0-0.276-0.224-0.5-0.5-0.5zM28 14h-3v-9h3v9z"></path>
		<path d="M27.5 1h-2c-0.276 0-0.5 0.224-0.5 0.5v3c0 0.276 0.224 0.5 0.5 0.5h2c0.276 0 0.5-0.224 0.5-0.5v-3c-0-0.276-0.224-0.5-0.5-0.5zM27 4h-1v-2h1v2z"></path>
	</symbol>
	<symbol id="icon-dinner" viewBox="0 0 32 32">
		<title>Dinner</title>
		<path d="M16 4.853c-8.271 0-15 6.729-15 15 0 0.276 0.224 0.5 0.5 0.5h29c0.276 0 0.5-0.224 0.5-0.5-0-8.271-6.729-15-15-15zM2.009 19.353c0.264-7.489 6.439-13.5 13.991-13.5s13.727 6.011 13.991 13.5h-27.982z"></path>
		<path d="M30.25 19.353h-28.5c-0.965 0-1.75 0.785-1.75 1.75s0.785 1.75 1.75 1.75h28.5c0.965 0 1.75-0.785 1.75-1.75s-0.785-1.75-1.75-1.75zM30.25 21.853h-28.5c-0.414 0-0.75-0.336-0.75-0.75s0.336-0.75 0.75-0.75h28.5c0.414 0 0.75 0.336 0.75 0.75s-0.336 0.75-0.75 0.75z"></path>
		<path d="M9.25 24.018c-0.52-0.866-1.648-1.147-2.514-0.627-0.42 0.252-0.717 0.652-0.835 1.125-0.119 0.475-0.045 0.968 0.208 1.389l0.717 1.192 0.857-0.515-0.717-1.192c-0.115-0.192-0.149-0.416-0.095-0.631s0.189-0.396 0.38-0.511c0.393-0.236 0.906-0.109 1.142 0.284l1.543 2.568 0.858-0.515-1.543-2.568z"></path>
		<path d="M18.453 25.875l0.112 0.062 5.706 0.013 0.002-1-5.45-0.012c-2.318-1.273-7.545-3.9-8.723-2.44-0.261 0.323-0.351 0.705-0.261 1.105 0.223 0.99 1.577 1.92 2.497 2.45l-0.709 0.446-4.854 0.088-2.133-1.125c-0.858-0.453-1.918-0.157-2.421 0.654l-0.003-0.002c-0 0.001-0.001 0.002-0.001 0.002l-0.055 0.103 0.003 0.002c-0.395 0.87-0.050 1.914 0.806 2.375l3.25 1.749 5.765 0.762c0.334 0.167 1.346 0.542 3.705 0.542 1.866 0 4.575-0.234 8.458-0.991l-0.191-0.982c-9.21 1.795-11.53 0.534-11.542 0.528l-0.095-0.062-5.788-0.765-3.089-1.662c-0.389-0.209-0.547-0.682-0.371-1.076 0.23-0.366 0.711-0.498 1.101-0.293l2.36 1.246 5.391-0.098 2.439-1.536-0.813-0.392c-1.045-0.504-2.585-1.515-2.735-2.182-0.023-0.101-0.005-0.173 0.063-0.258 0.235-0.294 2.749 0.085 7.574 2.749z"></path>
		<path d="M28.529 23.353h-4.497c-0.276 0-0.5 0.224-0.5 0.5v7c0 0.276 0.224 0.5 0.5 0.5h4.497c0.276 0 0.5-0.224 0.5-0.5v-7c-0-0.276-0.224-0.5-0.5-0.5zM28.029 30.353h-3.498v-6h3.498v6z"></path>
		<path d="M14.493 7.936c-0.046-0.272-0.3-0.455-0.576-0.41-3.632 0.609-6.795 2.784-8.68 5.966-0.141 0.238-0.062 0.544 0.175 0.685 0.080 0.047 0.168 0.070 0.254 0.070 0.171 0 0.337-0.088 0.431-0.245 1.734-2.928 4.644-4.929 7.985-5.489 0.272-0.046 0.456-0.303 0.41-0.576z"></path>
		<path d="M16 0.353c-1.654 0-3 1.346-3 3 0 0.874 0.38 1.703 1.043 2.274 0.209 0.181 0.524 0.157 0.705-0.053s0.157-0.525-0.053-0.705c-0.442-0.381-0.696-0.934-0.696-1.516 0-1.103 0.897-2 2-2s2 0.897 2 2c0 0.585-0.255 1.139-0.7 1.52-0.21 0.18-0.234 0.495-0.054 0.705 0.099 0.115 0.239 0.175 0.379 0.175 0.115 0 0.231-0.040 0.325-0.12 0.667-0.572 1.049-1.402 1.049-2.279-0-1.654-1.346-3-3-3z"></path>
	</symbol>
	<symbol id="icon-chef" viewBox="0 0 32 32">
		<title>Chef</title>
		<path d="M18.4 21.333h-4.8c-0.295 0-0.533 0.239-0.533 0.533v2.495c0 0.295 0.239 0.533 0.533 0.533s0.533-0.239 0.533-0.533v-1.962h3.733v1.853c0 0.295 0.239 0.533 0.533 0.533s0.533-0.239 0.533-0.533v-2.386c-0-0.295-0.239-0.533-0.533-0.533z"></path>
		<path d="M22.050 24.991l-1.145-0.189c-0.295-0.048-0.565 0.149-0.613 0.44s0.149 0.565 0.44 0.613l1.186 0.196c0.029 0.005 0.058 0.007 0.087 0.007 1.835 0 3.329 1.239 3.329 2.762v2.114h-18.667v-2.114c0-1.523 1.493-2.762 3.329-2.762 0.029 0 0.058-0.002 0.087-0.007l1.281-0.211c0.291-0.048 0.488-0.322 0.44-0.613s-0.322-0.488-0.613-0.44l-1.239 0.204c-2.403 0.021-4.351 1.731-4.351 3.829v2.647c0 0.295 0.239 0.533 0.533 0.533h19.733c0.295 0 0.533-0.239 0.533-0.533v-2.647c-0-2.098-1.947-3.808-4.35-3.829z"></path>
		<path d="M21.067 11.2h-10.133c-0.295 0-0.533 0.239-0.533 0.533v7.929c0 1.51 1.228 2.738 2.738 2.738h5.725c1.51 0 2.738-1.228 2.738-2.738v-7.929c0-0.295-0.239-0.533-0.533-0.533zM20.533 19.662c0 0.921-0.75 1.671-1.671 1.671h-5.725c-0.921 0-1.671-0.75-1.671-1.671v-7.396h9.067v7.396z"></path>
		<path d="M16.783 24.399c-0.061-0.235-0.273-0.399-0.516-0.399h-4.8c-0.295 0-0.533 0.239-0.533 0.533v2.667c0 0.189 0.1 0.364 0.263 0.46 0.084 0.049 0.177 0.074 0.271 0.074 0.089 0 0.178-0.022 0.259-0.067l4.8-2.667c0.212-0.118 0.318-0.365 0.257-0.6zM12 26.293v-1.227h2.209l-2.209 1.227z"></path>
		<path d="M20.533 24h-4.8c-0.243 0-0.455 0.164-0.516 0.399s0.045 0.482 0.257 0.6l4.8 2.667c0.081 0.045 0.17 0.067 0.259 0.067 0.093 0 0.187-0.025 0.271-0.074 0.163-0.096 0.263-0.271 0.263-0.46v-2.667c-0-0.294-0.239-0.533-0.533-0.533zM20 26.293l-2.209-1.227h2.209v1.227z"></path>
		<path d="M19.467 0c-1.313 0-2.567 0.546-3.467 1.486-0.9-0.94-2.153-1.486-3.467-1.486-2.647 0-4.8 2.153-4.8 4.8 0 1.841 1.035 3.491 2.667 4.298v2.635c0 0.295 0.239 0.533 0.533 0.533h10.133c0.295 0 0.533-0.239 0.533-0.533v-2.635c1.631-0.807 2.667-2.457 2.667-4.298-0-2.647-2.153-4.8-4.8-4.8zM20.866 8.259c-0.201 0.081-0.333 0.277-0.333 0.494v2.446h-9.067v-2.446c0-0.217-0.132-0.413-0.333-0.494-1.418-0.574-2.334-1.932-2.334-3.459 0-2.058 1.675-3.733 3.733-3.733 1.197 0 2.331 0.584 3.033 1.563 0.2 0.28 0.667 0.28 0.867 0 0.702-0.979 1.836-1.563 3.033-1.563 2.058 0 3.733 1.675 3.733 3.733-0 1.527-0.916 2.885-2.334 3.459z"></path>
		<path d="M16.11 17.756c-0.055-0.055-1.355-1.331-2.749-0.633-0.102 0.051-0.229 0.117-0.375 0.193-0.802 0.417-3.245 1.682-4.057 1.354-0.084-0.034-0.126-0.080-0.157-0.171-0.093-0.279-0.394-0.431-0.675-0.337-0.279 0.093-0.43 0.395-0.337 0.675 0.129 0.387 0.394 0.671 0.768 0.822 0.216 0.087 0.46 0.127 0.725 0.127 1.175 0 2.772-0.768 4.224-1.522 0.14-0.073 0.262-0.136 0.361-0.185 0.7-0.351 1.496 0.413 1.519 0.435 0.208 0.207 0.545 0.207 0.753-0.001s0.208-0.546-0-0.754z"></path>
		<path d="M23.902 18.161c-0.28-0.093-0.582 0.058-0.675 0.337-0.030 0.091-0.073 0.137-0.157 0.171-0.811 0.33-3.255-0.937-4.057-1.354-0.146-0.075-0.273-0.141-0.375-0.193-1.394-0.697-2.694 0.579-2.749 0.633-0.208 0.208-0.208 0.546 0 0.754s0.546 0.208 0.754 0c0.008-0.008 0.815-0.786 1.518-0.433 0.099 0.049 0.221 0.113 0.361 0.185 1.452 0.754 3.049 1.522 4.224 1.522 0.266 0 0.51-0.039 0.725-0.127 0.373-0.151 0.639-0.436 0.768-0.822 0.093-0.279-0.058-0.582-0.337-0.675z"></path>
	</symbol>
	<symbol id="icon-quote" viewBox="0 0 32 32">
		<title>Quote</title>
		<path d="M18.286 2.286v13.714h9.143c0 5.041-4.102 9.143-9.143 9.143v4.571c7.563 0 13.714-6.152 13.714-13.714v-13.714z"></path>
		<path d="M0 16h9.143c0 5.041-4.102 9.143-9.143 9.143v4.571c7.563 0 13.714-6.152 13.714-13.714v-13.714h-13.714z"></path>
	</symbol>
	<symbol id="icon-email" viewBox="0 0 32 32">
		<title>Email</title>
		<path d="M29.188 3.813h-26.375c-0.433 0-0.838 0.106-1.205 0.282l14.33 14.33 3.212-3.087c0 0 0-0 0-0s0-0 0-0l11.243-11.242c-0.367-0.176-0.772-0.282-1.205-0.282z"></path>
		<path d="M31.718 5.42l-10.58 10.58 10.58 10.58c0.175-0.367 0.282-0.772 0.282-1.205v-18.75c0-0.433-0.106-0.838-0.282-1.204z"></path>
		<path d="M0.282 5.42c-0.175 0.367-0.282 0.772-0.282 1.205v18.75c0 0.433 0.106 0.838 0.282 1.205l10.58-10.58-10.58-10.58z"></path>
		<path d="M19.813 17.326l-3.212 3.087c-0.183 0.183-0.423 0.275-0.663 0.275s-0.48-0.092-0.663-0.275l-3.087-3.087-10.58 10.58c0.367 0.176 0.772 0.282 1.205 0.282h26.375c0.433 0 0.838-0.106 1.205-0.282l-10.58-10.58z"></path>
	</symbol>
	<symbol id="icon-clock" viewBox="0 0 32 32">
		<title>Clock</title>
		<path d="M16 0c-8.822 0-16 7.178-16 16s7.178 16 16 16 16-7.178 16-16-7.178-16-16-16zM16 28.595c-6.945 0-12.596-5.65-12.596-12.595s5.651-12.595 12.596-12.595 12.596 5.65 12.596 12.595-5.651 12.595-12.596 12.595z"></path>
		<path d="M24.339 15.506h-7.19v-8.646c0-0.728-0.59-1.317-1.317-1.317s-1.317 0.59-1.317 1.317v9.963c0 0.728 0.59 1.317 1.317 1.317h8.508c0.728 0 1.317-0.59 1.317-1.317s-0.59-1.317-1.317-1.317z"></path>
	</symbol>
</svg>