<svg height="511pt" viewBox="0 -72 511.99902 511" width="511pt" xmlns="http://www.w3.org/2000/svg"><path d="m317.597656 275.683594c-22.488281-29.328125-27.941406-72.160156-2.847656-98.742188 28.4375-30.121094 88.371094-36.4375 133.648438-36.4375 20.210937 0 38.710937 1.21875 53.601562 2.679688l-.082031.097656c-28.75 37.039062-38.597657 69.960938-46.839844 97.75-3.25 15.8125-18.019531 67.382812-72.238281 67.382812-.011719 0-.011719 0-.011719 0-26.648437 0-47.5625-9.660156-65.230469-32.730468zm0 0" fill="#6ee579"/><path d="m234.339844 192.542969c-29.558594 27.492187-68.507813 32.042969-102.832032 17.589843-69.757812-29.390624-39.410156-86.742187-99.796874-164.589843l-21.710938-27.609375c10.4375-2.171875 269.238281-44.632813 260.929688 100.339844-1.539063 26.878906-15.800782 54.929687-36.589844 74.269531zm0 0" fill="#6ee579"/><path d="m432 197.933594c0 5.519531-4.476562 10-10 10s-10-4.480469-10-10c0-5.523438 4.476562-10 10-10s10 4.476562 10 10zm0 0"/><path d="m102 57.933594c0 5.519531-4.476562 10-10 10s-10-4.480469-10-10c0-5.523438 4.476562-10 10-10s10 4.476562 10 10zm0 0"/><path d="m502.976562 133.230469c-18.460937-1.808594-36.824218-2.726563-54.574218-2.726563-47.242188 0-110.039063 6.863282-140.925782 39.574219-26.324218 27.882813-24.148437 71.835937-2.777343 104.65625-14.730469 15.730469-27.863281 31.773437-38.699219 47.210937v-34.011718c0-31.949219-6.621094-63.257813-19.679688-93.175782 20.246094-21.128906 33.050782-49.015624 34.59375-75.914062 1.886719-32.929688-8.769531-59.640625-31.671874-79.386719-71.65625-61.785156-239.625-31.660156-241.277344-31.316406-3.390625.707031-6.171875 3.113281-7.359375 6.367187-1.1875 3.25-.605469 6.882813 1.53125 9.605469l21.671875 27.558594c25.316406 32.636719 33.910156 61.324219 41.492187 86.636719 10.082031 33.640625 18.785157 62.695312 62.328125 81.039062 31.195313 13.136719 71.128906 12.484375 102.839844-10.664062 10.304688 25.578125 15.53125 52.175781 15.53125 79.25v69.320312c0 4.609375 3.152344 8.621094 7.628906 9.714844.792969.191406 1.585938.285156 2.371094.285156 3.667969 0 7.128906-2.027344 8.875-5.398437 11.253906-21.695313 29.679688-46.707031 52.371094-71.234375 18.714844 19.640625 39.453125 27.792968 65.582031 27.792968 44.804687 0 73.082031-32.613281 81.957031-74.941406 8.128906-27.410156 17.417969-58.460937 44.988282-94l.035156-.042968c2.289062-2.867188 2.828125-6.753907 1.402344-10.132813-1.425782-3.378906-4.585938-5.707031-8.234376-6.066406zm-367.585937 67.6875c-34.851563-14.683594-41.246094-36.035157-50.929687-68.351563-7.683594-25.648437-17.25-57.570312-44.890626-93.207031l-11.054687-14.054687c42.558594-5.453126 156.3125-14.980469 207.667969 29.300781 18.195312 15.6875 26.296875 36.328125 24.761718 63.09375-1.125 19.671875-10.117187 40.800781-24.117187 57.65625-23.375-42.953125-60.070313-80.550781-104.617187-106.890625-4.753907-2.8125-10.886719-1.238282-13.699219 3.519531-2.808594 4.753906-1.234375 10.886719 3.519531 13.695313 43.230469 25.5625 78.457031 62.414062 99.921875 104.34375-26.164063 20.933593-59.714844 22.199218-86.5625 10.894531zm310.101563 37.273437c-.082032.273438-.152344.546875-.207032.828125-3.671875 17.859375-17.105468 59.394531-62.445312 59.394531-21.238282 0-36.882813-6.285156-51.707032-22.203124 20.519532-20.4375 42.015626-38.277344 61.207032-50.714844 4.632812-3.003906 5.957031-9.195313 2.953125-13.832032-3.003907-4.632812-9.195313-5.957031-13.832031-2.953124-19.660157 12.746093-41.492188 30.714843-62.355469 51.253906-13.964844-24.121094-16.066407-56.054688 2.914062-76.15625 25.992188-27.527344 83.074219-33.304688 126.378907-33.304688 11.480468 0 23.226562.398438 35.097656 1.1875-22.09375 32.839844-30.816406 62.253906-38.003906 86.5zm0 0"/></svg>