<?xml version="1.0" encoding="iso-8859-1"?>
<!-- Generator: Adobe Illustrator 19.0.0, SVG Export Plug-In . SVG Version: 6.00 Build 0)  -->
<svg version="1.1" id="Layer_1" xmlns="http://www.w3.org/2000/svg" xmlns:xlink="http://www.w3.org/1999/xlink" x="0px" y="0px"
	 viewBox="0 0 512 512" style="enable-background:new 0 0 512 512;" xml:space="preserve">
<g>
	<g>
		<path d="M511.364,483.286l-61.827-340.05c-2.012-11.065-11.65-19.107-22.896-19.107H331.95
			c5.971-11.646,9.363-24.823,9.363-38.786c0-47.05-38.278-85.328-85.328-85.328s-85.328,38.278-85.328,85.328
			c0,13.963,3.393,27.139,9.363,38.786H85.328c-11.246,0-20.884,8.044-22.896,19.107L0.376,484.549
			c-1.235,6.791,0.608,13.777,5.028,19.075c4.423,5.297,10.965,8.361,17.868,8.361h465.426c0.008,0,0.019,0,0.031,0
			c12.854,0,23.271-10.419,23.271-23.271C512,486.844,511.78,485.027,511.364,483.286z M255.985,124.129
			c-21.386,0-38.786-17.399-38.786-38.786s17.399-38.786,38.786-38.786s38.786,17.399,38.786,38.786
			S277.371,124.129,255.985,124.129z"/>
	</g>
</g>
<g>
</g>
<g>
</g>
<g>
</g>
<g>
</g>
<g>
</g>
<g>
</g>
<g>
</g>
<g>
</g>
<g>
</g>
<g>
</g>
<g>
</g>
<g>
</g>
<g>
</g>
<g>
</g>
<g>
</g>
</svg>
