<!-- Generated by IcoMoon.io -->
<svg version="1.1" xmlns="http://www.w3.org/2000/svg" width="32" height="32" viewBox="0 0 32 32">
<title>alcohol</title>
<path fill="#f0bc5e" d="M11.354 24.774h9.29l0.516-8.258h-10.322z"></path>
<path fill="#000" d="M24.587 10.594l-4.459-3.121v-3.344h0.042c0.569 0 1.032-0.463 1.032-1.032v-2.064c0-0.569-0.463-1.032-1.032-1.032h-8.342c-0.569 0-1.032 0.463-1.032 1.032v2.064c0 0.569 0.463 1.032 1.032 1.032h0.042v3.344l-4.459 3.122c-0.446 0.312-0.698 0.844-0.656 1.387l1.43 18.589c0.061 0.802 0.74 1.43 1.544 1.43h12.54c0.804 0 1.482-0.628 1.544-1.43l1.43-18.589c0.041-0.543-0.21-1.075-0.657-1.388zM8.863 10.839l3.687-2.581h6.9l3.687 2.581h-14.273zM21.12 11.871l-1.469 19.096h-7.303l-1.469-19.096h10.24zM11.829 1.032h8.342l0.001 2.064h-8.343v-2.064zM19.096 4.129v3.097h-6.193v-3.097h6.193zM9.215 30.491l-1.43-18.589c-0.001-0.011 0.002-0.021 0.002-0.031h2.057l1.469 19.096h-1.583c-0.267 0-0.493-0.21-0.514-0.476zM22.784 30.491c-0.020 0.267-0.246 0.476-0.515 0.476h-1.583l1.469-19.096h2.057c0 0.011 0.003 0.021 0.002 0.031l-1.43 18.589z"></path>
<path fill="#000" d="M12.429 18.064h5.161v1.032h-5.161v-1.032z"></path>
<path fill="#000" d="M18.622 18.064h1.032v1.032h-1.032v-1.032z"></path>
</svg>
