<!-- Generated by IcoMoon.io -->
<svg version="1.1" xmlns="http://www.w3.org/2000/svg" width="32" height="32" viewBox="0 0 32 32">
<title>appetizer</title>
<path fill="#f0bc5e" d="M26.839 16.774h-10.323c-1.14 0-2.065 0.924-2.065 2.065s0.924 2.065 2.065 2.065h10.323c1.14 0 2.065-0.924 2.065-2.065s-0.924-2.065-2.065-2.065z"></path>
<path fill="#f0bc5e" d="M5.161 16.774c-1.14 0-2.065 0.924-2.065 2.065s0.924 2.065 2.065 2.065h9.806v-4.129z"></path>
<path fill="#f0bc5e" d="M16.82 13.705c0.37 0.057 0.707 0.211 0.987 0.438 0.355-0.286 0.799-0.465 1.29-0.465s0.936 0.179 1.29 0.465c0.355-0.286 0.799-0.465 1.29-0.465s0.936 0.179 1.29 0.465c0.355-0.286 0.799-0.465 1.29-0.465s0.936 0.179 1.29 0.465c0.28-0.226 0.617-0.38 0.987-0.438 0.515-0.561 0.82-1.302 0.82-2.092 0-1.708-1.389-3.097-3.097-3.097h-5.161c-1.708 0-3.097 1.389-3.097 3.097 0 0.79 0.305 1.53 0.82 2.092z"></path>
<path fill="#f0bc5e" d="M5.465 13.705c0.37 0.057 0.707 0.211 0.987 0.438 0.355-0.286 0.799-0.465 1.29-0.465s0.936 0.179 1.29 0.465c0.355-0.286 0.799-0.465 1.29-0.465s0.936 0.179 1.29 0.465c0.355-0.286 0.799-0.465 1.29-0.465s0.936 0.179 1.29 0.465c0.28-0.226 0.617-0.38 0.987-0.438 0.515-0.561 0.82-1.302 0.82-2.092 0-1.708-1.389-3.097-3.097-3.097h-5.161c-1.708 0-3.097 1.389-3.097 3.097 0 0.79 0.305 1.53 0.82 2.092z"></path>
<path fill="#000" d="M30.452 23.484h-1.319c0.178-0.305 0.287-0.654 0.287-1.032 0-0.697-0.35-1.313-0.881-1.687 0.536-0.473 0.881-1.157 0.881-1.926 0-0.58-0.199-1.11-0.523-1.541 0.336-0.445 0.523-0.989 0.523-1.556 0-1.423-1.158-2.581-2.581-2.581-0.457 0-0.896 0.121-1.29 0.354-0.787-0.464-1.794-0.464-2.581 0-0.787-0.464-1.794-0.464-2.581 0-0.787-0.464-1.794-0.464-2.581 0-0.394-0.233-0.833-0.354-1.29-0.354-0.184 0-0.364 0.021-0.537 0.058-0.609-0.118-1.248-0.021-1.785 0.296-0.787-0.464-1.794-0.464-2.581 0-0.787-0.464-1.794-0.464-2.581 0-0.787-0.464-1.794-0.464-2.581 0-0.394-0.233-0.833-0.354-1.29-0.354-1.423 0-2.581 1.158-2.581 2.581 0 0.566 0.187 1.111 0.523 1.556-0.324 0.431-0.523 0.961-0.523 1.541 0 0.769 0.345 1.453 0.881 1.926-0.531 0.374-0.881 0.989-0.881 1.687 0 0.378 0.109 0.727 0.287 1.032h-1.319c-0.854 0-1.548 0.695-1.548 1.548s0.695 1.548 1.548 1.548h0.992l1.239 3.097h0.979l0.516 2.065h21.451l0.516-2.065h0.979l1.239-3.097h0.992c0.854 0 1.548-0.695 1.548-1.548s-0.695-1.548-1.548-1.548zM27.355 21.419c0.569 0 1.032 0.463 1.032 1.032s-0.463 1.032-1.032 1.032h-11.355c-0.569 0-1.032-0.463-1.032-1.032s0.463-1.032 1.032-1.032zM6.71 19.355v1.032h-1.548c-0.854 0-1.548-0.695-1.548-1.548s0.695-1.548 1.548-1.548h7.742v1.032h1.032v-1.032h0.518c0.002 0.003 0.004 0.005 0.006 0.007-0.324 0.431-0.523 0.961-0.523 1.541 0 0.583 0.202 1.116 0.53 1.548h-6.723v-1.032zM25.29 18.323v-1.032h1.548c0.854 0 1.548 0.695 1.548 1.548s-0.695 1.548-1.548 1.548h-7.742v-1.032h-1.032v1.032h-1.548c-0.854 0-1.548-0.695-1.548-1.548s0.695-1.548 1.548-1.548h7.742v1.032zM17.482 14.544l0.324 0.262 0.324-0.262c0.567-0.458 1.365-0.458 1.932 0l0.324 0.262 0.324-0.262c0.567-0.458 1.365-0.458 1.932 0l0.324 0.262 0.324-0.262c0.567-0.458 1.365-0.458 1.932 0l0.324 0.262 0.324-0.262c0.286-0.229 0.619-0.35 0.968-0.35 0.854 0 1.548 0.695 1.548 1.548 0 0.313-0.1 0.613-0.272 0.868-0.378-0.218-0.81-0.352-1.276-0.352h-10.323c-0.466 0-0.898 0.134-1.276 0.352-0.172-0.255-0.272-0.555-0.272-0.868 0-0.854 0.695-1.548 1.548-1.548 0.348 0 0.682 0.121 0.966 0.35zM5.161 14.194c0.348 0 0.682 0.121 0.966 0.35l0.324 0.262 0.324-0.262c0.567-0.458 1.365-0.458 1.932 0l0.324 0.262 0.324-0.262c0.567-0.458 1.365-0.458 1.932 0l0.324 0.262 0.324-0.262c0.567-0.458 1.365-0.458 1.932 0l0.264 0.213c-0.125 0.304-0.196 0.637-0.196 0.985 0 0.175 0.019 0.347 0.054 0.516h-8.828c-0.466 0-0.898 0.134-1.276 0.352-0.172-0.255-0.272-0.555-0.272-0.868 0-0.854 0.695-1.548 1.548-1.548zM3.613 22.452c0-0.569 0.463-1.032 1.032-1.032h9.577c-0.178 0.305-0.287 0.654-0.287 1.032s0.109 0.727 0.287 1.032h-9.577c-0.569 0-1.032-0.463-1.032-1.032zM25.92 30.71h-19.839l-0.258-1.032h20.355zM30.452 25.548h-5.161v1.032h3.057l-0.826 2.065h-23.043l-0.826-2.065h20.605v-1.032h-22.71c-0.284 0-0.516-0.232-0.516-0.516s0.232-0.516 0.516-0.516h28.903c0.284 0 0.516 0.232 0.516 0.516s-0.232 0.516-0.516 0.516z"></path>
<path fill="#000" d="M16 18.323h1.032v1.032h-1.032z"></path>
<path fill="#000" d="M26.323 18.323h1.032v1.032h-1.032z"></path>
<path fill="#000" d="M21.161 18.323h1.032v1.032h-1.032z"></path>
<path fill="#000" d="M24.623 10.946l-0.73-0.73c-0.006 0.006-0.443 0.426-1.149 0.683l0.507-10.641h-3.147l0.506 10.638c-0.701-0.258-1.144-0.676-1.15-0.682l-0.728 0.731c0.049 0.048 1.204 1.183 2.946 1.183s2.897-1.135 2.946-1.183zM21.186 1.29h0.982l-0.467 9.804c-0.008 0-0.015 0.002-0.024 0.002s-0.015-0.002-0.024-0.002z"></path>
<path fill="#000" d="M4.645 18.323h1.032v1.032h-1.032z"></path>
<path fill="#000" d="M9.806 18.323h1.032v1.032h-1.032z"></path>
<path fill="#000" d="M13.268 10.946l-0.73-0.73c-0.006 0.006-0.443 0.426-1.149 0.683l0.507-10.641h-3.147l0.506 10.638c-0.701-0.258-1.144-0.676-1.15-0.682l-0.728 0.731c0.049 0.048 1.204 1.183 2.946 1.183s2.897-1.135 2.946-1.183zM9.832 1.29h0.982l-0.467 9.804c-0.008 0-0.015 0.002-0.024 0.002s-0.015-0.002-0.024-0.002z"></path>
</svg>
