<!-- Generated by IcoMoon.io -->
<svg version="1.1" xmlns="http://www.w3.org/2000/svg" width="32" height="32" viewBox="0 0 32 32">
<title>apple-pie</title>
<path fill="#f0bc5e" d="M8.774 14.376c0.961 0 1.762 0.66 1.992 1.548h0.146c0.23-0.889 1.031-1.548 1.992-1.548s1.762 0.66 1.992 1.548h0.146c0.23-0.889 1.031-1.548 1.992-1.548s1.762 0.66 1.992 1.548h0.146c0.23-0.889 1.031-1.548 1.992-1.548s1.762 0.66 1.992 1.548h0.146c0.23-0.889 1.031-1.548 1.992-1.548s1.762 0.66 1.992 1.548h0.146c0.23-0.889 1.031-1.548 1.992-1.548 0.169 0 0.332 0.026 0.489 0.065l-0.004-0.241c-0.092-0.245-2.289-6.017-10.81-6.017s-10.718 5.772-10.807 6.017l-0.004 0.241c0.157-0.038 0.319-0.065 0.489-0.065z"></path>
<path fill="#000" d="M32 16.441c0-1.423-1.158-2.581-2.581-2.581-0.847 0-1.594 0.416-2.065 1.048-0.471-0.632-1.218-1.048-2.065-1.048s-1.594 0.416-2.065 1.048c-0.471-0.632-1.218-1.048-2.065-1.048s-1.594 0.416-2.065 1.048c-0.471-0.632-1.218-1.048-2.065-1.048s-1.594 0.416-2.065 1.048c-0.471-0.632-1.218-1.048-2.065-1.048s-1.594 0.416-2.065 1.048c-0.471-0.632-1.218-1.048-2.065-1.048-1.423 0-2.581 1.158-2.581 2.581 0 0.708 0.48 1.299 1.129 1.483l0.629 2.517c-0.27 0.132-0.526 0.294-0.761 0.49-0.166-2.224-1.104-4.294-2.697-5.887l-0.73 0.73c1.385 1.385 2.217 3.174 2.392 5.101-0.668-0.531-1.489-0.821-2.356-0.821-2.096 0-3.801 1.705-3.801 3.801 0 1.314 0.333 2.618 0.962 3.771l1.615 2.963c0.45 0.824 1.313 1.336 2.252 1.336 0.685 0 1.329-0.267 1.814-0.751l0.067-0.067 0.067 0.067c0.485 0.485 1.129 0.751 1.814 0.751 0.939 0 1.802-0.512 2.251-1.336l1.615-2.963c0.577-1.057 0.901-2.241 0.951-3.443h14.689c0.712 0 1.33-0.483 1.502-1.173l1.271-5.085c0.649-0.185 1.129-0.776 1.129-1.484zM25.29 14.892c0.854 0 1.548 0.695 1.548 1.548 0 0.284-0.232 0.516-0.516 0.516h-2.065c-0.284 0-0.516-0.232-0.516-0.516 0-0.854 0.695-1.548 1.548-1.548zM21.161 14.892c0.854 0 1.548 0.695 1.548 1.548 0 0.284-0.232 0.516-0.516 0.516h-2.065c-0.284 0-0.516-0.232-0.516-0.516 0-0.854 0.695-1.548 1.548-1.548zM17.032 14.892c0.854 0 1.548 0.695 1.548 1.548 0 0.284-0.232 0.516-0.516 0.516h-2.065c-0.284 0-0.516-0.232-0.516-0.516 0-0.854 0.695-1.548 1.548-1.548zM12.903 14.892c0.854 0 1.548 0.695 1.548 1.548 0 0.284-0.232 0.516-0.516 0.516h-2.065c-0.284 0-0.516-0.232-0.516-0.516 0-0.854 0.695-1.548 1.548-1.548zM8.774 14.892c0.854 0 1.548 0.695 1.548 1.548 0 0.284-0.232 0.516-0.516 0.516h-2.065c-0.284 0-0.516-0.232-0.516-0.516 0-0.854 0.695-1.548 1.548-1.548zM11.551 27.131l-1.615 2.963c-0.269 0.492-0.785 0.798-1.346 0.798-0.409 0-0.794-0.159-1.084-0.449l-0.797-0.797-0.797 0.797c-0.29 0.29-0.675 0.449-1.084 0.449-0.561 0-1.076-0.306-1.345-0.798l-1.615-2.963c-0.547-1.002-0.836-2.135-0.836-3.277 0-1.527 1.242-2.769 2.769-2.769 0.74 0 1.435 0.288 1.958 0.811l0.951 0.951 0.951-0.951c0.523-0.523 1.218-0.811 1.958-0.811 1.527 0 2.769 1.242 2.769 2.769 0 1.142-0.289 2.275-0.836 3.277zM29.016 21.086h-3.21v1.032h2.952l-0.161 0.641c-0.057 0.23-0.263 0.391-0.501 0.391h-14.746c-0.069-0.365-0.19-0.712-0.356-1.032h11.779v-1.032h-12.559c-0.68-0.638-1.592-1.032-2.596-1.032-0.232 0-0.46 0.023-0.684 0.063l-0.532-2.128h1.403c0.398 0 0.758-0.155 1.032-0.403 0.275 0.248 0.634 0.403 1.032 0.403h2.065c0.398 0 0.758-0.155 1.032-0.403 0.275 0.248 0.634 0.403 1.032 0.403h2.065c0.398 0 0.758-0.155 1.032-0.403 0.275 0.248 0.634 0.403 1.032 0.403h2.065c0.398 0 0.758-0.155 1.032-0.403 0.275 0.248 0.634 0.403 1.032 0.403h2.065c0.398 0 0.758-0.155 1.032-0.403 0.275 0.248 0.634 0.403 1.032 0.403h1.403l-0.774 3.097zM30.452 16.957h-2.065c-0.284 0-0.516-0.232-0.516-0.516 0-0.854 0.695-1.548 1.548-1.548s1.548 0.695 1.548 1.548c0 0.284-0.232 0.516-0.516 0.516z"></path>
<path fill="#000" d="M18.581 10.763h1.032v1.548h-1.032v-1.548z"></path>
<path fill="#000" d="M23.639 11.486l-0.826 0.619-0.774-1.032 0.826-0.619 0.774 1.032z"></path>
<path fill="#000" d="M16.155 11.073l-0.774 1.032-0.826-0.62 0.774-1.032 0.826 0.62z"></path>
<path fill="#000" d="M15.119 6.999l0.73-0.73-0.516-0.516c-0.232-0.232-0.365-0.553-0.365-0.881v-0.089c0-0.328 0.133-0.649 0.365-0.881 0.43-0.43 0.667-1.002 0.667-1.611v-0.089c0-0.609-0.237-1.181-0.667-1.611l-0.516-0.516-0.73 0.73 0.516 0.516c0.232 0.232 0.365 0.553 0.365 0.881v0.089c0 0.328-0.133 0.649-0.365 0.881-0.43 0.43-0.667 1.002-0.667 1.611v0.089c0 0.609 0.237 1.181 0.667 1.611l0.516 0.516z"></path>
<path fill="#000" d="M18.732 6.999l0.73-0.73-0.516-0.516c-0.232-0.232-0.365-0.553-0.365-0.881v-0.089c0-0.328 0.133-0.649 0.365-0.881 0.43-0.43 0.667-1.002 0.667-1.611v-0.089c0-0.609-0.237-1.181-0.667-1.611l-0.516-0.516-0.73 0.73 0.516 0.516c0.232 0.232 0.365 0.553 0.365 0.881v0.089c0 0.328-0.133 0.649-0.365 0.881-0.43 0.43-0.667 1.002-0.667 1.611v0.089c0 0.609 0.237 1.181 0.667 1.611l0.516 0.516z"></path>
<path fill="#000" d="M22.345 6.999l0.73-0.73-0.516-0.516c-0.232-0.232-0.365-0.553-0.365-0.881v-0.089c0-0.328 0.133-0.649 0.365-0.881 0.43-0.43 0.667-1.002 0.667-1.611v-0.089c0-0.609-0.237-1.181-0.667-1.611l-0.516-0.516-0.73 0.73 0.516 0.516c0.232 0.232 0.365 0.553 0.365 0.881v0.089c0 0.328-0.133 0.649-0.365 0.881-0.43 0.43-0.667 1.002-0.667 1.611v0.089c0 0.609 0.237 1.181 0.667 1.611l0.516 0.516z"></path>
<path fill="#000" d="M3.097 23.854c0-0.038 0.003-0.074 0.009-0.11l-1.021-0.155c-0.013 0.086-0.020 0.175-0.020 0.265 0 0.3 0.024 0.604 0.071 0.903l1.020-0.161c-0.039-0.245-0.059-0.495-0.059-0.742z"></path>
<path fill="#000" d="M3.363 25.424l-0.975 0.339c0.105 0.301 0.235 0.595 0.386 0.871l1.31 2.438 0.909-0.489-1.312-2.441c-0.125-0.229-0.232-0.47-0.318-0.718z"></path>
</svg>
