<!-- Generated by IcoMoon.io -->
<svg version="1.1" xmlns="http://www.w3.org/2000/svg" width="32" height="32" viewBox="0 0 32 32">
<title>artichoke</title>
<path fill="#f0bc5e" d="M22.358 15.691c0.093-0.059 0.186-0.111 0.28-0.173 1.561-1.311 2.553-3.278 2.553-5.476v-1.021h-1.021c-0.245 0-0.488 0.011-0.727 0.032 0.014-0.011 0.028-0.021 0.042-0.032 0.113-0.319 0.175-0.663 0.175-1.021 0-0.663-0.215-1.308-0.613-1.838l-2.451-3.268-1.532 2.043h-0.18c-0.103-0.291-0.246-0.567-0.433-0.817l-2.451-3.268-2.451 3.268c-0.187 0.25-0.33 0.526-0.433 0.817h-0.18l-1.532-2.043-2.451 3.268c-0.398 0.531-0.613 1.175-0.613 1.838 0 0.358 0.061 0.702 0.174 1.021 0.014 0.011 0.028 0.021 0.042 0.032-0.239-0.021-0.482-0.032-0.727-0.032h-1.021v1.021c0 2.198 0.992 4.165 2.553 5.476 0.093 0.061 0.186 0.114 0.28 0.173-1.246-0.426-2.395-1.125-3.344-2.074 0 3.666 2.972 6.638 6.638 6.638h6.128c3.666 0 6.638-2.972 6.638-6.638-0.949 0.949-2.098 1.648-3.344 2.074z"></path>
<path fill="#000" d="M25.341 13.256c-0.209 0.209-0.429 0.403-0.656 0.586 0.655-1.144 1.017-2.447 1.017-3.8v-1.532h-1.532c-0.015 0-0.029 0.002-0.043 0.002 0.024-0.169 0.043-0.34 0.043-0.513 0-0.768-0.254-1.53-0.715-2.145l-2.86-3.813-1.55 2.067c-0.060-0.1-0.116-0.203-0.186-0.296l-2.86-3.813-2.86 3.813c-0.070 0.093-0.126 0.197-0.186 0.296l-1.55-2.067-2.86 3.813c-0.461 0.614-0.715 1.376-0.715 2.145 0 0.173 0.019 0.343 0.043 0.513-0.015-0.001-0.029-0.002-0.043-0.002h-1.532v1.532c0 1.35 0.361 2.65 1.012 3.792-0.225-0.182-0.444-0.372-0.651-0.579l-0.872-0.872v1.233c0 3.451 2.458 6.338 5.715 7.004 0.516 1.412 0.892 2.861 1.13 4.333-0.193-0.257-0.398-0.507-0.629-0.738l-0.748-0.748-0.722 0.722 0.748 0.748c1.068 1.068 1.656 2.488 1.656 3.998v3.064h6.128v-1.532c0-1.51 0.588-2.93 1.656-3.998l0.748-0.748-0.722-0.722-0.748 0.748c-0.323 0.323-0.607 0.673-0.853 1.045 0.171-2.107 0.623-4.175 1.354-6.172 3.257-0.666 5.715-3.553 5.715-7.004v-1.233l-0.872 0.872zM19.574 5.958c0-0.248-0.036-0.493-0.087-0.735l1.108-1.477 2.043 2.723c0.329 0.439 0.511 0.983 0.511 1.532 0 0.2-0.031 0.395-0.077 0.587-0.792 0.1-1.564 0.3-2.302 0.615l0.4 0.94c0.949-0.404 1.959-0.61 3-0.61h0.511v0.511c0 1.966-0.864 3.819-2.356 5.073l-0.122 0.094c-0.847 0.29-1.743 0.45-2.665 0.45h-0.319c-0.102-0.214-0.217-0.422-0.36-0.613l-0.556-0.741c0.802-0.676 1.271-1.669 1.271-2.731 0-0.159-0.017-0.318-0.039-0.475 0.285-0.217 0.583-0.419 0.894-0.594l-0.5-0.891c-0.242 0.135-0.475 0.286-0.704 0.445-0.103-0.221-0.221-0.435-0.367-0.63l-0.556-0.741c0.802-0.676 1.271-1.669 1.271-2.731zM16 19.745c-1.408 0-2.553-1.145-2.553-2.553 0-0.549 0.181-1.093 0.511-1.532l2.043-2.723 2.043 2.723c0.329 0.439 0.511 0.983 0.511 1.532 0 1.408-1.145 2.553-2.553 2.553zM13.447 11.575c0-0.549 0.181-1.093 0.511-1.532l2.043-2.723 2.043 2.723c0.329 0.439 0.511 0.983 0.511 1.532 0 0.738-0.319 1.43-0.864 1.912l-1.689-2.253-1.689 2.252c-0.545-0.482-0.864-1.173-0.864-1.912zM13.957 4.426l2.043-2.723 2.043 2.723c0.329 0.439 0.511 0.983 0.511 1.532 0 0.738-0.319 1.43-0.864 1.912l-1.689-2.253-1.689 2.252c-0.545-0.482-0.864-1.173-0.864-1.912 0-0.549 0.181-1.093 0.511-1.532zM8.851 8c0-0.549 0.181-1.093 0.511-1.532l2.043-2.723 1.108 1.478c-0.051 0.242-0.087 0.487-0.087 0.735 0 1.062 0.469 2.055 1.271 2.731l-0.556 0.741c-0.147 0.196-0.264 0.41-0.368 0.631-1.143-0.792-2.466-1.295-3.845-1.472-0.046-0.193-0.077-0.388-0.077-0.589zM6.932 14.842c1.166 0.875 2.521 1.459 3.978 1.708l0.172-1.007c-0.444-0.076-0.876-0.188-1.295-0.332l-0.097-0.082c-1.507-1.266-2.371-3.119-2.371-5.085v-0.511h0.511c1.697 0 3.294 0.545 4.635 1.568-0.021 0.157-0.039 0.316-0.039 0.475 0 1.062 0.469 2.055 1.271 2.731l-0.556 0.741c-0.143 0.19-0.258 0.398-0.36 0.613h-0.319c-0.222 0-0.442-0.009-0.661-0.027l-0.082 1.018c0.246 0.020 0.494 0.030 0.742 0.030h0.005c-0.024 0.169-0.041 0.34-0.041 0.511 0 1 0.414 1.904 1.077 2.553h-0.567c-2.96 0-5.436-2.109-6.005-4.903zM18.043 28.703v2.275h-4.085v-2.275c0-2.718-0.45-5.389-1.329-7.953 0.103 0.004 0.204 0.015 0.307 0.015h6.128c0.104 0 0.205-0.011 0.307-0.015-0.878 2.564-1.329 5.235-1.329 7.953zM19.064 19.745h-0.567c0.664-0.65 1.077-1.553 1.077-2.553 0-0.171-0.017-0.342-0.042-0.511h0.005c2.021 0 3.943-0.645 5.53-1.839-0.568 2.794-3.045 4.903-6.004 4.903z"></path>
<path fill="#000" d="M15.489 25.785v1.619h1.021v-1.619c0-0.795 0.309-1.543 0.872-2.105l-0.722-0.722c-0.755 0.755-1.171 1.759-1.171 2.827z"></path>
</svg>
