<!-- Generated by IcoMoon.io -->
<svg version="1.1" xmlns="http://www.w3.org/2000/svg" width="32" height="32" viewBox="0 0 32 32">
<title>bacon</title>
<path fill="#f9ba48" d="M1.032 10.323c0 0 1.032 0.516 2.064 0.527 1.032-0.011 1.871-0.323 2.581-1.032s1.548-1.032 2.581-1.044c1.032 0.011 1.871 0.312 2.581 1.020v0.012c0.709 0.709 1.548 1.032 2.581 1.044 1.032-0.011 1.871-0.323 2.581-1.032s1.548-1.032 2.581-1.044c1.032 0.011 1.872 0.312 2.581 1.020v0.012c0.709 0.709 1.548 1.032 2.581 1.044 1.032-0.011 1.872-0.323 2.581-1.032s1.548-1.032 2.581-1.044c1.032 0.011 1.872 0.323 2.581 1.032l-0.516-2.581c0 0-1.032-0.504-2.064-0.516h-1.548c-1.548 0.516-2.581 2.064-3.613 2.076-1.032-0.011-1.872-0.334-2.581-1.044v-0.012c-0.709-0.709-1.548-1.009-2.581-1.020-1.032 0.012-1.872 0.335-2.581 1.044s-1.548 1.021-2.581 1.032c-1.032-0.011-1.872-0.334-2.581-1.044v-0.012c-0.709-0.709-1.548-1.009-2.581-1.020-1.032 0.012-1.872 0.335-2.581 1.044s-1.548 1.021-2.581 1.032c-1.032-0.011-1.871-0.334-2.581-1.044l0.516 2.581z"></path>
<path fill="#f9ba48" d="M1.032 24.785c0 0 1.032 0.516 2.064 0.527 1.032-0.011 1.871-0.324 2.581-1.032s1.548-1.032 2.581-1.044c1.051 0.011 1.625 0.554 2.064 1.020 0.709 0.709 2.064 1.044 3.097 1.055 1.032-0.011 1.871-0.324 2.581-1.032s1.548-1.032 2.581-1.044c1.032 0.011 1.872 0.312 2.581 1.021v0.011c0.709 0.709 1.548 1.032 2.581 1.044 1.032-0.011 1.872-0.324 2.581-1.032s1.548-1.032 2.581-1.044c1.032 0.011 1.872 0.323 2.581 1.032l-0.516-2.581c0 0-1.032-0.505-2.064-0.516-1.032 0.011-1.872 0.335-2.581 1.044s-1.548 1.021-2.581 1.032c-0.744-0.009-1.498-0.18-2.064-0.539l-0.516-0.516c-0.709-0.709-1.548-1.009-2.581-1.021-1.032 0.011-1.872 0.335-2.581 1.044s-1.548 1.021-2.581 1.032c-1.032-0.011-1.872-0.334-2.581-1.044v-0.011c-0.709-0.709-1.548-1.009-2.581-1.021-1.032 0.011-1.872 0.335-2.581 1.044s-1.548 1.021-2.581 1.032c-1.032-0.011-1.871-0.334-2.581-1.044l0.516 2.581z"></path>
<path fill="#343433" d="M31.989 9.705l-0.498-2.488 0.501-3.003c0.027-0.164-0.026-0.332-0.144-0.45-0.782-0.783-1.744-1.171-2.951-1.184-1.196 0.013-2.158 0.401-2.94 1.183-0.591 0.591-1.297 0.87-2.21 0.881-0.889-0.010-1.579-0.277-2.165-0.838-0.017-0.024-0.036-0.046-0.056-0.067-0.778-0.778-1.711-1.147-2.952-1.16-1.196 0.013-2.158 0.401-2.94 1.183-0.591 0.591-1.297 0.87-2.21 0.881-0.889-0.010-1.579-0.277-2.165-0.838-0.017-0.024-0.036-0.046-0.056-0.067-0.778-0.778-1.711-1.147-2.952-1.16-1.196 0.013-2.158 0.401-2.94 1.183-0.591 0.591-1.297 0.87-2.21 0.881-0.917-0.010-1.623-0.294-2.221-0.892-0.148-0.148-0.37-0.186-0.563-0.106s-0.318 0.274-0.318 0.483v3.613c0 0.034 0.004 0.068 0.010 0.101l0.498 2.488-0.501 3.003c-0.027 0.164 0.026 0.332 0.144 0.45 0.783 0.783 1.745 1.171 2.951 1.184 1.195-0.013 2.157-0.4 2.94-1.183 0.599-0.599 1.304-0.883 2.21-0.892 0.916 0.010 1.588 0.262 2.165 0.814 0.017 0.024 0.036 0.046 0.056 0.067 0.79 0.791 1.752 1.181 2.951 1.195 1.195-0.013 2.157-0.4 2.94-1.183 0.599-0.599 1.304-0.883 2.21-0.892 0.916 0.010 1.588 0.262 2.165 0.814 0.017 0.024 0.036 0.046 0.056 0.067 0.79 0.791 1.752 1.181 2.951 1.195 1.195-0.013 2.157-0.4 2.94-1.183 0.599-0.599 1.304-0.883 2.21-0.892 0.917 0.010 1.623 0.294 2.221 0.892 0.148 0.148 0.37 0.193 0.563 0.112 0.194-0.079 0.319-0.268 0.319-0.477v-3.613c0-0.034-0.004-0.068-0.010-0.101zM3.102 5.678c1.195-0.013 2.157-0.401 2.94-1.183 0.59-0.591 1.296-0.87 2.21-0.881 0.923 0.011 1.595 0.259 2.165 0.803 0.017 0.024 0.035 0.046 0.056 0.067 0.79 0.791 1.752 1.181 2.951 1.195 1.195-0.013 2.157-0.401 2.94-1.183 0.591-0.591 1.297-0.87 2.211-0.881 0.923 0.011 1.595 0.259 2.165 0.803 0.017 0.024 0.035 0.046 0.056 0.067 0.79 0.791 1.752 1.181 2.951 1.195 1.195-0.013 2.157-0.401 2.94-1.183 0.591-0.591 1.297-0.87 2.211-0.881 0.828 0.009 1.48 0.234 2.031 0.705l-0.365 2.192c-0.434-0.149-1.036-0.31-1.655-0.317l-0.011 1.032c0.636 0.007 1.286 0.233 1.617 0.367l0.212 1.059c-0.539-0.253-1.143-0.386-1.829-0.393-1.188 0.013-2.15 0.404-2.94 1.195-0.59 0.591-1.297 0.871-2.21 0.881-0.841-0.010-1.504-0.249-2.070-0.75l-0.151-0.154c-0.774-0.775-1.736-1.158-2.951-1.172-1.188 0.013-2.15 0.404-2.94 1.195-0.59 0.591-1.296 0.871-2.21 0.881-0.841-0.010-1.504-0.249-2.070-0.75l-0.151-0.154c-0.774-0.775-1.736-1.158-2.951-1.172-1.188 0.013-2.15 0.404-2.94 1.195-0.59 0.591-1.296 0.871-2.21 0.881-0.637-0.007-1.287-0.239-1.617-0.376l-0.211-1.056c0.541 0.257 1.145 0.392 1.828 0.399 1.196-0.013 2.158-0.4 2.94-1.183 0.598-0.599 1.304-0.883 2.21-0.892 0.867 0.010 1.514 0.235 2.070 0.727l0.151 0.154c0.791 0.791 1.753 1.181 2.951 1.195 1.196-0.013 2.158-0.4 2.94-1.183 0.598-0.599 1.304-0.883 2.21-0.892 0.867 0.010 1.514 0.235 2.070 0.727l0.151 0.154c0.791 0.791 1.753 1.181 2.951 1.195 0.708-0.008 1.328-0.492 1.985-1.005 0.552-0.431 1.123-0.876 1.786-1.098l-0.327-0.979c-0.832 0.277-1.503 0.801-2.095 1.263-0.515 0.402-1.001 0.782-1.349 0.786-0.841-0.010-1.504-0.249-2.070-0.75l-0.151-0.154c-0.774-0.775-1.736-1.158-2.951-1.172-1.188 0.013-2.15 0.404-2.94 1.195-0.59 0.591-1.296 0.871-2.21 0.881-0.841-0.010-1.504-0.249-2.070-0.75l-0.151-0.154c-0.774-0.775-1.736-1.158-2.951-1.172-1.188 0.013-2.15 0.404-2.94 1.195-0.59 0.591-1.296 0.871-2.21 0.881-0.841-0.006-1.503-0.249-2.070-0.752v-2.357c0.601 0.339 1.284 0.51 2.070 0.519zM28.897 11.86c-1.188 0.013-2.149 0.404-2.94 1.195-0.591 0.591-1.297 0.871-2.21 0.881-0.889-0.010-1.579-0.277-2.165-0.838-0.017-0.024-0.036-0.046-0.056-0.067-0.774-0.775-1.736-1.158-2.951-1.172-1.188 0.013-2.149 0.404-2.94 1.195-0.591 0.591-1.297 0.871-2.21 0.881-0.889-0.010-1.579-0.277-2.165-0.838-0.017-0.024-0.036-0.046-0.056-0.067-0.774-0.775-1.736-1.158-2.951-1.172-1.188 0.013-2.149 0.404-2.94 1.195-0.592 0.592-1.298 0.871-2.211 0.882-0.827-0.009-1.48-0.234-2.031-0.706l0.364-2.187c0.436 0.153 1.042 0.317 1.667 0.324 1.196-0.013 2.158-0.4 2.94-1.183 0.598-0.599 1.304-0.883 2.21-0.892 0.867 0.010 1.514 0.235 2.070 0.727l0.151 0.154c0.791 0.791 1.753 1.181 2.951 1.195 1.196-0.013 2.158-0.4 2.94-1.183 0.598-0.599 1.304-0.883 2.21-0.892 0.867 0.010 1.514 0.235 2.070 0.727l0.151 0.154c0.791 0.791 1.753 1.181 2.951 1.195 1.196-0.013 2.158-0.4 2.94-1.183 0.598-0.599 1.304-0.883 2.21-0.892 0.85 0.010 1.509 0.259 2.070 0.756v2.332c-0.6-0.339-1.284-0.51-2.070-0.519z"></path>
<path fill="#343433" d="M31.492 21.68l0.501-3.003c0.027-0.164-0.026-0.332-0.144-0.45-0.791-0.791-1.753-1.181-2.951-1.195-1.188 0.013-2.149 0.404-2.94 1.195-0.59 0.591-1.297 0.871-2.21 0.881-0.888-0.010-1.579-0.277-2.165-0.838-0.017-0.024-0.035-0.046-0.056-0.067-0.774-0.775-1.736-1.158-2.951-1.172-1.188 0.013-2.149 0.404-2.94 1.195-0.59 0.591-1.296 0.871-2.21 0.881-0.888-0.010-1.579-0.277-2.165-0.838-0.017-0.024-0.035-0.046-0.056-0.067-0.774-0.775-1.736-1.158-2.951-1.172-1.188 0.013-2.149 0.404-2.94 1.195-0.59 0.591-1.296 0.871-2.21 0.881-0.916-0.010-1.622-0.294-2.221-0.892-0.148-0.148-0.37-0.186-0.563-0.106-0.195 0.080-0.32 0.274-0.32 0.483v3.613c0 0.034 0.004 0.068 0.010 0.101l0.498 2.488-0.501 3.003c-0.027 0.164 0.026 0.332 0.144 0.45 0.775 0.776 1.736 1.159 2.951 1.173 1.204-0.013 2.166-0.397 2.94-1.172 0.598-0.599 1.304-0.883 2.21-0.892 0.903 0.010 1.593 0.269 2.164 0.813 0.017 0.024 0.036 0.046 0.057 0.068 0.783 0.783 1.745 1.17 2.951 1.183 1.204-0.013 2.166-0.397 2.94-1.172 0.598-0.599 1.304-0.883 2.21-0.892 0.903 0.010 1.593 0.269 2.164 0.813 0.017 0.024 0.036 0.046 0.057 0.068 0.783 0.783 1.744 1.17 2.951 1.183 1.204-0.013 2.166-0.397 2.94-1.172 0.598-0.599 1.304-0.883 2.21-0.892 0.917 0.010 1.623 0.294 2.221 0.892 0.148 0.148 0.37 0.193 0.563 0.112 0.194-0.079 0.319-0.268 0.319-0.477v-3.613c0-0.034-0.004-0.068-0.010-0.101l-0.497-2.488zM28.897 26.322c-1.188 0.013-2.15 0.404-2.94 1.195-0.59 0.591-1.276 0.859-2.21 0.87-0.895-0.010-1.585-0.273-2.164-0.825-0.017-0.024-0.036-0.047-0.057-0.068-0.775-0.775-1.736-1.158-2.951-1.172-1.188 0.013-2.15 0.404-2.94 1.195-0.59 0.591-1.276 0.859-2.21 0.87-0.895-0.010-1.585-0.273-2.164-0.825-0.017-0.024-0.036-0.047-0.057-0.068-0.775-0.775-1.736-1.158-2.951-1.172-1.188 0.013-2.15 0.404-2.94 1.195-0.591 0.592-1.277 0.86-2.211 0.871-0.846-0.010-1.483-0.226-2.031-0.694l0.364-2.188c0.436 0.153 1.042 0.317 1.667 0.324 1.195-0.013 2.157-0.401 2.94-1.183 0.599-0.599 1.304-0.883 2.221-0.892l-0.011-1.032c-1.188 0.013-2.149 0.404-2.94 1.195-0.591 0.591-1.297 0.871-2.21 0.881-0.637-0.007-1.287-0.239-1.617-0.376l-0.211-1.055c0.541 0.256 1.145 0.391 1.828 0.399 1.195-0.013 2.157-0.401 2.94-1.183 0.599-0.599 1.304-0.883 2.21-0.892 0.867 0.010 1.514 0.235 2.070 0.727l0.151 0.154c0.79 0.791 1.752 1.181 2.951 1.195 1.195-0.013 2.157-0.401 2.94-1.183 0.599-0.599 1.304-0.883 2.21-0.892 0.946 0.011 1.631 0.279 2.221 0.87l0.73-0.73c-0.774-0.775-1.736-1.158-2.951-1.172-1.188 0.013-2.149 0.404-2.94 1.195-0.591 0.591-1.297 0.871-2.21 0.881-0.841-0.010-1.505-0.249-2.070-0.75l-0.151-0.154c-0.774-0.775-1.736-1.158-2.951-1.172-1.188 0.013-2.149 0.404-2.94 1.195-0.591 0.591-1.297 0.871-2.21 0.881-0.842-0.009-1.504-0.252-2.070-0.754v-2.357c0.601 0.339 1.285 0.51 2.070 0.519 1.196-0.013 2.158-0.401 2.94-1.183 0.599-0.599 1.304-0.883 2.21-0.892 0.916 0.010 1.588 0.262 2.165 0.814 0.017 0.024 0.036 0.046 0.056 0.067 0.791 0.791 1.753 1.181 2.951 1.195 1.196-0.013 2.158-0.401 2.94-1.183 0.599-0.599 1.304-0.883 2.21-0.892 0.916 0.010 1.588 0.262 2.165 0.814 0.017 0.024 0.036 0.046 0.056 0.067 0.791 0.791 1.753 1.181 2.951 1.195 1.196-0.013 2.158-0.401 2.94-1.183 0.599-0.599 1.304-0.883 2.21-0.892 0.822 0.009 1.474 0.238 2.031 0.717l-0.365 2.192c-0.435-0.149-1.041-0.31-1.666-0.317-1.188 0.013-2.149 0.404-2.94 1.195-0.591 0.591-1.297 0.871-2.21 0.881-0.703-0.008-1.341-0.171-1.794-0.459l-0.553 0.871c0.613 0.39 1.442 0.61 2.347 0.62 1.195-0.013 2.157-0.401 2.94-1.183 0.599-0.599 1.304-0.883 2.21-0.892 0.636 0.007 1.286 0.233 1.617 0.367l0.212 1.059c-0.539-0.253-1.143-0.386-1.829-0.393-1.188 0.013-2.149 0.404-2.94 1.195-0.591 0.591-1.297 0.871-2.21 0.881-0.841-0.010-1.505-0.249-2.070-0.75l-0.151-0.154c-0.774-0.775-1.736-1.158-2.951-1.172-1.188 0.013-2.149 0.404-2.94 1.195-0.591 0.591-1.297 0.871-2.21 0.881-0.893-0.010-2.131-0.297-2.738-0.904l-0.73 0.73c0.871 0.871 2.406 1.195 3.467 1.207 1.195-0.013 2.157-0.401 2.94-1.183 0.599-0.599 1.304-0.883 2.21-0.892 0.867 0.010 1.514 0.235 2.070 0.727l0.151 0.154c0.79 0.791 1.752 1.181 2.951 1.195 1.195-0.013 2.157-0.401 2.94-1.183 0.599-0.599 1.304-0.883 2.21-0.892 0.85 0.010 1.51 0.259 2.070 0.756v2.332c-0.599-0.34-1.283-0.51-2.069-0.519z"></path>
</svg>
