<!-- Generated by IcoMoon.io -->
<svg version="1.1" xmlns="http://www.w3.org/2000/svg" width="32" height="32" viewBox="0 0 32 32">
<title>bagel</title>
<path fill="#f0bc5e" d="M11.355 4.129c-3.991 0-7.226 3.235-7.226 7.226s3.235 7.226 7.226 7.226 7.226-3.235 7.226-7.226-3.235-7.226-7.226-7.226zM11.355 16c-2.566 0-4.645-2.079-4.645-4.645s2.079-4.645 4.645-4.645 4.645 2.079 4.645 4.645-2.079 4.645-4.645 4.645z"></path>
<path fill="#f0bc5e" d="M11.355 24.258c-0.855 0-1.548 0.693-1.548 1.548s0.693 1.548 1.548 1.548h2.581v-0.516c0-1.425-1.156-2.581-2.581-2.581z"></path>
<path fill="#f0bc5e" d="M15.484 24.258c-0.855 0-1.548 0.693-1.548 1.548s0.693 1.548 1.548 1.548h2.581v-0.516c0-1.425-1.156-2.581-2.581-2.581z"></path>
<path fill="#f0bc5e" d="M19.613 24.258c-0.855 0-1.548 0.693-1.548 1.548s0.693 1.548 1.548 1.548h2.581v-0.516c0-1.425-1.156-2.581-2.581-2.581z"></path>
<path fill="#f0bc5e" d="M23.742 24.258c-0.855 0-1.548 0.693-1.548 1.548s0.693 1.548 1.548 1.548h2.581v-0.516c0-1.425-1.156-2.581-2.581-2.581z"></path>
<path fill="#f0bc5e" d="M27.871 24.258c-0.855 0-1.548 0.693-1.548 1.548s0.693 1.548 1.548 1.548h2.581v-0.516c0-1.425-1.156-2.581-2.581-2.581z"></path>
<path fill="#000" d="M30.968 26.839h-21.677c-0.569 0-1.032 0.463-1.032 1.032v1.548c0 1.423 1.158 2.581 2.581 2.581h18.581c1.423 0 2.581-1.158 2.581-2.581v-1.548c0-0.569-0.463-1.032-1.032-1.032zM30.968 29.419c0 0.854-0.695 1.548-1.548 1.548h-18.581c-0.854 0-1.548-0.695-1.548-1.548v-1.548h21.677v1.548z"></path>
<path fill="#000" d="M28.387 18.581h-8.28c1.682-2.031 2.603-4.56 2.603-7.226 0-6.261-5.094-11.355-11.355-11.355s-11.355 5.094-11.355 11.355c0 5.113 3.378 9.539 8.258 10.917v1.47c0 0.569 0.463 1.032 1.032 1.032h21.677c0.569 0 1.032-0.463 1.032-1.032v-1.548c0-1.992-1.621-3.613-3.613-3.613zM8.391 21.237c-4.356-1.3-7.358-5.285-7.358-9.882 0-5.692 4.631-10.323 10.323-10.323s10.323 4.631 10.323 10.323c0 2.718-1.047 5.283-2.949 7.224l0.002 0.002h-6.859c-1.66 0-3.059 1.127-3.48 2.656zM30.968 23.742h-21.677v-1.548c0-1.423 1.158-2.581 2.581-2.581h16.516c1.423 0 2.581 1.158 2.581 2.581v1.548z"></path>
<path fill="#000" d="M9.412 3.326l-0.243-1.003c-0.371 0.090-0.739 0.203-1.094 0.337l0.365 0.966c0.315-0.119 0.642-0.219 0.971-0.299z"></path>
<path fill="#000" d="M7.163 3.062c-3.145 1.592-5.099 4.77-5.099 8.293h1.032c0-3.132 1.737-5.957 4.533-7.372l-0.467-0.921z"></path>
<path fill="#000" d="M16.516 11.355c0-2.846-2.315-5.161-5.161-5.161s-5.161 2.315-5.161 5.161 2.315 5.161 5.161 5.161 5.161-2.315 5.161-5.161zM7.226 11.355c0-2.277 1.852-4.129 4.129-4.129s4.129 1.852 4.129 4.129-1.852 4.129-4.129 4.129-4.129-1.852-4.129-4.129z"></path>
<path fill="#000" d="M12.387 20.645h1.032v1.032h-1.032v-1.032z"></path>
<path fill="#000" d="M18.065 21.677h1.032v1.032h-1.032v-1.032z"></path>
<path fill="#000" d="M23.226 21.161h1.032v1.032h-1.032v-1.032z"></path>
<path fill="#000" d="M27.355 21.677h1.032v1.032h-1.032v-1.032z"></path>
</svg>
