<!-- Generated by IcoMoon.io -->
<svg version="1.1" xmlns="http://www.w3.org/2000/svg" width="32" height="32" viewBox="0 0 32 32">
<title>baguette</title>
<path fill="#000" d="M4.849 32c-1.264 0-2.493-0.496-3.423-1.426-1.309-1.309-1.759-3.214-1.173-4.97l0.922-2.764c1.659-4.978 4.498-9.572 8.209-13.282 3.535-3.535 7.891-6.292 12.599-7.973l3.665-1.309c1.721-0.615 3.669-0.176 4.962 1.116v0c1.292 1.293 1.731 3.24 1.116 4.962l-1.309 3.665c-1.681 4.707-4.439 9.064-7.973 12.599-3.71 3.711-8.304 6.549-13.282 8.209l-2.764 0.922c-0.51 0.17-1.032 0.252-1.548 0.252zM27.239 1.032c-0.419 0-0.839 0.070-1.244 0.215l-3.665 1.309c-4.564 1.63-8.789 4.303-12.216 7.731-3.598 3.598-6.351 8.051-7.959 12.879l-0.922 2.764c-0.461 1.383-0.107 2.882 0.924 3.914s2.532 1.386 3.914 0.924l2.764-0.922c4.828-1.609 9.281-4.362 12.879-7.959 3.428-3.428 6.1-7.652 7.731-12.216l1.309-3.665c0.482-1.348 0.138-2.872-0.873-3.885-0.708-0.708-1.667-1.088-2.64-1.088z"></path>
<path fill="#f0bc5e" d="M7.228 18.578c0 0 2.064 2.064 2.064 4.645s-2.064 4.645-2.064 4.645-2.064-2.064-2.064-4.645 2.064-4.645 2.064-4.645z"></path>
<path fill="#f0bc5e" d="M16.002 11.352c0 0 2.064 2.064 2.064 4.645s-2.064 4.645-2.064 4.645-2.064-2.064-2.064-4.645 2.064-4.645 2.064-4.645z"></path>
<path fill="#f0bc5e" d="M24.776 4.127c0 0 2.064 2.064 2.064 4.645s-2.064 4.645-2.064 4.645-2.064-2.064-2.064-4.645 2.064-4.645 2.064-4.645z"></path>
<path fill="#000" d="M11.873 22.191h1.032v1.032h-1.032v-1.032z"></path>
<path fill="#000" d="M20.647 13.933h1.032v1.032h-1.032v-1.032z"></path>
<path fill="#000" d="M20.131 5.159h1.032v1.032h-1.032v-1.032z"></path>
<path fill="#000" d="M17.551 8.772h1.032v1.032h-1.032v-1.032z"></path>
<path fill="#000" d="M9.293 12.901h1.032v1.032h-1.032v-1.032z"></path>
<path fill="#000" d="M11.873 17.029h1.032v1.032h-1.032v-1.032z"></path>
<path fill="#000" d="M9.293 15.997h1.032v1.032h-1.032v-1.032z"></path>
<path fill="#000" d="M14.97 24.255h1.032v1.032h-1.032v-1.032z"></path>
<path fill="#000" d="M9.809 26.32h1.032v1.032h-1.032v-1.032z"></path>
<path fill="#000" d="M20.131 19.094h1.032v1.032h-1.032v-1.032z"></path>
<path fill="#000" d="M28.389 4.127h1.032v1.032h-1.032v-1.032z"></path>
<path fill="#000" d="M2.583 25.287h1.032v1.032h-1.032v-1.032z"></path>
<path fill="#000" d="M4.132 28.9h1.032v1.032h-1.032v-1.032z"></path>
</svg>
