<!-- Generated by IcoMoon.io -->
<svg version="1.1" xmlns="http://www.w3.org/2000/svg" width="32" height="32" viewBox="0 0 32 32">
<title>bamboo</title>
<path fill="#f0bc5e" d="M3.894 11.882h-0.407c-1.445 0-2.778-0.778-3.487-2.059 0.709-1.281 2.042-2.059 3.487-2.059h0.406c1.335 0 2.574 0.663 3.313 1.773 0.114 0.17 0.114 0.401 0 0.571-0.74 1.11-1.979 1.773-3.313 1.773z"></path>
<path fill="#f0bc5e" d="M22.735 5.191h-1.029c-0.287 0-0.515-0.237-0.515-0.523 0.005-2.55 2.081-4.624 4.632-4.624h1.516c0.302 2.784-1.881 5.147-4.605 5.147z"></path>
<path fill="#f0bc5e" d="M19.647 6.735h-0.515c-2.843 0-5.147-2.304-5.147-5.147v-1.029h1.029c2.843 0 5.147 2.304 5.147 5.147v0.515c0 0.284-0.231 0.515-0.515 0.515z"></path>
<path fill="#f0bc5e" d="M8.838 10.338h-0.515c-0.284 0-0.515-0.231-0.515-0.515v-0.515c0-2.843 2.304-5.147 5.147-5.147h1.029v1.029c0 2.843-2.304 5.147-5.147 5.147z"></path>
<path fill="#000" d="M28.912 23.986l0.718-0.308-0.406-0.946-1.341 0.575v-5.498l0.718-0.308-0.406-0.946-1.602 0.687c-0.622-1.527-1.813-3.212-3.013-4.212l-0.329-0.274-0.329 0.275c-0.604 0.503-1.201 1.184-1.729 1.927v-8.892c1.077-1.157 2.313-2.177 3.696-3.007l-0.53-0.883c-1.656 0.994-3.119 2.241-4.357 3.67l-2.564-2.564-0.728 0.728 2.638 2.638c-1.901 2.465-3.163 5.397-3.621 8.508-1.194-2.706-3.579-4.764-6.487-5.522l2.535-2.535-0.728-0.728-3.025 3.025c-0.408-0.052-0.82-0.088-1.243-0.088h-3.088v1.029h3.088c1.488 0 2.89 0.376 4.118 1.034v3.586c-0.528-0.743-1.126-1.423-1.729-1.927l-0.329-0.275-0.329 0.275c-1.2 1-2.391 2.685-3.013 4.212l-1.601-0.687-0.406 0.946 0.717 0.307v5.498l-1.341-0.575-0.406 0.946 0.718 0.307v6.94h-1.029v1.029h27.795v-1.029h-1.029v-6.94zM27.882 30.927h-3.117c-0.073-1.18-0.389-2.311-0.924-3.335 0.791-1.273 1.928-2.259 3.313-2.852l0.728-0.312v6.499zM19.346 24.74c0.366 0.157 0.723 0.345 1.059 0.561l0.555-0.867c-0.384-0.246-0.791-0.461-1.209-0.64l-0.105-0.044v-5.498l0.728 0.312c2.592 1.111 4.304 3.621 4.41 6.428-0.582 0.474-1.101 1.023-1.537 1.635-0.429-0.603-0.932-1.158-1.521-1.638l-0.65 0.798c1.574 1.282 2.519 3.134 2.66 5.14h-5.118v-6.499l0.728 0.312zM26.853 23.749l-0.105 0.045c-0.341 0.146-0.669 0.321-0.986 0.511-0.185-1.593-0.824-3.076-1.812-4.29 0.633-0.61 1.359-1.102 2.174-1.451l0.728-0.312v5.498zM23.25 14.116c0.963 0.918 1.9 2.304 2.398 3.536-0.893 0.393-1.692 0.934-2.391 1.604-0.69-0.661-1.499-1.207-2.403-1.605 0.497-1.232 1.434-2.617 2.397-3.535zM11.926 12.028c2.179 1.593 3.603 4.16 3.603 7.060h1.029v-1.319c0-3.836 1.314-7.523 3.603-10.49v9.4c-0.092 0.189-0.178 0.378-0.254 0.565l-1.602-0.687-0.406 0.946 0.718 0.307v5.498l-1.341-0.575-0.406 0.946 0.718 0.308v6.94h-3.088v-6.94l0.718-0.308-0.406-0.946-1.341 0.575v-5.498l0.718-0.308-0.406-0.946-1.602 0.687c-0.076-0.186-0.162-0.375-0.254-0.565v-4.65zM12.742 24.74l0.728-0.312v6.499h-3.107c-0.073-1.187-0.398-2.32-0.931-3.339 0.791-1.271 1.927-2.256 3.31-2.848zM8.838 14.116c0.963 0.918 1.9 2.304 2.398 3.536-0.894 0.393-1.694 0.936-2.394 1.606-0.697-0.668-1.508-1.215-2.401-1.607 0.498-1.232 1.434-2.618 2.397-3.536zM5.235 18.251l0.729 0.312c1.543 0.661 2.82 1.846 3.596 3.336l0.913-0.476c-0.262-0.503-0.58-0.972-0.935-1.408 0.634-0.61 1.359-1.104 2.175-1.453l0.728-0.312v5.498l-0.104 0.045c-0.341 0.146-0.668 0.32-0.985 0.51-0.079-0.685-0.239-1.357-0.486-2.005l-0.962 0.367c0.285 0.746 0.438 1.528 0.467 2.325-0.58 0.472-1.097 1.019-1.533 1.629-0.868-1.22-2.062-2.211-3.5-2.827l-0.103-0.045v-5.498zM4.205 24.428l0.728 0.312c2.526 1.082 4.209 3.475 4.4 6.187h-5.128v-6.499z"></path>
<path fill="#000" d="M30.971 30.927h1.029v1.029h-1.029v-1.029z"></path>
<path fill="#000" d="M0.087 30.927h1.029v1.029h-1.029v-1.029z"></path>
</svg>
