<!-- Generated by IcoMoon.io -->
<svg version="1.1" xmlns="http://www.w3.org/2000/svg" width="32" height="32" viewBox="0 0 32 32">
<title>bar</title>
<path fill="#f0bc5e" d="M14.452 28.387h-10.323v-3.097h10.323z"></path>
<path fill="#f0bc5e" d="M27.871 28.387h-10.323v-3.097h10.323z"></path>
<path fill="#f0bc5e" d="M18.581 6.496v-2.367h-3.097v2.367l-1.032 1.032v2.794h5.161v-2.794z"></path>
<path fill="#000" d="M12.387 29.419h-6.194v-1.032h-1.032v3.613h1.032v-1.548h6.194v1.548h1.032v-3.613h-1.032z"></path>
<path fill="#000" d="M25.806 29.419h-6.194v-1.032h-1.032v3.613h1.032v-1.548h6.194v1.548h1.032v-3.613h-1.032z"></path>
<path fill="#000" d="M32 0h-22.71v3.097h21.677v6.71h-2.581v-1.032h-3.097v1.032h-2.065v-1.548h0.953l0.689-4.129h-4.316l0.689 4.129h0.953v1.548h-8.774v3.097h11.789c-0.088 0.241-0.242 0.456-0.463 0.603-0.628 0.419-1.004 1.12-1.004 1.876v4.231h-2.581v-1.548h0.953l0.689-4.129h-4.316l0.689 4.129h0.953v1.548h-4.645v-3.625c0-1.149-0.739-2.142-1.839-2.472l-3.322-0.997v-0.785c0.935-0.654 1.548-1.736 1.548-2.96v-1.548c0-1.992-1.621-3.613-3.613-3.613s-3.613 1.621-3.613 3.613v1.548c0 1.224 0.614 2.307 1.548 2.96v0.785l-3.322 0.997c-1.1 0.33-1.839 1.323-1.839 2.472v3.625h-1.032v3.097h1.032v9.29h1.032v-9.29h27.871v9.29h1.032v-9.29h1.032zM21.771 5.161h1.878l-0.344 2.065h-1.191zM19.706 14.968h1.878l-0.344 2.065h-1.191zM10.323 2.065v-1.032h20.645v1.032zM30.968 10.839v1.032h-2.581v-1.032zM27.355 9.806v1.032h-1.032v-1.032zM14.452 10.839h10.839v1.032h-10.839zM24.774 15.382c0-0.41 0.204-0.79 0.545-1.017 0.628-0.419 1.004-1.12 1.004-1.876v-0.618h1.032v0.618c0 0.756 0.376 1.457 1.004 1.876 0.341 0.227 0.545 0.607 0.545 1.017v4.231h-4.129zM5.677 8.774v-1.548c0-1.423 1.158-2.581 2.581-2.581s2.581 1.158 2.581 2.581v1.548c0 1.423-1.158 2.581-2.581 2.581s-2.581-1.158-2.581-2.581zM2.065 15.988c0-0.689 0.443-1.285 1.104-1.483l4.058-1.217v-1.052c0.327 0.098 0.674 0.152 1.032 0.152s0.705-0.054 1.032-0.152v1.052l4.058 1.217c0.66 0.198 1.104 0.794 1.104 1.483v3.625h-2.065v-2.581h-1.032v2.581h-6.194v-2.581h-1.032v2.581h-2.065zM30.968 21.677h-29.935v-1.032h29.935zM29.935 19.613v-4.231c0-0.756-0.376-1.457-1.004-1.876-0.221-0.147-0.375-0.361-0.463-0.603h2.499v6.71z"></path>
<path fill="#f0bc5e" d="M9.769 16.596l-1.511-1.007-1.511 1.007-0.608-0.304c-0.603-0.301-0.978-0.907-0.978-1.582s0.375-1.28 0.978-1.582l0.608-0.304 1.511 1.007 1.511-1.007 0.608 0.304c0.603 0.301 0.978 0.907 0.978 1.582s-0.375 1.28-0.978 1.582z"></path>
</svg>
