<!-- Generated by IcoMoon.io -->
<svg version="1.1" xmlns="http://www.w3.org/2000/svg" width="32" height="32" viewBox="0 0 32 32">
<title>bartender</title>
<path fill="#f0bc5e" d="M17.877 3.7l-0.45-0.63c-1.373-1.922-3.604-3.070-5.966-3.070-4.043 0-7.332 3.289-7.332 7.332v4.539h0.516c0-1.14 0.924-2.065 2.065-2.065h0.167c0.846 0 1.62-0.478 1.999-1.235 0.254-0.508 0.773-0.829 1.341-0.829 0.398 0 0.78 0.158 1.061 0.439l0.593 0.593 0.593-0.593c0.281-0.281 0.663-0.439 1.061-0.439 0.568 0 1.087 0.321 1.341 0.829 0.379 0.757 1.152 1.235 1.999 1.235h0.167c1.14 0 2.065 0.924 2.065 2.065h0.516v-5.594c0-1.14-0.691-2.155-1.736-2.577z"></path>
<path fill="#f0bc5e" d="M15.119 19.55l-0.629-0.629-2.139 1.71 0.645 0.806v0.479l-0.645 0.806 2.139 1.71 0.629-0.629c0.56-0.559 0.881-1.334 0.881-2.126s-0.321-1.567-0.881-2.127z"></path>
<path fill="#f0bc5e" d="M10.746 21.439l0.645-0.806-2.139-1.71-0.629 0.629c-0.559 0.559-0.881 1.335-0.881 2.127s0.321 1.567 0.881 2.127l0.629 0.629 2.138-1.71-0.645-0.806z"></path>
<path fill="#f0bc5e" d="M21.717 17.548l3.573 5.161h1.032l3.573-5.161z"></path>
<path fill="#000" d="M11.871 16.516c1.139 0 2.065-0.926 2.065-2.065h-1.032c0 0.569-0.463 1.032-1.032 1.032s-1.032-0.463-1.032-1.032h-1.032c0 1.139 0.926 2.065 2.065 2.065z"></path>
<path fill="#000" d="M14.968 10.839c0 0.285-0.231 0.516-0.516 0.516s-0.516-0.231-0.516-0.516 0.231-0.516 0.516-0.516 0.516 0.231 0.516 0.516z"></path>
<path fill="#000" d="M9.806 10.839c0 0.285-0.231 0.516-0.516 0.516s-0.516-0.231-0.516-0.516 0.231-0.516 0.516-0.516 0.516 0.231 0.516 0.516z"></path>
<path fill="#000" d="M13.419 25.806h1.032v1.032h-1.032z"></path>
<path fill="#000" d="M13.419 28.387h1.032v1.032h-1.032z"></path>
<path fill="#000" d="M26.323 23.226h0.27l5.36-7.742h-3.145c0.058-0.162 0.095-0.334 0.095-0.516 0-0.854-0.695-1.548-1.548-1.548-0.389 0-0.741 0.149-1.014 0.387-0.552-0.853-1.51-1.419-2.599-1.419h-1.032v1.032c0 0.794 0.302 1.516 0.795 2.065h-3.845l5.36 7.742h0.27v7.742h-1.548v-6.379c0-2.234-1.593-4.154-3.789-4.566l-4.469-0.838v-1.389c1.018-0.842 1.733-2.033 1.973-3.387 1.221-0.204 2.157-1.26 2.157-2.538 0-1.246-0.888-2.289-2.065-2.528v-1.084h-1.032v0.993c-0.51-0.105-0.949-0.431-1.188-0.911-0.344-0.688-1.035-1.114-1.803-1.114-0.538 0-1.045 0.209-1.426 0.59l-0.228 0.228-0.228-0.228c-0.381-0.381-0.887-0.59-1.426-0.59-0.768 0-1.46 0.427-1.803 1.114-0.239 0.479-0.679 0.806-1.188 0.911v-0.993h-1.032v1.084c-1.176 0.24-2.065 1.283-2.065 2.528 0 1.277 0.936 2.334 2.156 2.538 0.239 1.353 0.954 2.545 1.973 3.387v1.389l-4.469 0.838c-2.196 0.411-3.789 2.332-3.789 4.566v7.412h29.935v-1.032h-3.613zM27.355 14.452c0.284 0 0.516 0.232 0.516 0.516s-0.232 0.516-0.516 0.516-0.516-0.232-0.516-0.516 0.232-0.516 0.516-0.516zM23.742 13.419c1.139 0 2.065 0.926 2.065 2.065-1.139 0-2.065-0.926-2.065-2.065zM21.631 16.516h8.352l-3.93 5.677h-0.491zM18.581 11.871c0 0.672-0.433 1.24-1.032 1.453v-2.906c0.599 0.213 1.032 0.781 1.032 1.453zM5.161 11.871c0-0.672 0.433-1.24 1.032-1.453v2.906c-0.599-0.213-1.032-0.781-1.032-1.453zM7.226 13.419v-3.121c0.905-0.114 1.696-0.664 2.111-1.496 0.168-0.336 0.505-0.544 0.88-0.544 0.259 0 0.513 0.105 0.696 0.288l0.958 0.958 0.958-0.958c0.183-0.183 0.437-0.288 0.696-0.288 0.375 0 0.712 0.208 0.88 0.544 0.416 0.832 1.206 1.383 2.111 1.496v3.121c0 2.561-2.084 4.645-4.645 4.645s-4.645-2.084-4.645-4.645zM1.032 24.588c0-1.737 1.239-3.231 2.947-3.551l4.117-0.771c0.139-0.262 0.316-0.504 0.527-0.715l0.629-0.629 0.038 0.030v-0.482c0.775 0.398 1.651 0.627 2.581 0.627s1.805-0.229 2.581-0.627v0.482l0.038-0.030 0.629 0.629c0.211 0.211 0.388 0.453 0.527 0.715l4.117 0.771c1.708 0.32 2.947 1.814 2.947 3.551v6.379h-3.097v-6.71h-1.032v6.71h-6.194v-7.837c0.599-0.214 1.032-0.782 1.032-1.453 0-0.854-0.695-1.548-1.548-1.548s-1.548 0.695-1.548 1.548c0 0.672 0.433 1.24 1.032 1.453v7.837h-6.194v-6.71h-1.032v6.71h-3.097zM11.355 21.677c0-0.284 0.232-0.516 0.516-0.516s0.516 0.232 0.516 0.516-0.232 0.516-0.516 0.516-0.516-0.232-0.516-0.516z"></path>
</svg>
