<!-- Generated by IcoMoon.io -->
<svg version="1.1" xmlns="http://www.w3.org/2000/svg" width="32" height="32" viewBox="0 0 32 32">
<title>basket</title>
<path fill="#333" d="M14.968 26.839h2.065v1.032h-2.064v-1.032z"></path>
<path fill="#333" d="M27.729 28.74c-0.176 1.27-1.275 2.228-2.557 2.228h-18.344c-1.282 0-2.381-0.958-2.557-2.228l-1.114-8.082-1.022 0.141 1.114 8.082c0.246 1.778 1.785 3.119 3.579 3.119h18.344c1.795 0 3.334-1.341 3.579-3.119l1.054-7.643-1.022-0.141-1.054 7.643z"></path>
<path fill="#ffa64d" d="M30.22 16.165h-28.384c-1.256 1.537-0.884 3.987 0.827 5.462 0.904 0.779 2.059 1.159 3.14 1.064 0.132 1.465 1.233 2.835 2.824 3.414 1.374 0.5 2.836 0.331 3.895-0.415 0.748 1.029 2.047 1.666 3.478 1.666 1.448 0 2.754-0.648 3.498-1.694 1.059 0.759 2.557 0.945 3.931 0.443 1.591-0.579 2.692-1.949 2.824-3.414 1.077 0.098 2.235-0.284 3.139-1.064 1.712-1.475 2.083-3.925 0.828-5.462z"></path>
<path fill="#333" d="M6.71 28.903h2.064v1.032h-2.064v-1.032z"></path>
<path fill="#333" d="M10.839 28.903h2.064v1.032h-2.064v-1.032z"></path>
<path fill="#333" d="M14.968 28.903h2.065v1.032h-2.064v-1.032z"></path>
<path fill="#333" d="M19.097 28.903h2.064v1.032h-2.064v-1.032z"></path>
<path fill="#333" d="M23.226 28.903h2.064v1.032h-2.064v-1.032z"></path>
<path fill="#333" d="M6.71 26.839h2.064v1.032h-2.064v-1.032z"></path>
<path fill="#333" d="M10.839 26.839h2.064v1.032h-2.064v-1.032z"></path>
<path fill="#333" d="M19.097 26.839h2.064v1.032h-2.064v-1.032z"></path>
<path fill="#333" d="M23.226 26.839h2.064v1.032h-2.064v-1.032z"></path>
<path fill="#333" d="M29.419 11.871h-5.11c-0.007-0.27-0.045-0.542-0.142-0.809-0.211-0.58-0.616-1.029-1.109-1.323l-3.047-8.377c-0.188-0.519-0.568-0.934-1.068-1.167-0.502-0.234-1.062-0.258-1.582-0.069-0.736 0.268-1.22 0.917-1.328 1.644-0.108-0.727-0.591-1.375-1.329-1.644-0.519-0.188-1.080-0.165-1.581 0.069-0.501 0.233-0.88 0.648-1.069 1.167l-3.046 8.377c-0.493 0.294-0.899 0.743-1.11 1.323-0.096 0.264-0.136 0.536-0.144 0.809h-5.173c-1.423 0-2.581 1.158-2.581 2.581s1.158 2.581 2.581 2.581h2.092c0.391 4.029 5.32 7.226 11.327 7.226s10.936-3.196 11.327-7.226h2.092c1.423 0 2.581-1.158 2.581-2.581s-1.158-2.581-2.581-2.581zM22.271 13.4c-0.389 0.142-0.809 0.123-1.184-0.052-0.374-0.174-0.659-0.485-0.8-0.873s-0.123-0.809 0.052-1.184c0.174-0.375 0.485-0.659 0.873-0.801 0.174-0.063 0.352-0.093 0.528-0.093 0.633 0 1.228 0.391 1.457 1.019 0.292 0.803-0.123 1.693-0.925 1.985zM17.714 1.096c0.261-0.093 0.541-0.082 0.792 0.035s0.441 0.325 0.535 0.585l2.783 7.654c-0.32-0.011-0.647 0.035-0.965 0.151-0.37 0.135-0.69 0.354-0.956 0.627l-2.808-7.722c-0.195-0.537 0.083-1.133 0.619-1.329zM15.94 2.777c0.044-0.121 0.072-0.244 0.093-0.366 0.021 0.122 0.049 0.245 0.093 0.366l3.11 8.552c-0.044 0.178-0.066 0.36-0.071 0.542h-6.264c-0.005-0.182-0.027-0.364-0.071-0.542l3.11-8.552zM13.024 1.715c0.095-0.26 0.285-0.468 0.536-0.585 0.249-0.118 0.531-0.13 0.791-0.035 0.537 0.196 0.814 0.791 0.619 1.328l-2.808 7.722c-0.267-0.273-0.587-0.492-0.956-0.626-0.318-0.117-0.645-0.162-0.965-0.151l2.783-7.654zM8.868 11.415c0.292-0.803 1.181-1.216 1.985-0.925 0.389 0.141 0.699 0.426 0.873 0.801s0.194 0.795 0.052 1.184-0.426 0.699-0.801 0.873c-0.375 0.175-0.794 0.194-1.184 0.052-0.389-0.141-0.699-0.426-0.873-0.8-0.175-0.375-0.194-0.795-0.052-1.184zM5.718 17.032h1.294l0.716 0.716 0.715-0.716h2.182l-1.077 1.077-0.528-0.528-0.73 0.73 0.528 0.528-1.4 1.4c-0.959-0.931-1.561-2.027-1.701-3.207zM18.536 22.968l1.335-1.335 0.845 0.845c-0.674 0.226-1.391 0.403-2.141 0.529l-0.039-0.039zM17.806 22.238l-1.335-1.335 1.335-1.335 1.335 1.335-1.335 1.335zM10.883 20.903l-1.003 1.003c-0.611-0.294-1.171-0.629-1.669-1.001l1.337-1.337 1.335 1.335zM10.278 18.839l1.335-1.335 1.335 1.335-1.335 1.335-1.335-1.335zM11.613 21.633l1.281 1.281c-0.7-0.144-1.365-0.338-1.991-0.571l0.71-0.71zM12.343 20.903l1.335-1.335 1.335 1.335-1.335 1.335-1.335-1.335zM14.407 18.839l1.335-1.335 1.335 1.335-1.335 1.335-1.335-1.335zM18.536 18.839l1.335-1.335 1.335 1.335-1.335 1.335-1.335-1.335zM20.859 17.032h2.153l-1.077 1.077-1.077-1.077zM17.806 18.109l-1.077-1.077h2.153l-1.077 1.077zM13.677 18.109l-1.077-1.077h2.153l-1.077 1.077zM14.596 23.156l-0.188-0.188 1.335-1.335 1.335 1.335-0.23 0.23c-0.28 0.015-0.561 0.028-0.846 0.028-0.477 0-0.944-0.028-1.404-0.070zM24.308 20.482l-0.475-0.475-0.73 0.73 0.384 0.384c-0.518 0.356-1.088 0.679-1.715 0.955l-1.173-1.173 1.335-1.335 0.543 0.543 0.73-0.73-0.543-0.543 1.806-1.806h1.811c-0.152 1.285-0.862 2.467-1.974 3.449zM29.419 16h-26.838c-0.854 0-1.548-0.695-1.548-1.548s0.695-1.548 1.548-1.548h5.357c0.018 0.043 0.026 0.089 0.046 0.132 0.291 0.625 0.809 1.099 1.456 1.334 0.288 0.105 0.587 0.157 0.884 0.157 0.372 0 0.742-0.082 1.089-0.243 0.599-0.279 1.053-0.77 1.298-1.381h6.642c0.245 0.611 0.699 1.101 1.298 1.381 0.347 0.162 0.717 0.243 1.089 0.243 0.297 0 0.596-0.053 0.884-0.157 0.715-0.26 1.237-0.81 1.501-1.466h5.294c0.854 0 1.548 0.695 1.548 1.548s-0.695 1.548-1.548 1.548z"></path>
</svg>
