<!-- Generated by IcoMoon.io -->
<svg version="1.1" xmlns="http://www.w3.org/2000/svg" width="32" height="32" viewBox="0 0 32 32">
<title>bbq-2</title>
<path fill="#ffa64d" d="M0.516 9.806h30.968v4.129h-30.968v-4.129z"></path>
<path fill="#ffa64d" d="M5.161 13.935v1.032c0 0.854 0.695 1.548 1.548 1.548h3.097c0.854 0 1.548-0.695 1.548-1.548v-1.032h-6.194z"></path>
<path fill="#ffa64d" d="M20.645 13.935v1.032c0 0.854 0.695 1.548 1.548 1.548h3.097c0.854 0 1.548-0.695 1.548-1.548v-1.032h-6.194z"></path>
<path fill="#333" d="M29.419 0.516c-1.423 0-2.581 1.158-2.581 2.581h-5.677v-2.065c0-0.569-0.463-1.032-1.032-1.032h-8.258c-0.569 0-1.032 0.463-1.032 1.032v2.065h-5.677c0-1.423-1.158-2.581-2.581-2.581s-2.581 1.158-2.581 2.581v19.097h1.548v9.806h3.495l2.581-9.806h16.753l2.581 9.806h3.494v-9.806h1.548v-19.097c0-1.423-1.158-2.581-2.581-2.581zM30.968 10.323v3.097h-1.548v-3.097h1.548zM28.387 13.419h-1.548v-3.097h1.548v3.097zM1.032 13.419v-3.097h1.548v3.097h-1.548zM3.613 10.323h1.548v3.097h-1.548v-3.097zM6.194 10.323h1.548v3.097h-1.548v-3.097zM8.774 10.323h1.548v3.097h-1.548v-3.097zM11.355 10.323h1.548v3.097h-1.548v-3.097zM13.935 10.323h1.548v3.097h-1.548v-3.097zM16.516 10.323h1.548v3.097h-1.548v-3.097zM19.097 10.323h1.548v3.097h-1.548v-3.097zM21.677 10.323h1.548v3.097h-1.548v-3.097zM24.258 10.323h1.548v3.097h-1.548v-3.097zM11.871 1.032h8.258v2.065h-8.258v-2.065zM26.839 4.129v5.161h-21.677v-5.161h21.677zM1.032 3.097c0-0.854 0.695-1.548 1.548-1.548s1.548 0.695 1.548 1.548v6.194h-3.097v-6.194zM4.247 30.968h-1.667v-6.71h3.432l-1.766 6.71zM6.285 23.226h-3.704v-1.032h3.976l-0.271 1.032zM27.753 30.968l-1.766-6.71h3.432v6.71h-1.667zM29.419 23.226h-3.704l-0.271-1.032h3.976v1.032zM30.968 21.161h-29.935v-6.71h29.935v6.71zM27.871 9.29v-6.194c0-0.854 0.695-1.548 1.548-1.548s1.548 0.695 1.548 1.548v6.194h-3.097z"></path>
</svg>
