<!-- Generated by IcoMoon.io -->
<svg version="1.1" xmlns="http://www.w3.org/2000/svg" width="32" height="32" viewBox="0 0 32 32">
<title>bbq-1</title>
<path fill="#ffa64d" d="M7.742 10.323h16.516v7.226h-16.516v-7.226z"></path>
<path fill="#ffa64d" d="M19.097 4.645h-6.194c-0.854 0-1.548 0.695-1.548 1.548v2.065h9.29v-2.065c0-0.854-0.695-1.548-1.548-1.548z"></path>
<path fill="#333" d="M24.774 9.806v-6.194c0-1.992-1.621-3.613-3.613-3.613h-10.323c-1.992 0-3.613 1.621-3.613 3.613v6.194h-7.226v5.677c0 1.423 1.158 2.581 2.581 2.581h2.581v9.29h0.016c-0.632 0.471-1.048 1.218-1.048 2.065 0 1.423 1.158 2.581 2.581 2.581s2.581-1.158 2.581-2.581c0-0.847-0.416-1.594-1.048-2.065h0.016v-1.032h15.484v1.032h0.016c-0.632 0.471-1.048 1.218-1.048 2.065 0 1.423 1.158 2.581 2.581 2.581s2.581-1.158 2.581-2.581c0-0.847-0.416-1.594-1.048-2.065h0.016v-9.29h2.581c1.423 0 2.581-1.158 2.581-2.581v-5.677h-7.226zM10.839 1.032h10.323c1.423 0 2.581 1.158 2.581 2.581v4.129h-15.484v-4.129c0-1.423 1.158-2.581 2.581-2.581zM8.258 8.774h15.484v1.032h-15.484v-1.032zM23.742 20.129h-15.484v-2.065h15.484v2.065zM8.258 17.032v-6.194h15.484v6.194h-15.484zM2.581 17.032c-0.854 0-1.548-0.695-1.548-1.548v-4.645h6.194v6.194h-4.645zM7.226 18.065v1.032h-1.032v-1.032h1.032zM6.71 30.968c-0.854 0-1.548-0.695-1.548-1.548s0.695-1.548 1.548-1.548 1.548 0.695 1.548 1.548-0.695 1.548-1.548 1.548zM6.71 26.839c-0.177 0-0.349 0.018-0.516 0.052v-6.762h1.032v6.762c-0.167-0.034-0.34-0.052-0.516-0.052zM8.258 25.29v-4.129h15.484v4.129h-15.484zM25.29 30.968c-0.854 0-1.548-0.695-1.548-1.548s0.695-1.548 1.548-1.548 1.548 0.695 1.548 1.548-0.695 1.548-1.548 1.548zM25.29 26.839c-0.177 0-0.349 0.018-0.516 0.052v-6.762h1.032v6.762c-0.167-0.034-0.34-0.052-0.516-0.052zM25.806 19.097h-1.032v-1.032h1.032v1.032zM30.968 15.484c0 0.854-0.695 1.548-1.548 1.548h-4.645v-6.194h6.194v4.645z"></path>
<path fill="#333" d="M20.645 11.871c-1.139 0-2.065 0.926-2.065 2.065s0.926 2.065 2.065 2.065 2.065-0.926 2.065-2.065-0.926-2.065-2.065-2.065zM19.613 13.935c0-0.38 0.209-0.71 0.516-0.889v1.777c-0.307-0.179-0.516-0.508-0.516-0.888zM21.161 14.824v-1.777c0.307 0.179 0.516 0.508 0.516 0.889s-0.209 0.709-0.516 0.888z"></path>
<path fill="#333" d="M11.355 11.871c-1.139 0-2.065 0.926-2.065 2.065s0.926 2.065 2.065 2.065 2.065-0.926 2.065-2.065-0.926-2.065-2.065-2.065zM10.323 13.935c0-0.38 0.209-0.71 0.516-0.889v1.777c-0.307-0.179-0.516-0.508-0.516-0.888zM11.871 14.824v-1.777c0.307 0.179 0.516 0.508 0.516 0.889s-0.209 0.709-0.516 0.888z"></path>
<path fill="#333" d="M15.484 13.935h1.032v1.032h-1.032v-1.032z"></path>
</svg>
