<!-- Generated by IcoMoon.io -->
<svg version="1.1" xmlns="http://www.w3.org/2000/svg" width="32" height="32" viewBox="0 0 32 32">
<title>bbq-4</title>
<path fill="#ffa64d" d="M31.484 11.871v2.581l-5.677 3.613h-19.613l-5.677-3.613v-2.581z"></path>
<path fill="#ffa64d" d="M12.387 3.097h7.226v2.581h-7.226v-2.581z"></path>
<path fill="#333" d="M16 12.903c-1.139 0-2.065 0.926-2.065 2.065s0.926 2.065 2.065 2.065 2.065-0.926 2.065-2.065-0.926-2.065-2.065-2.065zM14.968 14.968c0-0.38 0.209-0.71 0.516-0.889v1.777c-0.307-0.179-0.516-0.508-0.516-0.888zM16.516 15.857v-1.777c0.307 0.179 0.516 0.508 0.516 0.889s-0.209 0.709-0.516 0.888z"></path>
<path fill="#333" d="M10.839 12.903c-1.139 0-2.065 0.926-2.065 2.065s0.926 2.065 2.065 2.065 2.065-0.926 2.065-2.065-0.926-2.065-2.065-2.065zM9.806 14.968c0-0.38 0.209-0.71 0.516-0.889v1.777c-0.307-0.179-0.516-0.508-0.516-0.888zM11.355 15.857v-1.777c0.307 0.179 0.516 0.508 0.516 0.889s-0.209 0.709-0.516 0.888z"></path>
<path fill="#333" d="M9.806 19.613h4.129v1.032h-4.129v-1.032z"></path>
<path fill="#333" d="M32 14.735v-3.38h-3.097v-5.935c0-0.996-0.81-1.806-1.806-1.806-0.278 0-0.539 0.069-0.774 0.181v-2.246c0-0.854-0.695-1.548-1.548-1.548h-17.548c-0.854 0-1.548 0.695-1.548 1.548v2.246c-0.235-0.113-0.496-0.181-0.774-0.181-0.996 0-1.806 0.81-1.806 1.806v5.935h-3.097v3.38l3.097 1.971v9.101h-1.548v3.097h1.111l0.516 3.097h3.971l0.516-3.097h16.674l0.516 3.097h3.971l0.516-3.097h1.112v-3.097h-1.548v-9.101l3.097-1.971zM30.968 14.168l-5.311 3.38h-0.882v-5.161h6.194v1.781zM16.516 25.806v-7.226h7.226v7.226h-7.226zM15.484 25.806h-7.226v-7.226h7.226v7.226zM8.258 17.548v-5.161h15.484v5.161h-15.484zM6.71 9.806h1.032v1.548h-1.032v-1.548zM25.29 11.355h-1.032v-1.548h1.032v1.548zM23.226 11.355h-1.032v-1.548h1.032v1.548zM21.161 11.355h-1.032v-1.548h1.032v1.548zM19.097 11.355h-1.032v-1.548h1.032v1.548zM17.032 11.355h-2.065v-1.548h2.065v1.548zM13.935 11.355h-1.032v-1.548h1.032v1.548zM11.871 11.355h-1.032v-1.548h1.032v1.548zM9.806 11.355h-1.032v-1.548h1.032v1.548zM27.097 4.645c0.427 0 0.774 0.347 0.774 0.774v5.935h-1.548v-5.935c0-0.427 0.347-0.774 0.774-0.774zM7.226 1.032h17.548c0.285 0 0.516 0.231 0.516 0.516v3.613h-1.032v1.032h1.032v2.581h-18.581v-2.581h16.516v-1.032h-16.516v-3.613c0-0.285 0.231-0.516 0.516-0.516zM4.129 5.419c0-0.427 0.347-0.774 0.774-0.774s0.774 0.347 0.774 0.774v5.935h-1.548v-5.935zM1.032 12.387h6.194v5.161h-0.882l-5.311-3.38v-1.781zM6.273 30.968h-2.222l-0.344-2.065h2.91l-0.344 2.065zM27.95 30.968h-2.223l-0.344-2.065h2.91l-0.344 2.065zM27.871 25.806h-1.032v1.032h2.581v1.032h-26.839v-1.032h2.581v-1.032h-1.032v-8.444l1.914 1.218h1.182v7.226h-1.032v1.032h19.613v-1.032h-1.032v-7.226h1.182l1.914-1.218v8.444z"></path>
<path fill="#333" d="M21.161 12.903c-1.139 0-2.065 0.926-2.065 2.065s0.926 2.065 2.065 2.065 2.065-0.926 2.065-2.065-0.926-2.065-2.065-2.065zM20.129 14.968c0-0.38 0.209-0.71 0.516-0.889v1.777c-0.307-0.179-0.516-0.508-0.516-0.888zM21.677 15.857v-1.777c0.307 0.179 0.516 0.508 0.516 0.889s-0.209 0.709-0.516 0.888z"></path>
<path fill="#333" d="M18.065 19.613h4.129v1.032h-4.129v-1.032z"></path>
<path fill="#ffa64d" d="M9.806 18.581h4.129v1.032h-4.129v-1.032z"></path>
<path fill="#ffa64d" d="M18.065 18.581h4.129v1.032h-4.129v-1.032z"></path>
</svg>
