<!-- Generated by IcoMoon.io -->
<svg version="1.1" xmlns="http://www.w3.org/2000/svg" width="32" height="32" viewBox="0 0 32 32">
<title>bbq-3</title>
<path fill="#ffa64d" d="M3.613 8.774v3.274c0 1.869 0.743 3.662 2.065 4.984h2.065v-8.258h-4.129z"></path>
<path fill="#ffa64d" d="M28.387 8.774v3.274c0 1.869-0.743 3.662-2.065 4.984h-2.065v-8.258h4.129z"></path>
<path fill="#333" d="M29.935 8.258v-4.645c0-1.992-1.621-3.613-3.613-3.613h-20.645c-1.992 0-3.613 1.621-3.613 3.613v4.645h-2.065v4.645c0 2.387 1.81 4.357 4.129 4.615v10.353h-2.065v4.129h3.097v-1.032h2.065v-4.129h17.548v4.129h2.065v1.032h3.097v-4.129h-2.065v-10.353c2.319-0.258 4.129-2.228 4.129-4.615v-4.645h-2.065zM3.097 3.613c0-1.423 1.158-2.581 2.581-2.581h20.645c1.423 0 2.581 1.158 2.581 2.581v4.645h-25.806v-4.645zM5.905 16.516c-1.143-1.215-1.776-2.792-1.776-4.468v-2.758h3.097v7.226h-1.321zM24.774 17.548v6.194h-17.548v-6.194h17.548zM8.258 16.516v-7.226h15.484v7.226h-15.484zM1.032 12.903v-3.613h2.065v2.758c0 1.629 0.519 3.175 1.467 4.464-1.954-0.044-3.531-1.644-3.531-3.609zM3.097 30.968v-2.065h1.032v2.065h-1.032zM6.194 29.935h-1.032v-12.387h1.032v12.387zM7.226 25.806v-1.032h17.548v1.032h-17.548zM28.903 28.903v2.065h-1.032v-2.065h1.032zM26.839 29.935h-1.032v-12.387h1.032v12.387zM30.968 12.903c0 1.964-1.577 3.565-3.531 3.609 0.948-1.289 1.467-2.835 1.467-4.464v-0.693h-1.032v0.693c0 1.676-0.633 3.253-1.776 4.468h-1.321v-7.226h3.097v1.032h1.032v-1.032h2.065v3.613z"></path>
<path fill="#333" d="M10.839 4.129h2.065v1.032h-2.065v-1.032z"></path>
<path fill="#333" d="M16 4.129h2.065v1.032h-2.065v-1.032z"></path>
<path fill="#333" d="M26.323 3.097h-2.581v-1.032h-1.032v2.065h-1.548v1.032h1.548v2.065h1.032v-1.032h2.581c0.854 0 1.548-0.695 1.548-1.548s-0.695-1.548-1.548-1.548zM26.323 5.161h-2.581v-1.032h2.581c0.285 0 0.516 0.231 0.516 0.516s-0.231 0.516-0.516 0.516z"></path>
<path fill="#ffa64d" d="M9.29 6.71c-1.139 0-2.065-0.926-2.065-2.065s0.926-2.065 2.065-2.065 2.065 0.926 2.065 2.065-0.926 2.065-2.065 2.065z"></path>
<path fill="#ffa64d" d="M19.613 6.71c-1.139 0-2.065-0.926-2.065-2.065s0.926-2.065 2.065-2.065 2.065 0.926 2.065 2.065-0.926 2.065-2.065 2.065z"></path>
<path fill="#ffa64d" d="M15.484 6.71h-2.065c-0.569 0-1.032-0.463-1.032-1.032v-2.065c0-0.569 0.463-1.032 1.032-1.032h2.065c0.569 0 1.032 0.463 1.032 1.032v2.065c0 0.569-0.463 1.032-1.032 1.032z"></path>
</svg>
