<!-- Generated by IcoMoon.io -->
<svg version="1.1" xmlns="http://www.w3.org/2000/svg" width="32" height="32" viewBox="0 0 32 32">
<title>bbq</title>
<path fill="#333" d="M30.225 28.856l-5.777-12.555-0.937 0.431 5.786 12.577c0.080 0.155 0.122 0.329 0.122 0.502v0.069c0 0.6-0.488 1.089-1.089 1.089-0.408 0-0.779-0.226-0.956-0.565l-5.745-12.553-0.469 0.215h-1.032v2.581h-8.258v-2.581h-1.032l-0.469-0.215-5.734 12.531c-0.188 0.362-0.558 0.587-0.967 0.587-0.6 0-1.089-0.488-1.089-1.089v-0.069c0-0.173 0.042-0.347 0.133-0.523l5.776-12.556-0.937-0.431-5.766 12.535c-0.155 0.301-0.237 0.638-0.237 0.975v0.069c0 1.169 0.952 2.121 2.121 2.121 0.795 0 1.517-0.439 1.894-1.167l0.174-0.381h20.525l0.185 0.404c0.366 0.706 1.088 1.145 1.883 1.145 1.169 0 2.121-0.952 2.121-2.121v-0.069c0-0.338-0.082-0.675-0.227-0.954zM18.065 23.226h1.032v0.516h-1.032v-0.516zM12.903 21.677h4.129v3.613h-4.129v-3.613zM10.839 19.305v2.373h1.032v4.645h6.194v-1.548h2.065v-2.581h-2.065v-0.516h3.097v-2.373l3.684 8.050h-17.69l3.684-8.050zM9.29 28.387v1.032h-1.032v-1.032h1.032zM10.323 28.387h1.032v1.032h-1.032v-1.032zM12.387 28.387h1.032v1.032h-1.032v-1.032zM14.452 28.387h1.032v1.032h-1.032v-1.032zM16.516 28.387h1.032v1.032h-1.032v-1.032zM18.581 28.387h1.032v1.032h-1.032v-1.032zM20.645 28.387h1.032v1.032h-1.032v-1.032zM22.71 28.387h1.032v1.032h-1.032v-1.032zM6.683 28.387h0.543v1.032h-1.016l0.473-1.032zM24.774 29.419v-1.032h0.544l0.472 1.032h-1.016z"></path>
<path fill="#ffa64d" d="M4.645 11.355v0.516c0 3.7 3.010 6.71 6.71 6.71h9.29c3.7 0 6.71-3.010 6.71-6.71v-0.516h-22.71z"></path>
<path fill="#ffa64d" d="M20.645 0h-9.29c-3.7 0-6.71 3.010-6.71 6.71v2.065h22.71v-2.065c0-3.7-3.010-6.71-6.71-6.71z"></path>
<path fill="#333" d="M28.387 7.742h-3.097v1.032h2.065v2.065h-22.71v-2.065h19.613v-1.032h-20.645v4.129h7.742v1.032c0 0.569 0.463 1.032 1.032 1.032h7.226c0.569 0 1.032-0.463 1.032-1.032v-1.032h7.742v-4.129zM19.613 12.903h-7.226v-1.032h7.226v1.032z"></path>
<path fill="#333" d="M22.194 6.71h-12.387v-3.097h12.387v3.097zM10.839 5.677h10.323v-1.032h-10.323v1.032z"></path>
<path fill="#333" d="M17.548 0v1.548h-1.032v-1.548h-1.032v1.548h-1.032v-1.548h-1.032v2.581h5.161v-2.581z"></path>
</svg>
