<!-- Generated by IcoMoon.io -->
<svg version="1.1" xmlns="http://www.w3.org/2000/svg" width="32" height="32" viewBox="0 0 32 32">
<title>bean</title>
<path fill="#000" d="M22.194 5.677c-2.379 0-4.468 1.248-5.659 3.121l-0.018-3.376c0.011-2.421 1.99-4.39 4.41-4.39 0.427 0 0.774 0.347 0.774 0.774s-0.347 0.774-0.774 0.774h-0.797v1.032h0.797c0.996 0 1.806-0.81 1.806-1.806s-0.81-1.806-1.806-1.806c-1.812 0-3.42 0.898-4.41 2.27v-2.27h-1.032v3.15c-1.188-1.889-3.286-3.15-5.677-3.15h-2.581v0.516c0 3.7 3.010 6.71 6.71 6.71h1.548v5.335c-0.992-1.353-2.588-2.238-4.387-2.238-0.996 0-1.806 0.81-1.806 1.806s0.81 1.806 1.806 1.806h0.774v-1.032h-0.774c-0.427 0-0.774-0.347-0.774-0.774s0.347-0.774 0.774-0.774c2.278 0 4.163 1.745 4.387 3.963v2.231h0.014l-0.014 2.578 1.032 0.006 0.023-4.392c-0.001-0.143-0.012-0.283-0.023-0.423v-2.414h1.548c3.7 0 6.71-3.010 6.71-6.71v-0.516h-2.581zM8.281 1.032h1.525c2.748 0 5.044 1.963 5.564 4.561l-2.674-2.006-0.619 0.826 2.374 1.781h-0.516c-2.957 0-5.393-2.271-5.654-5.161zM18.065 11.871h-0.516l2.89-2.168-0.619-0.826-3.19 2.392c0.521-2.597 2.817-4.56 5.564-4.56h1.525c-0.262 2.89-2.697 5.161-5.654 5.161z"></path>
<path fill="#f0bc5e" d="M16.442 25.29h-0.885c-2.183 0-4.234-0.85-5.777-2.393-0.649-0.649-1.006-1.511-1.006-2.429 0-1.895 1.541-3.436 3.436-3.436 0.918 0 1.78 0.357 2.429 1.006 0.344 0.344 0.821 0.542 1.308 0.542h0.104c0.487 0 0.964-0.198 1.308-0.542 0.649-0.649 1.512-1.006 2.429-1.006 1.895 0 3.436 1.541 3.436 3.436 0 0.918-0.357 1.78-1.006 2.429-1.543 1.543-3.594 2.393-5.777 2.393z"></path>
<path fill="#000" d="M16.052 22.71h-0.104c-0.798 0-1.597-0.199-2.311-0.575l0.482-0.914c0.566 0.299 1.198 0.457 1.829 0.457h0.104c0.611 0 1.226-0.149 1.779-0.43l0.468 0.92c-0.697 0.355-1.474 0.542-2.246 0.542z"></path>
<path fill="#000" d="M4.129 26.323h8.774v0.516c0 1.139-0.926 2.065-2.065 2.065h-0.516v1.032h0.516c1.708 0 3.097-1.389 3.097-3.097v-0.516h1.032v3.097c0 0.854-0.695 1.548-1.548 1.548h-1.548v1.032h1.548c1.423 0 2.581-1.158 2.581-2.581v-3.097h1.032v1.032h1.032v-1.032h1.032v0.516c0 0.854 0.695 1.548 1.548 1.548h2.065v-1.032h-2.065c-0.284 0-0.516-0.232-0.516-0.516v-0.516h7.742v-1.032h-23.742v1.032z"></path>
<path fill="#000" d="M18.065 29.419v-1.032h-1.032v1.032c0 1.423 1.158 2.581 2.581 2.581h2.065v-1.032h-2.065c-0.854 0-1.548-0.695-1.548-1.548z"></path>
<path fill="#000" d="M22.71 30.968h1.032v1.032h-1.032v-1.032z"></path>
<path fill="#000" d="M28.903 25.29h1.032v1.032h-1.032v-1.032z"></path>
<path fill="#000" d="M8.258 28.903h1.032v1.032h-1.032v-1.032z"></path>
<path fill="#000" d="M2.065 25.29h1.032v1.032h-1.032v-1.032z"></path>
</svg>
