<!-- Generated by IcoMoon.io -->
<svg version="1.1" xmlns="http://www.w3.org/2000/svg" width="32" height="32" viewBox="0 0 32 32">
<title>beer-1</title>
<path fill="#f0bc5e" d="M7.226 14.968c-0.181 0-0.347 0.009-0.518 0.016-0.009 0.563-0.466 1.016-1.031 1.016-0.478 0-0.877-0.327-0.994-0.769-0.874 0.191-1.484 0.443-1.811 0.606 0.829 2.189 1.256 4.511 1.256 6.853v5.18h6.71v-12.090c-1.192-0.462-2.402-0.813-3.613-0.813z"></path>
<path fill="#f0bc5e" d="M14.968 21.161c-3.097 0-4.129 1.032-4.129 1.032v7.226c0 1.14 0.924 2.065 2.065 2.065h10.323c1.14 0 2.065-0.924 2.065-2.065v-5.161c-3.097 0-6.71-3.097-10.323-3.097z"></path>
<path fill="#000" d="M32 22.71c0-3.526-2.735-6.419-6.194-6.683v-1.059c0-1.253-0.75-2.333-1.823-2.82-0.494-1.094-1.593-1.826-2.822-1.826-0.159 0-0.322 0.015-0.491 0.046-0.48-0.674-1.249-1.078-2.089-1.078-0.548 0-1.055 0.174-1.473 0.467-0.489-0.302-1.045-0.467-1.624-0.467-0.364 0-0.713 0.067-1.038 0.183 0.004-0.265 0.006-0.521 0.006-0.68v-2.083h-0.014c-0.002-0.639-0.225-1.261-0.657-1.736-0.11-0.121-0.233-0.226-0.362-0.323 0-0.002 0.001-0.004 0.001-0.006 0-1.708-1.389-3.097-3.097-3.097-0.134 0-0.268 0.012-0.401 0.029-0.532-0.941-1.54-1.578-2.696-1.578-1.125 0-2.145 0.612-2.691 1.577-0.134-0.018-0.269-0.028-0.406-0.028-1.708 0-3.097 1.389-3.097 3.097 0 0.004 0.001 0.008 0.001 0.013-0.623 0.471-1.033 1.211-1.033 2.052v6.138c0 0.782 0.555 1.463 1.292 1.582 0.188 0.031 0.376 0.020 0.557-0.017 0.151 0.51 0.317 1.019 0.507 1.513 0.834 2.167 1.256 4.443 1.256 6.764v5.438l-1.446 1.084c-0.388 0.291-0.619 0.754-0.619 1.239 0 0.854 0.695 1.548 1.548 1.548h20.129c1.423 0 2.581-1.158 2.581-2.581v-0.026c3.459-0.265 6.194-3.158 6.194-6.683zM25.806 19.138c1.748 0.252 3.097 1.755 3.097 3.572s-1.349 3.32-3.097 3.572v-7.143zM16.386 10.531c-0.24 0.392-0.386 0.848-0.386 1.34h1.032c0-0.854 0.695-1.548 1.548-1.548 0.587 0 1.116 0.332 1.381 0.866l0.194 0.39 0.417-0.125c0.223-0.067 0.41-0.099 0.589-0.099 0.518 0 0.998 0.199 1.367 0.527-0.427 0.025-0.848 0.134-1.227 0.327l0.47 0.919c0.292-0.15 0.608-0.225 0.938-0.225 0.96 0 1.769 0.659 1.999 1.548h-0.451c-0.854 0-1.548 0.695-1.548 1.548v4.59c0 0.277-0.187 0.525-0.426 0.564-0.156 0.025-0.307-0.015-0.425-0.116-0.116-0.098-0.182-0.242-0.182-0.393v-4.074c0-0.782-0.555-1.463-1.292-1.582-0.453-0.074-0.913 0.053-1.259 0.348-0.347 0.295-0.546 0.725-0.546 1.179v0.977c0 0.277-0.187 0.525-0.426 0.564-0.155 0.025-0.307-0.015-0.425-0.116-0.116-0.098-0.182-0.242-0.182-0.393v-1.548c0-0.854-0.695-1.548-1.548-1.548h-4.58c0.23-0.889 1.039-1.548 1.999-1.548 0.414 0 0.813 0.122 1.154 0.353l0.578-0.855c-0.493-0.333-1.066-0.51-1.66-0.524 0.229-0.891 1.032-1.554 1.993-1.554 0.316 0 0.623 0.072 0.902 0.208zM1.458 13.412c-0.239-0.039-0.426-0.287-0.426-0.564v-6.138c0-0.854 0.695-1.548 1.548-1.548 0.475 0 0.917 0.214 1.213 0.586l0.808-0.643c-0.493-0.62-1.229-0.975-2.021-0.975-0.156 0-0.308 0.020-0.457 0.046 0.214-0.912 1.030-1.595 2.006-1.595 0.655 0 1.258 0.301 1.652 0.826l0.825-0.62c-0.286-0.381-0.647-0.681-1.053-0.892 0.383-0.532 0.999-0.862 1.672-0.862 1.139 0 2.065 0.926 2.065 2.065 0 0.451-0.142 0.879-0.412 1.238l0.826 0.62c0.405-0.539 0.619-1.182 0.619-1.858 0-0.174-0.018-0.345-0.046-0.511 0.015-0.001 0.030-0.005 0.046-0.005 0.977 0 1.793 0.684 2.006 1.597-0.151-0.027-0.303-0.049-0.458-0.049v1.032c0.435 0 0.853 0.185 1.146 0.507 0.297 0.327 0.437 0.751 0.395 1.195-0.074 0.782-0.79 1.395-1.629 1.395h-4.040c-0.854 0-1.548 0.695-1.548 1.548v5.161c0 0.152-0.066 0.295-0.182 0.393-0.118 0.1-0.268 0.14-0.425 0.116-0.238-0.039-0.425-0.287-0.425-0.564v-5.106c0-0.455-0.199-0.885-0.546-1.18s-0.805-0.423-1.259-0.348c-0.737 0.12-1.292 0.801-1.292 1.583v3.042c0 0.152-0.066 0.295-0.182 0.393-0.117 0.1-0.268 0.14-0.424 0.116zM2.581 30.452c0-0.162 0.077-0.316 0.206-0.413l1.514-1.135h1.377v-1.032h-1.032v-5.18c0-2.449-0.446-4.849-1.325-7.134-0.213-0.553-0.4-1.124-0.56-1.695 0.215-0.271 0.337-0.606 0.337-0.958v-3.042c0-0.277 0.187-0.525 0.426-0.564 0.157-0.025 0.307 0.016 0.425 0.116 0.116 0.098 0.182 0.242 0.182 0.393v5.106c0 0.782 0.555 1.463 1.292 1.582 0.085 0.014 0.17 0.021 0.254 0.021 0.367 0 0.724-0.129 1.005-0.369 0.347-0.295 0.546-0.725 0.546-1.179v-5.161c0-0.284 0.232-0.516 0.516-0.516h4.040c0.613 0 1.18-0.214 1.637-0.56v0.062c0 0.288-0.007 0.923-0.019 1.309-0.541 0.494-0.909 1.175-0.994 1.942-1.211 0.421-2.084 1.571-2.084 2.923v12.903h-3.613v1.032h3.613v0.516c0 0.583 0.202 1.116 0.53 1.548h-7.755c-0.284 0-0.516-0.232-0.516-0.516zM23.226 30.968h-10.323c-0.854 0-1.548-0.695-1.548-1.548v-13.935h4.645c0.284 0 0.516 0.232 0.516 0.516v1.548c0 0.455 0.199 0.885 0.546 1.18s0.804 0.422 1.259 0.348c0.737-0.12 1.292-0.801 1.292-1.583v-0.977c0-0.152 0.066-0.295 0.182-0.393 0.118-0.1 0.268-0.14 0.425-0.116 0.238 0.039 0.425 0.287 0.425 0.564v4.074c0 0.455 0.199 0.885 0.546 1.18 0.282 0.239 0.638 0.369 1.005 0.369 0.084 0 0.169-0.007 0.254-0.021 0.737-0.12 1.292-0.801 1.292-1.583v-4.59c0-0.284 0.232-0.516 0.516-0.516h0.516v13.935c0 0.854-0.695 1.548-1.548 1.548zM25.806 28.361v-1.036c2.319-0.258 4.129-2.228 4.129-4.615s-1.81-4.357-4.129-4.615v-1.036c2.889 0.262 5.161 2.695 5.161 5.651s-2.272 5.389-5.161 5.651z"></path>
<path fill="#000" d="M9.806 5.677h1.032v1.032h-1.032v-1.032z"></path>
<path fill="#000" d="M6.71 4.129h1.032v1.032h-1.032v-1.032z"></path>
<path fill="#000" d="M2.065 6.194h1.032v1.032h-1.032v-1.032z"></path>
<path fill="#000" d="M13.419 23.742h1.032v1.032h-1.032v-1.032z"></path>
<path fill="#000" d="M19.613 24.774h1.032v1.032h-1.032v-1.032z"></path>
<path fill="#000" d="M22.194 28.903h1.032v1.032h-1.032v-1.032z"></path>
<path fill="#000" d="M17.032 27.355h1.032v1.032h-1.032v-1.032z"></path>
<path fill="#000" d="M12.903 28.387h1.032v1.032h-1.032v-1.032z"></path>
<path fill="#000" d="M19.097 12.387h1.032v1.032h-1.032v-1.032z"></path>
<path fill="#000" d="M16.516 12.903h1.032v1.032h-1.032v-1.032z"></path>
</svg>
