<!-- Generated by IcoMoon.io -->
<svg version="1.1" xmlns="http://www.w3.org/2000/svg" width="32" height="32" viewBox="0 0 32 32">
<title>beer</title>
<path fill="#ffa64d" d="M17.548 27.871h13.935v-11.355h-12.903v7.226c0 0.57-0.462 1.032-1.032 1.032v0 3.097z"></path>
<path fill="#333" d="M30.302 11.556c-1.522-0.952-2.431-2.591-2.431-4.386v-3.041c0.854 0 1.548-0.695 1.548-1.548v-1.032c0-0.854-0.695-1.548-1.548-1.548h-7.226c-0.854 0-1.548 0.695-1.548 1.548v1.032c0 0.854 0.695 1.548 1.548 1.548v3.041c0 1.795-0.909 3.434-2.431 4.386-0.28 0.175-0.532 0.391-0.752 0.633-0.324-1.364-1.549-2.383-3.011-2.383-1.077 0-2.025 0.553-2.581 1.388-0.555-0.836-1.504-1.388-2.581-1.388-1.708 0-3.097 1.389-3.097 3.097v0.419c-0.924 0.536-1.548 1.534-1.548 2.678v1.548h-2.065c-1.423 0-2.581 1.158-2.581 2.581v5.677c0 1.423 1.158 2.581 2.581 2.581h2.065v1.032c0 1.423 1.158 2.581 2.581 2.581h8.258c0.703 0 1.339-0.284 1.805-0.741 0.477 0.467 1.125 0.741 1.808 0.741h10.323c1.423 0 2.581-1.158 2.581-2.581v-14.8c0-1.254-0.635-2.399-1.698-3.063zM20.129 2.581v-1.032c0-0.285 0.231-0.516 0.516-0.516h7.226c0.285 0 0.516 0.231 0.516 0.516v1.032c0 0.285-0.231 0.516-0.516 0.516h-1.032v-1.032h-1.032v1.032h-1.032v-1.032h-1.032v1.032h-1.032v-1.032h-1.032v1.032h-1.032c-0.285 0-0.516-0.231-0.516-0.516zM7.742 13.935c1.139 0 2.065 0.926 2.065 2.065h1.032c0-1.708-1.389-3.097-3.097-3.097-0.176 0-0.348 0.018-0.516 0.046v-0.046c0-1.139 0.926-2.065 2.065-2.065s2.065 0.926 2.065 2.065h1.032c0-1.139 0.926-2.065 2.065-2.065s2.065 0.926 2.065 2.065v0.046c-0.168-0.028-0.34-0.046-0.516-0.046-1.708 0-3.097 1.389-3.097 3.097h1.032c0-1.139 0.926-2.065 2.065-2.065s2.065 0.926 2.065 2.065v7.742c0 0.285-0.231 0.516-0.516 0.516s-0.516-0.231-0.516-0.516v-1.548h-1.032c0 0.569-0.463 1.032-1.032 1.032s-1.032-0.463-1.032-1.032v-5.161h-8.258v-1.032c0-1.139 0.926-2.065 2.065-2.065zM2.581 27.355c-0.854 0-1.548-0.695-1.548-1.548v-5.677c0-0.854 0.695-1.548 1.548-1.548h2.065v1.032h-1.548c-0.569 0-1.032 0.463-1.032 1.032v4.645c0 0.569 0.463 1.032 1.032 1.032h1.548v1.032h-2.065zM4.645 20.645v4.645h-1.548v-4.645h1.548zM15.484 30.968h-8.258c-0.854 0-1.548-0.695-1.548-1.548v-11.355h1.548v10.323h1.032v-10.323h2.581v9.806h1.032v-9.806h1.032v4.129c0 0.959 0.66 1.761 1.548 1.991v4.202h1.032v-4.197c0.189-0.049 0.369-0.122 0.533-0.219 0.085 0.571 0.485 1.039 1.015 1.227v4.221c0 0.854-0.695 1.548-1.548 1.548zM30.968 29.419c0 0.854-0.695 1.548-1.548 1.548h-10.323c-0.481 0-0.924-0.235-1.215-0.61 0.115-0.292 0.183-0.606 0.183-0.938v-4.224c0.599-0.214 1.032-0.781 1.032-1.453v-7.742c0-1.030-0.507-1.941-1.282-2.504 0.211-0.433 0.536-0.808 0.947-1.065 1.826-1.141 2.916-3.108 2.916-5.261v-3.041h5.161v3.041c0 2.153 1.090 4.12 2.916 5.261 0.76 0.475 1.213 1.293 1.213 2.188v14.8z"></path>
<path fill="#333" d="M10.839 28.903h1.032v1.032h-1.032v-1.032z"></path>
<path fill="#333" d="M24.258 18.065c-2.277 0-4.129 1.852-4.129 4.129s1.852 4.129 4.129 4.129 4.129-1.852 4.129-4.129-1.852-4.129-4.129-4.129zM24.258 25.29c-1.708 0-3.097-1.389-3.097-3.097s1.389-3.097 3.097-3.097 3.097 1.389 3.097 3.097-1.389 3.097-3.097 3.097z"></path>
</svg>
