<!-- Generated by IcoMoon.io -->
<svg version="1.1" xmlns="http://www.w3.org/2000/svg" width="32" height="32" viewBox="0 0 32 32">
<title>beer-2</title>
<path fill="#f0bc5e" d="M15.742 20.645c0 0.627-0.559 1.123-1.206 1.018-0.507-0.083-0.859-0.559-0.859-1.074v-5.072c-1.115-0.322-2.174-0.55-3.097-0.55-1.309 0-2.341 0.369-3.097 0.795v3.334c0 0.627-0.559 1.123-1.206 1.018-0.125-0.021-0.239-0.065-0.343-0.127v7.367h15.484v-9.806c-1.617 0-3.657-0.704-5.677-1.377v4.473z"></path>
<path fill="#000" d="M25.548 9.806h-3.466c0.219-0.439 0.352-0.925 0.367-1.438 0.037-1.233-0.55-2.382-1.55-3.077 0.002-0.043 0.003-0.087 0.003-0.131 0-1.992-1.621-3.613-3.613-3.613-0.362 0-0.718 0.060-1.061 0.166-0.638-1.027-1.773-1.714-3.068-1.714-1.296 0-2.431 0.689-3.069 1.717-0.343-0.105-0.697-0.168-1.060-0.168-1.992 0-3.613 1.621-3.613 3.613 0 0.043 0.009 0.085 0.011 0.128-0.941 0.653-1.559 1.739-1.559 2.969 0 0.943 0.374 1.85 1.032 2.523v8.26c0 0.467 0.2 0.894 0.516 1.191v6.606h-1.032v1.032h1.032v1.335l-1.032 1.032v1.762h18.581v-1.762l-1.032-1.032v-1.335h1.032v-1.032h-1.032v-1.229l4.767-2.383c0.88-0.44 1.427-1.324 1.427-2.308v-8.531c0-1.423-1.158-2.581-2.581-2.581zM21.935 12.903h2.581c0.285 0 0.516 0.232 0.516 0.516v6.588c0 0.197-0.109 0.374-0.285 0.461l-2.811 1.406v-8.971zM7.484 5.677v-1.032c-0.345 0-0.678 0.052-0.995 0.142 0.183-1.245 1.248-2.207 2.543-2.207 0.22 0 0.435 0.037 0.645 0.091-0.082 0.3-0.129 0.615-0.129 0.941h1.032c0-1.423 1.158-2.581 2.581-2.581s2.581 1.158 2.581 2.581h1.032c0-0.329-0.048-0.646-0.131-0.949 0.21-0.054 0.427-0.084 0.647-0.084 1.423 0 2.581 1.158 2.581 2.581 0 0.113-0.010 0.223-0.024 0.332l-0.045 0.345 0.303 0.171c0.839 0.474 1.342 1.366 1.313 2.328-0.041 1.378-1.257 2.5-2.709 2.5h-3.483v9.806c0 0.152-0.067 0.295-0.182 0.393-0.118 0.1-0.269 0.14-0.424 0.116-0.239-0.039-0.426-0.287-0.426-0.564v-8.203c0-0.854-0.695-1.548-1.548-1.548s-1.548 0.695-1.548 1.548v1.548c0 0.152-0.067 0.295-0.182 0.393-0.118 0.1-0.269 0.14-0.424 0.116-0.239-0.039-0.426-0.287-0.426-0.564v-1.493c0-0.854-0.695-1.548-1.548-1.548s-1.548 0.695-1.548 1.548v6.71c0 0.152-0.067 0.295-0.182 0.393-0.118 0.1-0.269 0.139-0.424 0.116-0.239-0.039-0.426-0.287-0.426-0.564v-8.71l-0.171-0.154c-0.548-0.491-0.861-1.19-0.861-1.919 0-1.423 1.158-2.581 2.581-2.581zM21.935 30.968h-16.516v-0.302l0.73-0.73h15.057l0.73 0.73v0.302zM20.903 28.903h-14.452v-1.032h14.452v1.032zM6.452 26.839v-6.2c0.366-0.001 0.722-0.122 1.003-0.362 0.347-0.295 0.546-0.725 0.546-1.18v-6.71c0-0.284 0.231-0.516 0.516-0.516s0.516 0.232 0.516 0.516v1.493c0 0.782 0.555 1.463 1.292 1.582 0.455 0.075 0.913-0.053 1.259-0.348s0.546-0.725 0.546-1.179v-1.548c0-0.284 0.231-0.516 0.516-0.516s0.516 0.232 0.516 0.516v8.203c0 0.782 0.555 1.463 1.292 1.582 0.085 0.014 0.169 0.021 0.253 0.021 0.367 0 0.723-0.129 1.005-0.369 0.347-0.295 0.546-0.725 0.546-1.179v-8.774h2.451c0.815 0 1.574-0.263 2.195-0.701v15.669h-14.452zM27.097 20.918c0 0.59-0.328 1.121-0.856 1.385l-4.306 2.153v-1.427l3.273-1.637c0.527-0.264 0.856-0.794 0.856-1.385v-6.588c0-0.854-0.695-1.548-1.548-1.548h-2.581v-1.032h3.613c0.854 0 1.548 0.695 1.548 1.548v8.531z"></path>
<path fill="#000" d="M9.032 17.032h1.032v1.032h-1.032v-1.032z"></path>
<path fill="#000" d="M7.484 23.226h1.032v1.032h-1.032v-1.032z"></path>
<path fill="#000" d="M11.097 21.161h1.032v1.032h-1.032v-1.032z"></path>
<path fill="#000" d="M15.742 24.258h1.032v1.032h-1.032v-1.032z"></path>
<path fill="#000" d="M17.806 20.129h1.032v1.032h-1.032v-1.032z"></path>
<path fill="#000" d="M15.742 5.677h1.032v1.032h-1.032v-1.032z"></path>
<path fill="#000" d="M12.129 8.258h1.032v1.032h-1.032v-1.032z"></path>
<path fill="#000" d="M9.548 4.645h1.032v1.032h-1.032v-1.032z"></path>
<path fill="#000" d="M17.806 7.226h1.032v1.032h-1.032v-1.032z"></path>
<path fill="#000" d="M7.484 7.226h1.032v1.032h-1.032v-1.032z"></path>
</svg>
