<!-- Generated by IcoMoon.io -->
<svg version="1.1" xmlns="http://www.w3.org/2000/svg" width="32" height="32" viewBox="0 0 32 32">
<title>bell-pepper</title>
<path fill="#f0bc5e" d="M27.566 8.796c-0.346 0.057-0.658 0.247-0.906 0.494-0.547 0.547-1.271 0.799-1.988 0.772-0.344 1.336-1.553 2.325-2.996 2.325s-2.652-0.988-2.996-2.324c-0.716 0.027-1.441-0.225-1.988-0.772l-0.053-0.053c-0.609-0.608-1.698-0.682-2.357 0.162-0.237 0.303-0.351 0.689-0.349 1.074 0.007 1.396 0.148 2.788 0.411 4.154 0.618-0.445 1.362-0.693 2.133-0.693 2.015 0 3.65 1.634 3.65 3.65 0 1.438-0.132 2.868-0.38 4.275 0.179-0.113 0.344-0.25 0.491-0.404l1.437-1.49 1.448 1.502c0.297 0.308 0.665 0.55 1.080 0.654 1.037 0.26 2.060-0.21 2.559-1.146 1.737-3.256 2.654-6.927 2.654-10.618 0-0.962-0.861-1.726-1.853-1.563z"></path>
<path fill="#000" d="M3.187 19.566l-1.028 0.093c0.033 0.359 0.074 0.717 0.123 1.074l1.022-0.14c-0.046-0.342-0.086-0.684-0.117-1.027z"></path>
<path fill="#000" d="M3.459 21.555l-1.015 0.186c0.431 2.35 1.213 4.6 2.327 6.688l0.028 0.052 0.908-0.49-0.026-0.050c-1.063-1.992-1.81-4.141-2.222-6.386z"></path>
<path fill="#000" d="M27.834 8.258v1.032c0.589 0 1.069 0.479 1.069 1.069 0 0.66-0.030 1.326-0.090 1.981l1.028 0.094c0.062-0.686 0.094-1.384 0.094-2.075 0-1.159-0.942-2.101-2.101-2.101z"></path>
<path fill="#000" d="M16 11.355h1.032v1.032h-1.032v-1.032z"></path>
<path fill="#000" d="M23.742 13.419h1.032v1.032h-1.032v-1.032z"></path>
<path fill="#000" d="M26.323 11.355h1.032v1.032h-1.032v-1.032z"></path>
<path fill="#000" d="M25.806 15.484h1.032v1.032h-1.032v-1.032z"></path>
<path fill="#000" d="M23.226 17.032h1.032v1.032h-1.032v-1.032z"></path>
<path fill="#000" d="M24.258 19.613h1.032v1.032h-1.032v-1.032z"></path>
<path fill="#000" d="M27.834 6.194c-1.112 0-2.159 0.434-2.946 1.22l-0.146 0.146c-0.419-0.466-0.939-0.826-1.517-1.061v-2.37c0-0.569 0.463-1.032 1.032-1.032h2.065v-3.097h-2.065c-2.277 0-4.129 1.852-4.129 4.129v2.369c-0.578 0.235-1.097 0.596-1.517 1.061l-0.146-0.146c-0.788-0.787-1.834-1.22-2.947-1.22-1.788 0-3.313 1.135-3.902 2.721-0.578-1.585-2.095-2.721-3.877-2.721h-2.065v3.097h2.065c0.569 0 1.032 0.463 1.032 1.032v3.382c-0.531 0.206-1.019 0.52-1.434 0.935l-0.115 0.114-0.115-0.115c-0.787-0.787-1.833-1.22-2.946-1.22-2.297 0-4.166 1.869-4.166 4.166 0 4.112 1.022 8.204 2.975 11.865 0.839 1.573 2.468 2.55 4.25 2.55 1.153 0 2.237-0.413 3.094-1.137 0.854 0.719 1.942 1.137 3.099 1.137 1.783 0 3.411-0.977 4.268-2.583 0.807-1.514 1.446-3.111 1.927-4.754l0.122-0.030c0.717-0.178 1.379-0.516 1.941-0.988 0.862 0.722 1.966 1.129 3.096 1.129 1.783 0 3.411-0.977 4.268-2.583 1.935-3.628 2.957-7.72 2.957-11.832 0-2.297-1.869-4.166-4.166-4.166zM21.161 4.129c0-1.708 1.389-3.097 3.097-3.097h1.032v1.032h-1.032c-1.139 0-2.065 0.926-2.065 2.065v5.161c0 0.284-0.231 0.516-0.516 0.516s-0.516-0.232-0.516-0.516v-5.161zM20.129 7.655v1.635c0 0.854 0.695 1.548 1.548 1.548s1.548-0.695 1.548-1.548v-1.635c0.387 0.226 0.73 0.524 0.991 0.898l0.041 0.059v0.678c0 1.423-1.158 2.581-2.581 2.581s-2.581-1.158-2.581-2.581v-0.678l0.041-0.058c0.262-0.375 0.605-0.673 0.991-0.899zM9.806 13.419v-3.097c0-1.139-0.926-2.065-2.065-2.065h-1.032v-1.032h1.032c1.708 0 3.097 1.389 3.097 3.097v3.097h-1.032zM3.869 28.932c-1.856-3.48-2.837-7.403-2.837-11.347 0-1.727 1.406-3.133 3.133-3.133 0.837 0 1.624 0.326 2.216 0.918l0.288 0.288c-0.302 0.578-0.476 1.233-0.476 1.928 0 4.112 1.022 8.204 2.975 11.865 0.128 0.239 0.279 0.46 0.442 0.671-0.663 0.538-1.499 0.847-2.385 0.847-1.401 0-2.68-0.768-3.357-2.036zM16.759 28.964c-0.659 1.236-1.939 2.004-3.339 2.004-0.885 0-1.72-0.308-2.386-0.852 0.169-0.218 0.327-0.447 0.461-0.698 1.536-2.881 2.486-5.988 2.824-9.245l0.082-0.982-1.028-0.086-0.081 0.972c-0.323 3.114-1.235 6.093-2.725 8.888-0.072 0.136-0.155 0.263-0.242 0.387-0.094-0.133-0.183-0.272-0.261-0.42-1.857-3.48-2.837-7.404-2.837-11.347 0-1.716 1.386-3.112 3.097-3.132 1.711 0.020 3.097 1.416 3.097 3.132 0 0.156-0.002 0.313-0.005 0.47l1.032 0.020c0.003-0.163 0.005-0.326 0.005-0.489 0-0.696-0.173-1.351-0.476-1.927l0.288-0.288c0.592-0.593 1.38-0.918 2.216-0.918 1.727 0 3.133 1.406 3.133 3.133 0 3.943-0.981 7.867-2.854 11.379zM28.114 21.738c-0.659 1.236-1.939 2.004-3.339 2.004-1.021 0-2.015-0.423-2.725-1.16l-0.372-0.386-0.372 0.386c-0.388 0.402-0.856 0.707-1.371 0.905 0.104-0.429 0.201-0.861 0.282-1.295 0.109-0.098 0.294-0.272 0.346-0.326l1.115-1.156 1.115 1.156c0.517 0.536 1.24 0.844 1.982 0.844 1.019 0 1.956-0.571 2.446-1.49 1.114-2.088 1.898-4.333 2.33-6.675l-1.015-0.187c-0.413 2.236-1.162 4.382-2.226 6.376-0.315 0.59-0.889 0.943-1.535 0.943-0.463 0-0.915-0.193-1.239-0.528l-1.342-1.391v-4.79h-1.032v4.79l-0.689 0.714c0.111-0.957 0.173-1.922 0.173-2.887 0-1.25-0.556-2.37-1.43-3.133h0.397v-1.032h-1.032v0.575c-0.618-0.363-1.335-0.575-2.101-0.575-0.615 0-1.207 0.137-1.749 0.388-0.182-1.142-0.279-2.299-0.279-3.448 0-0.589 0.479-1.069 1.069-1.069 0.281 0 0.557 0.114 0.757 0.313l0.729-0.73c-0.391-0.391-0.933-0.615-1.485-0.615-1.159 0-2.101 0.942-2.101 2.101 0 1.353 0.124 2.716 0.363 4.054-0.085 0.072-0.169 0.146-0.249 0.226l-0.115 0.115-0.115-0.115c-0.191-0.191-0.398-0.36-0.617-0.509-0.197-1.245-0.3-2.513-0.3-3.771 0-1.727 1.406-3.133 3.133-3.133 0.837 0 1.624 0.326 2.216 0.918l0.328 0.328v0.819c0 1.816 1.349 3.32 3.097 3.572v1.074h1.032v-1.074c1.748-0.252 3.097-1.755 3.097-3.572v-0.819l0.328-0.328c0.591-0.592 1.379-0.918 2.216-0.918 1.727 0 3.133 1.406 3.133 3.133 0 3.943-0.981 7.867-2.854 11.379z"></path>
</svg>
