<!-- Generated by IcoMoon.io -->
<svg version="1.1" xmlns="http://www.w3.org/2000/svg" width="32" height="32" viewBox="0 0 32 32">
<title>beverage</title>
<path fill="#f0bc5e" d="M4.641 15.498v3.094c0 3.133 2.54 5.672 5.672 5.672s5.672-2.54 5.672-5.672v-1.031c-6.704 0-7.735-2.063-11.345-2.063z"></path>
<path fill="#f0bc5e" d="M28.362 5.237v-0.052c0-1.54-0.986-2.907-2.446-3.394l-2.195-0.732v0.186c0 1.111-0.736 2.087-1.805 2.393s-1.805 1.282-1.805 2.393v0.701c-0.855 0-1.547 0.693-1.547 1.547 0 0.496 0.233 0.937 0.596 1.22 0.299-0.123 0.621-0.189 0.951-0.189 0.66 0 1.294 0.263 1.761 0.729l0.302 0.302 0.173-0.26c0.536-0.804 1.439-1.287 2.405-1.287s1.869 0.483 2.405 1.287l0.173 0.26 0.302-0.302c0.467-0.467 1.1-0.729 1.761-0.729 0.162 0 0.322 0.017 0.479 0.048 0.346-0.439 0.553-0.992 0.553-1.595 0-1.247-0.886-2.288-2.063-2.526z"></path>
<path fill="#000" d="M14.439 18.592v-2.063h-1.031v2.063c0 1.706-1.388 3.094-3.094 3.094v1.031c2.275 0 4.125-1.851 4.125-4.125z"></path>
<path fill="#000" d="M13.407 14.467h1.031v1.031h-1.031z"></path>
<path fill="#000" d="M8.997 11.712l-0.247-0.495-0.175-0.524c-0.132-0.396-0.357-0.761-0.652-1.055-0.294-0.295-0.659-0.521-1.056-0.653l-0.524-0.174-0.494-0.247c-0.745-0.373-1.67-0.373-2.415 0l-0.494 0.247-0.524 0.175c-0.396 0.132-0.761 0.357-1.055 0.652-0.295 0.294-0.521 0.659-0.653 1.056l-0.175 0.524-0.247 0.495c-0.187 0.373-0.285 0.791-0.285 1.207s0.098 0.834 0.285 1.208l0.247 0.495 0.175 0.524c0.132 0.396 0.357 0.761 0.652 1.055s0.66 0.52 1.055 0.652l0.524 0.175 0.495 0.247c0.219 0.109 0.453 0.184 0.692 0.231v1.085c0 2.877 1.977 5.295 4.641 5.984v4.329h-2.063c-1.422 0-2.578 1.157-2.578 2.578v0.516h12.376v-0.516c0-1.422-1.157-2.578-2.578-2.578h-2.063v-4.329c2.664-0.689 4.641-3.107 4.641-5.984v-6.188h-7.274c-0.047-0.239-0.122-0.473-0.231-0.692zM7.783 11.579l0.292 0.595c0.037 0.073 0.058 0.153 0.083 0.231h-2.065c-0.050-0.141-0.118-0.272-0.205-0.391l1.299-1.651c0.002 0.002 0.005 0.003 0.006 0.005 0.182 0.182 0.321 0.407 0.403 0.652zM4.641 13.436c-0.284 0-0.516-0.231-0.516-0.516s0.232-0.516 0.516-0.516 0.516 0.232 0.516 0.516c0 0.284-0.232 0.516-0.516 0.516zM5.387 9.487l0.527 0.263 0.349 0.12-1.228 1.561c-0.126-0.034-0.257-0.058-0.394-0.058-0.055 0-0.107 0.011-0.16 0.016l-0.732-1.831 0.147-0.072c0.46-0.23 1.031-0.23 1.492 0.001zM1.471 11.646l0.215-0.627c0.081-0.245 0.221-0.47 0.403-0.653s0.407-0.321 0.652-0.403l0.052-0.017 0.753 1.882c-0.132 0.132-0.239 0.29-0.316 0.464l-1.942-0.28zM1.499 14.261l-0.292-0.594c-0.1-0.201-0.151-0.424-0.164-0.647l2.111 0.304c0.050 0.184 0.13 0.353 0.239 0.503l-1.299 1.651c-0.002-0.002-0.005-0.003-0.006-0.005-0.182-0.182-0.321-0.407-0.403-0.652zM3.895 16.354l-0.528-0.264-0.349-0.119 1.107-1.407v1.873c-0.078-0.025-0.157-0.047-0.23-0.084zM15.382 30.969h-10.137c0.213-0.6 0.786-1.031 1.459-1.031h7.219c0.673 0 1.246 0.431 1.459 1.031zM10.829 28.906h-1.031v-4.152c0.171 0.014 0.341 0.026 0.516 0.026s0.345-0.012 0.516-0.026zM15.47 18.592c0 2.843-2.313 5.157-5.157 5.157s-5.157-2.313-5.157-5.157v-4.22c0.437-0.156 0.781-0.5 0.936-0.936h9.377z"></path>
<path fill="#000" d="M28.362 28.906h-1.547v-2.063h1.203c1.046 0 1.926-0.783 2.048-1.816l1.935-14.871-0.482-0.482c-0.258-0.258-0.556-0.46-0.878-0.607 0.19-0.407 0.3-0.851 0.3-1.304 0-1.354-0.876-2.505-2.090-2.923-0.137-1.619-1.208-3.017-2.771-3.537l-2.874-0.959v0.901c0 0.876-0.588 1.656-1.431 1.897-0.86 0.245-1.538 0.864-1.897 1.644l-0.65-3.494c-0.136-0.733-0.776-1.264-1.521-1.264h-2.753v1.031h2.753c0.248 0 0.462 0.177 0.507 0.421l0.928 4.988c-0.647 0.348-1.093 1.025-1.093 1.81 0 0.391 0.119 0.757 0.318 1.077-0.134 0.096-0.262 0.2-0.38 0.319l-0.482 0.482 1.934 14.865c0.122 1.038 1.003 1.822 2.049 1.822h1.203v2.063h-1.547c-1.422 0-2.578 1.157-2.578 2.578v0.516h12.376v-0.516c0-1.422-1.157-2.578-2.578-2.578zM30.912 10.527l-1.72 13.222h-2.337l0.976-13.178 0.166-0.167c0.746-0.746 2.046-0.746 2.792 0zM19.080 8.279c0-0.569 0.463-1.031 1.031-1.031h2.578v-1.031h-2.063v-0.186c0-0.876 0.588-1.656 1.431-1.897 1.115-0.319 1.938-1.257 2.134-2.373l1.561 0.52c1.086 0.363 1.861 1.289 2.048 2.389h-2.017v1.031h2.063c1.138 0 2.063 0.925 2.063 2.063 0 0.373-0.101 0.728-0.287 1.043-0.076-0.006-0.152-0.011-0.228-0.011-0.741 0-1.44 0.266-1.989 0.752-0.643-0.799-1.613-1.268-2.652-1.268s-2.009 0.469-2.652 1.268c-0.55-0.486-1.249-0.752-1.989-0.752-0.279 0-0.553 0.040-0.815 0.114-0.138-0.179-0.217-0.397-0.217-0.629zM18.593 10.527l0.123-0.123c0.746-0.746 2.046-0.746 2.792 0l0.166 0.167 0.368 4.965 1.028-0.076-0.369-4.98 0.075-0.112c0.441-0.662 1.18-1.058 1.976-1.058s1.535 0.396 1.976 1.058l0.075 0.112-0.983 13.269h-2.136l-0.538-7.257-1.028 0.076 0.532 7.182h-2.337zM20.462 24.895l-0.015-0.115h8.611l-0.016 0.121c-0.061 0.519-0.502 0.91-1.025 0.91h-6.53c-0.523 0-0.963-0.391-1.025-0.917zM23.721 26.843h2.063v2.063h-2.063zM19.684 30.969c0.213-0.6 0.786-1.031 1.459-1.031h7.219c0.673 0 1.246 0.431 1.459 1.031z"></path>
</svg>
