<!-- Generated by IcoMoon.io -->
<svg version="1.1" xmlns="http://www.w3.org/2000/svg" width="32" height="32" viewBox="0 0 32 32">
<title>birthday</title>
<path fill="#000" d="M26.323 21.677h-3.708c0.058-0.162 0.095-0.334 0.095-0.516 0-0.854-0.695-1.548-1.548-1.548s-1.548 0.695-1.548 1.548c0 0.182 0.037 0.354 0.095 0.516h-2.255c0.058-0.162 0.095-0.334 0.095-0.516 0-0.854-0.695-1.548-1.548-1.548s-1.548 0.695-1.548 1.548c0 0.182 0.037 0.354 0.095 0.516h-2.255c0.058-0.162 0.095-0.334 0.095-0.516 0-0.854-0.695-1.548-1.548-1.548s-1.548 0.695-1.548 1.548c0 0.182 0.037 0.354 0.095 0.516h-3.708c-0.854 0-1.548 0.695-1.548 1.548s0.695 1.548 1.548 1.548h0.66l1.032 3.097h1.602l0.774 1.548-0.774 1.548h-0.713v1.032h15.484v-1.032h-0.713l-0.774-1.548 0.774-1.548h1.602l1.032-3.097h0.66c0.854 0 1.548-0.695 1.548-1.548s-0.695-1.548-1.548-1.548zM20.645 21.161c0-0.284 0.232-0.516 0.516-0.516s0.516 0.232 0.516 0.516-0.232 0.516-0.516 0.516-0.516-0.232-0.516-0.516zM15.484 21.161c0-0.284 0.232-0.516 0.516-0.516s0.516 0.232 0.516 0.516-0.232 0.516-0.516 0.516-0.516-0.232-0.516-0.516zM10.323 21.161c0-0.284 0.232-0.516 0.516-0.516s0.516 0.232 0.516 0.516-0.232 0.516-0.516 0.516-0.516-0.232-0.516-0.516zM21.358 28.903h-1.746v1.032h1.746l0.516 1.032h-11.749l0.516-1.032h7.939v-1.032h-7.939l-0.516-1.032h11.749l-0.516 1.032zM23.886 26.839h-15.772l-0.688-2.065h17.148l-0.689 2.065zM26.323 23.742h-20.645c-0.284 0-0.516-0.232-0.516-0.516s0.232-0.516 0.516-0.516h20.645c0.284 0 0.516 0.232 0.516 0.516s-0.232 0.516-0.516 0.516z"></path>
<path fill="#000" d="M7.742 17.548h2.065v-1.032h-2.065v-0.516c0-0.284 0.232-0.516 0.516-0.516h15.484c0.284 0 0.516 0.232 0.516 0.516v0.516h-13.419v1.032h13.419v2.065h1.032v-3.613c0-0.854-0.695-1.548-1.548-1.548h-0.516v-3.613c0-0.854-0.695-1.548-1.548-1.548h-11.355c-0.854 0-1.548 0.695-1.548 1.548v3.613h-0.516c-0.854 0-1.548 0.695-1.548 1.548v3.613h1.032v-2.065zM10.323 10.323h11.355c0.284 0 0.516 0.232 0.516 0.516v0.516h-12.387v-0.516c0-0.284 0.232-0.516 0.516-0.516zM9.806 12.387h12.387v2.065h-12.387v-2.065z"></path>
<path fill="#000" d="M13.701 6.467c-0.184-0.345-0.282-0.737-0.282-1.131 0-0.372 0.088-0.744 0.254-1.076l1.294-2.589c0.197-0.393 0.592-0.638 1.032-0.638s0.836 0.245 1.032 0.638l1.294 2.588c0.166 0.333 0.254 0.705 0.254 1.077 0 0.395-0.098 0.786-0.282 1.131l0.91 0.486c0.264-0.494 0.404-1.053 0.404-1.618 0-0.531-0.125-1.063-0.363-1.538l-1.294-2.588c-0.373-0.746-1.122-1.209-1.956-1.209s-1.583 0.463-1.956 1.209l-1.294 2.589c-0.237 0.475-0.363 1.006-0.363 1.538 0 0.564 0.14 1.123 0.404 1.618l0.91-0.486z"></path>
<path fill="#000" d="M15.484 2.065h1.032v1.032h-1.032v-1.032z"></path>
<path fill="#000" d="M16.516 4.129h1.032v1.032h-1.032v-1.032z"></path>
<path fill="#000" d="M14.452 4.129h1.032v1.032h-1.032v-1.032z"></path>
<path fill="#f0bc5e" d="M8.258 22.71c-1.139 0-2.065-0.926-2.065-2.065s0.926-2.065 2.065-2.065 2.065 0.926 2.065 2.065-0.926 2.065-2.065 2.065z"></path>
<path fill="#f0bc5e" d="M13.419 22.71c-1.139 0-2.065-0.926-2.065-2.065s0.926-2.065 2.065-2.065 2.065 0.926 2.065 2.065-0.926 2.065-2.065 2.065z"></path>
<path fill="#f0bc5e" d="M20.583 6.95l-1.486-1.486-1.486 1.486c-0.024 0.024-0.040 0.052-0.062 0.076-0.022-0.024-0.039-0.053-0.062-0.076l-1.486-1.486-1.486 1.486c-0.024 0.024-0.040 0.052-0.062 0.076-0.022-0.024-0.039-0.053-0.062-0.076l-1.486-1.486-1.486 1.486c-0.373 0.373-0.579 0.869-0.579 1.397 0 1.089 0.887 1.976 1.976 1.976h0.178c0.58 0 1.098-0.257 1.46-0.656 0.362 0.399 0.879 0.656 1.46 0.656h0.178c0.58 0 1.098-0.257 1.46-0.656 0.362 0.399 0.879 0.656 1.46 0.656h0.178c1.089 0 1.976-0.887 1.976-1.976 0-0.528-0.205-1.024-0.579-1.397z"></path>
<path fill="#f0bc5e" d="M18.581 22.71c-1.139 0-2.065-0.926-2.065-2.065s0.926-2.065 2.065-2.065 2.065 0.926 2.065 2.065-0.926 2.065-2.065 2.065z"></path>
<path fill="#f0bc5e" d="M23.742 22.71c-1.139 0-2.065-0.926-2.065-2.065s0.926-2.065 2.065-2.065 2.065 0.926 2.065 2.065-0.926 2.065-2.065 2.065z"></path>
</svg>
