<!-- Generated by IcoMoon.io -->
<svg version="1.1" xmlns="http://www.w3.org/2000/svg" width="32" height="32" viewBox="0 0 32 32">
<title>biscuit</title>
<path fill="#f0bc5e" d="M7.742 3.613h5.161v1.032h-5.161v-1.032z"></path>
<path fill="#f0bc5e" d="M7.742 7.742h5.161v1.032h-5.161v-1.032z"></path>
<path fill="#f0bc5e" d="M7.742 11.871h5.161v1.032h-5.161v-1.032z"></path>
<path fill="#f0bc5e" d="M3.613 19.097h5.161v1.032h-5.161v-1.032z"></path>
<path fill="#f0bc5e" d="M3.613 23.226h5.161v1.032h-5.161v-1.032z"></path>
<path fill="#f0bc5e" d="M3.613 27.355h5.161v1.032h-5.161v-1.032z"></path>
<path fill="#f0bc5e" d="M21.677 19.097c-0.854 0-1.548-0.695-1.548-1.548s0.695-1.548 1.548-1.548 1.548 0.695 1.548 1.548-0.695 1.548-1.548 1.548z"></path>
<path fill="#f0bc5e" d="M26.839 11.871c-0.854 0-1.548-0.695-1.548-1.548s0.695-1.548 1.548-1.548 1.548 0.695 1.548 1.548-0.695 1.548-1.548 1.548z"></path>
<path fill="#f0bc5e" d="M20.645 12.387c-0.854 0-1.548-0.695-1.548-1.548s0.695-1.548 1.548-1.548 1.548 0.695 1.548 1.548-0.695 1.548-1.548 1.548z"></path>
<path fill="#000" d="M30.452 24.774h-13.419c-0.854 0-1.548 0.695-1.548 1.548s0.695 1.548 1.548 1.548h13.419c0.854 0 1.548-0.695 1.548-1.548s-0.695-1.548-1.548-1.548zM30.452 26.839h-13.419c-0.285 0-0.516-0.232-0.516-0.516s0.231-0.516 0.516-0.516h13.419c0.285 0 0.516 0.232 0.516 0.516s-0.231 0.516-0.516 0.516z"></path>
<path fill="#000" d="M30.452 20.645h-2.721c2.542-1.41 4.269-4.119 4.269-7.226 0-4.553-3.705-8.258-8.258-8.258-3.198 0-5.972 1.831-7.343 4.497-0.044-0.127-0.097-0.251-0.165-0.367 0.184-0.313 0.282-0.668 0.282-1.032s-0.098-0.719-0.282-1.032c0.184-0.313 0.282-0.668 0.282-1.032s-0.098-0.719-0.282-1.032c0.184-0.313 0.282-0.668 0.282-1.032s-0.098-0.719-0.282-1.032c0.184-0.313 0.282-0.668 0.282-1.032 0-1.139-0.926-2.065-2.065-2.065-0.364 0-0.719 0.098-1.032 0.281-0.626-0.366-1.438-0.366-2.065 0-0.626-0.366-1.438-0.366-2.065 0-0.626-0.366-1.438-0.366-2.065 0-0.313-0.183-0.668-0.281-1.032-0.281-1.139 0-2.065 0.926-2.065 2.065 0 0.364 0.098 0.719 0.282 1.032-0.184 0.313-0.282 0.668-0.282 1.032s0.098 0.719 0.282 1.032c-0.184 0.313-0.282 0.668-0.282 1.032s0.098 0.719 0.282 1.032c-0.184 0.313-0.282 0.668-0.282 1.032s0.098 0.719 0.282 1.032c-0.184 0.313-0.282 0.668-0.282 1.032s0.098 0.719 0.282 1.032c-0.184 0.313-0.282 0.668-0.282 1.032s0.098 0.719 0.282 1.032c-0.184 0.313-0.282 0.668-0.282 1.032 0 0.39 0.115 0.751 0.304 1.063-0.457-0.066-0.935 0.016-1.336 0.251-0.313-0.183-0.668-0.281-1.032-0.281-1.139 0-2.065 0.926-2.065 2.065 0 0.364 0.098 0.719 0.282 1.032-0.184 0.313-0.282 0.668-0.282 1.032s0.098 0.719 0.282 1.032c-0.184 0.313-0.282 0.668-0.282 1.032s0.098 0.719 0.282 1.032c-0.184 0.313-0.282 0.668-0.282 1.032s0.098 0.719 0.282 1.032c-0.184 0.313-0.282 0.668-0.282 1.032s0.098 0.719 0.282 1.032c-0.184 0.313-0.282 0.668-0.282 1.032s0.098 0.719 0.282 1.032c-0.184 0.313-0.282 0.668-0.282 1.032 0 1.139 0.926 2.065 2.065 2.065 0.364 0 0.719-0.098 1.032-0.281 0.626 0.366 1.438 0.366 2.065 0 0.626 0.366 1.438 0.366 2.065 0 0.626 0.366 1.438 0.366 2.065 0 0.313 0.183 0.668 0.281 1.032 0.281 1.139 0 2.065-0.926 2.065-2.065 0-0.364-0.098-0.719-0.282-1.032 0.184-0.313 0.282-0.668 0.282-1.032s-0.098-0.719-0.282-1.032c0.184-0.313 0.282-0.668 0.282-1.032s-0.098-0.719-0.282-1.032c0.184-0.313 0.282-0.668 0.282-1.032s-0.098-0.719-0.282-1.032c0.184-0.313 0.282-0.668 0.282-1.032s-0.098-0.719-0.282-1.032c0.184-0.313 0.282-0.668 0.282-1.032s-0.098-0.719-0.282-1.032c0.184-0.313 0.282-0.668 0.282-1.032 0-0.39-0.115-0.751-0.304-1.063 0.457 0.067 0.935-0.016 1.336-0.251 0.313 0.183 0.668 0.281 1.032 0.281 0.555 0 1.057-0.222 1.428-0.58 0.647 2.017 2.050 3.698 3.874 4.709h-2.721c-0.854 0-1.548 0.695-1.548 1.548s0.695 1.548 1.548 1.548h2.065v-1.032h-2.065c-0.285 0-0.516-0.232-0.516-0.516s0.231-0.516 0.516-0.516h13.419c0.285 0 0.516 0.232 0.516 0.516s-0.231 0.516-0.516 0.516h-10.323v1.032h10.323c0.854 0 1.548-0.695 1.548-1.548s-0.695-1.548-1.548-1.548zM11.086 18.926c0.123 0.137 0.269 0.366 0.269 0.687s-0.146 0.55-0.269 0.687l-0.311 0.345 0.311 0.345c0.123 0.137 0.269 0.366 0.269 0.687s-0.146 0.55-0.269 0.687l-0.311 0.345 0.311 0.345c0.123 0.137 0.269 0.366 0.269 0.687s-0.146 0.55-0.269 0.687l-0.311 0.345 0.311 0.345c0.123 0.137 0.269 0.366 0.269 0.687s-0.146 0.55-0.269 0.687l-0.311 0.345 0.311 0.345c0.123 0.137 0.269 0.366 0.269 0.687s-0.146 0.55-0.269 0.687l-0.311 0.345 0.311 0.345c0.123 0.137 0.269 0.366 0.269 0.687 0 0.569-0.463 1.032-1.032 1.032-0.25 0-0.494-0.095-0.686-0.269l-0.346-0.312-0.346 0.312c-0.385 0.347-0.988 0.347-1.373 0l-0.346-0.312-0.346 0.312c-0.385 0.347-0.988 0.347-1.373 0l-0.346-0.312-0.346 0.312c-0.385 0.347-0.988 0.347-1.373 0l-0.346-0.312-0.346 0.312c-0.193 0.173-0.436 0.269-0.686 0.269-0.569 0-1.032-0.463-1.032-1.032 0-0.321 0.146-0.55 0.269-0.687l0.311-0.345-0.311-0.345c-0.123-0.137-0.269-0.366-0.269-0.687s0.146-0.55 0.269-0.687l0.311-0.345-0.311-0.345c-0.123-0.137-0.269-0.366-0.269-0.687s0.146-0.55 0.269-0.687l0.311-0.345-0.311-0.345c-0.123-0.137-0.269-0.366-0.269-0.687s0.146-0.55 0.269-0.687l0.311-0.345-0.311-0.345c-0.123-0.137-0.269-0.366-0.269-0.687s0.146-0.55 0.269-0.687l0.311-0.345-0.311-0.345c-0.123-0.137-0.269-0.366-0.269-0.687s0.146-0.55 0.269-0.687l0.311-0.345-0.311-0.345c-0.123-0.137-0.269-0.366-0.269-0.687 0-0.569 0.463-1.032 1.032-1.032 0.25 0 0.494 0.095 0.687 0.269l0.345 0.311 0.345-0.311c0.386-0.347 0.988-0.347 1.374 0l0.345 0.311 0.345-0.311c0.386-0.347 0.988-0.347 1.374 0l0.345 0.311 0.345-0.311c0.386-0.347 0.988-0.347 1.374 0l0.345 0.311 0.345-0.311c0.193-0.173 0.437-0.269 0.687-0.269 0.569 0 1.032 0.463 1.032 1.032 0 0.321-0.146 0.55-0.269 0.687l-0.311 0.345 0.311 0.345zM14.452 15.484c-0.25 0-0.494-0.095-0.686-0.269l-0.346-0.312-0.346 0.312c-0.385 0.347-0.988 0.347-1.373 0l-0.346-0.312-0.346 0.312c-0.385 0.347-0.988 0.347-1.373 0l-0.346-0.312-0.346 0.312c-0.385 0.347-0.988 0.347-1.373 0l-0.346-0.312-0.346 0.312c-0.193 0.173-0.436 0.269-0.686 0.269-0.569 0-1.032-0.463-1.032-1.032 0-0.321 0.146-0.55 0.269-0.687l0.311-0.345-0.311-0.345c-0.123-0.137-0.269-0.366-0.269-0.687s0.146-0.55 0.269-0.687l0.311-0.345-0.311-0.345c-0.123-0.137-0.269-0.366-0.269-0.687s0.146-0.55 0.269-0.687l0.311-0.345-0.311-0.345c-0.123-0.137-0.269-0.366-0.269-0.687s0.146-0.55 0.269-0.687l0.311-0.345-0.311-0.345c-0.123-0.137-0.269-0.366-0.269-0.687s0.146-0.55 0.269-0.687l0.311-0.345-0.311-0.345c-0.123-0.137-0.269-0.366-0.269-0.687s0.146-0.55 0.269-0.687l0.311-0.345-0.311-0.345c-0.123-0.137-0.269-0.366-0.269-0.687 0-0.569 0.463-1.032 1.032-1.032 0.25 0 0.494 0.095 0.687 0.269l0.345 0.311 0.345-0.311c0.386-0.347 0.988-0.347 1.374 0l0.345 0.311 0.345-0.311c0.386-0.347 0.988-0.347 1.374 0l0.345 0.311 0.345-0.311c0.386-0.347 0.988-0.347 1.374 0l0.345 0.311 0.345-0.311c0.193-0.173 0.437-0.269 0.687-0.269 0.569 0 1.032 0.463 1.032 1.032 0 0.321-0.146 0.55-0.269 0.687l-0.311 0.345 0.311 0.345c0.123 0.137 0.269 0.366 0.269 0.687s-0.146 0.55-0.269 0.687l-0.311 0.345 0.311 0.345c0.123 0.137 0.269 0.366 0.269 0.687s-0.146 0.55-0.269 0.687l-0.311 0.345 0.311 0.345c0.123 0.137 0.269 0.366 0.269 0.687s-0.146 0.55-0.269 0.687l-0.311 0.345 0.311 0.345c0.123 0.137 0.269 0.366 0.269 0.687s-0.146 0.55-0.269 0.687l-0.311 0.345 0.311 0.345c0.123 0.137 0.269 0.366 0.269 0.687s-0.146 0.55-0.269 0.687l-0.311 0.345 0.311 0.345c0.123 0.137 0.269 0.366 0.269 0.687 0 0.569-0.463 1.032-1.032 1.032zM16.516 13.419c0-3.985 3.241-7.226 7.226-7.226s7.226 3.241 7.226 7.226-3.241 7.226-7.226 7.226-7.226-3.241-7.226-7.226z"></path>
<path fill="#000" d="M30.452 28.903h-3.613v1.032h3.613c0.285 0 0.516 0.232 0.516 0.516s-0.231 0.516-0.516 0.516h-13.419c-0.285 0-0.516-0.232-0.516-0.516s0.231-0.516 0.516-0.516h8.774v-1.032h-8.774c-0.854 0-1.548 0.695-1.548 1.548s0.695 1.548 1.548 1.548h13.419c0.854 0 1.548-0.695 1.548-1.548s-0.695-1.548-1.548-1.548z"></path>
<path fill="#000" d="M6.71 3.613h1.032v1.032h-1.032v-1.032z"></path>
<path fill="#000" d="M8.774 3.613h1.032v1.032h-1.032v-1.032z"></path>
<path fill="#000" d="M10.839 3.613h1.032v1.032h-1.032v-1.032z"></path>
<path fill="#000" d="M12.903 3.613h1.032v1.032h-1.032v-1.032z"></path>
<path fill="#000" d="M6.71 7.742h1.032v1.032h-1.032v-1.032z"></path>
<path fill="#000" d="M8.774 7.742h1.032v1.032h-1.032v-1.032z"></path>
<path fill="#000" d="M10.839 7.742h1.032v1.032h-1.032v-1.032z"></path>
<path fill="#000" d="M12.903 7.742h1.032v1.032h-1.032v-1.032z"></path>
<path fill="#000" d="M6.71 11.871h1.032v1.032h-1.032v-1.032z"></path>
<path fill="#000" d="M8.774 11.871h1.032v1.032h-1.032v-1.032z"></path>
<path fill="#000" d="M10.839 11.871h1.032v1.032h-1.032v-1.032z"></path>
<path fill="#000" d="M12.903 11.871h1.032v1.032h-1.032v-1.032z"></path>
<path fill="#000" d="M2.581 19.097h1.032v1.032h-1.032v-1.032z"></path>
<path fill="#000" d="M4.645 19.097h1.032v1.032h-1.032v-1.032z"></path>
<path fill="#000" d="M6.71 19.097h1.032v1.032h-1.032v-1.032z"></path>
<path fill="#000" d="M8.774 19.097h1.032v1.032h-1.032v-1.032z"></path>
<path fill="#000" d="M2.581 23.226h1.032v1.032h-1.032v-1.032z"></path>
<path fill="#000" d="M4.645 23.226h1.032v1.032h-1.032v-1.032z"></path>
<path fill="#000" d="M6.71 23.226h1.032v1.032h-1.032v-1.032z"></path>
<path fill="#000" d="M8.774 23.226h1.032v1.032h-1.032v-1.032z"></path>
<path fill="#000" d="M2.581 27.355h1.032v1.032h-1.032v-1.032z"></path>
<path fill="#000" d="M4.645 27.355h1.032v1.032h-1.032v-1.032z"></path>
<path fill="#000" d="M6.71 27.355h1.032v1.032h-1.032v-1.032z"></path>
<path fill="#000" d="M8.774 27.355h1.032v1.032h-1.032v-1.032z"></path>
<path fill="#000" d="M23.226 7.226h1.032v1.032h-1.032v-1.032z"></path>
<path fill="#000" d="M23.226 12.903h1.032v1.032h-1.032v-1.032z"></path>
<path fill="#000" d="M28.903 13.419h1.032v1.032h-1.032v-1.032z"></path>
<path fill="#000" d="M26.323 17.548h1.032v1.032h-1.032v-1.032z"></path>
<path fill="#000" d="M17.548 12.903h1.032v1.032h-1.032v-1.032z"></path>
<path fill="#f0bc5e" d="M13.935 24.774h15.484c0.285 0 0.516-0.231 0.516-0.516v0c0-0.285-0.231-0.516-0.516-0.516h-15.484c-0.285 0-0.516 0.231-0.516 0.516v0c0 0.285 0.231 0.516 0.516 0.516z"></path>
<path fill="#f0bc5e" d="M13.935 28.903h15.484c0.285 0 0.516-0.231 0.516-0.516v0c0-0.285-0.231-0.516-0.516-0.516h-15.484c-0.285 0-0.516 0.231-0.516 0.516v0c0 0.285 0.231 0.516 0.516 0.516z"></path>
</svg>
