<!-- Generated by IcoMoon.io -->
<svg version="1.1" xmlns="http://www.w3.org/2000/svg" width="32" height="32" viewBox="0 0 32 32">
<title>boiled-egg</title>
<path fill="#333" d="M24.774 13.419h-1.032c0-4.44-3.902-12.387-7.742-12.387-1.694 0-3.611 1.623-5.258 4.453-1.509 2.593-2.484 5.707-2.484 7.934h-1.032c0-5.048 4.25-13.419 8.774-13.419 2.837 0 5.071 3.111 6.151 4.966 1.594 2.739 2.623 6.057 2.623 8.453z"></path>
<path fill="#f9ba48" d="M23.742 32h-15.484v-0.516c0-0.796 1.242-3.097 3.613-3.097h2.065v-4.73c-4.738-0.969-8.258-5.292-8.258-10.237v-0.516h20.645v0.516c0 4.946-3.52 9.269-8.258 10.237v4.73h2.065c2.371 0 3.613 2.301 3.613 3.097v0.516z"></path>
<path fill="#333" d="M8.258 14.968h4.645v1.032h-4.645v-1.032z"></path>
<path fill="#333" d="M13.935 14.968h1.032v1.032h-1.032v-1.032z"></path>
<path fill="#333" d="M16 14.968h1.032v1.032h-1.032v-1.032z"></path>
<path fill="#333" d="M19.668 6.94c-0.010-0.020-1.016-2.011-2.484-3.479l0.73-0.73c1.589 1.589 2.634 3.66 2.678 3.747l-0.924 0.461z"></path>
</svg>
