<!-- Generated by IcoMoon.io -->
<svg version="1.1" xmlns="http://www.w3.org/2000/svg" width="32" height="32" viewBox="0 0 32 32">
<title>bottled</title>
<path fill="#f0bc5e" d="M11.355 31.484h9.29c1.14 0 2.065-0.924 2.065-2.065v-3.034c0-0.701-0.279-1.373-0.774-1.869s-0.774-1.168-0.774-1.869v-7.101c0-0.701 0.279-1.373 0.774-1.869s0.774-1.168 0.774-1.869v-2.518c0-1.102-0.683-2.088-1.715-2.475l-0.699-0.262c-0.262-0.098-0.501-0.236-0.713-0.404-3.583 0.044-4.15-0.766-6.421-0.94-0.288 0.607-0.802 1.097-1.458 1.343l-0.699 0.262c-1.032 0.387-1.715 1.373-1.715 2.475v2.518c0 0.701 0.279 1.373 0.774 1.869s0.774 1.168 0.774 1.869v7.1c0 0.701-0.279 1.373-0.774 1.869s-0.774 1.169-0.774 1.869v3.034c0 1.14 0.924 2.065 2.065 2.065z"></path>
<path fill="#000" d="M21.677 22.647v-7.101c0-0.559 0.227-1.108 0.623-1.504 0.597-0.597 0.925-1.39 0.925-2.234v-2.518c0-1.31-0.824-2.499-2.051-2.958l-0.698-0.262c-0.826-0.31-1.381-1.11-1.381-1.992v-0.982h1.032v-1.548c0-0.854-0.695-1.548-1.548-1.548h-5.161c-0.854 0-1.548 0.695-1.548 1.548v1.548h1.032v0.982c0 0.882-0.555 1.682-1.38 1.992l-0.699 0.262c-1.226 0.46-2.050 1.649-2.050 2.958v2.518c0 0.843 0.329 1.637 0.925 2.234 0.396 0.396 0.623 0.945 0.623 1.504v7.101c0 0.559-0.227 1.108-0.623 1.504-0.597 0.597-0.925 1.39-0.925 2.234v3.034c0 1.423 1.158 2.581 2.581 2.581h9.29c1.423 0 2.581-1.158 2.581-2.581v-3.034c0-0.843-0.329-1.637-0.925-2.234-0.396-0.396-0.623-0.945-0.623-1.504zM12.903 1.548c0-0.284 0.231-0.516 0.516-0.516h5.161c0.285 0 0.516 0.232 0.516 0.516v0.516h-6.194v-0.516zM11.885 7.037c1.226-0.46 2.051-1.649 2.051-2.958v-0.982h4.129v0.982c0 1.31 0.824 2.499 2.051 2.958l0.504 0.189h-9.238l0.504-0.189zM9.806 9.29c0-0.37 0.102-0.722 0.276-1.032h11.836c0.173 0.311 0.276 0.663 0.276 1.032v0.516h-12.387v-0.516zM22.194 29.419c0 0.854-0.695 1.548-1.548 1.548h-9.29c-0.854 0-1.548-0.695-1.548-1.548v-3.034c0-0.021 0.006-0.041 0.006-0.062h8.768v-1.032h-8.461c0.088-0.147 0.188-0.287 0.31-0.409 0.597-0.597 0.925-1.39 0.925-2.234v-7.101c0-0.795-0.295-1.543-0.828-2.127h8.054v-1.032h-8.683c-0.054-0.188-0.091-0.381-0.091-0.579v-0.97h12.387v0.97c0 0.197-0.038 0.39-0.091 0.579h-2.489v1.032h1.861c-0.533 0.584-0.828 1.332-0.828 2.127v7.101c0 0.843 0.329 1.637 0.925 2.234 0.122 0.122 0.222 0.262 0.31 0.409h-2.268v1.032h2.574c0.001 0.021 0.006 0.041 0.006 0.062v3.034z"></path>
<path fill="#000" d="M16 15.476l-2.244 3.927c-0.22 0.386-0.337 0.824-0.337 1.268 0 1.409 1.146 2.555 2.555 2.555h0.051c1.409 0 2.555-1.146 2.555-2.555 0-0.443-0.117-0.882-0.337-1.268l-2.244-3.927zM15.975 22.194c-0.84 0-1.523-0.683-1.523-1.523 0-0.264 0.070-0.526 0.201-0.756l1.348-2.358 1.348 2.358c0.131 0.23 0.201 0.491 0.201 0.756 0 0.84-0.683 1.523-1.574 1.523z"></path>
<path fill="#000" d="M31.64 20.452l-0.313-0.984-1.388 0.44 0.467-0.893-0.915-0.478-0.947 1.814-0.673 0.213v-0.666l1.473-1.437-0.721-0.739-0.751 0.733v-1.423h-1.032v1.423l-0.751-0.733-0.721 0.739 1.473 1.437v0.666l-0.673-0.213-0.947-1.814-0.915 0.478 0.467 0.893-1.388-0.44-0.313 0.984 1.364 0.433-0.908 0.452 0.46 0.924 1.864-0.927 0.659 0.209-0.398 0.535-2.065 0.319 0.157 1.020 1.029-0.159-0.842 1.132 0.827 0.616 0.867-1.164 0.165 1.016 1.019-0.165-0.325-2.004 0.412-0.554 0.412 0.554-0.325 2.004 1.019 0.165 0.165-1.016 0.867 1.164 0.827-0.616-0.842-1.132 1.029 0.159 0.157-1.020-2.065-0.319-0.398-0.535 0.659-0.209 1.864 0.927 0.46-0.924-0.908-0.452z"></path>
<path fill="#000" d="M8.931 15.29l-0.313-0.984-1.388 0.44 0.467-0.893-0.915-0.478-0.947 1.814-0.673 0.213v-0.666l1.473-1.437-0.721-0.739-0.751 0.733v-1.423h-1.032v1.423l-0.751-0.733-0.721 0.739 1.473 1.437v0.666l-0.673-0.213-0.947-1.814-0.915 0.478 0.467 0.893-1.388-0.44-0.313 0.984 1.364 0.433-0.908 0.452 0.46 0.924 1.864-0.927 0.659 0.209-0.398 0.535-2.065 0.319 0.157 1.020 1.029-0.159-0.842 1.132 0.827 0.616 0.867-1.164 0.165 1.016 1.019-0.165-0.325-2.004 0.412-0.554 0.412 0.554-0.325 2.004 1.019 0.165 0.165-1.016 0.867 1.164 0.827-0.616-0.842-1.132 1.029 0.159 0.157-1.020-2.065-0.319-0.398-0.535 0.659-0.209 1.864 0.927 0.46-0.924-0.908-0.452z"></path>
</svg>
