<!-- Generated by IcoMoon.io -->
<svg version="1.1" xmlns="http://www.w3.org/2000/svg" width="32" height="32" viewBox="0 0 32 32">
<title>brandy</title>
<path fill="#f0bc5e" d="M2.831 28.903h12.23c-1.393-1.718-2.158-3.861-2.158-6.076 0-0.108 0.013-0.214 0.017-0.322l-0.017-0.019c-2.535-0.593-5.172-1.325-6.71-1.325-2.581 0-5.161 1.032-5.161 1.032h-0.329c0.314 2.338 1.036 4.606 2.128 6.71z"></path>
<path fill="#f0bc5e" d="M22.194 27.355c-3.13 0-5.677-2.547-5.677-5.677s2.547-5.677 5.677-5.677 5.677 2.547 5.677 5.677-2.547 5.677-5.677 5.677z"></path>
<path fill="#000" d="M3.097 19.096l-1.032 0.001 0.001 0.52c0.017 1.982 0.344 3.946 0.973 5.836l0.98-0.326c-0.595-1.787-0.905-3.644-0.92-5.515l-0.001-0.516z"></path>
<path fill="#000" d="M32 22.827c0-2.843-1.202-5.576-3.298-7.497l-1.054-0.967c-1.17-1.073-1.841-2.598-1.841-4.185v-4.501c0-0.426-0.173-0.812-0.452-1.092l0.357-0.891c0.406-1.015 0.612-2.084 0.612-3.178v-0.516h-8.258v0.516c0 1.094 0.206 2.163 0.612 3.178l0.357 0.891c-0.28 0.28-0.453 0.666-0.453 1.092v4.501c0 1.587-0.671 3.112-1.841 4.185l-0.659 0.604h-16.081v4.493c0 3.471 0.874 6.907 2.518 9.962l-1.289 2.578h28.19v-2.394l0.224-0.268c1.519-1.824 2.357-4.136 2.357-6.51zM25.273 1.032c-0.053 0.782-0.228 1.546-0.521 2.278l-0.334 0.835c-0.053-0.005-0.105-0.016-0.16-0.016h-4.129c-0.055 0-0.107 0.011-0.16 0.016l-0.334-0.835c-0.293-0.732-0.468-1.496-0.521-2.278h6.158zM17.437 15.125c1.090-0.999 1.806-2.332 2.063-3.77h3.209v-1.032h-3.105c0.001-0.048 0.008-0.095 0.008-0.144v-4.501c0-0.284 0.231-0.516 0.516-0.516h4.129c0.285 0 0.516 0.232 0.516 0.516v4.501c0 0.049 0.007 0.095 0.008 0.144h-1.040v1.032h1.145c0.258 1.437 0.973 2.771 2.063 3.77l1.054 0.967c1.883 1.726 2.963 4.181 2.963 6.736 0 2.133-0.752 4.211-2.118 5.85l-0.188 0.226h-12.935l-0.188-0.226c-1.366-1.639-2.118-3.717-2.118-5.85 0-2.555 1.080-5.010 2.963-6.736l1.054-0.967zM2.9 30.968l0.516-1.032h8.971v-1.032h-8.975c-1.553-2.898-2.379-6.153-2.379-9.443v-3.461h13.995c-1.685 1.861-2.641 4.298-2.641 6.827 0 2.191 0.721 4.325 2.026 6.076h-0.994v1.032h1.548v1.032h-12.068zM28.387 30.968h-12.387v-1.032h12.387v1.032z"></path>
<path fill="#000" d="M15.363 26.56l0.916-0.475c-0.52-1.004-0.795-2.131-0.795-3.257 0-0.295 0.019-0.593 0.056-0.885l-1.024-0.13c-0.042 0.334-0.064 0.676-0.064 1.015 0 1.291 0.315 2.582 0.911 3.732z"></path>
<path fill="#000" d="M15.965 20.269l-0.962-0.375c-0.132 0.337-0.241 0.687-0.326 1.041l1.004 0.242c0.074-0.309 0.169-0.614 0.284-0.907z"></path>
<path fill="#000" d="M2.065 17.032h1.032v1.032h-1.032v-1.032z"></path>
</svg>
