<!-- Generated by IcoMoon.io -->
<svg version="1.1" xmlns="http://www.w3.org/2000/svg" width="32" height="32" viewBox="0 0 32 32">
<title>bread-1</title>
<path fill="#f0bc5e" d="M21.161 16.516h-10.323c-0.854 0-1.548 0.695-1.548 1.548v4.645h13.419v-4.645c0-0.854-0.695-1.548-1.548-1.548z"></path>
<path fill="#000" d="M25.806 22.736v-7.94l-1.032-1.377v-2.906c0-2.566-0.315-5.129-0.938-7.619-0.426-1.704-1.951-2.894-3.707-2.894s-3.281 1.19-3.707 2.894c-0.162 0.647-0.301 1.299-0.422 1.954-0.12-0.655-0.26-1.307-0.422-1.954-0.426-1.705-1.951-2.895-3.707-2.895s-3.281 1.19-3.707 2.894c-0.622 2.489-0.938 5.052-0.938 7.619v2.906l-1.032 1.377v7.94c-3.459 0.265-6.194 3.158-6.194 6.683 0 1.423 1.158 2.581 2.581 2.581h26.839c1.423 0 2.581-1.158 2.581-2.581 0-3.525-2.735-6.418-6.194-6.683zM17.423 3.145c0.311-1.243 1.424-2.113 2.706-2.113s2.395 0.869 2.706 2.113c0.602 2.407 0.907 4.887 0.907 7.368v1.53l-1.548 2.065-1.548-2.065-1.548 2.065-1.548-2.065-1.032 1.377v-2.906c0-2.482 0.305-4.961 0.907-7.368zM8.258 10.513c0-2.482 0.305-4.961 0.907-7.368 0.311-1.243 1.424-2.113 2.706-2.113s2.395 0.869 2.706 2.113c0.602 2.407 0.907 4.887 0.907 7.368v2.906l-1.032-1.377-1.548 2.065-1.548-2.065-1.548 2.065-1.548-2.065v-1.53zM8.258 13.764l1.548 2.065 1.548-2.065 1.548 2.065 1.548-2.065 1.548 2.065 1.548-2.065 1.548 2.065 1.548-2.065 1.548 2.065 1.548-2.065 1.032 1.376v7.57h-17.548v-7.57l1.032-1.376zM29.419 30.968h-26.839c-0.854 0-1.548-0.695-1.548-1.548 0-3.13 2.547-5.677 5.677-5.677h4.645v3.613h1.032v-3.613h3.097v2.581h1.032v-2.581h3.097v3.613h1.032v-3.613h4.645c3.13 0 5.677 2.547 5.677 5.677 0 0.854-0.695 1.548-1.548 1.548z"></path>
<path fill="#000" d="M2.065 29.419h1.032c0-1.992 1.621-3.613 3.613-3.613v-1.032c-2.561 0-4.645 2.084-4.645 4.645z"></path>
<path fill="#000" d="M14.3 6.344l-0.73 0.73-3.613-3.613 0.73-0.73 3.613 3.613z"></path>
<path fill="#000" d="M14.3 10.992l-0.73 0.73-3.613-3.613 0.73-0.73 3.613 3.613z"></path>
<path fill="#000" d="M22.558 6.344l-0.73 0.73-3.613-3.613 0.73-0.73 3.613 3.613z"></path>
<path fill="#000" d="M22.558 10.99l-0.73 0.73-3.613-3.613 0.73-0.73 3.613 3.613z"></path>
<path fill="#000" d="M15.484 27.355h1.032v1.032h-1.032v-1.032z"></path>
<path fill="#000" d="M7.742 24.774h1.032v1.032h-1.032v-1.032z"></path>
</svg>
