<!-- Generated by IcoMoon.io -->
<svg version="1.1" xmlns="http://www.w3.org/2000/svg" width="32" height="32" viewBox="0 0 32 32">
<title>bread</title>
<path fill="#f0bc5e" d="M12.387 25.29c0 0.57 0.462 1.032 1.032 1.032s1.032-0.462 1.032-1.032v-5.161h-2.065v5.161z"></path>
<path fill="#f0bc5e" d="M17.548 20.129v3.097c0 0.57 0.462 1.032 1.032 1.032s1.032-0.462 1.032-1.032v-3.097h-2.065z"></path>
<path fill="#f0bc5e" d="M7.226 23.226c0 0.57 0.462 1.032 1.032 1.032s1.032-0.462 1.032-1.032v-3.097h-2.065v3.097z"></path>
<path fill="#f0bc5e" d="M28.387 21.677h-5.521c0.789 0.566 1.478 1.262 2.025 2.065h3.496c0.57 0 1.032-0.462 1.032-1.032s-0.462-1.032-1.032-1.032z"></path>
<path fill="#f0bc5e" d="M28.387 14.968h-8.258c-0.57 0-1.032 0.462-1.032 1.032s0.462 1.032 1.032 1.032h8.258c0.57 0 1.032-0.462 1.032-1.032s-0.462-1.032-1.032-1.032z"></path>
<path fill="#000" d="M4.796 17.397l0.73-0.73-0.454-0.454c-0.609-0.609-0.943-1.417-0.943-2.278s0.335-1.67 0.943-2.278l0.454-0.454c0.763-0.763 1.183-1.778 1.183-2.857v-0.177c0-1.079-0.42-2.094-1.183-2.857l-0.73 0.73c0.568 0.569 0.881 1.324 0.881 2.128v0.177c0 0.804-0.313 1.559-0.881 2.127l-0.454 0.454c-0.804 0.803-1.246 1.871-1.246 3.007s0.442 2.205 1.246 3.008l0.454 0.454z"></path>
<path fill="#000" d="M8.925 17.397l0.73-0.73-0.454-0.454c-0.609-0.609-0.943-1.417-0.943-2.278s0.335-1.67 0.943-2.278l0.454-0.454c0.763-0.763 1.183-1.778 1.183-2.857v-0.177c0-1.079-0.42-2.094-1.183-2.857l-0.73 0.73c0.568 0.569 0.881 1.324 0.881 2.128v0.177c0 0.804-0.313 1.559-0.881 2.127l-0.454 0.454c-0.804 0.803-1.246 1.871-1.246 3.007s0.442 2.205 1.246 3.008l0.454 0.454z"></path>
<path fill="#000" d="M13.054 17.397l0.73-0.73-0.454-0.454c-0.609-0.609-0.943-1.417-0.943-2.278s0.335-1.67 0.943-2.278l0.454-0.454c0.763-0.763 1.183-1.778 1.183-2.857v-0.177c0-1.079-0.42-2.094-1.183-2.857l-0.73 0.73c0.568 0.569 0.881 1.324 0.881 2.128v0.177c0 0.804-0.313 1.559-0.881 2.127l-0.454 0.454c-0.804 0.803-1.246 1.871-1.246 3.007s0.442 2.205 1.246 3.008l0.454 0.454z"></path>
<path fill="#000" d="M24.258 0c-4.269 0-7.742 3.473-7.742 7.742v11.871h-7.742c-4.838 0-8.774 3.936-8.774 8.774 0 1.992 1.621 3.613 3.613 3.613h20.645c4.269 0 7.742-3.473 7.742-7.742v-16.516c0-4.269-3.473-7.742-7.742-7.742zM22.454 30.968h-18.841c-1.246 0-2.289-0.888-2.529-2.065h20.077v-1.032h-20.103c0.267-4.028 3.621-7.226 7.716-7.226h9.29c4.095 0 7.448 3.197 7.716 7.226h-3.587v1.032h3.561c-0.24 1.176-1.282 2.065-2.529 2.065h-0.772zM30.968 24.258c0 3.11-2.131 5.725-5.006 6.482 0.546-0.633 0.877-1.454 0.877-2.353 0-4.838-3.936-8.774-8.774-8.774h-0.516v-11.871c0-3.7 3.010-6.71 6.71-6.71s6.71 3.010 6.71 6.71v16.516z"></path>
<path fill="#f0bc5e" d="M28.387 8.258h-8.258c-0.57 0-1.032 0.462-1.032 1.032s0.462 1.032 1.032 1.032h8.258c0.57 0 1.032-0.462 1.032-1.032s-0.462-1.032-1.032-1.032z"></path>
</svg>
