<!-- Generated by IcoMoon.io -->
<svg version="1.1" xmlns="http://www.w3.org/2000/svg" width="32" height="32" viewBox="0 0 32 32">
<title>brochette</title>
<path fill="#f9ba48" d="M18.517 17.113c0 2.005-1.625 3.63-3.63 3.63s-3.63-1.625-3.63-3.63c0-2.005 1.625-3.63 3.63-3.63s3.63 1.625 3.63 3.63z"></path>
<path fill="#f9ba48" d="M25.258 10.372c0 2.005-1.625 3.63-3.63 3.63s-3.63-1.625-3.63-3.63c0-2.005 1.625-3.63 3.63-3.63s3.63 1.625 3.63 3.63z"></path>
<path fill="#333" d="M10.068 17.265c-0.589-0.589-1.7-0.589-2.289 0s-0.589 1.7 0 2.289l0.369 0.369c-0.495-0.142-1.014-0.217-1.558-0.217-1.362 0-2.074 0.783-2.074 1.556 0 1.376 0.698 2.074 2.074 2.074h0.122c0.468-0.003 0.832 0.004 1.124 0.094l-7.836 7.836 0.733 0.733 7.836-7.836c0.090 0.292 0.096 0.655 0.095 1.124v0.122c0 1.318 0.756 2.074 2.074 2.074 0.961 0 1.556-1.077 1.556-2.074 0-0.544-0.075-1.063-0.217-1.558l0.369 0.369c0.294 0.294 0.719 0.441 1.145 0.441s0.85-0.147 1.145-0.441c0.589-0.589 0.589-1.7 0-2.289l-4.667-4.667zM10.738 26.448c-0.861 0-1.037-0.415-1.037-1.037v-0.12c0.002-0.772 0.004-1.646-0.671-2.321-0.64-0.64-1.462-0.671-2.205-0.671-0.038 0-0.077 0-0.116 0.001h-0.12c-0.533 0-1.037 0-1.037-1.037 0-0.251 0.364-0.519 1.037-0.519 1.271 0 2.342 0.455 3.277 1.39 0.936 0.935 1.39 2.007 1.39 3.277 0 0.504-0.267 1.037-0.519 1.037zM14.002 23.488c-0.18 0.18-0.642 0.18-0.822 0l-4.667-4.667c-0.181-0.181-0.181-0.641 0-0.822 0.090-0.090 0.25-0.135 0.411-0.135s0.321 0.045 0.411 0.135l4.667 4.667c0.181 0.181 0.181 0.641 0 0.822z"></path>
<path fill="#333" d="M29.926 4.149h-0.122c-0.752-0.003-1.234-0.015-1.585-0.367s-0.369-0.832-0.367-1.585v-0.122c0-1.318-0.756-2.074-2.074-2.074-0.961 0-1.556 1.077-1.556 2.074 0 0.544 0.075 1.063 0.217 1.558l-0.369-0.369c-0.589-0.589-1.7-0.589-2.289 0s-0.589 1.7 0 2.289l4.667 4.667c0.294 0.294 0.719 0.441 1.145 0.441s0.85-0.147 1.145-0.441c0.589-0.589 0.589-1.7 0-2.289l-0.369-0.369c0.495 0.142 1.014 0.217 1.558 0.217 1.362 0 2.074-0.783 2.074-1.556 0-1.376-0.698-2.074-2.074-2.074zM28.003 9.486c-0.18 0.18-0.642 0.18-0.822 0l-4.667-4.667c-0.181-0.181-0.181-0.641 0-0.822 0.090-0.090 0.25-0.135 0.411-0.135s0.321 0.045 0.411 0.135l4.667 4.667c0.181 0.181 0.181 0.641 0 0.822zM29.926 6.742c-1.271 0-2.342-0.455-3.277-1.39-0.936-0.935-1.39-2.007-1.39-3.277 0-0.504 0.267-1.037 0.519-1.037 0.861 0 1.037 0.415 1.037 1.037v0.12c-0.002 0.772-0.004 1.647 0.671 2.321s1.54 0.682 2.321 0.671h0.12c0.533 0 1.037 0 1.037 1.037 0 0.251-0.364 0.519-1.037 0.519z"></path>
<path fill="#333" d="M17.069 10.264c-0.589-0.589-1.7-0.589-2.289 0s-0.589 1.7 0 2.289l4.667 4.667c0.294 0.294 0.719 0.441 1.145 0.441s0.85-0.147 1.145-0.441c0.589-0.589 0.589-1.7 0-2.289l-4.667-4.667zM21.002 16.487c-0.18 0.18-0.642 0.18-0.822 0l-4.667-4.667c-0.181-0.181-0.181-0.641 0-0.822 0.090-0.090 0.25-0.135 0.411-0.135s0.321 0.045 0.411 0.135l4.667 4.667c0.181 0.181 0.181 0.641 0 0.822z"></path>
<path fill="#333" d="M14.887 19.706v-1.037c-0.858 0-1.556-0.698-1.556-1.556h-1.037c0 1.43 1.163 2.593 2.593 2.593z"></path>
<path fill="#333" d="M21.628 12.964v-1.037c-0.858 0-1.556-0.698-1.556-1.556h-1.037c0 1.43 1.163 2.593 2.593 2.593z"></path>
</svg>
