<!-- Generated by IcoMoon.io -->
<svg version="1.1" xmlns="http://www.w3.org/2000/svg" width="32" height="32" viewBox="0 0 32 32">
<title>broccoli</title>
<path fill="#f0bc5e" d="M31.484 16c0-1.053-0.633-1.955-1.537-2.357 0.356-0.923 0.165-2.008-0.58-2.753s-1.83-0.935-2.753-0.58c-0.402-0.904-1.304-1.537-2.357-1.537-0.604 0-1.156 0.214-1.594 0.562 0.348-0.439 0.562-0.99 0.562-1.594 0-1.053-0.633-1.955-1.537-2.357 0.356-0.923 0.165-2.008-0.58-2.753s-1.83-0.935-2.753-0.58c-0.402-0.904-1.304-1.537-2.357-1.537s-1.955 0.633-2.357 1.537c-0.923-0.356-2.008-0.165-2.753 0.58s-0.935 1.83-0.58 2.753c-0.904 0.402-1.537 1.304-1.537 2.357 0 0.604 0.214 1.156 0.562 1.594-0.439-0.348-0.99-0.562-1.594-0.562-1.053 0-1.955 0.633-2.357 1.537-0.923-0.356-2.008-0.165-2.753 0.58s-0.935 1.83-0.58 2.753c-0.904 0.402-1.537 1.304-1.537 2.357s0.633 1.955 1.537 2.357c-0.356 0.923-0.165 2.008 0.58 2.753s1.83 0.935 2.753 0.58c0.401 0.904 1.303 1.537 2.356 1.537s1.955-0.633 2.357-1.537c0.911 0.351 1.98 0.167 2.724-0.554-0.114-0.478-0.351-0.921-0.704-1.274l-2.312-2.312 1.548-1.548 3.613 3.613v-4.645h2.065v4.645l3.613-3.613 1.548 1.548-2.312 2.312c-0.353 0.353-0.59 0.797-0.704 1.274 0.744 0.722 1.812 0.906 2.724 0.554 0.402 0.904 1.304 1.537 2.357 1.537s1.955-0.633 2.357-1.537c0.923 0.356 2.008 0.165 2.753-0.58s0.935-1.83 0.58-2.753c0.904-0.401 1.537-1.303 1.537-2.356z"></path>
<path fill="#000" d="M16 29.419h1.032c0-0.804 0.313-1.559 0.881-2.127l-0.73-0.73c-0.763 0.763-1.183 1.778-1.183 2.857z"></path>
<path fill="#000" d="M15.305 22.42l-0.855 0.579c0.338 0.5 0.517 1.083 0.517 1.687h1.032c0-0.811-0.241-1.594-0.695-2.266z"></path>
<path fill="#000" d="M32 16c0-1.066-0.552-2.049-1.438-2.611 0.228-1.025-0.075-2.109-0.829-2.863s-1.838-1.058-2.863-0.829c-0.563-0.886-1.545-1.438-2.611-1.438-0.196 0-0.388 0.025-0.577 0.061 0.036-0.189 0.061-0.38 0.061-0.577 0-1.066-0.552-2.049-1.438-2.611 0.228-1.025-0.075-2.109-0.829-2.863s-1.838-1.058-2.863-0.829c-0.563-0.886-1.545-1.438-2.611-1.438s-2.049 0.552-2.611 1.438c-1.022-0.229-2.109 0.075-2.863 0.829s-1.058 1.838-0.829 2.863c-0.886 0.563-1.438 1.545-1.438 2.611 0 0.196 0.025 0.388 0.061 0.577-0.189-0.036-0.381-0.060-0.577-0.060-1.066 0-2.049 0.552-2.611 1.438-1.022-0.229-2.109 0.075-2.863 0.829s-1.058 1.838-0.829 2.863c-0.886 0.563-1.438 1.545-1.438 2.611s0.552 2.049 1.438 2.611c-0.228 1.025 0.075 2.109 0.829 2.863s1.838 1.058 2.863 0.829c0.563 0.886 1.545 1.438 2.611 1.438s2.049-0.552 2.612-1.438c0.685 0.152 1.401 0.060 2.026-0.242-0.012 0.962-0.084 1.915-0.212 2.858-0.14-0.177-0.286-0.349-0.447-0.51l-0.73 0.73c0.381 0.381 0.689 0.821 0.922 1.307-0.337 1.651-0.851 3.266-1.545 4.828l-0.323 0.726h11.911l-0.323-0.726c-0.844-1.899-1.426-3.873-1.741-5.899l0.149-0.387c0.238-0.522 0.564-0.993 0.969-1.398l-0.73-0.73c-0.217 0.217-0.411 0.452-0.591 0.7-0.038-0.495-0.062-0.994-0.068-1.494 0.626 0.305 1.337 0.393 2.026 0.238 0.563 0.886 1.544 1.437 2.611 1.437s2.049-0.552 2.611-1.438c1.022 0.229 2.109-0.075 2.863-0.829s1.058-1.838 0.829-2.863c0.886-0.563 1.438-1.545 1.438-2.611zM29.738 17.884l-0.449 0.199 0.176 0.458c0.294 0.763 0.113 1.627-0.462 2.203s-1.439 0.757-2.203 0.463l-0.458-0.177-0.199 0.449c-0.331 0.747-1.071 1.23-1.884 1.23s-1.553-0.483-1.884-1.23l-0.199-0.449-0.458 0.177c-0.661 0.254-1.387 0.154-1.948-0.251 0.107-0.27 0.267-0.519 0.479-0.731l-0.73-0.73c-0.604 0.602-0.937 1.405-0.937 2.26 0 3.182 0.605 6.278 1.8 9.212h-8.761c1.194-2.935 1.8-6.030 1.8-9.212 0-0.854-0.333-1.657-0.936-2.26l-1.947-1.947 0.819-0.819 4.129 4.129v-5.422c0.169 0.029 0.341 0.047 0.516 0.047s0.347-0.019 0.516-0.047v5.422l4.129-4.129 0.824 0.824-1.148 1.183 0.741 0.719 1.856-1.912-2.273-2.273-3.097 3.097v-3.308c0.553-0.322 1.009-0.808 1.279-1.418l-0.943-0.419c-0.331 0.747-1.071 1.23-1.884 1.23s-1.553-0.483-1.884-1.23l-0.943 0.419c0.27 0.61 0.727 1.096 1.279 1.418v3.308l-3.097-3.097-2.278 2.278 2.677 2.677c0.212 0.212 0.373 0.462 0.48 0.733-0.558 0.4-1.295 0.501-1.949 0.249l-0.458-0.177-0.199 0.449c-0.332 0.747-1.071 1.23-1.885 1.23s-1.553-0.483-1.884-1.23l-0.199-0.449-0.458 0.177c-0.762 0.293-1.626 0.113-2.203-0.463-0.575-0.575-0.757-1.439-0.462-2.203l0.177-0.458-0.449-0.199c-0.747-0.331-1.23-1.071-1.23-1.884s0.483-1.553 1.23-1.884l0.449-0.199-0.177-0.458c-0.294-0.763-0.113-1.627 0.462-2.203s1.44-0.756 2.203-0.463l0.458 0.177 0.199-0.449c0.331-0.747 1.071-1.23 1.884-1.23 0.415 0 0.814 0.123 1.155 0.355l0.011-0.017c0.218 0.281 0.481 0.529 0.788 0.724-0.228 1.025 0.075 2.109 0.829 2.863l0.73-0.73c-0.575-0.575-0.757-1.439-0.462-2.203l0.176-0.458-0.449-0.199c-0.747-0.33-1.23-1.070-1.23-1.883s0.483-1.553 1.23-1.884l0.449-0.199-0.176-0.458c-0.294-0.763-0.113-1.627 0.462-2.203s1.441-0.756 2.203-0.463l0.458 0.177 0.199-0.449c0.331-0.747 1.071-1.23 1.884-1.23s1.553 0.483 1.884 1.23l0.199 0.449 0.458-0.177c0.763-0.293 1.627-0.113 2.203 0.463 0.575 0.575 0.757 1.439 0.462 2.203l-0.176 0.458 0.449 0.199c0.747 0.331 1.23 1.071 1.23 1.884s-0.483 1.553-1.23 1.884l-0.449 0.199 0.176 0.458c0.294 0.763 0.113 1.627-0.462 2.203l0.73 0.73c0.754-0.754 1.058-1.838 0.829-2.863 0.314-0.199 0.583-0.453 0.803-0.742l0.015 0.023c0.337-0.225 0.73-0.344 1.136-0.344 0.813 0 1.553 0.483 1.884 1.23l0.199 0.449 0.458-0.177c0.763-0.293 1.627-0.113 2.203 0.463 0.575 0.575 0.757 1.439 0.462 2.203l-0.176 0.458 0.449 0.199c0.747 0.331 1.23 1.071 1.23 1.884s-0.483 1.553-1.23 1.884z"></path>
<path fill="#000" d="M22.71 14.452c0 1.139 0.926 2.065 2.065 2.065v-1.032c-0.569 0-1.032-0.463-1.032-1.032s0.463-1.032 1.032-1.032v-1.032c-1.139 0-2.065 0.926-2.065 2.065z"></path>
<path fill="#000" d="M26.839 15.484v1.032c0.569 0 1.032 0.463 1.032 1.032s-0.463 1.032-1.032 1.032v1.032c1.139 0 2.065-0.926 2.065-2.065s-0.926-2.065-2.065-2.065z"></path>
<path fill="#000" d="M8.258 12.903c-1.139 0-2.065 0.926-2.065 2.065h1.032c0-0.569 0.463-1.032 1.032-1.032s1.032 0.463 1.032 1.032h1.032c0-1.139-0.926-2.065-2.065-2.065z"></path>
<path fill="#000" d="M5.161 18.065c-0.569 0-1.032-0.463-1.032-1.032h-1.032c0 1.139 0.926 2.065 2.065 2.065s2.065-0.926 2.065-2.065h-1.032c0 0.569-0.463 1.032-1.032 1.032z"></path>
<path fill="#000" d="M17.548 4.129c-1.139 0-2.065 0.926-2.065 2.065h1.032c0-0.569 0.463-1.032 1.032-1.032s1.032 0.463 1.032 1.032h1.032c0-1.139-0.926-2.065-2.065-2.065z"></path>
<path fill="#000" d="M14.452 9.29c-0.569 0-1.032-0.463-1.032-1.032h-1.032c0 1.139 0.926 2.065 2.065 2.065s2.065-0.926 2.065-2.065h-1.032c0 0.569-0.463 1.032-1.032 1.032z"></path>
</svg>
