<!-- Generated by IcoMoon.io -->
<svg version="1.1" xmlns="http://www.w3.org/2000/svg" width="32" height="32" viewBox="0 0 32 32">
<title>brownie</title>
<path fill="#f0bc5e" d="M17.032 13.419v7.452c0 0.671 0.631 1.164 1.283 1.001 0.459-0.115 0.782-0.528 0.782-1.001v-4.066c0-0.474 0.323-0.887 0.782-1.001 0.651-0.163 1.283 0.33 1.283 1.002v2.001c0 0.671 0.631 1.164 1.283 1.001 0.459-0.115 0.782-0.528 0.782-1.001v-3.033c0-0.474 0.323-0.887 0.782-1.001 0.651-0.163 1.283 0.329 1.283 1.001v0.453c0 0.671 0.631 1.164 1.283 1.001 0.459-0.115 0.782-0.528 0.782-1.001v-1.485c0-0.474 0.323-0.887 0.782-1.001 0.651-0.163 1.283 0.329 1.283 1.001v3.033c0 0.671 0.631 1.164 1.283 1.001 0.459-0.115 0.782-0.528 0.782-1.001v-6.936l-14.452 2.581z"></path>
<path fill="#000" d="M22.255 6.172l-22.255 4.239v11.085l9.745 4.331 22.255-4.239v-11.085l-9.745-4.331zM29.767 10.641l-3.821 0.728-7.635-3.394 3.821-0.728 7.635 3.394zM1.032 11.633l8.258 3.67v1.451l-8.258-3.67v-1.451zM9.868 14.43l-7.635-3.394 3.821-0.728 7.635 3.394-3.821 0.728zM15.468 13.364l-7.635-3.394 3.46-0.659 7.635 3.394-3.46 0.659zM20.707 12.366l-7.635-3.394 3.46-0.659 7.635 3.394-3.46 0.659zM1.032 14.214l8.258 3.67v6.613l-8.258-3.671v-6.612zM10.323 24.666v-6.695l6.71-1.342v-1.053l-6.71 1.342v-1.524l20.645-3.932v9.272l-20.645 3.932z"></path>
<path fill="#000" d="M2.065 16.516h1.032v1.032h-1.032v-1.032z"></path>
<path fill="#000" d="M3.613 19.613h1.032v1.032h-1.032v-1.032z"></path>
<path fill="#000" d="M6.71 18.581h1.032v1.032h-1.032v-1.032z"></path>
<path fill="#000" d="M11.355 20.645h1.032v1.032h-1.032v-1.032z"></path>
<path fill="#000" d="M14.452 18.581h1.032v1.032h-1.032v-1.032z"></path>
</svg>
