<!-- Generated by IcoMoon.io -->
<svg version="1.1" xmlns="http://www.w3.org/2000/svg" width="32" height="32" viewBox="0 0 32 32">
<title>burrito</title>
<path fill="#f9ba48" d="M16.014 25.29v-0.037c-2.082 2.543-5.245 4.166-8.789 4.166 2.065 1.548 5.622 2.072 8.774 2.065 3.214-0.008 7.226-1.032 8.774-2.065-3.526 0-6.677-1.608-8.76-4.129z"></path>
<path fill="#f9ba48" d="M16.014 10.876v-0.037c2.083-2.522 5.234-4.129 8.76-4.129 0 0-1.032-6.194-8.774-6.194s-8.774 6.194-8.774 6.194c3.543 0 6.707 1.623 8.789 4.166z"></path>
<path fill="#333" d="M25.29 6.193h-0.113c-0.422-1.469-2.313-6.193-9.177-6.193s-8.756 4.724-9.177 6.193h-0.113v23.742h0.358c2.522 1.785 6.595 2.065 8.871 2.065 0.021 0 0.042 0 0.063 0 3.093-0.008 7.107-0.945 8.917-2.065h0.372v-23.742zM7.742 7.237c5.738 0.27 10.323 5.023 10.323 10.827s-4.585 10.556-10.323 10.827v-21.654zM18.526 3.327c0.003-0.007 0.328-0.628 1.439-0.258 0.765 0.255 0.722 0.792 0.693 0.943l-0.146 0.632h0.649c0.059 0 1.381 0.023 1.533 1.733-0.514 0.091-1.019 0.217-1.513 0.374l0.001-0.040c-0.069-0.019-0.25-0.169-0.37-0.268-0.299-0.247-0.682-0.563-1.199-0.698v-1.1h-1.032v1.14c-0.476 0.217-0.647 0.717-0.747 1.019-0.146 0.439-0.191 0.423-0.298 0.421-0.015-0.058-0.029-0.151-0.039-0.218-0.040-0.268-0.108-0.716-0.464-1.017v-2.377h-1.032v2.065c-1.176 0-1.534 0.741-1.748 1.182-0.178 0.366-0.204 0.366-0.317 0.366s-0.144 0-0.285-0.421c-0.050-0.151-0.118-0.351-0.231-0.541v-0.070l-0.532-2.189-1.001 0.25 0.358 1.433c-0.712 0.050-1.208 0.453-1.573 0.756-0.082 0.068-0.168 0.138-0.243 0.192-0.202-0.057-0.407-0.108-0.613-0.154 0.030-0.421 0.153-1.244 0.536-1.632 0.137-0.139 0.292-0.204 0.488-0.204h0.516v-0.516c0-0.007 0.009-0.718 0.747-1.086 0.793-0.397 1.363 0.289 1.422 0.365l0.928 1.229v-1.541c0-0.042 0.018-1.032 1.548-1.032 1.445 0 1.543 0.866 1.548 1.032v2.186l0.978-1.956zM16 10.071v-1.813h-1.032v0.819c-0.34-0.293-0.694-0.568-1.065-0.822 0.012 0 0.021 0.003 0.033 0.003 0.788 0 1.064-0.571 1.246-0.949 0.193-0.398 0.29-0.599 0.818-0.599 0.408 0 0.414 0.043 0.475 0.452 0.050 0.328 0.164 1.097 1.073 1.097 0.888 0 1.132-0.733 1.263-1.127 0.141-0.421 0.171-0.421 0.285-0.421 0.38 0 0.682 0.223 0.969 0.458-1.529 0.661-2.917 1.642-4.066 2.903zM12.672 7.131c0.046 0.139 0.108 0.32 0.206 0.496-0.413-0.225-0.843-0.423-1.285-0.598 0.236-0.177 0.49-0.319 0.793-0.319 0.114 0 0.144 0 0.285 0.421zM15.997 26.055c0.343 0.377 0.707 0.728 1.090 1.054-1.308 1.915-3.405 1.924-4.764 1.674 1.396-0.667 2.643-1.598 3.674-2.729zM17.904 27.744c0.662 0.471 1.369 0.87 2.109 1.194-0.879 0.391-2.212 0.748-3.578 0.226 0.531-0.331 1.032-0.793 1.469-1.419zM16.665 25.252c1.524-1.997 2.431-4.488 2.431-7.188s-0.907-5.191-2.431-7.187c1.946-2.196 4.67-3.502 7.593-3.64v21.654c-2.922-0.138-5.646-1.445-7.593-3.639zM16 1.032c5.891 0 7.649 3.708 8.115 5.179-0.136 0.008-0.271 0.022-0.406 0.034-0.166-1.671-1.19-2.368-2.019-2.566-0.065-0.565-0.406-1.257-1.397-1.587-0.861-0.287-1.516-0.172-1.971 0.072-0.331-0.583-1.021-1.131-2.322-1.131-1.32 0-2.012 0.565-2.336 1.157-0.515-0.303-1.229-0.468-2.024-0.071-0.831 0.416-1.139 1.098-1.252 1.551-0.366 0.097-0.685 0.315-0.938 0.646-0.453 0.591-0.611 1.434-0.655 1.985-0.3-0.040-0.603-0.071-0.909-0.088 0.465-1.47 2.222-5.18 8.115-5.18zM15.999 30.968c-2.823 0.022-5.287-0.402-7.042-1.16 0.603-0.089 1.192-0.222 1.762-0.398 0.328 0.126 1.464 0.52 2.824 0.52 0.536 0 1.105-0.063 1.67-0.228 0.902 0.555 1.809 0.76 2.647 0.76 1.548 0 2.851-0.676 3.449-1.045 0.488 0.149 0.985 0.269 1.492 0.355-1.815 0.649-4.453 1.19-6.803 1.196z"></path>
<path fill="#333" d="M10.839 15.484v1.032c0.854 0 1.548-0.695 1.548-1.548s-0.695-1.548-1.548-1.548-1.548 0.695-1.548 1.548h1.032c0-0.285 0.231-0.516 0.516-0.516s0.516 0.231 0.516 0.516-0.231 0.516-0.516 0.516z"></path>
<path fill="#333" d="M22.194 13.419v-1.032c-0.569 0-1.032-0.463-1.032-1.032s0.463-1.032 1.032-1.032v-1.032c-1.139 0-2.065 0.926-2.065 2.065s0.926 2.065 2.065 2.065z"></path>
<path fill="#333" d="M11.871 19.355v1.032c0.854 0 1.548 0.695 1.548 1.548s-0.695 1.548-1.548 1.548v1.032c1.423 0 2.581-1.158 2.581-2.581s-1.158-2.581-2.581-2.581z"></path>
<path fill="#333" d="M17.032 16c0-0.854-0.695-1.548-1.548-1.548v1.032c0.285 0 0.516 0.231 0.516 0.516s-0.231 0.516-0.516 0.516v1.032c0.854 0 1.548-0.695 1.548-1.548z"></path>
<path fill="#333" d="M21.677 25.29c-0.569 0-1.032-0.463-1.032-1.032s0.463-1.032 1.032-1.032v-1.032c-1.139 0-2.065 0.926-2.065 2.065s0.926 2.065 2.065 2.065 2.065-0.926 2.065-2.065h-1.032c0 0.569-0.463 1.032-1.032 1.032z"></path>
<path fill="#333" d="M21.677 19.613v-1.032c-0.285 0-0.516-0.231-0.516-0.516s0.231-0.516 0.516-0.516 0.516 0.231 0.516 0.516h1.032c0-0.854-0.695-1.548-1.548-1.548s-1.548 0.695-1.548 1.548 0.695 1.548 1.548 1.548z"></path>
<path fill="#333" d="M10.323 11.355c0.854 0 1.548-0.695 1.548-1.548h-1.032c0 0.285-0.231 0.516-0.516 0.516s-0.516-0.231-0.516-0.516h-1.032c0 0.854 0.695 1.548 1.548 1.548z"></path>
<path fill="#333" d="M8.774 18.581h1.032v4.645h-1.032v-4.645z"></path>
<path fill="#333" d="M8.774 24.258h1.032v1.032h-1.032v-1.032z"></path>
<path fill="#333" d="M8.774 26.323h1.032v1.032h-1.032v-1.032z"></path>
</svg>
