<!-- Generated by IcoMoon.io -->
<svg version="1.1" xmlns="http://www.w3.org/2000/svg" width="32" height="32" viewBox="0 0 32 32">
<title>cabbage-1</title>
<path fill="#f0bc5e" d="M25.528 11.576l-0.217-0.379c-0.521-0.911-0.795-1.943-0.795-2.993v0c0-0.648 0.105-1.292 0.31-1.908l0.563-1.69c0.106-0.316 0.159-0.648 0.159-0.982 0-1.717-1.391-3.109-3.109-3.109-2.132 0-4.005 1.413-4.59 3.463l-0.043 0.15-0.918 0.612c-0.223 0.149-0.425 0.319-0.617 0.498l-0.013-0.078v-1.032c0-1.14-0.924-2.065-2.065-2.065l-0.234-0.351c-0.499-0.748-1.339-1.197-2.238-1.197-1.485 0-2.69 1.204-2.69 2.69v0.407l-0.611 0.436c-1.884 1.346-3.002 3.518-3.002 5.834 0 0.971 0.197 1.932 0.58 2.824l0.709 1.655c0.171 0.399 0.26 0.829 0.26 1.265 0 0.582-0.158 1.153-0.458 1.652l-0.576 0.96c-0.337 0.561-0.515 1.204-0.515 1.858 0 1.297 0.695 2.493 1.82 3.137l1.793 1.025 0.206 0.077c-0.13-0.521-0.206-1.064-0.206-1.626 0-4.458 0.516-8.901 1.537-13.241l0.528-2.243v7.102c0 1.453 0.178 2.901 0.531 4.311v0c0.669 2.677 1.953 5.161 3.749 7.257l0.366 0.427-0.278 0.347 0.122 0.046c1.969-2.582 3.324-5.592 3.927-8.808 0.237-1.27 0.357-2.558 0.357-3.849v-9.414l1.094 4.812c0.988 4.348 1.487 8.793 1.487 13.253 0 0.177-0.013 0.35-0.026 0.523l0.026-0.007 2.11-2.374c1.3-1.463 2.019-3.352 2.019-5.31v0c0-1.391-0.363-2.758-1.053-3.965z"></path>
<path fill="#000" d="M19.871 22.71c0 1.447-0.74 2.764-1.979 3.524l0.539 0.88c1.548-0.948 2.472-2.595 2.472-4.404l-0.001-0.355-1.032 0.005 0.001 0.35z"></path>
<path fill="#000" d="M11.634 23.129l-1.027 0.104c0.152 1.494 0.949 2.847 2.187 3.711l0.591-0.847c-0.991-0.692-1.63-1.773-1.751-2.968z"></path>
<path fill="#000" d="M27.097 15.542c0-1.478-0.388-2.938-1.121-4.222l-0.217-0.379c-0.475-0.831-0.727-1.778-0.727-2.737 0-0.594 0.095-1.181 0.283-1.744l0.564-1.69c0.123-0.371 0.185-0.757 0.185-1.146 0-1.998-1.626-3.624-3.624-3.624-2.338 0-4.421 1.563-5.078 3.805l-0.588 0.392v-0.068c0-1.326-1.005-2.422-2.294-2.565l-0.091-0.137c-0.596-0.894-1.593-1.428-2.667-1.428-1.768 0-3.206 1.438-3.206 3.206v0.141l-0.394 0.282c-2.015 1.44-3.219 3.778-3.219 6.254 0 1.047 0.209 2.066 0.621 3.028l0.709 1.655c0.145 0.337 0.218 0.694 0.218 1.061 0 0.488-0.133 0.968-0.384 1.386l-0.576 0.96c-0.385 0.642-0.588 1.376-0.588 2.124 0 1.478 0.797 2.851 2.080 3.585l1.793 1.025 0.019-0.032c0.622 2.196 2.256 3.966 4.366 4.777v2.549h5.161v-2.549c2.486-0.955 4.317-3.24 4.605-5.983l2.020-2.273c1.386-1.559 2.149-3.567 2.149-5.653zM9.548 22.71c0-0.224 0.002-0.447 0.004-0.663l0.022-0.815-1.032-0.028-0.022 0.823c-0.003 0.228-0.004 0.455-0.004 0.683 0 0.229 0.013 0.455 0.035 0.679l-1.055-0.603c-0.963-0.55-1.56-1.58-1.56-2.689 0-0.561 0.153-1.112 0.441-1.593l0.576-0.96c0.348-0.579 0.532-1.242 0.532-1.917 0-0.508-0.101-1.002-0.301-1.468l-0.709-1.655c-0.357-0.833-0.538-1.714-0.538-2.62 0-2.144 1.042-4.168 2.786-5.414l0.827-0.59v-0.673c0-1.198 0.975-2.173 2.173-2.173 0.728 0 1.404 0.362 1.809 0.968l0.387 0.581h0.276c0.854 0 1.548 0.695 1.548 1.548v0.906c-0.98 1-1.548 2.345-1.548 3.777 0 1.445 0.563 2.803 1.584 3.825l0.369 0.369c0.405 0.405 0.628 0.943 0.628 1.515 0 0.501-0.177 0.988-0.497 1.372l-0.768 0.922c-0.849 1.018-1.316 2.309-1.316 3.635v0.196c0 1.658 0.746 3.241 2 4.313-0.132 0.209-0.277 0.409-0.417 0.612l-0.009-0.010c-1.057-1.233-1.934-2.62-2.606-4.1v-0.449c0-2.185 0.517-4.373 1.494-6.328l-0.923-0.462c-0.749 1.499-1.241 3.127-1.464 4.79-0.047-0.166-0.098-0.33-0.14-0.497-0.33-1.323-0.5-2.683-0.511-4.045l0.145-0.869c0.218-1.306 0.828-2.491 1.764-3.428l-0.73-0.73c-0.469 0.468-0.862 0.993-1.184 1.556v-3.772c0-0.262-0.197-0.483-0.457-0.513-0.264-0.034-0.502 0.139-0.562 0.394l-0.527 2.243c-0.167 0.711-0.317 1.427-0.458 2.145-0.335-1.277-0.916-2.485-1.712-3.547l-0.826 0.619c0.959 1.279 1.571 2.793 1.768 4.366l0.196 1.99 0.006-0.001c-0.236 1.752-0.395 3.513-0.471 5.274l1.031 0.044c0.121-2.799 0.45-5.601 0.979-8.357v2.443c0 1.494 0.184 2.986 0.547 4.436 0.685 2.741 2.019 5.323 3.857 7.467l0.172 0.2c-0.538 0.702-1.116 1.378-1.749 2.011-2.261-0.924-3.859-3.144-3.859-5.733zM17.29 30.968h-3.097v-1.204c0.5 0.109 1.017 0.171 1.548 0.171s1.049-0.062 1.548-0.171v1.204zM22.956 21.882c-0.013-0.945-0.046-1.889-0.103-2.831l0.2-0.936c0.264-1.584 0.913-3.1 1.877-4.386l-0.826-0.619c-0.641 0.854-1.152 1.801-1.522 2.796-0.162-1.428-0.379-2.85-0.643-4.262l0.127-1.024c0.244-1.46 0.702-2.871 1.365-4.195l-0.923-0.462c-0.478 0.956-0.849 1.959-1.126 2.994l-1.006-4.426c-0.058-0.256-0.303-0.43-0.561-0.398-0.261 0.029-0.459 0.25-0.459 0.513v5.333c-0.559-0.925-1.368-1.691-2.35-2.182l-0.462 0.923c1.183 0.591 2.070 1.66 2.433 2.932l0.379 1.324v1.083c0 0.342-0.009 0.684-0.026 1.026l1.031 0.052c0.018-0.359 0.027-0.718 0.027-1.078v-4.814l0.074 0.327c0.978 4.305 1.474 8.726 1.474 13.138 0 3.415-2.778 6.194-6.194 6.194-0.424 0-0.839-0.043-1.239-0.125 2.843-2.995 4.755-6.703 5.517-10.776 0.061-0.328 0.116-0.657 0.163-0.999 0.034-0.29 0.065-0.577 0.092-0.86l-1.027-0.1c-0.027 0.277-0.057 0.557-0.089 0.829-0.044 0.314-0.095 0.628-0.154 0.94-0.115 0.612-0.265 1.211-0.433 1.804-0.188-0.648-0.473-1.268-0.853-1.839l-0.859 0.572c0.618 0.929 0.946 2.008 0.946 3.123v0.355c-0.315 0.765-0.678 1.507-1.084 2.227-0.943-0.873-1.497-2.114-1.497-3.41v-0.196c0-1.084 0.382-2.14 1.077-2.974l0.768-0.922c0.474-0.569 0.736-1.291 0.736-2.033 0-0.848-0.33-1.645-0.93-2.246l-0.369-0.369c-0.826-0.827-1.282-1.926-1.282-3.095 0-1.467 0.729-2.828 1.949-3.641l1.076-0.717 0.095-0.332c0.519-1.819 2.203-3.089 4.094-3.089 1.429 0 2.592 1.163 2.592 2.592 0 0.279-0.045 0.555-0.133 0.82l-0.564 1.689c-0.223 0.669-0.336 1.366-0.336 2.071 0 1.138 0.298 2.262 0.863 3.249l0.217 0.379c0.644 1.128 0.985 2.411 0.985 3.709 0 1.833-0.67 3.597-1.888 4.967l-1.221 1.373z"></path>
</svg>
