<!-- Generated by IcoMoon.io -->
<svg version="1.1" xmlns="http://www.w3.org/2000/svg" width="32" height="32" viewBox="0 0 32 32">
<title>cabbage</title>
<path fill="#f0bc5e" d="M29.299 14.453c-1.583-1.759-2.46-4.043-2.46-6.41v-0.968c-3.899 1.3-6.958 4.359-8.258 8.258-1.131 0.566-2.013 1.483-2.542 2.581l-0.001 0.165c-0.518-1.171-1.431-2.152-2.618-2.746-1.3-3.899-4.359-6.958-8.258-8.258v0.968c0 2.367-0.876 4.65-2.46 6.41-1.407 1.563-2.185 3.592-2.185 5.695 0 3.61 2.276 6.827 5.68 8.028 2.048 0.723 4.204 1.092 6.375 1.092h6.857c2.172 0 4.328-0.37 6.375-1.092 3.404-1.201 5.68-4.419 5.68-8.028 0-2.103-0.778-4.132-2.185-5.695z"></path>
<path fill="#000" d="M14.622 14.11l0.959-0.379c-0.182-0.459-0.391-0.904-0.614-1.342v-0.758c0.001-0.792 0.322-1.567 0.881-2.126l-0.73-0.73c-0.548 0.548-0.923 1.25-1.088 2.003-1.046-1.561-2.37-2.931-3.924-4.043l-0.601 0.84c2.311 1.653 4.080 3.913 5.116 6.536z"></path>
<path fill="#000" d="M29.682 14.107c-1.5-1.667-2.327-3.821-2.327-6.065v-1.684l-0.679 0.226c-0.65 0.217-1.271 0.493-1.875 0.802-0.551-1.213-1.296-2.312-2.242-3.258l-0.365-0.364-1.003 1.003c-0.267 0.266-0.557 0.504-0.863 0.716-0.449-0.615-1.041-1.102-1.75-1.405-0.83-0.356-1.575-0.86-2.213-1.498l-0.365-0.365-0.365 0.365c-0.638 0.638-1.383 1.142-2.212 1.498-0.707 0.303-1.3 0.791-1.75 1.406-0.306-0.213-0.597-0.45-0.863-0.717l-1.004-1.003-0.365 0.365c-0.946 0.946-1.688 2.042-2.237 3.252-0.603-0.309-1.229-0.579-1.879-0.796l-0.68-0.226v1.684c0 2.244-0.827 4.397-2.327 6.065-1.495 1.661-2.318 3.806-2.318 6.041 0 3.821 2.421 7.243 6.024 8.515 2.108 0.744 4.311 1.121 6.547 1.121h6.857c2.236 0 4.439-0.377 6.548-1.122 3.603-1.272 6.024-4.694 6.024-8.515 0-2.234-0.823-4.379-2.318-6.041zM13.83 5.027c0.797-0.342 1.525-0.803 2.17-1.373 0.645 0.57 1.373 1.032 2.171 1.373 0.504 0.216 0.932 0.552 1.263 0.976-0.44 0.209-0.903 0.37-1.385 0.473l-1.093 0.234c-0.321 0.069-0.638 0.165-0.948 0.277-0.312-0.113-0.635-0.206-0.966-0.277l-1.092-0.234c-0.482-0.103-0.945-0.264-1.384-0.472 0.333-0.424 0.76-0.761 1.262-0.977zM9.816 5.233l0.265 0.264c1.003 1.003 2.267 1.691 3.655 1.989l1.092 0.234c2.283 0.489 4.084 2.177 4.733 4.412-0.571 0.888-1.048 1.831-1.401 2.838-0.869 0.474-1.612 1.16-2.161 1.981-0.54-0.809-1.267-1.497-2.157-1.982-1.040-2.964-3.093-5.467-5.736-7.088 0.431-0.97 0.999-1.861 1.71-2.649zM6.368 27.689c-3.192-1.126-5.336-4.157-5.336-7.541 0-1.978 0.729-3.879 2.053-5.35 1.672-1.858 2.592-4.257 2.592-6.756v-0.23c3.405 1.361 6.087 4.187 7.253 7.683l0.068 0.203 0.191 0.096c1.734 0.867 2.811 2.61 2.811 4.549v1.397l0.24 0.239c0.844 0.844 1.308 1.966 1.308 3.159s-0.465 2.315-1.308 3.16l-0.31 0.31-0.19-0.123c-0.465-0.301-0.919-0.627-1.33-0.95l-0.599-0.524-0.681 0.776 0.619 0.541c0.183 0.145 0.373 0.285 0.564 0.424h-1.741c-2.119 0-4.206-0.358-6.203-1.063zM25.632 27.689c-1.997 0.705-4.085 1.063-6.203 1.063h-1.742c1.666-1.215 3.092-2.677 4.245-4.318 1.569-1.12 3.477-1.359 4.809-1.359h0.098v-1.032h-0.098c-1.037 0-2.392 0.141-3.726 0.657 0.417-0.76 0.776-1.552 1.082-2.365l0.009 0.009 0.1-0.1c1.254-1.255 2.725-2.225 4.373-2.883l-0.383-0.958c-1.266 0.506-2.433 1.186-3.49 2.022 0.384-1.496 0.585-3.052 0.585-4.64h-1.032c0 2.67-0.603 5.245-1.715 7.567-0.282-1.496-0.923-2.917-1.881-4.115l-0.13-0.163-0.806 0.645 0.13 0.163c1.149 1.436 1.788 3.232 1.816 5.069-0.917 1.492-2.063 2.846-3.409 4.018 0.204-0.581 0.317-1.196 0.317-1.83 0-1.439-0.549-2.794-1.548-3.826v-0.97c0-0.819-0.164-1.606-0.462-2.331 0.492-0.952 1.282-1.738 2.241-2.217l0.191-0.096 0.068-0.203c0.538-1.613 1.383-3.078 2.485-4.324l0.539-0.529-0.723-0.737-0.565 0.555c-0.182 0.205-0.344 0.423-0.513 0.638-0.587-1.432-1.598-2.625-2.885-3.43l0.856-0.183c1.387-0.297 2.651-0.985 3.654-1.988l0.265-0.264c0.713 0.789 1.283 1.683 1.715 2.657-0.606 0.371-1.192 0.778-1.739 1.244l0.669 0.785c1.048-0.893 2.22-1.601 3.493-2.107v0.231c0 2.499 0.92 4.898 2.592 6.755 1.324 1.471 2.053 3.371 2.053 5.35 0 3.384-2.144 6.415-5.336 7.541z"></path>
<path fill="#000" d="M10.839 23.414c0-1.745 0.679-3.386 1.913-4.619l-0.73-0.73c-1.139 1.139-1.862 2.579-2.111 4.145-1.404-2.564-2.169-5.469-2.169-8.425h-1.032c0 1.513 0.191 3.013 0.555 4.466-0.872-0.665-1.89-1.13-2.983-1.348l-0.050-0.010-0.204 1.012 0.051 0.010c1.508 0.301 2.845 1.144 3.785 2.396l0.086 0.102c0.528 1.377 1.215 2.692 2.054 3.91-1.358-0.469-2.855-0.731-4.325-0.731v1.032c2.007 0 4.069 0.517 5.67 1.418 0.319 0.363 0.65 0.718 0.999 1.057l0.719-0.742c-0.829-0.804-1.571-1.687-2.219-2.63l-0.007-0.313z"></path>
</svg>
