<!-- Generated by IcoMoon.io -->
<svg version="1.1" xmlns="http://www.w3.org/2000/svg" width="32" height="32" viewBox="0 0 32 32">
<title>cake-1</title>
<path fill="#f0bc5e" d="M19.613 17.967v5.677c0 0.57 0.462 1.032 1.032 1.032s1.032-0.462 1.032-1.032v-2.581c0-0.57 0.462-1.032 1.032-1.032s1.032 0.462 1.032 1.032v4.129c0 0.57 0.462 1.032 1.032 1.032s1.032-0.462 1.032-1.032v-7.226h-6.194z"></path>
<path fill="#f0bc5e" d="M10.764 6.767c-1.076-1.098-2.517-1.703-4.054-1.703h-1.548v0.516c0 3.13 2.547 5.677 5.677 5.677l-0.075-4.49z"></path>
<path fill="#000" d="M32 27.774h-3.613v-13.419h-0.53c0.328-0.433 0.53-0.965 0.53-1.548 0-1.423-1.158-2.581-2.581-2.581-0.204 0-0.401 0.030-0.591 0.075 0.045-0.19 0.075-0.387 0.075-0.591 0-1.423-1.158-2.581-2.581-2.581-0.204 0-0.401 0.030-0.591 0.075 0.045-0.19 0.075-0.387 0.075-0.591 0-1.423-1.158-2.581-2.581-2.581-1.223 0-2.245 0.857-2.509 2.002-0.618-0.74-1.491-1.257-2.482-1.423 0.274-1.406 0.879-2.742 1.781-3.868l-0.806-0.645c-1.039 1.299-1.73 2.844-2.020 4.47-2.109 0.182-3.77 1.955-3.77 4.11 0 2.277 1.852 4.129 4.129 4.129s4.129-1.852 4.129-4.129c0-0.005-0.001-0.009-0.001-0.014 0.433 0.328 0.965 0.53 1.549 0.53 0.204 0 0.401-0.030 0.591-0.075-0.045 0.19-0.075 0.387-0.075 0.591 0 1.423 1.158 2.581 2.581 2.581 0.204 0 0.401-0.030 0.591-0.075-0.045 0.19-0.075 0.387-0.075 0.591 0 0.583 0.202 1.116 0.53 1.548h-17.922l4.67-3.114c-0.503-0.029-0.989-0.122-1.449-0.275l-5.442 3.628v13.179h-3.613v1.032h1.751l1.608 3.097h25.282l1.608-3.097h1.751v-1.032zM13.935 11.774c-1.708 0-3.097-1.389-3.097-3.097 0-1.542 1.133-2.82 2.61-3.054-0.016 0.227-0.029 0.454-0.029 0.682v0.824h1.032v-0.824c0-0.225 0.012-0.45 0.029-0.673 1.448 0.259 2.552 1.524 2.552 3.046 0 1.708-1.389 3.097-3.097 3.097zM18.065 6.613c0-0.854 0.695-1.548 1.548-1.548s1.548 0.695 1.548 1.548-0.695 1.548-1.548 1.548-1.548-0.695-1.548-1.548zM21.161 9.709c0-0.854 0.695-1.548 1.548-1.548s1.548 0.695 1.548 1.548-0.695 1.548-1.548 1.548-1.548-0.695-1.548-1.548zM24.258 12.806c0-0.854 0.695-1.548 1.548-1.548s1.548 0.695 1.548 1.548-0.695 1.548-1.548 1.548-1.548-0.695-1.548-1.548zM4.645 20.548h14.968v-1.032h-14.968v-1.032h2.065v-1.032h-2.065v-2.065h22.71v2.065h-19.613v1.032h19.613v9.29h-22.71v-7.226zM28.014 30.871h-24.028l-1.072-2.065h26.172l-1.073 2.065z"></path>
</svg>
