<!-- Generated by IcoMoon.io -->
<svg version="1.1" xmlns="http://www.w3.org/2000/svg" width="32" height="32" viewBox="0 0 32 32">
<title>cake</title>
<path fill="#000" d="M32 27.871h-3.097v-13.935c0-1.423-1.158-2.581-2.581-2.581h-4.142c0.328-0.433 0.53-0.965 0.53-1.548 0-1.249-0.893-2.293-2.074-2.53-0.050-1.366-0.358-4.263-2.002-5.908l-1.026-1.011c-0.234-0.231-0.546-0.359-0.876-0.359-0.688 0-1.248 0.56-1.248 1.248v0.16c0 1.105-0.695 2.108-1.73 2.495-1.407 0.528-2.356 1.877-2.392 3.373-1.18 0.237-2.072 1.281-2.072 2.53 0 1.423 1.158 2.581 2.581 2.581v-1.032c-0.854 0-1.548-0.695-1.548-1.548s0.695-1.548 1.548-1.548h0.516v-0.892c0-1.105 0.695-2.108 1.73-2.495 0.81-0.304 1.462-0.885 1.883-1.605v0.097c0 0.689-0.268 1.337-0.756 1.825l-1.311 1.311c-0.665 0.664-1.030 1.547-1.030 2.486 0 0.9 0.342 1.735 0.926 2.37h-1.442v1.032h3.097v2.065h-2.581v1.032h2.581v9.29h1.032v-9.29h8.258v-1.032h-8.258v-2.065h9.806c0.854 0 1.548 0.695 1.548 1.548v0.516h-2.065v1.032h2.065v12.387h-11.355v-2.065h-1.032v2.065h-11.355v-4.129h-1.032v4.129h-3.097v1.032h1.692l1.032 3.097h26.55l1.032-3.097h1.693v-1.032zM15.308 11.206c-0.847-0.423-1.373-1.275-1.373-2.221 0-0.664 0.258-1.287 0.728-1.756l1.311-1.311c0.682-0.682 1.058-1.59 1.058-2.555v-0.86l0.107 0.286c0.577 1.537 0.608 3.241 0.089 4.797-0.13 0.391-0.196 0.797-0.196 1.209 0 0.971 0.365 1.871 0.99 2.56h-2.417l-0.298-0.149zM19.735 11.355l-0.127-0.064c-0.951-0.475-1.543-1.432-1.543-2.496 0-0.301 0.048-0.598 0.143-0.883 0.594-1.78 0.557-3.729-0.101-5.486l-0.057-0.152c1.143 1.299 1.563 3.643 1.563 5.467v0.516h0.516c0.854 0 1.548 0.695 1.548 1.548s-0.695 1.548-1.548 1.548h-0.394zM28.531 30.968h-25.062l-0.688-2.065h26.439l-0.689 2.065z"></path>
<path fill="#000" d="M18.581 17.032h1.032v1.032h-1.032v-1.032z"></path>
<path fill="#000" d="M22.194 18.581h1.032v1.032h-1.032v-1.032z"></path>
<path fill="#000" d="M25.806 17.548h1.032v1.032h-1.032v-1.032z"></path>
<path fill="#000" d="M25.29 21.677h1.032v1.032h-1.032v-1.032z"></path>
<path fill="#000" d="M25.29 25.806h1.032v1.032h-1.032v-1.032z"></path>
<path fill="#000" d="M21.677 22.71h1.032v1.032h-1.032v-1.032z"></path>
<path fill="#000" d="M17.548 21.161h1.032v1.032h-1.032v-1.032z"></path>
<path fill="#000" d="M19.097 25.806h1.032v1.032h-1.032v-1.032z"></path>
<path fill="#f0bc5e" d="M3.097 24.258c-0.854 0-1.548-0.695-1.548-1.548v-8.774c0-1.423 1.158-2.581 2.581-2.581h8.774v5.677c0 0.854-0.695 1.548-1.548 1.548s-1.548-0.695-1.548-1.548v-1.548c0-0.285-0.231-0.516-0.516-0.516s-0.516 0.231-0.516 0.516v5.161c0 0.854-0.695 1.548-1.548 1.548s-1.548-0.695-1.548-1.548v-3.613c0-0.285-0.231-0.516-0.516-0.516s-0.516 0.231-0.516 0.516v5.677c0 0.854-0.695 1.548-1.548 1.548z"></path>
</svg>
