<!-- Generated by IcoMoon.io -->
<svg version="1.1" xmlns="http://www.w3.org/2000/svg" width="32" height="32" viewBox="0 0 32 32">
<title>candy</title>
<path fill="#f9ba48" d="M22.193 17.033l-5.16 5.16-7.226-7.226 5.16-5.16 7.226 7.226z"></path>
<path fill="#343433" d="M10.473 16.668c-1.042 1.043-1.219 1.962-0.613 3.176l0.923-0.462c-0.409-0.819-0.319-1.246 0.419-1.985l1.548-1.548-0.73-0.73-1.548 1.549z"></path>
<path fill="#343433" d="M31.96 9.093c-0.080-0.193-0.268-0.318-0.477-0.318h-1.547v-1.548c0-0.285-0.231-0.516-0.516-0.516h-1.548v-2.064c0-0.285-0.231-0.516-0.516-0.516h-2.064v-1.548c0-0.285-0.231-0.516-0.516-0.516h-1.548v-1.548c0-0.209-0.126-0.397-0.318-0.477-0.193-0.081-0.414-0.036-0.563 0.112-1.406 1.407-2.215 3.42-2.22 5.525-0.002 0.668 0.13 1.324 0.372 1.946-0.696-0.268-1.381-0.398-1.918-0.4-0.003 0-0.006 0-0.009 0-1.146 0-2.34 0.589-3.453 1.703l-6.192 6.194c-1.112 1.11-1.7 2.308-1.7 3.462 0 0.466 0.068 1.171 0.37 1.955-0.734-0.269-1.545-0.413-2.402-0.413-0.011 0-0.023 0-0.035 0-1.778 0.008-3.603 0.818-5.006 2.223-0.148 0.148-0.192 0.37-0.112 0.563s0.268 0.318 0.477 0.318h1.548v1.548c0 0.285 0.231 0.516 0.516 0.516h1.548v2.064c0 0.285 0.231 0.516 0.516 0.516h2.064v1.548c0 0.285 0.231 0.516 0.516 0.516h1.548v1.548c0 0.209 0.126 0.397 0.318 0.477 0.064 0.027 0.131 0.039 0.198 0.039 0.134 0 0.266-0.053 0.365-0.151 1.406-1.407 2.215-3.42 2.22-5.525 0.002-0.648-0.123-1.283-0.35-1.888 0.596 0.221 1.227 0.339 1.894 0.339 1.135 0 2.364-0.603 3.461-1.7l6.192-6.194c1.112-1.111 1.7-2.309 1.7-3.462 0-0.466-0.068-1.171-0.37-1.956 0.736 0.27 1.548 0.415 2.407 0.415 0.011 0 0.023 0 0.035 0 1.778-0.008 3.603-0.819 5.006-2.223 0.148-0.147 0.192-0.369 0.112-0.562zM10.842 26.322c-0.003 1.33-0.371 2.614-1.036 3.684v-0.586c0-0.285-0.231-0.516-0.516-0.516h-1.548v-1.548c0-0.285-0.231-0.516-0.516-0.516h-2.064v-2.064c0-0.285-0.231-0.516-0.516-0.516h-1.548v-1.548c0-0.285-0.231-0.516-0.516-0.516h-0.628c0.996-0.665 2.117-1.034 3.21-1.039 0.010 0 0.020 0 0.030 0 1.299 0 2.465 0.375 3.343 1.063l-1.16 1.16 0.73 0.73 1.183-1.183 0.151 0.151c0.918 0.919 1.403 2.042 1.401 3.247zM22.341 16.151l-0.925 0.925-1.441-1.442-0.73 0.73 1.442 1.442-2.366 2.367-2.473-2.474-0.73 0.73 2.473 2.474-0.56 0.56-0.667-0.667-0.73 0.73 0.667 0.668-0.151 0.151c-0.889 0.888-1.884 1.397-2.731 1.397-1.246 0-2.308-0.457-3.247-1.397l-0.516-0.516c-1.215-1.215-1.397-2.556-1.397-3.248 0-1.105 0.76-2.095 1.397-2.732l3.247-3.248 1.183 1.183 0.73-0.73-1.183-1.183 1.334-1.335 1.7 1.7 0.73-0.73-1.7-1.7 0.151-0.151c0.916-0.916 1.858-1.4 2.724-1.4 0.002 0 0.004 0 0.006 0 0.921 0.003 2.333 0.484 3.249 1.4l0.516 0.516c1.215 1.215 1.397 2.556 1.397 3.247 0 1.104-0.76 2.095-1.397 2.732zM26.837 10.846c-1.312 0.027-2.491-0.364-3.376-1.064l1.675-1.675-0.73-0.73-1.698 1.698-0.149-0.149c-0.919-0.92-1.404-2.043-1.401-3.247 0.004-1.33 0.372-2.615 1.037-3.684v0.586c0 0.285 0.231 0.516 0.516 0.516h1.548v1.548c0 0.285 0.231 0.516 0.516 0.516h2.064v2.064c0 0.285 0.231 0.516 0.516 0.516h1.548v1.548c0 0.285 0.231 0.516 0.516 0.516h0.628c-0.996 0.665-2.117 1.034-3.21 1.039z"></path>
<path fill="#343433" d="M18.943 13.057l-0.73 0.73-1.031-1.032 0.73-0.73 1.031 1.032z"></path>
</svg>
