<!-- Generated by IcoMoon.io -->
<svg version="1.1" xmlns="http://www.w3.org/2000/svg" width="32" height="32" viewBox="0 0 32 32">
<title>canned-food</title>
<path fill="#f9ba48" d="M16 17.032c-4.561 0-8.258-3.697-8.258-8.258v14.452c0 4.561 3.697 8.258 8.258 8.258s8.258-3.697 8.258-8.258v-14.452c0 4.561-3.697 8.258-8.258 8.258z"></path>
<path fill="#333" d="M24.694 7.647c-0.556-4.307-4.238-7.647-8.694-7.647s-8.138 3.341-8.694 7.647c-0.047 0.2-0.081 0.403-0.081 0.611v14.968c0 4.838 3.936 8.774 8.774 8.774s8.774-3.936 8.774-8.774v-14.968c0-0.208-0.033-0.411-0.081-0.611zM22.221 13.364c-0.73-0.373-2.986-1.328-4.521 0.207l0.73 0.73c0.926-0.927 2.401-0.437 3.103-0.121-1.406 1.439-3.366 2.337-5.532 2.337-0.356 0-0.704-0.033-1.047-0.079l2.475-3.713c0.222-0.196 1.494-1.193 3.542-0.374 0.644 0.257 1.199 0.382 1.67 0.385-0.13 0.217-0.269 0.426-0.419 0.629zM12.401 9.811c0.003-0.295 0.31-1.036 1.018-1.036h0.767c-0.153 0.279-0.251 0.616-0.251 1.032 0 1.876 1.187 2.693 2.225 2.973l-0.565 0.845c-0.443-0.642-1.335-1.626-2.918-2.252-0.109-0.216-0.283-0.691-0.276-1.562zM14.965 14.566l-1.1 1.644c-2.235-0.643-4.059-2.263-4.971-4.372 4.32-0.175 5.811 2.227 6.072 2.728zM19.391 10.107c0.075 0.463-0.048 0.788-0.143 0.883l0.014 0.014c-1.221 0.045-2.056 0.578-2.407 0.856-0.5-0.051-1.888-0.343-1.888-2.054 0-0.942 0.793-1.028 1.032-1.032h2.441c0.721 0.407 0.906 1.061 0.95 1.333zM8.341 7.742c0.555-1.724 3.837-3.097 7.659-3.097s7.104 1.372 7.659 3.097h-15.319zM15.099 3.636c0.175-0.319 0.511-0.539 0.901-0.539s0.726 0.22 0.901 0.539c-0.296-0.015-0.596-0.023-0.901-0.023s-0.605 0.008-0.901 0.023zM16 1.032c3.060 0 5.703 1.789 6.959 4.372-1.203-0.827-2.925-1.425-4.935-1.668-0.184-0.951-1.020-1.672-2.025-1.672s-1.841 0.721-2.025 1.672c-2.010 0.243-3.732 0.84-4.935 1.668 1.256-2.583 3.899-4.372 6.959-4.372zM11.68 8.774c-0.201 0.339-0.308 0.71-0.311 1.027-0.005 0.494 0.043 0.888 0.112 1.216-0.832-0.185-1.805-0.267-2.938-0.193-0.18-0.654-0.284-1.339-0.284-2.050h3.422zM23.742 13.419c0 4.269-3.473 7.742-7.742 7.742v1.032c3.349 0 6.264-1.888 7.742-4.654v0.525c0 4.269-3.473 7.742-7.742 7.742v1.032c3.349 0 6.264-1.888 7.742-4.654v1.041c0 4.269-3.473 7.742-7.742 7.742s-7.742-3.473-7.742-7.742v-10.331c1.478 2.766 4.393 4.654 7.742 4.654s6.264-1.888 7.742-4.654v0.525zM23.29 11.355h-0.065c0 0.002-0.013 0.165-0.151 0.259-0.102 0.069-0.527 0.256-1.722-0.222-0.358-0.143-0.699-0.242-1.021-0.305 0.108-0.339 0.145-0.733 0.078-1.145-0.070-0.428-0.234-0.822-0.471-1.167h3.803c0 0.906-0.165 1.772-0.452 2.581z"></path>
<path fill="#333" d="M10.323 23.226h-1.032c0 3.7 3.010 6.71 6.71 6.71v-1.032c-3.13 0-5.677-2.547-5.677-5.677z"></path>
<path fill="#333" d="M9.29 20.129h1.032v2.065h-1.032v-2.065z"></path>
</svg>
