<!-- Generated by IcoMoon.io -->
<svg version="1.1" xmlns="http://www.w3.org/2000/svg" width="32" height="32" viewBox="0 0 32 32">
<title>car-frontal</title>
<path d="M29.439 27.413v-1.896h-4.816v1.896c0.013 3.355 4.816 3.394 4.816 0z"></path>
<path d="M7.355 27.413v-1.896h-4.797v1.896c-0.007 3.394 4.797 3.355 4.797 0z"></path>
<path d="M32 21.566v-6.65c-0.007-2.318-1.854-3.542-2.904-3.677l-2.624-6.772c-0.491-1.297-1.564-2.4-3.592-2.41h-13.784c-2.018 0.010-3.091 1.113-3.592 2.41l-2.624 6.772c-1.040 0.135-2.884 1.36-2.881 3.677v6.65c0 1.090 0.886 1.975 1.975 1.975h28.049c1.090 0 1.975-0.882 1.975-1.975zM5.366 18.665c-0.003 0-0.003 0-0.007 0s-0.003 0-0.007 0c-1.225 0-2.212-1.021-2.209-2.278-0.007-1.261 0.978-2.281 2.196-2.281 0.007 0 0.013 0 0.020 0s0.013 0 0.020 0c1.215 0 2.199 1.021 2.196 2.281 0.003 1.258-0.988 2.278-2.209 2.278zM16 11.176h-8.234c-0.724 0-1.215-0.737-0.932-1.406l1.383-3.269c0.207-0.517 0.609-1.3 1.485-1.314h12.566c0.863 0.013 1.080 0.497 1.485 1.314l1.383 3.269c0.283 0.668-0.207 1.406-0.932 1.406h-8.204zM26.479 18.83c-0.003 0-0.003 0-0.007 0s-0.003 0-0.007 0c-1.231 0-2.222-1.021-2.229-2.278 0.007-1.261 0.991-2.281 2.219-2.281 0.007 0 0.013 0 0.020 0s0.013 0 0.020 0c1.205 0 2.189 1.021 2.196 2.281-0.010 1.258-1.001 2.278-2.212 2.278z"></path>
</svg>
