<!-- Generated by IcoMoon.io -->
<svg version="1.1" xmlns="http://www.w3.org/2000/svg" width="32" height="32" viewBox="0 0 32 32">
<title>carrot</title>
<path fill="#f0bc5e" d="M29.52 32c-0.479 0-0.945-0.138-1.347-0.398l-14.296-9.25c-1.753-1.135-2.8-3.058-2.8-5.146 0-1.194 0.343-2.351 0.993-3.346 0.019-0.030 0.041-0.057 0.066-0.082l1.642-1.642c0.025-0.025 0.053-0.047 0.082-0.066 0.995-0.65 2.152-0.993 3.346-0.993 2.088 0 4.011 1.047 5.146 2.8l9.25 14.296c0.26 0.402 0.398 0.868 0.398 1.347 0 1.367-1.113 2.48-2.48 2.48z"></path>
<path fill="#000" d="M13.629 17.201c1.97 0 3.572-1.602 3.572-3.572h-1.021c0 0.093-0.018 0.181-0.028 0.271l-3.844-3.844 1.68-1.68-0.722-0.722-1.17 1.17v-1.108l1.892-1.892-0.722-0.722-1.17 1.17v-1.619l1.232-1.232h1.83v-1.021h-0.809l1.17-1.17-0.722-0.722-2.701 2.701v-2.851h-1.021v2.851l-2.701-2.701-0.722 0.722 0.66 0.66-0.66 0.66 0.722 0.722 0.66-0.66 2.041 2.041v1.619l-1.17-1.17-0.722 0.722 1.892 1.892v2.552l4.709 4.709c-0.206 0.328-0.482 0.604-0.809 0.809l-4.709-4.709h-2.552l-1.892-1.892-0.722 0.722 1.17 1.17h-1.619l-1.742-1.742v-1.83h-1.021v0.809l-0.66-0.66-0.722 0.722 2.701 2.701h-2.851v1.021h2.851l-2.701 2.701 0.722 0.722 1.17-1.17v0.809h1.021v-1.83l1.232-1.232h1.619l-1.17 1.17 0.722 0.722 1.892-1.892h1.108l-1.17 1.17 0.722 0.722 1.68-1.68 3.844 3.844c-0.090 0.010-0.179 0.028-0.271 0.028v1.021z"></path>
<path fill="#000" d="M0.871 2.912v1.021h2.34l1.021 1.021h-1.83v1.021h2.851l1.021 1.021h-1.83v1.021h2.851l1.021 1.021h-0.809v1.021h1.83l0.871 0.871 0.722-0.722-0.871-0.871v-1.83h-1.021v0.809l-1.021-1.021v-2.34h-1.021v1.32l-1.021-1.021v-2.851h-1.021v1.83l-1.021-1.021v-2.34h-1.021v1.32l-2.191-2.191-0.722 0.722 2.191 2.191z"></path>
<path fill="#000" d="M24.706 18.073l-3.062 3.062-0.722-0.722 3.062-3.062 0.722 0.722z"></path>
<path fill="#000" d="M25.728 20.114l-1.531 1.531-0.722-0.722 1.531-1.531 0.722 0.722z"></path>
<path fill="#000" d="M23.176 16.541l-1.531 1.531-0.722-0.722 1.531-1.531 0.722 0.722z"></path>
<path fill="#000" d="M17.562 21.644l-1.531 1.531-0.722-0.722 1.531-1.531 0.722 0.722z"></path>
<path fill="#000" d="M25.726 25.217l-2.551 2.551-0.722-0.722 2.551-2.551 0.722 0.722z"></path>
<path fill="#000" d="M26.235 27.766l-1.020 1.020-0.722-0.722 1.020-1.020 0.722 0.722z"></path>
<path fill="#000" d="M22.666 25.216l-1.531 1.531-0.722-0.722 1.531-1.531 0.722 0.722z"></path>
</svg>
