<!-- Generated by IcoMoon.io -->
<svg version="1.1" xmlns="http://www.w3.org/2000/svg" width="32" height="32" viewBox="0 0 32 32">
<title>celery</title>
<path fill="#000" d="M17.033 9.79h1.033v12.396h-1.033v-12.396z"></path>
<path fill="#000" d="M13.934 9.79h1.033v8.264h-1.033v-8.264z"></path>
<path fill="#f0bc5e" d="M16 12.373c-0.162 0-0.316-0.076-0.413-0.207l-0.757-1.010c-0.502-0.668-1.082-1.279-1.725-1.815-1.426-1.188-2.567-2.718-3.297-4.424l-0.481-1.121c-0.082-0.192-0.041-0.415 0.105-0.564s0.368-0.196 0.561-0.119l2.006 0.803 0.395-1.974c0.037-0.186 0.175-0.338 0.356-0.393 0.183-0.055 0.38-0.006 0.515 0.129l1.043 1.043 1.229-2.458c0.176-0.35 0.748-0.35 0.924 0l1.229 2.458 1.043-1.043c0.135-0.135 0.332-0.184 0.515-0.129 0.182 0.055 0.319 0.206 0.356 0.393l0.395 1.974 2.006-0.803c0.193-0.077 0.415-0.031 0.561 0.119s0.187 0.372 0.105 0.564l-0.481 1.121c-0.731 1.707-1.871 3.237-3.297 4.425-0.643 0.535-1.223 1.146-1.725 1.815l-0.757 1.009c-0.098 0.13-0.251 0.207-0.413 0.207z"></path>
<path fill="#f0bc5e" d="M10.94 17.538c-0.070 0-0.14-0.014-0.206-0.043l-1.149-0.499c-0.761-0.331-1.56-0.571-2.373-0.714-1.812-0.319-3.548-1.079-5.020-2.201l-0.967-0.736c-0.165-0.126-0.239-0.339-0.188-0.54s0.22-0.352 0.425-0.382l2.116-0.31-0.641-1.928c-0.060-0.181-0.015-0.38 0.115-0.518 0.132-0.138 0.327-0.193 0.511-0.143l1.401 0.382-0.163-2.766c-0.011-0.196 0.089-0.381 0.259-0.479s0.382-0.090 0.544 0.020l2.259 1.518 0.377-1.43c0.049-0.185 0.196-0.329 0.383-0.372 0.187-0.041 0.382 0.021 0.507 0.166l1.307 1.514 0.917-1.185c0.175-0.226 0.499-0.267 0.724-0.093 0.186 0.144 0.247 0.391 0.164 0.599 0.001 0 0.002 0 0.002 0 0.288-0.036 0.54 0.17 0.573 0.453 0.217 1.856-0.003 3.763-0.636 5.515-0.286 0.791-0.481 1.617-0.58 2.454l-0.149 1.262c-0.019 0.162-0.114 0.306-0.256 0.387-0.079 0.047-0.167 0.070-0.257 0.070z"></path>
<path fill="#f0bc5e" d="M21.061 17.538c-0.089 0-0.178-0.023-0.257-0.069-0.142-0.081-0.237-0.225-0.256-0.387l-0.149-1.262c-0.099-0.837-0.294-1.663-0.58-2.454-0.634-1.752-0.854-3.659-0.636-5.515 0.033-0.283 0.289-0.489 0.573-0.453 0.001 0 0.002 0 0.002 0-0.083-0.208-0.022-0.455 0.164-0.599 0.225-0.174 0.55-0.133 0.724 0.093l0.917 1.185 1.307-1.514c0.125-0.145 0.321-0.207 0.507-0.166 0.186 0.043 0.334 0.186 0.383 0.372l0.377 1.43 2.259-1.518c0.163-0.11 0.373-0.117 0.544-0.020s0.271 0.283 0.259 0.479l-0.163 2.766 1.401-0.382c0.185-0.050 0.38 0.005 0.511 0.143 0.131 0.138 0.175 0.337 0.115 0.518l-0.641 1.928 2.116 0.31c0.205 0.030 0.373 0.181 0.425 0.382s-0.022 0.414-0.188 0.54l-0.967 0.736c-1.472 1.121-3.208 1.882-5.020 2.201-0.814 0.143-1.612 0.383-2.373 0.714l-1.149 0.499c-0.065 0.028-0.135 0.042-0.205 0.042z"></path>
<path fill="#000" d="M15.484 4.625h1.033v6.715h-1.033v-6.715z"></path>
<path fill="#000" d="M16.48 9.466l-0.959-0.384 0.341-0.853c0.491-1.228 1.333-2.266 2.434-3l0.573 0.859c-0.926 0.618-1.635 1.491-2.048 2.524l-0.341 0.853z"></path>
<path fill="#000" d="M15.521 9.466l-0.341-0.853c-0.414-1.034-1.122-1.906-2.048-2.524l0.573-0.859c1.101 0.734 1.943 1.772 2.434 3l0.341 0.853-0.959 0.384z"></path>
<path fill="#000" d="M18.296 5.228c-0.71 0.473-1.31 1.074-1.779 1.769v-2.372h-1.033v2.372c-0.47-0.695-1.070-1.296-1.779-1.769l-0.573 0.859c0.926 0.618 1.635 1.491 2.048 2.524l0.304 0.761v1.967h1.033v-1.967l0.305-0.761c0.413-1.034 1.121-1.906 2.048-2.524l-0.573-0.859z"></path>
<path fill="#000" d="M25.814 12.373c-0.583 0-1.154 0.091-1.701 0.264l1.123-2.086-0.91-0.49-1.219 2.264c-0.148-0.803-0.428-1.579-0.833-2.293l-0.898 0.51c0.538 0.948 0.823 2.026 0.823 3.121l0.003 0.345-1.553 2.883v7.361c0 1.821-1.055 3.396-2.583 4.158v-5.191h-1.033v5.562c-0.333 0.076-0.678 0.12-1.033 0.12s-0.7-0.044-1.033-0.12v-9.694h-1.033v9.323c-1.528-0.762-2.583-2.338-2.583-4.158v-7.361l-1.518-2.82-0.031-0.413c0-1.090 0.285-2.168 0.822-3.116l-0.898-0.51c-0.404 0.711-0.683 1.486-0.831 2.296l-1.221-2.267-0.91 0.49 1.123 2.086c-0.546-0.172-1.118-0.264-1.701-0.264v1.033c0.9 0 1.77 0.263 2.522 0.756l1.61 2.99v7.101c0 2.403 1.503 4.458 3.616 5.287v2.461h4.132v-2.461c2.113-0.829 3.616-2.884 3.616-5.287v-7.101l1.61-2.99c0.752-0.493 1.622-0.756 2.522-0.756v-1.033zM17.033 30.967h-2.066v-1.132c0.336 0.062 0.68 0.099 1.033 0.099s0.697-0.037 1.033-0.099v1.132z"></path>
</svg>
