<!-- Generated by IcoMoon.io -->
<svg version="1.1" xmlns="http://www.w3.org/2000/svg" width="32" height="32" viewBox="0 0 32 32">
<title>challah</title>
<path fill="#f0bc5e" d="M21.677 19.097l0.486 0.729c0.356 0.534 0.546 1.161 0.546 1.803v0c0 1.285-0.757 2.449-1.93 2.97v0c-1.805 0.802-3.52 1.792-5.117 2.954l-3.275 2.382v-1.213c0-0.9 0.21-1.787 0.612-2.591v0c0.279-0.557 0.645-1.066 1.085-1.506l0.884-0.883 6.71-4.645z"></path>
<path fill="#f0bc5e" d="M22.194 8.258v0c0.661 0.661 1.032 1.557 1.032 2.492v0.033c0 0.379-0.061 0.755-0.181 1.114v0c-0.214 0.642-0.685 1.165-1.301 1.445v0c-3.131 1.423-6.084 3.208-8.798 5.32l-0.559 0.436v-2.662c0-1.284 0.437-2.529 1.239-3.531v0c0.543-0.679 1.236-1.224 2.024-1.591l6.544-3.054z"></path>
<path fill="#000" d="M23.742 16.161c0-0.899-0.333-1.759-0.938-2.422l-0.26-0.285c0.456-0.355 0.805-0.838 0.99-1.393 0.137-0.413 0.207-0.843 0.207-1.311 0-0.969-0.342-1.885-0.964-2.615l0.262-0.783c0.123-0.371 0.186-0.758 0.186-1.149 0-1.138-0.543-2.224-1.453-2.907l-0.818-0.613c-0.114-0.086-0.257-0.119-0.397-0.096-0.14 0.024-0.264 0.105-0.342 0.222-0.021 0.031-0.047 0.059-0.069 0.090-0.448-0.449-1.022-0.717-1.641-0.799-0.265-0.671-1.005-2.101-2.506-2.101-1.564 0-2.262 1.548-2.483 2.187-0.788 0.22-1.237 0.686-1.446 0.967-0.165-0.037-0.334-0.058-0.507-0.058-1.253 0-2.274 1.020-2.274 2.274 0 0.701 0.175 1.391 0.498 2.009-0.89 0.331-1.53 1.183-1.53 2.188 0 1.272 0.373 2.504 1.079 3.562l0.040 0.060c0.096 0.145 0.205 0.278 0.308 0.416-0.838 0.357-1.427 1.188-1.427 2.155 0 1.272 0.373 2.504 1.079 3.562l0.040 0.060c0.255 0.383 0.543 0.737 0.845 1.076-0.389 0.344-0.932 1.039-0.932 2.25 0 0.923 0.676 1.787 1.371 2.434-0.38 0.317-0.855 0.876-0.855 1.695 0 1.186 1.846 3.092 2.216 3.462l0.002-0.002c0.038 0.038 0.080 0.071 0.129 0.097 0.074 0.038 0.154 0.056 0.234 0.056 0.107 0 0.214-0.033 0.303-0.099l0.217-0.158c0.006 0.261 0.066 0.52 0.182 0.75l0.038 0.077c0.302 0.603 0.908 0.978 1.583 0.978 0.242 0 0.476-0.048 0.697-0.143l0.426-0.183c2.004-0.858 3.868-2.001 5.543-3.397 0.519-0.433 0.817-1.068 0.817-1.744 0-0.606-0.236-1.176-0.665-1.605l-0.094-0.094c1.101-0.68 1.791-1.887 1.791-3.204 0-0.746-0.219-1.468-0.633-2.089l-0.323-0.484c0.918-0.67 1.471-1.731 1.471-2.895zM21.292 18.454c-2.345 1.173-4.474 2.707-6.327 4.56l-2.062 2.062v-2.92c0-0.604 0.097-1.202 0.288-1.776 0.335-1.003 0.948-1.883 1.754-2.55 2.105-1.48 4.341-2.774 6.675-3.859l0.421 0.462c0.431 0.473 0.668 1.086 0.668 1.727 0 0.978-0.543 1.856-1.417 2.293zM20.756 3.825l0.397 0.298c0.651 0.489 1.040 1.267 1.040 2.081 0 0.28-0.045 0.557-0.133 0.822l-0.286 0.858-2.379 1.11 0.437 0.935 2.231-1.042c0.419 0.53 0.647 1.182 0.647 1.894 0 0.324-0.052 0.644-0.154 0.951-0.168 0.503-0.541 0.918-1.025 1.138-2.18 0.991-4.278 2.162-6.27 3.491l-0.002-0.004-0.159 0.095c-0.268 0.161-0.52 0.345-0.761 0.54-0.485 0.341-0.965 0.689-1.435 1.048v-1.609c0-1.162 0.399-2.301 1.126-3.209 0.49-0.614 1.127-1.114 1.838-1.446l2.931-1.368-0.437-0.935-2.931 1.368c-0.263 0.123-0.514 0.27-0.758 0.43l-0.355-0.532c-0.25-0.377-0.383-0.816-0.383-1.269 0-0.872 0.484-1.655 1.264-2.045l2.98-1.49c1.006-0.503 1.889-1.228 2.577-2.114zM19.485 3.699c-0.511 0.532-1.103 0.985-1.767 1.316l-2.463 1.231-0.302-0.363 1.775-2.131c0.347-0.417 0.858-0.656 1.401-0.656 0.487 0 0.945 0.189 1.289 0.534l0.068 0.068zM16 1.032c0.701 0 1.156 0.637 1.403 1.129-0.481 0.126-0.923 0.375-1.281 0.729-0.289-0.338-0.765-0.736-1.44-0.812 0.238-0.475 0.659-1.046 1.318-1.046zM14.452 3.097c0.492 0 0.829 0.373 0.986 0.591l-1.158 1.389-0.969-1.163c-0.088-0.106-0.19-0.196-0.294-0.282 0.215-0.223 0.652-0.536 1.435-0.536zM11.564 4.129c0.37 0 0.717 0.163 0.954 0.446l1.811 2.173c-0.844 0.584-1.363 1.524-1.414 2.563-0.664-0.53-1.27-1.13-1.803-1.797l-0.065-0.081c-0.467-0.583-0.724-1.315-0.724-2.062 0-0.684 0.557-1.241 1.241-1.241zM9.29 9.567c0-0.656 0.487-1.196 1.117-1.289 0.783 0.955 1.698 1.789 2.726 2.474l0.022-0.032c0.084 0.206 0.181 0.407 0.306 0.595l0.397 0.597c-0.227 0.209-0.443 0.429-0.635 0.669-0.494 0.618-0.857 1.327-1.084 2.078-0.738-0.576-1.38-1.257-1.903-2.042l-0.040-0.060c-0.593-0.889-0.905-1.922-0.905-2.989zM9.29 15.761c0-0.656 0.487-1.196 1.117-1.289 0.454 0.483 0.956 0.918 1.503 1.302-0.024 0.219-0.040 0.439-0.040 0.661v2.662c0 0.197 0.113 0.377 0.29 0.463 0.070 0.034 0.146 0.050 0.221 0.051-0.060 0.146-0.12 0.292-0.17 0.442-0.078 0.234-0.137 0.473-0.189 0.713-0.69-0.557-1.29-1.211-1.787-1.956l-0.040-0.060c-0.593-0.889-0.906-1.922-0.906-2.989zM10.323 22.71c0-0.894 0.41-1.343 0.626-1.517 0.294 0.267 0.604 0.519 0.932 0.75-0.003 0.071-0.009 0.142-0.009 0.213v2.657c-0.712-0.562-1.548-1.393-1.548-2.104zM11.48 25.817c0.15 0.11 0.283 0.202 0.391 0.273v0.233c0 0.206 0.123 0.391 0.312 0.473-0.187 0.584-0.293 1.192-0.305 1.804-0.58-0.709-1.039-1.419-1.039-1.761 0-0.531 0.434-0.883 0.641-1.021zM20.716 27.484c-1.597 1.332-3.377 2.422-5.288 3.241l-0.427 0.183c-0.347 0.15-0.78-0.009-0.949-0.346l-0.038-0.077c-0.051-0.102-0.078-0.216-0.078-0.329v-0.709l2.030-1.476c1.409-1.024 2.921-1.908 4.498-2.649l0.335 0.335c0.234 0.234 0.363 0.546 0.363 0.876 0 0.369-0.162 0.715-0.445 0.951zM20.57 24.128c-1.834 0.815-3.587 1.828-5.211 3.009l-2.455 1.785v-0.199c0-0.815 0.193-1.631 0.557-2.361 0.254-0.508 0.587-0.97 0.988-1.371l1.246-1.246c1.674-1.674 3.586-3.073 5.682-4.168l0.358 0.537c0.3 0.451 0.459 0.975 0.459 1.517 0 1.079-0.637 2.060-1.624 2.498z"></path>
</svg>
