<!-- Generated by IcoMoon.io -->
<svg version="1.1" xmlns="http://www.w3.org/2000/svg" width="32" height="32" viewBox="0 0 32 32">
<title>champagne</title>
<path fill="#f0bc5e" d="M20.903 18.373c1.336 1.671 2.065 3.746 2.065 5.885v7.226h2.065v-7.226c0-2.139 0.728-4.215 2.065-5.885s2.065-3.746 2.065-5.885v-1.649c-4.645 0-5.677-1.548-10.323-1.548v3.197c0 2.139 0.728 4.215 2.065 5.885z"></path>
<path fill="#f0bc5e" d="M14.194 27.871h-8.258v-6.71c0-2.277 1.852-4.129 4.129-4.129s4.129 1.852 4.129 4.129v6.71z"></path>
<path fill="#000" d="M27.5 18.695c1.404-1.755 2.178-3.96 2.178-6.207v-8.358h-11.355v8.358c0 2.248 0.774 4.453 2.178 6.207 1.258 1.573 1.951 3.549 1.951 5.563v6.71h-4.129v1.032h11.355v-1.032h-4.129v-6.71c0-2.014 0.693-3.99 1.951-5.563zM23.484 30.968v-6.71c0-2.248-0.774-4.453-2.178-6.208-1.258-1.573-1.951-3.548-1.951-5.563v-7.326h9.29v7.326c0 2.014-0.693 3.99-1.951 5.563-1.404 1.755-2.178 3.96-2.178 6.208v6.71h-1.032z"></path>
<path fill="#000" d="M14.39 15.655c-1.125-1.238-1.745-2.84-1.745-4.514v-6.075c0.599-0.214 1.032-0.781 1.032-1.453s-0.433-1.24-1.032-1.453v-1.127c0-0.569-0.463-1.032-1.032-1.032h-3.097c-0.569 0-1.032 0.463-1.032 1.032v1.127c-0.599 0.214-1.032 0.781-1.032 1.453s0.433 1.24 1.032 1.453v6.076c0 1.673-0.62 3.275-1.745 4.514l-1.004 1.105c-1.556 1.711-2.412 3.927-2.412 6.239 0 1.945 0.598 3.809 1.728 5.391l0.853 1.194v2.415h10.323v-2.415l0.853-1.194c1.13-1.583 1.727-3.447 1.727-5.391 0-2.312-0.857-4.528-2.412-6.239l-1.004-1.105zM8.516 5.161h3.097v5.98c0 0.574 0.071 1.14 0.194 1.69-0.616-0.097-1.143-0.283-1.652-0.469-0.526-0.193-1.070-0.385-1.678-0.457 0.025-0.253 0.040-0.507 0.040-0.764v-5.98h-0.001zM8.516 1.032h3.097v1.032h-3.097v-1.032zM8 3.097h4.129c0.284 0 0.516 0.232 0.516 0.516s-0.232 0.516-0.516 0.516h-4.129c-0.284 0-0.516-0.232-0.516-0.516s0.232-0.516 0.516-0.516zM15.239 27.791l-0.794 1.112h-1.283v1.032h1.032v1.032h-8.258v-1.032h6.194v-1.032h-6.444l-0.795-1.112c-1.004-1.406-1.535-3.063-1.535-4.792 0-2.055 0.761-4.024 2.143-5.545l1.004-1.105c0.89-0.979 1.498-2.158 1.798-3.424 0.505 0.051 0.973 0.214 1.499 0.406 0.655 0.24 1.388 0.505 2.326 0.58 0.341 0.89 0.846 1.717 1.501 2.437l1.004 1.105c1.383 1.521 2.144 3.491 2.144 5.546 0 1.727-0.531 3.385-1.535 4.791z"></path>
<path fill="#000" d="M20.387 11.871h1.032v1.032h-1.032v-1.032z"></path>
<path fill="#000" d="M26.065 12.903h1.032v1.032h-1.032v-1.032z"></path>
<path fill="#000" d="M22.968 15.484h1.032v1.032h-1.032v-1.032z"></path>
</svg>
