<!-- Generated by IcoMoon.io -->
<svg version="1.1" xmlns="http://www.w3.org/2000/svg" width="32" height="32" viewBox="0 0 32 32">
<title>chef</title>
<path fill="#f0bc5e" d="M24.931 4.035c-1.727-2.22-4.383-3.519-7.196-3.519-2.844 0-5.656 0.609-8.245 1.786l-0.2 0.091c-0.943 0.429-1.548 1.369-1.548 2.404 0 0.571 0.185 1.127 0.528 1.584l1.020 1.361v3.613c0-1.14 0.924-2.065 2.065-2.065 0 0 2.581-0.516 4.645-0.516s4.645 0.516 4.645 0.516c1.14 0 2.065 0.924 2.065 2.065v-3.613l0.68 0.34c0.232 0.116 0.488 0.176 0.747 0.176 0.922 0 1.67-0.748 1.67-1.67 0-0.924-0.308-1.823-0.876-2.553z"></path>
<path fill="#f0bc5e" d="M24.907 21.669l-4.778-1.024v-0.692c0-0.473-0.384-0.856-0.856-0.856-0.116 0-0.231 0.024-0.337 0.069l-2.935 1.258-2.935-1.258c-0.106-0.045-0.222-0.069-0.337-0.069-0.473 0-0.856 0.384-0.856 0.856v0.692l-4.778 1.024c-1.428 0.306-2.448 1.568-2.448 3.028v6.787h22.71v-6.787c0-1.46-1.020-2.722-2.448-3.028z"></path>
<path fill="#000" d="M17.548 24.774h1.032v1.032h-1.032z"></path>
<path fill="#000" d="M17.548 26.839h1.032v1.032h-1.032z"></path>
<path fill="#000" d="M10.323 25.29h4.645v1.032h-4.645z"></path>
<path fill="#000" d="M25.015 21.164l-4.37-0.937v-0.274c0-0.639-0.441-1.172-1.032-1.325v-1.529c0.85-0.834 1.412-1.96 1.525-3.213 1.188-0.231 2.088-1.277 2.088-2.531v-2.783c0.285 0.13 0.597 0.202 0.911 0.202 1.206 0 2.186-0.981 2.186-2.186 0-1.035-0.35-2.054-0.985-2.87-1.838-2.363-4.608-3.718-7.603-3.718-2.938 0-5.784 0.616-8.458 1.832l-0.201 0.091c-1.123 0.51-1.85 1.639-1.85 2.873 0 0.678 0.225 1.351 0.632 1.894l0.917 1.223v3.441c0 1.254 0.9 2.3 2.088 2.531 0.113 1.254 0.675 2.379 1.525 3.213v1.529c-0.591 0.152-1.032 0.686-1.032 1.325v0.274l-4.37 0.936c-1.655 0.355-2.856 1.841-2.856 3.534v7.303h23.742v-7.303c0-1.693-1.201-3.178-2.856-3.533zM11.252 8.785c-0.542 0.022-1.039 0.211-1.446 0.519v-1.195c0.803-0.261 3.045-0.882 6.194-0.882s5.39 0.621 6.194 0.882v1.195c-0.407-0.307-0.903-0.497-1.446-0.519l-0.002-0.001c-0.107-0.021-2.654-0.526-4.746-0.526s-4.639 0.505-4.746 0.526zM21.161 12.808v-2.906c0.599 0.214 1.032 0.781 1.032 1.453s-0.433 1.239-1.032 1.453zM8.258 4.797c0-0.831 0.489-1.59 1.245-1.934l0.201-0.091c2.54-1.154 5.241-1.739 8.031-1.739 2.673 0 5.147 1.21 6.788 3.32 0.495 0.635 0.767 1.43 0.767 2.235 0 0.636-0.518 1.154-1.154 1.154-0.178 0-0.357-0.042-0.516-0.122l-0.394-0.197v-0.030l-0.325-0.13c-0.057-0.023-0.805-0.314-2.1-0.587 0.211-0.824 0.639-1.579 1.241-2.181l-0.73-0.73c-0.742 0.742-1.268 1.671-1.521 2.688l-0.009 0.035c-0.509-0.081-1.071-0.153-1.686-0.205 0.071-0.757 0.315-1.485 0.741-2.123l0.173-0.26-0.859-0.573-0.173 0.26c-0.527 0.791-0.84 1.692-0.922 2.631-0.341-0.014-0.69-0.025-1.056-0.025s-0.715 0.010-1.056 0.025c-0.082-0.939-0.395-1.84-0.922-2.631l-0.173-0.26-0.859 0.573 0.173 0.26c0.425 0.638 0.671 1.366 0.741 2.123-0.616 0.052-1.177 0.124-1.686 0.205l-0.009-0.035c-0.254-1.017-0.78-1.947-1.522-2.688l-0.73 0.73c0.602 0.602 1.030 1.356 1.241 2.181-0.79 0.167-1.375 0.338-1.724 0.454l-0.793-1.057c-0.274-0.365-0.425-0.818-0.425-1.275zM9.806 11.355c0-0.672 0.433-1.24 1.032-1.453v2.906c-0.599-0.213-1.032-0.781-1.032-1.453zM11.871 13.419v-3.7c0.803-0.141 2.62-0.429 4.129-0.429 1.507 0 3.326 0.288 4.129 0.429v3.7c0 2.277-1.852 4.129-4.129 4.129s-4.129-1.852-4.129-4.129zM16 18.581c0.94 0 1.82-0.257 2.581-0.698v0.874l-2.581 1.106-2.581-1.106v-0.874c0.76 0.441 1.64 0.698 2.581 0.698zM19.613 30.968h-10.323v-6.194h-1.032v6.194h-3.097v-6.27c0-1.209 0.858-2.27 2.040-2.523l5.185-1.111v-1.109c0-0.234 0.259-0.405 0.475-0.313l3.138 1.345v2.113l3.613 1.032zM26.839 30.968h-3.097v-6.194h-1.032v6.194h-2.065v-7.615l-3.613-1.032v-1.777l2.106-0.903c0.214-0.093 0.474 0.079 0.474 0.312v1.109l5.185 1.111c1.182 0.254 2.040 1.315 2.040 2.524z"></path>
<path fill="#000" d="M19.097 10.839c0 0.285-0.231 0.516-0.516 0.516s-0.516-0.231-0.516-0.516 0.231-0.516 0.516-0.516 0.516 0.231 0.516 0.516z"></path>
<path fill="#000" d="M13.935 10.839c0 0.285-0.231 0.516-0.516 0.516s-0.516-0.231-0.516-0.516 0.231-0.516 0.516-0.516 0.516 0.231 0.516 0.516z"></path>
<path fill="#000" d="M13.419 14.452v1.548h5.161v-1.548c0-0.854-0.695-1.548-1.548-1.548h-2.065c-0.854 0-1.548 0.695-1.548 1.548zM14.452 14.452c0-0.284 0.231-0.516 0.516-0.516h2.065c0.285 0 0.516 0.232 0.516 0.516v0.516h-3.097z"></path>
</svg>
