<!-- Generated by IcoMoon.io -->
<svg version="1.1" xmlns="http://www.w3.org/2000/svg" width="32" height="32" viewBox="0 0 32 32">
<title>chicken-leg</title>
<path fill="#333" d="M12.022 22.345l-3.435 3.435 0.312 0.363c0.442 0.514 1.292 2.678 0.026 3.944-0.577 0.577-1.342 0.881-2.215 0.881-0.793 0-1.783-0.59-2.119-1.263-0.181-0.361-0.289-0.646-0.356-0.859 0.575-0.088 1.277-0.274 1.708-0.532l-0.531-0.885c-0.38 0.228-1.336 0.443-1.799 0.443-0.776 0-2.581-0.251-2.581-2.581 0-0.787 0.362-1.698 0.881-2.215 1.002-0.999 2.771-0.988 3.943 0.025l0.363 0.313 3.436-3.436-0.73-0.73-2.777 2.777c-1.574-1.078-3.672-0.968-4.965 0.319-0.719 0.717-1.184 1.874-1.184 2.946 0 2.44 1.566 3.438 3.172 3.59 0.072 0.297 0.214 0.723 0.495 1.286 0.505 1.011 1.87 1.834 3.043 1.834 1.153 0 2.171-0.409 2.945-1.183 1.526-1.526 0.941-3.842 0.302-4.948l2.794-2.794-0.73-0.73z"></path>
<path fill="#f9ba48" d="M13.7 23.663c-0.716 0-1.372-0.284-1.677-0.589-0.744-0.744-0.857-1.346-0.932-1.745-0.037-0.196-0.055-0.274-0.1-0.319-0.122-0.122-0.277-0.166-0.563-0.238-0.399-0.101-0.947-0.239-1.501-0.794-1.037-1.037-1.037-2.789 0-3.827 1.592-1.663 2.429-4.453 2.429-6.345 0-2.763 0.996-5.341 2.732-7.075 1.765-1.762 4.457-2.731 7.58-2.731 0.004 0 0.008 0 0.011 0 2.684 0.003 5.593 1.247 7.591 3.249 1.841 1.844 2.734 4.158 2.731 7.075-0.003 3.139-0.973 5.835-2.732 7.591-1.713 1.71-4.357 2.731-7.074 2.731-1.467 0-4.903 0-6.297 1.858-0.662 0.883-1.458 1.114-2.009 1.154-0.063 0.005-0.125 0.007-0.188 0.007z"></path>
<path fill="#333" d="M13.419 11.871h1.032c0-2.317 0.583-4.685 1.451-5.892l-0.838-0.603c-1 1.39-1.646 3.94-1.646 6.495z"></path>
<path fill="#333" d="M19.613 3.613v-1.032c-1.17 0-2.334 0.571-3.462 1.7l0.73 0.73c0.927-0.927 1.846-1.397 2.732-1.397z"></path>
<path fill="#333" d="M27.204 4.281l-0.731 0.729c1.546 1.549 2.431 3.485 2.43 5.313-0.001 1.554-0.333 3.737-1.913 5.313l0.729 0.731c1.448-1.445 2.214-3.535 2.216-6.042 0.002-2.099-0.994-4.302-2.731-6.042z"></path>
<path fill="#333" d="M24.244 17.201c-0.393 0.163-0.839 0.347-1.534 0.347v1.032c0.901 0 1.495-0.246 1.928-0.426 0.108-0.044 0.206-0.086 0.299-0.117l-0.327-0.979c-0.114 0.038-0.235 0.088-0.367 0.142z"></path>
<path fill="#333" d="M17.263 19.559c0.945-0.473 2.943-0.978 4.414-0.978v-1.032c-1.691 0-3.807 0.552-4.876 1.086l0.461 0.924z"></path>
</svg>
