<!-- Generated by IcoMoon.io -->
<svg version="1.1" xmlns="http://www.w3.org/2000/svg" width="32" height="32" viewBox="0 0 32 32">
<title>chilli</title>
<path fill="#000" d="M15.005 32h-0.274c-0.483 0-0.95-0.201-1.283-0.55l-2.682-2.823c-4.447-4.681-6.896-10.815-6.896-17.272 0-0.413 0.069-0.818 0.205-1.204l0.973 0.344c-0.097 0.275-0.147 0.564-0.147 0.86 0 6.191 2.348 12.072 6.613 16.561l2.682 2.823c0.138 0.146 0.333 0.229 0.534 0.229h0.274c0.406 0 0.737-0.33 0.737-0.737 0-0.114-0.027-0.228-0.078-0.33l-2.952-5.904c-1.732-3.464-2.647-7.342-2.647-11.214v-1.428c0-0.296-0.050-0.585-0.147-0.86l0.973-0.344c0.136 0.387 0.205 0.791 0.205 1.205v1.428c0 3.713 0.878 7.431 2.538 10.753l2.952 5.904c0.122 0.245 0.187 0.518 0.187 0.791 0 0.975-0.794 1.769-1.769 1.769z"></path>
<path fill="#000" d="M6.31 15.511c-0.060-0.328-0.113-0.658-0.158-0.989l1.022-0.14c0.043 0.316 0.094 0.631 0.151 0.943l-1.015 0.185z"></path>
<path fill="#000" d="M11.745 26.641c-2.578-2.899-4.39-6.42-5.242-10.182l1.007-0.228c0.813 3.593 2.544 6.956 5.006 9.724l-0.771 0.686z"></path>
<path fill="#000" d="M27.923 21.849l-0.973-0.344c0.097-0.275 0.147-0.564 0.147-0.86 0-6.191-2.348-12.072-6.613-16.561l-2.682-2.823c-0.138-0.146-0.333-0.229-0.534-0.229h-0.274c-0.406 0-0.737 0.33-0.737 0.737 0 0.114 0.027 0.228 0.078 0.33l2.952 5.904c1.732 3.464 2.647 7.342 2.647 11.214v1.428c0 0.296 0.050 0.585 0.147 0.86l-0.973 0.344c-0.136-0.387-0.205-0.791-0.205-1.205v-1.428c0-3.713-0.878-7.431-2.538-10.753l-2.952-5.904c-0.122-0.245-0.187-0.518-0.187-0.791 0-0.975 0.794-1.769 1.769-1.769h0.274c0.483 0 0.95 0.201 1.283 0.55l2.682 2.823c4.447 4.681 6.896 10.815 6.896 17.272 0 0.413-0.069 0.818-0.205 1.204z"></path>
<path fill="#000" d="M24.825 17.619c-0.046-0.333-0.099-0.665-0.16-0.995l1.015-0.187c0.064 0.345 0.12 0.693 0.168 1.042l-1.023 0.14z"></path>
<path fill="#f0bc5e" d="M5.38 10.681c-0.146 0-0.294-0.009-0.441-0.028l-2.68-0.335c-0.239-0.030-0.426-0.221-0.45-0.461s0.121-0.464 0.35-0.54l2.594-0.865c0.253-0.085 0.487-0.229 0.676-0.418 0.326-0.326 0.506-0.76 0.506-1.222v-4.231c0-1.592 1.449-2.852 3.097-2.53v6.762c0 0.462 0.18 0.896 0.506 1.223 0.188 0.188 0.422 0.333 0.675 0.417l2.595 0.866c0.229 0.076 0.374 0.3 0.35 0.54s-0.21 0.431-0.45 0.461l-2.68 0.335c-0.919 0.116-1.822-0.132-2.545-0.68-0.606 0.459-1.341 0.707-2.103 0.707z"></path>
<path fill="#f0bc5e" d="M22.967 31.949v-6.761c0-0.462-0.18-0.896-0.506-1.223-0.188-0.188-0.422-0.333-0.675-0.417l-2.595-0.866c-0.229-0.076-0.374-0.3-0.35-0.54s0.21-0.431 0.45-0.461l2.68-0.335c0.917-0.117 1.821 0.132 2.545 0.68 0.722-0.548 1.626-0.796 2.545-0.68l2.68 0.335c0.239 0.030 0.426 0.221 0.45 0.461s-0.121 0.464-0.35 0.54l-2.594 0.865c-0.253 0.085-0.487 0.229-0.676 0.418-0.326 0.326-0.506 0.761-0.506 1.223v4.231c0 1.592-1.449 2.852-3.097 2.53z"></path>
<path fill="#000" d="M24.487 15.76c-0.814-3.59-2.544-6.949-5.004-9.714l0.771-0.686c2.575 2.895 4.387 6.413 5.239 10.172l-1.006 0.228z"></path>
</svg>
