<!-- Generated by IcoMoon.io -->
<svg version="1.1" xmlns="http://www.w3.org/2000/svg" width="32" height="32" viewBox="0 0 32 32">
<title>chocolate</title>
<path fill="#f9ba48" d="M31.484 20.645c0 1.14-0.924 2.065-2.065 2.065h-26.839c-1.14 0-2.065-0.924-2.065-2.065v-1.548c0-1.14 0.924-2.065 2.065-2.065h26.839c1.14 0 2.065 0.924 2.065 2.065v1.548z"></path>
<path fill="#f9ba48" d="M29.419 22.71v7.742c0 0.568-0.465 1.032-1.032 1.032h-24.774c-0.568 0-1.032-0.465-1.032-1.032v-7.742h26.839z"></path>
<path fill="#343433" d="M29.419 16.516h-0.516c0-0.62-0.28-1.17-0.713-1.548 0.434-0.379 0.713-0.929 0.713-1.548v-4.129c0-0.62-0.28-1.17-0.713-1.548 0.434-0.379 0.713-0.929 0.713-1.548v-3.613h-0.516c-1.263 0-2.332-0.904-2.541-2.15l-0.072-0.43h-4.096c-0.62 0-1.17 0.28-1.548 0.713-0.379-0.434-0.929-0.713-1.548-0.713h-5.161c-0.62 0-1.17 0.28-1.548 0.713-0.379-0.434-0.929-0.713-1.548-0.713h-5.161c-1.139 0-2.065 0.926-2.065 2.065v4.129c0 0.62 0.28 1.17 0.713 1.548-0.434 0.379-0.713 0.929-0.713 1.548v4.129c0 0.62 0.28 1.17 0.713 1.548-0.434 0.379-0.713 0.929-0.713 1.548h-0.516c-1.423 0-2.581 1.158-2.581 2.581v1.548c0 1.246 0.888 2.289 2.065 2.529v7.278c0 0.854 0.695 1.548 1.548 1.548h24.774c0.854 0 1.548-0.695 1.548-1.548v-7.278c1.176-0.24 2.065-1.282 2.065-2.529v-1.548c0-1.423-1.158-2.581-2.581-2.581zM27.871 16.516h-7.226c0-0.569 0.463-1.032 1.032-1.032h5.161c0.569 0 1.032 0.463 1.032 1.032zM11.674 14.968c0.070-0.061 0.136-0.127 0.197-0.197 0.061 0.070 0.127 0.136 0.197 0.197-0.070 0.061-0.136 0.127-0.197 0.197-0.061-0.070-0.127-0.136-0.197-0.197zM11.674 7.742c0.070-0.061 0.136-0.127 0.197-0.197 0.061 0.070 0.127 0.136 0.197 0.197-0.070 0.061-0.136 0.127-0.197 0.197-0.061-0.070-0.127-0.136-0.197-0.197zM12.387 9.29c0-0.569 0.463-1.032 1.032-1.032h5.161c0.569 0 1.032 0.463 1.032 1.032v4.129c0 0.569-0.463 1.032-1.032 1.032h-5.161c-0.569 0-1.032-0.463-1.032-1.032v-4.129zM20.129 7.545c0.061 0.070 0.127 0.136 0.197 0.197-0.070 0.061-0.136 0.127-0.197 0.197-0.061-0.070-0.127-0.136-0.197-0.197 0.070-0.061 0.136-0.127 0.197-0.197zM20.326 14.968c-0.070 0.061-0.136 0.127-0.197 0.197-0.061-0.070-0.127-0.136-0.197-0.197 0.070-0.061 0.136-0.127 0.197-0.197 0.061 0.070 0.127 0.136 0.197 0.197zM13.419 15.484h5.161c0.569 0 1.032 0.463 1.032 1.032h-7.226c0-0.569 0.463-1.032 1.032-1.032zM27.871 9.29v4.129c0 0.569-0.463 1.032-1.032 1.032h-5.161c-0.569 0-1.032-0.463-1.032-1.032v-4.129c0-0.569 0.463-1.032 1.032-1.032h5.161c0.569 0 1.032 0.463 1.032 1.032zM21.677 1.032h3.25c0.4 1.355 1.551 2.346 2.944 2.545v2.617c0 0.569-0.463 1.032-1.032 1.032h-5.161c-0.569 0-1.032-0.463-1.032-1.032v-4.129c0-0.569 0.463-1.032 1.032-1.032zM13.419 1.032h5.161c0.569 0 1.032 0.463 1.032 1.032v4.129c0 0.569-0.463 1.032-1.032 1.032h-5.161c-0.569 0-1.032-0.463-1.032-1.032v-4.129c0-0.569 0.463-1.032 1.032-1.032zM4.129 6.194v-4.129c0-0.569 0.463-1.032 1.032-1.032h5.161c0.569 0 1.032 0.463 1.032 1.032v4.129c0 0.569-0.463 1.032-1.032 1.032h-5.161c-0.569 0-1.032-0.463-1.032-1.032zM4.129 13.419v-4.129c0-0.569 0.463-1.032 1.032-1.032h5.161c0.569 0 1.032 0.463 1.032 1.032v4.129c0 0.569-0.463 1.032-1.032 1.032h-5.161c-0.569 0-1.032-0.463-1.032-1.032zM5.161 15.484h5.161c0.569 0 1.032 0.463 1.032 1.032h-7.226c0-0.569 0.463-1.032 1.032-1.032zM28.387 30.968h-24.774c-0.285 0-0.516-0.231-0.516-0.516v-7.226h25.806v7.226c0 0.285-0.231 0.516-0.516 0.516zM30.968 20.645c0 0.854-0.695 1.548-1.548 1.548h-26.839c-0.854 0-1.548-0.695-1.548-1.548v-1.548c0-0.854 0.695-1.548 1.548-1.548h26.839c0.854 0 1.548 0.695 1.548 1.548v1.548z"></path>
<path fill="#343433" d="M21.677 24.258h5.677v1.032h-5.677v-1.032z"></path>
<path fill="#343433" d="M19.613 24.258h1.032v1.032h-1.032v-1.032z"></path>
<path fill="#343433" d="M17.548 24.258h1.032v1.032h-1.032v-1.032z"></path>
<path fill="#343433" d="M15.484 24.258h1.032v1.032h-1.032v-1.032z"></path>
<path fill="#343433" d="M10.323 3.613c0-0.854-0.695-1.548-1.548-1.548h-2.065c-0.854 0-1.548 0.695-1.548 1.548v1.032c0 0.854 0.695 1.548 1.548 1.548h2.065c0.854 0 1.548-0.695 1.548-1.548v-1.032zM9.29 4.645c0 0.285-0.231 0.516-0.516 0.516h-2.065c-0.285 0-0.516-0.231-0.516-0.516v-1.032c0-0.285 0.231-0.516 0.516-0.516h2.065c0.285 0 0.516 0.231 0.516 0.516v1.032z"></path>
<path fill="#343433" d="M14.968 6.194h2.065c0.854 0 1.548-0.695 1.548-1.548v-1.032c0-0.854-0.695-1.548-1.548-1.548h-2.065c-0.854 0-1.548 0.695-1.548 1.548v1.032c0 0.854 0.695 1.548 1.548 1.548zM14.452 3.613c0-0.285 0.231-0.516 0.516-0.516h2.065c0.285 0 0.516 0.231 0.516 0.516v1.032c0 0.285-0.231 0.516-0.516 0.516h-2.065c-0.285 0-0.516-0.231-0.516-0.516v-1.032z"></path>
<path fill="#343433" d="M23.226 6.194h2.065c0.854 0 1.548-0.695 1.548-1.548v-0.516h-1.032v0.516c0 0.285-0.231 0.516-0.516 0.516h-2.065c-0.285 0-0.516-0.231-0.516-0.516v-1.032c0-0.285 0.231-0.516 0.516-0.516h1.032v-1.032h-1.032c-0.854 0-1.548 0.695-1.548 1.548v1.032c0 0.854 0.695 1.548 1.548 1.548z"></path>
<path fill="#343433" d="M10.323 10.839c0-0.854-0.695-1.548-1.548-1.548h-1.032v1.032h1.032c0.285 0 0.516 0.231 0.516 0.516v1.032c0 0.285-0.231 0.516-0.516 0.516h-2.065c-0.285 0-0.516-0.231-0.516-0.516v-1.032c0-0.285 0.231-0.516 0.516-0.516v-1.032c-0.854 0-1.548 0.695-1.548 1.548v1.032c0 0.854 0.695 1.548 1.548 1.548h2.065c0.854 0 1.548-0.695 1.548-1.548v-1.032z"></path>
<path fill="#343433" d="M14.968 13.419h2.065c0.854 0 1.548-0.695 1.548-1.548v-1.032c0-0.854-0.695-1.548-1.548-1.548h-2.065c-0.854 0-1.548 0.695-1.548 1.548v1.032c0 0.854 0.695 1.548 1.548 1.548zM14.452 10.839c0-0.285 0.231-0.516 0.516-0.516h2.065c0.285 0 0.516 0.231 0.516 0.516v1.032c0 0.285-0.231 0.516-0.516 0.516h-2.065c-0.285 0-0.516-0.231-0.516-0.516v-1.032z"></path>
<path fill="#343433" d="M21.677 11.871c0 0.854 0.695 1.548 1.548 1.548v-1.032c-0.285 0-0.516-0.231-0.516-0.516v-1.032c0-0.285 0.231-0.516 0.516-0.516h2.065c0.285 0 0.516 0.231 0.516 0.516v1.032c0 0.285-0.231 0.516-0.516 0.516h-1.032v1.032h1.032c0.854 0 1.548-0.695 1.548-1.548v-1.032c0-0.854-0.695-1.548-1.548-1.548h-2.065c-0.854 0-1.548 0.695-1.548 1.548v1.032z"></path>
</svg>
