<!-- Generated by IcoMoon.io -->
<svg version="1.1" xmlns="http://www.w3.org/2000/svg" width="32" height="32" viewBox="0 0 32 32">
<title>client</title>
<path fill="#f0bc5e" d="M22.565 4.287c0.003-0.052 0.004-0.104 0.004-0.157 0-1.992-1.621-3.613-3.613-3.613-0.598 0-1.177 0.146-1.699 0.426-0.662-0.604-1.526-0.942-2.43-0.942s-1.768 0.338-2.43 0.942c-0.522-0.28-1.102-0.426-1.699-0.426-1.992 0-3.613 1.621-3.613 3.613 0 0.133 0.008 0.266 0.023 0.399-0.674 0.633-1.055 1.506-1.055 2.439 0 1.508 1.009 2.806 2.433 3.213 0.373-0.537 0.992-0.891 1.696-0.891v-2.065c0 1.14 0.924 2.065 2.065 2.065 0.491 0 0.936-0.179 1.29-0.465 0.355 0.286 0.799 0.465 1.29 0.465s0.936-0.179 1.29-0.465c0.355 0.286 0.799 0.465 1.29 0.465 1.14 0 2.065-0.924 2.065-2.065v2.065c0.608 0 1.149 0.268 1.527 0.687 1.51-0.342 2.602-1.673 2.602-3.267 0-0.923-0.375-1.792-1.036-2.423z"></path>
<path fill="#000" d="M17.924 10.839c0 0.285-0.231 0.516-0.516 0.516s-0.516-0.231-0.516-0.516 0.231-0.516 0.516-0.516c0.285 0 0.516 0.231 0.516 0.516z"></path>
<path fill="#000" d="M12.762 10.839c0 0.285-0.231 0.516-0.516 0.516s-0.516-0.231-0.516-0.516 0.231-0.516 0.516-0.516c0.285 0 0.516 0.231 0.516 0.516z"></path>
<path fill="#000" d="M27.047 25.806h-0.865v-2.782c0-1.635-1.103-3.069-2.682-3.49l-5.060-1.35v-1.085c0.85-0.834 1.412-1.96 1.525-3.213 1.188-0.231 2.088-1.276 2.088-2.53 0-1.246-0.888-2.289-2.065-2.528v-1.601h-1.032c0 0.854-0.695 1.548-1.548 1.548-0.349 0-0.682-0.121-0.966-0.35l-0.325-0.262-0.325 0.262c-0.567 0.458-1.365 0.458-1.931 0l-0.325-0.262-0.325 0.262c-0.284 0.229-0.617 0.35-0.966 0.35-0.854 0-1.548-0.695-1.548-1.548h-1.032v1.601c-1.176 0.24-2.065 1.282-2.065 2.528 0 1.254 0.9 2.3 2.088 2.531 0.113 1.254 0.675 2.379 1.525 3.213v1.085l-5.060 1.35c-1.579 0.421-2.682 1.855-2.682 3.49v2.782h-0.866l-2.477 6.194h29.395zM21.020 11.355c0 0.672-0.433 1.24-1.032 1.453v-2.906c0.599 0.213 1.032 0.781 1.032 1.453zM8.633 11.355c0-0.672 0.433-1.24 1.032-1.453v2.906c-0.599-0.213-1.032-0.781-1.032-1.453zM10.698 13.419v-4.142c0.432 0.328 0.965 0.53 1.548 0.53 0.457 0 0.896-0.121 1.29-0.354 0.787 0.464 1.794 0.464 2.581 0 0.394 0.233 0.833 0.354 1.29 0.354 0.583 0 1.116-0.202 1.548-0.53v4.142c0 2.277-1.852 4.129-4.129 4.129s-4.129-1.852-4.129-4.129zM14.827 18.581c0.94 0 1.82-0.257 2.581-0.698v0.525c-0.261 0.317-1.121 1.206-2.581 1.206-1.463 0-2.318-0.885-2.581-1.206v-0.525c0.76 0.441 1.64 0.698 2.581 0.698zM11.73 30.968c-1.246 0-2.289-0.888-2.528-2.065h11.251c-0.24 1.176-1.282 2.065-2.528 2.065zM21.537 28.387v-0.516h-13.419v0.516c0 1.011 0.418 1.924 1.089 2.581h-7.553l1.651-4.129h5.328v-1.032h-4.129v-2.782c0-1.167 0.788-2.193 1.916-2.493l5.118-1.365c0.451 0.508 1.541 1.479 3.288 1.479s2.838-0.971 3.288-1.479l5.118 1.365c1.128 0.301 1.916 1.327 1.916 2.493v2.782h-4.129v1.032h5.328l1.652 4.129h-7.553c0.671-0.657 1.089-1.57 1.089-2.581z"></path>
<path fill="#000" d="M11.73 24.988c0.333-0.333 0.516-0.775 0.516-1.246s-0.183-0.914-0.516-1.246l-0.151-0.151-0.73 0.73 0.151 0.151c0.138 0.138 0.214 0.321 0.214 0.516s-0.076 0.378-0.214 0.516l-0.106 0.106c-0.293 0.293-0.455 0.683-0.455 1.097 0 0.333 0.11 0.664 0.311 0.931l0.567 0.756 0.826-0.619-0.567-0.756c-0.068-0.091-0.104-0.199-0.104-0.312 0-0.139 0.054-0.269 0.152-0.367z"></path>
<path fill="#000" d="M15.343 23.956c0.333-0.333 0.516-0.775 0.516-1.246s-0.183-0.914-0.516-1.246l-0.151-0.151-0.73 0.73 0.151 0.151c0.138 0.138 0.214 0.321 0.214 0.516s-0.076 0.378-0.214 0.516l-0.106 0.106c-0.293 0.293-0.455 0.683-0.455 1.097 0 0.333 0.11 0.664 0.311 0.931l0.567 0.756 0.826-0.619-0.567-0.756c-0.068-0.091-0.104-0.199-0.104-0.312 0-0.139 0.054-0.269 0.152-0.367z"></path>
<path fill="#000" d="M18.44 24.988c0.333-0.333 0.516-0.775 0.516-1.246s-0.183-0.914-0.516-1.246l-0.151-0.151-0.73 0.73 0.151 0.151c0.138 0.138 0.214 0.321 0.214 0.516s-0.076 0.378-0.214 0.516l-0.106 0.106c-0.293 0.293-0.455 0.683-0.455 1.097 0 0.333 0.11 0.664 0.311 0.931l0.567 0.756 0.826-0.619-0.567-0.756c-0.068-0.091-0.104-0.199-0.104-0.312 0-0.139 0.054-0.269 0.152-0.367z"></path>
<path fill="#000" d="M17.407 13.935c0-0.854-0.695-1.548-1.548-1.548s-1.548 0.695-1.548 1.548v0.516h-2.065v1.032h5.161zM16.375 14.452h-1.032v-0.516c0-0.284 0.231-0.516 0.516-0.516s0.516 0.232 0.516 0.516z"></path>
<path fill="#f0bc5e" d="M27.214 18.065c-0.739 0-1.472-0.178-2.127-0.516h-3.325l1.126-2.441c-0.213-0.541-0.32-1.108-0.32-1.688 0-2.562 2.084-4.645 4.645-4.645s4.645 2.084 4.645 4.645-2.084 4.645-4.645 4.645z"></path>
<path fill="#000" d="M27.214 16.214l-2.109-2.109c-0.305-0.304-0.472-0.709-0.472-1.139 0-0.888 0.723-1.611 1.611-1.611 0.349 0 0.692 0.117 0.97 0.325 0.278-0.208 0.62-0.325 0.97-0.325 0.888 0 1.611 0.723 1.611 1.611 0 0.43-0.167 0.835-0.472 1.139zM26.244 12.387c-0.319 0-0.579 0.26-0.579 0.579 0 0.155 0.060 0.3 0.169 0.409l1.379 1.379 1.379-1.379c0.109-0.109 0.169-0.255 0.169-0.409 0-0.319-0.26-0.579-0.579-0.579-0.152 0-0.301 0.062-0.409 0.169l-0.56 0.56-0.56-0.56c-0.108-0.107-0.257-0.169-0.409-0.169z"></path>
</svg>
