<!-- Generated by IcoMoon.io -->
<svg version="1.1" xmlns="http://www.w3.org/2000/svg" width="32" height="32" viewBox="0 0 32 32">
<title>clock-outline</title>
<path d="M16 0c-8.822 0-16 7.178-16 16s7.178 16 16 16 16-7.178 16-16-7.178-16-16-16zM16 28.595c-6.945 0-12.596-5.65-12.596-12.595s5.651-12.595 12.596-12.595 12.596 5.65 12.596 12.595-5.651 12.595-12.596 12.595z"></path>
<path d="M24.339 15.506h-7.19v-8.646c0-0.728-0.59-1.317-1.317-1.317s-1.317 0.59-1.317 1.317v9.963c0 0.728 0.59 1.317 1.317 1.317h8.508c0.728 0 1.317-0.59 1.317-1.317s-0.59-1.317-1.317-1.317z"></path>
</svg>
