<!-- Generated by IcoMoon.io -->
<svg version="1.1" xmlns="http://www.w3.org/2000/svg" width="32" height="32" viewBox="0 0 32 32">
<title>cocktail1</title>
<path fill="#f0bc5e" d="M22.54 23.054l0.685 0.171v8.258h2.065v-8.258l0.685-0.171c2.361-0.59 4.202-2.299 5.030-4.474h-0.038c-5.647 0-8.743-1.531-13.857-1.547 0.414 2.889 2.532 5.297 5.429 6.021z"></path>
<path fill="#f0bc5e" d="M5.047 22.59l3.765 2.396c0.298 0.19 0.478 0.518 0.478 0.871v2.734c0 0.484-0.336 0.903-0.808 1.007l-3.388 0.753c-0.262 0.058-0.449 0.291-0.449 0.559 0 0.316 0.257 0.573 0.573 0.573h10.209c0.316 0 0.573-0.257 0.573-0.573 0-0.268-0.186-0.501-0.449-0.559l-3.388-0.753c-0.472-0.105-0.808-0.524-0.808-1.007v-2.734c0-0.353 0.18-0.681 0.478-0.871l3.765-2.396c0.893-0.569 1.434-1.554 1.434-2.613v-5.010c-2.581 0-5.677-2.581-8.774-2.581-2.581 0-4.645 1.548-4.645 1.548v6.042c0 1.059 0.541 2.044 1.434 2.613z"></path>
<path fill="#000" d="M30.609 13.419c0.227-0.344 0.359-0.751 0.359-1.185 0-0.724-0.36-1.396-0.962-1.797-0.367-0.245-0.587-0.655-0.587-1.096v-1.532l-1.492 0.995c-0.681 0.455-1.089 1.215-1.089 2.035h1.032c0-0.44 0.203-0.85 0.547-1.116 0.104 0.637 0.468 1.208 1.016 1.574 0.314 0.209 0.502 0.56 0.502 0.938 0 0.486-0.31 0.916-0.771 1.070l-0.345 0.115h-8.607l-0.345-0.115c-0.461-0.154-0.771-0.584-0.771-1.069 0-0.378 0.188-0.729 0.503-0.938 0.548-0.365 0.911-0.936 1.015-1.574 0.344 0.267 0.547 0.677 0.547 1.116h1.032c0-0.82-0.407-1.58-1.089-2.034l-1.492-0.995v1.532c0 0.441-0.219 0.851-0.587 1.096-0.602 0.401-0.962 1.073-0.962 1.797 0 0.433 0.133 0.84 0.359 1.185h-0.875v-6.194h-6.314l0.546-5.726c0.025-0.266 0.246-0.467 0.513-0.467h3.707v-1.032h-3.707c-0.803 0-1.465 0.602-1.541 1.402l-0.555 5.824h-3.013c-0.252-1.748-1.755-3.097-3.572-3.097-1.992 0-3.613 1.621-3.613 3.613 0 1.816 1.349 3.32 3.097 3.572v8.664c0 1.242 0.626 2.381 1.673 3.048l3.765 2.396c0.15 0.095 0.239 0.258 0.239 0.435v2.734c0 0.244-0.166 0.451-0.404 0.504l-3.388 0.753c-0.502 0.111-0.853 0.549-0.853 1.063 0 0.601 0.488 1.089 1.089 1.089h10.209c0.601 0 1.089-0.488 1.089-1.089 0-0.514-0.35-0.951-0.853-1.063l-3.388-0.753c-0.238-0.053-0.405-0.26-0.405-0.504v-2.734c0-0.178 0.089-0.34 0.239-0.435l3.765-2.396c1.048-0.667 1.674-1.806 1.674-3.048v-0.106c1.027 1.792 2.75 3.155 4.867 3.684l0.295 0.074v7.339h-3.097v1.032h9.29v-1.032h-3.097v-7.339l0.295-0.074c3.473-0.868 5.899-3.975 5.899-7.555v-2.581h-1.391zM3.097 7.226v3.045c-1.176-0.24-2.065-1.283-2.065-2.529 0-1.423 1.158-2.581 2.581-2.581 1.246 0 2.289 0.888 2.529 2.065h-3.045zM16.516 19.977c0 0.887-0.447 1.701-1.195 2.177l-3.765 2.396c-0.449 0.286-0.717 0.774-0.717 1.306v2.734c0 0.731 0.499 1.353 1.212 1.512l3.388 0.753c0.026 0.006 0.045 0.028 0.045 0.055 0 0.031-0.025 0.057-0.057 0.057h-10.209c-0.031 0-0.057-0.025-0.057-0.057 0-0.027 0.019-0.050 0.044-0.055l3.388-0.753c0.714-0.159 1.212-0.781 1.212-1.512v-2.734c0-0.532-0.268-1.020-0.717-1.306l-3.765-2.396c-0.748-0.476-1.195-1.29-1.195-2.177v-11.719h5.97l-1.322 13.886 1.028 0.098 1.332-13.984h5.38v11.719zM30.968 16c0 3.106-2.104 5.801-5.117 6.554l-1.077 0.269v8.145h-1.032v-8.145l-1.077-0.269c-3.013-0.753-5.117-3.448-5.117-6.554v-1.548h13.419v1.548z"></path>
<path fill="#000" d="M19.636 16.466c-0.015-0.154-0.023-0.309-0.023-0.466v-0.516h-1.032v0.516c0 0.191 0.009 0.38 0.028 0.566l1.027-0.1z"></path>
<path fill="#000" d="M22.916 21.552l0.25-1.001c-1.604-0.401-2.854-1.58-3.343-3.155l-0.986 0.306c0.597 1.922 2.121 3.361 4.078 3.85z"></path>
<path fill="#000" d="M24.645 5.823l0.156-0.125c0.067 0.555 0.263 1.086 0.577 1.556 0.281 0.422 0.429 0.912 0.429 1.418v0.102h1.032v-0.102c0-0.711-0.209-1.399-0.603-1.991-0.281-0.422-0.429-0.913-0.429-1.419v-1.692l-1.807 1.446c-1.148 0.918-1.806 2.287-1.806 3.757h1.032c0-1.155 0.517-2.23 1.419-2.951z"></path>
<path fill="#000" d="M24.489 11.042c0.494-0.247 0.802-0.744 0.802-1.297v-0.068c0-0.387-0.151-0.751-0.425-1.025l-0.243-0.243-0.73 0.73 0.243 0.243c0.079 0.078 0.122 0.183 0.122 0.295v0.068c0 0.159-0.088 0.302-0.231 0.374-0.494 0.247-0.802 0.744-0.802 1.297v0.068c0 0.387 0.151 0.751 0.425 1.025l0.243 0.243 0.73-0.73-0.243-0.243c-0.079-0.078-0.122-0.183-0.122-0.295v-0.068c0-0.159 0.088-0.302 0.231-0.374z"></path>
<path fill="#000" d="M28.752 12.236l-0.516 0.516-0.73-0.73 0.516-0.516 0.73 0.73z"></path>
<path fill="#000" d="M21.526 12.022l-0.73 0.73-0.516-0.516 0.73-0.73 0.516 0.516z"></path>
<path fill="#000" d="M5.161 14.968h1.032v1.032h-1.032v-1.032z"></path>
<path fill="#000" d="M5.161 17.032h1.032v3.097h-1.032v-3.097z"></path>
</svg>
