<!-- Generated by IcoMoon.io -->
<svg version="1.1" xmlns="http://www.w3.org/2000/svg" width="32" height="32" viewBox="0 0 32 32">
<title>cocktail</title>
<path fill="#f0bc5e" d="M2.537 16.516c0.255 2.036 1.988 3.613 4.093 3.613h7.226c2.105 0 3.839-1.577 4.093-3.613z"></path>
<path fill="#f0bc5e" d="M27.275 25.29h-5.161c-0.854 0-1.548-0.695-1.548-1.548v-8.258c0-0.854 0.695-1.548 1.548-1.548h5.161c0.854 0 1.548 0.695 1.548 1.548v8.258c0 0.854-0.695 1.548-1.548 1.548z"></path>
<path fill="#000" d="M11.792 13.419c0.854 0 1.548-0.695 1.548-1.548s-0.695-1.548-1.548-1.548c-0.854 0-1.548 0.695-1.548 1.548s0.695 1.548 1.548 1.548zM11.792 11.355c0.284 0 0.516 0.232 0.516 0.516s-0.232 0.516-0.516 0.516c-0.285 0-0.516-0.232-0.516-0.516s0.232-0.516 0.516-0.516z"></path>
<path fill="#000" d="M12.308 7.226h1.032v1.032h-1.032z"></path>
<path fill="#000" d="M9.211 4.645h1.032v1.032h-1.032z"></path>
<path fill="#000" d="M29.521 10.613c-1.034-0.388-1.729-1.39-1.729-2.495v-0.892c0.569 0 1.032-0.463 1.032-1.032v-1.032c0-0.189-0.055-0.364-0.144-0.516 0.089-0.152 0.144-0.327 0.144-0.516v-1.032c0-0.569-0.463-1.032-1.032-1.032h-0.113l-0.321-1.282c-0.115-0.46-0.527-0.782-1.002-0.782h-3.323c-0.474 0-0.886 0.322-1.001 0.782l-0.321 1.282h-0.113c-0.569 0-1.032 0.463-1.032 1.032v1.032c0 0.189 0.055 0.364 0.143 0.516-0.089 0.152-0.143 0.327-0.143 0.516v1.032c0 0.569 0.463 1.032 1.032 1.032v0.892c0 1.105-0.695 2.108-1.73 2.495-1.435 0.538-2.399 1.93-2.399 3.463v0.376h-10.467l-1.187-3.56 4.511-1.41-7.6-5.7-2.534 8.866 4.636-1.449 1.084 3.252h-3.929v1.548c0 2.412 1.849 4.4 4.204 4.623l0.304 1.825c0.125 0.75 0.767 1.294 1.527 1.294h0.674v5.161h-2.065c-1.423 0-2.581 1.158-2.581 2.581v0.516h12.387v-0.516c0-1.423-1.158-2.581-2.581-2.581h-2.065v-5.161h0.674c0.76 0 1.402-0.544 1.527-1.294l0.305-1.825c1.453-0.138 2.71-0.948 3.463-2.114l1.17 12.092c0.077 0.797 0.739 1.399 1.541 1.399h8.448c0.802 0 1.464-0.602 1.541-1.399l1.444-14.915c0.011-0.118 0.017-0.237 0.017-0.356v-1.255c0-1.533-0.964-2.924-2.4-3.463zM4.012 10.374l-0.322-3.867 2.279 3.256zM7.003 9.44l-1.709-2.441 2.801 2.1zM2.738 7.504l0.265 3.186-1.291 0.404zM23.033 1.032h3.323l0.258 1.032h-3.839zM21.598 3.097h6.194v1.032h-1.032v1.032h1.032v1.032h-6.194v-1.032h4.129v-1.032h-4.129zM15.316 30.968h-10.146c0.213-0.601 0.787-1.032 1.46-1.032h7.226c0.673 0 1.247 0.431 1.46 1.032zM10.759 28.903h-1.032v-5.161h1.032zM12.465 22.71h-4.444c-0.254 0-0.468-0.182-0.509-0.431l-0.273-1.633h6.008l-0.272 1.633c-0.042 0.25-0.256 0.431-0.509 0.431zM17.469 16c0 1.992-1.621 3.613-3.613 3.613h-7.226c-1.992 0-3.613-1.621-3.613-3.613v-0.516h14.452zM30.888 15.331c0 0.086-0.004 0.171-0.013 0.257l-1.443 14.914c-0.026 0.266-0.247 0.466-0.514 0.466h-8.448c-0.267 0-0.488-0.2-0.514-0.466l-1.443-14.914c-0.008-0.086-0.012-0.171-0.012-0.257v-1.255c0-1.105 0.695-2.108 1.729-2.495 1.435-0.538 2.4-1.93 2.4-3.463v-0.892h4.129v0.892c0 1.533 0.964 2.924 2.399 3.462 1.034 0.388 1.73 1.391 1.73 2.496z"></path>
<path fill="#000" d="M22.63 16h4.129v1.032h-4.129z"></path>
<path fill="#000" d="M22.63 18.065h4.129v1.032h-4.129z"></path>
<path fill="#000" d="M22.63 20.129h4.129v1.032h-4.129z"></path>
<path fill="#000" d="M22.63 22.194h4.129v1.032h-4.129z"></path>
</svg>
