<!-- Generated by IcoMoon.io -->
<svg version="1.1" xmlns="http://www.w3.org/2000/svg" width="32" height="32" viewBox="0 0 32 32">
<title>coffee</title>
<path fill="#f0bc5e" d="M8.774 23.431v-7.431h8.258v-4.129h-16.516v14.452h8.572c-0.202-0.946-0.314-1.914-0.314-2.891z"></path>
<path fill="#000" d="M11.355 22.194h-1.032v1.237c0 2.203 0.59 4.364 1.705 6.251l0.889-0.525c-1.022-1.727-1.562-3.707-1.562-5.725v-1.237z"></path>
<path fill="#000" d="M18.146 21.028c-0.58-0.58-1.351-0.899-2.171-0.899-1.693 0-3.071 1.378-3.071 3.071 0 0.82 0.319 1.591 0.9 2.171l2.116 2.117c0.58 0.58 1.351 0.899 2.171 0.899 1.693 0 3.071-1.378 3.071-3.071 0-0.82-0.319-1.591-0.9-2.171l-2.116-2.117zM19.843 26.339l-1.414-1.414-0.73 0.73 1.414 1.414c-0.302 0.177-0.649 0.286-1.023 0.286-0.545 0-1.057-0.212-1.442-0.597l-2.116-2.117c-0.385-0.385-0.597-0.897-0.597-1.441 0-0.375 0.109-0.721 0.286-1.023l1.93 1.93 0.73-0.73-1.93-1.93c0.302-0.177 0.649-0.286 1.023-0.286 0.545 0 1.057 0.212 1.442 0.597l2.116 2.117c0.385 0.385 0.597 0.897 0.597 1.441 0 0.375-0.109 0.722-0.286 1.023z"></path>
<path fill="#000" d="M25.806 17.032v-1.548h-8.258v-3.662c0-1.42-0.501-2.803-1.41-3.894-0.755-0.906-1.171-2.055-1.171-3.234v-0.565h1.548v-4.129h-15.484v4.129h1.548v0.565c0 1.179-0.416 2.328-1.171 3.234-0.909 1.091-1.41 2.474-1.41 3.894v17.597c0 1.423 1.158 2.581 2.581 2.581h5.161v-1.032h-5.161c-0.854 0-1.548-0.695-1.548-1.548v-17.597c0-1.179 0.416-2.328 1.171-3.234 0.909-1.091 1.41-2.474 1.41-3.894v-0.565h10.323v0.565c0 1.42 0.501 2.803 1.41 3.894 0.755 0.906 1.171 2.055 1.171 3.234v3.662h-8.258v7.947c0 2.685 0.74 5.27 2.14 7.537h-1.624v1.032h16.516v-1.032h-1.624c0.309-0.501 0.581-1.019 0.824-1.548h1.316c3.415 0 6.194-2.778 6.194-6.194s-2.778-6.194-6.194-6.194zM6.194 1.032h1.032v2.065h-1.032v-2.065zM5.161 3.097h-1.032v-2.065h1.032v2.065zM8.258 1.032h1.032v2.065h-1.032v-2.065zM10.323 1.032h1.032v2.065h-1.032v-2.065zM12.387 1.032h1.032v2.065h-1.032v-2.065zM15.484 3.097h-1.032v-2.065h1.032v2.065zM2.065 1.032h1.032v2.065h-1.032v-2.065zM25.806 23.431v-3.302c1.708 0 3.097 1.389 3.097 3.097s-1.389 3.097-3.097 3.097h-0.301c0.193-0.945 0.301-1.91 0.301-2.892zM11.624 30.968c-1.527-2.228-2.333-4.828-2.333-7.537v-4.334h12.387v-1.032h-12.387v-1.548h15.484v1.548h-2.065v1.032h2.065v4.334c0 2.709-0.806 5.308-2.333 7.537h-10.817zM25.806 28.387h-0.889c0.125-0.34 0.237-0.684 0.336-1.032h0.553c2.277 0 4.129-1.852 4.129-4.129s-1.852-4.129-4.129-4.129v-1.032c2.846 0 5.161 2.315 5.161 5.161s-2.315 5.161-5.161 5.161z"></path>
<path fill="#000" d="M30.968 4.129c0 1.708-1.389 3.097-3.097 3.097h-4.129c-2.277 0-4.129 1.852-4.129 4.129v2.065h1.032c0-1.708 1.389-3.097 3.097-3.097h4.129c2.277 0 4.129-1.852 4.129-4.129v-2.065h-1.032zM27.871 9.29h-4.129c-1.18 0-2.247 0.498-3 1.294 0.343-1.336 1.558-2.327 3-2.327h4.129c1.18 0 2.247-0.498 3-1.294-0.343 1.336-1.558 2.327-3 2.327z"></path>
<path fill="#000" d="M22.194 6.194h4.129c2.277 0 4.129-1.852 4.129-4.129v-2.065h-1.032c0 1.708-1.389 3.097-3.097 3.097h-4.129c-2.277 0-4.129 1.852-4.129 4.129v2.065h1.032c0-1.708 1.389-3.097 3.097-3.097zM22.194 4.129h4.129c1.18 0 2.247-0.498 3-1.294-0.343 1.336-1.558 2.327-3 2.327h-4.129c-1.18 0-2.247 0.498-3 1.294 0.343-1.336 1.558-2.327 3-2.327z"></path>
<path fill="#000" d="M10.323 20.129h1.032v1.032h-1.032v-1.032z"></path>
<path fill="#000" d="M2.065 16h1.032v6.194h-1.032v-6.194z"></path>
<path fill="#000" d="M2.065 13.935h1.032v1.032h-1.032v-1.032z"></path>
</svg>
