<!-- Generated by IcoMoon.io -->
<svg version="1.1" xmlns="http://www.w3.org/2000/svg" width="32" height="32" viewBox="0 0 32 32">
<title>cola</title>
<path fill="#f0bc5e" d="M2.144 13.698l0.261 0.911c0.459 1.608 0.692 3.271 0.692 4.943 0 1.751-0.255 3.493-0.759 5.171l-0.702 2.341c-0.058 0.193-0.087 0.393-0.087 0.594v1.762c0 1.14 0.924 2.065 2.065 2.065h8.258c1.14 0 2.065-0.924 2.065-2.065v-1.762c0-0.201-0.029-0.401-0.087-0.593l-0.702-2.341c-0.503-1.678-0.759-3.42-0.759-5.171 0-1.672 0.233-3.336 0.692-4.943l0.261-0.911c0.053-0.185 0.079-0.376 0.079-0.567v-2.808c-4.645 0-7.226 1.548-11.355 1.548v1.259c0 0.191 0.027 0.382 0.079 0.567z"></path>
<path fill="#f0bc5e" d="M18.581 28.903c4.045 0 6.525-5.481 11.871-6.895v-2.395c-7.226 0-9.806 7.226-14.452 7.226v2.065h2.581z"></path>
<path fill="#000" d="M29.935 14.869v-1.449c0-0.569-0.463-1.032-1.032-1.032h-11.355c-0.569 0-1.032 0.463-1.032 1.032v1.449l-1.032 2.581v11.635l2.333 2.916h10.818l2.333-2.916v-11.635l-1.032-2.581zM16.516 28.387v-10.323h13.419v10.323h-13.419zM17.382 15.484h9.457v-1.032h-9.29v-1.032h11.355v1.032h-1.032v1.032h1.199l0.619 1.548h-12.927l0.619-1.548zM28.139 30.968h-9.827l-1.239-1.548h12.305l-1.239 1.548z"></path>
<path fill="#000" d="M23.742 4.129c1.139 0 2.065-0.926 2.065-2.065s-0.926-2.065-2.065-2.065-2.065 0.926-2.065 2.065 0.926 2.065 2.065 2.065zM23.742 1.032c0.569 0 1.032 0.463 1.032 1.032s-0.463 1.032-1.032 1.032-1.032-0.463-1.032-1.032 0.463-1.032 1.032-1.032z"></path>
<path fill="#000" d="M22.194 8.258c0.854 0 1.548-0.695 1.548-1.548s-0.695-1.548-1.548-1.548-1.548 0.695-1.548 1.548 0.695 1.548 1.548 1.548zM22.194 6.194c0.284 0 0.516 0.232 0.516 0.516s-0.232 0.516-0.516 0.516-0.516-0.232-0.516-0.516 0.232-0.516 0.516-0.516z"></path>
<path fill="#000" d="M18.581 11.355c0.854 0 1.548-0.695 1.548-1.548s-0.695-1.548-1.548-1.548-1.548 0.695-1.548 1.548 0.695 1.548 1.548 1.548zM18.581 9.29c0.284 0 0.516 0.232 0.516 0.516s-0.232 0.516-0.516 0.516-0.516-0.232-0.516-0.516 0.232-0.516 0.516-0.516z"></path>
<path fill="#000" d="M13.64 24.575c-0.489-1.63-0.737-3.32-0.737-5.022 0-1.624 0.226-3.239 0.673-4.802l0.261-0.912c0.066-0.231 0.099-0.469 0.099-0.709v-2.873c0-0.768-0.339-1.491-0.929-1.982l-2.168-1.807v-3.371h1.032v-1.548c0-0.854-0.695-1.548-1.548-1.548h-5.161c-0.854 0-1.548 0.695-1.548 1.548v1.548h1.032v3.371l-2.168 1.806c-0.59 0.492-0.929 1.214-0.929 1.983v2.873c0 0.239 0.033 0.478 0.099 0.709l0.261 0.911c0.446 1.562 0.673 3.178 0.673 4.802 0 1.703-0.248 3.393-0.737 5.022l-0.703 2.341c-0.072 0.241-0.108 0.49-0.108 0.742v1.762c0 1.423 1.158 2.581 2.581 2.581h8.258c1.423 0 2.581-1.158 2.581-2.581v-1.762c0-0.251-0.037-0.501-0.108-0.742l-0.703-2.341zM13.354 27.213c0.014 0.046 0.022 0.094 0.031 0.142h-1.281c-0.941-1.101-1.184-3.168-1.245-4.129h1.388c0.112 0.553 0.241 1.103 0.403 1.646l0.702 2.341zM3.025 14.968h9.434c-0.383 1.499-0.588 3.037-0.588 4.585 0 0.886 0.065 1.768 0.191 2.641h-8.64c0.126-0.873 0.191-1.755 0.191-2.641 0-1.548-0.204-3.086-0.588-4.585zM7.226 23.226v4.129h-2.6c0.779-1.383 0.982-3.239 1.033-4.129h1.567zM8.258 23.226h1.567c0.051 0.89 0.253 2.746 1.033 4.129h-2.6v-4.129zM9.806 6.194h-4.129v-1.032h4.129v1.032zM4.645 1.548c0-0.284 0.232-0.516 0.516-0.516h5.161c0.284 0 0.516 0.232 0.516 0.516v0.516h-6.194v-0.516zM9.806 3.097v1.032h-4.129v-1.032h4.129zM2.581 10.258c0-0.461 0.203-0.894 0.557-1.19l2.21-1.842h4.788l2.21 1.842c0.354 0.295 0.557 0.728 0.557 1.19v2.873c0 0.144-0.020 0.287-0.059 0.425l-0.109 0.38h-1.38v-3.487c0-0.551-0.215-1.070-0.605-1.46l-0.579-0.579-0.73 0.73 0.579 0.579c0.195 0.195 0.302 0.454 0.302 0.73v3.487h-2.065v-5.161h-1.032v5.161h-2.065v-3.487c0-0.276 0.107-0.535 0.302-0.73l0.579-0.579-0.73-0.73-0.579 0.579c-0.39 0.39-0.605 0.908-0.605 1.46v3.487h-1.38l-0.108-0.38c-0.040-0.138-0.060-0.281-0.060-0.425v-2.873zM2.833 24.872c0.163-0.542 0.291-1.093 0.403-1.646h1.388c-0.061 0.961-0.304 3.028-1.245 4.129h-1.281c0.009-0.047 0.018-0.095 0.031-0.142l0.703-2.341zM11.871 30.968h-8.258c-0.854 0-1.548-0.695-1.548-1.548v-1.032h11.355v1.032c0 0.854-0.695 1.548-1.548 1.548z"></path>
</svg>
