<!-- Generated by IcoMoon.io -->
<svg version="1.1" xmlns="http://www.w3.org/2000/svg" width="32" height="32" viewBox="0 0 32 32">
<title>cook</title>
<path fill="#f0bc5e" d="M24.931 4.035c-1.727-2.22-4.383-3.519-7.196-3.519-2.844 0-5.656 0.609-8.245 1.786l-0.2 0.091c-0.943 0.429-1.548 1.369-1.548 2.404 0 0.571 0.185 1.127 0.528 1.584l1.020 1.361v3.613c0-1.14 0.924-2.065 2.065-2.065h9.29c1.14 0 2.065 0.924 2.065 2.065v-3.613l0.68 0.34c0.232 0.116 0.488 0.176 0.747 0.176 0.922 0 1.67-0.748 1.67-1.67 0-0.924-0.308-1.823-0.876-2.553z"></path>
<path fill="#f0bc5e" d="M24.907 21.669l-4.778-1.024v-0.692c0-0.473-0.384-0.856-0.856-0.856-0.116 0-0.231 0.024-0.337 0.069l-2.935 1.258-2.935-1.258c-0.106-0.045-0.222-0.069-0.337-0.069-0.473 0-0.856 0.384-0.856 0.856v0.692l-4.778 1.024c-1.428 0.306-2.448 1.568-2.448 3.028v3.174h3.613l0.036-0.034c0.072 0.502 0.254 0.984 0.537 1.409l0.46 0.69v1.548h13.419v-1.548l0.46-0.69c0.274-0.412 0.453-0.877 0.529-1.362l0.043-0.013h3.613v-3.174c0-1.46-1.020-2.722-2.448-3.028z"></path>
<path fill="#000" d="M13.419 24.774h1.032v1.032h-1.032z"></path>
<path fill="#000" d="M13.419 26.839h1.032v1.032h-1.032z"></path>
<path fill="#000" d="M13.419 28.903h1.032v1.032h-1.032z"></path>
<path fill="#000" d="M18.065 25.29h2.581v1.032h-2.581z"></path>
<path fill="#000" d="M27.871 24.697c0-1.693-1.201-3.178-2.856-3.533l-1.789-0.383v-12.209c0.285 0.13 0.597 0.202 0.911 0.202 1.206 0 2.186-0.981 2.186-2.186 0-1.035-0.35-2.054-0.985-2.87-1.838-2.363-4.608-3.718-7.603-3.718-2.938 0-5.784 0.616-8.458 1.832l-0.201 0.091c-1.123 0.51-1.85 1.639-1.85 2.873 0 0.678 0.225 1.351 0.632 1.894l0.917 1.223v12.867l-1.789 0.383c-1.655 0.354-2.856 1.84-2.856 3.533v3.69h1.032v3.613h21.677v-3.613h1.032zM20.645 20.228v-0.274c0-0.639-0.441-1.172-1.032-1.325v-1.53c0.85-0.834 1.412-1.96 1.525-3.213 0.393-0.076 0.748-0.247 1.056-0.479v7.153zM16 19.863l-2.581-1.107v-0.874c0.76 0.441 1.64 0.698 2.581 0.698s1.82-0.257 2.581-0.698v0.874zM10.839 12.808c-0.599-0.214-1.032-0.781-1.032-1.453s0.433-1.24 1.032-1.453zM11.254 8.785l-0.002 0.001c-0.542 0.022-1.039 0.211-1.446 0.519v-1.195c0.803-0.261 3.045-0.883 6.194-0.883s5.39 0.621 6.194 0.882v1.195c-0.407-0.307-0.903-0.497-1.446-0.519l-0.002-0.001c-0.107-0.021-2.654-0.526-4.746-0.526s-4.639 0.505-4.746 0.526zM21.161 9.901c0.599 0.214 1.032 0.781 1.032 1.453s-0.433 1.24-1.032 1.453zM11.871 9.72c0.803-0.141 2.62-0.429 4.129-0.429 1.507 0 3.326 0.288 4.129 0.429v3.7c0 2.277-1.852 4.129-4.129 4.129s-4.129-1.852-4.129-4.129zM8.258 4.797c0-0.831 0.489-1.59 1.245-1.934l0.201-0.091c2.54-1.154 5.241-1.739 8.031-1.739 2.673 0 5.147 1.21 6.788 3.32 0.495 0.635 0.767 1.43 0.767 2.235 0 0.636-0.518 1.154-1.154 1.154-0.178 0-0.357-0.042-0.516-0.122l-0.394-0.197v-0.030l-0.325-0.13c-0.057-0.023-0.805-0.314-2.1-0.587 0.211-0.824 0.639-1.579 1.241-2.181l-0.73-0.73c-0.742 0.742-1.268 1.671-1.521 2.688l-0.009 0.035c-0.509-0.081-1.071-0.153-1.686-0.205 0.071-0.757 0.315-1.485 0.741-2.123l0.173-0.26-0.859-0.573-0.173 0.26c-0.527 0.791-0.84 1.692-0.922 2.631-0.341-0.014-0.69-0.025-1.056-0.025s-0.715 0.010-1.056 0.025c-0.082-0.939-0.395-1.84-0.922-2.631l-0.173-0.26-0.859 0.573 0.173 0.26c0.425 0.638 0.671 1.366 0.741 2.123-0.616 0.052-1.177 0.124-1.686 0.205l-0.009-0.035c-0.254-1.017-0.78-1.947-1.522-2.688l-0.73 0.73c0.602 0.602 1.030 1.356 1.241 2.181-0.79 0.167-1.375 0.338-1.724 0.454l-0.793-1.057c-0.274-0.365-0.425-0.818-0.425-1.275zM9.806 13.406c0.308 0.233 0.663 0.403 1.056 0.479 0.113 1.254 0.675 2.379 1.525 3.213v1.53c-0.591 0.152-1.032 0.686-1.032 1.325v0.274l-1.548 0.332zM5.161 24.697c0-1.209 0.858-2.27 2.040-2.524l5.185-1.111v-1.109c0-0.234 0.262-0.402 0.475-0.313l2.106 0.902v1.778l-3.613 1.032v7.615h-1.548v-1.189l-0.547-0.82c-0.318-0.476-0.486-1.032-0.486-1.605s0.168-1.128 0.486-1.605c0.358-0.536 0.547-1.16 0.547-1.804v-0.72h-1.032v0.72c0 0.44-0.129 0.866-0.373 1.232-0.431 0.646-0.659 1.399-0.659 2.177h-2.581zM6.194 28.387h1.692c0.111 0.404 0.279 0.791 0.515 1.145l0.373 0.559v0.876h-2.581zM25.806 30.968h-2.581v-0.876l0.373-0.559c0.236-0.354 0.404-0.741 0.515-1.145h1.692zM26.839 27.355h-2.581c0-0.778-0.228-1.531-0.659-2.178-0.244-0.366-0.373-0.792-0.373-1.231v-0.72h-1.032v0.72c0 0.645 0.189 1.269 0.547 1.804 0.318 0.476 0.486 1.032 0.486 1.605s-0.168 1.128-0.486 1.605l-0.547 0.82v1.189h-9.806v-6.837l3.613-1.032v-2.113l3.137-1.344c0.221-0.094 0.476 0.078 0.476 0.312v1.109l5.185 1.111c1.182 0.254 2.040 1.315 2.040 2.524z"></path>
<path fill="#000" d="M19.097 10.839c0 0.285-0.231 0.516-0.516 0.516s-0.516-0.231-0.516-0.516 0.231-0.516 0.516-0.516 0.516 0.231 0.516 0.516z"></path>
<path fill="#000" d="M13.935 10.839c0 0.285-0.231 0.516-0.516 0.516s-0.516-0.231-0.516-0.516 0.231-0.516 0.516-0.516 0.516 0.231 0.516 0.516z"></path>
<path fill="#000" d="M16 16c1.139 0 2.065-0.926 2.065-2.065h-1.032c0 0.569-0.463 1.032-1.032 1.032s-1.032-0.463-1.032-1.032h-1.032c0 1.139 0.926 2.065 2.065 2.065z"></path>
</svg>
