<!-- Generated by IcoMoon.io -->
<svg version="1.1" xmlns="http://www.w3.org/2000/svg" width="32" height="32" viewBox="0 0 32 32">
<title>cookies</title>
<path fill="#f0bc5e" d="M14.194 25.29c-1.281 0-2.323-1.042-2.323-2.323s1.042-2.323 2.323-2.323 2.323 1.042 2.323 2.323-1.042 2.323-2.323 2.323z"></path>
<path fill="#f0bc5e" d="M16 16c-0.854 0-1.548-0.695-1.548-1.548s0.695-1.548 1.548-1.548 1.548 0.695 1.548 1.548-0.695 1.548-1.548 1.548z"></path>
<path fill="#f0bc5e" d="M24.258 24.258c-0.854 0-1.548-0.695-1.548-1.548s0.695-1.548 1.548-1.548 1.548 0.695 1.548 1.548-0.695 1.548-1.548 1.548z"></path>
<path fill="#f0bc5e" d="M20.903 29.935c-0.854 0-1.548-0.695-1.548-1.548s0.695-1.548 1.548-1.548 1.548 0.695 1.548 1.548-0.695 1.548-1.548 1.548z"></path>
<path fill="#f0bc5e" d="M4.903 16.516c-1.281 0-2.323-1.042-2.323-2.323s1.042-2.323 2.323-2.323 2.323 1.042 2.323 2.323-1.042 2.323-2.323 2.323z"></path>
<path fill="#f0bc5e" d="M7.226 6.71c-0.854 0-1.548-0.695-1.548-1.548s0.695-1.548 1.548-1.548 1.548 0.695 1.548 1.548-0.695 1.548-1.548 1.548z"></path>
<path fill="#f0bc5e" d="M14.452 9.29c-0.854 0-1.548 0.695-1.548 1.548 0 0.772 0.579 1.43 1.348 1.53l1.675-1.075c0.050-0.16 0.074-0.309 0.074-0.456 0-0.854-0.695-1.548-1.548-1.548z"></path>
<path fill="#f0bc5e" d="M15.484 6.194c-0.854 0-1.548-0.695-1.548-1.548s0.695-1.548 1.548-1.548 1.548 0.695 1.548 1.548-0.695 1.548-1.548 1.548z"></path>
<path fill="#000" d="M31.758 18.313l-0.129-0.615-0.578 0.245c-0.19 0.080-0.392 0.121-0.6 0.121-0.594 0-1.126-0.337-1.388-0.879l-0.205-0.425-0.441 0.167c-1.084 0.41-2.093-0.418-2.095-1.407l0.022-0.504-0.402-0.103c-0.687-0.175-1.167-0.789-1.167-1.493 0-0.177 0.035-0.36 0.105-0.545l0.167-0.442-0.425-0.205c-0.542-0.262-0.879-0.795-0.879-1.389 0-0.161 0.031-0.326 0.094-0.507l0.186-0.531-0.545-0.14c-0.317-0.082-0.633-0.145-0.949-0.2-0.914-5.418-5.643-9.461-11.174-9.461-6.261 0-11.355 5.094-11.355 11.355 0 5.527 4.037 10.253 9.449 11.172 0.899 5.369 5.576 9.474 11.196 9.474 6.261 0 11.355-5.094 11.355-11.355 0-0.778-0.082-1.563-0.242-2.332zM1.032 11.355c0-5.692 4.631-10.323 10.323-10.323 4.922 0 9.147 3.523 10.101 8.293-0.272-0.021-0.543-0.035-0.811-0.035-6.261 0-11.355 5.094-11.355 11.355 0 0.273 0.013 0.542 0.032 0.811-4.769-0.956-8.29-5.18-8.29-10.101zM20.645 30.968c-5.692 0-10.323-4.631-10.323-10.323s4.631-10.323 10.323-10.323c0.68 0 1.379 0.075 2.083 0.222-0.012 0.099-0.019 0.196-0.019 0.294 0 0.845 0.406 1.614 1.082 2.093-0.033 0.163-0.050 0.326-0.050 0.487 0 1.042 0.627 1.966 1.566 2.366 0.15 1.281 1.242 2.279 2.563 2.279 0.162 0 0.324-0.017 0.487-0.050 0.479 0.676 1.248 1.082 2.093 1.082 0.133 0 0.265-0.010 0.394-0.030 0.081 0.524 0.122 1.052 0.122 1.578 0 5.692-4.631 10.323-10.323 10.323z"></path>
<path fill="#000" d="M19.097 11.871h1.032v1.032h-1.032v-1.032z"></path>
<path fill="#000" d="M20.129 15.484h1.032v1.032h-1.032v-1.032z"></path>
<path fill="#000" d="M11.871 17.548h1.032v1.032h-1.032v-1.032z"></path>
<path fill="#000" d="M16.516 18.581h1.032v1.032h-1.032v-1.032z"></path>
<path fill="#000" d="M19.097 22.71h1.032v1.032h-1.032v-1.032z"></path>
<path fill="#000" d="M16 27.871h1.032v1.032h-1.032v-1.032z"></path>
<path fill="#000" d="M24.774 26.839h1.032v1.032h-1.032v-1.032z"></path>
<path fill="#000" d="M27.355 21.161h1.032v1.032h-1.032v-1.032z"></path>
<path fill="#000" d="M17.548 7.226h1.032v1.032h-1.032v-1.032z"></path>
<path fill="#000" d="M11.871 6.194h1.032v1.032h-1.032v-1.032z"></path>
<path fill="#000" d="M10.839 2.065h1.032v1.032h-1.032v-1.032z"></path>
<path fill="#000" d="M2.581 8.258h1.032v1.032h-1.032v-1.032z"></path>
<path fill="#000" d="M8.258 9.29h1.032v1.032h-1.032v-1.032z"></path>
<path fill="#000" d="M9.29 13.419h1.032v1.032h-1.032v-1.032z"></path>
<path fill="#000" d="M6.71 18.065h1.032v1.032h-1.032v-1.032z"></path>
<path fill="#000" d="M23.226 18.065h1.032v1.032h-1.032v-1.032z"></path>
</svg>
