<!-- Generated by IcoMoon.io -->
<svg version="1.1" xmlns="http://www.w3.org/2000/svg" width="32" height="32" viewBox="0 0 32 32">
<title>corn</title>
<path fill="#f0bc5e" d="M8.204 17.432l0.251 0.223c3.838-0.566 7.775-0.305 11.541 0.802l0.36 0.691c-0.945-3.071-1.453-6.263-1.496-9.48l-0.137-0.174-3.694-3.694c-3.385-3.386-7.978-5.288-12.766-5.288v0c-0.464 0-0.91 0.185-1.238 0.513s-0.513 0.774-0.513 1.238c0 4.788 1.902 9.38 5.288 12.766l2.402 2.403z"></path>
<path fill="#000" d="M30.264 27.488c0.567-1.027 0.872-2.185 0.872-3.391 0-1.88-0.733-3.647-2.062-4.977l-1.465-1.465c-4.579-4.579-7.101-10.667-7.101-17.142 0-0.257-0.191-0.475-0.446-0.509-0.255-0.030-0.496 0.128-0.562 0.376-0.704 2.639-1.083 5.328-1.148 8.017l-2.96-2.96c-3.507-3.506-8.169-5.438-13.129-5.438-0.604 0-1.173 0.235-1.6 0.662s-0.663 0.996-0.663 1.601c0 4.959 1.931 9.622 5.438 13.128l1.929 1.931c-1.62 0.299-3.215 0.738-4.76 1.326l-2.276 0.867c-0.231 0.088-0.367 0.329-0.321 0.572s0.257 0.42 0.504 0.42c6.475 0 12.563 2.521 17.143 7.1l1.465 1.465c1.329 1.329 3.097 2.062 4.977 2.062 1.206 0 2.364-0.305 3.391-0.872l1.736 1.736 2.776-2.776-1.736-1.736zM18.351 10.161c0.013 0.461 0.038 0.921 0.069 1.382l-0.297-0.297c0.094-0.355 0.174-0.716 0.228-1.084zM18.567 13.14c0.098 0.852 0.227 1.702 0.39 2.547l-1.905-1.915c0.276-0.456 0.518-0.933 0.716-1.431l0.799 0.799zM19.016 17.199l0.359 0.36c0.017 0.069 0.031 0.138 0.049 0.206-0.241-0.064-0.483-0.119-0.726-0.177 0.109-0.128 0.216-0.256 0.318-0.39zM4.605 6.864c0.257 0.331 0.521 0.656 0.783 0.983-0.294 0.172-0.601 0.322-0.921 0.449-0.198-0.354-0.392-0.712-0.576-1.075 0.248-0.103 0.484-0.225 0.715-0.357zM3.438 6.297c-0.167-0.358-0.322-0.722-0.475-1.088 0.094-0.044 0.189-0.088 0.28-0.138 0.243 0.328 0.493 0.65 0.739 0.974-0.175 0.095-0.358 0.177-0.544 0.252zM9.53 11.16c-0.365-0.408-0.729-0.816-1.087-1.23 0.553-0.434 1.052-0.933 1.486-1.486 0.415 0.358 0.827 0.719 1.235 1.085-0.466 0.617-1.015 1.166-1.634 1.631zM11.925 10.221c0.407 0.372 0.81 0.748 1.209 1.127-0.507 0.68-1.109 1.281-1.789 1.788-0.379-0.399-0.752-0.804-1.123-1.21 0.64-0.492 1.212-1.064 1.703-1.705zM7.781 9.146c-0.304-0.36-0.61-0.719-0.91-1.084 0.436-0.354 0.832-0.755 1.182-1.195 0.368 0.301 0.732 0.606 1.095 0.912-0.397 0.511-0.856 0.97-1.367 1.367zM6.233 7.264c-0.261-0.327-0.526-0.651-0.782-0.98 0.303-0.25 0.58-0.528 0.831-0.83 0.328 0.255 0.654 0.511 0.978 0.771-0.304 0.382-0.648 0.731-1.026 1.040zM4.829 5.465c-0.251-0.329-0.505-0.656-0.751-0.988 0.14-0.125 0.273-0.257 0.397-0.398 0.332 0.246 0.664 0.494 0.994 0.745-0.194 0.232-0.409 0.446-0.64 0.641zM6.031 8.652c0.295 0.36 0.596 0.715 0.896 1.071-0.392 0.228-0.806 0.42-1.239 0.577-0.242-0.363-0.474-0.733-0.701-1.106 0.364-0.153 0.71-0.337 1.043-0.542zM7.594 10.516c0.353 0.41 0.713 0.812 1.073 1.215-0.458 0.261-0.943 0.479-1.45 0.65-0.319-0.396-0.626-0.8-0.923-1.212 0.454-0.181 0.887-0.401 1.3-0.653zM9.366 12.51c0.368 0.403 0.738 0.802 1.113 1.199-0.473 0.272-0.973 0.499-1.496 0.679-0.366-0.381-0.72-0.77-1.063-1.167 0.506-0.195 0.988-0.433 1.446-0.71zM11.205 14.466c0.372 0.385 0.742 0.771 1.121 1.149l0.687 0.686c-0.356 0.2-0.726 0.38-1.116 0.533l-0.096 0.033c-0.119 0.004-0.238 0.009-0.357 0.013l-1.68-1.687c0.503-0.202 0.983-0.447 1.442-0.727zM12.064 13.878c0.683-0.523 1.293-1.134 1.816-1.817 0.338 0.328 0.676 0.657 1.008 0.989l0.843 0.848c-0.514 0.695-1.132 1.313-1.84 1.832l-0.841-0.841c-0.333-0.333-0.659-0.674-0.987-1.012zM16.463 14.634l1.82 1.829c-0.229 0.309-0.477 0.602-0.745 0.879-0.789-0.149-1.583-0.266-2.381-0.346l-0.533-0.532c0.698-0.529 1.315-1.144 1.839-1.83zM15.818 7.314l1.606 1.606c-0.011 0.5-0.065 0.991-0.157 1.469l-1.697-1.697c-0.006-0.006-0.013-0.012-0.019-0.019 0.119-0.442 0.211-0.895 0.267-1.36zM16.965 11.537c-0.175 0.516-0.394 1.013-0.66 1.483l-0.691-0.694c-0.378-0.378-0.761-0.753-1.146-1.125 0.278-0.457 0.523-0.935 0.724-1.437l1.773 1.773zM13.804 5.362c0.294 0.258 0.583 0.522 0.863 0.801l0.191 0.192c-0.012 0.513-0.063 1.016-0.159 1.503-0.373-0.345-0.756-0.679-1.144-1.005 0.121-0.483 0.208-0.98 0.25-1.491zM14.39 8.978c-0.18 0.525-0.409 1.027-0.681 1.502-0.396-0.375-0.796-0.746-1.2-1.114 0.278-0.46 0.517-0.945 0.712-1.453 0.399 0.344 0.788 0.7 1.169 1.065zM11.755 3.814c0.361 0.233 0.716 0.479 1.061 0.741l0.002 0.060c0 0.521-0.054 1.030-0.148 1.524-0.383-0.298-0.772-0.589-1.168-0.869 0.123-0.472 0.211-0.957 0.253-1.456zM12.387 7.22c-0.171 0.506-0.388 0.988-0.649 1.445-0.404-0.36-0.812-0.716-1.222-1.070 0.252-0.413 0.472-0.846 0.654-1.3 0.413 0.298 0.819 0.606 1.217 0.925zM9.71 2.676c0.356 0.167 0.705 0.35 1.050 0.541-0.009 0.493-0.061 0.976-0.159 1.443-0.365-0.238-0.736-0.467-1.11-0.69 0.108-0.419 0.183-0.851 0.219-1.294zM10.3 5.691c-0.156 0.431-0.348 0.843-0.575 1.234-0.361-0.304-0.723-0.606-1.089-0.905 0.201-0.336 0.382-0.685 0.532-1.051 0.383 0.232 0.76 0.473 1.133 0.722zM7.673 1.877c0.349 0.113 0.693 0.236 1.034 0.37-0.010 0.409-0.053 0.81-0.135 1.197-0.342-0.188-0.689-0.37-1.038-0.545 0.075-0.331 0.12-0.673 0.139-1.022zM7.222 3.89c0.353 0.179 0.703 0.365 1.049 0.558-0.123 0.32-0.267 0.629-0.435 0.923-0.322-0.257-0.647-0.511-0.973-0.764 0.134-0.231 0.255-0.469 0.359-0.717zM5.624 1.347c0.35 0.068 0.696 0.146 1.040 0.234-0.003 0.293-0.033 0.58-0.083 0.86-0.345-0.158-0.692-0.311-1.042-0.456 0.044-0.208 0.070-0.421 0.086-0.638zM5.21 2.959c0.366 0.153 0.728 0.313 1.086 0.48-0.074 0.184-0.155 0.365-0.249 0.538-0.325-0.247-0.651-0.491-0.978-0.733 0.051-0.092 0.095-0.189 0.14-0.285zM4.607 1.184c-0.007 0.14-0.021 0.279-0.043 0.415-0.529-0.199-1.064-0.386-1.604-0.556 0.554 0.022 1.103 0.070 1.647 0.141zM4.256 2.579c-0.194 0.401-0.459 0.761-0.781 1.062-0.418-0.577-0.829-1.159-1.233-1.745 0.68 0.204 1.351 0.432 2.013 0.683zM1.026 2.263c0-0.096 0.014-0.189 0.035-0.279 0.513 0.756 1.039 1.504 1.575 2.245-0.44 0.222-0.931 0.355-1.451 0.377-0.102-0.771-0.158-1.552-0.158-2.343zM1.347 5.623c0.218-0.015 0.432-0.042 0.641-0.086 0.146 0.35 0.291 0.701 0.448 1.044-0.278 0.049-0.563 0.079-0.855 0.082-0.088-0.343-0.167-0.69-0.234-1.040zM1.877 7.673c0.35-0.019 0.693-0.065 1.025-0.14 0.181 0.362 0.37 0.72 0.565 1.074-0.389 0.087-0.79 0.135-1.2 0.15-0.142-0.357-0.271-0.718-0.39-1.084zM2.698 9.758c0.442-0.039 0.872-0.118 1.29-0.229 0.216 0.362 0.438 0.72 0.669 1.073-0.466 0.098-0.948 0.149-1.44 0.158-0.183-0.329-0.359-0.662-0.519-1.002zM4.558 12.821c-0.263-0.347-0.51-0.702-0.744-1.065 0.501-0.042 0.987-0.131 1.461-0.254 0.279 0.395 0.568 0.784 0.865 1.166-0.507 0.097-1.028 0.152-1.563 0.152l-0.019 0.001zM6.164 14.666c-0.279-0.278-0.543-0.568-0.8-0.861 0.511-0.042 1.009-0.127 1.494-0.249 0.326 0.388 0.661 0.769 1.006 1.142-0.489 0.098-0.994 0.149-1.508 0.16l-0.191-0.192zM7.314 15.818c0.465-0.055 0.918-0.148 1.361-0.267 0.006 0.006 0.012 0.012 0.018 0.018l1.383 1.388c-0.488 0.041-0.975 0.095-1.461 0.162l-1.301-1.302zM26.364 29.668l-0.799-1.119c-1.496-2.093-2.747-4.361-3.715-6.727l-0.356-0.95-0.96 0.36 0.361 0.963c0.694 1.698 1.535 3.336 2.493 4.902-1.41-0.623-2.706-1.503-3.798-2.594l-1.396-1.396c-2.67-2.668-6.218-4.137-9.992-4.137v1.025c3.5 0 6.79 1.363 9.265 3.838l1.396 1.396c1.524 1.524 3.414 2.672 5.467 3.324 0.134 0.196 0.259 0.399 0.398 0.593l0.598 0.837c-0.4 0.083-0.812 0.128-1.23 0.128-1.606-0-3.116-0.626-4.251-1.762l-1.465-1.465c-4.185-4.185-9.579-6.721-15.393-7.282 5.332-2.028 11.278-2.269 16.757-0.683 0.136 0.459 0.281 0.916 0.436 1.37l0.971-0.331c-1.741-5.101-2.212-10.486-1.402-15.763 0.777 5.352 3.243 10.293 7.137 14.186l1.465 1.465c1.136 1.136 1.762 2.646 1.762 4.252 0 1.17-0.336 2.287-0.955 3.247-0.051-0.519-0.128-1.036-0.235-1.546l-1.003 0.211c0.172 0.816 0.261 1.649 0.276 2.481-0.542 0.507-1.16 0.905-1.83 1.178zM28.362 29.688c0.247-0.19 0.488-0.39 0.712-0.614s0.424-0.465 0.614-0.712l0.862 0.862-1.326 1.326-0.862-0.862z"></path>
<path fill="#000" d="M24.361 19.446c1.334 1.334 2.345 2.905 3.001 4.657 0.11 0.321 0.208 0.625 0.294 0.912l0.982-0.293c-0.089-0.299-0.192-0.616-0.311-0.964-0.713-1.904-1.804-3.599-3.242-5.037l-0.12-0.12c-1.61-1.61-2.777-3.621-3.376-5.818l-0.587-2.151-0.989 0.27 0.587 2.151c0.646 2.368 1.905 4.537 3.641 6.273l0.119 0.12z"></path>
</svg>
