<!-- Generated by IcoMoon.io -->
<svg version="1.1" xmlns="http://www.w3.org/2000/svg" width="32" height="32" viewBox="0 0 32 32">
<title>corndog</title>
<path fill="#343433" d="M14.735 25.259l-6.741 6.741-0.733-0.733 6.741-6.741 0.733 0.733z"></path>
<path fill="#f9ba48" d="M16.476 26.446c-0.012 0-0.026 0.004-0.036 0-0.877 0-1.79-0.41-2.504-1.124s-1.124-1.628-1.124-2.506c0-1.772 0.551-2.323 1.19-2.959l11.408-11.408c1.189-1.189 2.43-1.189 2.959-1.189 1.831 0 3.63 1.798 3.63 3.63 0 1.771-0.551 2.322-1.189 2.959l-11.409 11.409c-1.165 1.165-2.377 1.189-2.925 1.189z"></path>
<path fill="#343433" d="M9.183 21.26c2.287 0 4.148-1.861 4.148-4.148 0-0.957-0.329-1.837-0.875-2.54l0.929-0.929c0.703 0.547 1.582 0.876 2.539 0.876 2.287 0 4.148-1.861 4.148-4.148 0-0.957-0.329-1.837-0.875-2.54l0.41-0.41c0.703 0.547 1.582 0.876 2.539 0.876 2.287 0 4.148-1.861 4.148-4.148s-1.861-4.148-4.148-4.148-4.148 1.861-4.148 4.148c0 0.957 0.329 1.837 0.875 2.54l-0.41 0.41c-0.703-0.547-1.582-0.876-2.539-0.876-2.287 0-4.148 1.861-4.148 4.148 0 0.957 0.329 1.837 0.875 2.54l-0.929 0.929c-0.703-0.547-1.582-0.876-2.539-0.876-2.287 0-4.148 1.861-4.148 4.148 0 0.957 0.329 1.837 0.875 2.54l-5.909 5.909 0.733 0.733 5.909-5.909c0.703 0.547 1.583 0.875 2.54 0.875zM22.147 1.037c1.716 0 3.111 1.395 3.111 3.111s-1.395 3.111-3.111 3.111-3.111-1.395-3.111-3.111 1.395-3.111 3.111-3.111zM15.924 7.26c1.716 0 3.111 1.395 3.111 3.111s-1.395 3.111-3.111 3.111-3.111-1.395-3.111-3.111 1.395-3.111 3.111-3.111zM9.183 14.001c1.716 0 3.111 1.395 3.111 3.111s-1.395 3.111-3.111 3.111-3.111-1.395-3.111-3.111 1.395-3.111 3.111-3.111z"></path>
<path fill="#343433" d="M21.11 17.112v1.556h-1.556c-0.572 0-1.037 0.465-1.037 1.037v1.556h-1.556c-0.572 0-1.037 0.465-1.037 1.037v0.519h1.037v-0.519h1.556c0.572 0 1.037-0.465 1.037-1.037v-1.556h1.556c0.572 0 1.037-0.465 1.037-1.037v-1.556h1.556c0.572 0 1.037-0.465 1.037-1.037h-2.593c-0.572 0-1.037 0.465-1.037 1.037z"></path>
<path fill="#343433" d="M28.888 10.371v0.519h-1.556c-0.572 0-1.037 0.465-1.037 1.037v1.556h-1.556c-0.572 0-1.037 0.465-1.037 1.037v1.037h1.037v-1.037h1.556c0.572 0 1.037-0.465 1.037-1.037v-1.556h1.556c0.572 0 1.037-0.465 1.037-1.037v-0.519h-1.037z"></path>
<path fill="#343433" d="M15.924 23.335h1.037v1.037h-1.037v-1.037z"></path>
<path fill="#343433" d="M9.183 19.705v-1.037c-0.858 0-1.556-0.698-1.556-1.556h-1.037c0 1.43 1.163 2.593 2.593 2.593z"></path>
<path fill="#343433" d="M22.147 6.741v-1.037c-0.858 0-1.556-0.698-1.556-1.556h-1.037c0 1.43 1.163 2.593 2.593 2.593z"></path>
</svg>
