<!-- Generated by IcoMoon.io -->
<svg version="1.1" xmlns="http://www.w3.org/2000/svg" width="32" height="32" viewBox="0 0 32 32">
<title>credit-card</title>
<path fill="#f0bc5e" d="M25.806 20.129h-2.064l-3.292 3.292c-0.205 0.205-0.484 0.321-0.774 0.321h-0c-0.604 0-1.095-0.49-1.095-1.095 0-0.291 0.116-0.569 0.321-0.774l1.744-1.744h-12.387c-0.569 0-1.032 0.463-1.032 1.032v9.806c0 0.569 0.463 1.032 1.032 1.032h17.548c0.569 0 1.032-0.463 1.032-1.032v-9.806c0-0.569-0.463-1.032-1.032-1.032z"></path>
<path fill="#f0bc5e" d="M7.742 15.484c-4.269 0-7.742-3.473-7.742-7.742s3.473-7.742 7.742-7.742 7.742 3.473 7.742 7.742c0 4.269-3.473 7.742-7.742 7.742z"></path>
<path fill="#000" d="M28.903 12.904v1.032h-11.078c-0.228 0-0.456 0.030-0.679 0.091l-4.8 1.309c-0.5 0.137-0.942 0.417-1.28 0.81l-2.42 2.823c-0.251 0.291-0.389 0.664-0.389 1.097 0 0.021 0.004 0.042 0.004 0.063h1.040c-0.004-0.036-0.012-0.068-0.012-0.111 0-0.138 0.050-0.272 0.14-0.377l2.421-2.824c0.202-0.236 0.468-0.404 0.768-0.486l4.798-1.309c0.134-0.036 0.271-0.054 0.408-0.054h11.078v3.097h-3.827l-4.991 4.991c-0.109 0.109-0.255 0.169-0.41 0.169-0.319 0-0.579-0.26-0.579-0.579 0-0.152 0.062-0.301 0.17-0.409l2.411-2.411v-2.278h-1.032v1.153l-1.308-0.785c-0.401-0.241-0.86-0.368-1.328-0.368h-3.734c-0.689 0-1.337 0.269-1.825 0.756l-1.825 1.825h1.876l-0.069-0.346 0.748-0.748c0.168-0.168 0.37-0.287 0.588-0.362l-0.039 0.155c-0.107 0.428-0.177 0.864-0.229 1.302h1.038c0.046-0.354 0.106-0.707 0.192-1.052l0.124-0.496h3.154c0.28 0 0.556 0.076 0.796 0.221l1.523 0.914-1.793 1.792c-0.3 0.3-0.472 0.715-0.472 1.14 0 0.888 0.723 1.611 1.612 1.611 0.43 0 0.835-0.167 1.139-0.472l4.689-4.689h3.399v1.032h3.097v-7.226zM30.968 19.097h-1.032v-5.161h1.032z"></path>
<path fill="#000" d="M6.71 5.678h2.064c0.284 0 0.516 0.231 0.516 0.516h1.032c0-0.854-0.695-1.548-1.548-1.548h-0.516v-0.516h-1.032v0.516h-0.516c-0.854 0-1.548 0.695-1.548 1.548v0.516c0 0.854 0.695 1.548 1.548 1.548h2.064c0.284 0 0.516 0.231 0.516 0.516v0.516c0 0.285-0.232 0.516-0.516 0.516h-2.064c-0.284 0-0.516-0.231-0.516-0.516h-1.032c0 0.854 0.695 1.548 1.548 1.548h0.516v0.516h1.032v-0.516h0.516c0.854 0 1.548-0.695 1.548-1.548v-0.516c0-0.854-0.695-1.548-1.548-1.548h-2.064c-0.284 0-0.516-0.231-0.516-0.516v-0.516c0-0.285 0.232-0.516 0.516-0.516z"></path>
<path fill="#000" d="M10.681 11.339c-0.826 0.676-1.87 1.049-2.939 1.049-2.561 0-4.645-2.084-4.645-4.645 0-1.068 0.373-2.112 1.049-2.938l-0.799-0.654c-0.827 1.011-1.282 2.287-1.282 3.593 0 3.13 2.547 5.677 5.677 5.677 1.306 0 2.582-0.456 3.593-1.283z"></path>
<path fill="#000" d="M7.742 3.097c2.561 0 4.645 2.084 4.645 4.645 0 1.068-0.373 2.112-1.049 2.938l0.799 0.654c0.827-1.011 1.282-2.286 1.282-3.593 0-3.13-2.547-5.677-5.677-5.677-1.306 0-2.582 0.456-3.593 1.282l0.654 0.799c0.826-0.676 1.87-1.049 2.939-1.049z"></path>
<path fill="#000" d="M22.193 24.774c-0.367 0-0.715 0.079-1.032 0.219-0.317-0.139-0.665-0.219-1.032-0.219-1.423 0-2.581 1.158-2.581 2.581s1.158 2.581 2.581 2.581c0.367 0 0.715-0.079 1.032-0.219 0.317 0.139 0.665 0.219 1.032 0.219 1.423 0 2.581-1.158 2.581-2.581s-1.158-2.581-2.581-2.581zM21.677 27.355c0 0.456-0.202 0.862-0.516 1.146-0.314-0.284-0.516-0.69-0.516-1.146s0.202-0.862 0.516-1.146c0.314 0.284 0.516 0.69 0.516 1.146zM18.58 27.355c0-0.854 0.695-1.548 1.548-1.548 0.004 0 0.008 0.001 0.012 0.001-0.327 0.432-0.528 0.965-0.528 1.547s0.201 1.115 0.528 1.547c-0.004 0-0.008 0.001-0.012 0.001-0.854 0-1.548-0.695-1.548-1.548zM22.193 28.903c-0.004 0-0.008-0.001-0.012-0.001 0.327-0.432 0.528-0.965 0.528-1.547s-0.201-1.115-0.528-1.547c0.004 0 0.008-0.001 0.012-0.001 0.854 0 1.548 0.695 1.548 1.548s-0.695 1.548-1.548 1.548z"></path>
<path fill="#000" d="M9.29 22.194h1.032v1.032h-1.032z"></path>
<path fill="#000" d="M11.355 22.194h1.032v1.032h-1.032z"></path>
<path fill="#000" d="M13.419 22.194h1.032v1.032h-1.032z"></path>
<path fill="#000" d="M9.29 26.323h1.032v2.064h-1.032z"></path>
<path fill="#000" d="M11.355 26.323h1.032v2.064h-1.032z"></path>
<path fill="#000" d="M13.419 26.323h1.032v2.064h-1.032z"></path>
<path fill="#000" d="M15.484 26.323h1.032v2.064h-1.032z"></path>
<path fill="#000" d="M4.771 27.96l-0.73-0.73-0.944 0.944v-1.335h-1.032v1.335l-0.944-0.944-0.73 0.73 0.944 0.944h-1.335v1.032h1.335l-0.944 0.944 0.73 0.73 0.944-0.944v1.335h1.032v-1.335l0.944 0.944 0.73-0.73-0.944-0.944h1.335v-1.032h-1.335zM3.613 28.992v0.855l-0.605 0.605h-0.855l-0.605-0.605v-0.855l0.605-0.605h0.855z"></path>
<path fill="#000" d="M27.229 9.202l0.73 0.73 0.944-0.944v1.335h1.032v-1.335l0.944 0.944 0.73-0.73-0.944-0.944h1.335v-1.032h-1.335l0.944-0.944-0.73-0.73-0.944 0.944v-1.335h-1.032v1.335l-0.944-0.944-0.73 0.73 0.944 0.944h-1.335v1.032h1.335zM28.387 8.17v-0.855l0.605-0.605h0.855l0.605 0.605v0.855l-0.605 0.605h-0.855z"></path>
<path fill="#000" d="M16.39 4.041l0.73 0.73 0.944-0.944v1.335h1.032v-1.335l0.944 0.944 0.73-0.73-0.944-0.944h1.335v-1.032h-1.335l0.944-0.944-0.73-0.73-0.944 0.944v-1.335h-1.032v1.335l-0.944-0.944-0.73 0.73 0.944 0.944h-1.335v1.032h1.335zM17.548 3.009v-0.855l0.605-0.605h0.855l0.605 0.605v0.855l-0.605 0.605h-0.855z"></path>
</svg>
