<!-- Generated by IcoMoon.io -->
<svg version="1.1" xmlns="http://www.w3.org/2000/svg" width="32" height="32" viewBox="0 0 32 32">
<title>crepe-1</title>
<path fill="#f0bc5e" d="M29.885 27.886h-1.543c-0.568 0-1.029-0.46-1.029-1.029v-15.233l-7.613-4.399c0.068 0.463-0.071 0.949-0.428 1.306-0.49 0.49-1.224 0.574-1.806 0.268-0.195 0.628-0.773 1.088-1.466 1.088s-1.271-0.459-1.467-1.088c-0.582 0.306-1.316 0.222-1.806-0.268s-0.574-1.224-0.268-1.806c-0.628-0.195-1.088-0.774-1.088-1.467s0.459-1.271 1.088-1.467c-0.14-0.267-0.195-0.566-0.169-0.859l-0.125-0.072-0.279-0.15-3.6-2.080-0.012 0.012c-3.698 3.698-6.355 8.306-7.702 13.359l2.571-0.514h16.97v8.167c0 0.746 0.503 1.432 1.235 1.574 0.985 0.192 1.85-0.561 1.85-1.512v-6.685c0-0.284 0.23-0.514 0.514-0.514s0.514 0.23 0.514 0.514v12.342c0 0.852-0.691 1.543-1.543 1.543h-6.11c-0.746 0-1.432 0.503-1.574 1.235-0.192 0.985 0.561 1.85 1.512 1.85h13.37c1.136 0 2.057-0.921 2.057-2.057s-0.921-2.057-2.057-2.057z"></path>
<path fill="#000" d="M18.571 23.772h5.657v1.029h-5.657v-1.029z"></path>
<path fill="#000" d="M22.795 22.744h1.433v-1.029h-1.029c0 0.398-0.157 0.755-0.404 1.029z"></path>
<path fill="#000" d="M23.199 19.658h1.029v1.029h-1.029v-1.029z"></path>
<path fill="#000" d="M7.087 19.658h13.027v1.029h-13.027v-1.029z"></path>
<path fill="#000" d="M5.201 19.658h1.029v1.029h-1.029v-1.029z"></path>
<path fill="#000" d="M23.199 17.601h1.029v1.029h-1.029v-1.029z"></path>
<path fill="#000" d="M2.716 12.287l0.97 0.342c0.825-2.337 1.967-4.552 3.396-6.584l-0.842-0.591c-1.482 2.109-2.668 4.409-3.524 6.834z"></path>
<path fill="#000" d="M8.172 4.598l-0.801-0.646c-0.195 0.242-0.386 0.486-0.573 0.734l0.821 0.619c0.181-0.239 0.365-0.475 0.552-0.708z"></path>
<path fill="#000" d="M20.246 6.947c0.551-0.375 0.896-0.997 0.896-1.688 0-0.679-0.337-1.312-0.902-1.695-0.037-0.025-0.052-0.063-0.049-0.072 0.142-0.681-0.065-1.38-0.554-1.868-0.489-0.49-1.187-0.695-1.869-0.554-0.007 0-0.047-0.013-0.073-0.050-0.383-0.566-1.017-0.903-1.695-0.903-0.718 0-1.364 0.37-1.733 0.959-0.677-0.156-1.395 0.039-1.903 0.548-0.161 0.161-0.286 0.344-0.383 0.539l-3.437-1.976-0.354-0.186-0.279 0.279c-3.757 3.757-6.466 8.456-7.835 13.589l-0.017 12.989h24.17v-1.029h-23.141v-1.029h16.456v-1.029h-16.456v-1.029h19.44c-0.244-0.278-0.393-0.642-0.407-1.029h-19.032v-1.029h3.085v-1.029h-3.085v-1.029h19.027v-1.029h-19.027v-1.029h19.027v-1.028h-19.027v-1.028h19.027v-1.028h-18.85c1.336-4.579 3.77-8.782 7.109-12.212l3.269 1.888 0.131 0.070c0.008 0.098 0.021 0.195 0.043 0.292-0.589 0.369-0.959 1.015-0.959 1.734s0.37 1.364 0.959 1.733c-0.155 0.677 0.040 1.395 0.548 1.903s1.226 0.704 1.903 0.548c0.369 0.589 1.015 0.959 1.733 0.959s1.364-0.37 1.733-0.959c0.677 0.154 1.395-0.040 1.903-0.548 0.237-0.237 0.403-0.521 0.5-0.824l9.373 5.416h-2.196v1.028h3.6v1.028h-3.6v1.029h3.6v1.029h-3.6v1.029h3.6v1.029h-3.6v1.029h3.6v1.029h-3.6v1.029h3.6v1.029h-3.6v1.029h3.6v1.029h-3.6v1.029h4.628v-13.153l-11.695-6.757zM19.085 6.965c0.212 0.402 0.14 0.886-0.176 1.203s-0.801 0.389-1.203 0.177l-0.547-0.287-0.184 0.59c-0.135 0.435-0.527 0.726-0.976 0.726s-0.841-0.292-0.976-0.726l-0.183-0.59-0.547 0.287c-0.403 0.212-0.887 0.14-1.203-0.176-0.317-0.317-0.389-0.801-0.177-1.203l0.288-0.547-0.59-0.184c-0.435-0.135-0.727-0.527-0.727-0.976s0.292-0.841 0.726-0.976l0.59-0.183-0.287-0.548c-0.212-0.402-0.14-0.886 0.176-1.203s0.801-0.388 1.203-0.176l0.547 0.288 0.183-0.59c0.135-0.435 0.527-0.726 0.976-0.726 0.337 0 0.652 0.169 0.843 0.45 0.255 0.376 0.711 0.569 1.135 0.48 0.341-0.071 0.688 0.031 0.931 0.275s0.346 0.59 0.275 0.93c-0.089 0.425 0.104 0.881 0.48 1.135 0.282 0.191 0.45 0.507 0.45 0.843 0 0.448-0.292 0.841-0.726 0.976l-0.59 0.184 0.287 0.547z"></path>
<path fill="#000" d="M17.531 5.068l0.756-0.378-0.46-0.92-0.757 0.378c-0.039-0.038-0.080-0.073-0.122-0.106l0.267-0.803-0.976-0.326-0.267 0.802c-0.055 0.001-0.109 0.005-0.162 0.011l-0.378-0.756-0.92 0.46 0.379 0.757c-0.038 0.039-0.073 0.080-0.106 0.122l-0.803-0.267-0.326 0.976 0.802 0.267c0.001 0.055 0.005 0.109 0.011 0.162l-0.756 0.378 0.46 0.92 0.757-0.378c0.039 0.038 0.080 0.073 0.122 0.106l-0.267 0.803 0.976 0.326 0.267-0.802c0.055-0.001 0.109-0.005 0.163-0.011l0.378 0.756 0.92-0.46-0.378-0.757c0.038-0.039 0.073-0.080 0.106-0.122l0.803 0.267 0.326-0.976-0.802-0.267c-0.001-0.055-0.005-0.11-0.012-0.163zM16 5.773c-0.283 0-0.514-0.231-0.514-0.514s0.231-0.514 0.514-0.514c0.283 0 0.514 0.231 0.514 0.514s-0.231 0.514-0.514 0.514z"></path>
<path fill="#000" d="M23.199 15.544h1.029v1.028h-1.029v-1.028z"></path>
</svg>
