<!-- Generated by IcoMoon.io -->
<svg version="1.1" xmlns="http://www.w3.org/2000/svg" width="32" height="32" viewBox="0 0 32 32">
<title>crepe</title>
<path fill="#000" d="M14.45 25.807h2.064v1.032h-2.064z"></path>
<path fill="#000" d="M10.321 21.678h2.064v1.032h-2.064z"></path>
<path fill="#000" d="M14.45 21.678h2.064v1.032h-2.064z"></path>
<path fill="#000" d="M14.45 19.614h2.064v1.032h-2.064z"></path>
<path fill="#f0bc5e" d="M16.514 15.485h-9.289c-0.853 0-1.548 0.695-1.548 1.548s0.695 1.548 1.548 1.548h4.645v3.096c0 0.854 0.695 1.548 1.548 1.548s1.548-0.694 1.548-1.548v-2.58c0-0.285 0.231-0.516 0.516-0.516s0.516 0.231 0.516 0.516v6.709c0 0.854 0.695 1.548 1.548 1.548s1.548-0.694 1.548-1.548v-7.741c0-1.423-1.158-2.58-2.58-2.58z"></path>
<path fill="#000" d="M31.24 7.265c-0.46-1.46-1.912-2.338-3.373-2.044-1.443-0.29-2.887 0.569-3.37 2.042-0.375 0.429-0.618 0.954-0.712 1.514h-4.268l-1.548-7.741h-5.584v1.032h4.738l1.342 6.709h-5.564v3.899c-0.198 0.115-0.373 0.261-0.522 0.433-0.633-1.048-1.78-1.753-3.091-1.753h-1.548v1.548c0 1.992 1.621 3.612 3.612 3.612h1.548v-0.287c0.305 0.177 0.654 0.287 1.032 0.287 1.115 0 2.020-0.889 2.057-1.995 0.596 0.154 1.088 0.565 1.349 1.111 0.493 0.168 0.917 0.477 1.226 0.884h0.013c0-1.138 0.926-2.064 2.064-2.064s2.063 0.925 2.064 2.063l-0.219 5.927c-0.204-0.341-0.534-0.598-0.927-0.705 0.072-0.179 0.114-0.372 0.114-0.576 0-0.55-0.29-1.030-0.723-1.305 0.128-0.226 0.207-0.482 0.207-0.759 0-0.853-0.695-1.548-1.548-1.548h-0.568c0.034 0.167 0.052 0.34 0.052 0.516v0.516h0.516c0.285 0 0.516 0.232 0.516 0.516s-0.231 0.516-0.516 0.516h-0.516v1.032h1.032c0.285 0 0.516 0.232 0.516 0.516s-0.231 0.516-0.516 0.516h-1.032v1.032h2.064c0.285 0 0.516 0.232 0.516 0.516s-0.231 0.516-0.516 0.516h-2.064v1.032h3.096c0.285 0 0.516 0.232 0.516 0.516s-0.231 0.516-0.516 0.516h-3.096c0 0.398-0.155 0.758-0.402 1.032h5.047v1.032h-22.707v-1.032h12.385v-1.032h-10.837c-0.285 0-0.516-0.232-0.516-0.516s0.231-0.516 0.516-0.516h13.418v-1.032h-12.385c-0.285 0-0.516-0.232-0.516-0.516s0.231-0.516 0.516-0.516h5.677v-1.032h-4.645c-0.285 0-0.516-0.232-0.516-0.516s0.231-0.516 0.516-0.516h7.225v-1.032h-6.709c-0.285 0-0.516-0.232-0.516-0.516s0.231-0.516 0.516-0.516h2.064c-0.672 0-1.239-0.433-1.453-1.032h-0.611c-0.853 0-1.548 0.695-1.548 1.548 0 0.277 0.079 0.534 0.207 0.759-0.433 0.275-0.723 0.755-0.723 1.305 0 0.204 0.042 0.397 0.114 0.576-0.658 0.178-1.146 0.775-1.146 1.488 0 0.204 0.042 0.397 0.114 0.576-0.658 0.178-1.146 0.775-1.146 1.488 0 0.182 0.037 0.354 0.095 0.516h-0.095c-0.569 0-1.032 0.463-1.032 1.032v1.032c0 0.569 0.463 1.032 1.032 1.032h0.113l0.515 2.064h23.713c0.808 0 1.472-0.607 1.542-1.412l1.422-16.139c0.030 0.001 0.061 0.005 0.091 0.005 1.244 0 2.388-0.816 2.808-2.098 1.016-1.16 1.017-2.898 0.002-4.059zM30.686 10.324l-1.787-1.032 1.787-1.031c0.362 0.632 0.362 1.431 0 2.063zM30.167 7.37l-1.784 1.029v-2.199c0.751-0.019 1.45 0.433 1.784 1.17zM27.351 6.2v2.199l-1.786-1.031c0.322-0.727 1.027-1.185 1.786-1.168zM25.048 8.261l0.893 0.516h-1.098c0.046-0.18 0.111-0.355 0.204-0.516zM11.869 15.485h-0.516c-1.423 0-2.58-1.157-2.58-2.58v-0.516h0.516c1.423 0 2.58 1.158 2.58 2.58zM13.934 15.485c-0.569 0-1.032-0.463-1.032-1.032s0.463-1.032 1.032-1.032 1.032 0.463 1.032 1.032c0 0.569-0.463 1.032-1.032 1.032zM20.642 13.421c-1.076 0-2.025 0.553-2.58 1.388-0.514-0.774-1.366-1.298-2.343-1.373-0.356-0.622-1.019-1.047-1.786-1.047v-2.58h13.418v3.028h0.002v0.023l-0.082 0.935c-0.448-0.24-0.951-0.374-1.468-0.374-1.077 0-2.027 0.554-2.582 1.386-0.555-0.834-1.503-1.386-2.579-1.386zM2.209 28.903h20.353l-0.258 1.032h-19.837zM25.888 29.465c-0.024 0.268-0.245 0.47-0.514 0.47h-2.007l0.258-1.032h0.114c0.569 0 1.032-0.463 1.032-1.032v-1.032c0-0.569-0.463-1.032-1.032-1.032h-0.095c0.058-0.162 0.095-0.334 0.095-0.516 0-0.334-0.11-0.64-0.292-0.892l0.292-7.881c0-1.138 0.926-2.064 2.064-2.064 0.506 0 0.987 0.196 1.363 0.529zM28.383 12.386v-2.199l1.786 1.031c-0.321 0.728-1.027 1.186-1.786 1.168z"></path>
</svg>
