<!-- Generated by IcoMoon.io -->
<svg version="1.1" xmlns="http://www.w3.org/2000/svg" width="32" height="32" viewBox="0 0 32 32">
<title>croissant</title>
<path fill="#000" d="M24.821 0.691l-0.199-0.079c-1.013-0.406-2.081-0.611-3.173-0.611-2.753 0-5.352 1.338-6.953 3.578l-0.025 0.035h-1.358c-1.742 0-3.309 0.968-4.088 2.526-0.316 0.631-0.483 1.338-0.483 2.043v0.591h1.032v-0.591c0-0.546 0.129-1.093 0.374-1.582 0.264-0.529 0.65-0.963 1.109-1.291l2.281 2.281 0.73-0.73-2.041-2.041c0.345-0.11 0.709-0.174 1.085-0.174h1.41l5.37 5.37c-0.022 0.47-0.12 0.925-0.281 1.356l-1.188-1.188-0.73 0.73 1.42 1.42c-0.154 0.223-0.329 0.435-0.525 0.631l-0.089 0.088 0.729 0.731 0.089-0.089c1.021-1.021 1.588-2.374 1.607-3.815l0.294-1.322c0.419-1.886 1.749-3.417 3.558-4.095 0.787-0.295 1.314-1.056 1.314-1.895 0-0.832-0.499-1.57-1.271-1.878zM24.417 3.496c-0.435 0.163-0.838 0.377-1.222 0.619l-0.651-0.65-0.73 0.73 0.538 0.538c-1.063 0.928-1.823 2.178-2.14 3.602l-0.099 0.442-4.698-4.698c0.232-0.314 0.491-0.601 0.765-0.872l1.803 1.803 0.73-0.73-1.747-1.747c1.283-0.955 2.847-1.501 4.482-1.501 0.96 0 1.899 0.181 2.789 0.537l0.199 0.079c0.378 0.151 0.622 0.512 0.622 0.92 0 0.41-0.259 0.783-0.643 0.927z"></path>
<path fill="#000" d="M24.78 27.538c-1.81-0.678-3.14-2.21-3.559-4.096l-0.294-1.322c-0.019-1.442-0.586-2.794-1.607-3.816l-0.089-0.089-0.73 0.73 0.089 0.089c0.196 0.196 0.372 0.408 0.526 0.632l-2.679 2.679 0.73 0.73 2.446-2.446c0.161 0.431 0.259 0.886 0.281 1.356l-5.37 5.37h-1.41c-0.377 0-0.74-0.064-1.085-0.174l2.041-2.041-0.73-0.73-2.281 2.281c-0.459-0.329-0.845-0.763-1.109-1.291-0.245-0.489-0.374-1.036-0.374-1.582v-0.591h-1.032v0.591c0 0.705 0.167 1.412 0.483 2.044 0.778 1.558 2.345 2.526 4.087 2.526h1.358l0.025 0.035c1.601 2.241 4.2 3.578 6.953 3.578 1.091 0 2.159-0.205 3.173-0.611l0.198-0.079c0.773-0.309 1.272-1.046 1.272-1.879 0-0.839-0.527-1.6-1.313-1.894zM24.437 30.351l-0.198 0.079c-0.891 0.356-1.83 0.537-2.79 0.537-1.635 0-3.199-0.546-4.482-1.501l0.537-0.537-0.73-0.73-0.593 0.593c-0.275-0.27-0.533-0.558-0.765-0.872l4.698-4.698 0.098 0.442c0.316 1.425 1.077 2.674 2.14 3.602l-1.787 1.787 0.73 0.73 1.899-1.899c0.383 0.242 0.788 0.456 1.222 0.619 0.385 0.145 0.643 0.518 0.643 0.928 0 0.408-0.245 0.769-0.622 0.92z"></path>
<path fill="#f0bc5e" d="M10.515 23.742c-1.982 0-3.723-1.407-4.138-3.345-0.626-2.917-0.626-5.876 0-8.793 0.415-1.939 2.156-3.346 4.138-3.346 0.838 0 1.65 0.246 2.347 0.711l5.088 3.392c1.22 0.813 1.948 2.173 1.948 3.639s-0.728 2.826-1.947 3.639l-5.088 3.392c-0.698 0.465-1.51 0.711-2.348 0.711z"></path>
<path fill="#000" d="M21.952 2.872l-0.73 0.73-0.656-0.656 0.73-0.73 0.656 0.656z"></path>
<path fill="#000" d="M17.784 9.543l-0.73 0.73-0.617-0.618 0.73-0.73 0.617 0.618z"></path>
<path fill="#000" d="M12.055 13.465c-1.854-0.373-3.557-0.562-5.060-0.562v-1.032c1.571 0 3.342 0.196 5.263 0.582l-0.203 1.012z"></path>
<path fill="#000" d="M19.179 15.958c-0.014-0.006-1.458-0.621-3.566-1.291l0.312-0.984c2.16 0.686 3.6 1.301 3.66 1.327l-0.406 0.948z"></path>
<path fill="#000" d="M6.995 20.129v-1.032c1.010 0 2.117-0.086 3.29-0.255l0.147 1.022c-1.222 0.176-2.378 0.265-3.437 0.265z"></path>
<path fill="#000" d="M11.296 19.727l-0.175-1.017c0.314-0.054 0.626-0.113 0.934-0.174l0.204 1.012c-0.318 0.064-0.639 0.123-0.963 0.18z"></path>
<path fill="#000" d="M15.926 18.317l-0.312-0.984c2.108-0.67 3.551-1.285 3.566-1.291l0.406 0.949c-0.060 0.026-1.5 0.64-3.66 1.326z"></path>
<path fill="#000" d="M18.715 27.718l-0.62 0.62-0.73-0.73 0.62-0.62 0.73 0.73z"></path>
<path fill="#000" d="M6.479 15.484h2.065v1.032h-2.065v-1.032z"></path>
<path fill="#000" d="M10.608 15.484h3.613v1.032h-3.613v-1.032z"></path>
</svg>
