<!-- Generated by IcoMoon.io -->
<svg version="1.1" xmlns="http://www.w3.org/2000/svg" width="32" height="32" viewBox="0 0 32 32">
<title>crown</title>
<path d="M29.553 6.992c-1.352 0-2.447 1.096-2.447 2.447 0 0.662 0.265 1.26 0.692 1.701l-5.024 4.87-5.211-8.265c0.827-0.521 1.38-1.436 1.38-2.485 0-1.625-1.318-2.943-2.943-2.943s-2.943 1.318-2.943 2.943c0 1.047 0.551 1.961 1.375 2.483l-5.209 8.267-5.022-4.87c0.427-0.44 0.693-1.039 0.693-1.701 0-1.352-1.096-2.447-2.447-2.447s-2.447 1.096-2.447 2.447c0 1.351 1.096 2.447 2.447 2.447 0.149 0 0.293-0.018 0.434-0.044l2.32 11.272h21.597l2.32-11.272c0.141 0.026 0.285 0.044 0.434 0.044 1.351 0 2.447-1.096 2.447-2.447s-1.096-2.447-2.447-2.447z"></path>
<path d="M26.522 24.447h-21.046l-1.271 5.236h23.588z"></path>
</svg>
