<!-- Generated by IcoMoon.io -->
<svg version="1.1" xmlns="http://www.w3.org/2000/svg" width="32" height="32" viewBox="0 0 32 32">
<title>cucumber</title>
<path fill="#f0bc5e" d="M12.387 7.226c0 2.851-2.311 5.161-5.161 5.161s-5.161-2.311-5.161-5.161c0-2.851 2.311-5.161 5.161-5.161s5.161 2.311 5.161 5.161z"></path>
<path fill="#000" d="M14.452 7.226c0-3.985-3.241-7.226-7.226-7.226s-7.226 3.241-7.226 7.226 3.241 7.226 7.226 7.226 7.226-3.241 7.226-7.226zM1.032 7.226c0-3.415 2.778-6.194 6.194-6.194s6.194 2.778 6.194 6.194-2.778 6.194-6.194 6.194-6.194-2.778-6.194-6.194z"></path>
<path fill="#000" d="M6.71 4.645h1.032v1.032h-1.032v-1.032z"></path>
<path fill="#000" d="M4.645 6.71h1.032v1.032h-1.032v-1.032z"></path>
<path fill="#000" d="M6.71 8.774h1.032v1.032h-1.032v-1.032z"></path>
<path fill="#000" d="M8.774 6.71h1.032v1.032h-1.032v-1.032z"></path>
<path fill="#000" d="M27.064 1.032c-1.903 0-3.656 1.113-4.467 2.835-0.019 0.039-0.039 0.077-0.057 0.116l-0.631-0.315-0.462 0.923 0.635 0.317c-1.177 2.336-2.561 4.551-4.138 6.628l-0.546-0.546-0.73 0.73 0.64 0.64c-0.722 0.904-1.481 1.781-2.277 2.627l-0.138 0.146c-0.844 0.897-1.739 1.745-2.658 2.566l-0.515-0.515-0.73 0.73 0.475 0.475c-1.275 1.086-2.612 2.1-4.005 3.029l-1.559 1.039c-1.171 0.78-1.947 1.993-2.195 3.35h-1.126v1.032h1.032v0.023c0 2.834 2.305 5.139 5.138 5.139 1.127 0 2.239-0.378 3.132-1.065l0.437-0.336 0.734 0.734 0.73-0.73-0.639-0.639 1.079-0.829c2.090-1.607 4.095-3.368 5.96-5.233 0.499-0.499 0.986-1.007 1.466-1.522l0.695 0.695 0.73-0.73-0.731-0.731c1.942-2.152 3.729-4.434 5.345-6.836l0.929 0.619 0.572-0.859-0.937-0.625c1.004-1.549 1.948-3.14 2.811-4.78l0.369-0.7c0.372-0.707 0.568-1.502 0.568-2.3v-0.165c0-2.722-2.215-4.937-4.936-4.937zM30.968 6.134c0 0.631-0.155 1.26-0.449 1.818l-0.369 0.7c-2.82 5.356-6.419 10.241-10.697 14.519-1.834 1.833-3.805 3.564-5.859 5.144l-2.341 1.8c-0.713 0.549-1.603 0.852-2.503 0.852-2.264 0-4.105-1.842-4.105-4.106v-0.131c0-1.376 0.683-2.653 1.828-3.416l1.559-1.039c2.771-1.847 5.332-4.012 7.612-6.436l0.138-0.146c3.172-3.37 5.779-7.202 7.749-11.388 0.641-1.362 2.028-2.242 3.533-2.242 2.152 0 3.904 1.752 3.904 3.905v0.165z"></path>
<path fill="#000" d="M12.336 26.679l0.629 0.818c1.194-0.919 2.372-1.899 3.497-2.911l-0.691-0.767c-1.106 0.995-2.262 1.958-3.436 2.861z"></path>
<path fill="#000" d="M28.678 3.594l-0.582 0.853c0.506 0.345 0.807 0.914 0.807 1.522v0.165c0 0.298-0.073 0.594-0.212 0.857l-0.369 0.7c-0.174 0.33-0.359 0.653-0.539 0.979l-0.714-0.357-0.462 0.923 0.678 0.339c-2.549 4.437-5.668 8.512-9.292 12.137-0.299 0.299-0.602 0.596-0.909 0.889l0.714 0.746c0.312-0.299 0.621-0.601 0.925-0.905 4.205-4.205 7.742-9.007 10.513-14.27l0.369-0.699c0.217-0.411 0.331-0.874 0.331-1.338v-0.165c0-0.95-0.47-1.838-1.258-2.375z"></path>
<path fill="#000" d="M25.399 5.185l-0.935-0.439c-0.33 0.702-0.683 1.405-1.050 2.090l0.91 0.487c0.375-0.699 0.737-1.419 1.075-2.138z"></path>
<path fill="#000" d="M15.022 19.365l0.613 0.613 0.73-0.73-0.596-0.596c0.469-0.457 0.931-0.92 1.379-1.397l0.135-0.143c2.363-2.512 4.444-5.29 6.183-8.257l-0.89-0.522c-1.7 2.901-3.733 5.616-6.044 8.071l-0.135 0.143c-2.334 2.481-4.956 4.697-7.791 6.588l-1.559 1.039c-0.856 0.571-1.368 1.527-1.368 2.557v0.131h1.032v-0.131c0-0.684 0.34-1.319 0.909-1.698l0.207-0.138 0.537 0.708 0.822-0.625-0.499-0.657 0.491-0.328c2.069-1.38 4.025-2.933 5.845-4.629z"></path>
</svg>
