<!-- Generated by IcoMoon.io -->
<svg version="1.1" xmlns="http://www.w3.org/2000/svg" width="32" height="32" viewBox="0 0 32 32">
<title>cup-cake</title>
<path fill="#f0bc5e" d="M18.965 21.293c0.057 0.16 0.094 0.33 0.094 0.51l-0.69 2.622 0.18 0.437h10.197l0.939-3.569h-10.72z"></path>
<path fill="#f0bc5e" d="M2.315 27.921l0.939 3.569h13.256l0.939-3.569z"></path>
<path fill="#f0bc5e" d="M18.018 20.127c-0.035-0.117-0.897-2.896-3.817-4.453h-0.001c-0.135 0.172-0.313 0.311-0.526 0.394-0.744 0.289-2.008 0.636-3.792 0.636s-3.048-0.347-3.792-0.636c-0.214-0.083-0.391-0.222-0.526-0.394h-0c-2.921 1.557-3.782 4.335-3.817 4.452l0.030 0.224c0.146-0.046 0.298-0.078 0.459-0.078 0.845 0 1.53 0.685 1.53 1.53 0-0.845 0.685-1.53 1.53-1.53s1.53 0.685 1.53 1.53c0-0.845 0.685-1.53 1.53-1.53s1.53 0.685 1.53 1.53c0-0.845 0.685-1.53 1.53-1.53s1.53 0.685 1.53 1.53c0-0.845 0.685-1.53 1.53-1.53s1.53 0.685 1.53 1.53c0-0.845 0.685-1.53 1.53-1.53 0.172 0 0.335 0.035 0.49 0.088l-0.002-0.234z"></path>
<path fill="#000" d="M30.262 13.204c-0.142-4.79-2.573-9.203-6.576-11.872l-1.998-1.332-0.272 2.997c-0.168 1.849-1.5 3.352-3.316 3.741-2.398 0.514-4.139 2.668-4.139 5.12v1.35c-0.049 0.013-0.1 0.022-0.148 0.039-0.12-0.043-0.245-0.072-0.375-0.089-0.068-0.871-0.506-1.687-1.209-2.215-0.511-0.383-0.816-0.993-0.816-1.631v-1.685l-2.697 1.686c-1.364 0.852-2.221 2.265-2.37 3.843-0.876 0.102-1.561 0.841-1.561 1.744 0 0.734 0.44 1.379 1.122 1.644 0.787 0.305 2.116 0.67 3.977 0.67s3.19-0.365 3.977-0.67c0.682-0.265 1.122-0.911 1.122-1.644 0-0.238-0.048-0.463-0.134-0.67 0.376 0.15 0.644 0.516 0.644 0.946l0.247 1.573c0.517 0.459 0.929 0.942 1.251 1.396l-0.477-2.993c0.014-0.551 0.464-0.995 1.018-0.995 0.562 0 1.020 0.457 1.020 1.020l0.562 5.357c-0.374-0.464-0.94-0.768-1.582-0.768-0.608 0-1.156 0.268-1.53 0.692-0.374-0.424-0.921-0.692-1.53-0.692s-1.156 0.268-1.53 0.692c-0.374-0.424-0.921-0.692-1.53-0.692s-1.156 0.268-1.53 0.692c-0.374-0.424-0.921-0.692-1.53-0.692s-1.156 0.268-1.53 0.692c-0.374-0.424-0.921-0.692-1.53-0.692s-1.156 0.268-1.53 0.692c-0.374-0.424-0.921-0.692-1.53-0.692-1.125 0-2.039 0.915-2.039 2.039l2.666 10.197h14.042l1.744-6.628h10.492l2.649-10.067 0.017-0.13c0-0.952-0.659-1.748-1.543-1.971zM29.243 13.211c-0.394 0.105-0.744 0.319-1.006 0.616-0.268-0.303-0.626-0.522-1.030-0.625-0.052-3.141-0.664-6.206-1.822-9.129 2.36 2.439 3.751 5.68 3.859 9.137zM13.489 15.593c-0.706 0.274-1.904 0.602-3.607 0.602s-2.902-0.327-3.607-0.602c-0.287-0.111-0.472-0.383-0.472-0.693 0-0.41 0.334-0.744 0.744-0.744h1.805v-1.020h-0.988c0.15-1.215 0.832-2.297 1.89-2.958l1.141-0.713c0.046 0.901 0.495 1.75 1.22 2.294 0.442 0.331 0.716 0.835 0.786 1.377h-0.989v1.020h1.805c0.41 0 0.744 0.334 0.744 0.744 0 0.31-0.185 0.582-0.472 0.693zM16 13.828c-0.265-0.301-0.62-0.517-1.020-0.621v-1.349c0-1.975 1.402-3.709 3.333-4.123 2.070-0.444 3.632-2.056 4.035-4.096 0.429 1.888-0.518 3.89-2.313 4.719-1.832 0.846-3.016 2.696-3.016 4.714v0.135c-0.4 0.104-0.755 0.32-1.020 0.62zM18.039 13.207v-0.135c0-1.621 0.951-3.108 2.423-3.788 2.431-1.122 3.618-3.971 2.703-6.487l-0.282-0.775 0.237 0.158c0.184 0.122 0.36 0.252 0.537 0.382l0.619 1.474c1.219 2.927 1.856 6.012 1.911 9.174-0.395 0.105-0.746 0.319-1.009 0.617-0.374-0.424-0.922-0.691-1.53-0.691s-1.156 0.268-1.53 0.692c-0.253-0.287-0.589-0.493-0.966-0.603 0.131-0.549 0.509-1.014 1.043-1.243l0.756-0.325c0.832-0.356 1.447-1.096 1.646-1.979l-0.995-0.224c-0.127 0.564-0.521 1.038-1.053 1.265l-0.756 0.325c-0.901 0.386-1.524 1.202-1.677 2.149-0.416 0.099-0.784 0.323-1.058 0.634-0.266-0.3-0.62-0.516-1.020-0.62zM20.589 14.155c0.562 0 1.020 0.457 1.020 1.020v9.177h-1.071l-0.967-9.191c0.008-0.556 0.461-1.006 1.018-1.006zM22.628 15.175c0-0.562 0.457-1.020 1.020-1.020 0.557 0 1.011 0.45 1.018 1.006l-0.967 9.191h-1.071v-9.177zM14.47 20.783c0.554 0 1.004 0.445 1.017 0.995l-1.453 9.202h-1.548l0.961-9.124 0.001-0.053h0.003c0-0.562 0.457-1.020 1.020-1.020zM11.411 20.783c0.557 0 1.011 0.45 1.018 1.006l-0.967 9.191h-1.071v-9.177c0-0.562 0.457-1.020 1.020-1.020zM8.352 20.783c0.562 0 1.020 0.457 1.020 1.020v9.177h-1.071l-0.967-9.191c0.008-0.556 0.461-1.006 1.018-1.006zM1.216 21.744c0.031-0.535 0.476-0.961 1.018-0.961 0.562 0 1.020 0.457 1.020 1.020l0.409 2.629 1.007-0.159-0.394-2.494c0.013-0.551 0.463-0.996 1.017-0.996 0.562 0 1.020 0.457 1.020 1.020l0.964 9.177h-1.548l-0.898-5.688-1.007 0.159 0.873 5.529h-1.050l-2.43-9.236zM16.117 30.98h-1.050l1.436-9.098 0.002-0.080h0.006c0-0.562 0.457-1.020 1.020-1.020 0.542 0 0.988 0.426 1.018 0.961l-2.431 9.236zM19.343 22.729l0.17 1.623h-0.598l0.427-1.623zM28.353 24.352h-1.050l0.148-0.94-1.007-0.159-0.173 1.099h-1.548l0.961-9.124 0-0.053h0.003c0-0.562 0.457-1.020 1.020-1.020 0.554 0 1.004 0.445 1.017 0.995l-1.118 7.083 1.007 0.159 1.127-7.138 0-0.080h0.006c0-0.562 0.457-1.020 1.020-1.020 0.542 0 0.988 0.425 1.018 0.96l-2.431 9.237z"></path>
<path fill="#000" d="M9.372 17.724h1.020v1.020h-1.020v-1.020z"></path>
<path fill="#000" d="M12.431 17.724h1.020v1.020h-1.020v-1.020z"></path>
<path fill="#000" d="M6.313 17.724h1.020v1.020h-1.020v-1.020z"></path>
<path fill="#000" d="M23.648 7.527h1.020v1.020h-1.020v-1.020z"></path>
</svg>
