<!-- Generated by IcoMoon.io -->
<svg version="1.1" xmlns="http://www.w3.org/2000/svg" width="32" height="32" viewBox="0 0 32 32">
<title>cupcake-1</title>
<path fill="#f0bc5e" d="M26.323 31.484c0.649 0 1.258-0.31 1.639-0.835l2.702-3.716c0.533-0.732 0.82-1.614 0.82-2.52 0-0.649-0.149-1.262-0.407-1.813l-0.109 0.109-1.55 1.548-1.55-1.548-1.548 1.548-1.548-1.548-1.547 1.548-1.546-1.548-0.119-0.089c-0.252 0.546-0.397 1.152-0.397 1.793 0 0.905 0.287 1.788 0.82 2.52l2.702 3.716c0.381 0.524 0.99 0.835 1.639 0.835z"></path>
<path fill="#000" d="M15.484 7.278v-0.745c0-2.021-0.787-3.921-2.216-5.349l-0.819-0.819c-0.232-0.232-0.553-0.365-0.881-0.365-0.687 0-1.246 0.559-1.246 1.246v0.162c0 1.105-0.695 2.108-1.73 2.496-0.664 0.249-1.238 0.698-1.66 1.267l-2.8-2.8-0.365 0.359c-0.765 0.752-1.187 1.799-1.187 2.949 0 1.362 0.665 2.568 1.685 3.32l-0.055 0.164c-0.054 0.21-0.081 0.427-0.081 0.645 0 1.423 1.158 2.581 2.581 2.581h0.516v-1.032h-0.516c-0.854 0-1.548-0.695-1.548-1.548 0-0.108 0.012-0.21 0.028-0.294 0.471 0.187 0.983 0.294 1.521 0.294 0.376 0 0.745-0.053 1.1-0.145 0.156 0.771 0.586 1.515 1.187 2.037l0.677-0.779c-0.476-0.414-0.809-1.044-0.88-1.652 0.316-0.177 0.609-0.391 0.862-0.645l0.364-0.365-0.749-0.749c0.072-0.098 0.146-0.195 0.231-0.28l1.181-1.181c0.773-0.773 1.138-1.838 1.002-2.922l-0.253-2.022c0.081-0.068 0.207-0.089 0.287-0.008l0.694 0.694 0.328 2.613c0.095 0.476 0.065 0.97-0.089 1.43l-0.585 1.754c-0.13 0.391-0.196 0.798-0.196 1.209 0 1.458 0.81 2.767 2.097 3.411l0.082 0.045 0.446-0.817v0.953h0.472c1.423 0 2.581-1.158 2.581-2.581 0-1.246-0.888-2.289-2.065-2.529zM3.613 5.677c0-0.682 0.191-1.311 0.547-1.82l4.367 4.367c-0.514 0.353-1.153 0.549-1.817 0.549-1.708 0-3.097-1.389-3.097-3.097zM9.953 5.318l-1.181 1.181c-0.085 0.085-0.155 0.186-0.231 0.28l-0.874-0.874c0.312-0.475 0.754-0.834 1.289-1.034 0.71-0.266 1.304-0.743 1.723-1.341 0.007 0.664-0.254 1.316-0.726 1.788zM14.968 11.355h-0.429l0.006-0.011-0.099-0.054c-0.951-0.475-1.543-1.431-1.543-2.495 0-0.3 0.049-0.597 0.143-0.883l0.585-1.754c0.21-0.63 0.252-1.307 0.128-1.922l-0.104-0.829c0.519 0.948 0.796 2.015 0.796 3.126v1.725h0.516c0.854 0 1.548 0.695 1.548 1.548s-0.695 1.548-1.548 1.548z"></path>
<path fill="#f0bc5e" d="M2.581 17.032c1.14 0 2.065 0.924 2.065 2.065 0-1.14 0.924-2.065 2.065-2.065s2.065 0.924 2.065 2.065c0-1.14 0.924-2.065 2.065-2.065s2.065 0.924 2.065 2.065c0-1.14 0.924-2.065 2.065-2.065s2.065 0.924 2.065 2.065c0-1.14 0.924-2.065 2.065-2.065 0.377 0 0.726 0.109 1.031 0.285v-0.401c-0.011-0.063-0.302-1.574-1.609-3.080-1.189-1.369-3.479-2.998-7.649-2.998-0.013 0-0.027 0-0.040 0-4.194 0.011-6.488 1.657-7.673 3.036-1.299 1.512-1.581 3.024-1.593 3.087l-0.001 0.348c0.301-0.172 0.646-0.279 1.018-0.279z"></path>
<path fill="#000" d="M27.199 19.613h-0.522c-0.293-1.619-0.982-3.158-2.017-4.452l-0.806 0.645c0.888 1.11 1.488 2.423 1.768 3.806h-0.177c-2.111 0-3.905 1.372-4.546 3.27l0.766-3.681 0.011-0.106c0-1.423-1.158-2.581-2.581-2.581-0.843 0-1.593 0.407-2.065 1.034-0.471-0.627-1.221-1.034-2.065-1.034s-1.593 0.407-2.065 1.034c-0.471-0.627-1.221-1.034-2.065-1.034s-1.593 0.407-2.065 1.034c-0.471-0.627-1.221-1.034-2.065-1.034s-1.593 0.407-2.065 1.034c-0.471-0.627-1.221-1.034-2.065-1.034-1.423 0-2.581 1.158-2.581 2.581l2.677 12.903h16.324l1.666-7.995c-0.012 0.135-0.021 0.27-0.021 0.408 0 1.021 0.317 1.998 0.918 2.823l2.702 3.717c0.477 0.655 1.246 1.047 2.057 1.047s1.58-0.392 2.057-1.047l2.702-3.716c0.601-0.826 0.919-1.802 0.919-2.824 0-2.647-2.153-4.801-4.801-4.801zM14.968 17.548c0.849 0 1.539 0.687 1.547 1.534l-0.979 9.304h-2.116v-9.29c0-0.854 0.695-1.548 1.548-1.548zM10.839 17.548c0.854 0 1.548 0.695 1.548 1.548v9.29h-3.097v-9.29c0-0.854 0.695-1.548 1.548-1.548zM2.581 17.548c0.854 0 1.548 0.695 1.548 1.548l0.763 7.279 1.026-0.108-0.756-7.186c0.008-0.847 0.698-1.534 1.547-1.534 0.854 0 1.548 0.695 1.548 1.548v9.29h-2.116l-0.114-1.086-1.026 0.108 0.103 0.978h-2.125l-1.946-9.34c0.026-0.831 0.71-1.499 1.547-1.499zM3.516 30.968l-0.323-1.548h15.289l-0.323 1.548h-14.644zM18.698 28.387h-2.125l0.972-9.237 0.001-0.054h0.003c0-0.854 0.695-1.548 1.548-1.548 0.837 0 1.522 0.668 1.547 1.499l-1.946 9.34zM30.854 25.29h-0.918v1.032h0.5c-0.061 0.103-0.117 0.209-0.189 0.307l-0.827 1.138v-0.413h-1.032v1.032h0.582l-1.424 1.958c-0.178 0.245-0.428 0.418-0.706 0.52v-0.93h-1.032v0.93c-0.278-0.102-0.528-0.275-0.706-0.52l-1.424-1.959h0.582v-1.032h-1.032v0.412l-0.828-1.139c-0.071-0.098-0.127-0.203-0.188-0.306h0.5v-1.032h-0.918c-0.068-0.285-0.114-0.577-0.114-0.877 0-2.078 1.69-3.768 3.768-3.768h0.33c0.020 0.241 0.031 0.482 0.031 0.724v0.308h1.032v-0.308c0-0.242-0.013-0.484-0.031-0.724h0.392c2.078 0 3.768 1.69 3.768 3.768 0 0.3-0.046 0.591-0.114 0.877z"></path>
<path fill="#000" d="M24.258 25.29h1.032v1.032h-1.032v-1.032z"></path>
<path fill="#000" d="M27.355 25.29h1.032v1.032h-1.032v-1.032z"></path>
<path fill="#000" d="M25.806 27.355h1.032v1.032h-1.032v-1.032z"></path>
</svg>
