<!-- Generated by IcoMoon.io -->
<svg version="1.1" xmlns="http://www.w3.org/2000/svg" width="32" height="32" viewBox="0 0 32 32">
<title>cupcake</title>
<path fill="#f0bc5e" d="M6.489 19.531c0.349-0.268 0.779-0.434 1.253-0.434 1.14 0 2.065 0.924 2.065 2.065 0-1.14 0.924-2.065 2.065-2.065s2.065 0.924 2.065 2.065c0-1.14 0.924-2.065 2.065-2.065s2.065 0.924 2.065 2.065c0-1.14 0.924-2.065 2.065-2.065s2.065 0.924 2.065 2.065c0-1.14 0.924-2.065 2.065-2.065 0.474 0 0.905 0.166 1.253 0.434l0.089-0.262c0.137-0.385 0.206-0.79 0.206-1.204 0-1.992-1.621-3.613-3.613-3.613h-12.387c-1.992 0-3.613 1.621-3.613 3.613 0 0.414 0.070 0.819 0.206 1.205z"></path>
<path fill="#000" d="M11.355 20.645h1.032v1.032h-1.032z"></path>
<path fill="#000" d="M7.226 20.645h1.032v1.032h-1.032z"></path>
<path fill="#000" d="M15.484 20.645h1.032v1.032h-1.032z"></path>
<path fill="#000" d="M19.613 20.645h1.032v1.032h-1.032z"></path>
<path fill="#000" d="M23.742 20.645h1.032v1.032h-1.032z"></path>
<path fill="#000" d="M24.258 18.581c-0.85 0-1.599 0.418-2.069 1.043-0.471-0.629-1.215-1.043-2.060-1.043-0.849 0-1.596 0.417-2.067 1.046-0.471-0.631-1.216-1.046-2.063-1.046s-1.591 0.415-2.062 1.051c-0.471-0.634-1.219-1.051-2.067-1.051-0.845 0-1.589 0.414-2.060 1.054-0.47-0.636-1.219-1.054-2.069-1.054-1.423 0-2.581 1.158-2.581 2.581l1.905 10.839h17.868l1.897-10.749 0.008-0.090c0-1.423-1.158-2.581-2.581-2.581zM20.129 19.613c0.854 0 1.548 0.695 1.551 1.497l-0.986 9.858h-2.604l0.49-9.806c0-0.854 0.695-1.548 1.548-1.548zM16 19.613c0.853 0 1.546 0.693 1.548 1.545l-0.49 9.81h-2.115l-0.491-9.806c0-0.854 0.695-1.548 1.548-1.548zM11.871 19.613c0.854 0 1.548 0.695 1.548 1.548h0.003c0 0.009-0.003 0.017-0.003 0.026l0.489 9.781h-2.604l-0.983-9.806c0-0.854 0.695-1.548 1.548-1.548zM6.194 21.119c0.022-0.835 0.708-1.507 1.548-1.507 0.854 0 1.548 0.695 1.551 1.6l0.976 9.755h-2.336zM24.068 30.968h-2.336l0.978-9.806c0-0.854 0.695-1.548 1.548-1.548 0.84 0 1.526 0.672 1.548 1.507z"></path>
<path fill="#000" d="M21.677 16.516h1.032v1.032h-1.032z"></path>
<path fill="#000" d="M17.548 17.548h1.032v1.032h-1.032z"></path>
<path fill="#000" d="M13.419 16.516h1.032v1.032h-1.032z"></path>
<path fill="#000" d="M9.29 17.548h1.032v1.032h-1.032z"></path>
<path fill="#000" d="M10.839 15.484v-0.516l0.024-0.028c0.603 0.344 1.298 0.544 2.040 0.544 0.602 0 1.192-0.138 1.733-0.389 0.307 0.24 0.688 0.389 1.106 0.389h6.968c1.423 0 2.581-1.158 2.581-2.581 0-1.057-0.64-1.965-1.551-2.364l1.596-1.596c0.304-0.304 0.472-0.709 0.472-1.139 0-0.888-0.723-1.611-1.611-1.611-0.355 0-0.692 0.114-0.97 0.324-0.278-0.21-0.615-0.324-0.97-0.324-0.43 0-0.82 0.172-1.109 0.448l-2.566-1.283v1.537c0 0.877-0.589 1.658-1.432 1.899-0.275 0.078-0.527 0.201-0.761 0.348-0.202-0.319-0.445-0.605-0.72-0.853l0.894-0.894c0.304-0.305 0.472-0.709 0.472-1.14 0-0.888-0.723-1.611-1.611-1.611-0.355 0-0.692 0.114-0.97 0.324-0.278-0.21-0.615-0.324-0.97-0.324-0.888 0-1.611 0.723-1.611 1.611 0 0.381 0.138 0.737 0.379 1.026-0.519 0.083-1.004 0.262-1.44 0.519-1.657-2.249-2.553-4.956-2.553-7.802h-1.032c0 3.076 0.97 6.002 2.765 8.431-0.416 0.414-0.74 0.918-0.95 1.477-1.213-1.054-2.771-1.65-4.396-1.65h-1.548v0.516c0 3.7 3.010 6.71 6.71 6.71zM22.256 7.226c0.155 0 0.3 0.060 0.409 0.169l0.56 0.56 0.56-0.56c0.109-0.109 0.255-0.169 0.409-0.169 0.319 0 0.579 0.26 0.579 0.579 0 0.155-0.060 0.3-0.169 0.409l-1.379 1.379-1.379-1.379c-0.109-0.109-0.169-0.255-0.169-0.409 0-0.319 0.26-0.579 0.579-0.579zM17.432 9.786c1.241-0.355 2.121-1.478 2.178-2.759l1.060 0.53c-0.012 0.081-0.025 0.163-0.025 0.247 0 0.43 0.168 0.835 0.472 1.139l1.379 1.379h-2.367v1.032h2.581c0.854 0 1.548 0.695 1.548 1.548s-0.695 1.548-1.548 1.548h-6.968c-0.427 0-0.774-0.347-0.774-0.774s0.347-0.774 0.774-0.774h3.355v-1.032h-3.097v-0.186c0-0.877 0.589-1.658 1.432-1.899zM13.482 5.677c0.155 0 0.3 0.060 0.409 0.169l0.56 0.56 0.56-0.56c0.109-0.109 0.255-0.169 0.409-0.169 0.319 0 0.579 0.26 0.579 0.579 0 0.155-0.060 0.3-0.169 0.409l-1.031 1.031c-0.336-0.174-0.697-0.301-1.074-0.378l-0.653-0.653c-0.109-0.109-0.169-0.254-0.169-0.409 0-0.319 0.26-0.579 0.579-0.579zM10.644 9.244c0.239 0.278 0.486 0.551 0.748 0.813l0.631 0.631 0.73-0.73-0.631-0.631c-0.23-0.23-0.447-0.469-0.657-0.712 0.43-0.227 0.92-0.357 1.439-0.357 1.13 0 2.155 0.618 2.698 1.59-0.398 0.515-0.634 1.156-0.634 1.837v0.367c-0.608 0.291-1.032 0.907-1.032 1.625 0 0.196 0.039 0.38 0.097 0.557-0.358 0.14-0.74 0.217-1.129 0.217-1.708 0-3.097-1.389-3.097-3.097 0-0.816 0.32-1.557 0.837-2.111zM4.152 9.29h0.493c1.573 0 3.070 0.659 4.142 1.804-0.006 0.087-0.013 0.173-0.013 0.261 0 0.458 0.078 0.898 0.217 1.31l-1.941-1.699-0.68 0.777 3.076 2.691c-2.791-0.177-5.043-2.373-5.293-5.144z"></path>
<path fill="#000" d="M29.935 16h1.032v1.032h-1.032z"></path>
<path fill="#000" d="M28.903 17.032h1.032v1.032h-1.032z"></path>
<path fill="#000" d="M29.935 18.065h1.032v1.032h-1.032z"></path>
<path fill="#000" d="M30.968 17.032h1.032v1.032h-1.032z"></path>
<path fill="#000" d="M4.645 3.613h1.032v1.032h-1.032z"></path>
<path fill="#000" d="M3.613 4.645h1.032v1.032h-1.032z"></path>
<path fill="#000" d="M4.645 5.677h1.032v1.032h-1.032z"></path>
<path fill="#000" d="M5.677 4.645h1.032v1.032h-1.032z"></path>
<path fill="#000" d="M1.032 18.065h1.032v1.032h-1.032z"></path>
<path fill="#000" d="M0 19.097h1.032v1.032h-1.032z"></path>
<path fill="#000" d="M1.032 20.129h1.032v1.032h-1.032z"></path>
<path fill="#000" d="M2.065 19.097h1.032v1.032h-1.032z"></path>
</svg>
