<!-- Generated by IcoMoon.io -->
<svg version="1.1" xmlns="http://www.w3.org/2000/svg" width="32" height="32" viewBox="0 0 32 32">
<title>cutlery-3</title>
<path fill="#f0bc5e" d="M21.098 24.308c-0.293-0.366-0.453-0.821-0.453-1.29v-4.953c0-1.14 0.924-2.065 2.065-2.065v-5.677h0.005c0.024-0.492 0.365-0.938 0.854-1.018 0.647-0.105 1.206 0.391 1.206 1.018h0.516v-6.194h-22.71v23.742h20.129v-0.824c0-0.468-0.16-0.923-0.453-1.29z"></path>
<path fill="#000" d="M30.192 14.989c-0.264-0.043-0.528-0.018-0.773 0.068v-0.55c0-0.783-0.555-1.463-1.292-1.582-0.264-0.043-0.528-0.015-0.773 0.071v-10.931c0-1.139-0.926-2.065-2.065-2.065h-22.71c-1.139 0-2.065 0.926-2.065 2.065v27.871c0 1.139 0.926 2.065 2.065 2.065h27.871v-3.097h-1.032v-1.857c0-0.35 0.12-0.694 0.339-0.968l1.16-1.45c0.365-0.455 0.566-1.028 0.566-1.611v-6.447c0-0.783-0.555-1.463-1.292-1.582zM21.161 30.968h-18.581c-0.569 0-1.032-0.463-1.032-1.032v-27.871c0-0.569 0.463-1.032 1.032-1.032h22.71c0.569 0 1.032 0.463 1.032 1.032v9.898c-0.084-0.030-0.17-0.056-0.26-0.071-0.264-0.043-0.528-0.018-0.773 0.068v-1.637c0-0.455-0.199-0.885-0.546-1.18s-0.805-0.422-1.259-0.348c-0.737 0.12-1.292 0.8-1.292 1.583v5.158c-1.176 0.24-2.065 1.282-2.065 2.528v4.953c0 0.584 0.201 1.156 0.566 1.612l1.16 1.45c0.219 0.273 0.339 0.617 0.339 0.967v1.857h-1.032zM29.419 30.968h-7.226v-1.032h7.226zM30.452 23.018c0 0.35-0.12 0.694-0.339 0.968l-1.16 1.45c-0.365 0.455-0.566 1.028-0.566 1.611v1.857h-5.161v-1.857c0-0.584-0.201-1.156-0.566-1.612l-1.16-1.45c-0.219-0.273-0.339-0.617-0.339-0.967v-4.953c0-0.672 0.433-1.24 1.032-1.453v4.034h1.032v-10.267c0-0.277 0.187-0.525 0.426-0.564 0.157-0.025 0.307 0.015 0.425 0.115 0.116 0.098 0.182 0.242 0.182 0.393v10.323h1.032v-7.226c0-0.152 0.066-0.295 0.182-0.393 0.118-0.1 0.267-0.141 0.425-0.115 0.239 0.039 0.425 0.287 0.425 0.564v7.171h1.032v-6.194c0-0.152 0.066-0.295 0.182-0.393 0.117-0.1 0.267-0.14 0.425-0.115 0.239 0.039 0.425 0.287 0.425 0.564v6.138h1.032v-4.129c0-0.152 0.066-0.295 0.182-0.393 0.117-0.1 0.267-0.14 0.425-0.115 0.239 0.039 0.425 0.287 0.425 0.564z"></path>
<path fill="#000" d="M17.745 6.71c-0.208 0-0.417 0.050-0.604 0.142-1.34 0.671-2.173 2.019-2.173 3.517v3.7c0 0.98 0.356 1.905 1.032 2.653v7.537c0 0.854 0.695 1.548 1.548 1.548s1.548-0.695 1.548-1.548v-16.197c0-0.745-0.606-1.351-1.351-1.351zM18.065 24.258c0 0.284-0.232 0.516-0.516 0.516s-0.516-0.232-0.516-0.516v-7.742l-0.032-0.246-0.151-0.151c-0.548-0.548-0.849-1.276-0.849-2.050v-3.7c0-1.105 0.614-2.099 1.603-2.594 0.044-0.022 0.094-0.034 0.143-0.034 0.176 0 0.319 0.143 0.319 0.319z"></path>
<path fill="#000" d="M10.323 7.226h1.032v4.645h-1.032z"></path>
<path fill="#000" d="M9.29 24.258c0 0.854 0.695 1.548 1.548 1.548s1.548-0.695 1.548-1.548v-9.254c0-0.551 0.215-1.070 0.604-1.46l0.037-0.037c0.585-0.585 0.907-1.362 0.907-2.189v-4.093h-1.032v4.093c0 0.551-0.215 1.070-0.604 1.46l-0.037 0.037c-0.585 0.585-0.907 1.362-0.907 2.189v9.254c0 0.284-0.232 0.516-0.516 0.516s-0.516-0.232-0.516-0.516v-9.254c0-0.827-0.322-1.605-0.907-2.19l-0.037-0.037c-0.39-0.39-0.605-0.908-0.605-1.459v-4.093h-1.032v4.093c0 0.827 0.322 1.605 0.907 2.19l0.037 0.037c0.39 0.39 0.605 0.908 0.605 1.459z"></path>
<path fill="#000" d="M9.29 28.903h6.194v1.032h-6.194z"></path>
<path fill="#000" d="M4.645 20.645h3.613v1.032h-3.613z"></path>
<path fill="#000" d="M4.645 22.71h3.613v1.032h-3.613z"></path>
<path fill="#000" d="M4.645 24.774h3.613v1.032h-3.613z"></path>
</svg>
