<!-- Generated by IcoMoon.io -->
<svg version="1.1" xmlns="http://www.w3.org/2000/svg" width="32" height="32" viewBox="0 0 32 32">
<title>cutlery-2</title>
<path fill="#ffa64d" d="M14.452 29.935c0 0.855 0.693 1.548 1.548 1.548s1.548-0.693 1.548-1.548v-12.903h-3.097v12.903z"></path>
<path fill="#ffa64d" d="M24.774 16v13.935c0 0.855 0.693 1.548 1.548 1.548s1.548-0.693 1.548-1.548v-13.935h-3.097z"></path>
<path fill="#ffa64d" d="M4.129 29.935c0 0.855 0.693 1.548 1.548 1.548s1.548-0.693 1.548-1.548v-12.903h-3.097v12.903z"></path>
<path fill="#333" d="M18.065 1.545c0-0.852-0.693-1.545-1.545-1.545-0.509 0-0.987 0.251-1.276 0.673-0.703 1.028-2.34 3.824-2.34 7.585 0 3.193 0.478 5.201 0.8 6.194h-0.8v1.548c0 0.672 0.433 1.24 1.032 1.453v12.482c0 1.139 0.926 2.065 2.065 2.065s2.065-0.926 2.065-2.065v-12.482c0.599-0.214 1.032-0.781 1.032-1.453v-1.548h-1.032v-12.907zM13.935 8.258c0-3.473 1.511-6.054 2.159-7.001 0.097-0.14 0.255-0.225 0.425-0.225 0.283 0 0.513 0.23 0.513 0.513v12.907h-2.235c-0.259-0.695-0.862-2.69-0.862-6.194zM17.032 29.935c0 0.569-0.463 1.032-1.032 1.032s-1.032-0.463-1.032-1.032v-12.387h2.065v12.387zM18.065 16c0 0.285-0.231 0.516-0.516 0.516h-3.097c-0.285 0-0.516-0.231-0.516-0.516v-0.516h4.129v0.516z"></path>
<path fill="#333" d="M7.799 0.359l-0.457 9.421c-0.049 0.883-0.78 1.574-1.664 1.574s-1.615-0.692-1.663-1.571l-0.458-9.425-0.824 0.824c-1.762 1.762-2.732 4.104-2.732 6.595v0.958c0 2.416 0.919 4.686 2.581 6.428v0.835c0 0.672 0.433 1.24 1.032 1.453v12.482c0 1.139 0.926 2.065 2.065 2.065s2.065-0.926 2.065-2.065v-12.482c0.599-0.214 1.032-0.781 1.032-1.453v-0.834c1.661-1.742 2.581-4.013 2.581-6.428v-0.958c0-2.491-0.97-4.834-2.732-6.595l-0.824-0.825zM6.71 29.935c0 0.569-0.463 1.032-1.032 1.032s-1.032-0.463-1.032-1.032v-12.387h2.065v12.387zM7.742 16c0 0.285-0.231 0.516-0.516 0.516h-3.097c-0.285 0-0.516-0.231-0.516-0.516v-0.516h4.129v0.516zM10.323 7.779v0.958c0 2.147-0.817 4.166-2.292 5.714h-4.706c-1.476-1.548-2.292-3.566-2.292-5.714v-0.958c0-1.794 0.566-3.5 1.612-4.916l0.339 6.975c0.079 1.43 1.262 2.549 2.694 2.549s2.615-1.119 2.695-2.552l0.339-6.972c1.046 1.416 1.612 3.123 1.612 4.916z"></path>
<path fill="#333" d="M30.452 0c-0.854 0-1.548 0.695-1.548 1.548v6.71c0 0.285-0.231 0.516-0.516 0.516s-0.516-0.231-0.516-0.516v-6.71c0-0.854-0.695-1.548-1.548-1.548s-1.548 0.695-1.548 1.548v6.71c0 0.285-0.231 0.516-0.516 0.516s-0.516-0.231-0.516-0.516v-6.71c0-0.854-0.695-1.548-1.548-1.548s-1.548 0.695-1.548 1.548v7.829c0 1.934 0.986 3.75 2.581 4.827v0.763c0 0.672 0.433 1.24 1.032 1.453v13.514c0 1.139 0.926 2.065 2.065 2.065s2.065-0.926 2.065-2.065v-13.514c0.599-0.214 1.032-0.781 1.032-1.453v-0.763c1.594-1.076 2.581-2.893 2.581-4.827v-7.829c0-0.854-0.695-1.548-1.548-1.548zM27.355 29.935c0 0.569-0.463 1.032-1.032 1.032s-1.032-0.463-1.032-1.032v-13.419h2.065v13.419zM28.387 14.968c0 0.285-0.231 0.516-0.516 0.516h-3.097c-0.285 0-0.516-0.231-0.516-0.516v-0.516h4.129v0.516zM30.968 9.378c0 1.633-0.852 3.166-2.224 4.042h-4.842c-1.372-0.876-2.224-2.409-2.224-4.042v-7.829c0-0.285 0.231-0.516 0.516-0.516s0.516 0.231 0.516 0.516v6.71c0 0.854 0.695 1.548 1.548 1.548s1.548-0.695 1.548-1.548v-6.71c0-0.285 0.231-0.516 0.516-0.516s0.516 0.231 0.516 0.516v6.71c0 0.854 0.695 1.548 1.548 1.548s1.548-0.695 1.548-1.548v-6.71c0-0.285 0.231-0.516 0.516-0.516s0.516 0.231 0.516 0.516v7.829z"></path>
</svg>
