<!-- Generated by IcoMoon.io -->
<svg version="1.1" xmlns="http://www.w3.org/2000/svg" width="32" height="32" viewBox="0 0 32 32">
<title>cutlery-1</title>
<path fill="#ffa64d" d="M6.71 31.484v0c-0.855 0-1.548-0.693-1.548-1.548v-7.742h3.097v7.742c0 0.855-0.693 1.548-1.548 1.548z"></path>
<path fill="#ffa64d" d="M14.968 31.484v0c-0.855 0-1.548-0.693-1.548-1.548v-7.742h3.097v7.742c0 0.855-0.693 1.548-1.548 1.548z"></path>
<path fill="#ffa64d" d="M27.355 17.548h-6.194c-0.854 0-1.548-0.695-1.548-1.548v-14.452c0-0.854 0.695-1.548 1.548-1.548h6.194c0.854 0 1.548 0.695 1.548 1.548v14.452c0 0.854-0.695 1.548-1.548 1.548z"></path>
<path fill="#333" d="M25.806 19.613v-2.065h-1.032v2.065h-1.032v-2.065h-1.032v2.065c-0.854 0-1.548 0.695-1.548 1.548v9.29c0 0.854 0.695 1.548 1.548 1.548h3.097c0.854 0 1.548-0.695 1.548-1.548v-9.29c0-0.854-0.695-1.548-1.548-1.548zM26.323 30.452c0 0.285-0.231 0.516-0.516 0.516h-3.097c-0.285 0-0.516-0.231-0.516-0.516v-9.29c0-0.285 0.231-0.516 0.516-0.516h3.097c0.285 0 0.516 0.231 0.516 0.516v9.29z"></path>
<path fill="#333" d="M17.032 19.613h-1.548v-9.337c1.462-0.247 2.581-1.518 2.581-3.050v-7.226h-1.032v7.226c0 1.139-0.926 2.065-2.065 2.065s-2.065-0.926-2.065-2.065v-7.226h-1.032v7.226c0 1.531 1.118 2.803 2.581 3.050v9.337h-1.548c-0.854 0-1.548 0.695-1.548 1.548s0.695 1.548 1.548 1.548v7.226c0 1.139 0.926 2.065 2.065 2.065s2.065-0.926 2.065-2.065v-7.226c0.854 0 1.548-0.695 1.548-1.548s-0.695-1.548-1.548-1.548zM14.968 30.968c-0.569 0-1.032-0.463-1.032-1.032v-5.161h2.065v5.161c0 0.569-0.463 1.032-1.032 1.032zM16 23.742h-2.065v-1.032h2.065v1.032zM17.032 21.677h-4.129c-0.285 0-0.516-0.231-0.516-0.516s0.231-0.516 0.516-0.516h4.129c0.285 0 0.516 0.231 0.516 0.516s-0.231 0.516-0.516 0.516z"></path>
<path fill="#333" d="M8.774 19.613h-1.548v-19.613h-1.032v19.613h-1.548c-0.854 0-1.548 0.695-1.548 1.548s0.695 1.548 1.548 1.548v7.226c0 1.139 0.926 2.065 2.065 2.065s2.065-0.926 2.065-2.065v-7.226c0.854 0 1.548-0.695 1.548-1.548s-0.695-1.548-1.548-1.548zM6.71 30.968c-0.569 0-1.032-0.463-1.032-1.032v-5.161h2.065v5.161c0 0.569-0.463 1.032-1.032 1.032zM7.742 23.742h-2.065v-1.032h2.065v1.032zM8.774 21.677h-4.129c-0.285 0-0.516-0.231-0.516-0.516s0.231-0.516 0.516-0.516h4.129c0.285 0 0.516 0.231 0.516 0.516s-0.231 0.516-0.516 0.516z"></path>
<path fill="#333" d="M27.031 13.382l-5.162 2.063-0.383-0.959 5.162-2.063 0.383 0.959z"></path>
<path fill="#333" d="M27.032 10.801l-3.214 1.286-0.384-0.958 3.214-1.286 0.384 0.958z"></path>
<path fill="#333" d="M22.878 12.465l-1.008 0.403-0.383-0.959 1.008-0.403 0.383 0.959z"></path>
<path fill="#333" d="M27.031 8.223l-5.162 2.063-0.383-0.959 5.162-2.063 0.383 0.959z"></path>
<path fill="#333" d="M27.030 5.64l-5.162 2.063-0.383-0.959 5.162-2.063 0.383 0.959z"></path>
<path fill="#333" d="M27.030 3.060l-5.162 2.063-0.383-0.959 5.162-2.063 0.383 0.959z"></path>
</svg>
