<!-- Generated by IcoMoon.io -->
<svg version="1.1" xmlns="http://www.w3.org/2000/svg" width="32" height="32" viewBox="0 0 32 32">
<title>delivery</title>
<path d="M10 20.183c-1.553 0-2.812 1.258-2.812 2.811s1.259 2.811 2.812 2.811c1.554 0 2.812-1.258 2.812-2.811s-1.258-2.811-2.812-2.811zM10 24.217c-0.675 0-1.222-0.547-1.222-1.222s0.547-1.222 1.222-1.222c0.675 0 1.223 0.547 1.223 1.222s-0.547 1.222-1.223 1.222z"></path>
<path d="M24.826 20.183c-1.553 0-2.812 1.258-2.812 2.811s1.259 2.811 2.812 2.811c1.554 0 2.812-1.258 2.812-2.811s-1.258-2.811-2.812-2.811zM24.826 24.217c-0.675 0-1.222-0.547-1.222-1.222s0.547-1.222 1.222-1.222c0.675 0 1.223 0.547 1.223 1.222s-0.547 1.222-1.223 1.222z"></path>
<path d="M13.163 11.545c0 0.394-0.322 0.716-0.716 0.716h-9.884c-0.394 0-0.716-0.322-0.716-0.716v-0.43c0-0.394 0.322-0.716 0.716-0.716h9.884c0.394 0 0.716 0.322 0.716 0.716v0.43z"></path>
<path d="M30.335 15.738c-1.031-0.268-1.621-0.437-2.026-1.218l-1.354-2.741c-0.405-0.782-1.457-1.421-2.337-1.421h-1.851c0 0-0.249 0.005-0.249-0.245 0-0.575 0-2.299 0-2.299 0-0.891-0.504-1.62-1.577-1.62h-15.089c-1.536 0-2.265 0.729-2.265 1.62v1.44c0 0 0 0.428 0.415 0.428 2.111 0 8.444 0 8.444 0 0.79 0 1.433 0.643 1.433 1.432v0.43c0 0.79-0.643 1.432-1.433 1.432h-8.444c0 0-0.415-0.034-0.415 0.413 0 0.222 0 0.372 0 0.495 0 0.394 0.54 0.394 0.54 0.394h5.684c0.79 0 1.433 0.643 1.433 1.432v0.43c0 0.79-0.643 1.432-1.433 1.432h-5.594c0 0-0.63-0.012-0.63 0.49 0 0.87 0 3.481 0 3.481 0 0.891 0.729 1.62 1.62 1.62 0 0 0.671 0 0.895 0 0.203 0 0.233-0.113 0.233-0.17 0-2.020 1.644-3.663 3.664-3.663s3.664 1.643 3.664 3.663c0 0.057-0.016 0.17 0.139 0.17 1.774 0 7.222 0 7.222 0 0.143 0 0.137-0.121 0.137-0.17 0-2.020 1.644-3.663 3.664-3.663s3.664 1.643 3.664 3.663c0 0.057-0.001 0.17 0.088 0.17 0.813 0 1.821 0 1.821 0 0.881 0 1.601-0.72 1.601-1.601v-3.042c0-2.561-0.809-2.561-1.665-2.784zM27.289 15.596c0 0-3.4 0-4.557 0-0.188 0-0.213-0.183-0.213-0.183v-3.796c0 0-0.011-0.146 0.231-0.146 0.325 0 1.3 0 1.3 0 0.783 0 1.719 0.569 2.079 1.265l1.205 2.439c0.051 0.098 0.105 0.185 0.163 0.263 0.043 0.057-0.029 0.158-0.208 0.158z"></path>
<path d="M10.528 16.142c0 0.394-0.322 0.716-0.716 0.716h-9.096c-0.394 0-0.716-0.322-0.716-0.716v-0.43c0-0.394 0.322-0.716 0.716-0.716h9.096c0.394 0 0.716 0.322 0.716 0.716v0.43z"></path>
</svg>
