<!-- Generated by IcoMoon.io -->
<svg version="1.1" xmlns="http://www.w3.org/2000/svg" width="32" height="32" viewBox="0 0 32 32">
<title>dining</title>
<path fill="#000" d="M19.619 7.108h-0.603l-0.37-2.074h-5.313l-0.37 2.074h-0.603c-0.858 0-1.556 0.698-1.556 1.556s0.698 1.556 1.556 1.556h1.037v1.556h1.037v-1.556h3.111v1.556h1.037v-1.556h1.037c0.858 0 1.556-0.698 1.556-1.556s-0.698-1.556-1.556-1.556zM14.2 6.071h3.577l0.185 1.037h-3.948zM19.619 9.182h-7.26c-0.286 0-0.519-0.233-0.519-0.519s0.232-0.519 0.519-0.519h7.26c0.286 0 0.519 0.233 0.519 0.519s-0.232 0.519-0.519 0.519z"></path>
<path fill="#f0bc5e" d="M15.989 11.257c-6.577 0-11.927 5.35-11.927 11.927v2.074h23.855v-2.074c0-6.577-5.35-11.927-11.927-11.927z"></path>
<path fill="#000" d="M4.213 13.698l-0.822-0.822c-0.571-0.571-0.885-1.33-0.885-2.137s0.314-1.567 0.885-2.137l0.089-0.089c0.375-0.375 0.581-0.874 0.581-1.404s-0.206-1.029-0.581-1.404l-0.822-0.822 0.733-0.733 0.822 0.822c0.571 0.571 0.885 1.33 0.885 2.137s-0.314 1.567-0.885 2.137l-0.089 0.089c-0.375 0.375-0.581 0.874-0.581 1.404s0.206 1.029 0.581 1.404l0.822 0.822z"></path>
<path fill="#000" d="M7.54 9.549l-0.733-0.733 0.822-0.822c0.375-0.375 0.581-0.874 0.581-1.404s-0.206-1.029-0.581-1.404l-0.089-0.089c-0.571-0.571-0.885-1.33-0.885-2.137s0.314-1.567 0.885-2.137l0.822-0.822 0.733 0.733-0.822 0.822c-0.375 0.375-0.581 0.874-0.581 1.404s0.206 1.029 0.581 1.404l0.089 0.089c0.571 0.571 0.885 1.33 0.885 2.137s-0.314 1.567-0.885 2.137z"></path>
<path fill="#000" d="M27.764 13.698l-0.733-0.733 0.822-0.822c0.375-0.375 0.581-0.874 0.581-1.404s-0.206-1.029-0.581-1.404l-0.089-0.089c-0.571-0.57-0.885-1.33-0.885-2.137s0.314-1.567 0.885-2.137l0.822-0.822 0.733 0.733-0.822 0.822c-0.375 0.375-0.581 0.874-0.581 1.404s0.206 1.029 0.581 1.404l0.089 0.089c0.571 0.57 0.885 1.33 0.885 2.137s-0.314 1.567-0.885 2.137z"></path>
<path fill="#000" d="M24.438 9.549l-0.822-0.822c-0.571-0.57-0.885-1.33-0.885-2.137s0.314-1.567 0.885-2.137l0.089-0.089c0.375-0.375 0.581-0.874 0.581-1.404s-0.206-1.029-0.581-1.404l-0.822-0.822 0.733-0.733 0.822 0.822c0.571 0.571 0.885 1.33 0.885 2.137s-0.314 1.567-0.885 2.137l-0.089 0.089c-0.375 0.375-0.581 0.874-0.581 1.404s0.206 1.029 0.581 1.404l0.822 0.822z"></path>
<path fill="#000" d="M23.687 24.74l-0.772-4.543c-0.186-1.205-1.164-2.088-2.36-2.18 0.062-0.168 0.101-0.348 0.101-0.537 0-0.858-0.698-1.556-1.556-1.556h-3.111c-0.324 0-0.624 0.099-0.874 0.27-0.448-0.777-1.278-1.307-2.238-1.307h-1.556v1.556c0 0.586 0.203 1.121 0.532 1.556h-0.228c-1.289 0-2.366 0.925-2.563 2.198l-0.24 1.561c-1.382 0.373-2.437 1.541-2.645 2.983h-3.153v0.519c0 2.398 1.819 4.378 4.149 4.637v2.105h17.632v-2.105c2.33-0.259 4.149-2.238 4.149-4.637v-0.519zM22.021 21.129l0.613 3.611h-1.556c0.059-0.163 0.096-0.336 0.096-0.519v-2.074c0-0.507 0.366-0.928 0.847-1.018zM15.989 16.961h3.111c0.286 0 0.519 0.232 0.519 0.519s-0.232 0.519-0.519 0.519h-3.111c-0.286 0-0.519-0.232-0.519-0.519s0.232-0.519 0.519-0.519zM12.359 16.443v-0.519h0.519c0.858 0 1.556 0.698 1.556 1.556v0.519h-0.519c-0.858 0-1.556-0.698-1.556-1.556zM10.087 20.355c0.118-0.764 0.765-1.319 1.538-1.319h8.727c0.686 0 1.27 0.438 1.477 1.076-0.961 0.18-1.692 1.022-1.692 2.035v2.074c0 0.286-0.232 0.519-0.519 0.519s-0.519-0.232-0.519-0.519v-0.519h-1.037v0.519c0 0.183 0.037 0.356 0.095 0.519h-1.133v-3.111c0-0.286 0.232-0.519 0.519-0.519s0.519 0.232 0.519 0.519v1.037h1.037v-1.037c0-0.858-0.698-1.556-1.556-1.556s-1.556 0.698-1.556 1.556v1.095c-0.66-0.675-1.578-1.095-2.593-1.095-0.641 0-1.26 0.176-1.81 0.494-0.502-0.292-1.078-0.467-1.694-0.488zM13.354 24.74c-0.104-0.723-0.421-1.376-0.886-1.896 0.294-0.113 0.606-0.178 0.927-0.178 1.252 0 2.299 0.893 2.54 2.074zM9.766 22.666c1.252 0 2.299 0.893 2.54 2.074h-5.081c0.241-1.182 1.289-2.074 2.54-2.074zM8.21 30.963v-1.037h15.557v1.037zM24.286 28.889h-16.595c-1.826 0-3.341-1.354-3.593-3.111h23.781c-0.252 1.757-1.767 3.111-3.593 3.111z"></path>
<path fill="#000" d="M25.842 23.184c0-2.712-1.079-5.24-3.038-7.117l-0.717 0.749c1.753 1.68 2.718 3.941 2.718 6.368z"></path>
<path fill="#000" d="M22.011 15.385c-0.347-0.269-0.716-0.517-1.095-0.735l-0.519 0.898c0.339 0.196 0.668 0.418 0.979 0.658z"></path>
</svg>
