<!-- Generated by IcoMoon.io -->
<svg version="1.1" xmlns="http://www.w3.org/2000/svg" width="32" height="32" viewBox="0 0 32 32">
<title>dinner</title>
<path fill="#f0bc5e" d="M11.871 24.258v-3.097h1.032c0-1.348 0.862-2.491 2.065-2.917v-1.316c0-0.258 0.129-0.498 0.343-0.641l0.431-0.288h-0.774c-1.274 0-2.436-0.411-3.559-0.809-1.074-0.381-2.087-0.739-3.15-0.739-1.747 0-3.46 0.681-4.099 0.965l0.938 14.071c0.036 0.543 0.486 0.964 1.030 0.964h11.938c-3.42 0-6.194-2.773-6.194-6.194z"></path>
<path fill="#f0bc5e" d="M25.29 15.484c-3.13 0-5.677 2.547-5.677 5.677h11.355c0-3.13-2.547-5.677-5.677-5.677z"></path>
<path fill="#000" d="M15.484 19.097h1.032v1.032h-1.032z"></path>
<path fill="#000" d="M28.903 9.29h1.032v1.032h-1.032z"></path>
<path fill="#000" d="M25.29 17.548c-1.816 0-3.32 1.349-3.572 3.097h-2.147c-0.252-1.748-1.755-3.097-3.572-3.097-0.175 0-0.347 0.017-0.516 0.041v-0.661c0-0.086 0.042-0.165 0.114-0.212l0.862-0.575c0.359-0.239 0.573-0.639 0.573-1.071v-0.364c0-0.14 0.115-0.255 0.255-0.255h0.301c0.49 0 0.932-0.272 1.151-0.712l0.090-0.18c0.093-0.184 0.404-0.161 0.47 0.033l0.165 0.495c0.176 0.526 0.667 0.88 1.222 0.88 0.49 0 0.932-0.272 1.151-0.712l0.090-0.18c0.043-0.086 0.132-0.141 0.228-0.141h0.080c0.096 0 0.185 0.055 0.228 0.14l0.090 0.181c0.22 0.439 0.661 0.711 1.151 0.711h0.236c0.068 0 0.132 0.026 0.181 0.075l0.487 0.487c0.226-0.027 0.453-0.045 0.685-0.045 0.269 0 0.532 0.025 0.792 0.062l-0.009-0.009 2.169-4.699-0.142-0.234c-0.152-0.251-0.229-0.519-0.229-0.796 0-0.854 0.695-1.548 1.548-1.548s1.548 0.695 1.548 1.548c0 0.662-0.427 1.248-1.062 1.461l-0.223 0.074-1.958 4.699c0.316 0.151 0.615 0.329 0.896 0.533l1.84-4.416c0.929-0.41 1.539-1.327 1.539-2.351 0-1.423-1.158-2.581-2.581-2.581s-2.581 1.158-2.581 2.581c0 0.369 0.084 0.738 0.244 1.080l-1.788 3.873-0.446-0.446c-0.243-0.244-0.567-0.377-0.911-0.377h-0.236c-0.096 0-0.185-0.055-0.228-0.14l-0.090-0.181c-0.22-0.439-0.661-0.711-1.151-0.711h-0.080c-0.49 0-0.932 0.272-1.151 0.712l-0.090 0.18c-0.092 0.184-0.405 0.161-0.47-0.033l-0.165-0.495c-0.177-0.526-0.668-0.88-1.222-0.88-0.49 0-0.932 0.272-1.151 0.712l-0.090 0.18c-0.043 0.086-0.132 0.141-0.228 0.141h-0.301c-0.087 0-0.172 0.009-0.255 0.026v-4.155h-5.121l1.417-7.226h3.704v-1.032h-4.554l-1.619 8.258h-3.117l2.849-2.849-0.434-0.362c-1.111-0.925-2.518-1.435-3.963-1.435-3.415 0-6.194 2.778-6.194 6.194 0 1.446 0.509 2.853 1.435 3.963l0.361 0.433 1.816-1.816 0.001 1.583 0.968 14.52c0.054 0.811 0.733 1.446 1.545 1.446h19.163c3.7 0 6.71-3.010 6.71-6.71v-3.613h-3.138c-0.252-1.748-1.755-3.097-3.572-3.097zM25.29 18.581c1.246 0 2.289 0.888 2.528 2.065h-5.057c0.24-1.176 1.282-2.065 2.528-2.065zM18.528 20.645h-5.057c0.24-1.176 1.282-2.065 2.528-2.065s2.289 0.888 2.528 2.065zM10.656 10.323l-0.202 1.032h-4.777l1.032-1.032zM3.097 10.839c0-1.708 1.389-3.097 3.097-3.097 0.465 0 0.914 0.11 1.328 0.309l-4.116 4.116c-0.199-0.414-0.309-0.863-0.309-1.329zM1.032 10.839c0-2.846 2.315-5.161 5.161-5.161 1.014 0 2.005 0.301 2.845 0.856l-0.759 0.759c-0.634-0.376-1.344-0.583-2.087-0.583-2.277 0-4.129 1.852-4.129 4.129 0 0.743 0.207 1.453 0.583 2.087l-0.759 0.759c-0.555-0.84-0.856-1.831-0.856-2.845zM6.127 29.935c-0.27 0-0.497-0.212-0.515-0.482l-0.967-14.486v-2.581h5.607l-3.017 15.385 1.013 0.199 3.056-15.583h2.115v-1.032h-1.913l0.202-1.032h4.291v1.032h-1.548v1.032h1.548v2.684c0 0.086-0.042 0.165-0.114 0.212l-0.862 0.575c-0.359 0.239-0.573 0.639-0.573 1.070v0.974c-1.069 0.51-1.848 1.529-2.023 2.743h-1.074v3.613c0 2.388 1.254 4.488 3.137 5.677zM30.968 22.71h-1.548v1.032h1.548v0.516c0 3.13-2.547 5.677-5.677 5.677h-7.226c-3.13 0-5.677-2.547-5.677-5.677v-0.516h16v-1.032h-16v-1.032h18.581z"></path>
</svg>
