<!-- Generated by IcoMoon.io -->
<svg version="1.1" xmlns="http://www.w3.org/2000/svg" width="32" height="32" viewBox="0 0 32 32">
<title>discount</title>
<path fill="#f0bc5e" d="M25.806 8.258c0 3.421-2.773 6.194-6.194 6.194s-6.194-2.773-6.194-6.194 2.773-6.194 6.194-6.194 6.194 2.773 6.194 6.194z"></path>
<path fill="#f0bc5e" d="M22.71 23.742c0 3.421-2.773 6.194-6.194 6.194s-6.194-2.773-6.194-6.194 2.773-6.194 6.194-6.194 6.194 2.773 6.194 6.194z"></path>
<path fill="#000" d="M32 3.915l-3.915-3.915h-17.46l-0.819 0.819-0.819-0.819h-5.891v15.484h-3.097v16.516h5.891l0.819-0.819 0.819 0.819h21.375v-14.452h3.097zM28.387 1.762l1.851 1.851h-1.851zM27.871 30.968h-19.915l-0.73-0.73v-1.335h-1.032v1.335l-0.73 0.73h-4.431v-14.452h4.431l0.73 0.73v1.335h1.032v-1.335l0.73-0.73h19.915zM28.903 16.516v-1.032h-18.581v-1.548h-1.032v1.548h-1.762l-0.819 0.819-0.819-0.819h-1.762v-14.452h4.431l0.73 0.73v1.851h1.032v-1.851l0.73-0.73h16.302v3.613h3.613v11.871z"></path>
<path fill="#000" d="M9.29 4.645h1.032v2.065h-1.032z"></path>
<path fill="#000" d="M9.29 7.742h1.032v2.065h-1.032z"></path>
<path fill="#000" d="M9.29 10.839h1.032v2.065h-1.032z"></path>
<path fill="#000" d="M16.667 10.474l5.161-5.161 0.73 0.73-5.161 5.161z"></path>
<path fill="#000" d="M17.548 5.677h1.032v1.032h-1.032z"></path>
<path fill="#000" d="M20.645 9.806h1.032v1.032h-1.032z"></path>
<path fill="#000" d="M6.194 19.613h1.032v2.065h-1.032z"></path>
<path fill="#000" d="M6.194 22.71h1.032v2.065h-1.032z"></path>
<path fill="#000" d="M6.194 25.806h1.032v2.065h-1.032z"></path>
<path fill="#000" d="M13.57 25.957l5.161-5.161 0.73 0.73-5.161 5.161z"></path>
<path fill="#000" d="M14.452 21.161h1.032v1.032h-1.032z"></path>
<path fill="#000" d="M17.548 25.29h1.032v1.032h-1.032z"></path>
<path fill="#000" d="M21.677 28.903h1.032v1.032h-1.032z"></path>
<path fill="#000" d="M23.742 28.903h1.032v1.032h-1.032z"></path>
<path fill="#000" d="M25.806 28.903h1.032v1.032h-1.032z"></path>
</svg>
