<!-- Generated by IcoMoon.io -->
<svg version="1.1" xmlns="http://www.w3.org/2000/svg" width="32" height="32" viewBox="0 0 32 32">
<title>dish</title>
<path d="M32 25.772v0.719c0 0.596-0.483 1.079-1.079 1.079h-29.843c-0.596 0-1.079-0.483-1.079-1.079v-0.719c0-0.596 0.483-1.079 1.079-1.079h29.843c0.596 0 1.079 0.483 1.079 1.079zM31.029 22.343c0 0.596-0.483 1.079-1.079 1.079h-27.901c-0.596 0-1.079-0.483-1.079-1.079 0-7.515 5.544-13.759 12.757-14.858-0.065-0.216-0.101-0.445-0.101-0.682 0-1.308 1.065-2.373 2.373-2.373s2.373 1.065 2.373 2.373c0 0.237-0.036 0.466-0.101 0.682 7.213 1.098 12.757 7.343 12.757 14.858zM14.895 10.576c-0.145-0.578-0.731-0.928-1.309-0.783-0.171 0.043-4.231 1.091-6.848 4.189-2.218 2.627-2.499 5.908-2.51 6.046-0.047 0.594 0.397 1.113 0.991 1.16 0.029 0.002 0.057 0.003 0.086 0.003 0.557 0 1.030-0.429 1.074-0.994 0.002-0.027 0.233-2.721 2.008-4.823 2.152-2.548 5.669-3.474 5.726-3.489 0.577-0.146 0.927-0.731 0.782-1.308z"></path>
</svg>
