<!-- Generated by IcoMoon.io -->
<svg version="1.1" xmlns="http://www.w3.org/2000/svg" width="32" height="32" viewBox="0 0 32 32">
<title>dishwasher</title>
<path fill="#000" d="M23.742 12.387h-1.032v2.581h-20.645v-7.226h12.926v-1.032h-13.958v-1.032h14.133v-1.032h-15.165v3.097h1.032v21.161h-1.032v3.097h29.222l1.121-2.243c0.966-0.373 1.656-1.306 1.656-2.402v-0.516h-0.529c0.328-0.432 0.529-0.965 0.529-1.548v-0.516h-0.529c0.328-0.432 0.529-0.965 0.529-1.548v-0.516h-0.529c0.328-0.432 0.529-0.965 0.529-1.548v-0.516h-8.258zM22.71 20.645h-1.032v-4.645h1.032zM4.129 16h16.516v4.645h-11.355v0.516c0 0.583 0.202 1.116 0.53 1.548h-0.53v0.516c0 0.583 0.202 1.116 0.53 1.548h-0.53v0.516c0 0.583 0.202 1.116 0.53 1.548h-0.53v0.516c0 0.583 0.202 1.116 0.53 1.548h-5.691zM2.065 16h1.032v12.903h-1.032zM1.032 30.968v-1.032h10.52l0.516 1.032zM29.419 28.903h-3.613v1.032h3.294l-0.516 1.032h-15.362l-0.516-1.032h12.068v-1.032h-12.903c-0.673 0-1.247-0.431-1.46-1.032h20.468c-0.213 0.601-0.787 1.032-1.46 1.032zM30.88 25.806c-0.213 0.601-0.787 1.032-1.46 1.032h-17.548c-0.673 0-1.247-0.431-1.46-1.032h4.041v-1.032h-2.581c-0.673 0-1.247-0.431-1.46-1.032h20.468c-0.213 0.601-0.787 1.032-1.46 1.032h-13.935v1.032zM29.419 22.71h-17.548c-0.673 0-1.247-0.431-1.46-1.032h20.468c-0.213 0.601-0.787 1.032-1.46 1.032z"></path>
<path fill="#000" d="M31.484 16.516c-0.854 0-1.548-0.695-1.548-1.548v-0.516h-1.032v0.516c0 0.854-0.695 1.548-1.548 1.548h-0.516v1.032h0.516c0.854 0 1.548 0.695 1.548 1.548v0.516h1.032v-0.516c0-0.854 0.695-1.548 1.548-1.548h0.516v-1.032zM29.419 17.564c-0.151-0.203-0.329-0.381-0.532-0.532 0.203-0.151 0.381-0.329 0.532-0.532 0.151 0.203 0.329 0.381 0.532 0.532-0.203 0.151-0.381 0.329-0.532 0.532z"></path>
<path fill="#000" d="M3.097 8.774h1.032v1.032h-1.032z"></path>
<path fill="#000" d="M5.161 8.774h1.032v1.032h-1.032z"></path>
<path fill="#000" d="M7.226 8.774h1.032v1.032h-1.032z"></path>
<path fill="#000" d="M3.097 10.839h11.355v1.032h-11.355z"></path>
<path fill="#000" d="M3.097 12.903h11.355v1.032h-11.355z"></path>
<path fill="#000" d="M8.258 22.194v-0.516c0-0.854 0.695-1.548 1.548-1.548h0.516v-1.032h-0.516c-0.854 0-1.548-0.695-1.548-1.548v-0.516h-1.032v0.516c0 0.854-0.695 1.548-1.548 1.548h-0.516v1.032h0.516c0.854 0 1.548 0.695 1.548 1.548v0.516zM7.21 19.613c0.203-0.151 0.381-0.329 0.532-0.532 0.151 0.203 0.329 0.381 0.532 0.532-0.203 0.151-0.381 0.329-0.532 0.532-0.151-0.203-0.329-0.381-0.532-0.532z"></path>
<path fill="#f0bc5e" d="M21.161 13.419c-3.7 0-6.71-3.010-6.71-6.71s3.010-6.71 6.71-6.71 6.71 3.010 6.71 6.71-3.010 6.71-6.71 6.71z"></path>
<path fill="#000" d="M21.186 11.355h-0.051c-1.409 0-2.555-1.146-2.555-2.555 0-0.444 0.117-0.883 0.336-1.268l2.244-3.927 2.244 3.927c0.22 0.386 0.336 0.824 0.336 1.268 0 1.409-1.146 2.555-2.555 2.555zM21.161 5.686l-1.348 2.358c-0.132 0.23-0.201 0.491-0.201 0.756 0 0.84 0.683 1.523 1.523 1.523h0.051c0.839 0 1.523-0.683 1.523-1.523 0-0.265-0.069-0.526-0.201-0.756z"></path>
<path fill="#000" d="M20.645 1.548h1.032v1.032h-1.032z"></path>
</svg>
