<!-- Generated by IcoMoon.io -->
<svg version="1.1" xmlns="http://www.w3.org/2000/svg" width="32" height="32" viewBox="0 0 32 32">
<title>donut</title>
<path fill="#f0bc5e" d="M19.468 20.645c0-0.275 0.208-0.661 0.409-1.035 0.312-0.578 0.664-1.233 0.453-1.882-0.219-0.673-0.905-1-1.511-1.29-0.37-0.177-0.753-0.36-0.9-0.563-0.151-0.207-0.208-0.632-0.263-1.043-0.089-0.661-0.189-1.41-0.755-1.821-0.56-0.408-1.299-0.274-1.95-0.155-0.411 0.074-0.836 0.151-1.087 0.070-0.23-0.075-0.517-0.377-0.795-0.67-0.466-0.49-0.994-1.046-1.713-1.046s-1.247 0.556-1.713 1.046c-0.124 0.131-0.249 0.261-0.372 0.374-0.098 0.816-0.67 1.481-1.435 1.719 0.41 0.779 0.297 1.762-0.359 2.417s-1.638 0.769-2.417 0.359c-0.261 0.841-1.036 1.455-1.963 1.455-0.156 0-0.307-0.022-0.452-0.055l-0.225 0.203c0.1 0.3 0.259 0.596 0.412 0.882 0.201 0.374 0.409 0.761 0.409 1.035s-0.208 0.661-0.409 1.035c-0.312 0.578-0.664 1.233-0.453 1.882 0.219 0.673 0.905 1 1.511 1.29 0.37 0.177 0.753 0.36 0.9 0.563 0.151 0.207 0.208 0.632 0.263 1.043 0.089 0.661 0.189 1.41 0.755 1.821 0.56 0.408 1.299 0.273 1.95 0.155 0.412-0.074 0.836-0.15 1.087-0.070 0.23 0.075 0.517 0.377 0.795 0.67 0.465 0.49 0.994 1.046 1.713 1.046s1.247-0.556 1.713-1.046c0.278-0.293 0.565-0.595 0.795-0.67 0.252-0.081 0.677-0.004 1.087 0.070 0.652 0.118 1.39 0.251 1.951-0.155 0.565-0.412 0.666-1.16 0.755-1.821 0.055-0.411 0.112-0.835 0.263-1.043 0.148-0.203 0.53-0.386 0.9-0.562 0.606-0.29 1.292-0.618 1.511-1.291 0.211-0.649-0.141-1.303-0.453-1.882-0.2-0.373-0.408-0.759-0.408-1.034zM11.355 24.774c-2.28 0-4.129-1.849-4.129-4.129s1.849-4.129 4.129-4.129 4.129 1.849 4.129 4.129-1.849 4.129-4.129 4.129z"></path>
<path fill="#000" d="M11.355 16c-2.562 0-4.645 2.084-4.645 4.645s2.084 4.645 4.645 4.645 4.645-2.084 4.645-4.645-2.084-4.645-4.645-4.645zM11.355 24.258c-1.992 0-3.613-1.621-3.613-3.613s1.621-3.613 3.613-3.613 3.613 1.621 3.613 3.613-1.621 3.613-3.613 3.613z"></path>
<path fill="#000" d="M32 10.839c0-0.995-0.402-1.926-1.114-2.605 0.277-0.945 0.159-1.952-0.338-2.814s-1.311-1.467-2.268-1.7c-0.233-0.957-0.838-1.77-1.7-2.267-0.862-0.498-1.869-0.615-2.813-0.339-0.68-0.712-1.61-1.114-2.606-1.114s-1.926 0.402-2.606 1.114c-0.944-0.277-1.951-0.159-2.813 0.338s-1.467 1.311-1.7 2.268c-0.957 0.233-1.77 0.838-2.268 1.7s-0.615 1.869-0.338 2.814c-0.325 0.311-0.584 0.679-0.773 1.084-0.847 0.055-1.703 0.209-2.554 0.464l-0.367 0.11v1.022l0.257 0.149c0.485 0.281 0.775 0.776 0.775 1.324 0 0.676-0.439 1.267-1.092 1.47l-0.592 0.184 0.289 0.549c0.318 0.605 0.211 1.334-0.267 1.812s-1.207 0.585-1.812 0.267l-0.549-0.289-0.184 0.592c-0.203 0.653-0.794 1.093-1.47 1.093-0.548 0-1.043-0.29-1.324-0.775l-0.149-0.257h-1.023l-0.11 0.367c-0.325 1.082-0.49 2.174-0.49 3.245 0 6.261 5.094 11.355 11.355 11.355 6.029 0 10.973-4.724 11.332-10.665 0.404-0.189 0.771-0.448 1.080-0.772 0.945 0.277 1.951 0.159 2.813-0.338s1.467-1.311 1.7-2.268c0.957-0.233 1.77-0.838 2.268-1.7s0.615-1.869 0.338-2.814c0.712-0.679 1.114-1.61 1.114-2.605zM11.355 30.968c-5.692 0-10.323-4.631-10.323-10.323 0-0.754 0.091-1.521 0.27-2.288 0.473 0.471 1.108 0.74 1.795 0.74 0.816 0 1.556-0.381 2.032-1.002l-0.314 0.968 0.982 0.318 0.319-0.982-0.976-0.317c0.071-0.093 0.136-0.192 0.195-0.296 0.886 0.249 1.841 0.011 2.507-0.656s0.904-1.624 0.656-2.507c0.801-0.45 1.309-1.292 1.309-2.236 0-0.686-0.268-1.322-0.739-1.795 0.767-0.179 1.534-0.27 2.287-0.27 5.692 0 10.323 4.631 10.323 10.323s-4.631 10.323-10.323 10.323zM17.405 9.832c0.246-0.235 0.456-0.503 0.627-0.799s0.298-0.613 0.379-0.943c0.331-0.081 0.647-0.208 0.943-0.379s0.565-0.381 0.8-0.628c0.654 0.191 1.359 0.191 2.013 0 0.235 0.246 0.504 0.456 0.8 0.628s0.613 0.298 0.943 0.379c0.081 0.331 0.207 0.647 0.379 0.943s0.381 0.565 0.628 0.799c-0.095 0.327-0.143 0.664-0.143 1.006s0.049 0.68 0.143 1.006c-0.246 0.235-0.456 0.503-0.628 0.8-0.171 0.296-0.297 0.612-0.378 0.943-0.331 0.081-0.647 0.208-0.943 0.379s-0.565 0.381-0.8 0.628c-0.418-0.122-0.859-0.162-1.293-0.127-0.87-1.336-2.013-2.478-3.35-3.347 0.008-0.094 0.024-0.188 0.024-0.282 0-0.343-0.049-0.68-0.143-1.006zM29.967 12.875l-0.309 0.24 0.148 0.362c0.303 0.746 0.248 1.571-0.152 2.264s-1.087 1.154-1.885 1.263l-0.388 0.053-0.053 0.388c-0.11 0.798-0.57 1.485-1.263 1.885-0.694 0.401-1.518 0.456-2.264 0.152l-0.362-0.148-0.241 0.309c-0.145 0.187-0.315 0.35-0.501 0.489-0.074-1.66-0.507-3.227-1.222-4.628 0.225 0.028 0.447 0.083 0.659 0.169l0.363 0.148 0.24-0.309c0.206-0.266 0.458-0.485 0.747-0.652 0.289-0.167 0.604-0.275 0.937-0.321l0.388-0.053 0.054-0.387c0.046-0.334 0.154-0.65 0.321-0.939 0.168-0.29 0.388-0.541 0.653-0.747l0.31-0.24-0.148-0.363c-0.127-0.312-0.192-0.639-0.192-0.973s0.065-0.661 0.191-0.973l0.148-0.363-0.31-0.24c-0.266-0.206-0.485-0.457-0.653-0.747-0.167-0.289-0.275-0.604-0.321-0.939l-0.054-0.387-0.388-0.053c-0.333-0.045-0.649-0.154-0.938-0.321s-0.54-0.387-0.747-0.652l-0.241-0.309-0.362 0.148c-0.623 0.253-1.322 0.253-1.946 0l-0.362-0.148-0.241 0.309c-0.206 0.266-0.458 0.486-0.747 0.652s-0.605 0.275-0.938 0.321l-0.388 0.053-0.054 0.388c-0.045 0.334-0.153 0.649-0.321 0.938s-0.387 0.541-0.652 0.747l-0.31 0.24 0.148 0.363c0.086 0.211 0.133 0.431 0.161 0.654-1.399-0.712-2.963-1.143-4.619-1.217 0.139-0.186 0.302-0.356 0.489-0.501l0.309-0.24-0.148-0.362c-0.303-0.746-0.248-1.571 0.152-2.264s1.087-1.154 1.885-1.263l0.388-0.054 0.053-0.387c0.11-0.798 0.57-1.485 1.263-1.885s1.518-0.455 2.264-0.152l0.362 0.148 0.241-0.309c0.494-0.636 1.236-1.001 2.037-1.001s1.543 0.365 2.037 1.001l0.241 0.309 0.362-0.148c0.745-0.303 1.571-0.248 2.264 0.152s1.154 1.087 1.263 1.885l0.053 0.387 0.388 0.054c0.798 0.11 1.485 0.57 1.885 1.263s0.456 1.518 0.152 2.264l-0.148 0.362 0.309 0.24c0.635 0.495 1 1.237 1 2.037s-0.365 1.542-1 2.037z"></path>
<path fill="#000" d="M10.839 13.935h1.032v1.032h-1.032v-1.032z"></path>
<path fill="#000" d="M6.114 22.888l-0.982 0.319-0.319-0.982 0.982-0.319 0.319 0.982z"></path>
<path fill="#000" d="M8.436 25.541l-0.606 0.835-0.835-0.607 0.606-0.835 0.835 0.607z"></path>
<path fill="#000" d="M10.839 26.323h1.032v1.032h-1.032v-1.032z"></path>
<path fill="#000" d="M15.717 25.769l-0.835 0.607-0.607-0.834 0.835-0.607 0.607 0.834z"></path>
<path fill="#000" d="M17.895 22.225l-0.319 0.982-0.982-0.319 0.319-0.982 0.982 0.319z"></path>
<path fill="#000" d="M17.893 19.060l-0.982 0.319-0.319-0.982 0.982-0.319 0.319 0.982z"></path>
<path fill="#000" d="M15.715 15.522l-0.607 0.835-0.835-0.607 0.607-0.835 0.835 0.607z"></path>
</svg>
