<!-- Generated by IcoMoon.io -->
<svg version="1.1" xmlns="http://www.w3.org/2000/svg" width="32" height="32" viewBox="0 0 32 32">
<title>egg</title>
<path fill="#ffa64d" d="M28.903 31.484v0c-0.855 0-1.548-0.693-1.548-1.548v-12.903h3.097v12.903c0 0.855-0.693 1.548-1.548 1.548z"></path>
<path fill="#ffa64d" d="M5.677 31.484v0c-0.855 0-1.548-0.693-1.548-1.548v-12.903h3.097v12.903c0 0.855-0.693 1.548-1.548 1.548z"></path>
<path fill="#333" d="M30.968 14.452v-12.907c0-0.852-0.693-1.545-1.545-1.545-0.509 0-0.987 0.251-1.276 0.673-0.397 0.58-1.090 1.721-1.619 3.281-2.917-2.555-6.618-3.954-10.527-3.954-2.445 0-4.829 0.572-6.982 1.619-0.13-0.147-0.255-0.296-0.395-0.435l-0.824-0.824-0.096 1.975c-1.454 0.882-2.771 1.993-3.89 3.306l-0.257-5.282-0.824 0.824c-1.762 1.762-2.732 4.104-2.732 6.595v0.958c0 1.081 0.193 2.131 0.544 3.121h-0.002c-0.359 1.345-0.542 2.738-0.542 4.142 0 3.689 1.283 7.275 3.613 10.123v3.812c0 1.139 0.926 2.065 2.065 2.065s2.065-0.926 2.065-2.065v-0.239c2.489 1.504 5.324 2.304 8.258 2.304 4.019 0 7.898-1.533 10.839-4.238v2.174c0 1.139 0.926 2.065 2.065 2.065s2.065-0.926 2.065-2.065v-12.482c0.599-0.214 1.032-0.781 1.032-1.453v-1.548h-1.032zM28.998 1.257c0.097-0.14 0.255-0.225 0.425-0.225 0.283 0 0.513 0.23 0.513 0.513v12.907h-2.235c-0.259-0.695-0.862-2.69-0.862-6.194 0-3.473 1.511-6.054 2.159-7.001zM26.839 17.453v3.439l-0.016-0.007c-1.919 4.244-6.167 6.986-10.823 6.986-3.103 0-6.031-1.19-8.258-3.348v-3.126c1.231 1.021 2.847 1.501 4.494 1.242 1.475 1.689 3.581 2.651 5.828 2.651 4.269 0 7.742-3.473 7.742-7.742 0-2.447-1.164-4.75-3.126-6.211-0.273-3.484-3.16-6.177-6.681-6.177-1.759 0-3.435 0.708-4.679 1.918-0.046-0.63-0.154-1.246-0.322-1.844 1.569-0.732 3.249-1.107 5.001-1.107 3.956 0 7.611 1.949 9.828 5.22 0.093 2.563 0.495 4.229 0.779 5.103h-0.801v1.548c0 0.672 0.433 1.24 1.032 1.453zM3.613 16v-0.516h4.129v0.516c0 0.285-0.231 0.516-0.516 0.516h-3.097c-0.285 0-0.516-0.231-0.516-0.516zM8.774 16v-0.834c1.661-1.742 2.581-4.013 2.581-6.428v-0.231l0.047 0.034c1.066-1.469 2.785-2.347 4.598-2.347 3.051 0 5.539 2.39 5.665 5.441l0.011 0.257 0.211 0.146c1.808 1.257 2.888 3.317 2.888 5.511 0 3.7-3.010 6.71-6.71 6.71-2.037 0-3.941-0.913-5.224-2.505l-0.199-0.247-0.311 0.067c-1.749 0.371-3.499-0.276-4.589-1.623v-2.497c0.6-0.213 1.033-0.781 1.033-1.453zM16 1.032c3.818 0 7.424 1.428 10.204 4.023-0.196 0.785-0.336 1.649-0.381 2.578-2.438-2.866-6.003-4.536-9.823-4.536-1.867 0-3.658 0.391-5.335 1.155-0.259-0.634-0.594-1.237-0.99-1.803 1.96-0.916 4.116-1.416 6.325-1.416zM3.921 7.159c1.034-1.41 2.3-2.609 3.721-3.564l-0.131 2.696c-1.365 1.195-2.47 2.663-3.227 4.301-0.153-0.235-0.253-0.509-0.269-0.807l-0.129-2.652 0.036 0.026zM7.438 7.785l-0.097 1.996c-0.049 0.883-0.779 1.574-1.663 1.574-0.196 0-0.381-0.039-0.556-0.101 0.561-1.282 1.347-2.457 2.317-3.469zM1.032 7.779c0-1.794 0.566-3.5 1.612-4.916l0.339 6.975c0.079 1.43 1.262 2.549 2.694 2.549s2.615-1.119 2.695-2.552l0.335-6.891c0.014-0.008 0.029-0.015 0.043-0.024 1.019 1.405 1.572 3.089 1.572 4.858v0.958c0 2.147-0.817 4.166-2.292 5.714h-4.706c-1.476-1.548-2.292-3.566-2.292-5.714v-0.959zM1.032 16c0-0.871 0.082-1.737 0.231-2.589 0.365 0.628 0.805 1.217 1.318 1.755v0.834c0 0.672 0.433 1.24 1.032 1.453v6.936c-1.669-2.465-2.581-5.389-2.581-8.389zM6.71 29.935c0 0.569-0.463 1.032-1.032 1.032s-1.032-0.463-1.032-1.032v-12.387h2.065v12.387zM16 30.968c-2.956 0-5.807-0.862-8.258-2.487v-2.569c2.315 1.934 5.209 2.992 8.258 2.992 4.411 0 8.485-2.266 10.839-5.902v3.315c-2.817 2.957-6.751 4.652-10.839 4.652zM29.935 29.935c0 0.569-0.463 1.032-1.032 1.032s-1.032-0.463-1.032-1.032v-12.387h2.065v12.387zM30.968 16c0 0.285-0.231 0.516-0.516 0.516h-3.097c-0.285 0-0.516-0.231-0.516-0.516v-0.516h4.129v0.516z"></path>
<path fill="#333" d="M16 8.258v-1.032c-1.686 0-3.243 0.919-4.065 2.398l0.902 0.501c0.639-1.151 1.851-1.867 3.162-1.867z"></path>
<path fill="#333" d="M12.502 10.968l-1-0.258c-0.097 0.378-0.147 0.769-0.147 1.161h1.032c0-0.306 0.038-0.61 0.115-0.903z"></path>
<path fill="#333" d="M13.935 17.548c0 2.277 1.852 4.129 4.129 4.129s4.129-1.852 4.129-4.129-1.852-4.129-4.129-4.129-4.129 1.852-4.129 4.129zM18.065 14.452c1.708 0 3.097 1.389 3.097 3.097s-1.389 3.097-3.097 3.097-3.097-1.389-3.097-3.097 1.389-3.097 3.097-3.097z"></path>
</svg>
