<!-- Generated by IcoMoon.io -->
<svg version="1.1" xmlns="http://www.w3.org/2000/svg" width="32" height="32" viewBox="0 0 32 32">
<title>eggplant</title>
<path fill="#f0bc5e" d="M23.67 18.524l-0.502-0.904c-0.379-0.682-0.647-1.429-0.806-2.196l-3.781-2.521-1.834 3.668c-0.141 0.283-0.43 0.461-0.747 0.461s-0.605-0.179-0.747-0.461l-1.834-3.668-3.781 2.521c-0.159 0.767-0.427 1.514-0.806 2.196l-0.502 0.904c-0.722 1.3-1.104 2.774-1.104 4.261v0.441c0 4.838 3.936 8.774 8.774 8.774s8.774-3.936 8.774-8.774v-0.441c0-1.487-0.382-2.961-1.105-4.261z"></path>
<path fill="#000" d="M23.907 14.864l-0.537-0.671c-0.758-0.949-1.176-2.14-1.176-3.354 0-2.879-1.978-5.3-4.645-5.99v-4.849h-3.097v4.849c-2.667 0.69-4.645 3.11-4.645 5.99 0 1.214-0.418 2.406-1.176 3.354l-0.537 0.671c-0.3 0.375-0.27 0.915 0.070 1.254 0.316 0.316 0.817 0.366 1.188 0.118l3.868-2.579 1.572 3.144c0.23 0.46 0.694 0.747 1.209 0.747s0.979-0.286 1.209-0.747l1.572-3.144 3.868 2.579c0.372 0.248 0.872 0.199 1.189-0.118 0.339-0.34 0.369-0.879 0.069-1.255zM15.484 1.032h1.032v3.639c-0.171-0.014-0.342-0.026-0.516-0.026s-0.345 0.012-0.516 0.026v-3.639zM18.38 12.15l-1.864 3.729v-4.523h-1.032v4.523l-1.864-3.729-4.356 2.904 0.172-0.216c0.905-1.131 1.403-2.552 1.403-3.999 0-2.046 1.2-3.813 2.931-4.647-1.226 1.442-1.898 3.25-1.898 5.163h1.032c0-1.859 0.724-3.607 2.039-4.922l0.542-0.542v4.431h1.032v-4.431l0.542 0.542c0.486 0.486 0.895 1.039 1.219 1.644l0.911-0.486c-0.266-0.499-0.586-0.966-0.951-1.397 1.727 0.835 2.924 2.6 2.924 4.644 0 1.448 0.498 2.868 1.403 3.999l0.172 0.216-4.356-2.904z"></path>
<path fill="#000" d="M11.538 19.125l-0.501 0.903-0.903-0.501 0.501-0.903 0.903 0.501z"></path>
<path fill="#000" d="M10.323 23.226v-0.441c0-0.721 0.136-1.427 0.403-2.099l-0.959-0.381c-0.316 0.794-0.476 1.629-0.476 2.48v0.441c0 3.7 3.010 6.71 6.71 6.71v-1.032c-3.13 0-5.677-2.547-5.677-5.677z"></path>
<path fill="#000" d="M18.638 8.869c0.305 0.796 0.459 1.633 0.459 2.486h1.032c0-0.979-0.178-1.94-0.527-2.854l-0.964 0.369z"></path>
</svg>
