<!-- Generated by IcoMoon.io -->
<svg version="1.1" xmlns="http://www.w3.org/2000/svg" width="32" height="32" viewBox="0 0 32 32">
<title>energy</title>
<path fill="#f0bc5e" d="M11.355 26.839h-7.226c-0.854 0-1.548-0.695-1.548-1.548v-4.129c0-0.854 0.695-1.548 1.548-1.548h7.226c0.854 0 1.548 0.695 1.548 1.548v4.129c0 0.854-0.695 1.548-1.548 1.548z"></path>
<path fill="#f0bc5e" d="M27.871 26.839h-7.226c-0.854 0-1.548-0.695-1.548-1.548v-7.226c0-0.854 0.695-1.548 1.548-1.548h7.226c0.854 0 1.548 0.695 1.548 1.548v7.226c0 0.854-0.695 1.548-1.548 1.548z"></path>
<path fill="#000" d="M13.419 12.387h-7.226v-0.91l0.516-1.032v-1.67c0-0.569-0.463-1.032-1.032-1.032h-2.065c-0.569 0-1.032 0.463-1.032 1.032v1.67l0.516 1.032v0.91h-1.032v2.399l-2.065 2.581v11.717l2.333 2.916h10.818l2.333-2.916v-11.717l-2.065-2.581v-2.399zM3.613 10.201v-1.427h2.065v1.427l-0.516 1.032v1.154h-1.032v-1.154l-0.516-1.032zM1.032 28.387v-10.323h13.419v10.323h-13.419zM12.655 30.968h-9.827l-1.239-1.548h12.305l-1.239 1.548zM13.894 17.032h-12.305l1.239-1.548h7.494v-1.032h-7.226v-1.032h9.29v1.032h-1.032v1.032h1.301l1.239 1.548z"></path>
<path fill="#000" d="M29.935 11.69v-2.399h-11.355v2.399l-2.065 2.581v14.813l2.333 2.916h10.818l2.333-2.916v-14.814l-2.065-2.581zM19.345 12.387h7.494v-1.032h-7.226v-1.032h9.29v1.032h-1.032v1.032h1.301l1.239 1.548h-12.305l1.239-1.548zM17.548 28.387v-13.419h13.419v13.419h-13.419zM29.172 30.968h-9.827l-1.239-1.548h12.305l-1.239 1.548z"></path>
<path fill="#000" d="M24.738 18.772l-0.959-0.383-1.252 3.129 2.098 0.524-0.856 2.568 0.98 0.326 1.208-3.625-2.031-0.508z"></path>
<path fill="#000" d="M8.258 9.806c0 0.854 0.695 1.548 1.548 1.548s1.548-0.695 1.548-1.548-0.695-1.548-1.548-1.548-1.548 0.695-1.548 1.548zM10.323 9.806c0 0.284-0.232 0.516-0.516 0.516s-0.516-0.232-0.516-0.516 0.232-0.516 0.516-0.516 0.516 0.232 0.516 0.516z"></path>
<path fill="#000" d="M6.71 6.71c1.139 0 2.065-0.926 2.065-2.065s-0.926-2.065-2.065-2.065-2.065 0.926-2.065 2.065 0.926 2.065 2.065 2.065zM6.71 3.613c0.569 0 1.032 0.463 1.032 1.032s-0.463 1.032-1.032 1.032-1.032-0.463-1.032-1.032 0.463-1.032 1.032-1.032z"></path>
<path fill="#000" d="M13.419 3.097c0.854 0 1.548-0.695 1.548-1.548s-0.695-1.548-1.548-1.548-1.548 0.695-1.548 1.548 0.695 1.548 1.548 1.548zM13.419 1.032c0.284 0 0.516 0.232 0.516 0.516s-0.232 0.516-0.516 0.516-0.516-0.232-0.516-0.516 0.232-0.516 0.516-0.516z"></path>
<path fill="#000" d="M26.323 18.581h1.032v1.032h-1.032v-1.032z"></path>
<path fill="#000" d="M21.161 18.581h1.032v1.032h-1.032v-1.032z"></path>
<path fill="#000" d="M21.161 23.742h1.032v1.032h-1.032v-1.032z"></path>
<path fill="#000" d="M26.323 23.742h1.032v1.032h-1.032v-1.032z"></path>
<path fill="#000" d="M4.129 9.29h1.032v1.032h-1.032v-1.032z"></path>
<path fill="#000" d="M10.323 5.161h1.032v1.032h-1.032v-1.032z"></path>
<path fill="#000" d="M9.29 1.032h1.032v1.032h-1.032v-1.032z"></path>
<path fill="#000" d="M14.452 7.742h1.032v1.032h-1.032v-1.032z"></path>
</svg>
