<!-- Generated by IcoMoon.io -->
<svg version="1.1" xmlns="http://www.w3.org/2000/svg" width="32" height="32" viewBox="0 0 32 32">
<title>espresso</title>
<path fill="#f0bc5e" d="M7.226 12.903h1.032v2.065h-1.032v-2.065z"></path>
<path fill="#f0bc5e" d="M12.387 20.645h9.29v1.032h-9.29v-1.032z"></path>
<path fill="#f0bc5e" d="M12.903 10.839h8.258v2.581h-8.258v-2.581z"></path>
<path fill="#f0bc5e" d="M9.806 7.226c-0.854 0-1.548-0.695-1.548-1.548s0.695-1.548 1.548-1.548 1.548 0.695 1.548 1.548-0.695 1.548-1.548 1.548z"></path>
<path fill="#000" d="M29.935 11.355v-2.065h1.032v-1.032h-2.065v-6.194h-1.29l-1.548-2.065h-18.065l-1.548 2.065h-1.29v6.194h-2.065v1.032h1.032v2.065h1.032v1.032h-2.581c-0.854 0-1.548 0.695-1.548 1.548s0.695 1.548 1.548 1.548h2.581v10.323h-2.065v1.032h1.032v3.097h2.694l0.516 2.065h3.903l0.516-2.065h10.549l0.516 2.065h3.903l0.516-2.065h2.694v-3.097h1.032v-1.032h-2.065v-14.452h1.032zM6.194 3.097h18.065v-1.032h-16.516l0.774-1.032h17.032l0.774 1.032h-1.032v1.032h2.581v5.161h-21.677v-5.161zM28.903 9.29v1.032h-23.742v-1.032h23.742zM22.194 21.677v-1.032h0.751c0.724 0 1.313 0.589 1.313 1.313 0 0.545-0.343 1.038-0.852 1.229l-1.684 0.632c0.299-0.653 0.471-1.377 0.471-2.142zM21.161 21.677c0 2.277-1.852 4.129-4.129 4.129s-4.129-1.852-4.129-4.129v-2.065h8.258v2.065zM16.516 18.581v-3.097h1.032v3.097h-1.032zM13.935 14.452c-0.284 0-0.516-0.232-0.516-0.516v-2.581h7.226v2.581c0 0.284-0.232 0.516-0.516 0.516h-6.194zM6.194 11.355h6.194v2.065h-2.065v-1.032h-4.129v-1.032zM2.065 13.935c0-0.284 0.232-0.516 0.516-0.516h6.71v1.032h-6.71c-0.284 0-0.516-0.232-0.516-0.516zM6.194 15.484h4.129v-1.032h2.159c0.214 0.599 0.781 1.032 1.453 1.032h1.548v3.097h-3.613v3.097c0 1.689 0.82 3.187 2.078 4.129h-7.755v-10.323zM10.436 30.968h-2.291l-0.258-1.032h2.807l-0.258 1.032zM25.919 30.968h-2.291l-0.258-1.032h2.807l-0.258 1.032zM27.871 25.806h-1.032v1.032h2.065v2.065h-23.742v-2.065h20.645v-1.032h-5.691c0.212-0.158 0.413-0.33 0.598-0.518l3.055-1.134c0.91-0.341 1.522-1.224 1.522-2.196 0-1.293-1.052-2.345-2.345-2.345h-0.751v-1.032h-3.613v-3.097h1.548c0.854 0 1.548-0.695 1.548-1.548v-2.581h6.194v14.452z"></path>
<path fill="#000" d="M18.065 4.129v3.097h8.774v-3.097h-8.774zM23.226 5.161v1.032h-1.548v-1.032h1.548zM19.097 5.161h1.548v1.032h-1.548v-1.032zM25.806 6.194h-1.548v-1.032h1.548v1.032z"></path>
<path fill="#000" d="M12.387 5.161h1.032v1.032h-1.032v-1.032z"></path>
<path fill="#000" d="M14.452 5.161h1.032v1.032h-1.032v-1.032z"></path>
</svg>
