<!-- Generated by IcoMoon.io -->
<svg version="1.1" xmlns="http://www.w3.org/2000/svg" width="32" height="32" viewBox="0 0 32 32">
<title>eye</title>
<path d="M31.761 15.375c-0.286-0.319-7.156-7.812-15.761-7.812s-15.475 7.494-15.761 7.812c-0.319 0.356-0.319 0.895 0 1.251 0.286 0.319 7.156 7.812 15.761 7.812s15.475-7.494 15.761-7.812c0.319-0.356 0.319-0.895 0-1.251zM16 22.563c-3.618 0-6.563-2.944-6.563-6.563s2.944-6.563 6.563-6.563 6.563 2.944 6.563 6.563-2.944 6.563-6.563 6.563z"></path>
<path d="M16.938 14.125c0-0.943 0.468-1.773 1.18-2.283-0.639-0.327-1.352-0.529-2.118-0.529-2.585 0-4.688 2.103-4.688 4.688s2.103 4.688 4.688 4.688c2.314 0 4.229-1.69 4.608-3.897-1.888 0.608-3.67-0.82-3.67-2.665z"></path>
</svg>
