<!-- Generated by IcoMoon.io -->
<svg version="1.1" xmlns="http://www.w3.org/2000/svg" width="32" height="32" viewBox="0 0 32 32">
<title>fennel</title>
<path fill="#f0bc5e" d="M24.776 19.032c-0.477-1.669-0.719-3.396-0.719-5.132v-6.674h-2.065v1.862c0 1.158-0.209 2.307-0.615 3.391-0.611 1.629-1.651 3.063-3.010 4.15l-0.228 0.183-0.038 0.248-4.427-2.319c-1.601-0.838-2.755-2.333-3.161-4.094l-0.908-3.937h-2.581l1.079 5.395c0.312 1.561 0.469 3.148 0.469 4.74v4.316c0 4.346 3.36 7.901 7.623 8.226v0.001c0.002 0 0.004-0.001 0.006-0.001 0.208 0.016 0.417 0.032 0.629 0.032h0.109c4.501 0 8.149-3.649 8.149-8.149v0c0-0.757-0.105-1.511-0.313-2.238z"></path>
<path fill="#fff" d="M16.831 29.419c-0.213 0-0.421-0.016-0.63-0.032-0.002 0-0.004 0.001-0.006 0.001l0.635 0.031z"></path>
<path fill="#000" d="M25.605 21.27c0-0.805-0.112-1.606-0.333-2.38-0.463-1.624-0.699-3.302-0.699-4.99v-7.19h-3.097v2.378c0 1.1-0.196 2.18-0.582 3.21-0.147 0.391-0.32 0.771-0.518 1.136-0.296-0.916-0.449-1.867-0.449-2.838v-1.153l1.288-0.736-0.512-0.896-0.776 0.443v-1.286l1.858-1.394-0.619-0.826-1.239 0.929v-1.307l0.923-0.769 2.049 0.512 0.25-1.001-1.317-0.329 1.006-0.838-0.661-0.793-1.218 1.015v-2.167h-1.032v3.027l-1.032 0.86v2.609l-1.032-1.032v-1.637l1.397-1.397-0.73-0.73-0.667 0.667v-2.367h-1.032v0.819l-0.667-0.667-0.73 0.73 1.397 1.397v2.564l-1.032-0.516v-1.746h-1.032v1.229l-1.318-0.659-0.462 0.923 3.844 1.922v1.532l-1.183-1.183-0.73 0.73 1.913 1.913v2.329c0 0.998-0.16 1.983-0.475 2.929l-0.013 0.039c-0.693-1.697-1.060-3.528-1.060-5.359v-0.409l-3.097-2.323v2.731c0 1.145-0.142 2.28-0.415 3.387-0.346-0.541-0.606-1.141-0.754-1.782l-1.001-4.336h-3.621l1.203 6.012c0.305 1.525 0.459 3.085 0.459 4.639v4.316c0 3.349 1.888 6.264 4.654 7.742h-0.009v3.097h8.258v-3.060c2.758-1.452 4.645-4.343 4.645-7.67zM19.681 14.523c-0.468 0.633-1.016 1.207-1.636 1.702l-0.167 0.134-0.97-0.508 0.426-1.279c0.351-1.051 0.529-2.147 0.529-3.255v-0.695l1.032-0.59v0.563c0 1.357 0.268 2.677 0.786 3.929zM18.895 7.956v0.888l-1.032 0.59v-2.51l1.032 1.032zM13.218 8.258l1.033 0.774c0.015 2.107 0.482 4.211 1.347 6.132l-1.684-0.882c-0.502-0.263-0.952-0.601-1.347-0.99 0.426-1.418 0.651-2.885 0.651-4.367v-0.667zM9.089 21.161v-4.316c0-1.622-0.161-3.25-0.479-4.841l-0.955-4.778h1.541l0.816 3.537c0.441 1.909 1.689 3.526 3.425 4.435l4.871 2.551c1.955 1.025 3.17 3.032 3.17 5.24 0 2.932-2.109 5.374-4.961 5.833 2.015-0.971 3.413-3.028 3.413-5.411 0-0.885-0.189-1.74-0.554-2.519-0.119-0.29-0.278-0.581-0.472-0.865l-0.851 0.584c0.153 0.223 0.277 0.449 0.378 0.695 0.31 0.664 0.467 1.372 0.467 2.105 0 2.198-1.434 4.065-3.414 4.722 0.405-0.823 0.626-1.733 0.626-2.658 0-2.214-1.211-4.241-3.16-5.291l-0.489 0.909c1.614 0.87 2.617 2.549 2.617 4.381 0 1.057-0.326 2.054-0.938 2.902-0.034 0.002-0.067 0.004-0.101 0.005-2.891-1.123-4.947-3.936-4.947-7.22zM19.928 30.968h-6.194v-1.607c0.965 0.365 2.006 0.575 3.097 0.575h0.109c1.051 0 2.055-0.198 2.988-0.542v1.574zM20.205 28.169c1.422-1.275 2.303-3.126 2.303-5.181 0-2.559-1.39-4.89-3.635-6.106 1.341-1.125 2.372-2.581 2.987-4.222 0.43-1.146 0.648-2.348 0.648-3.572v-1.346h1.032v6.158c0 1.784 0.248 3.558 0.739 5.273 0.195 0.683 0.294 1.388 0.294 2.097 0 3.042-1.788 5.673-4.368 6.899z"></path>
<path fill="#000" d="M17.364 19.817l0.714-0.745c-0.392-0.376-0.833-0.697-1.31-0.954l-3.821-2.057-0.489 0.909 3.821 2.057c0.396 0.213 0.761 0.479 1.085 0.79z"></path>
</svg>
