<!-- Generated by IcoMoon.io -->
<svg version="1.1" xmlns="http://www.w3.org/2000/svg" width="32" height="32" viewBox="0 0 32 32">
<title>fish</title>
<path fill="#f9ba48" d="M15.849 6.6l-3.591 3.591-0.725-0.725 3.591-3.591 0.725 0.725z"></path>
<path fill="#f9ba48" d="M18.415 7.627l-6.156 6.156-0.725-0.725 6.156-6.156 0.725 0.725z"></path>
<path fill="#f9ba48" d="M20.468 9.165l-4.617 4.617-0.725-0.725 4.617-4.617 0.725 0.725z"></path>
<path fill="#f9ba48" d="M20.104 29.323c-4.235 0-9.452-0.551-12.23-4.851l-0.18-0.279 0.18-0.279c2.777-4.3 7.994-4.851 12.229-4.851 4.244 0 8.956 0.577 11.717 4.851l0.18 0.279-0.18 0.279c-2.76 4.275-7.472 4.851-11.716 4.851z"></path>
<path fill="#333" d="M31.39 5.726v-1.026c-2.999 0-5.707 1.496-7.697 4.229-1.943-2.649-4.886-4.538-8.206-5.339v-3.478l-4.298 3.070c-4.532 0.216-8.516 2.508-11.010 6.369l-0.18 0.279 0.18 0.279c1.79 2.772 4.349 4.735 7.325 5.703l0.059 0.088c0.009-0.006 0.033-0.023 0.068-0.047 0.797 0.251 1.624 0.432 2.473 0.537l-0.020 0.031 4.889 3.056v-3.296c3.527-0.724 6.676-2.665 8.719-5.449 1.989 2.733 4.698 4.229 7.696 4.229v-1.026c-1.999 0-3.078-2.115-3.078-4.104s1.079-4.104 3.078-4.104zM14.461 3.382c-0.504-0.086-1.014-0.148-1.53-0.184l1.53-1.093v1.276zM13.948 17.625l-1.814-1.133c0.611-0.010 1.216-0.055 1.814-0.135v1.269zM11.896 15.473c-1.151 0-2.265-0.147-3.331-0.424 0.975-0.969 2.305-2.742 2.305-5.219 0-1.079-0.068-2.225-0.56-3.293l-0.932 0.43c0.387 0.839 0.466 1.751 0.466 2.863 0 2.467-1.612 4.173-2.411 4.868-2.489-0.902-4.642-2.568-6.207-4.868 2.443-3.591 6.313-5.643 10.67-5.643 4.534 0 8.785 2.154 11.183 5.643-2.397 3.489-6.649 5.643-11.183 5.643zM27.286 9.83c0 1.228 0.351 2.494 1.026 3.461-1.527-0.667-2.893-1.84-4.002-3.461 1.109-1.621 2.475-2.794 4.002-3.461-0.676 0.967-1.026 2.233-1.026 3.461z"></path>
<path fill="#333" d="M6.253 7.265c-0.848 0-1.539 0.69-1.539 1.539s0.69 1.539 1.539 1.539 1.539-0.69 1.539-1.539-0.69-1.539-1.539-1.539zM6.253 9.317c-0.283 0-0.513-0.23-0.513-0.513s0.23-0.513 0.513-0.513 0.513 0.23 0.513 0.513-0.23 0.513-0.513 0.513z"></path>
<path fill="#333" d="M0.61 20.602v1.026c1.957 0 2.565 1.88 2.565 2.565s-0.608 2.565-2.565 2.565v1.026c3.696 0 6.344-0.554 8.126-3.312l0.18-0.279-0.18-0.278c-1.781-2.759-4.43-3.313-8.126-3.313zM3.225 26.619c0.674-0.769 0.977-1.753 0.977-2.425s-0.303-1.656-0.977-2.425c1.927 0.253 3.372 0.909 4.46 2.425-1.088 1.516-2.533 2.172-4.46 2.425z"></path>
<path fill="#333" d="M22.156 24.193c0-1.015 0.419-1.864 0.813-2.149l-0.6-0.832c-0.741 0.535-1.239 1.732-1.239 2.98 0 3.192 2.637 4.413 4.031 4.612l0.145-1.016c-0.128-0.018-3.15-0.486-3.15-3.596z"></path>
<path fill="#333" d="M25.747 21.628c-0.848 0-1.539 0.69-1.539 1.539s0.69 1.539 1.539 1.539 1.539-0.69 1.539-1.539-0.69-1.539-1.539-1.539zM25.747 23.68c-0.283 0-0.513-0.23-0.513-0.513s0.23-0.513 0.513-0.513 0.513 0.23 0.513 0.513-0.23 0.513-0.513 0.513z"></path>
<path fill="#333" d="M18.066 16.499c-0.856 0-1.552 0.696-1.552 1.552v2.039h1.026v-2.039c0-0.29 0.236-0.526 0.526-0.526 0.161 0 0.31 0.072 0.411 0.198l1.74 2.175 0.801-0.641-1.741-2.175c-0.296-0.37-0.738-0.583-1.212-0.583z"></path>
<path fill="#333" d="M19.034 30.694c-0.107 0.107-0.255 0.168-0.407 0.168-0.317 0-0.575-0.258-0.575-0.575v-1.99h-1.026v1.99c0 0.883 0.718 1.601 1.601 1.601 0.422 0 0.834-0.171 1.132-0.469l2.246-2.246-0.725-0.725-2.246 2.246z"></path>
<path fill="#333" d="M19.078 23.68h1.026v1.026h-1.026v-1.026z"></path>
<path fill="#333" d="M17.026 23.68h1.026v1.026h-1.026v-1.026z"></path>
<path fill="#333" d="M14.974 23.68h1.026v1.026h-1.026v-1.026z"></path>
<path fill="#333" d="M12.922 23.68h1.026v1.026h-1.026v-1.026z"></path>
<path fill="#333" d="M10.87 23.68h1.026v1.026h-1.026v-1.026z"></path>
<path fill="#333" d="M20.104 21.628h1.026v1.026h-1.026v-1.026z"></path>
<path fill="#333" d="M18.052 21.628h1.026v1.026h-1.026v-1.026z"></path>
<path fill="#333" d="M16 21.628h1.026v1.026h-1.026v-1.026z"></path>
<path fill="#333" d="M13.948 21.628h1.026v1.026h-1.026v-1.026z"></path>
<path fill="#333" d="M11.896 21.628h1.026v1.026h-1.026v-1.026z"></path>
<path fill="#333" d="M20.104 25.732h1.026v1.026h-1.026v-1.026z"></path>
<path fill="#333" d="M18.052 25.732h1.026v1.026h-1.026v-1.026z"></path>
<path fill="#333" d="M16 25.732h1.026v1.026h-1.026v-1.026z"></path>
<path fill="#333" d="M13.948 25.732h1.026v1.026h-1.026v-1.026z"></path>
<path fill="#333" d="M11.896 25.732h1.026v1.026h-1.026v-1.026z"></path>
</svg>
