<!-- Generated by IcoMoon.io -->
<svg version="1.1" xmlns="http://www.w3.org/2000/svg" width="32" height="32" viewBox="0 0 32 32">
<title>football</title>
<path d="M15.433 22.926l-5.049-2.914-5.235 3.016v4.721c1.748 1.613 3.833 2.817 6.103 3.525l4.181-2.413z"></path>
<path d="M21.787 19.919l-5.212 3.008 0.003 5.841 4.282 2.471c2.232-0.706 4.28-1.896 5.999-3.485l-0.004-4.911z"></path>
<path d="M4.006 26.583v-3.536l-3.105-1.79c0.677 1.961 1.732 3.77 3.105 5.326z"></path>
<path d="M9.719 18.972v-5.848l-5.16-2.98-4.177 2.406c-0.519 2.346-0.5 4.778 0.057 7.115l4.035 2.33z"></path>
<path d="M31.568 12.336l-4.035-2.33-5.244 3.024 0.003 5.851 5.159 2.977 4.176-2.407c0.519-2.345 0.499-4.778-0.058-7.115z"></path>
<path d="M29.855 23.999c0.545-0.943 0.993-1.94 1.337-2.974l-3.19 1.838 0.003 3.719c0.7-0.798 1.32-1.662 1.85-2.582z"></path>
<path d="M28.002 5.419v3.536l3.105 1.79c-0.677-1.961-1.732-3.771-3.105-5.326z"></path>
<path d="M5.149 4.247l0.003 4.913 5.069 2.925 5.212-3.011v-5.843l-4.28-2.469c-2.234 0.705-4.284 1.895-6.003 3.485z"></path>
<path d="M19.284 31.655l-3.199-1.846-3.249 1.875c2.128 0.432 4.323 0.422 6.448-0.028z"></path>
<path d="M2.153 8.002c-0.545 0.944-0.993 1.94-1.337 2.974l3.19-1.837v-3.719c-0.701 0.798-1.322 1.662-1.853 2.582z"></path>
<path d="M15.924 2.193l3.25-1.875c-1.034-0.211-2.087-0.317-3.142-0.318-1.109 0.002-2.214 0.119-3.299 0.35z"></path>
<path d="M10.862 13.123l0.003 5.847 5.060 2.92 5.221-3.010-0.003-5.85-5.058-2.92z"></path>
<path d="M26.859 8.974v-4.721c-1.748-1.614-3.835-2.818-6.107-3.522l-4.176 2.411 0.003 5.935 5.049 2.914z"></path>
</svg>
