<!-- Generated by IcoMoon.io -->
<svg version="1.1" xmlns="http://www.w3.org/2000/svg" width="32" height="32" viewBox="0 0 32 32">
<title>friends</title>
<path d="M9.708 3.571c-3.221 0-5.841 2.778-5.841 6.193s2.62 6.193 5.841 6.193 5.841-2.778 5.841-6.193c0-3.415-2.62-6.193-5.841-6.193z"></path>
<path d="M22.987 4.458c-0.013 0-0.027 0-0.040 0-1.352 0.011-2.614 0.582-3.555 1.607-0.924 1.007-1.427 2.336-1.415 3.741s0.536 2.725 1.477 3.717c0.948 0.999 2.204 1.548 3.541 1.548 0.013 0 0.027-0 0.040-0 1.352-0.011 2.614-0.582 3.555-1.607 0.924-1.007 1.427-2.336 1.415-3.741-0.024-2.912-2.271-5.265-5.018-5.265z"></path>
<path d="M23.234 16.085h-0.485c-2.259 0-4.32 0.859-5.876 2.266 0.389 0.299 0.76 0.624 1.111 0.976 1.036 1.036 1.85 2.244 2.419 3.589 0.512 1.211 0.805 2.488 0.873 3.802h10.724v-1.867c0-4.833-3.933-8.766-8.766-8.766z"></path>
<path d="M19.397 26.717c-0.177-2.849-1.621-5.356-3.777-6.962-1.568-1.169-3.513-1.861-5.62-1.861h-0.584c-5.201 0-9.416 4.216-9.416 9.416v1.117h19.416v-1.117c0-0.199-0.006-0.398-0.019-0.594z"></path>
</svg>
