<!-- Generated by IcoMoon.io -->
<svg version="1.1" xmlns="http://www.w3.org/2000/svg" width="32" height="32" viewBox="0 0 32 32">
<title>fried-egg</title>
<path fill="#333" d="M26.99 13.268c-1.7-1.7-1.7-3.458-1.7-5.010 0-0.604-0.213-0.973-0.634-1.098l0.293-0.99c0.872 0.259 1.373 1.020 1.373 2.088 0 1.482 0 2.883 1.397 4.28l-0.729 0.73z"></path>
<path fill="#333" d="M27.621 20.055l-0.532-0.885c0.969-0.582 1.705-1.753 1.791-2.849 0.043-0.557-0.064-1.354-0.824-1.991l0.663-0.791c0.855 0.717 1.278 1.733 1.19 2.863-0.112 1.43-1.032 2.898-2.288 3.653z"></path>
<path fill="#333" d="M3.843 19.526c-0.86-0.573-1.78-1.761-1.768-3.015 0.008-0.759 0.138-1.887 1.171-2.937l0.736 0.724c-0.763 0.775-0.868 1.596-0.874 2.225-0.008 0.822 0.668 1.719 1.308 2.146l-0.573 0.859z"></path>
<path fill="#333" d="M5.688 9.391c-0.232-1.158-0.113-2.034 0.353-2.601 0.475-0.58 1.114-0.597 1.186-0.597l0.011 1.032c-0.010 0.001-0.241 0.014-0.41 0.232-0.244 0.312-0.289 0.927-0.128 1.731l-1.012 0.202z"></path>
<path fill="#333" d="M23.973 26.785l-0.462-0.923 0.231 0.461-0.235-0.459c0.212-0.113 0.533-0.373 0.29-0.858l0.923-0.462c0.548 1.097-0.147 1.941-0.747 2.242z"></path>
<path fill="#f9ba48" d="M23.226 18.065c0 3.991-3.235 7.226-7.226 7.226s-7.226-3.235-7.226-7.226c0-3.991 3.235-7.226 7.226-7.226s7.226 3.235 7.226 7.226z"></path>
<path fill="#333" d="M16 22.194c-2.277 0-4.129-1.852-4.129-4.129h1.032c0 1.708 1.389 3.097 3.097 3.097v1.032z"></path>
<path fill="#333" d="M16 32c-0.993 0-1.897-0.453-2.48-1.242-0.934-1.266-2.278-1.855-4.23-1.855-2.393 0-4.129-1.519-4.129-3.613 0-1.775-0.9-2.732-2.351-3.7-1.812-1.208-2.81-3.011-2.81-5.075 0-1.803 0.765-3.535 2.213-5.007 1.165-1.185 1.4-1.818 1.4-3.767 0-2.127 1.698-3.613 4.129-3.613 1.988 0 3.585-0.798 4.746-2.371 0.923-1.249 1.94-1.758 3.512-1.758s2.59 0.509 3.512 1.758c1.161 1.573 2.758 2.371 4.746 2.371 2.431 0 4.129 1.486 4.129 3.613 0 1.949 0.235 2.583 1.4 3.767 1.448 1.473 2.213 3.204 2.213 5.007 0 2.064-0.998 3.866-2.81 5.075-1.451 0.968-2.351 1.924-2.351 3.7 0 2.093-1.736 3.613-4.129 3.613-1.951 0-3.296 0.589-4.23 1.855-0.583 0.789-1.487 1.242-2.48 1.242zM16 1.032c-1.416 0-2.055 0.491-2.681 1.339-1.348 1.826-3.276 2.79-5.577 2.79-1.541 0-3.097 0.798-3.097 2.581 0 2.197-0.349 3.121-1.697 4.491-1.272 1.293-1.916 2.734-1.916 4.283 0 1.708 0.835 3.205 2.351 4.216 1.46 0.973 2.81 2.199 2.81 4.558 0 1.519 1.274 2.581 3.097 2.581 2.275 0 3.93 0.744 5.061 2.274 0.386 0.523 0.987 0.823 1.649 0.823s1.263-0.3 1.649-0.823c1.13-1.53 2.785-2.274 5.061-2.274 1.823 0 3.097-1.061 3.097-2.581 0-2.359 1.351-3.585 2.81-4.558 1.516-1.011 2.351-2.507 2.351-4.216 0-1.549-0.645-2.99-1.916-4.283-1.348-1.37-1.697-2.294-1.697-4.491 0-1.783-1.556-2.581-3.097-2.581-2.3 0-4.229-0.965-5.577-2.79-0.626-0.848-1.266-1.339-2.681-1.339z"></path>
</svg>
