<!-- Generated by IcoMoon.io -->
<svg version="1.1" xmlns="http://www.w3.org/2000/svg" width="32" height="32" viewBox="0 0 32 32">
<title>fruits</title>
<path fill="#f0bc5e" d="M14.452 20.387c0 0.855-0.693 1.548-1.548 1.548s-1.548-0.693-1.548-1.548 0.693-1.548 1.548-1.548 1.548 0.693 1.548 1.548z"></path>
<path fill="#f0bc5e" d="M11.355 21.419c0 0.855-0.693 1.548-1.548 1.548s-1.548-0.693-1.548-1.548 0.693-1.548 1.548-1.548 1.548 0.693 1.548 1.548z"></path>
<path fill="#f0bc5e" d="M11.871 18.323c0 0.855-0.693 1.548-1.548 1.548s-1.548-0.693-1.548-1.548 0.693-1.548 1.548-1.548 1.548 0.693 1.548 1.548z"></path>
<path fill="#f0bc5e" d="M8.258 21.935c0 0.855-0.693 1.548-1.548 1.548s-1.548-0.693-1.548-1.548 0.693-1.548 1.548-1.548 1.548 0.693 1.548 1.548z"></path>
<path fill="#f0bc5e" d="M8.774 18.839c0 0.855-0.693 1.548-1.548 1.548s-1.548-0.693-1.548-1.548 0.693-1.548 1.548-1.548 1.548 0.693 1.548 1.548z"></path>
<path fill="#f0bc5e" d="M9.806 15.742c0 0.855-0.693 1.548-1.548 1.548s-1.548-0.693-1.548-1.548 0.693-1.548 1.548-1.548 1.548 0.693 1.548 1.548z"></path>
<path fill="#f0bc5e" d="M5.677 19.871c0 0.855-0.693 1.548-1.548 1.548s-1.548-0.693-1.548-1.548 0.693-1.548 1.548-1.548 1.548 0.693 1.548 1.548z"></path>
<path fill="#f0bc5e" d="M6.71 16.258c0 0.855-0.693 1.548-1.548 1.548s-1.548-0.693-1.548-1.548 0.693-1.548 1.548-1.548 1.548 0.693 1.548 1.548z"></path>
<path fill="#f0bc5e" d="M3.613 17.29c0 0.855-0.693 1.548-1.548 1.548s-1.548-0.693-1.548-1.548 0.693-1.548 1.548-1.548 1.548 0.693 1.548 1.548z"></path>
<path fill="#f0bc5e" d="M25.53 8.974c-0.147-0.281-0.438-0.457-0.756-0.457s-0.609 0.176-0.756 0.457l-4.722 9.014c1.088 1.108 2.907 2.4 5.477 2.4s4.389-1.292 5.477-2.4z"></path>
<path fill="#f0bc5e" d="M16 8.516h-1.548c-3.13 0-5.677-2.547-5.677-5.677v-0.516h1.548c3.13 0 5.677 2.547 5.677 5.677z"></path>
<path fill="#000" d="M29.106 21.419c1.458-0.762 2.212-1.677 2.265-1.742l0.21-0.264-5.594-10.68c-0.237-0.453-0.702-0.734-1.213-0.734s-0.976 0.281-1.213 0.734l-1.875 3.581c-1.219-1.562-3.003-2.54-4.981-2.729 0.382-2.166 1.336-4.206 2.783-5.895l-0.783-0.671c-1.603 1.869-2.643 4.138-3.038 6.543-2.787 0.13-5.262 1.879-6.331 4.427-0.315-0.195-0.682-0.312-1.079-0.312-0.754 0-1.407 0.41-1.768 1.014-0.36-0.306-0.82-0.498-1.329-0.498-0.151 0-0.297 0.018-0.438 0.049 0.079-0.549 0.215-1.088 0.422-1.602 0.276 0.327 0.682 0.52 1.124 0.52 0.813 0 1.473-0.661 1.473-1.473v-0.15c0-0.813-0.661-1.474-1.523-1.474-0.387 0-0.757 0.155-1.028 0.419-0.358-0.85-0.546-1.773-0.546-2.695v-0.821h-1.032v0.821c0 1.231 0.291 2.462 0.841 3.564l0.078 0.156c-0.465 0.883-0.758 1.844-0.868 2.834-0.373-1.218-0.567-2.479-0.567-3.762v-0.516h-3.097v0.516c0 1.754 0.669 3.402 1.879 4.664-1.050 0.095-1.879 0.971-1.879 2.046 0 1.139 0.926 2.065 2.065 2.065 0.026 0 0.050-0.007 0.076-0.008-0.045 0.168-0.076 0.342-0.076 0.524 0 0.62 0.28 1.17 0.713 1.548h-2.778v0.516c0 2.778 2.007 5.092 4.645 5.579v2.163h22.71v-2.163c2.638-0.487 4.645-2.801 4.645-5.579v-0.516zM5.841 11.311c0.080-0.132 0.225-0.214 0.428-0.214 0.243 0 0.441 0.198 0.441 0.441v0.15c0 0.243-0.198 0.441-0.441 0.441-0.168 0-0.319-0.094-0.394-0.244l-0.172-0.343zM24.476 9.213c0.117-0.223 0.48-0.223 0.597 0l5.269 10.059c-0.61 0.606-2.468 2.148-5.568 2.148-3.122 0-4.961-1.537-5.569-2.146zM15.534 10.6c-0.031 0.373-0.050 0.749-0.050 1.126v0.768c-0.366-0.217-0.569-0.594-0.572-0.599l-0.922 0.465c0.026 0.053 0.674 1.317 2.010 1.317s1.983-1.264 2.010-1.318l-0.922-0.464c-0.003 0.005-0.206 0.382-0.572 0.599v-0.767c0-0.372 0.017-0.742 0.051-1.11 1.868 0.168 3.531 1.156 4.579 2.73l-3.178 6.067 0.21 0.264c0.052 0.065 0.807 0.98 2.265 1.742h-5.762c0.178-0.305 0.287-0.654 0.287-1.032 0-1.139-0.926-2.065-2.065-2.065-0.182 0-0.356 0.031-0.524 0.076 0.001-0.026 0.008-0.050 0.008-0.076 0-1.139-0.926-2.065-2.065-2.065-0.026 0-0.050 0.007-0.076 0.008 0.045-0.168 0.076-0.342 0.076-0.524 0-0.319-0.078-0.617-0.208-0.887 0.776-2.378 2.939-4.066 5.419-4.255zM8.258 18.839c0 0.569-0.463 1.032-1.032 1.032s-1.032-0.463-1.032-1.032 0.463-1.032 1.032-1.032 1.032 0.463 1.032 1.032zM10.323 19.355c-0.569 0-1.032-0.463-1.032-1.032s0.463-1.032 1.032-1.032 1.032 0.463 1.032 1.032-0.463 1.032-1.032 1.032zM5.161 19.871c0 0.569-0.463 1.032-1.032 1.032s-1.032-0.463-1.032-1.032 0.463-1.032 1.032-1.032 1.032 0.463 1.032 1.032zM6.71 20.903c0.569 0 1.032 0.463 1.032 1.032s-0.463 1.032-1.032 1.032-1.032-0.463-1.032-1.032 0.463-1.032 1.032-1.032zM9.806 20.387c0.569 0 1.032 0.463 1.032 1.032s-0.463 1.032-1.032 1.032-1.032-0.463-1.032-1.032 0.463-1.032 1.032-1.032zM11.871 20.387c0-0.569 0.463-1.032 1.032-1.032s1.032 0.463 1.032 1.032-0.463 1.032-1.032 1.032-1.032-0.463-1.032-1.032zM8.258 14.71c0.569 0 1.032 0.463 1.032 1.032s-0.463 1.032-1.032 1.032-1.032-0.463-1.032-1.032 0.463-1.032 1.032-1.032zM6.194 16.258c0 0.569-0.463 1.032-1.032 1.032s-1.032-0.463-1.032-1.032 0.463-1.032 1.032-1.032 1.032 0.463 1.032 1.032zM2.074 11.097c0.043 1.179 0.234 2.337 0.57 3.462-0.92-0.948-1.474-2.16-1.59-3.462zM1.032 17.29c0-0.569 0.463-1.032 1.032-1.032s1.032 0.463 1.032 1.032-0.463 1.032-1.032 1.032-1.032-0.463-1.032-1.032zM26.323 26.581h-2.065v1.032h2.065v1.032h-20.645v-1.032h17.548v-1.032h-17.548c-2.387 0-4.359-1.809-4.616-4.129h3.657c0.231 0.888 1.032 1.548 1.991 1.548 0.754 0 1.407-0.41 1.768-1.014 0.36 0.306 0.82 0.498 1.329 0.498 0.761 0 1.419-0.418 1.777-1.032h19.355c-0.258 2.32-2.23 4.129-4.617 4.129z"></path>
<path fill="#000" d="M24.258 12.645h1.032v1.032h-1.032z"></path>
<path fill="#000" d="M26.839 16.258h1.032v1.032h-1.032z"></path>
<path fill="#000" d="M21.677 16.258h1.032v1.032h-1.032z"></path>
</svg>
