<!-- Generated by IcoMoon.io -->
<svg version="1.1" xmlns="http://www.w3.org/2000/svg" width="32" height="32" viewBox="0 0 32 32">
<title>garlic</title>
<path fill="#f0bc5e" d="M15.165 16.068c-0.020-0.003-0.040-0.005-0.059-0.007-1.675-0.189-3.107-1.348-3.452-2.998-0.197-0.939-0.298-1.903-0.298-2.877v-1.254c0-1.793 0.342-3.569 1.008-5.234l0.024-0.060-2.064-1.032-2.064 1.032 0.024 0.060c0.666 1.665 1.008 3.441 1.008 5.234v1.254c0 0.974-0.101 1.939-0.298 2.878-0.345 1.651-1.777 2.809-3.452 2.998-0.020 0.002-0.040 0.005-0.059 0.007-2.582 0.318-4.664 2.437-4.933 5.024-0.355 3.408 2.31 6.286 5.646 6.286 0.342 0 0.676-0.036 1.001-0.093 0.757 1.319 1.877 2.158 3.128 2.158s2.371-0.839 3.128-2.158c0.326 0.058 0.659 0.093 1.001 0.093 3.336 0 6-2.878 5.645-6.286-0.269-2.588-2.35-4.706-4.933-5.024z"></path>
<path fill="#000" d="M15.227 15.556l-0.065-0.008c-1.509-0.17-2.717-1.211-3.005-2.591-0.19-0.91-0.286-1.843-0.286-2.772v-1.254c0-1.735 0.327-3.432 0.971-5.042l0.201-0.501-2.72-1.36-2.72 1.36 0.201 0.501c0.645 1.611 0.971 3.307 0.971 5.042v1.254c0 0.929-0.097 1.862-0.287 2.773-0.289 1.38-1.496 2.421-3.012 2.591l-0.058 0.007c-2.825 0.348-5.089 2.654-5.384 5.484-0.185 1.78 0.367 3.488 1.557 4.807 1.174 1.302 2.851 2.048 4.602 2.048 0.241 0 0.485-0.015 0.74-0.048 0.873 1.347 2.093 2.112 3.389 2.112s2.516-0.765 3.389-2.112c0.254 0.032 0.499 0.048 0.74 0.048 1.751 0 3.429-0.746 4.602-2.048 1.19-1.32 1.742-3.027 1.557-4.807-0.295-2.83-2.558-5.136-5.384-5.484zM18.287 25.155c-0.978 1.085-2.376 1.707-3.835 1.707-0.288 0-0.586-0.028-0.91-0.086l-0.357-0.063-0.181 0.314c-0.693 1.207-1.669 1.899-2.68 1.899s-1.988-0.692-2.68-1.899l-0.181-0.314-0.357 0.063c-0.324 0.057-0.622 0.086-0.91 0.086-1.46 0-2.857-0.622-3.835-1.707-0.991-1.1-1.452-2.524-1.297-4.010 0.245-2.356 2.13-4.276 4.483-4.566l0.054-0.006c1.952-0.22 3.52-1.589 3.9-3.406 0.203-0.979 0.307-1.983 0.307-2.983v-1.254c0-1.729-0.302-3.423-0.898-5.042l1.414-0.707 1.414 0.707c-0.596 1.618-0.898 3.312-0.898 5.042v1.254c0 1 0.104 2.004 0.309 2.984 0.38 1.817 1.947 3.185 3.904 3.406l0.050 0.006c2.352 0.29 4.237 2.21 4.483 4.566 0.154 1.485-0.307 2.909-1.297 4.009z"></path>
<path fill="#000" d="M2.089 21.252c-0.124 1.191 0.244 2.331 1.037 3.211l0.766-0.691c-0.595-0.66-0.871-1.517-0.777-2.414 0.088-0.85 0.58-1.669 1.313-2.19l-0.598-0.842c-0.986 0.701-1.621 1.767-1.742 2.925z"></path>
<path fill="#000" d="M16.815 18.332l-0.597 0.843c0.734 0.52 1.225 1.336 1.312 2.184 0.093 0.896-0.183 1.753-0.777 2.414l0.766 0.691c0.793-0.88 1.161-2.020 1.037-3.211-0.12-1.157-0.755-2.22-1.742-2.92z"></path>
<path fill="#000" d="M9.807 17.068h1.032v4.129h-1.032v-4.129z"></path>
<path fill="#000" d="M9.807 23.262h1.032v4.129h-1.032v-4.129z"></path>
<path fill="#000" d="M5.678 23.25c0 0.737 0.086 1.472 0.255 2.184l1.004-0.239c-0.151-0.634-0.227-1.288-0.227-1.945 0-1.43 0.349-2.803 0.984-3.864l-0.886-0.529c-0.729 1.219-1.13 2.78-1.13 4.393z"></path>
<path fill="#000" d="M12.952 19.385c0.635 1.062 0.984 2.434 0.984 3.865 0 0.657-0.076 1.311-0.227 1.945l1.004 0.239c0.169-0.713 0.255-1.448 0.255-2.184 0-1.613-0.402-3.174-1.13-4.394l-0.886 0.529z"></path>
<path fill="#000" d="M26.819 16.691c0.013-0.119 0.020-0.238 0.020-0.358 0-0.642-0.188-1.263-0.544-1.798l-0.574-0.862-0.859 0.572 0.574 0.862c0.243 0.364 0.371 0.788 0.371 1.225 0 0.383-0.101 0.762-0.291 1.096l-2.234 3.909c-1.050 1.836-1.605 3.926-1.605 6.042v0.276l3.437 2.292 0.133 0.011c0.028 0.003 0.191 0.015 0.45 0.015 0.94 0 3.143-0.166 4.691-1.59 1.069-0.984 1.611-2.363 1.611-4.1 0-5.102-3.968-7.1-5.181-7.591zM29.694 27.618c-0.889 0.82-2.091 1.134-3.008 1.252 0.596-0.244 1.195-0.589 1.712-1.086l-0.715-0.745c-0.888 0.853-2.11 1.176-2.98 1.296l-0.119 0.017-1.871-1.247c0.045-1.842 0.55-3.654 1.465-5.256l2.081-3.643c1.267 0.99 2.643 2.716 2.643 5.547 0 0.743-0.116 1.408-0.343 1.976l0.958 0.384c0.277-0.691 0.417-1.485 0.417-2.36 0-2.293-0.793-3.951-1.771-5.131 1.317 0.98 2.803 2.73 2.803 5.659 0 1.434-0.429 2.557-1.274 3.336z"></path>
</svg>
