<!-- Generated by IcoMoon.io -->
<svg version="1.1" xmlns="http://www.w3.org/2000/svg" width="32" height="32" viewBox="0 0 32 32">
<title>gingerbread</title>
<path fill="#f0bc5e" d="M24.259 12.903h2.065v4.129h-2.065v-4.129z"></path>
<path fill="#f0bc5e" d="M5.678 12.903h2.065v4.129h-2.065v-4.129z"></path>
<path fill="#000" d="M16.004 11.499c-0.667 0-1.024-0.228-1.311-0.412-0.235-0.15-0.39-0.249-0.756-0.249h-0.518v-1.032h0.518c0.667 0 1.025 0.228 1.311 0.412 0.234 0.15 0.389 0.249 0.755 0.249s0.519-0.099 0.753-0.249c0.287-0.184 0.644-0.412 1.31-0.412h0.514v1.032h-0.514c-0.365 0-0.519 0.099-0.753 0.249-0.286 0.184-0.643 0.412-1.31 0.412z"></path>
<path fill="#f0bc5e" d="M6.968 31.484h4.626c0.751 0 1.388-0.553 1.495-1.297l0.036-0.252h-0.221c-1.031 0-1.031-0.661-2.062-0.661s-1.031 0.661-2.063 0.661c-1.033 0-1.033-0.661-2.066-0.661s-1.033 0.661-2.067 0.661h-0.204c0.47 0.919 1.424 1.548 2.526 1.548z"></path>
<path fill="#f0bc5e" d="M25.033 31.484c1.102 0 2.056-0.63 2.526-1.548h-0.204c-1.031 0-1.031-0.661-2.062-0.661s-1.031 0.661-2.063 0.661c-1.033 0-1.033-0.661-2.066-0.661s-1.033 0.661-2.067 0.661h-0.221l0.036 0.252c0.106 0.744 0.743 1.297 1.495 1.297h4.626z"></path>
<path fill="#f0bc5e" d="M17.033 16c0 0.57-0.462 1.032-1.032 1.032s-1.032-0.462-1.032-1.032c0-0.57 0.462-1.032 1.032-1.032s1.032 0.462 1.032 1.032z"></path>
<path fill="#f0bc5e" d="M17.033 20.645c0 0.57-0.462 1.032-1.032 1.032s-1.032-0.462-1.032-1.032c0-0.57 0.462-1.032 1.032-1.032s1.032 0.462 1.032 1.032z"></path>
<path fill="#000" d="M11.872 6.194h1.032v1.032h-1.032v-1.032z"></path>
<path fill="#000" d="M25.033 32h-4.626c-1.002 0-1.864-0.748-2.006-1.739l-0.555-3.885c-0.131-0.913-0.924-1.601-1.846-1.601s-1.715 0.688-1.846 1.601l-0.555 3.885c-0.142 0.991-1.004 1.739-2.006 1.739h-4.626c-1.85 0-3.355-1.505-3.355-3.355s1.505-3.355 3.355-3.355c0.492 0 0.905-0.353 0.982-0.839l1.090-6.903h-4.91c-0.726 0-1.421-0.308-1.91-0.845-0.488-0.537-0.728-1.261-0.659-1.987 0.125-1.306 1.292-2.329 2.658-2.329h5.59c-1.006-1.333-1.55-2.946-1.55-4.645 0-4.269 3.473-7.742 7.742-7.742 0.43 0 0.87 0.040 1.345 0.123l0.682 0.119-0.309 0.619c-0.112 0.225-0.169 0.456-0.169 0.686 0 0.566 0.316 1.086 0.824 1.358l0.518 0.278-0.343 0.478c-0.316 0.441-0.483 0.96-0.483 1.499 0 1.423 1.158 2.581 2.581 2.581 0.153 0 0.314-0.015 0.477-0.046l0.487-0.091 0.11 0.484c0.141 0.616 0.656 1.091 1.282 1.182l0.589 0.086-0.168 0.571c-0.262 0.889-0.682 1.724-1.234 2.461h5.594c1.366 0 2.533 1.023 2.657 2.329 0.069 0.726-0.171 1.45-0.659 1.987s-1.183 0.845-1.909 0.845h-4.91l1.090 6.903c0.077 0.486 0.49 0.839 0.982 0.839 1.85 0 3.355 1.505 3.355 3.355s-1.505 3.355-3.355 3.355zM16.001 23.742c1.432 0 2.665 1.069 2.867 2.487l0.555 3.885c0.070 0.487 0.492 0.854 0.984 0.854h4.626c1.281 0 2.323-1.042 2.323-2.323s-1.042-2.323-2.323-2.323c-1.003 0-1.845-0.719-2.002-1.71l-1.278-8.097h6.118c0.435 0 0.853-0.185 1.146-0.507 0.297-0.327 0.437-0.75 0.395-1.194-0.075-0.782-0.791-1.395-1.63-1.395h-7.995l0.904-0.885c0.691-0.676 1.228-1.498 1.573-2.403-0.623-0.253-1.132-0.745-1.402-1.364-2.103 0.13-3.83-1.542-3.83-3.606 0-0.58 0.138-1.142 0.401-1.651-0.575-0.485-0.917-1.198-0.917-1.962 0-0.164 0.017-0.328 0.049-0.489-0.193-0.018-0.381-0.027-0.565-0.027-3.7 0-6.71 3.010-6.71 6.71 0 1.817 0.717 3.518 2.019 4.792l0.904 0.885h-7.995c-0.839 0-1.555 0.613-1.63 1.395-0.042 0.443 0.098 0.868 0.395 1.194 0.293 0.323 0.711 0.508 1.146 0.508h6.118l-1.278 8.097c-0.156 0.99-0.998 1.71-2.001 1.71-1.281 0-2.323 1.042-2.323 2.323s1.042 2.323 2.323 2.323h4.626c0.491 0 0.915-0.367 0.984-0.853l0.555-3.885c0.202-1.418 1.435-2.487 2.868-2.487z"></path>
</svg>
