<!-- Generated by IcoMoon.io -->
<svg version="1.1" xmlns="http://www.w3.org/2000/svg" width="32" height="32" viewBox="0 0 32 32">
<title>ginkgo</title>
<path fill="#f0bc5e" d="M15.893 18.051c-0.14 0-0.28-0.057-0.381-0.17-2.889-3.21-6.848-5.204-11.148-5.613l-3.9-0.372c-0.264-0.025-0.465-0.246-0.465-0.51 0-2.827 2.3-5.127 5.127-5.127v0c0.024-3.397 2.794-6.152 6.196-6.152 0.735 0 1.457 0.2 2.087 0.578 1.216 0.73 1.971 2.063 1.971 3.48v3.632c0 0.283 0.23 0.513 0.513 0.513s0.513-0.23 0.513-0.513v-3.552c0-2.281 1.856-4.138 4.138-4.138 1.105 0 2.145 0.431 2.926 1.212l1.355 1.355c3.425 0.1 6.291 2.588 6.857 5.989l0.098 0.589c0.025 0.149-0.017 0.3-0.115 0.416-0.097 0.115-0.24 0.181-0.391 0.181-3.842 0-7.538 1.406-10.41 3.958l-4.63 4.115c-0.097 0.087-0.219 0.13-0.34 0.13z"></path>
<path fill="#000" d="M13.115 11.971c-2.593-1.547-5.439-2.478-8.46-2.765l-1.309-0.125-0.097 1.021 1.309 0.125c2.868 0.273 5.57 1.157 8.031 2.625l0.525-0.881z"></path>
<path fill="#000" d="M19.501 12.273c1.772-1.575 3.805-2.761 6.033-3.522l0.612-0.196-0.312-0.977-0.621 0.199c-2.367 0.809-4.518 2.063-6.392 3.729l0.681 0.766z"></path>
<path fill="#000" d="M28.113 8.081l-0.182-1.009c-0.322 0.058-0.642 0.125-0.959 0.199l0.235 0.998c0.299-0.071 0.601-0.133 0.905-0.188z"></path>
<path fill="#000" d="M31.486 16.689c-0.514-1.284-1.704-2.137-3.069-2.22l-0.189-0.189c-0.543-0.543-1.266-0.843-2.035-0.843-0.445 0-0.889 0.105-1.287 0.303l-0.297 0.149-0.446-0.223c-0.3-0.15-0.636-0.229-0.972-0.229-1.174 0-2.134 0.937-2.171 2.102-1.169 0.237-2.052 1.274-2.052 2.512v0.513h1.991c1.43 0 2.779 0.677 3.644 1.81-0.025 1.697-0.693 3.29-1.896 4.493-1.226 1.226-2.855 1.901-4.588 1.901h-1.714v-13.33h-1.025v12.517c-0.872-1.997-2.052-3.846-3.501-5.471 0.267-0.404 0.425-0.887 0.425-1.407 0-1.413-1.15-2.563-2.563-2.563s-2.563 1.15-2.563 2.563c0 0.601 0.216 1.147 0.564 1.585-1.194 0.218-2.103 1.261-2.103 2.517 0 1.413 1.15 2.563 2.563 2.563 0.879 0 1.655-0.446 2.118-1.122 2.215 1.169 4.016 3.050 5.060 5.345v1.929h1.025v-4.101h1.714c2.007 0 3.894-0.781 5.313-2.201 1.405-1.405 2.182-3.268 2.198-5.252l0.118-0.163c0.758-1.042 1.927-1.722 3.207-1.864l3.044-0.338-0.514-1.284zM9.741 17.538c0.848 0 1.538 0.69 1.538 1.538 0 0.221-0.049 0.431-0.134 0.621-0.344-0.347-0.698-0.684-1.067-1.007l-0.675 0.772c0.358 0.313 0.7 0.641 1.033 0.978-0.21 0.107-0.444 0.174-0.696 0.174-0.848 0-1.538-0.69-1.538-1.538s0.69-1.538 1.538-1.538zM8.203 24.716c-0.848 0-1.538-0.69-1.538-1.538s0.69-1.538 1.538-1.538 1.538 0.69 1.538 1.538c0 0.009-0.003 0.017-0.003 0.027-0.154-0.064-0.309-0.126-0.466-0.183l-0.894-0.325-0.351 0.963 0.894 0.325c0.152 0.055 0.296 0.127 0.444 0.188-0.282 0.329-0.696 0.543-1.163 0.543zM10.718 23.659c0.030-0.156 0.049-0.317 0.049-0.482 0-0.601-0.216-1.147-0.564-1.585 0.348-0.064 0.671-0.194 0.955-0.383 1.481 1.671 2.668 3.586 3.505 5.662-1.077-1.325-2.421-2.423-3.944-3.212zM28.843 17.292c-1.166 0.13-2.254 0.629-3.118 1.399 0.172-0.843 0.586-1.618 1.208-2.24l0.088-0.088-0.724-0.726-0.089 0.088c-0.519 0.519-0.92 1.124-1.191 1.782-0.364-0.562-0.874-1.031-1.502-1.345l-0.216-0.108-0.459 0.917 0.216 0.108c0.714 0.357 1.225 0.983 1.439 1.722-0.989-0.803-2.235-1.264-3.536-1.264h-0.878c0.212-0.597 0.782-1.025 1.45-1.025h0.513v-0.904c0-0.632 0.514-1.146 1.146-1.146 0.177 0 0.354 0.042 0.513 0.121l0.904 0.452 0.756-0.378c0.698-0.35 1.586-0.205 2.138 0.347l0.482 0.483h0.212c1.035 0 1.952 0.621 2.336 1.582l0.013 0.034-1.704 0.19z"></path>
<path fill="#000" d="M11.543 7.649c0.713 0.952 1.247 2.012 1.588 3.149l0.22 0.735 0.982-0.294-0.22-0.735c-0.376-1.254-0.965-2.42-1.761-3.484l-0.604-0.749-0.798 0.644 0.593 0.734z"></path>
<path fill="#000" d="M10.986 5.51c-0.765-0.703-1.625-1.295-2.554-1.76l-0.459 0.917c0.844 0.422 1.624 0.96 2.318 1.598l0.694-0.755z"></path>
<path fill="#000" d="M18.088 11.171c1.152-2.594 3.186-4.721 5.725-5.991l-0.459-0.917c-2.751 1.376-4.954 3.681-6.203 6.492l-0.188 0.424 0.937 0.416 0.189-0.424z"></path>
</svg>
