<!-- Generated by IcoMoon.io -->
<svg version="1.1" xmlns="http://www.w3.org/2000/svg" width="32" height="32" viewBox="0 0 32 32">
<title>glass</title>
<path fill="#f0bc5e" d="M16 20.645v5.677l3.097 3.097h9.29l3.097-3.097v-4.645c-5.161 0-8.258-1.032-15.484-1.032z"></path>
<path fill="#f0bc5e" d="M16 26.323v-8.258l1.926-3.081 0.001-0.016c-0.058-0.687-0.137-1.373-0.232-2.056-0.049-0.003-0.097-0.008-0.146-0.008-7.715 0-9.281-1.537-16.442-1.548l-0.2 1.401c-0.26 1.816-0.39 3.648-0.39 5.482v2.279c0 3.17 0.389 6.327 1.158 9.402v0c0.23 0.919 1.055 1.564 2.003 1.564h11.228c0.947 0 1.773-0.645 2.003-1.564v0c0.17-0.679 0.321-1.363 0.454-2.049l0.008-0.18-1.369-1.369z"></path>
<path fill="#000" d="M3.85 10.399l-0.143 0.999-1.022-0.146 0.143-0.999 1.022 0.146z"></path>
<path fill="#000" d="M3.461 13.122l0.116-0.808-1.022-0.146-0.116 0.808c-0.248 1.735-0.374 3.506-0.374 5.263h1.032c0-1.708 0.122-3.43 0.364-5.117z"></path>
<path fill="#000" d="M32 17.916l-2.81-4.497h-10.895l-0.012 0.019c-0.031-0.252-0.061-0.504-0.097-0.755l-1.222-8.554h-15.347l-1.222 8.554c-0.262 1.833-0.395 3.702-0.395 5.556v2.279c0 3.209 0.395 6.414 1.173 9.527 0.287 1.151 1.317 1.955 2.504 1.955h11.228c1.187 0 2.216-0.804 2.504-1.955 0.106-0.425 0.204-0.856 0.296-1.289l0.876 0.876v2.367h10.323v-2.367l3.097-3.097v-8.62zM28.617 14.452l1.935 3.097h-13.621l1.935-3.097h9.75zM30.238 26.839l-2.065 2.065h-2.153l2.065-2.065h2.153zM28.387 25.806v-2.581h-1.032v2.581h-3.097v1.032h2.367l-2.065 2.065h-1.637l-2.065-2.065h2.367v-1.032h-3.097v-5.161h-1.032v5.161h-2.581v-7.226h2.581v1.032h1.032v-1.032h7.226v3.613h1.032v-3.613h2.581v7.226h-2.581zM19.399 26.839l2.065 2.065h-2.153l-2.065-2.065h2.153zM1.032 20.518v-2.279c0-1.805 0.13-3.624 0.385-5.409l1.095-7.669h13.557l1.095 7.668c0.097 0.675 0.173 1.355 0.233 2.026l-1.913 3.061v8.62l1.335 1.335h-15.069c-0.474-2.421-0.717-4.885-0.717-7.353zM14.904 30.968h-11.228c-0.712 0-1.33-0.483-1.502-1.173-0.074-0.296-0.141-0.594-0.209-0.892h14.638c-0.067 0.298-0.124 0.598-0.197 0.892-0.173 0.69-0.791 1.173-1.502 1.173zM27.871 30.968h-8.258v-1.032h8.258v1.032z"></path>
<path fill="#000" d="M28.903 7.742h1.032v1.032h-1.032v-1.032z"></path>
<path fill="#000" d="M27.871 8.774h1.032v1.032h-1.032v-1.032z"></path>
<path fill="#000" d="M28.903 9.806h1.032v1.032h-1.032v-1.032z"></path>
<path fill="#000" d="M29.935 8.774h1.032v1.032h-1.032v-1.032z"></path>
<path fill="#000" d="M18.065 0h1.032v1.032h-1.032v-1.032z"></path>
<path fill="#000" d="M17.032 1.032h1.032v1.032h-1.032v-1.032z"></path>
<path fill="#000" d="M18.065 2.065h1.032v1.032h-1.032v-1.032z"></path>
<path fill="#000" d="M19.097 1.032h1.032v1.032h-1.032v-1.032z"></path>
</svg>
