<!-- Generated by IcoMoon.io -->
<svg version="1.1" xmlns="http://www.w3.org/2000/svg" width="32" height="32" viewBox="0 0 32 32">
<title>gloves</title>
<path fill="#ffa64d" d="M11.355 13.935c0-1.655 0.562-3.175 1.498-4.393l-0.083-0.083c-0.442-0.442-1.030-0.686-1.655-0.686-1.291 0-2.341 1.050-2.341 2.341 0 0.626 0.244 1.213 0.685 1.655l1.895 1.895v-0.73z"></path>
<path fill="#ffa64d" d="M18.581 22.923l-3.96-3.96c-0.442-0.442-0.685-1.030-0.685-1.655 0-1.291 1.050-2.341 2.341-2.341 0.626 0 1.213 0.244 1.655 0.685l0.649 0.649 0.649-0.649c0.442-0.442 1.030-0.685 1.655-0.685 1.291 0 2.341 1.050 2.341 2.341 0 0.626-0.244 1.213-0.685 1.655l-3.96 3.96z"></path>
<path fill="#333" d="M27.381 23.414l3.72-3.72c0.58-0.58 0.9-1.351 0.9-2.171 0-1.693-1.378-3.071-3.071-3.071-0.82 0-1.591 0.319-2.171 0.9l-0.435 0.435v-1.851c0-3.397-2.201-6.282-5.25-7.323-0.551-3.751-3.803-6.613-7.653-6.613-4.269 0-7.742 3.473-7.742 7.742v1.851l-0.435-0.435c-0.58-0.58-1.351-0.9-2.171-0.9-1.693 0-3.071 1.378-3.071 3.071 0 0.82 0.319 1.591 0.9 2.171l3.72 3.72c0.682 0.682 1.058 1.59 1.058 2.554v0.871c-0.854 0-1.548 0.695-1.548 1.548v2.065c0 0.854 0.695 1.548 1.548 1.548h5.161v1.032c-0.854 0-1.548 0.695-1.548 1.548v2.065c0 0.854 0.695 1.548 1.548 1.548h15.484c0.854 0 1.548-0.695 1.548-1.548v-2.065c0-0.854-0.695-1.548-1.548-1.548v-0.871c0-0.965 0.375-1.872 1.058-2.554zM5.677 24.774c-0.285 0-0.516-0.231-0.516-0.516v-2.065c0-0.285 0.231-0.516 0.516-0.516h2.065v-1.032h-1.032v-0.871c0-1.241-0.483-2.407-1.361-3.284l-3.72-3.72c-0.385-0.385-0.597-0.897-0.597-1.442 0-1.124 0.915-2.039 2.039-2.039 0.545 0 1.057 0.212 1.442 0.597l2.197 2.197v-4.343c0-3.7 3.010-6.71 6.71-6.71 3.186 0 5.896 2.261 6.552 5.293-0.452-0.082-0.915-0.132-1.39-0.132-4.269 0-7.742 3.473-7.742 7.742v6.71h-2.065v1.032h2.065v3.097h-5.161zM25.29 25.968v0.871h-1.032v1.032h2.065c0.285 0 0.516 0.231 0.516 0.516v2.065c0 0.285-0.231 0.516-0.516 0.516h-15.484c-0.285 0-0.516-0.231-0.516-0.516v-2.065c0-0.285 0.231-0.516 0.516-0.516h12.387v-1.032h-11.355v-12.903c0-3.7 3.010-6.71 6.71-6.71s6.71 3.010 6.71 6.71v4.343l2.197-2.197c0.385-0.385 0.897-0.597 1.442-0.597 1.124 0 2.039 0.915 2.039 2.039 0 0.545-0.212 1.057-0.597 1.442l-3.72 3.72c-0.878 0.877-1.361 2.043-1.361 3.284z"></path>
</svg>
