<!-- Generated by IcoMoon.io -->
<svg version="1.1" xmlns="http://www.w3.org/2000/svg" width="32" height="32" viewBox="0 0 32 32">
<title>grilling-basket</title>
<path fill="#ffa64d" d="M26.323 0.516h-20.645c-1.14 0-2.065 0.924-2.065 2.065v13.419c0 1.14 0.924 2.065 2.065 2.065h20.645c1.14 0 2.065-0.924 2.065-2.065v-13.419c0-1.14-0.924-2.065-2.065-2.065zM26.323 15.484c0 0.285-0.231 0.516-0.516 0.516h-19.613c-0.285 0-0.516-0.231-0.516-0.516v-12.387c0-0.285 0.231-0.516 0.516-0.516h19.613c0.285 0 0.516 0.231 0.516 0.516v12.387z"></path>
<path fill="#ffa64d" d="M16 31.484v0c-1.14 0-2.065-0.924-2.065-2.065v-6.194h4.129v6.194c0 1.14-0.924 2.065-2.065 2.065z"></path>
<path fill="#333" d="M26.323 0h-20.645c-1.423 0-2.581 1.158-2.581 2.581v13.419c0 1.423 1.158 2.581 2.581 2.581h6.751c0.175 1.214 0.954 2.233 2.023 2.743v1.386h-1.032v6.71c0 1.423 1.158 2.581 2.581 2.581s2.581-1.158 2.581-2.581v-6.71h-1.032v-1.386c1.069-0.51 1.848-1.529 2.023-2.743h6.751c1.423 0 2.581-1.158 2.581-2.581v-13.419c0-1.423-1.158-2.581-2.581-2.581zM17.548 23.742v1.032h-3.097v-1.032h3.097zM16 30.968c-0.854 0-1.548-0.695-1.548-1.548v-3.613h3.097v3.613c0 0.854-0.695 1.548-1.548 1.548zM16.516 22.71h-1.032v-1.074c0.169 0.024 0.341 0.041 0.516 0.041s0.347-0.017 0.516-0.041v1.074zM16 20.645c-1.246 0-2.289-0.888-2.529-2.065h5.057c-0.24 1.176-1.283 2.065-2.529 2.065zM27.871 16c0 0.854-0.695 1.548-1.548 1.548h-20.645c-0.854 0-1.548-0.695-1.548-1.548v-13.419c0-0.854 0.695-1.548 1.548-1.548h20.645c0.854 0 1.548 0.695 1.548 1.548v13.419z"></path>
<path fill="#333" d="M25.806 2.065h-19.613c-0.569 0-1.032 0.463-1.032 1.032v12.387c0 0.569 0.463 1.032 1.032 1.032h19.613c0.569 0 1.032-0.463 1.032-1.032v-12.387c0-0.569-0.463-1.032-1.032-1.032zM25.807 6.71h-3.097v-3.613h3.097l0.001 3.613zM10.323 7.742h3.097v3.613h-3.097v-3.613zM9.29 11.355h-3.097v-3.613h3.097v3.613zM17.548 7.742v3.613h-3.097v-3.613h3.097zM14.452 6.71v-3.613h3.097v3.613h-3.097zM13.419 12.387v3.097h-3.097v-3.097h3.097zM14.452 12.387h3.097v3.097h-3.097v-3.097zM18.581 12.387h3.097v3.097h-3.097v-3.097zM18.581 11.355v-3.613h3.097v3.613h-3.097zM18.581 6.71v-3.613h3.097v3.613h-3.097zM9.29 3.097v1.548h1.032v-1.548h3.097v3.613h-3.097v-1.032h-1.032v1.032h-3.097v-3.613h3.097zM6.194 12.387h3.097v3.097h-3.097v-3.097zM22.71 15.484v-3.097h1.032v-1.032h-1.032v-3.613h3.097l0.001 3.613h-1.033v1.032h1.033v3.097h-3.098z"></path>
</svg>
