<!-- Generated by IcoMoon.io -->
<svg version="1.1" xmlns="http://www.w3.org/2000/svg" width="32" height="32" viewBox="0 0 32 32">
<title>guests</title>
<path d="M19.311 7.157c1.48 0.928 2.517 2.498 2.706 4.32 0.603 0.282 1.273 0.444 1.983 0.444 2.592 0 4.693-2.101 4.693-4.693s-2.101-4.693-4.693-4.693c-2.567 0.001-4.65 2.064-4.689 4.622zM16.236 16.766c2.592 0 4.693-2.101 4.693-4.693s-2.101-4.693-4.693-4.693c-2.592 0-4.694 2.101-4.694 4.693s2.102 4.693 4.694 4.693zM18.227 17.086h-3.982c-3.313 0-6.009 2.696-6.009 6.009v4.87l0.012 0.076 0.335 0.105c3.162 0.988 5.909 1.317 8.17 1.317 4.416 0 6.976-1.259 7.134-1.339l0.314-0.159h0.034v-4.871c0.001-3.313-2.694-6.009-6.008-6.009zM25.991 12.241h-3.952c-0.043 1.581-0.718 3.005-1.785 4.029 2.945 0.876 5.1 3.607 5.1 6.833v1.501c3.902-0.143 6.15-1.249 6.298-1.323l0.314-0.159h0.034v-4.872c0-3.313-2.696-6.009-6.009-6.009zM8.001 11.922c0.918 0 1.772-0.268 2.496-0.724 0.23-1.5 1.034-2.811 2.183-3.704 0.005-0.088 0.013-0.175 0.013-0.264 0-2.592-2.101-4.693-4.692-4.693-2.593 0-4.693 2.101-4.693 4.693 0 2.591 2.101 4.692 4.693 4.692zM12.216 16.27c-1.062-1.019-1.735-2.435-1.784-4.006-0.147-0.011-0.292-0.022-0.441-0.022h-3.982c-3.313 0-6.009 2.696-6.009 6.009v4.871l0.012 0.075 0.335 0.106c2.537 0.792 4.801 1.157 6.767 1.272v-1.471c0.001-3.226 2.155-5.956 5.101-6.833z"></path>
</svg>
