<!-- Generated by IcoMoon.io -->
<svg version="1.1" xmlns="http://www.w3.org/2000/svg" width="32" height="32" viewBox="0 0 32 32">
<title>ham</title>
<path fill="#343433" d="M22.71 0c-2.654 0-5.167 1.129-6.931 3.104l-6.854 6.854 0.011 0.011c-0.825 0.705-1.533 1.559-2.080 2.539-1.223 0.653-2.311 1.56-3.141 2.666l0.826 0.619c1.552-2.069 4.226-3.406 6.813-3.406 4.553 0 8.258 3.705 8.258 8.258 0 2.587-1.337 5.261-3.406 6.813l0.619 0.826c1.107-0.83 2.013-1.917 2.667-3.141 0.98-0.547 1.833-1.255 2.538-2.080l0.012 0.012 2.58-2.58 0.011 0.011c0.076-0.076 0.142-0.158 0.215-0.236l2.345-2.345 0.011 0.011c0.076-0.076 0.142-0.158 0.215-0.236l0.969-0.97v0.018l0.881-0.877c1.762-1.755 2.732-4.093 2.732-6.58 0-5.123-4.168-9.29-9.29-9.29zM20.221 23.403c0.276-0.893 0.424-1.825 0.424-2.758 0-5.123-4.168-9.29-9.29-9.29-0.934 0-1.866 0.148-2.76 0.424 1.551-1.883 3.874-3.005 6.373-3.005 4.553 0 8.258 3.705 8.258 8.258 0 2.498-1.122 4.82-3.004 6.371zM28.903 11.355c0 1.974-0.692 3.839-1.954 5.327 0.273-0.882 0.416-1.808 0.416-2.757 0-1.18-0.188-2.28-0.559-3.268l-0.967 0.363c0.328 0.872 0.494 1.849 0.494 2.905 0 2.104-0.789 4.082-2.214 5.613l-0.297 0.297c0.282-0.893 0.437-1.836 0.437-2.804 0-5.123-4.168-9.29-9.29-9.29-0.968 0-1.91 0.154-2.804 0.437l4.050-4.050h0.045l0.154-0.182c1.574-1.852 3.868-2.915 6.296-2.915 4.553 0 8.258 3.705 8.258 8.258 0 1.646-0.486 3.214-1.377 4.554 0.222-0.802 0.344-1.636 0.344-2.49 0-2.217-0.777-4.352-2.187-6.011l-0.786 0.668c1.252 1.473 1.941 3.371 1.941 5.343z"></path>
<path fill="#f9ba48" d="M18.581 22.71c0 5.131-4.159 9.29-9.29 9.29s-9.29-4.159-9.29-9.29c0-5.131 4.159-9.29 9.29-9.29s9.29 4.159 9.29 9.29z"></path>
<path fill="#343433" d="M9.29 20.129c-1.423 0-2.581 1.158-2.581 2.581s1.158 2.581 2.581 2.581 2.581-1.158 2.581-2.581-1.158-2.581-2.581-2.581zM9.29 24.258c-0.854 0-1.548-0.695-1.548-1.548s0.695-1.548 1.548-1.548 1.548 0.695 1.548 1.548-0.695 1.548-1.548 1.548z"></path>
<path fill="#343433" d="M20.645 3.097c1.972 0 3.869 0.69 5.343 1.942l0.668-0.786c-1.66-1.411-3.796-2.188-6.012-2.188v1.032z"></path>
<path fill="#343433" d="M18.075 4.634v1.032c2.434 0 4.731 1.066 6.305 2.925l0.788-0.666c-1.77-2.091-4.355-3.291-7.093-3.291z"></path>
</svg>
