<!-- Generated by IcoMoon.io -->
<svg version="1.1" xmlns="http://www.w3.org/2000/svg" width="32" height="32" viewBox="0 0 32 32">
<title>hamburguer-1</title>
<path fill="#f0bc5e" d="M28.903 26.839c0 1.423 1.158 2.581 2.581 2.581v-5.161c-1.423 0-2.581 1.158-2.581 2.581z"></path>
<path fill="#f0bc5e" d="M20.129 28.387c-1.708 0-3.097 1.389-3.097 3.097h6.194c0-1.708-1.389-3.097-3.097-3.097z"></path>
<path fill="#f0bc5e" d="M23.742 26.839c-0.854 0-1.548-0.695-1.548-1.548s0.695-1.548 1.548-1.548 1.548 0.695 1.548 1.548-0.695 1.548-1.548 1.548z"></path>
<path fill="#f0bc5e" d="M26.323 20.645c-1.139 0-2.065-0.926-2.065-2.065s0.926-2.065 2.065-2.065 2.065 0.926 2.065 2.065-0.926 2.065-2.065 2.065z"></path>
<path fill="#f0bc5e" d="M3.613 7.226v5.161c0 0.57 0.462 1.032 1.032 1.032s1.032-0.462 1.032-1.032v-2.581c0-0.57 0.462-1.032 1.032-1.032s1.032 0.462 1.032 1.032v4.129c0 0.57 0.462 1.032 1.032 1.032s1.032-0.462 1.032-1.032v-6.71h-6.194z"></path>
<path fill="#000" d="M26.839 11.871l-1.56-1.17-4.831 3.902 0.341 0.403c0.17 0.201 0.373 0.536 0.373 0.994 0 0.854-0.695 1.548-1.548 1.548-0.476 0-0.921-0.222-1.22-0.609l-0.015-0.020c0.748-0.566 1.235-1.46 1.235-2.469 0-1.077-0.553-2.025-1.388-2.581 0.836-0.555 1.388-1.504 1.388-2.581 0-0.794-0.302-1.516-0.795-2.065h0.795v-2.581c0-2.561-2.084-4.645-4.645-4.645h-10.323c-2.561 0-4.645 2.084-4.645 4.645v2.581h0.795c-0.492 0.549-0.795 1.271-0.795 2.065 0 1.077 0.553 2.025 1.388 2.581-0.836 0.555-1.388 1.504-1.388 2.581 0 0.794 0.302 1.516 0.795 2.065h-0.795v2.581c0 1.423 1.158 2.581 2.581 2.581h9.108l-0.334 0.269v3.343h0.516c0.854 0 1.548 0.695 1.548 1.548s-0.695 1.548-1.548 1.548h-0.516v3.613h20.645v-9.806c0-4.040-1.929-7.899-5.161-10.323zM19.613 18.581c1.423 0 2.581-1.158 2.581-2.581 0-0.426-0.11-0.847-0.317-1.224l3.426-2.767 0.917 0.688c2.835 2.126 4.577 5.454 4.733 8.981h-17.621l4.608-3.722c0.464 0.402 1.051 0.625 1.674 0.625zM1.032 4.645c0-1.992 1.621-3.613 3.613-3.613h10.323c1.992 0 3.613 1.621 3.613 3.613v1.548h-17.548v-1.548zM1.032 14.452c0-1.139 0.926-2.065 2.065-2.065h0.516v-1.032h-0.516c-1.139 0-2.065-0.926-2.065-2.065s0.926-2.065 2.065-2.065h13.419c1.139 0 2.065 0.926 2.065 2.065s-0.926 2.065-2.065 2.065h-1.548v1.032h1.548c1.139 0 2.065 0.926 2.065 2.065s-0.926 2.065-2.065 2.065h-13.419c-1.139 0-2.065-0.926-2.065-2.065zM2.581 20.645c-0.854 0-1.548-0.695-1.548-1.548v-1.548h15.484c0.103 0 0.204-0.006 0.304-0.015l-3.853 3.112h-10.386zM12.387 30.968v-1.601c1.176-0.24 2.065-1.282 2.065-2.529s-0.888-2.289-2.065-2.529v-1.601h18.581v8.258h-18.581z"></path>
<path fill="#000" d="M9.806 11.355h4.129v1.032h-4.129v-1.032z"></path>
<path fill="#000" d="M5.677 11.355h2.065v1.032h-2.065v-1.032z"></path>
<path fill="#000" d="M6.194 2.065h1.032v1.032h-1.032v-1.032z"></path>
<path fill="#000" d="M9.29 2.065h1.032v1.032h-1.032v-1.032z"></path>
<path fill="#000" d="M12.387 2.065h1.032v1.032h-1.032v-1.032z"></path>
<path fill="#000" d="M13.935 4.129h1.032v1.032h-1.032v-1.032z"></path>
<path fill="#000" d="M10.839 4.129h1.032v1.032h-1.032v-1.032z"></path>
<path fill="#000" d="M7.742 4.129h1.032v1.032h-1.032v-1.032z"></path>
<path fill="#000" d="M4.645 4.129h1.032v1.032h-1.032v-1.032z"></path>
<path fill="#000" d="M15.484 23.742h1.032v1.032h-1.032v-1.032z"></path>
<path fill="#000" d="M17.548 26.323h1.032v1.032h-1.032v-1.032z"></path>
<path fill="#000" d="M25.806 28.903h1.032v1.032h-1.032v-1.032z"></path>
<path fill="#000" d="M26.839 24.258h1.032v1.032h-1.032v-1.032z"></path>
</svg>
