<!-- Generated by IcoMoon.io -->
<svg version="1.1" xmlns="http://www.w3.org/2000/svg" width="32" height="32" viewBox="0 0 32 32">
<title>hamburguer</title>
<path fill="#f0bc5e" d="M30.71 13.419h-0.044l-0.881-0.881-0.881 0.881h-26.323l-0.365-0.881-0.898 0.898c-0.745 0.112-1.318 0.756-1.318 1.531 0 0.854 0.695 1.548 1.548 1.548h0.615l1.965-0.786v1.302h2.186l1.032-0.516h1.746l0.516-1.032h0.91l0.516 1.032h2.239l0.516-1.548h1.373l0.516 1.032h1.351v1.032h2.437l0.516-1.548h0.341l0.516 1.032h2.186l0.516-1.032h1.016l1.032 1.032h2.081l0.459-0.917 1.203 0.401h1.374c0.712 0 1.29-0.579 1.29-1.29s-0.579-1.29-1.29-1.29z"></path>
<path fill="#000" d="M18.365 20.867l-0.43-0.649-0.43 0.649c-0.337 0.508-0.9 0.811-1.506 0.811v1.032c0.728 0 1.416-0.278 1.935-0.764 0.111 0.104 0.23 0.198 0.357 0.284l0.575-0.857c-0.2-0.135-0.369-0.305-0.503-0.506z"></path>
<path fill="#000" d="M16 24.774h2.581v1.032h-2.581v-1.032z"></path>
<path fill="#000" d="M29.59 21.935l-0.094 0.055c0.585-0.521 0.956-1.276 0.956-2.119 0-0.812-0.35-1.514-1.012-2.049 0.321-0.549 0.495-1.176 0.495-1.822 0-0.202-0.017-0.405-0.050-0.602l-1.018 0.171c0.024 0.141 0.036 0.285 0.036 0.43 0 0.564-0.193 1.102-0.529 1.548h-24.748c-0.337-0.446-0.529-0.984-0.529-1.548h-1.032c0 0.653 0.178 1.288 0.506 1.842-0.651 0.6-1.022 1.326-1.022 2.029 0 0.843 0.371 1.598 0.956 2.119l-0.095-0.055c-0.226 0.39-0.345 0.837-0.345 1.29 0 0.695 0.279 1.324 0.728 1.789-0.436 0.274-0.728 0.756-0.728 1.308v2.065c0 1.992 1.621 3.613 3.613 3.613h20.645c1.992 0 3.613-1.621 3.613-3.613v-2.065c0-0.552-0.292-1.034-0.728-1.308 0.449-0.465 0.728-1.094 0.728-1.789 0-0.454-0.119-0.9-0.345-1.29zM28.903 28.387c0 1.423-1.158 2.581-2.581 2.581h-20.645c-1.423 0-2.581-1.158-2.581-2.581v-2.065c0-0.284 0.232-0.516 0.516-0.516h4.516v-1.032h-3.484c-0.854 0-1.548-0.695-1.548-1.548 0-0.259 0.069-0.512 0.192-0.738 0.338 0.142 0.709 0.221 1.098 0.221 0.728 0 1.416-0.278 1.935-0.763 0.52 0.486 1.208 0.763 1.935 0.763v-1.032c-0.606 0-1.169-0.303-1.506-0.811l-0.43-0.649-0.43 0.649c-0.337 0.508-0.9 0.811-1.506 0.811-0.996 0-1.806-0.81-1.806-1.806 0-0.414 0.261-0.887 0.707-1.29h25.451c0.458 0.346 0.681 0.77 0.681 1.29 0 0.996-0.81 1.806-1.806 1.806-0.606 0-1.169-0.303-1.506-0.811l-0.43-0.649-0.43 0.649c-0.337 0.508-0.9 0.811-1.506 0.811s-1.169-0.303-1.506-0.811l-0.43-0.648-0.43 0.648c-0.103 0.155-0.228 0.293-0.373 0.41l0.649 0.803c0.053-0.043 0.104-0.087 0.153-0.133 0.52 0.486 1.208 0.763 1.936 0.763s1.416-0.278 1.935-0.763c0.52 0.486 1.208 0.763 1.935 0.763 0.389 0 0.76-0.079 1.098-0.221 0.123 0.226 0.192 0.478 0.192 0.738 0 0.854-0.695 1.548-1.548 1.548h-6.194v1.032h7.226c0.284 0 0.516 0.232 0.516 0.516v2.065z"></path>
<path fill="#000" d="M10.839 24.774h2.581v1.032h-2.581v-1.032z"></path>
<path fill="#000" d="M26.323 12.387h-23.215c0.271-6.307 5.487-11.355 11.86-11.355h2.065c6.373 0 11.589 5.048 11.86 11.355h-1.538v1.032h2.581v-0.516c0-7.115-5.788-12.903-12.903-12.903h-2.065c-7.115 0-12.903 5.788-12.903 12.903v0.516h24.258v-1.032z"></path>
<path fill="#000" d="M14.968 2.581h1.032v1.032h-1.032v-1.032z"></path>
<path fill="#000" d="M18.581 4.129h1.032v1.032h-1.032v-1.032z"></path>
<path fill="#000" d="M22.71 4.645h1.032v1.032h-1.032v-1.032z"></path>
<path fill="#000" d="M16 6.71h1.032v1.032h-1.032v-1.032z"></path>
<path fill="#000" d="M11.871 5.161h1.032v1.032h-1.032v-1.032z"></path>
<path fill="#000" d="M10.323 3.097h1.032v1.032h-1.032v-1.032z"></path>
<path fill="#000" d="M7.742 6.194h1.032v1.032h-1.032v-1.032z"></path>
<path fill="#f0bc5e" d="M7.742 18.581v6.968c0 0.996 0.81 1.806 1.806 1.806s1.806-0.81 1.806-1.806v-2.581c0-0.427 0.347-0.774 0.774-0.774s0.774 0.347 0.774 0.774v5.161c0 0.996 0.81 1.806 1.806 1.806s1.806-0.81 1.806-1.806v-6.71c0-0.427 0.347-0.774 0.774-0.774s0.774 0.347 0.774 0.774v3.613c0 0.996 0.81 1.806 1.806 1.806s1.806-0.81 1.806-1.806v-6.452h-13.935z"></path>
</svg>
