<!-- Generated by IcoMoon.io -->
<svg version="1.1" xmlns="http://www.w3.org/2000/svg" width="32" height="32" viewBox="0 0 32 32">
<title>hamburger</title>
<path fill="#f9ba48" d="M0.516 7.742c0-4.276 3.466-7.742 7.742-7.742h15.484c4.276 0 7.742 3.466 7.742 7.742 0 0.57-0.462 1.032-1.032 1.032h-28.903c-0.57 0-1.032-0.462-1.032-1.032z"></path>
<path fill="#f9ba48" d="M0.516 24.774c0 3.99 3.235 7.226 7.226 7.226h16.516c3.99 0 7.226-3.236 7.226-7.226 0-0.57-0.462-1.032-1.032-1.032h-28.903c-0.57 0-1.032 0.462-1.032 1.032z"></path>
<path fill="#333" d="M32 16c0-1.283-0.588-2.43-1.509-3.188 0.869-0.251 1.509-1.035 1.509-1.973 0-1.139-0.938-2.065-2.091-2.065h-27.818c-1.153 0-2.091 0.926-2.091 2.065 0 0.938 0.64 1.722 1.509 1.973-0.921 0.758-1.509 1.906-1.509 3.188 0 1.554 0.863 2.908 2.135 3.613h-0.044c-0.005 0-0.009 0.002-0.013 0.002s-0.008-0.002-0.013-0.002v0.003c-1.141 0.014-2.065 0.932-2.065 2.062 0 1.139 0.938 2.065 2.091 2.065h27.818c1.153 0 2.091-0.926 2.091-2.065 0-1.13-0.924-2.047-2.065-2.062v-0.003c-0.005 0-0.008 0.002-0.013 0.002s-0.009-0.002-0.013-0.002h-0.044c1.271-0.705 2.135-2.059 2.135-3.613zM2.091 11.871c-0.584 0-1.059-0.463-1.059-1.032s0.475-1.032 1.059-1.032h27.818c0.584 0 1.059 0.463 1.059 1.032s-0.475 1.032-1.059 1.032h-27.818zM20.687 12.903l-8.716 3.032-3.79-3.032h12.506zM30.968 21.677c0 0.569-0.475 1.032-1.059 1.032h-27.818c-0.584 0-1.059-0.463-1.059-1.032 0-0.564 0.467-1.022 1.043-1.031 0.126 0.004 0.302 0.093 0.489 0.19 0.281 0.145 0.632 0.325 1.049 0.325 0.854 0 1.548-0.695 1.548-1.548 0-0.285 0.231-0.516 0.516-0.516s0.516 0.231 0.516 0.516c0 0.854 0.695 1.548 1.548 1.548s1.548-0.695 1.548-1.548c0-0.285 0.231-0.516 0.516-0.516s0.516 0.231 0.516 0.516c0 0.854 0.695 1.548 1.548 1.548s1.548-0.695 1.548-1.548c0-0.285 0.231-0.516 0.516-0.516s0.516 0.231 0.516 0.516c0 0.854 0.695 1.548 1.548 1.548s1.548-0.695 1.548-1.548c0-0.285 0.231-0.516 0.516-0.516s0.516 0.231 0.516 0.516c0 0.854 0.695 1.548 1.548 1.548s1.548-0.695 1.548-1.548c0-0.285 0.231-0.516 0.516-0.516s0.516 0.231 0.516 0.516c0 0.854 0.695 1.548 1.548 1.548s1.548-0.695 1.548-1.548c0-0.285 0.231-0.516 0.516-0.516s0.516 0.231 0.516 0.516c0 0.854 0.695 1.548 1.548 1.548 0.417 0 0.767-0.18 1.049-0.325 0.187-0.097 0.363-0.186 0.489-0.19 0.576 0.009 1.043 0.467 1.043 1.031zM27.871 19.097h-0.095c-0.214-0.599-0.781-1.032-1.453-1.032-0.854 0-1.548 0.695-1.548 1.548 0 0.285-0.231 0.516-0.516 0.516s-0.516-0.231-0.516-0.516c0-0.854-0.695-1.548-1.548-1.548s-1.548 0.695-1.548 1.548c0 0.285-0.231 0.516-0.516 0.516s-0.516-0.231-0.516-0.516c0-0.854-0.695-1.548-1.548-1.548s-1.548 0.695-1.548 1.548c0 0.285-0.231 0.516-0.516 0.516s-0.516-0.231-0.516-0.516c0-0.854-0.695-1.548-1.548-1.548s-1.548 0.695-1.548 1.548c0 0.285-0.231 0.516-0.516 0.516s-0.516-0.231-0.516-0.516c0-0.854-0.695-1.548-1.548-1.548s-1.548 0.695-1.548 1.548c0 0.285-0.231 0.516-0.516 0.516s-0.516-0.231-0.516-0.516c0-0.854-0.695-1.548-1.548-1.548-0.672 0-1.24 0.433-1.453 1.032h-0.095c-1.708 0-3.097-1.389-3.097-3.097s1.389-3.097 3.097-3.097h2.399l5.243 4.194 12.058-4.194h4.042c1.708 0 3.097 1.389 3.097 3.097s-1.389 3.097-3.097 3.097z"></path>
<path fill="#333" d="M9.806 2.065h1.032v1.032h-1.032v-1.032z"></path>
<path fill="#333" d="M11.871 3.097h1.032v1.032h-1.032v-1.032z"></path>
<path fill="#333" d="M17.032 2.065h1.032v1.032h-1.032v-1.032z"></path>
<path fill="#333" d="M20.129 2.065h1.032v1.032h-1.032v-1.032z"></path>
<path fill="#333" d="M24.774 3.097h1.032v1.032h-1.032v-1.032z"></path>
<path fill="#333" d="M6.194 3.613h1.032v1.032h-1.032v-1.032z"></path>
<path fill="#333" d="M19.097 4.129h1.032v1.032h-1.032v-1.032z"></path>
<path fill="#333" d="M17.548 28.903h6.71v1.032h-6.71v-1.032z"></path>
<path fill="#333" d="M25.29 28.903h1.032v1.032h-1.032v-1.032z"></path>
</svg>
