<!-- Generated by IcoMoon.io -->
<svg version="1.1" xmlns="http://www.w3.org/2000/svg" width="32" height="32" viewBox="0 0 32 32">
<title>honey</title>
<path fill="#ffa64d" d="M0.516 16.516h17.548v11.355h-17.548v-11.355z"></path>
<path fill="#333" d="M16.985 13.674c0.64-0.351 1.080-1.023 1.080-1.803 0-1.139-0.926-2.065-2.065-2.065h-13.419c-1.139 0-2.065 0.926-2.065 2.065 0 0.78 0.44 1.452 1.080 1.803l-0.84 0.84c-0.487 0.487-0.756 1.135-0.756 1.825v12.048c0 1.992 1.621 3.613 3.613 3.613h11.355c1.992 0 3.613-1.621 3.613-3.613v-12.048c0-0.69-0.269-1.338-0.756-1.825l-0.84-0.84zM2.581 10.839h13.419c0.569 0 1.032 0.463 1.032 1.032s-0.463 1.032-1.032 1.032h-13.419c-0.569 0-1.032-0.463-1.032-1.032s0.463-1.032 1.032-1.032zM17.548 28.387c0 1.423-1.158 2.581-2.581 2.581h-11.355c-1.423 0-2.581-1.158-2.581-2.581v-12.048c0-0.414 0.161-0.803 0.454-1.095l1.308-1.308h12.992l1.308 1.308c0.293 0.293 0.454 0.681 0.454 1.095v12.048z"></path>
<path fill="#333" d="M9.29 17.548c-2.562 0-4.645 2.084-4.645 4.645s2.084 4.645 4.645 4.645 4.645-2.084 4.645-4.645-2.084-4.645-4.645-4.645zM9.29 25.806c-1.992 0-3.613-1.621-3.613-3.613s1.621-3.613 3.613-3.613 3.613 1.621 3.613 3.613-1.621 3.613-3.613 3.613z"></path>
<path fill="#333" d="M20.645 4.129h11.355v1.032h-11.355v-1.032z"></path>
<path fill="#333" d="M20.645 6.194h11.355v1.032h-11.355v-1.032z"></path>
<path fill="#333" d="M21.677 8.258h9.29v1.032h-9.29v-1.032z"></path>
<path fill="#333" d="M22.71 11.355h1.032v1.032c0 0.569 0.463 1.032 1.032 1.032v17.032c0 0.854 0.695 1.548 1.548 1.548s1.548-0.695 1.548-1.548v-17.032c0.569 0 1.032-0.463 1.032-1.032v-1.032h1.032v-1.032h-7.226v1.032zM26.839 30.452c0 0.285-0.231 0.516-0.516 0.516s-0.516-0.231-0.516-0.516v-17.032h1.032v17.032zM27.871 12.387h-3.097v-1.032h3.097v1.032z"></path>
<path fill="#333" d="M21.677 2.065h9.29v1.032h-9.29v-1.032z"></path>
<path fill="#333" d="M22.71 0h7.226v1.032h-7.226v-1.032z"></path>
<path fill="#ffa64d" d="M20.645 5.161h11.355v1.032h-11.355v-1.032z"></path>
<path fill="#ffa64d" d="M21.677 3.097h9.29v1.032h-9.29v-1.032z"></path>
<path fill="#ffa64d" d="M22.71 1.032h7.226v1.032h-7.226v-1.032z"></path>
<path fill="#ffa64d" d="M21.677 7.226h9.29v1.032h-9.29v-1.032z"></path>
<path fill="#ffa64d" d="M22.71 9.29h7.226v1.032h-7.226v-1.032z"></path>
</svg>
