<!-- Generated by IcoMoon.io -->
<svg version="1.1" xmlns="http://www.w3.org/2000/svg" width="32" height="32" viewBox="0 0 32 32">
<title>hot-dog</title>
<path fill="#f9ba48" d="M3.613 32c-1.958 0-3.613-1.655-3.613-3.613 0-0.827 0.398-1.644 1.183-2.429l24.774-24.774c0.785-0.786 1.603-1.183 2.429-1.183 1.958 0 3.613 1.655 3.613 3.613 0 0.827-0.398 1.644-1.183 2.429l-24.774 24.774c-0.785 0.786-1.603 1.183-2.429 1.183z"></path>
<path fill="#333" d="M31.36 6.89l-0.027-0.029c-0.885-0.886-1.909-0.886-2.794 0l-21.678 21.677c-0.442 0.443-0.667 0.913-0.667 1.397s0.225 0.954 0.697 1.424c0.689 0.591 1.601 0.64 2.4 0.64h0.001c4.869 0 10.463-4.572 14.3-8.409 5.641-5.641 8.392-10.487 8.409-14.814 0.003-0.752-0.212-1.387-0.64-1.886zM22.861 22.861c-1.156 1.156-2.474 2.381-3.878 3.52l-0.011-0.043c-0.019 0.004-1.803 0.424-3.639-1.413l-0.73 0.73c1.128 1.128 2.263 1.553 3.126 1.694-2.76 2.048-5.748 3.618-8.439 3.618-0.785 0-1.348-0.066-1.7-0.364-0.243-0.243-0.365-0.467-0.365-0.667 0.001-0.201 0.123-0.425 0.365-0.668l21.677-21.677c0.243-0.242 0.467-0.365 0.667-0.365 0.197 0 0.416 0.118 0.653 0.351 0.258 0.308 0.381 0.699 0.379 1.195-0.016 4.042-2.668 8.65-8.107 14.089z"></path>
<path fill="#333" d="M25.806 2.064c0-0.484-0.225-0.954-0.696-1.424-0.689-0.591-1.601-0.64-2.401-0.64-0.001 0 0 0-0.001 0-3.839 0-8.776 2.908-14.277 8.409-1.007 1.007-1.919 1.988-2.744 2.946h-0.011c0 0.002 0 0.010 0 0.013-3.797 4.413-5.663 8.315-5.677 11.856-0.003 0.752 0.212 1.387 0.64 1.886l0.027 0.030c0.443 0.442 0.914 0.667 1.397 0.667s0.954-0.225 1.397-0.667l21.678-21.677c0.443-0.443 0.667-0.913 0.667-1.397zM24.409 2.732l-21.677 21.677c-0.48 0.48-0.841 0.485-1.321 0.014-0.257-0.308-0.381-0.699-0.379-1.195 0.013-3.111 1.611-6.572 4.85-10.5 0.251 0.958 0.812 2.229 2.067 3.169l0.619-0.826c-1.389-1.042-1.739-2.638-1.828-3.351 0.737-0.84 1.539-1.699 2.422-2.582 1.104-1.104 2.179-2.093 3.225-2.978v0.033c0.013 0 1.345 0.010 2.216 0.881l0.73-0.73c-0.592-0.592-1.32-0.887-1.905-1.035 3.553-2.808 6.712-4.277 9.282-4.277h0.001c0.785 0 1.348 0.066 1.699 0.365 0.243 0.243 0.365 0.467 0.365 0.667s-0.123 0.425-0.365 0.667z"></path>
<path fill="#333" d="M7.226 24.258h2.581v-2.581h2.581v-2.581h2.065v-1.032h-3.097v2.581h-2.581v2.581h-2.581v2.581h-2.581v3.097h1.032v-2.064h2.581z"></path>
<path fill="#333" d="M19.097 10.323v2.581h-2.581v2.581h-2.581v1.548h1.032v-0.516h2.581v-2.581h2.581v-2.581h2.581v-2.581h1.032v-1.032h-2.064v2.581z"></path>
<path fill="#333" d="M24.258 8.258h1.032v-2.064h2.581v-3.097h-1.032v2.065h-2.581z"></path>
<path fill="#333" d="M16.881 7.893l-0.73 0.73-1.032-1.032 0.73-0.73 1.032 1.032z"></path>
<path fill="#333" d="M10.107 10.236l-0.903 0.903-0.73-0.73 0.903-0.903 0.73 0.73z"></path>
<path fill="#333" d="M12.751 8.107l-1.032 1.032-0.73-0.73 1.032-1.032 0.73 0.73z"></path>
<path fill="#333" d="M5.462 16.429l-0.903 0.903-0.73-0.73 0.903-0.903 0.73 0.73z"></path>
<path fill="#333" d="M17.333 4.042l-0.903 0.903-0.73-0.73 0.903-0.903 0.73 0.73z"></path>
<path fill="#333" d="M21.010 24.107l-1.032 1.032-0.73-0.73 1.032-1.032 0.73 0.73z"></path>
<path fill="#333" d="M24.107 20.493l-1.032 1.032-0.73-0.73 1.032-1.032 0.73 0.73z"></path>
<path fill="#333" d="M27.205 16.363l-1.032 1.032-0.73-0.73 1.032-1.032 0.73 0.73z"></path>
</svg>
