<!-- Generated by IcoMoon.io -->
<svg version="1.1" xmlns="http://www.w3.org/2000/svg" width="32" height="32" viewBox="0 0 32 32">
<title>ice-cream</title>
<path fill="#f9ba48" d="M22.71 18.065v0.629l-0.047 0.103-5.677 12.387c-0.11 0.257-0.35 0.817-0.985 0.817s-0.875-0.56-0.99-0.829l-5.678-13.421-0.041-0.717c0 0 3.889 0.318 5.677-2.065 0 0 2.080 4.331 7.742 3.097z"></path>
<path fill="#333" d="M26.839 12.387c0-0.074-0.012-0.145-0.022-0.216-0.211-2.908-2.337-5.335-5.171-5.898 0.020-0.196 0.031-0.394 0.031-0.595 0-3.13-2.547-5.677-5.677-5.677s-5.677 2.547-5.677 5.677c0 0.183 0.010 0.363 0.027 0.541-2.902 0.249-5.189 2.687-5.189 5.653v6.71c0 1.139 0.926 2.065 2.065 2.065s2.065-0.926 2.065-2.065c0-0.569 0.463-1.032 1.032-1.032v-0.025c0.171 0.015 0.343 0.025 0.516 0.025 1.566 0 2.986-0.637 4.014-1.667 1.141 1.975 3.235 3.215 5.534 3.215 3.558 0 6.452-2.894 6.452-6.452 0-0.087-0.008-0.172-0.012-0.258h0.012zM25.504 10.86c-0.070-0.010-0.14-0.022-0.214-0.022-0.854 0-1.548 0.695-1.548 1.548 0 0.569-0.463 1.032-1.032 1.032s-1.032-0.463-1.032-1.032v-1.548c0-0.825-0.525-1.449-1.124-1.785 0.393-0.528 0.698-1.124 0.889-1.77 1.914 0.38 3.442 1.773 4.061 3.577zM16 1.032c2.562 0 4.645 2.084 4.645 4.645s-2.084 4.645-4.645 4.645-4.645-2.084-4.645-4.645 2.084-4.645 4.645-4.645zM20.387 18.065c-2.059 0-3.923-1.188-4.826-3.047 0.603-0.901 0.955-1.983 0.955-3.146h-1.032c0 2.562-2.084 4.645-4.645 4.645-1.014 0-1.978-0.321-2.787-0.929l-0.62 0.826c0.43 0.323 0.897 0.575 1.387 0.762-0.345 0.369-0.561 0.861-0.561 1.405 0 0.569-0.463 1.032-1.032 1.032s-1.032-0.463-1.032-1.032v-6.71c0-2.463 1.928-4.478 4.353-4.63 0.681 2.372 2.866 4.114 5.453 4.114 1.477 0 2.821-0.572 3.831-1.5 0.332 0.115 0.814 0.445 0.814 0.984v1.548c0 1.139 0.926 2.065 2.065 2.065s2.065-0.926 2.065-2.065c0-0.285 0.231-0.516 0.516-0.516 0.258 0 0.462 0.193 0.501 0.44 0.007 0.111 0.015 0.221 0.015 0.334 0 2.988-2.431 5.419-5.419 5.419z"></path>
<path fill="#333" d="M15.484 1.548h1.032v1.032h-1.032v-1.032z"></path>
<path fill="#333" d="M13.419 2.581h1.032v1.032h-1.032v-1.032z"></path>
<path fill="#333" d="M18.065 4.129h1.032v1.032h-1.032v-1.032z"></path>
<path fill="#333" d="M7.742 9.806h1.032v1.032h-1.032v-1.032z"></path>
<path fill="#333" d="M9.29 8.258h1.032v1.032h-1.032v-1.032z"></path>
<path fill="#333" d="M22.71 9.29h1.032v1.032h-1.032v-1.032z"></path>
<path fill="#333" d="M17.548 12.387h1.032v1.032h-1.032v-1.032z"></path>
<path fill="#333" d="M17.913 19.978l-0.73-0.73-1.7 1.7-1.077-1.077 0.925-0.925-0.73-0.73-0.925 0.925-0.925-0.925-0.73 0.73 0.925 0.925-1.442 1.442 0.73 0.73 1.442-1.442 1.077 1.077-2.216 2.216 0.73 0.73 0.151-0.151 1.077 1.077-0.925 0.925 0.73 0.73 0.925-0.925 0.925 0.925 0.73-0.73-0.925-0.925 1.442-1.442-0.73-0.73-1.442 1.442-1.077-1.077z"></path>
</svg>
