<!-- Generated by IcoMoon.io -->
<svg version="1.1" xmlns="http://www.w3.org/2000/svg" width="32" height="32" viewBox="0 0 32 32">
<title>ice-pop</title>
<path fill="#f9ba48" d="M31.475 8.402v10.694c0 0.857-0.692 1.548-1.548 1.548-0.852 0-1.548-0.692-1.548-1.548v-8.258c0-0.857-0.692-1.548-1.543-1.548-0.857 0-1.548 0.692-1.548 1.548 0 1.141-0.924 2.065-2.064 2.065s-2.064-0.924-2.064-2.064v-10.075c0.64-0.17 1.326-0.248 2.064-0.248 0.883 0 1.76 0.196 2.581 0.516 0.883 0.346 1.863 0.831 2.575 1.548l1.032 1.032c1.311 1.306 1.987 3.035 2.064 4.79z"></path>
<path fill="#333" d="M18.941 8.622l-8.256 8.258-0.73-0.73 8.256-8.258 0.73 0.73z"></path>
<path fill="#333" d="M21.006 16.882l-5.16 5.16-0.73-0.73 5.16-5.16 0.73 0.73z"></path>
<path fill="#333" d="M32 8.777c0.008-2.124-0.782-4.088-2.222-5.529l-1.032-1.032c-0.648-0.649-1.55-1.193-2.757-1.665-0.936-0.365-1.867-0.551-2.767-0.551-0.001 0-0.002 0-0.003 0-2.256 0-4.012 0.704-5.523 2.215l-11.352 11.355c-1.542 1.542-2.2 4.205 0 6.407l1.183 1.183-6.859 6.861c-0.462 0.462-0.667 0.948-0.667 1.577 0 0.687 0.237 1.303 0.667 1.733 0.667 0.667 1.357 0.667 1.913 0.667 0.484 0 0.954-0.225 1.397-0.667l6.859-6.861 1.699 1.7c0.67 0.671 1.514 1.090 2.375 1.181 0.108 0.011 0.225 0.018 0.347 0.018 0.729 0 1.694-0.242 2.652-1.199l9.955-9.957v2.883c0 1.139 0.926 2.064 2.064 2.064s2.064-0.926 2.064-2.064v-10.168c0.001-0.052 0.007-0.101 0.007-0.152zM3.247 30.603c-0.243 0.242-0.467 0.365-0.667 0.365-0.475 0-0.819 0-1.183-0.365-0.232-0.232-0.365-0.598-0.365-1.003 0-0.352 0.099-0.581 0.365-0.847l6.859-6.861 1.85 1.851-6.859 6.861zM30.96 19.096c0 0.569-0.462 1.032-1.032 1.032s-1.032-0.463-1.032-1.032v-8.259c0-1.139-0.926-2.064-2.064-2.064s-2.064 0.926-2.064 2.064c0 0.854-0.695 1.548-1.548 1.548s-1.548-0.695-1.548-1.548v-8.258h-1.032v8.258c0 1.423 1.157 2.581 2.58 2.581s2.58-1.158 2.58-2.581c0-0.569 0.462-1.032 1.032-1.032s1.032 0.463 1.032 1.032v3.916l-10.685 10.687c-0.667 0.668-1.397 0.964-2.161 0.884-0.618-0.065-1.257-0.387-1.753-0.884l-6.192-6.194c-1.825-1.827-1.141-3.807 0-4.948l11.352-11.355c1.323-1.323 2.801-1.913 4.793-1.913 0.001 0 0.002 0 0.003 0 0.771 0 1.575 0.162 2.392 0.48 1.071 0.419 1.857 0.887 2.402 1.432l1.032 1.032c1.244 1.245 1.926 2.948 1.92 4.795 0 0.001 0 0.001 0 0.001h-0.007v0.152c-0.040 1.848-0.68 3.411-1.913 4.644l0.73 0.73c0.472-0.472 0.861-0.988 1.183-1.539v6.335z"></path>
<path fill="#333" d="M22.704 4.129h1.032v2.581h-1.032v-2.581z"></path>
<path fill="#333" d="M22.704 7.742h1.032v1.032h-1.032v-1.032z"></path>
</svg>
