<!-- Generated by IcoMoon.io -->
<svg version="1.1" xmlns="http://www.w3.org/2000/svg" width="32" height="32" viewBox="0 0 32 32">
<title>juice</title>
<path fill="#f0bc5e" d="M15.484 7.226c0 1.71-1.386 3.097-3.097 3.097s-3.097-1.386-3.097-3.097c0-1.71 1.386-3.097 3.097-3.097s3.097 1.386 3.097 3.097z"></path>
<path fill="#f0bc5e" d="M9.29 12.387v17.548h5.677v-14.968h4.645v-2.581z"></path>
<path fill="#000" d="M22.468 22.799c0.234-0.665 0.61-1.276 1.123-1.789l-0.73-0.73c-0.304 0.303-0.566 0.637-0.791 0.991-0.409-1.546-1.816-2.691-3.489-2.691h-1.548v0.516c0 1.992 1.621 3.613 3.613 3.613h0.761c-0.002 0.005-0.002 0.009-0.004 0.014-1.864 0.141-3.338 1.7-3.338 3.599 0 1.992 1.621 3.613 3.613 3.613s3.613-1.621 3.613-3.613c0-1.72-1.21-3.161-2.823-3.523zM20.645 21.677c-1.246 0-2.289-0.888-2.529-2.065h0.464c1.246 0 2.289 0.888 2.529 2.065h-0.464zM21.677 28.903c-1.423 0-2.581-1.158-2.581-2.581 0-1.257 0.904-2.303 2.095-2.532-0.020 0.196-0.030 0.393-0.030 0.592v0.391h1.032v-0.391c0-0.195 0.015-0.387 0.038-0.578 1.157 0.255 2.026 1.285 2.026 2.517 0 1.423-1.158 2.581-2.581 2.581z"></path>
<path fill="#000" d="M30.043 6.194h1.957v-1.032h-1.957c-1.219 0-2.255 0.831-2.519 2.021l-1.615 7.269h-4.231v-3.735l-3.613-7.226v-1.943c0-0.854-0.695-1.548-1.548-1.548h-11.355c-0.854 0-1.548 0.695-1.548 1.548v1.943l-3.613 7.226v21.283h32v-17.548h-5.034l1.565-7.046c0.159-0.714 0.781-1.212 1.512-1.212zM4.645 1.548c0-0.284 0.232-0.516 0.516-0.516h11.355c0.284 0 0.516 0.232 0.516 0.516v1.548h-12.387v-1.548zM4.129 4.767l2.778 5.556h-5.556l2.778-5.556zM1.032 11.355h6.194v19.613h-6.194v-19.613zM8.258 30.968v-19.613h9.806v-1.032h-10.004l-3.097-6.194h12.265l3.097 6.194h-1.229v1.032h1.548v3.097h-6.194v16.516h-6.194zM15.484 15.484h11.355v15.484h-11.355v-15.484zM29.935 30.968v-8.774h-1.032v8.774h-1.032v-14.295l1.548 2.323 1.548-2.323v14.295h-1.032zM28.319 15.484h2.2l-1.1 1.65-1.1-1.65z"></path>
<path fill="#000" d="M28.903 20.129h1.032v1.032h-1.032v-1.032z"></path>
<path fill="#000" d="M12.387 5.161c-1.139 0-2.065 0.926-2.065 2.065s0.926 2.065 2.065 2.065 2.065-0.926 2.065-2.065-0.926-2.065-2.065-2.065zM12.387 8.258c-0.569 0-1.032-0.463-1.032-1.032s0.463-1.032 1.032-1.032 1.032 0.463 1.032 1.032-0.463 1.032-1.032 1.032z"></path>
</svg>
