<!-- Generated by IcoMoon.io -->
<svg version="1.1" xmlns="http://www.w3.org/2000/svg" width="32" height="32" viewBox="0 0 32 32">
<title>kitchen</title>
<path fill="#f0bc5e" d="M14.968 19.613h4.129v1.032h-4.129z"></path>
<path fill="#f0bc5e" d="M10.323 5.677h1.032v2.065h-1.032z"></path>
<path fill="#f0bc5e" d="M12.387 5.677h1.032v2.065h-1.032z"></path>
<path fill="#f0bc5e" d="M14.452 5.677h1.032v2.065h-1.032z"></path>
<path fill="#f0bc5e" d="M16.516 5.677h1.032v2.065h-1.032z"></path>
<path fill="#f0bc5e" d="M18.581 5.677h1.032v2.065h-1.032z"></path>
<path fill="#f0bc5e" d="M20.645 5.677h1.032v2.065h-1.032z"></path>
<path fill="#f0bc5e" d="M23.226 25.806h5.161v1.032h-5.161z"></path>
<path fill="#f0bc5e" d="M23.226 27.871h5.161v1.032h-5.161z"></path>
<path fill="#f0bc5e" d="M3.613 25.806h5.161v1.032h-5.161z"></path>
<path fill="#f0bc5e" d="M3.613 27.871h5.161v1.032h-5.161z"></path>
<path fill="#f0bc5e" d="M12.387 22.194h7.226v7.742h-7.226z"></path>
<path fill="#000" d="M0 0h1.032v1.032h-1.032z"></path>
<path fill="#000" d="M30.968 0h1.032v1.032h-1.032z"></path>
<path fill="#000" d="M10.323 2.424l-2.065 3.097v2.737h15.484v-2.737l-2.065-3.097v-1.392h8.258v-1.032h-27.871v1.032h8.258zM20.885 3.097l1.377 2.065h-12.523l1.377-2.065zM9.29 7.226v-1.032h13.419v1.032zM20.645 2.065h-9.29v-1.032h9.29z"></path>
<path fill="#000" d="M30.968 15.484h-7.226v-1.032h-1.032v1.032h-1.032v-1.032h-1.032v1.032h-1.032v-1.032h-1.032v1.032h-5.161v-1.032h-1.032v1.032h-1.032v-1.032h-1.032v1.032h-1.032v-1.032h-1.032v1.032h-4.129v-4.645c0-0.569 0.463-1.032 1.032-1.032s1.032 0.463 1.032 1.032v1.032h1.032v-1.032c0-1.139-0.926-2.065-2.065-2.065s-2.065 0.926-2.065 2.065v4.645h-2.065c-0.569 0-1.032 0.463-1.032 1.032v1.032c0 0.569 0.463 1.032 1.032 1.032v12.387h9.29v1.032h11.355v-1.032h9.29v-12.387c0.569 0 1.032-0.463 1.032-1.032v-1.032c0-0.569-0.463-1.032-1.032-1.032zM10.323 18.581v3.097h-8.258v-3.097zM20.645 18.581v3.097h-9.29v-3.097zM8.258 29.935h-4.129v-5.161h4.129zM9.29 29.935v-6.194h-6.194v6.194h-1.032v-7.226h8.258v7.226zM11.355 30.968v-8.258h9.29v8.258zM27.871 29.935h-4.129v-5.161h4.129zM28.903 29.935v-6.194h-6.194v6.194h-1.032v-7.226h8.258v7.226zM29.935 21.677h-8.258v-3.097h8.258zM1.032 17.548v-1.032h29.935l0 1.032z"></path>
<path fill="#000" d="M25.29 19.613h1.032v1.032h-1.032z"></path>
<path fill="#000" d="M5.677 19.613h1.032v1.032h-1.032z"></path>
<path fill="#000" d="M16.516 19.613h1.032v1.032h-1.032z"></path>
<path fill="#000" d="M14.452 19.613h1.032v1.032h-1.032z"></path>
<path fill="#000" d="M18.581 19.613h1.032v1.032h-1.032z"></path>
<path fill="#000" d="M14.452 23.742h3.097v1.032h-3.097z"></path>
</svg>
