<!-- Generated by IcoMoon.io -->
<svg version="1.1" xmlns="http://www.w3.org/2000/svg" width="32" height="32" viewBox="0 0 32 32">
<title>leek</title>
<path fill="#f0bc5e" d="M18.979 21.719c-0.454-0.818-0.802-1.687-1.043-2.584-0.257-0.96-0.392-1.953-0.392-2.956v0c0-2.426 0.773-4.789 2.208-6.745l3.452-4.707-3.060-1.020 1.516-2.068-3.087-1.029-1.579 2.297c-0.293 0.427-0.571 0.862-0.834 1.305l-0.014 0.545c-0.352-0.631-0.727-1.251-1.139-1.85l-1.579-2.297-3.087 1.029 1.516 2.068-3.060 1.020 3.452 4.707c1.435 1.956 2.305 4.927 2.305 7.353l0.032-0.063c-0.083 0.799-0.129 1.603-0.129 2.411l-2.059 3.705c-0.337 0.607-0.514 1.29-0.514 1.985 0 2.257 1.83 4.087 4.087 4.087h0.060c2.257 0 4.087-1.83 4.087-4.087 0-0.695-0.177-1.378-0.514-1.985l-0.624-1.122zM19.602 4.446l-0.207 0.302 0.002-0.021 0.206-0.281z"></path>
<path fill="#000" d="M19.429 21.469c-0.896-1.614-1.37-3.443-1.37-5.289 0-2.333 0.729-4.56 2.109-6.441l3.87-5.276-3.080-1.027 1.544-2.058-4.132-1.378-1.798 2.616c-0.197 0.287-0.386 0.581-0.572 0.878-0.185-0.295-0.37-0.59-0.568-0.878l-1.798-2.616-4.132 1.378 1.544 2.058-3.080 1.027 3.87 5.276c1.319 1.798 2.205 4.631 2.205 7.049h0.023c-0.072 0.733-0.115 1.471-0.119 2.214l-1.995 3.59c-0.378 0.681-0.578 1.454-0.578 2.234 0 1.597 0.819 3.006 2.058 3.832v2.314h1.029v-1.805c0.328 0.115 0.672 0.198 1.029 0.235v2.599h1.029v-2.599c0.357-0.038 0.701-0.12 1.029-0.235v1.805h1.029v-2.314c1.239-0.825 2.058-2.234 2.058-3.832 0-0.78-0.2-1.553-0.579-2.234l-0.624-1.122zM16.602 4.475c0.256-0.432 0.531-0.861 0.816-1.276l1.36-1.978 2.043 0.681-0.893 1.191-0.015-0.005-1.798 2.616c-0.182 0.264-0.357 0.532-0.526 0.801-0.308-0.7-0.65-1.385-1.025-2.053l0.039 0.024zM12.663 9.131l-3.035-4.138 2.051-0.683 1.36 1.978c0.259 0.377 0.509 0.765 0.744 1.155l0.881-0.531c-0.245-0.408-0.507-0.814-0.778-1.207l-1.798-2.616-0.015 0.005-0.893-1.191 2.043-0.681 1.36 1.978c0.946 1.375 1.737 2.856 2.358 4.402-0.342 0.612-0.658 1.237-0.942 1.873-0.136-0.305-0.277-0.609-0.429-0.914l-0.393-0.688-0.893 0.51 0.379 0.662c0.287 0.578 0.549 1.176 0.786 1.777-0.328 0.874-0.604 1.767-0.825 2.674-0.418-1.629-1.101-3.196-1.958-4.365zM16.030 28.398h-0.059c-1.97 0-3.573-1.602-3.573-3.572 0-0.606 0.155-1.206 0.449-1.735l2.124-3.822v-0.133c0-4.609 1.38-9.051 3.991-12.849l1.36-1.978 2.051 0.683-3.035 4.138c-1.51 2.058-2.307 4.496-2.307 7.049 0 2.020 0.519 4.022 1.5 5.789l0.624 1.122c0.293 0.529 0.449 1.129 0.449 1.735 0 1.97-1.602 3.572-3.572 3.572z"></path>
<path fill="#000" d="M14.456 24.826c0-0.256 0.066-0.51 0.19-0.735l-0.899-0.5c-0.209 0.377-0.32 0.804-0.32 1.235 0 0.89 0.454 1.701 1.214 2.168l0.539-0.876c-0.453-0.279-0.724-0.762-0.724-1.292z"></path>
<path fill="#000" d="M17.629 22.468l-0.899 0.501 0.624 1.122c0.125 0.224 0.19 0.479 0.19 0.735 0 0.423-0.171 0.816-0.483 1.107l0.702 0.752c0.515-0.481 0.809-1.158 0.809-1.859 0-0.431-0.111-0.857-0.32-1.234l-0.624-1.123z"></path>
</svg>
