<!-- Generated by IcoMoon.io -->
<svg version="1.1" xmlns="http://www.w3.org/2000/svg" width="32" height="32" viewBox="0 0 32 32">
<title>lemon</title>
<path fill="#000" d="M9.797 29.427c-0.341-1.194-1.279-2.161-2.508-2.586-4.121-1.423-4.986-5.854-5.167-7.693l1.027-0.101c0.201 2.038 1.049 5.635 4.477 6.819 1.547 0.535 2.73 1.76 3.164 3.278l-0.993 0.283z"></path>
<path fill="#000" d="M20.553 16.457c-0.587-5.055-3.822-8.668-8.197-9.535-0.121-0.81-0.71-1.462-1.485-1.677 0.158-1.811 1.283-3.403 2.975-4.129l0.292-0.125-0.406-0.949-0.292 0.125c-1.436 0.615-2.538 1.747-3.135 3.123-0.904-1.939-2.867-3.29-5.144-3.29h-3.613v0.516c0 3.13 2.547 5.677 5.677 5.677h1.32c-0.126 0.217-0.215 0.457-0.255 0.715-4.901 0.936-8.245 5.288-8.29 11.066-0.041 5.329 2.431 9.373 6.615 10.818 0.593 0.204 1.043 0.663 1.216 1.269 0.274 0.962 1.018 1.683 1.94 1.88 0.181 0.039 0.362 0.057 0.541 0.057 1.128 0 2.162-0.743 2.481-1.861l0.035-0.12c0.161-0.563 0.61-1.020 1.202-1.224 1.044-0.36 1.989-0.879 2.811-1.542l-0.648-0.804c-0.728 0.588-1.569 1.049-2.5 1.37-0.91 0.314-1.605 1.031-1.858 1.916l-0.035 0.12c-0.225 0.787-1.002 1.251-1.813 1.079-0.54-0.116-0.996-0.569-1.176-1.197-0.253-0.886-0.948-1.603-1.86-1.918-3.8-1.313-5.957-4.898-5.918-9.834 0.044-5.745 3.628-9.949 8.715-10.225 5.139-0.285 9.145 3.349 9.778 8.794l0.024 0.344 1.030-0.071-0.026-0.368zM2.61 1.032h2.552c2.387 0 4.359 1.81 4.616 4.129h-2.552c-2.387 0-4.359-1.81-4.616-4.129zM9.692 6.727c-0.097 0.005-0.188 0.022-0.283 0.029 0.172-0.332 0.515-0.563 0.914-0.563 0.402 0 0.748 0.234 0.918 0.57-0.506-0.044-1.020-0.065-1.549-0.037z"></path>
<path fill="#000" d="M2.065 17.032h1.032v1.032h-1.032v-1.032z"></path>
<path fill="#f0bc5e" d="M23.742 32c-4.553 0-8.258-3.705-8.258-8.258s3.705-8.258 8.258-8.258 8.258 3.705 8.258 8.258-3.705 8.258-8.258 8.258z"></path>
<path fill="#000" d="M14.452 10.323h1.032v1.032h-1.032v-1.032z"></path>
<path fill="#000" d="M12.903 12.903h1.032v1.032h-1.032v-1.032z"></path>
<path fill="#000" d="M16.516 14.452h1.032v1.032h-1.032v-1.032z"></path>
<path fill="#000" d="M14.968 16h1.032v1.032h-1.032v-1.032z"></path>
<path fill="#000" d="M13.419 18.581h1.032v1.032h-1.032v-1.032z"></path>
<path fill="#000" d="M23.742 29.935c-0.842 0-1.63-0.422-2.108-1.103-0.818 0.141-1.676-0.116-2.271-0.711s-0.854-1.451-0.711-2.271c-0.682-0.478-1.103-1.267-1.103-2.108s0.422-1.63 1.103-2.108c-0.143-0.82 0.116-1.676 0.711-2.271s1.453-0.852 2.271-0.711c0.478-0.682 1.267-1.103 2.108-1.103s1.63 0.422 2.108 1.103c0.817-0.141 1.676 0.116 2.271 0.711s0.854 1.451 0.711 2.271c0.682 0.478 1.103 1.267 1.103 2.108s-0.422 1.63-1.103 2.108c0.143 0.82-0.116 1.676-0.711 2.271s-1.453 0.852-2.271 0.711c-0.478 0.682-1.267 1.103-2.108 1.103zM22.379 28.078c0.271 0.511 0.787 0.825 1.363 0.825 0.48 0 0.917-0.218 1.207-0.586l-1.241-3.227-1.329 2.988zM25.845 27.772c0.55 0.168 1.139 0.028 1.547-0.38 0.339-0.339 0.494-0.803 0.439-1.268l-3.16-1.404 1.174 3.052zM19.712 25.845c-0.17 0.552-0.027 1.14 0.38 1.547 0.34 0.34 0.806 0.497 1.268 0.439l1.404-3.16-3.052 1.174zM25.069 23.767l3.009 1.337c0.511-0.271 0.825-0.787 0.825-1.363 0-0.48-0.218-0.917-0.586-1.207l-0.958 0.369-0.37-0.964 0.783-0.301c0.17-0.552 0.027-1.14-0.38-1.547-0.339-0.339-0.805-0.495-1.268-0.439l-1.395 3.138 1.402-0.561 0.383 0.958-1.446 0.579zM19.406 22.379c-0.511 0.271-0.825 0.787-0.825 1.363 0 0.48 0.218 0.917 0.586 1.207l3.227-1.241-2.988-1.329zM19.653 21.36l3.16 1.404-1.174-3.052c-0.549-0.168-1.139-0.028-1.547 0.38-0.34 0.339-0.494 0.803-0.439 1.268zM22.535 19.166l1.241 3.227 1.328-2.988c-0.27-0.511-0.786-0.825-1.362-0.825-0.48 0-0.917 0.218-1.207 0.586z"></path>
</svg>
