<!-- Generated by IcoMoon.io -->
<svg version="1.1" xmlns="http://www.w3.org/2000/svg" width="32" height="32" viewBox="0 0 32 32">
<title>lemongrass</title>
<path fill="#f0bc5e" d="M11.485 17.032l0.079 0.714-3.692-17.23h-2.065l1.652 8.59c0.618 3.212 0.929 6.476 0.929 9.747v7.469c0 1.71 1.386 3.097 3.097 3.097s3.097-1.386 3.097-3.097v-8.801c0-2.731 0.217-5.458 0.648-8.154l1.416-8.852h-2.065l-3.097 16.516z"></path>
<path fill="#f0bc5e" d="M23.299 20.129h0.057v-4.339c0-3.635 0.384-7.26 1.146-10.814l0.403-1.879h-2.903l0.323-2.581-3.097 2.065v22.452c0 1.568 1.271 2.839 2.839 2.839s2.839-1.271 2.839-2.839v-0.242c0-0.352-0.066-0.701-0.193-1.029l-1.413-3.633z"></path>
<path fill="#000" d="M11.947 24.292c0.036 0.673 0.054 1.356 0.054 2.030h1.032c0-0.693-0.019-1.394-0.056-2.094l-0.062-0.875-1.029 0.073 0.061 0.866z"></path>
<path fill="#000" d="M11.417 14.595l-3.127-14.595h-3.107l1.77 9.204c0.61 3.173 0.92 6.419 0.92 9.65v7.469c0 1.117 0.51 2.118 1.31 2.781l-0.708 1.061 0.859 0.572 0.73-1.095c0.284 0.122 0.589 0.205 0.905 0.251v2.106h1.032v-2.106c0.316-0.045 0.621-0.129 0.905-0.251l0.73 1.095 0.859-0.572-0.708-1.061c0.8-0.663 1.31-1.664 1.31-2.781v-8.801c0-2.696 0.216-5.411 0.642-8.073l1.512-9.449h-3.098l-2.737 14.595zM16.041 1.032l-1.321 8.254c-0.434 2.715-0.654 5.486-0.654 8.236v8.801c0 1.423-1.158 2.581-2.581 2.581s-2.581-1.158-2.581-2.581v-7.469c0-3.296-0.315-6.609-0.938-9.844l-1.534-7.977h1.022l3.693 17.232c0.29 1.355 0.509 2.742 0.651 4.121l1.027-0.106c-0.146-1.416-0.372-2.84-0.669-4.232l-0.199-0.927 0.034 0.007 3.019-16.095h1.031z"></path>
<path fill="#000" d="M26.088 30.3l0.73-0.73-2.279-2.279c0.546-0.597 0.882-1.388 0.882-2.259v-0.242c0-0.418-0.076-0.827-0.228-1.216l-1.34-3.446h0.020v-4.339c0-3.592 0.381-7.194 1.134-10.706l0.537-2.504h-2.957l0.114-0.913c0.050-0.399-0.132-0.78-0.474-0.992s-0.763-0.205-1.1 0.019l-2.414 1.61v22.728c0 1.032 0.469 1.956 1.204 2.571l-1.607 2.009 0.806 0.645 1.694-2.118c0.313 0.127 0.648 0.207 0.999 0.234v3.626h1.032v-3.707c0.316-0.075 0.615-0.194 0.889-0.351l2.359 2.359zM19.743 2.854l1.932-1.314-0.325 2.6 1.024 0.128 0.082-0.654h1.809l-0.269 1.255c-0.767 3.583-1.157 7.258-1.157 10.922v1.514c-0.682-2.264-1.032-4.606-1.032-6.987 0-1.002 0.063-2.015 0.187-3.011l0.249-2.048-1.025-0.12-0.248 2.040c-0.13 1.037-0.196 2.093-0.196 3.139 0 3.15 0.579 6.235 1.721 9.172l1.734 4.46c0.105 0.269 0.158 0.553 0.158 0.842v0.242c0 1.281-1.042 2.323-2.323 2.323s-2.323-1.042-2.323-2.323v-22.179z"></path>
</svg>
