<!-- Generated by IcoMoon.io -->
<svg version="1.1" xmlns="http://www.w3.org/2000/svg" width="32" height="32" viewBox="0 0 32 32">
<title>lighter</title>
<path fill="#ffa64d" d="M8.774 14.452h14.452v12.387h-14.452v-12.387z"></path>
<path fill="#333" d="M17.628 17.771l-1.112 1.112-1.548-1.548-1.165 1.165c-0.58 0.58-0.9 1.351-0.9 2.171 0 1.693 1.378 3.071 3.071 3.071h0.229c1.595 0 2.893-1.298 2.893-2.893 0-0.572-0.168-1.128-0.486-1.605l-0.983-1.473zM16.203 22.71h-0.229c-1.124 0-2.039-0.915-2.039-2.039 0-0.545 0.212-1.057 0.597-1.442l0.435-0.435 1.548 1.548 0.952-0.952 0.284 0.426c0.204 0.307 0.313 0.664 0.313 1.032-0.001 1.027-0.835 1.861-1.862 1.861z"></path>
<path fill="#333" d="M23.742 9.342v-7.536c0-0.996-0.81-1.806-1.806-1.806s-1.806 0.81-1.806 1.806v4.903h-2.581v-2.065c0.854 0 1.548-0.695 1.548-1.548s-0.695-1.548-1.548-1.548h-3.097c-0.854 0-1.548 0.695-1.548 1.548s0.695 1.548 1.548 1.548v2.065h-2.581v-4.903c0-0.996-0.81-1.806-1.806-1.806s-1.806 0.81-1.806 1.806v7.536c-1.176 0.24-2.065 1.282-2.065 2.529v16.516c0 1.992 1.621 3.613 3.613 3.613h12.387c1.992 0 3.613-1.621 3.613-3.613v-16.516c0-1.246-0.888-2.289-2.065-2.529zM13.935 3.097c0-0.285 0.231-0.516 0.516-0.516h3.097c0.285 0 0.516 0.231 0.516 0.516s-0.231 0.516-0.516 0.516h-3.097c-0.285 0-0.516-0.231-0.516-0.516zM15.484 4.645h1.032v2.065h-1.032v-2.065zM24.774 28.387c0 1.423-1.158 2.581-2.581 2.581h-12.387c-1.423 0-2.581-1.158-2.581-2.581v-16.516c0-0.854 0.695-1.548 1.548-1.548h11.871v-1.032h-11.355v-7.484c0-0.427 0.347-0.774 0.774-0.774s0.774 0.347 0.774 0.774v5.935h10.323v-5.935c0-0.427 0.347-0.774 0.774-0.774s0.774 0.347 0.774 0.774v7.484h-1.032v1.032h1.548c0.854 0 1.548 0.695 1.548 1.548v16.516z"></path>
</svg>
