<!-- Generated by IcoMoon.io -->
<svg version="1.1" xmlns="http://www.w3.org/2000/svg" width="32" height="32" viewBox="0 0 32 32">
<title>location-pin</title>
<path fill="#000" d="M16 25.806c-4.617 0-9.29-1.086-9.29-3.164 0-1.842 3.584-2.793 6.939-3.069l0.085 1.029c-3.91 0.321-5.992 1.39-5.992 2.039 0 0.869 3.217 2.132 8.258 2.132s8.258-1.262 8.258-2.132c0-0.649-2.082-1.718-5.992-2.039l0.085-1.029c3.355 0.276 6.939 1.226 6.939 3.069 0 2.077-4.674 3.164-9.29 3.164z"></path>
<path fill="#000" d="M28.387 8.258h-5.677v1.032h5.677c0.854 0 1.548 0.695 1.548 1.548v16h-1.032v-15.484c0-0.569-0.463-1.032-1.031-1.032l-5.161-0.012-0.003 1.032 5.163 0.012v15.484h-23.742v-15.484h5.161v-1.032h-5.161c-0.569 0-1.032 0.463-1.032 1.032v15.484h-1.032v-16c0-0.854 0.695-1.548 1.548-1.548h5.677v-1.032h-5.677c-1.423 0-2.581 1.158-2.581 2.581v18.581c0 1.423 1.158 2.581 2.581 2.581h24.774c1.423 0 2.581-1.158 2.581-2.581v-18.581c0-1.423-1.158-2.581-2.581-2.581zM12.387 27.871h7.226v0.516c0 0.285-0.232 0.516-0.516 0.516h-6.194c-0.284 0-0.516-0.231-0.516-0.516zM29.935 29.419c0 0.854-0.695 1.548-1.548 1.548h-24.774c-0.854 0-1.548-0.695-1.548-1.548v-1.548h9.29v0.516c0 0.854 0.695 1.548 1.548 1.548h6.194c0.854 0 1.548-0.695 1.548-1.548v-0.516h9.29z"></path>
<path fill="#000" d="M21.677 28.903h1.032v1.032h-1.032z"></path>
<path fill="#000" d="M23.742 28.903h1.032v1.032h-1.032z"></path>
<path fill="#000" d="M25.806 28.903h1.032v1.032h-1.032z"></path>
<path fill="#f0bc5e" d="M20.617 4.764l-0.488-0.223v8.878c0 0.57-0.462 1.032-1.032 1.032s-1.032-0.462-1.032-1.032v-5.677l-0.125-0.125c-0.581-0.581-0.907-1.368-0.907-2.189v-1.814c0-0.149 0.014-0.293 0.034-0.436-0.696-0.103-1.414-0.103-2.099-0.004v1.561c0 0.274-0.109 0.536-0.302 0.73l-0.427 0.427c-0.194 0.194-0.302 0.457-0.302 0.73v6.798c0 0.57-0.462 1.032-1.032 1.032s-1.032-0.462-1.032-1.032v-6.798c0-0.274-0.109-0.536-0.302-0.73l-0.427-0.427c-0.086-0.086-0.151-0.186-0.202-0.294-1.394 1.37-2.165 3.195-2.165 5.152v0.283c0 1.255 0.329 2.494 0.952 3.585l5.053 8.844c0.249 0.437 0.716 0.708 1.22 0.708s0.971-0.271 1.22-0.708l5.053-8.844c0.623-1.090 0.952-2.33 0.952-3.585v-0.283c0-2.154-0.951-4.18-2.609-5.558z"></path>
<path fill="#000" d="M19.097 14.968c-0.854 0-1.548-0.695-1.548-1.548v-5.464c-0.666-0.68-1.032-1.577-1.032-2.528v-1.814c0-1.992 1.621-3.613 3.613-3.613h0.516v13.419c0 0.854-0.695 1.548-1.548 1.548zM19.613 1.084c-1.176 0.239-2.065 1.282-2.065 2.528v1.814c0 0.689 0.268 1.337 0.756 1.825l0.276 0.276v5.892c0 0.285 0.232 0.516 0.516 0.516s0.516-0.231 0.516-0.516z"></path>
<path fill="#000" d="M12.387 0h1.032v4.645h-1.032z"></path>
<path fill="#000" d="M12.903 14.968c-0.854 0-1.548-0.695-1.548-1.548v-6.798c0-0.136-0.055-0.269-0.151-0.365l-0.427-0.427c-0.293-0.292-0.454-0.681-0.454-1.095v-4.734h1.032v4.734c0 0.136 0.055 0.269 0.151 0.365l0.427 0.427c0.293 0.292 0.454 0.681 0.454 1.095v6.798c0 0.285 0.232 0.516 0.516 0.516s0.516-0.231 0.516-0.516v-6.798c0-0.414 0.161-0.803 0.454-1.095l0.427-0.427c0.096-0.097 0.151-0.229 0.151-0.365v-4.734h1.032v4.734c0 0.414-0.161 0.803-0.454 1.095l-0.427 0.427c-0.096 0.097-0.151 0.229-0.151 0.365v6.798c0 0.854-0.695 1.548-1.548 1.548z"></path>
<path fill="#000" d="M15.484 16h1.032v1.032h-1.032z"></path>
<path fill="#000" d="M17.548 16h1.032v1.032h-1.032z"></path>
<path fill="#000" d="M13.419 16h1.032v1.032h-1.032z"></path>
</svg>
