<!-- Generated by IcoMoon.io -->
<svg version="1.1" xmlns="http://www.w3.org/2000/svg" width="32" height="32" viewBox="0 0 32 32">
<title>lollipop</title>
<path fill="#f9ba48" d="M31.484 10.323c0 5.416-4.39 9.806-9.806 9.806s-9.806-4.39-9.806-9.806c0-5.416 4.391-9.806 9.806-9.806s9.806 4.391 9.806 9.806z"></path>
<path fill="#333" d="M21.677 0c-5.692 0-10.323 4.631-10.323 10.323 0 2.265 0.742 4.356 1.984 6.060l-12.671 12.672c-0.618 0.618-0.667 0.983-0.667 1.397 0 0.839 0.709 1.548 1.548 1.548 0.731 0 1.165-0.435 1.397-0.667l12.672-12.672c1.704 1.242 3.795 1.985 6.060 1.985 5.692 0 10.323-4.631 10.323-10.323s-4.631-10.323-10.323-10.323zM30.111 6.45c-1.177-0.276-2.283-0.325-3.316-0.148-0.622-0.98-1.525-1.859-2.724-2.449 0.695-0.856 1.388-1.283 2.106-1.653 1.723 0.958 3.105 2.451 3.934 4.249zM26.839 9.806c0 1.845-0.654 3.109-1.597 3.926-0.417-0.971-1.061-1.83-1.922-2.547 0.299-0.492 0.423-1.027 0.423-1.38 0-0.248-0.026-0.497-0.073-0.741 0.794-0.774 1.661-1.303 2.608-1.589 0.378 0.785 0.562 1.603 0.562 2.329zM24.356 19.215c-0.842 0.254-1.733 0.394-2.655 0.396-1.264-0.125-2.475-0.467-3.582-0.994 1.164-0.729 1.944-1.902 2.374-2.717 0.379 0.065 0.775 0.099 1.186 0.099 1.033 0 2.066-0.221 2.987-0.668 0.226 1.167 0.126 2.475-0.309 3.883zM18.086 4.483c0.047 0.693 0.189 1.355 0.428 1.986-0.805 0.299-1.438 0.837-1.866 1.586-0.665-0.334-1.302-0.857-1.81-1.462 0.154-0.19 0.318-0.373 0.494-0.549 0.718-0.718 1.662-1.242 2.754-1.56zM21.161 11.355c-0.095 0-0.184-0.005-0.269-0.012 0.571-0.061 1.301-0.367 1.301-1.536 0-0.697-0.611-1.379-1.298-1.518-0.326-0.34-0.61-0.692-0.846-1.058 0.027-0.001 0.052-0.004 0.079-0.004 1.773 0 2.581 1.338 2.581 2.581 0 0.254-0.269 1.548-1.548 1.548zM19.613 10.322c0-0.742 0.29-1.032 1.032-1.032 0.191 0 0.516 0.293 0.516 0.516 0 0.339-0.023 0.516-0.516 0.516v0.981c-0.843-0.182-1.032-0.797-1.032-0.982zM19.663 8.447c-0.694 0.297-1.082 0.941-1.082 1.875 0 0.489 0.271 1.086 0.826 1.514-0.538 0.46-1.148 0.82-1.798 1.081-0.369-0.601-0.577-1.305-0.577-2.080 0-1.355 0.366-2.921 1.917-3.436 0.202 0.361 0.442 0.709 0.714 1.046zM19.462 15.633c-0.428 0.754-1.252 1.911-2.425 2.384-0.616-0.39-1.192-0.836-1.705-1.349-0.681-0.681-1.195-1.475-1.554-2.326 0.439 0.076 0.881 0.119 1.32 0.119 0.724 0 1.44-0.105 2.13-0.303 0.579 0.654 1.341 1.161 2.234 1.476zM16.248 9.007c-0.161 0.543-0.248 1.154-0.248 1.831 0 0.884 0.213 1.693 0.592 2.399-1.038 0.238-2.135 0.235-3.187-0.032-0.473-1.925-0.195-4.012 0.834-5.741 0.58 0.638 1.273 1.185 2.009 1.543zM12.519 8.828c0.149-0.917 0.431-1.787 0.829-2.594 0.068 0.122 0.132 0.245 0.21 0.363-0.459 0.695-0.804 1.448-1.038 2.231zM21.677 14.968c-1.373 0-2.552-0.454-3.38-1.214 0.774-0.356 1.494-0.839 2.124-1.453 0.227 0.051 0.468 0.087 0.74 0.087 0.606 0 1.086-0.175 1.459-0.44 0.813 0.665 1.4 1.467 1.755 2.38-0.842 0.446-1.799 0.64-2.698 0.64zM23.293 8.005c-0.554-1.036-1.617-1.812-3.164-1.812-0.207 0-0.406 0.015-0.6 0.037-0.254-0.623-0.4-1.282-0.43-1.981 0.494-0.079 1.011-0.121 1.546-0.121 2.435 0 4.103 1.079 5.090 2.443-0.874 0.299-1.69 0.775-2.442 1.433zM25.021 1.665c-0.643 0.392-1.293 0.919-1.944 1.789-0.724-0.226-1.532-0.358-2.433-0.358-0.52 0-1.021 0.043-1.509 0.111 0.065-0.612 0.205-1.253 0.423-1.923 0.682-0.159 1.389-0.253 2.119-0.253 1.18 0 2.305 0.23 3.344 0.633zM18.38 1.648c-0.156 0.605-0.254 1.192-0.293 1.76-1.382 0.353-2.579 0.998-3.485 1.905-0.13 0.13-0.245 0.268-0.364 0.405-0.105-0.19-0.196-0.381-0.269-0.574 1.065-1.58 2.606-2.807 4.411-3.496zM2.215 30.603c-0.213 0.213-0.386 0.364-0.667 0.364-0.304 0-0.516-0.272-0.516-0.516 0-0.207 0-0.302 0.365-0.667l12.595-12.595c0.258 0.288 0.531 0.561 0.819 0.819l-12.595 12.595zM25.547 18.758c0.333-1.426 0.347-2.773 0.045-3.985 0.609-0.453 1.132-1.034 1.523-1.753 1.541 0.539 2.281 1.716 2.3 2.434-0.952 1.431-2.293 2.579-3.868 3.304zM30.103 14.212c-0.442-0.86-1.313-1.683-2.578-2.141 0.22-0.665 0.346-1.417 0.346-2.264 0-0.794-0.189-1.681-0.565-2.542 1.001-0.115 2.087 0.015 3.265 0.379 0.256 0.849 0.397 1.748 0.397 2.679 0 1.39-0.315 2.705-0.865 3.89z"></path>
</svg>
