<!-- Generated by IcoMoon.io -->
<svg version="1.1" xmlns="http://www.w3.org/2000/svg" width="32" height="32" viewBox="0 0 32 32">
<title>macaron</title>
<path fill="#000" d="M31.484 27.241v-0.919c0-0.918-0.494-1.775-1.29-2.235l-0.516 0.893c0.477 0.276 0.774 0.79 0.774 1.342v0.516h-16v1.032h16c0.284 0 0.516 0.231 0.516 0.516v1.032c0 0.854-0.695 1.548-1.548 1.548h-17.548c-0.854 0-1.548-0.695-1.548-1.548v-1.032c0-0.285 0.232-0.516 0.516-0.516h2.581v-1.032h-2.581v-0.516c0-0.551 0.297-1.065 0.774-1.342l-0.516-0.893c-0.796 0.46-1.29 1.317-1.29 2.235v0.919c-0.314 0.283-0.516 0.69-0.516 1.146v1.032c0 1.423 1.158 2.581 2.581 2.581h17.548c1.423 0 2.581-1.158 2.581-2.581v-1.032c0-0.456-0.202-0.862-0.516-1.146z"></path>
<path fill="#000" d="M27.355 13.419h-5.161v-0.516c0-0.454-0.119-0.9-0.346-1.291l-0.893 0.517c0.135 0.234 0.206 0.501 0.206 0.774v0.516h-19.613v-0.516c0-0.273 0.072-0.54 0.206-0.774l-0.893-0.517c-0.227 0.391-0.346 0.837-0.346 1.291v0.919c-0.314 0.284-0.516 0.69-0.516 1.146v1.032c0 1.423 1.158 2.581 2.581 2.581h6.71v0.516c0 0.456 0.202 0.862 0.516 1.146v0.919c0 0.918 0.494 1.775 1.29 2.235l0.516-0.893c-0.477-0.277-0.774-0.791-0.774-1.342v-0.516h16.516v-1.032h-16.516c-0.284 0-0.516-0.231-0.516-0.516v-1.032c0-1.992 1.621-3.613 3.613-3.613h13.419c1.992 0 3.613 1.621 3.613 3.613v1.032c0 0.285-0.232 0.516-0.516 0.516h-2.065v1.032h2.065v0.516c0 0.551-0.297 1.065-0.774 1.342l0.517 0.893c0.795-0.46 1.29-1.317 1.29-2.235v-0.919c0.314-0.283 0.516-0.69 0.516-1.146v-1.032c0-2.562-2.084-4.645-4.645-4.645zM9.321 17.548h-6.74c-0.854 0-1.548-0.695-1.548-1.548v-1.032c0-0.285 0.232-0.516 0.516-0.516h9.474c-0.929 0.75-1.563 1.849-1.702 3.097z"></path>
<path fill="#000" d="M12.387 18.065c0-0.854 0.695-1.548 1.548-1.548v-1.032c-1.423 0-2.581 1.158-2.581 2.581h1.032z"></path>
<path fill="#000" d="M0.516 6.823v0.919c0 0.454 0.119 0.9 0.346 1.291l0.893-0.517c-0.135-0.234-0.206-0.501-0.206-0.774v-0.516h19.613v0.516c0 0.273-0.072 0.54-0.206 0.774l0.893 0.517c0.227-0.391 0.346-0.837 0.346-1.291v-0.919c0.314-0.283 0.516-0.69 0.516-1.146v-1.032c0-2.562-2.084-4.645-4.645-4.645h-13.419c-2.561 0-4.645 2.084-4.645 4.645v1.032c0 0.456 0.202 0.862 0.516 1.146zM1.032 4.645c0-1.992 1.621-3.613 3.613-3.613h13.419c1.992 0 3.613 1.621 3.613 3.613v1.032c0 0.285-0.232 0.516-0.516 0.516h-19.613c-0.284 0-0.516-0.231-0.516-0.516v-1.032z"></path>
<path fill="#000" d="M4.645 3.097v-1.032c-1.423 0-2.581 1.158-2.581 2.581h1.032c0-0.854 0.695-1.548 1.548-1.548z"></path>
<path fill="#000" d="M5.677 2.065h1.032v1.032h-1.032v-1.032z"></path>
<path fill="#000" d="M14.968 15.484h1.032v1.032h-1.032v-1.032z"></path>
<path fill="#f0bc5e" d="M20.645 12.387h-18.581c-1.139 0-2.065-0.926-2.065-2.065s0.926-2.065 2.065-2.065h18.581c1.139 0 2.065 0.926 2.065 2.065s-0.926 2.065-2.065 2.065z"></path>
<path fill="#f0bc5e" d="M28.387 25.806c-0.476 0-0.929-0.163-1.29-0.454-0.723 0.581-1.858 0.581-2.581 0-0.723 0.581-1.858 0.581-2.581 0-0.723 0.581-1.858 0.581-2.581 0-0.723 0.581-1.858 0.581-2.581 0-0.723 0.581-1.858 0.581-2.581 0-0.361 0.291-0.814 0.454-1.29 0.454-1.139 0-2.065-0.926-2.065-2.065s0.926-2.065 2.065-2.065c0.476 0 0.929 0.163 1.29 0.454 0.723-0.581 1.858-0.581 2.581 0 0.723-0.581 1.858-0.581 2.581 0 0.723-0.581 1.858-0.581 2.581 0 0.723-0.581 1.858-0.581 2.581 0 0.723-0.581 1.858-0.581 2.581 0 0.361-0.291 0.814-0.454 1.29-0.454 1.139 0 2.065 0.926 2.065 2.065s-0.926 2.065-2.065 2.065z"></path>
</svg>
