<!-- Generated by IcoMoon.io -->
<svg version="1.1" xmlns="http://www.w3.org/2000/svg" width="32" height="32" viewBox="0 0 32 32">
<title>man</title>
<path fill="#ffa64d" d="M24.238 5.281c-0.203-2.664-2.425-4.764-5.141-4.764-1.163 0-2.233 0.39-3.097 1.039-0.863-0.65-1.933-1.039-3.097-1.039-2.716 0-4.938 2.1-5.141 4.764-0.947 0.651-1.569 1.741-1.569 2.978 0 1.819 1.347 3.321 3.097 3.572v-2.539h0.824c2.139 0 4.215-0.728 5.885-2.065 1.671 1.336 3.746 2.065 5.885 2.065h0.824v2.539c1.75-0.251 3.097-1.752 3.097-3.572 0-1.236-0.621-2.326-1.569-2.978z"></path>
<path fill="#ffa64d" d="M11.355 28.903h9.29v2.065h-9.29v-2.065z"></path>
<path fill="#ffa64d" d="M18.581 18.065h-5.161v-1.032c0-0.57 0.462-1.032 1.032-1.032h3.097c0.57 0 1.032 0.462 1.032 1.032v1.032z"></path>
<path fill="#333" d="M27.387 26.555c-0.719-2.303-2.725-4.028-5.109-4.395l-2.665-0.41v-0.535c1.737-1.008 3.018-2.714 3.451-4.735 1.254-0.175 2.227-1.243 2.227-2.545 0-0.858-0.425-1.614-1.071-2.084 1.254-0.709 2.103-2.053 2.103-3.594 0-1.32-0.625-2.494-1.592-3.251-0.335-2.861-2.737-5.007-5.634-5.007-1.113 0-2.184 0.335-3.091 0.925-0.922-0.604-1.987-0.925-3.102-0.925-2.897 0-5.299 2.146-5.634 5.007-0.967 0.757-1.592 1.931-1.592 3.251 0 1.541 0.85 2.885 2.103 3.594-0.646 0.47-1.071 1.226-1.071 2.084 0 1.302 0.972 2.37 2.227 2.545 0.433 2.021 1.714 3.727 3.451 4.735v0.535l-2.665 0.41c-2.384 0.367-4.39 2.092-5.109 4.395l-1.702 5.445h26.178l-1.702-5.445zM26.403 26.863l0.687 2.201-3.348 0.744v-6.086c1.249 0.647 2.231 1.767 2.661 3.141zM23.204 15.396c0.008-0.142 0.022-0.283 0.022-0.428v-2.486c0.599 0.214 1.032 0.781 1.032 1.453 0 0.68-0.443 1.253-1.054 1.46zM6.71 8.258c0-1.708 1.389-3.097 3.097-3.097v-1.032c-0.477 0-0.934 0.086-1.361 0.235 0.567-1.949 2.353-3.332 4.458-3.332 0.795 0 1.557 0.2 2.239 0.578-0.469 0.453-0.863 0.988-1.155 1.591l0.929 0.451c0.784-1.615 2.386-2.619 4.181-2.619 2.105 0 3.891 1.383 4.458 3.332-0.427-0.15-0.884-0.235-1.361-0.235v1.032c1.708 0 3.097 1.389 3.097 3.097 0 1.346-0.863 2.49-2.065 2.916v-2.4h-1.34c-2.014 0-3.99-0.693-5.563-1.951l-0.323-0.258-0.323 0.258c-1.573 1.258-3.549 1.951-5.563 1.951h-1.34v2.4c-1.201-0.426-2.065-1.571-2.065-2.916zM7.742 13.935c0-0.672 0.433-1.24 1.032-1.453v2.486c0 0.145 0.013 0.285 0.022 0.428-0.611-0.207-1.054-0.78-1.054-1.46zM9.806 14.968v-5.161h0.308c2.113 0 4.186-0.683 5.885-1.93 1.699 1.247 3.773 1.93 5.885 1.93h0.308v5.161c0 3.415-2.778 6.194-6.194 6.194s-6.194-2.778-6.194-6.194zM16 22.194c0.91 0 1.778-0.176 2.581-0.485v0.271l-2.581 2.581-2.581-2.581v-0.271c0.803 0.309 1.671 0.485 2.581 0.485zM18.581 23.439v1.605l-1.146-0.459 1.146-1.146zM13.419 23.439l1.146 1.146-1.146 0.458v-1.605zM15.359 25.38l0.641 0.641 0.641-0.641 2.972 1.189v-3.773l1.032 0.159v3.884h-9.29v-3.885l1.032-0.159v3.773l2.972-1.189zM9.879 23.181l0.443-0.068v4.758h11.355v-4.758l0.443 0.068c0.201 0.031 0.395 0.082 0.589 0.134v7.653h-13.419v-7.652c0.194-0.053 0.388-0.104 0.589-0.135zM8.258 23.722v6.086l-3.348-0.744 0.687-2.201c0.43-1.374 1.412-2.494 2.661-3.141zM4.601 30.053l3.657 0.812v0.102h-3.943l0.286-0.915zM23.742 30.968v-0.102l3.657-0.813 0.286 0.915h-3.943z"></path>
<path fill="#333" d="M19.355 12.903c0.712 0 1.29-0.579 1.29-1.29s-0.579-1.29-1.29-1.29-1.29 0.579-1.29 1.29 0.579 1.29 1.29 1.29zM19.355 11.355c0.142 0 0.258 0.116 0.258 0.258s-0.116 0.258-0.258 0.258-0.258-0.116-0.258-0.258 0.116-0.258 0.258-0.258z"></path>
<path fill="#333" d="M13.935 11.613c0-0.712-0.579-1.29-1.29-1.29s-1.29 0.579-1.29 1.29 0.579 1.29 1.29 1.29 1.29-0.579 1.29-1.29zM12.645 11.871c-0.142 0-0.258-0.116-0.258-0.258s0.116-0.258 0.258-0.258 0.258 0.116 0.258 0.258-0.116 0.258-0.258 0.258z"></path>
<path fill="#333" d="M19.097 17.032c0-0.854-0.695-1.548-1.548-1.548h-3.097c-0.854 0-1.548 0.695-1.548 1.548v1.548h6.194v-1.548zM18.065 17.548h-4.129v-0.516c0-0.285 0.231-0.516 0.516-0.516h3.097c0.285 0 0.516 0.231 0.516 0.516v0.516z"></path>
</svg>
