<!-- Generated by IcoMoon.io -->
<svg version="1.1" xmlns="http://www.w3.org/2000/svg" width="32" height="32" viewBox="0 0 32 32">
<title>matches</title>
<path fill="#ffa64d" d="M2.323 17.548h11.355v12.387h-11.355v-12.387z"></path>
<path fill="#ffa64d" d="M30.698 5.653l-0.504-1.008-1.548 2.581c0-1.689-0.459-3.346-1.327-4.794l-0.221-0.367-1.548 1.548-0.516-3.613-1.058 1.058c-1.636 1.636-2.555 3.854-2.555 6.168l-1.548-2.581-0.504 1.008c-0.686 1.373-1.044 2.888-1.044 4.424 0 1.186 0.213 2.363 0.63 3.474v0c0.575 1.533 1.867 2.686 3.457 3.084l1.591 0.398v-3.383c-0.615-0.358-1.032-1.016-1.032-1.778 0-1.14 0.924-2.065 2.065-2.065s2.065 0.924 2.065 2.065c0 0.762-0.418 1.42-1.032 1.778v3.383l1.591-0.398c1.589-0.397 2.882-1.55 3.457-3.084v0c0.417-1.111 0.63-2.287 0.63-3.474 0-1.535-0.358-3.050-1.044-4.424z"></path>
<path fill="#333" d="M0.258 32h15.484v-24.774h-15.484v24.774zM1.29 30.968v-14.452h13.419v14.452h-13.419zM2.839 11.355c0-0.285 0.231-0.516 0.516-0.516s0.516 0.231 0.516 0.516-0.231 0.516-0.516 0.516-0.516-0.231-0.516-0.516zM5.935 11.355c0-0.285 0.231-0.516 0.516-0.516s0.516 0.231 0.516 0.516-0.231 0.516-0.516 0.516-0.516-0.231-0.516-0.516zM9.032 11.355c0-0.285 0.231-0.516 0.516-0.516s0.516 0.231 0.516 0.516-0.231 0.516-0.516 0.516-0.516-0.231-0.516-0.516zM12.129 11.355c0-0.285 0.231-0.516 0.516-0.516s0.516 0.231 0.516 0.516-0.231 0.516-0.516 0.516-0.516-0.231-0.516-0.516zM14.71 8.258v7.226h-1.548v-2.676c0.599-0.214 1.032-0.781 1.032-1.453 0-0.854-0.695-1.548-1.548-1.548s-1.548 0.695-1.548 1.548c0 0.672 0.433 1.24 1.032 1.453v2.676h-2.065v-2.676c0.599-0.214 1.032-0.781 1.032-1.453 0-0.854-0.695-1.548-1.548-1.548s-1.548 0.695-1.548 1.548c0 0.672 0.433 1.24 1.032 1.453v2.676h-2.065v-2.676c0.599-0.214 1.032-0.781 1.032-1.453 0-0.854-0.695-1.548-1.548-1.548s-1.548 0.695-1.548 1.548c0 0.672 0.433 1.24 1.032 1.453v2.676h-2.065v-2.676c0.599-0.214 1.032-0.781 1.032-1.453 0-0.854-0.695-1.548-1.548-1.548s-1.548 0.695-1.548 1.548c0 0.672 0.433 1.24 1.032 1.453v2.676h-1.548v-7.226h13.419z"></path>
<path fill="#333" d="M9.628 19.835l-1.112 1.112-1.548-1.548-1.165 1.165c-0.58 0.58-0.9 1.351-0.9 2.171 0 1.693 1.378 3.071 3.071 3.071h0.229c1.595 0 2.893-1.298 2.893-2.893 0-0.572-0.168-1.128-0.486-1.605l-0.983-1.473zM8.663 24.71l0.798-1.198-0.859-0.572-0.539 0.808-0.635-1.269-0.923 0.462 0.866 1.733c-0.829-0.259-1.436-1.025-1.436-1.938 0-0.545 0.212-1.057 0.597-1.442l0.435-0.435 1.548 1.548 0.952-0.952 0.284 0.426c0.204 0.307 0.313 0.664 0.313 1.032-0.001 0.867-0.599 1.591-1.402 1.797z"></path>
<path fill="#333" d="M7.484 26.839h1.032v1.032h-1.032v-1.032z"></path>
<path fill="#333" d="M10.065 26.839h1.032v1.032h-1.032v-1.032z"></path>
<path fill="#333" d="M4.903 26.839h1.032v1.032h-1.032v-1.032z"></path>
<path fill="#333" d="M25.032 9.29c-1.423 0-2.581 1.158-2.581 2.581 0 0.847 0.416 1.594 1.048 2.065h-0.016v18.065h3.097v-18.065h-0.016c0.632-0.471 1.048-1.218 1.048-2.065 0-1.423-1.158-2.581-2.581-2.581zM25.548 30.968h-1.032v-16.568c0.167 0.034 0.34 0.052 0.516 0.052s0.349-0.018 0.516-0.052v16.568zM25.032 13.419c-0.854 0-1.548-0.695-1.548-1.548s0.695-1.548 1.548-1.548 1.548 0.695 1.548 1.548-0.695 1.548-1.548 1.548z"></path>
<path fill="#333" d="M29.161 10.706c0 0.388-0.048 0.776-0.147 1.172-0.208 0.836-0.641 1.599-1.25 2.209l0.73 0.73c0.742-0.742 1.268-1.671 1.527-2.707 0.115-0.459 0.172-0.932 0.172-1.403v-0.383h-1.032v0.383z"></path>
<path fill="#333" d="M29.161 8.258h1.032v1.032h-1.032v-1.032z"></path>
<path fill="#333" d="M20.903 10.706v-0.383h-1.032v0.383c0 0.472 0.058 0.944 0.178 1.422 0.254 1.017 0.78 1.946 1.522 2.689l0.73-0.73c-0.61-0.61-1.042-1.373-1.255-2.227-0.094-0.378-0.142-0.766-0.142-1.154z"></path>
<path fill="#333" d="M19.871 8.258h1.032v1.032h-1.032v-1.032z"></path>
<path fill="#333" d="M24 6.407l0.967 0.967 1.098-0.732v1.1h1.032v-3.029l-1.999 1.332-2.13-2.13v3.827h1.032z"></path>
</svg>
