<!-- Generated by IcoMoon.io -->
<svg version="1.1" xmlns="http://www.w3.org/2000/svg" width="32" height="32" viewBox="0 0 32 32">
<title>meat</title>
<path fill="#f9ba48" d="M29.935 9.806c0 3.136-2.542 5.677-5.677 5.677s-5.677-2.542-5.677-5.677c0-3.136 2.542-5.677 5.677-5.677s5.677 2.542 5.677 5.677z"></path>
<path fill="#f9ba48" d="M6.194 13.419c2.056-0.060 4.783-0.327 6.194-1.032 2.065-1.032 3.685-0.64 4.645 0 1.548 1.032 2.065 2.581 2.065 4.129 0.001 1.672-0.517 5.161-4.13 6.194-1.985 0.567-5.256-0.306-7.742-1.548-2.065-1.032-4.645-3.097-4.645-5.677 0-1.032 0.516-2.065 2.581-2.065h1.032z"></path>
<path fill="#343433" d="M19.747 22.265l0.467-0.078c3.092-0.515 5.402-2.586 6.054-3.891l0.193-0.385-0.344-0.259c-0.094-0.071-2.347-1.727-4.669-0.565-2.12 1.061-2.116 3.55-1.817 4.718l0.117 0.46zM21.908 18.010c0.431-0.216 0.868-0.297 1.281-0.297 0.786 0 1.486 0.295 1.904 0.519-0.658 0.89-2.25 2.302-4.542 2.835-0.083-0.794-0.045-2.356 1.357-3.057z"></path>
<path fill="#343433" d="M32 10.323c0-5.705-3.889-8.258-7.742-8.258-2.965 0-5.249 1.144-7.637 3.825-3.913 4.393-6.365 5.466-12.492 5.466-3.029 0-4.129 2.469-4.129 4.129 0 0.171 0.010 0.344 0.025 0.516h-0.025v5.161l0.023 0.152c0.937 3.040 7.126 8.622 14.429 8.622 12.499 0 17.548-9.47 17.548-13.419v-5.677h-0.025c0.015-0.179 0.025-0.354 0.025-0.516zM4.129 12.387c6.423 0 9.15-1.195 13.263-5.812 2.201-2.471 4.191-3.479 6.866-3.479 4.635 0 6.71 3.629 6.71 7.226 0 0.921-0.341 2.414-0.493 2.945-2.031 6.574-8.678 10.991-16.539 10.991-5.525 0-9.547-2.566-11.468-4.968-0.926-1.157-1.435-2.508-1.435-3.806 0-1.071 0.647-3.097 3.097-3.097zM14.452 28.903c-6.665 0-12.505-5.094-13.419-7.822v-2.058c0.187 0.313 0.394 0.62 0.629 0.913 2.071 2.589 6.383 5.355 12.274 5.355 7.767 0 14.42-4.109 17.032-10.369v1.594c0 3.645-4.753 12.387-16.516 12.387z"></path>
<path fill="#343433" d="M14.968 19.097c1.423 0 2.581-1.158 2.581-2.581s-1.158-2.581-2.581-2.581-2.581 1.158-2.581 2.581 1.158 2.581 2.581 2.581zM14.968 14.968c0.854 0 1.548 0.695 1.548 1.548s-0.695 1.548-1.548 1.548-1.548-0.695-1.548-1.548 0.695-1.548 1.548-1.548z"></path>
<path fill="#343433" d="M28.387 9.806h-1.032c0 1.708-1.389 3.097-3.097 3.097v1.032c2.277 0 4.129-1.852 4.129-4.129z"></path>
<path fill="#343433" d="M10.071 26.396l-0.53 0.886c0.096 0.057 2.058 1.212 4.969 1.212 0.495 0 1.018-0.034 1.563-0.111l-0.146-1.022c-3.373 0.482-5.832-0.951-5.856-0.965z"></path>
<path fill="#343433" d="M17.023 27.355l0.010 1.032c0.1 0 0.678-0.026 2.228-0.543l-0.327-0.979c-1.4 0.466-1.906 0.489-1.911 0.489z"></path>
</svg>
