<!-- Generated by IcoMoon.io -->
<svg version="1.1" xmlns="http://www.w3.org/2000/svg" width="32" height="32" viewBox="0 0 32 32">
<title>meat1</title>
<path fill="#ffa64d" d="M29.677 31.484v0c-0.998 0-1.806-0.809-1.806-1.806v-10.581h3.613v10.581c0 0.998-0.809 1.806-1.806 1.806z"></path>
<path fill="#ffa64d" d="M14.194 32c-4.98 0-9.032-4.052-9.032-9.032v-1.442c0-1.029-0.504-1.997-1.347-2.588-2.388-1.672-3.814-4.41-3.814-7.325v-1.806c0-5.407 4.399-9.806 9.806-9.806h1.806c6.403 0 11.613 5.21 11.613 11.613v11.355c0 4.98-4.052 9.032-9.032 9.032z"></path>
<path fill="#333" d="M11.613 2.065h-1.806c-4.269 0-7.742 3.473-7.742 7.742v1.806c0 2.242 1.097 4.349 2.934 5.635 1.395 0.977 2.227 2.577 2.227 4.278v1.442c0 3.842 3.126 6.968 6.968 6.968s6.968-3.126 6.968-6.968v-1.806h-1.032v1.806c0 3.273-2.663 5.935-5.935 5.935s-5.935-2.663-5.935-5.935v-1.442c0-2.038-0.997-3.954-2.667-5.124-1.562-1.093-2.494-2.884-2.494-4.789v-1.806c0-3.7 3.010-6.71 6.71-6.71h1.806c4.696 0 8.516 3.82 8.516 8.516v8.516h1.032v-8.516c0-5.265-4.283-9.548-9.548-9.548z"></path>
<path fill="#333" d="M11.355 9.29c0-1.992-1.621-3.613-3.613-3.613s-3.613 1.621-3.613 3.613 1.621 3.613 3.613 3.613 3.613-1.621 3.613-3.613zM7.742 11.871c-1.423 0-2.581-1.158-2.581-2.581s1.158-2.581 2.581-2.581 2.581 1.158 2.581 2.581-1.158 2.581-2.581 2.581z"></path>
<path fill="#333" d="M30.208 0c-0.683 0-1.298 0.379-1.603 0.99-1.493 2.986-2.282 6.33-2.282 9.669v6.889h1.032v12.129c0 1.281 1.042 2.323 2.323 2.323s2.323-1.042 2.323-2.323v-27.885c0-0.988-0.804-1.792-1.792-1.792zM27.355 10.659c0-3.18 0.751-6.363 2.173-9.207 0.13-0.259 0.39-0.42 0.68-0.42 0.419 0 0.76 0.341 0.76 0.76v14.724h-3.613v-5.857zM29.677 30.968c-0.712 0-1.29-0.579-1.29-1.29v-10.065h2.581v10.065c0 0.712-0.579 1.29-1.29 1.29zM30.968 18.581h-2.581v-1.032h2.581v1.032z"></path>
<path fill="#333" d="M28.903 13.935h1.032v1.032h-1.032v-1.032z"></path>
<path fill="#333" d="M28.903 4.645h1.032v8.258h-1.032v-8.258z"></path>
<path fill="#333" d="M16.516 9.29h1.032v1.032h-1.032v-1.032z"></path>
<path fill="#333" d="M12.387 12.387h1.032v1.032h-1.032v-1.032z"></path>
<path fill="#333" d="M7.742 15.484h1.032v1.032h-1.032v-1.032z"></path>
<path fill="#333" d="M10.323 17.032h1.032v1.032h-1.032v-1.032z"></path>
<path fill="#333" d="M17.032 15.484h1.032v1.032h-1.032v-1.032z"></path>
<path fill="#333" d="M13.935 21.677h1.032v1.032h-1.032v-1.032z"></path>
<path fill="#333" d="M11.355 23.226h1.032v1.032h-1.032v-1.032z"></path>
<path fill="#333" d="M17.548 24.258h1.032v1.032h-1.032v-1.032z"></path>
<path fill="#333" d="M13.419 6.194h1.032v1.032h-1.032v-1.032z"></path>
</svg>
