<!-- Generated by IcoMoon.io -->
<svg version="1.1" xmlns="http://www.w3.org/2000/svg" width="32" height="32" viewBox="0 0 32 32">
<title>menu-1</title>
<path fill="#000" d="M21.375 0h-13.117v20.645h1.548v-1.032h-0.516v-18.581h11.355v4.129h4.129v14.452h-1.032v1.032h2.065v-16.214zM21.677 4.129v-2.367l2.367 2.367z"></path>
<path fill="#000" d="M16.516 12.482c-0.599 0.214-1.032 0.781-1.032 1.453v1.032h1.032v-1.032c0-0.285 0.232-0.516 0.516-0.516s0.516 0.231 0.516 0.516v1.032h1.032v-1.032c0-0.672-0.433-1.24-1.032-1.453v-1.127h4.645v6.194h1.032v-7.226h-6.71z"></path>
<path fill="#000" d="M10.323 10.839h5.161v1.032h-5.161z"></path>
<path fill="#000" d="M10.323 2.065h1.032v1.032h-1.032z"></path>
<path fill="#000" d="M12.387 2.065h7.226v1.032h-7.226z"></path>
<path fill="#000" d="M10.323 4.129h1.032v1.032h-1.032z"></path>
<path fill="#000" d="M12.387 4.129h7.226v1.032h-7.226z"></path>
<path fill="#000" d="M10.323 6.194h1.032v1.032h-1.032z"></path>
<path fill="#000" d="M12.387 6.194h7.226v1.032h-7.226z"></path>
<path fill="#000" d="M10.323 8.258h12.903v1.032h-12.903z"></path>
<path fill="#000" d="M10.323 12.903h4.129v1.032h-4.129z"></path>
<path fill="#f0bc5e" d="M17.032 29.935c-4.269 0-7.742-3.473-7.742-7.742s3.473-7.742 7.742-7.742 7.742 3.473 7.742 7.742-3.473 7.742-7.742 7.742z"></path>
<path fill="#000" d="M17.548 26.806v-1h-1.032v1.002c-2.149-0.239-3.86-1.949-4.099-4.099h1.002v-1.032h-1c0.1-0.885 0.45-1.73 1.016-2.422l-0.799-0.654c-0.827 1.011-1.282 2.287-1.282 3.593 0 3.13 2.547 5.677 5.677 5.677 1.306 0 2.582-0.456 3.593-1.282l-0.654-0.799c-0.693 0.567-1.538 0.917-2.423 1.016z"></path>
<path fill="#000" d="M17.032 16.516c-1.306 0-2.582 0.456-3.593 1.282l0.654 0.799c0.693-0.567 1.539-0.917 2.423-1.016v1h1.032v-1.002c2.149 0.239 3.86 1.949 4.099 4.099h-1.002v1.032h1c-0.1 0.885-0.45 1.73-1.016 2.422l0.799 0.654c0.827-1.011 1.282-2.287 1.282-3.593 0-3.13-2.547-5.677-5.677-5.677z"></path>
<path fill="#000" d="M18.581 22.71h-2.065v-3.097h1.032v2.065h1.032z"></path>
<path fill="#000" d="M25.29 32h-16.516v-0.516c0-1.423 1.158-2.581 2.581-2.581h11.355c1.423 0 2.581 1.158 2.581 2.581zM9.895 30.968h14.275c-0.213-0.601-0.787-1.032-1.46-1.032h-11.354c-0.673 0-1.247 0.431-1.46 1.032z"></path>
<path fill="#000" d="M29.419 32c-0.854 0-1.548-0.695-1.548-1.548v-8.621c-0.676-1.067-1.032-2.295-1.032-3.562v-0.871c0-2.332 1.296-4.429 3.382-5.473l0.747-0.373v18.9c0 0.854-0.695 1.548-1.548 1.548zM29.935 13.305c-1.291 0.948-2.065 2.45-2.065 4.093v0.871c0 1.115 0.327 2.195 0.946 3.123l0.087 0.13v8.931c0 0.285 0.232 0.516 0.516 0.516s0.516-0.231 0.516-0.516z"></path>
<path fill="#000" d="M3.613 12.387h1.032v4.645h-1.032z"></path>
<path fill="#000" d="M4.129 32c-0.854 0-1.548-0.695-1.548-1.548v-10.286c0-0.551-0.215-1.070-0.605-1.46l-0.034-0.034c-0.587-0.588-0.91-1.366-0.91-2.192v-4.093h1.032v4.093c0 0.551 0.215 1.070 0.605 1.46l0.034 0.034c0.587 0.588 0.91 1.366 0.91 2.192v10.286c0 0.285 0.232 0.516 0.516 0.516s0.516-0.231 0.516-0.516v-10.286c0-0.827 0.322-1.604 0.907-2.19l0.040-0.039c0.387-0.388 0.602-0.906 0.602-1.457v-4.093h1.032v4.093c0 0.827-0.322 1.604-0.907 2.19l-0.040 0.039c-0.387 0.388-0.602 0.906-0.602 1.457v10.286c0 0.854-0.695 1.548-1.548 1.548z"></path>
</svg>
