<!-- Generated by IcoMoon.io -->
<svg version="1.1" xmlns="http://www.w3.org/2000/svg" width="32" height="32" viewBox="0 0 32 32">
<title>menu</title>
<path fill="#f0bc5e" d="M28.387 6.71v17.032h-24.774v-17.032h-3.613v20.645h12.424c0.251 1.749 1.759 3.097 3.576 3.097s3.325-1.348 3.576-3.097h12.424v-20.645z"></path>
<path fill="#000" d="M20.984 1.548c-1.854 0-3.605 0.662-4.984 1.873-1.38-1.212-3.131-1.873-4.984-1.873h-7.919v22.71h25.806v-22.71zM27.871 23.226h-11.355v-8.258h-1.032v8.258h-11.355v-20.645h6.887c1.676 0 3.253 0.633 4.468 1.776v9.579h1.032v-9.579c1.215-1.143 2.792-1.776 4.468-1.776h6.887z"></path>
<path fill="#000" d="M9.29 3.613c-1.921 0-3.097 3.097-3.097 4.784 0 0.998 0.486 1.94 1.301 2.52 0.157 0.112 0.247 0.272 0.247 0.438v9.29c0 0.854 0.695 1.548 1.548 1.548s1.548-0.695 1.548-1.548v-9.29c0-0.166 0.090-0.327 0.247-0.439 0.815-0.58 1.301-1.522 1.301-2.519 0-1.687-1.176-4.784-3.097-4.784zM10.487 10.075c-0.426 0.304-0.681 0.782-0.681 1.28v9.29c0 0.285-0.231 0.516-0.516 0.516s-0.516-0.231-0.516-0.516v-9.29c0-0.497-0.255-0.976-0.681-1.28-0.544-0.387-0.868-1.014-0.868-1.678 0-1.268 0.935-3.752 2.065-3.752s2.065 2.484 2.065 3.752c0 0.664-0.324 1.291-0.868 1.678z"></path>
<path fill="#000" d="M23.226 3.613h1.032v5.265h-1.032z"></path>
<path fill="#000" d="M21.161 3.613h1.032v5.265h-1.032z"></path>
<path fill="#000" d="M20.129 3.613h-1.032v3.613c0 1.182 0.407 2.342 1.145 3.265 0.593 0.741 0.919 1.672 0.919 2.62v7.534c0 0.854 0.695 1.548 1.548 1.548s1.548-0.695 1.548-1.548v-7.534c0-0.949 0.327-1.88 0.919-2.62 0.739-0.923 1.145-2.083 1.145-3.265v-3.613h-1.032v3.613c0 0.949-0.327 1.88-0.919 2.62-0.739 0.924-1.145 2.083-1.145 3.265v7.534c0 0.285-0.231 0.516-0.516 0.516s-0.516-0.231-0.516-0.516v-7.534c0-1.182-0.407-2.341-1.145-3.265-0.593-0.74-0.919-1.671-0.919-2.62z"></path>
</svg>
