<!-- Generated by IcoMoon.io -->
<svg version="1.1" xmlns="http://www.w3.org/2000/svg" width="32" height="32" viewBox="0 0 32 32">
<title>milk-box</title>
<path fill="#f0bc5e" d="M13.935 18.581l1.032-1.377v-5.849h-14.452v14.452h13.419z"></path>
<path fill="#f0bc5e" d="M24.774 29.419h-9.29v-9.29h9.29v9.29z"></path>
<path fill="#000" d="M29.419 14.303v-3.465h-7.742v-7.742h-10.323v-3.097h-9.29v3.097h-2.065v28.903h32v-13.567l-2.581-4.129zM28.903 15.426l1.649 2.639h-3.299l1.65-2.639zM28.903 29.633l1.335 1.335h-2.669l1.335-1.335zM29.419 28.69v-7.528h-1.032v7.528l-1.548 1.548v-11.141h1.548v1.032h1.032v-1.032h1.548v11.141l-1.548-1.548zM28.387 13.935h-10.839v-2.065h10.839v2.065zM18.581 10.839v-1.032h-1.032v1.032h-1.032v3.441l-1.032 1.377v-10.797l2.065 2.065v1.851h1.032v-1.851l2.065-2.065v5.98h-2.065zM18.065 5.98l-1.851-1.851h3.702l-1.851 1.851zM10.323 3.097h-1.032v-2.065h1.032v2.065zM5.161 3.097v-2.065h1.032v2.065h-1.032zM7.226 1.032h1.032v2.065h-1.032v-2.065zM3.097 1.032h1.032v2.065h-1.032v-2.065zM1.032 30.968v-26.839h13.419v12.903l-1.032 1.377v12.559h-12.387zM14.452 18.753l2.839-3.785h10.682l-2.166 3.465v12.535h-11.355v-12.215z"></path>
<path fill="#000" d="M21.781 24.052l-1.652-2.203-1.652 2.203c-0.266 0.355-0.412 0.795-0.412 1.238 0 1.139 0.926 2.065 2.065 2.065s2.065-0.926 2.065-2.065c0-0.443-0.147-0.883-0.413-1.238zM20.129 26.323c-0.569 0-1.032-0.463-1.032-1.032 0-0.222 0.074-0.441 0.206-0.619l0.826-1.101 0.826 1.1c0.133 0.179 0.206 0.398 0.206 0.62 0 0.569-0.463 1.032-1.032 1.032z"></path>
<path fill="#000" d="M3.097 13.935h9.29v1.032h-9.29v-1.032z"></path>
<path fill="#000" d="M3.097 21.161h9.29v-5.161h-9.29v5.161zM4.129 17.032h7.226v3.097h-7.226v-3.097z"></path>
<path fill="#000" d="M3.097 22.194h9.29v1.032h-9.29v-1.032z"></path>
</svg>
