<!-- Generated by IcoMoon.io -->
<svg version="1.1" xmlns="http://www.w3.org/2000/svg" width="32" height="32" viewBox="0 0 32 32">
<title>milk</title>
<path fill="#f0bc5e" d="M2.581 31.484h12.387c1.14 0 2.065-0.924 2.065-2.065v-13.419c0-0.89-0.178-1.765-0.511-2.581h-0.005c-4.622 0-9.19-2.016-14.282-2.060l-0.572 0.859c-0.747 1.12-1.145 2.436-1.145 3.782v13.419c0 1.14 0.924 2.065 2.065 2.065z"></path>
<path fill="#f0bc5e" d="M29.935 29.419v-2.467c0-1.787 0.261-3.564 0.774-5.275 0.254-0.848 0.446-1.712 0.575-2.586-5.018-0.053-7.596-2.052-12.165-2.059 0.054 1.574 0.298 3.135 0.751 4.645 0.514 1.711 0.774 3.489 0.774 5.275v2.467c0 1.14 0.924 2.065 2.065 2.065h5.161c1.14 0 2.065-0.924 2.065-2.065z"></path>
<path fill="#000" d="M18.581 11.355v5.048c0 1.839 0.268 3.663 0.796 5.423 0.5 1.664 0.753 3.388 0.753 5.127v2.467c0 1.423 1.158 2.581 2.581 2.581h5.161c1.423 0 2.581-1.158 2.581-2.581v-2.467c0-1.738 0.253-3.463 0.753-5.127 0.528-1.759 0.796-3.584 0.796-5.423v-5.048h-13.419zM30.968 16.403c0 1.738-0.253 3.463-0.753 5.127-0.528 1.759-0.796 3.584-0.796 5.423v2.467c0 0.854-0.695 1.548-1.548 1.548h-5.161c-0.854 0-1.548-0.695-1.548-1.548v-2.467c0-1.838-0.268-3.663-0.796-5.423-0.5-1.664-0.753-3.389-0.753-5.127v-4.015h11.355v4.015z"></path>
<path fill="#000" d="M22.194 26.952h1.032c0-2.040-0.297-4.065-0.883-6.017-0.441-1.471-0.665-2.997-0.665-4.533v-0.919h-1.032v0.919c0 1.637 0.238 3.261 0.709 4.829 0.557 1.857 0.84 3.781 0.84 5.721z"></path>
<path fill="#000" d="M14.478 9.173c-0.597-0.895-0.949-1.916-1.036-2.98h1.010v-3.097h-1.032v-1.548c0-0.854-0.695-1.548-1.548-1.548h-6.194c-0.854 0-1.548 0.695-1.548 1.548v1.548h-1.032v3.097h1.010c-0.087 1.064-0.439 2.085-1.036 2.98l-1.838 2.758c-0.806 1.209-1.232 2.616-1.232 4.069v13.419c0 1.423 1.158 2.581 2.581 2.581h12.387c1.423 0 2.581-1.158 2.581-2.581v-13.419c0-1.452-0.426-2.859-1.232-4.069l-1.838-2.758zM5.161 1.548c0-0.284 0.231-0.516 0.516-0.516h6.194c0.285 0 0.516 0.232 0.516 0.516v1.548h-7.226v-1.548zM16.516 29.419c0 0.854-0.695 1.548-1.548 1.548h-12.387c-0.854 0-1.548-0.695-1.548-1.548v-13.419c0-1.248 0.366-2.457 1.059-3.496l1.838-2.758c0.71-1.065 1.124-2.284 1.213-3.553h5.18v-1.032h-6.194v-1.032h9.29v1.032h-2.065v1.032h1.051c0.089 1.268 0.503 2.487 1.213 3.553l1.838 2.758c0.693 1.038 1.059 2.248 1.059 3.496v13.419z"></path>
<path fill="#000" d="M13.935 14.452h-10.323c-0.854 0-1.548 0.695-1.548 1.548v10.323c0 0.854 0.695 1.548 1.548 1.548h10.323c0.854 0 1.548-0.695 1.548-1.548v-10.323c0-0.854-0.695-1.548-1.548-1.548zM14.452 26.323c0 0.285-0.231 0.516-0.516 0.516h-10.323c-0.285 0-0.516-0.231-0.516-0.516v-10.323c0-0.284 0.231-0.516 0.516-0.516h10.323c0.285 0 0.516 0.232 0.516 0.516v10.323z"></path>
<path fill="#000" d="M20.645 13.419h1.032v1.032h-1.032v-1.032z"></path>
</svg>
