<!-- Generated by IcoMoon.io -->
<svg version="1.1" xmlns="http://www.w3.org/2000/svg" width="32" height="32" viewBox="0 0 32 32">
<title>mineral</title>
<path fill="#f0bc5e" d="M30.404 22.699c-2.577 0-5.668-2.061-8.76-2.061-2.611 0-4.481 1.099-5.002 1.442l0.748 7.978c0.075 0.795 0.742 1.402 1.539 1.402h9.552c0.798 0 1.465-0.607 1.539-1.402l0.69-7.359h-0.306z"></path>
<path fill="#f0bc5e" d="M7.214 15.485c-2.558 0-4.638-2.080-4.638-4.638s2.080-4.638 4.638-4.638 4.638 2.080 4.638 4.638-2.080 4.638-4.638 4.638z"></path>
<path fill="#000" d="M15.409 14.454l1.468 15.652c0.099 1.065 0.982 1.869 2.052 1.869h9.552c1.070 0 1.953-0.803 2.052-1.869l1.468-15.652h-16.591zM29.506 30.010c-0.050 0.533-0.491 0.934-1.026 0.934h-9.552c-0.535 0-0.976-0.401-1.026-0.934l-1.362-14.525h14.328l-1.362 14.525z"></path>
<path fill="#000" d="M13.765 14.789l0.28-0.982c0.255-0.89 0.384-1.811 0.384-2.737 0-2.912-1.268-5.67-3.479-7.564l-0.128-0.11v-1.825c0-0.852-0.694-1.546-1.546-1.546h-4.123c-0.852 0-1.546 0.694-1.546 1.546v1.824l-0.128 0.11c-2.211 1.895-3.479 4.652-3.479 7.565 0 0.926 0.129 1.847 0.383 2.737l0.28 0.983c0.244 0.851 0.367 1.732 0.367 2.617v0.571c0 1.025-0.164 2.039-0.489 3.013-0.359 1.079-0.542 2.202-0.542 3.339v5.070c0 1.421 1.156 2.577 2.577 2.577h9.276c1.421 0 2.577-1.156 2.577-2.577v-5.070c0-1.136-0.182-2.26-0.542-3.339-0.325-0.973-0.489-1.987-0.489-3.012v-0.571c0-0.885 0.123-1.766 0.366-2.618zM4.638 1.571c0-0.284 0.231-0.515 0.515-0.515h4.123c0.284 0 0.515 0.231 0.515 0.515v1.546h-5.153v-1.546zM11.852 30.944h-9.276c-0.671 0-1.238-0.432-1.451-1.031h12.177c-0.213 0.598-0.78 1.031-1.451 1.031zM13.398 24.76h-1.031v1.031h1.031v1.031h-10.306v1.031h10.306v1.031h-12.368v-1.031h1.031v-1.031h-1.031v-1.031h10.306v-1.031h-10.306v-0.432c0-0.2 0.011-0.399 0.024-0.599h12.32c0.012 0.199 0.024 0.398 0.024 0.599v0.432zM13.054 13.523l-0.28 0.983c-0.27 0.944-0.407 1.92-0.407 2.9v0.571c0 0.028 0.003 0.056 0.004 0.083h-1.034v1.031h1.097c0.080 0.755 0.234 1.5 0.476 2.224 0.151 0.453 0.264 0.915 0.345 1.383h-12.079c0.081-0.467 0.194-0.93 0.345-1.383 0.241-0.724 0.395-1.469 0.476-2.224h8.311v-1.031h-8.249c0.001-0.028 0.004-0.056 0.004-0.083v-0.571c0-0.981-0.137-1.957-0.407-2.9l-0.28-0.983c-0.228-0.798-0.344-1.623-0.344-2.453 0-2.611 1.137-5.083 3.119-6.782l0.163-0.14h5.802l0.163 0.14c1.982 1.698 3.119 4.17 3.119 6.782 0 0.83-0.116 1.656-0.344 2.453z"></path>
<path fill="#000" d="M7.214 7.927l-1.649 2.199c-0.266 0.354-0.412 0.794-0.412 1.236 0 1.137 0.924 2.061 2.061 2.061s2.061-0.924 2.061-2.061c0-0.443-0.146-0.882-0.412-1.236l-1.649-2.199zM7.214 12.393c-0.568 0-1.031-0.462-1.031-1.031 0-0.225 0.071-0.439 0.206-0.618l0.824-1.099 0.825 1.099c0.135 0.18 0.206 0.394 0.206 0.618 0 0.568-0.462 1.031-1.031 1.031z"></path>
<path fill="#000" d="M18.036 16.515h5.668v1.031h-5.668v-1.031z"></path>
<path fill="#000" d="M24.735 16.515h1.031v1.031h-1.031v-1.031z"></path>
<path fill="#000" d="M27.827 24.245h1.031v1.031h-1.031v-1.031z"></path>
<path fill="#000" d="M22.159 22.699h1.031v1.031h-1.031v-1.031z"></path>
<path fill="#000" d="M19.067 25.791h1.031v1.031h-1.031v-1.031z"></path>
<path fill="#000" d="M24.22 27.337h1.031v1.031h-1.031v-1.031z"></path>
</svg>
