<!-- Generated by IcoMoon.io -->
<svg version="1.1" xmlns="http://www.w3.org/2000/svg" width="32" height="32" viewBox="0 0 32 32">
<title>muffin</title>
<path fill="#f0bc5e" d="M4.881 26.34l0.941 3.607c0.236 0.906 1.055 1.538 1.991 1.538h16.373c0.936 0 1.755-0.632 1.991-1.538l0.941-3.607h-22.238z"></path>
<path fill="#f0bc5e" d="M19.602 10.903c-0.851 0-1.544-0.693-1.544-1.544s0.693-1.544 1.544-1.544 1.544 0.693 1.544 1.544-0.693 1.544-1.544 1.544z"></path>
<path fill="#f0bc5e" d="M18.058 16.563c-0.851 0-1.544-0.693-1.544-1.544s0.693-1.544 1.544-1.544 1.544 0.693 1.544 1.544-0.693 1.544-1.544 1.544z"></path>
<path fill="#f0bc5e" d="M9.825 15.534c-0.851 0-1.544-0.693-1.544-1.544s0.693-1.544 1.544-1.544 1.544 0.693 1.544 1.544-0.693 1.544-1.544 1.544z"></path>
<path fill="#000" d="M30.922 15.534c0-2.389-1.817-4.361-4.142-4.605-0.168-1.597-1.152-2.954-2.524-3.648l-0.049-0.143c-1.017-3.053-3.447-5.483-6.5-6.5l-1.916-0.639-1.099 1.648c-0.662 0.994-1.724 1.632-2.912 1.751-2.054 0.205-3.747 1.621-4.315 3.605l-0.151 0.529c-1.144 0.743-1.942 1.973-2.092 3.396-2.325 0.245-4.143 2.216-4.143 4.605 0 1.436 0.674 2.786 1.791 3.656l-0.305 0.305 2.76 10.581c0.296 1.132 1.319 1.923 2.49 1.923h16.372c1.17 0 2.194-0.791 2.49-1.923l2.76-10.581-0.305-0.305c1.118-0.871 1.792-2.22 1.792-3.656zM6.32 29.817l-2.612-10.011 2.001-2.001 2.085 2.085 1.445 11.080h-1.426c-0.702 0-1.317-0.474-1.494-1.154zM19.078 19.873l2.067-2.067 2.030 2.030-1.453 11.135h-3.127l0.483-11.098zM17.566 30.971h-3.131l-0.483-11.116 2.048-2.049 2.049 2.049-0.483 11.116zM12.922 19.873l0.483 11.098h-3.127l-1.453-11.135 2.030-2.030 2.067 2.067zM25.68 29.817c-0.177 0.679-0.792 1.154-1.494 1.154h-1.426l1.445-11.080 2.085-2.085 2.001 2.001-2.612 10.011zM26.291 16.35l-2.573 2.573-2.573-2.573-2.573 2.573-2.573-2.573-2.573 2.573-2.573-2.573-2.573 2.573-2.573-2.573-2.102 2.102c-0.931-0.673-1.5-1.758-1.5-2.918 0-1.824 1.364-3.332 3.124-3.566 0.103 0.854 0.439 1.671 0.979 2.345l0.803-0.644c-0.517-0.644-0.79-1.423-0.79-2.251 0-1.986 1.616-3.602 3.602-3.602v-1.029c-0.435 0-0.854 0.064-1.253 0.177 0.534-1.403 1.792-2.39 3.309-2.541 1.496-0.15 2.833-0.953 3.666-2.204l0.663-0.994 1.171 0.39c2.542 0.847 4.602 2.784 5.622 5.248-0.269-0.049-0.545-0.076-0.828-0.076v1.029c1.986 0 3.602 1.616 3.602 3.602v0.515h0.515c1.986 0 3.602 1.616 3.602 3.602 0 1.16-0.569 2.245-1.5 2.918l-2.102-2.102z"></path>
<path fill="#000" d="M18.573 3.7c-0.273 0-0.539 0.074-0.772 0.21-0.233-0.136-0.499-0.21-0.772-0.21-0.851 0-1.544 0.693-1.544 1.544h1.029c0-0.284 0.231-0.515 0.515-0.515 0.199 0 0.326 0.112 0.384 0.179l0.387 0.443 0.387-0.443c0.058-0.067 0.186-0.179 0.384-0.179 0.284 0 0.515 0.231 0.515 0.515h1.029c0-0.851-0.693-1.544-1.544-1.544z"></path>
<path fill="#000" d="M11.884 8.845c-0.273 0-0.539 0.074-0.772 0.21-0.233-0.136-0.499-0.21-0.772-0.21-0.851 0-1.544 0.693-1.544 1.544h1.029c0-0.284 0.231-0.515 0.515-0.515 0.199 0 0.326 0.112 0.384 0.179l0.387 0.443 0.387-0.443c0.058-0.067 0.186-0.179 0.384-0.179 0.284 0 0.515 0.231 0.515 0.515h1.029c0-0.851-0.693-1.544-1.544-1.544z"></path>
<path fill="#000" d="M25.776 13.476c-0.273 0-0.539 0.074-0.772 0.21-0.233-0.136-0.499-0.21-0.772-0.21-0.851 0-1.544 0.693-1.544 1.544h1.029c0-0.284 0.231-0.515 0.515-0.515 0.199 0 0.326 0.112 0.384 0.179l0.387 0.443 0.387-0.443c0.058-0.067 0.186-0.179 0.384-0.179 0.284 0 0.515 0.231 0.515 0.515h1.029c0-0.851-0.693-1.544-1.544-1.544z"></path>
<path fill="#000" d="M27.835 15.534h1.029v1.029h-1.029v-1.029z"></path>
<path fill="#000" d="M22.689 9.874h1.029v1.029h-1.029v-1.029z"></path>
<path fill="#000" d="M12.913 5.758h1.029v1.029h-1.029v-1.029z"></path>
<path fill="#000" d="M12.398 11.932h1.029v1.029h-1.029v-1.029z"></path>
<path fill="#000" d="M3.651 15.020h1.029v1.029h-1.029v-1.029z"></path>
</svg>
