<!-- Generated by IcoMoon.io -->
<svg version="1.1" xmlns="http://www.w3.org/2000/svg" width="32" height="32" viewBox="0 0 32 32">
<title>mushroom</title>
<path fill="#f0bc5e" d="M19.595 10.65l-3.025-2.475c-0.188-0.214-0.514-0.234-0.728-0.046-0.556 0.489-0.874 1.195-0.874 1.935 0 1.423 1.158 2.581 2.581 2.581 0.918 0 1.774-0.494 2.235-1.29 0.143-0.247 0.058-0.563-0.188-0.705z"></path>
<path fill="#f0bc5e" d="M7.396 6.709c-0.142-0.246-0.458-0.331-0.706-0.187l-3.008 3.008c-0.143 0.247-0.059 0.563 0.187 0.706 0.391 0.227 0.837 0.346 1.291 0.346 1.423 0 2.581-1.158 2.581-2.581 0-0.455-0.119-0.901-0.346-1.291z"></path>
<path fill="#f0bc5e" d="M9.806 11.097c-1.423 0-2.581 1.158-2.581 2.581l4.645 0.516c0.285 0 0.516-0.231 0.516-0.516 0-1.423-1.158-2.581-2.581-2.581z"></path>
<path fill="#000" d="M28.903 26.314c0-0.231-0.043-0.458-0.13-0.674-0.599-1.497-0.903-3.073-0.903-4.685v-0.052h1.788c1.291 0 2.341-1.050 2.341-2.341 0-0.625-0.244-1.213-0.686-1.655l-4.413-4.413c-0.568-0.568-1.323-0.881-2.127-0.881s-1.559 0.313-2.127 0.881l-0.977 0.977c-0.036-0.708-0.351-1.376-0.883-1.849l-7.802-6.935c-0.592-0.526-1.354-0.817-2.147-0.817s-1.555 0.29-2.147 0.817l-7.802 6.935c-0.566 0.503-0.89 1.226-0.89 1.982 0 1.463 1.19 2.653 2.653 2.653h5.089v1.198c0 0.872-0.116 1.74-0.345 2.581l-1.089 3.99c-0.076 0.279-0.115 0.566-0.115 0.855 0 0.856 0.335 1.634 0.879 2.215h-5.009v1.032h27.871v-1.032h-1.217c0.115-0.238 0.184-0.501 0.184-0.782zM19.89 20.903h1.788v0.052c0 1.612-0.303 3.189-0.903 4.686-0.086 0.216-0.129 0.442-0.129 0.673 0 0.281 0.070 0.545 0.184 0.782h-6.225c0.544-0.581 0.879-1.358 0.879-2.215 0-0.289-0.039-0.577-0.115-0.854l-1.089-3.991c-0.229-0.841-0.345-1.709-0.345-2.581v-1.198h4.948l-0.649 0.649c-0.442 0.442-0.685 1.030-0.685 1.655 0 1.291 1.050 2.341 2.341 2.341zM14.049 15.226h-0.113v-0.036c0.038 0.012 0.075 0.024 0.113 0.036zM2.463 15.215c-0.805-0.094-1.431-0.78-1.431-1.61 0-0.462 0.198-0.904 0.544-1.212l7.802-6.934c0.806-0.717 2.116-0.717 2.921 0l7.802 6.935c0.346 0.307 0.544 0.749 0.544 1.211 0 0.887-0.715 1.609-1.599 1.621-1.644-0.010-3.079-0.469-4.598-0.956-1.701-0.545-3.459-1.108-5.673-1.108-3.644 0-5.712 1.532-6.311 2.054zM4.306 15.226c0.782-0.412 1.926-0.839 3.436-0.98v0.98h-3.436zM9.441 27.097c-1.222 0-2.215-0.994-2.215-2.215 0-0.197 0.026-0.393 0.078-0.583l1.089-3.991c0.253-0.929 0.382-1.888 0.382-2.852v-3.263c1.542 0 2.873 0.305 4.129 0.676v2.586c0 0.964 0.129 1.924 0.382 2.852l1.089 3.991c0.052 0.19 0.078 0.386 0.078 0.583 0 1.221-0.994 2.215-2.215 2.215h-2.795zM22.46 27.097c-0.431 0-0.782-0.351-0.782-0.782 0-0.1 0.019-0.198 0.056-0.291 0.648-1.62 0.977-3.325 0.977-5.069v-0.052h2.065v-1.032h-4.885c-0.722 0-1.309-0.587-1.309-1.308 0-0.349 0.136-0.678 0.383-0.925l4.413-4.413c0.746-0.746 2.048-0.746 2.794 0l4.413 4.413c0.247 0.247 0.383 0.576 0.383 0.925 0 0.721-0.587 1.308-1.309 1.308h-3.852v1.032h1.032v0.052c0 1.745 0.329 3.45 0.976 5.068 0.037 0.093 0.056 0.191 0.056 0.291 0 0.431-0.351 0.782-0.782 0.782h-4.629z"></path>
<path fill="#000" d="M24.85 22.502c0.107 1.086 0.329 2.164 0.659 3.203l0.984-0.312c-0.309-0.97-0.516-1.976-0.615-2.991l-1.027 0.101z"></path>
<path fill="#000" d="M30.968 27.097h1.032v1.032h-1.032v-1.032z"></path>
<path fill="#000" d="M0 27.097h1.032v1.032h-1.032v-1.032z"></path>
<path fill="#000" d="M2.065 13.161h1.032v1.032h-1.032v-1.032z"></path>
<path fill="#000" d="M9.806 6.968h1.032v1.032h-1.032v-1.032z"></path>
<path fill="#000" d="M12.387 10.065h1.032v1.032h-1.032v-1.032z"></path>
<path fill="#000" d="M18.581 13.161h1.032v1.032h-1.032v-1.032z"></path>
<path fill="#000" d="M19.613 17.806h1.032v1.032h-1.032v-1.032z"></path>
<path fill="#000" d="M22.71 16.258h1.032v1.032h-1.032v-1.032z"></path>
<path fill="#000" d="M24.774 17.806h1.032v1.032h-1.032v-1.032z"></path>
<path fill="#000" d="M27.871 16.774h1.032v1.032h-1.032v-1.032z"></path>
<path fill="#000" d="M24.258 13.677h1.032v1.032h-1.032v-1.032z"></path>
</svg>
