<!-- Generated by IcoMoon.io -->
<svg version="1.1" xmlns="http://www.w3.org/2000/svg" width="32" height="32" viewBox="0 0 32 32">
<title>nachos</title>
<path fill="#f0bc5e" d="M28.903 18.582c0-1.87-1.139-3.552-2.875-4.247l-2.286-0.915v0.433c-0.001 0.974-0.625 1.84-1.548 2.147-0.921 0.307-1.543 1.167-1.547 2.137l-0.002 0.443c-0.855 0-1.548 0.693-1.548 1.548s0.693 1.548 1.548 1.548h8.258c0.855 0 1.548-0.693 1.548-1.548s-0.693-1.548-1.548-1.548z"></path>
<path fill="#f0bc5e" d="M6.71 17.034h1.032v1.032h-1.032z"></path>
<path fill="#f0bc5e" d="M10.839 6.195h1.032v1.032h-1.032z"></path>
<path fill="#f0bc5e" d="M12.903 8.259h1.032v1.032h-1.032z"></path>
<path fill="#f0bc5e" d="M14.452 12.388h1.032v1.032h-1.032z"></path>
<path fill="#f0bc5e" d="M5.161 8.775h1.032v1.032h-1.032z"></path>
<path fill="#f0bc5e" d="M6.71 10.324h1.032v1.032h-1.032z"></path>
<path fill="#f0bc5e" d="M5.161 13.937h1.032v1.032h-1.032z"></path>
<path fill="#f0bc5e" d="M9.806 14.453h1.032v1.032h-1.032z"></path>
<path fill="#f0bc5e" d="M13.935 17.034h1.032v1.032h-1.032z"></path>
<path fill="#f0bc5e" d="M17.548 13.937h1.032v1.032h-1.032z"></path>
<path fill="#f0bc5e" d="M18.581 16.517h1.032v1.032h-1.032z"></path>
<path fill="#f0bc5e" d="M3.613 17.034h1.032v1.032h-1.032z"></path>
<path fill="#000" d="M30.681 21.163c0.178-0.305 0.287-0.654 0.287-1.032 0-0.967-0.671-1.775-1.57-1.998-0.166-1.906-1.375-3.555-3.178-4.276l-2.994-1.198v1.194c0 0.386-0.128 0.748-0.346 1.042l-3.088-3.529c-0.293-0.333-0.715-0.525-1.159-0.525-0.531 0-1.015 0.268-1.299 0.715l-1.605-1.284 1.677-1.021c0.319-0.195 0.54-0.5 0.624-0.86 0.083-0.357 0.020-0.725-0.178-1.036-0.138-0.217-0.334-0.391-0.568-0.504l-6.411-3.089c-0.453-0.218-0.978-0.193-1.406 0.069-0.432 0.264-0.691 0.721-0.691 1.223l-0.001 2.491-3.832-1.278c-0.144-0.047-0.293-0.071-0.442-0.071-0.774 0-1.405 0.63-1.405 1.405v0.104c0 0.041 0.002 0.083 0.006 0.127l0.506 5.56-2.884 4.633c-0.136 0.219-0.208 0.471-0.208 0.728 0 0.12 0.021 0.235 0.050 0.346h-0.566v1.67l2.581 5.161v2.459h26.323v-2.335c1.801-0.639 3.097-2.356 3.097-4.374v-0.516zM24.239 14.175l1.597 0.639c1.387 0.554 2.329 1.8 2.512 3.252h-2.542v1.032h3.097c0.569 0 1.032 0.463 1.032 1.032s-0.463 1.032-1.032 1.032h-8.258c-0.569 0-1.032-0.463-1.032-1.032s0.463-1.032 1.032-1.032h3.097v-1.032h-2.573c0.034-0.718 0.5-1.346 1.188-1.575 1.033-0.344 1.759-1.252 1.882-2.316zM19.014 12.046l3.029 3.461c-0.004 0.002-0.008 0.004-0.012 0.005-1.132 0.377-1.895 1.432-1.899 2.625v0.002c-0.539 0.139-0.989 0.49-1.263 0.959h-1.622l0.349-0.349c0.302-0.303 0.47-0.706 0.47-1.134 0-0.537-0.267-1.036-0.714-1.334l-1.239-0.826 2.090-3.344c0.171-0.274 0.6-0.309 0.812-0.066zM10.631 18.023l-2.412-3.873 3.376-1.125c0.152-0.050 0.316-0.039 0.459 0.033 0.205 0.103 0.332 0.31 0.332 0.539v0.24c0 0.036-0.003 0.072-0.010 0.108l-0.937 5.154h-0.651c0.030-0.111 0.050-0.226 0.050-0.346 0-0.258-0.072-0.509-0.208-0.729zM13.27 14.802l3.508 2.338c0.16 0.106 0.255 0.284 0.255 0.475 0 0.153-0.059 0.296-0.167 0.404l-1.079 1.079h-3.297zM16.781 12.435l-1.53 2.447-1.832-1.222v-0.065c0-0.592-0.315-1.124-0.825-1.415l2.196-1.337zM9.808 5.052c0-0.139 0.074-0.267 0.196-0.342 0.070-0.042 0.15-0.064 0.23-0.064 0.066 0 0.132 0.015 0.192 0.043l6.41 3.090c0.060 0.029 0.11 0.073 0.144 0.128 0.048 0.075 0.063 0.163 0.043 0.248-0.021 0.088-0.076 0.164-0.156 0.212l-6.51 3.966c-0.171 0.104-0.395 0.054-0.5-0.111-0.034-0.053-0.051-0.113-0.051-0.175zM4.129 7.599c0-0.245 0.261-0.426 0.49-0.354l4.156 1.386-0.001 3.417c0 0.259 0.074 0.511 0.213 0.729 0.005 0.008 0.013 0.014 0.019 0.022l-1.347 0.449-0.754-1.212c-0.266-0.426-0.725-0.681-1.227-0.681-0.468 0-0.891 0.227-1.163 0.602l-0.386-4.255zM1.548 18.752c0-0.065 0.018-0.129 0.053-0.183l3.726-5.985c0.076-0.122 0.207-0.195 0.351-0.195s0.275 0.073 0.351 0.195l3.726 5.985c0.035 0.055 0.053 0.119 0.053 0.184 0 0.191-0.155 0.346-0.346 0.346h-7.566c-0.191 0-0.346-0.155-0.346-0.346zM1.032 20.13h17.548c0 0.378 0.109 0.727 0.287 1.032h-1.319v0.516c0 1.459 0.677 2.761 1.732 3.613h-15.865l-2.384-4.767zM3.613 26.324h17.032v1.032h-17.032zM27.871 27.356h-6.194v-1.063c0.17 0.019 0.342 0.030 0.516 0.030h5.161c0.174 0 0.346-0.011 0.516-0.030zM27.355 25.292h-5.161c-1.817 0-3.325-1.348-3.576-3.097h12.314c-0.252 1.749-1.759 3.097-3.576 3.097z"></path>
</svg>
