<!-- Generated by IcoMoon.io -->
<svg version="1.1" xmlns="http://www.w3.org/2000/svg" width="32" height="32" viewBox="0 0 32 32">
<title>noodles</title>
<path fill="#f9ba48" d="M19.613 26.303c0 1.995-1.618 3.613-3.613 3.613s-3.613-1.618-3.613-3.613c0-1.995 1.618-3.613 3.613-3.613s3.613 1.618 3.613 3.613z"></path>
<path fill="#343433" d="M16.516 23.722h-1.032c0 1.1-0.965 2.065-2.065 2.065v1.032c1.063 0 2.020-0.568 2.581-1.411 0.561 0.842 1.518 1.411 2.581 1.411v-1.032c-1.1 0-2.065-0.965-2.065-2.065z"></path>
<path fill="#343433" d="M16.66 27.851h-1.32l-0.399-1.195-0.979 0.326 0.633 1.901h2.809l0.633-1.901-0.979-0.326z"></path>
<path fill="#343433" d="M30.452 13.916h-7.226c-0.854 0-1.548 0.695-1.548 1.548 0 0.182 0.037 0.354 0.095 0.516h-8.353v-6.86l1.032-0.051v1.749h1.032v-1.799l0.516-0.025v1.825h1.032v-1.875l14.477-0.706-0.051-1.031-14.426 0.703v-1.421l13.103-5.517-0.4-0.952-12.703 5.349v-0.228h-1.032v0.662l-0.516 0.217v-0.363h-1.032v0.798l-1.032 0.435v-0.2h-1.032v0.635l-0.516 0.217v-0.337h-1.032v0.771l-0.716 0.301 0.2 0.476 0.025 0.516 0.491-0.024v6.734h-0.611c0.058-0.162 0.095-0.334 0.095-0.516 0-0.854-0.695-1.548-1.548-1.548h-7.226c-0.854 0-1.548 0.695-1.548 1.548s0.695 1.548 1.548 1.548h3.708l2.586 12.498c0.297 1.431 1.572 2.47 3.033 2.47h10.249c1.461 0 2.737-1.039 3.033-2.47l2.586-12.498h3.708c0.854 0 1.548-0.695 1.548-1.548s-0.695-1.548-1.548-1.548zM21.892 18.569c-2.313 0.074-3.995 0.996-4.696 2.573h-0.99c0.685-1.558 2.478-3.023 5.759-3.090l-0.074 0.517zM21.743 19.614l-0.060 0.422-0.005 0.073c0 0.424-0.608 1.032-1.032 1.032h-2.26c0.617-0.914 1.773-1.443 3.358-1.527zM11.871 18.387v-1.375h0.516v1.573c-0.168-0.074-0.34-0.138-0.516-0.198zM13.94 21.141h-2.585c-0.424 0-1.032-0.608-1.032-1.032l-0.144-1.019c1.579 0.112 3.041 0.925 3.762 2.051zM22.115 17.012l-0.001 0.003c-4.15 0.026-6.308 2.063-7.009 4.107-0.346-0.77-0.94-1.441-1.686-1.96v-2.15h8.695zM16 6.924v1.036l-0.516 0.025v-0.844l0.516-0.217zM14.452 7.576v0.46l-1.032 0.051v-0.076l1.032-0.435zM11.871 9.196l0.516-0.025v6.81h-0.516v-6.785zM10.839 18.131c-0.265-0.043-0.534-0.069-0.807-0.078l-0.147-1.041h0.954v1.118zM1.548 15.98c-0.285 0-0.516-0.231-0.516-0.516s0.231-0.516 0.516-0.516h7.226c0.285 0 0.516 0.231 0.516 0.516s-0.231 0.516-0.516 0.516h-7.226zM23.146 29.302c-0.197 0.953-1.048 1.646-2.022 1.646h-10.249c-0.974 0-1.825-0.693-2.022-1.646l-2.542-12.29h2.531l0.449 3.138c0.028 0.991 1.074 2.024 2.064 2.024h9.29c0.99 0 2.036-1.033 2.064-2.024l0.449-3.138h2.531l-2.542 12.29zM30.452 15.98h-7.226c-0.285 0-0.516-0.231-0.516-0.516s0.231-0.516 0.516-0.516h7.226c0.285 0 0.516 0.231 0.516 0.516s-0.231 0.516-0.516 0.516z"></path>
</svg>
