<!-- Generated by IcoMoon.io -->
<svg version="1.1" xmlns="http://www.w3.org/2000/svg" width="32" height="32" viewBox="0 0 32 32">
<title>onion</title>
<path fill="#000" d="M21.825 17.522l0.739-0.722c-1.068-1.093-2.412-1.843-3.888-2.168-0.543-0.12-1.096-0.181-1.645-0.181-0.017 0-0.032 0-0.048 0-0.474 0-0.9-0.164-1.238-0.433l0.006-0.009-0.084-0.051c-0.367-0.325-0.61-0.787-0.646-1.319-0.035-0.521-0.052-1.047-0.052-1.565 0-1.128 0.181-2.243 0.538-3.312l0.42-1.261c0.357-1.070 0.881-2.070 1.558-2.973l2.026-2.702c0.157-0.209 0.133-0.504-0.057-0.683-0.19-0.181-0.485-0.189-0.686-0.023l-1.814 1.511c-2.188 1.823-3.747 4.202-4.541 6.871-0.681-2.645-2.057-5.070-4.039-7.053l-1.298-1.298c-0.173-0.174-0.446-0.201-0.651-0.065s-0.284 0.398-0.191 0.626l2.934 7.125c0.426 1.032 0.641 2.121 0.641 3.237 0 0.518-0.018 1.044-0.052 1.564-0.069 1.035-0.919 1.814-2.005 1.814-0.003 0-0.005 0-0.008 0-2.137 0-4.127 0.852-5.602 2.398-1.475 1.546-2.231 3.576-2.131 5.717 0.195 4.132 3.681 7.369 7.937 7.369h0.312v2.064h8.258v-2.064h0.516c0.559 0 1.117-0.060 1.658-0.179l-0.22-1.008c-0.469 0.102-0.953 0.154-1.438 0.154h-2.669c0.78-1.302 2.153-3.976 2.153-6.71 0-0.875-0.143-1.791-0.425-2.722l-0.988 0.299c0.252 0.834 0.381 1.65 0.381 2.423 0 2.922-1.813 5.904-2.34 6.71h-1.514c-0.526-0.805-2.34-3.787-2.34-6.71 0-3.376 2.437-6.35 2.461-6.379l-0.793-0.661c-0.11 0.132-2.7 3.284-2.7 7.040 0 2.733 1.372 5.408 2.153 6.71h-2.464c-3.704 0-6.737-2.805-6.906-6.384-0.087-1.856 0.568-3.616 1.846-4.956 1.062-1.113 2.432-1.803 3.939-2.008-0.943 0.94-2.23 2.488-2.851 4.416l0.982 0.316c0.92-2.856 3.585-4.887 3.612-4.907l-0.006-0.008c1.225-0.318 2.135-1.351 2.222-2.666 0.010-0.154 0.008-0.309 0.015-0.463l4.385 2.631c0.304 0.228 0.654 0.394 1.029 0.496l-0.007 0.010c0.018 0.013 1.816 1.375 2.971 3.451l0.902-0.502c-0.65-1.167-1.47-2.115-2.126-2.77 0.167 0.023 0.333 0.044 0.499 0.081 1.279 0.282 2.445 0.932 3.372 1.881zM9.291 29.936h6.193v1.032h-6.193v-1.032zM10.838 11.063c-0.002-1.247-0.243-2.464-0.717-3.617l-1.93-4.687c2.22 2.474 3.5 5.591 3.662 8.913l-1.015-0.609zM14.526 7.435c-0.392 1.176-0.59 2.4-0.59 3.639 0 0.541 0.018 1.090 0.054 1.634 0.006 0.094 0.030 0.182 0.045 0.273l-1.134-0.68c-0.002-0.302-0.014-0.602-0.033-0.901l0.033 0.003c0.239-2.633 1.234-5.079 2.856-7.091-0.324 0.595-0.595 1.218-0.81 1.864l-0.42 1.261z"></path>
<path fill="#000" d="M3.711 21.071c-0.062 0.374-0.095 0.75-0.098 1.123 0 1.807 0.753 3.703 2.178 5.484l0.806-0.645c-0.89-1.112-1.951-2.855-1.951-4.834 0.003-0.314 0.031-0.636 0.084-0.958l-1.018-0.169z"></path>
<path fill="#000" d="M14.729 18.734l0.953-0.397c-0.779-1.868-1.822-3.13-1.866-3.183l-0.793 0.661c0.009 0.012 0.989 1.203 1.706 2.92z"></path>
<path fill="#f0bc5e" d="M24.258 32c-4.269 0-7.742-3.473-7.742-7.742s3.473-7.742 7.742-7.742 7.742 3.473 7.742 7.742-3.473 7.742-7.742 7.742z"></path>
<path fill="#000" d="M24.258 29.936c-3.13 0-5.677-2.547-5.677-5.677 0-1.117 0.326-2.199 0.942-3.13l0.86 0.57c-0.504 0.761-0.771 1.646-0.771 2.559 0 2.561 2.084 4.645 4.645 4.645 0.913 0 1.798-0.267 2.56-0.771l0.57 0.861c-0.931 0.616-2.013 0.942-3.13 0.942z"></path>
<path fill="#000" d="M28.993 27.388l-0.86-0.57c0.504-0.761 0.771-1.646 0.771-2.559 0-2.561-2.084-4.645-4.645-4.645-0.913 0-1.798 0.267-2.56 0.771l-0.57-0.861c0.931-0.616 2.013-0.942 3.13-0.942 3.13 0 5.677 2.547 5.677 5.677 0 1.117-0.326 2.199-0.942 3.13z"></path>
<path fill="#000" d="M24.258 25.807c-0.854 0-1.548-0.695-1.548-1.548s0.695-1.548 1.548-1.548 1.548 0.695 1.548 1.548-0.695 1.548-1.548 1.548zM24.258 23.742c-0.284 0-0.516 0.231-0.516 0.516s0.232 0.516 0.516 0.516 0.516-0.231 0.516-0.516-0.232-0.516-0.516-0.516z"></path>
<path fill="#000" d="M24.258 27.871c-0.539 0-1.062-0.119-1.555-0.355l0.445-0.932c0.353 0.169 0.726 0.254 1.11 0.254 1.423 0 2.581-1.158 2.581-2.581 0-0.383-0.086-0.757-0.254-1.11l0.932-0.445c0.236 0.492 0.355 1.016 0.355 1.555 0 1.992-1.621 3.613-3.613 3.613z"></path>
<path fill="#000" d="M21 25.814c-0.236-0.493-0.355-1.016-0.355-1.556 0-1.992 1.621-3.613 3.613-3.613 0.539 0 1.062 0.119 1.555 0.355l-0.445 0.932c-0.353-0.169-0.726-0.254-1.11-0.254-1.423 0-2.581 1.158-2.581 2.581 0 0.383 0.086 0.757 0.254 1.11l-0.932 0.446z"></path>
</svg>
