<!-- Generated by IcoMoon.io -->
<svg version="1.1" xmlns="http://www.w3.org/2000/svg" width="32" height="32" viewBox="0 0 32 32">
<title>orange-juice</title>
<path fill="#f0bc5e" d="M24.19 13.682c-0.205-0.846-0.338-1.708-0.415-2.576h-0.076c-3.864 0-6.869-2.061-10.304-2.061s-5.152 1.546-5.152 1.546h-0.034c-0.099 1.694-0.441 3.366-1.022 4.964-0.665 1.828-1.005 3.759-1.005 5.704 0 3.128 0.879 6.194 2.537 8.847l0.039 0.062h11.849v-2.061l-1.546-14.425h5.128z"></path>
<path fill="#000" d="M32 13.166h-4.369l0.588-4.701c0.032-0.258 0.252-0.451 0.511-0.451h2.697v-1.030h-2.697c-0.778 0-1.437 0.582-1.534 1.354l-0.604 4.828h-1.986c-0.256-1.184-0.393-2.394-0.393-3.605 0-2.114 0.555-3.888 1.745-5.583 0.206-0.293 0.315-0.631 0.315-0.976 0-0.929-0.756-1.686-1.686-1.686h-15.316c-0.852 0-1.546 0.693-1.546 1.546v2.061h-5.152c-1.42 0-2.576 1.156-2.576 2.576v12.467c0 1.079 0.681 2.052 1.696 2.42l4.183 1.521c0.356 2.288 1.165 4.489 2.404 6.471l0.19 0.304h21.923v-2.549l1.604-14.967zM30.853 14.197l-1.435 13.395h-3.59l1.674-13.395h3.351zM24.789 27.592h-3.719l-1.435-13.395h6.828l-1.674 13.395zM16.144 18.333l0.176 0.877 1.010-0.202-0.213-1.063 1.063 0.213 0.202-1.010-0.878-0.176 1.257-1.257 0.34 3.174c-0.127 0.21-0.279 0.408-0.456 0.585-1.081 1.081-2.77 1.193-3.977 0.334l1.476-1.474zM5.693 20.36l-2.602-0.868v-11.478h4.637v1.547c0 1.99-0.345 3.947-1.025 5.817-0.585 1.608-0.922 3.28-1.010 4.981zM2.048 21.419c-0.609-0.222-1.018-0.805-1.018-1.453v-12.467c0-0.852 0.693-1.546 1.546-1.546h5.152v1.030h-4.637c-0.568 0-1.030 0.462-1.030 1.030v11.478c0 0.444 0.283 0.837 0.704 0.977l2.908 0.97c0.005 0.443 0.029 0.884 0.067 1.323l-3.692-1.343zM9.046 29.653c-1.537-2.531-2.348-5.429-2.348-8.393 0-1.891 0.328-3.751 0.974-5.528 0.721-1.983 1.087-4.059 1.087-6.169v-6.699c0-0.284 0.231-0.515 0.515-0.515h15.316c0.361 0 0.655 0.294 0.655 0.655 0 0.132-0.044 0.264-0.128 0.383-1.319 1.877-1.933 3.839-1.933 6.176 0 1.21 0.13 2.418 0.371 3.605h-5.067l0.132 1.233-5.438 5.439 0.364 0.364c0.804 0.804 1.858 1.206 2.914 1.206 1.005-0 2.007-0.368 2.794-1.097l0.838 7.823v1.519h-11.047zM21.123 29.653v-1.030h8.243v1.030h-8.243z"></path>
<path fill="#000" d="M22.476 21.364l-1.024 0.11-0.111-1.040 1.024-0.11 0.111 1.040z"></path>
<path fill="#000" d="M22.972 25.99l-1.024 0.11-0.396-3.695 1.024-0.11 0.396 3.695z"></path>
<path fill="#000" d="M10.819 9.562v-4.123h-1.030v4.123c0 1.009-0.080 2.021-0.238 3.008l1.018 0.162c0.166-1.041 0.25-2.108 0.25-3.17z"></path>
<path fill="#000" d="M9.814 19.676l-0.364 0.364c-1.606 1.607-1.606 4.222 0 5.829 0.804 0.804 1.859 1.205 2.914 1.205s2.111-0.401 2.914-1.205l0.364-0.364-5.829-5.829zM10.179 25.141c-1.081-1.081-1.192-2.771-0.334-3.977l1.475 1.475-0.877 0.176 0.202 1.010 1.063-0.213-0.213 1.063 1.010 0.202 0.176-0.877 1.475 1.475c-1.207 0.857-2.897 0.746-3.978-0.335z"></path>
<path fill="#000" d="M9.789 3.378h1.030v1.030h-1.030v-1.030z"></path>
<path fill="#000" d="M10.819 14.712h1.030v1.030h-1.030v-1.030z"></path>
<path fill="#000" d="M17.001 22.955h1.030v1.030h-1.030v-1.030z"></path>
<path fill="#000" d="M15.456 27.077h1.030v1.030h-1.030v-1.030z"></path>
<path fill="#000" d="M14.941 11.621h1.030v1.030h-1.030v-1.030z"></path>
</svg>
