<!-- Generated by IcoMoon.io -->
<svg version="1.1" xmlns="http://www.w3.org/2000/svg" width="32" height="32" viewBox="0 0 32 32">
<title>pancake</title>
<path fill="#000" d="M30.601 19.192c0-0.847-0.69-1.537-1.537-1.537h-1.119c0.057-0.161 0.094-0.332 0.094-0.512v-1.025c0-0.395-0.154-0.752-0.4-1.025 0.246-0.273 0.4-0.63 0.4-1.025v-1.025c0-0.847-0.69-1.537-1.537-1.537h-3.6c0.325-0.429 0.526-0.958 0.526-1.537 0-1.266-0.926-2.314-2.135-2.519 0.051-0.179 0.086-0.364 0.086-0.555 0-1.13-0.919-2.049-2.049-2.049h-0.544c-0.152-1.576-0.994-3.007-2.328-3.896l-1.425-0.95-0.761 1.522c-0.255 0.509-0.741 0.869-1.304 0.963-1.223 0.204-2.137 1.169-2.311 2.362h-0.549c-1.13 0-2.049 0.919-2.049 2.049 0 0.191 0.035 0.376 0.086 0.555-1.209 0.204-2.135 1.252-2.135 2.519 0 0.579 0.2 1.108 0.526 1.537h-3.6c-0.847 0-1.537 0.69-1.537 1.537v1.025c0 0.395 0.154 0.752 0.4 1.025-0.245 0.273-0.4 0.63-0.4 1.025v1.025c0 0.847 0.69 1.537 1.537 1.537h1.119c-0.057 0.161-0.094 0.332-0.094 0.512v1.025c0 0.395 0.154 0.752 0.4 1.025-0.245 0.273-0.4 0.63-0.4 1.025v1.025c0 0.395 0.154 0.752 0.4 1.025-0.245 0.273-0.4 0.63-0.4 1.025v1.025c0 0.847 0.69 1.537 1.537 1.537h11.271v-1.025h-11.271c-0.283 0-0.512-0.23-0.512-0.512v-1.025c0-0.283 0.23-0.512 0.512-0.512h7.173v-1.025h-7.173c-0.283 0-0.512-0.23-0.512-0.512v-1.025c0-0.283 0.23-0.512 0.512-0.512h7.685v-1.025h-7.685c-0.283 0-0.512-0.23-0.512-0.512v-1.025c0-0.283 0.23-0.512 0.512-0.512h3.586v-1.025h-6.148c-0.283 0-0.512-0.23-0.512-0.512v-1.025c0-0.283 0.23-0.512 0.512-0.512h5.636v-1.025h-5.636c-0.283 0-0.512-0.23-0.512-0.512v-1.025c0-0.283 0.23-0.512 0.512-0.512h23.567c0.283 0 0.512 0.23 0.512 0.512v1.025c0 0.283-0.23 0.512-0.512 0.512h-1.537v1.025h1.537c0.283 0 0.512 0.23 0.512 0.512v1.025c0 0.283-0.23 0.512-0.512 0.512h-1.537v1.025h4.099c0.283 0 0.512 0.23 0.512 0.512v1.025c0 0.283-0.23 0.512-0.512 0.512h-4.099v1.025h4.099c0.283 0 0.512 0.23 0.512 0.512v1.025c0 0.283-0.23 0.512-0.512 0.512h-4.099v1.025h4.099c0.283 0 0.512 0.23 0.512 0.512v1.025c0 0.283-0.23 0.512-0.512 0.512h-5.636v1.025h5.636c0.847 0 1.537-0.69 1.537-1.537v-1.025c0-0.395-0.154-0.752-0.4-1.025 0.246-0.273 0.4-0.63 0.4-1.025v-1.025c0-0.395-0.154-0.752-0.4-1.025 0.246-0.273 0.4-0.63 0.4-1.025v-1.025zM22.404 9.97c0 0.847-0.69 1.537-1.537 1.537s-1.537-0.69-1.537-1.537 0.69-1.537 1.537-1.537 1.537 0.69 1.537 1.537zM11.133 9.97c0-0.847 0.69-1.537 1.537-1.537s1.537 0.69 1.537 1.537-0.69 1.537-1.537 1.537-1.537-0.69-1.537-1.537zM10.634 11.507h-0.026c0.004-0.006 0.009-0.010 0.013-0.016 0.004 0.006 0.008 0.010 0.013 0.016zM14.719 11.491c0.004 0.006 0.009 0.010 0.013 0.016h-0.026c0.004-0.006 0.009-0.010 0.013-0.016zM15.232 9.97c0-0.847 0.69-1.537 1.537-1.537s1.537 0.69 1.537 1.537-0.69 1.537-1.537 1.537-1.537-0.69-1.537-1.537zM18.818 11.491c0.004 0.006 0.009 0.010 0.013 0.016h-0.026c0.004-0.006 0.009-0.010 0.013-0.016zM10.108 5.871h5.636v-1.025h-4.046c0.161-0.688 0.714-1.231 1.439-1.352 0.884-0.147 1.651-0.714 2.052-1.515l0.242-0.484 0.46 0.307c1.048 0.699 1.724 1.811 1.872 3.044h-0.993v1.025h2.562c0.565 0 1.025 0.46 1.025 1.025 0 0.234-0.083 0.453-0.227 0.634-0.53 0.161-0.986 0.484-1.309 0.919-0.467-0.628-1.209-1.041-2.049-1.041s-1.582 0.413-2.049 1.041c-0.467-0.628-1.209-1.041-2.049-1.041s-1.582 0.413-2.049 1.041c-0.323-0.434-0.779-0.757-1.309-0.919-0.144-0.181-0.227-0.401-0.227-0.634 0-0.565 0.46-1.025 1.025-1.025zM7.034 9.97c0-0.847 0.69-1.537 1.537-1.537s1.537 0.69 1.537 1.537-0.69 1.537-1.537 1.537-1.537-0.69-1.537-1.537z"></path>
<path fill="#000" d="M15.744 17.655h3.074v1.025h-3.074v-1.025z"></path>
<path fill="#000" d="M15.232 20.729h3.586v1.025h-3.586v-1.025z"></path>
<path fill="#000" d="M13.695 23.803h5.123v1.025h-5.123v-1.025z"></path>
<path fill="#000" d="M15.744 14.581h8.197v1.025h-8.197v-1.025z"></path>
<path fill="#000" d="M11.133 17.655h1.537v1.025h-1.537v-1.025z"></path>
<path fill="#f0bc5e" d="M28.040 32h-6.148c-0.847 0-1.537-0.69-1.537-1.537 0-0.283-0.23-0.512-0.512-0.512h-3.586c-0.847 0-1.537-0.69-1.537-1.537s0.69-1.537 1.537-1.537h1.537c0.283 0 0.512-0.23 0.512-0.512v-7.685c0-0.847 0.69-1.537 1.537-1.537h4.099c0.847 0 1.537 0.69 1.537 1.537v5.636c0 0.847-0.69 1.537-1.537 1.537s-1.537-0.69-1.537-1.537v-3.074c0-0.283-0.23-0.512-0.512-0.512s-0.512 0.23-0.512 0.512v5.123c0 0.283 0.23 0.512 0.512 0.512h1.537c0.847 0 1.537 0.69 1.537 1.537 0 0.283 0.23 0.512 0.512 0.512h2.562c0.847 0 1.537 0.69 1.537 1.537s-0.69 1.537-1.537 1.537z"></path>
<path fill="#f0bc5e" d="M8.571 12.532v5.636c0 0.847 0.69 1.537 1.537 1.537s1.537-0.69 1.537-1.537v-3.074c0-0.283 0.23-0.512 0.512-0.512s0.512 0.23 0.512 0.512v6.148c0 0.847 0.69 1.537 1.537 1.537s1.537-0.69 1.537-1.537v-8.71h-7.173z"></path>
</svg>
