<!-- Generated by IcoMoon.io -->
<svg version="1.1" xmlns="http://www.w3.org/2000/svg" width="32" height="32" viewBox="0 0 32 32">
<title>pea</title>
<path fill="#f0bc5e" d="M11.871 9.806c-0.789 0-1.487 0.362-1.961 0.92 1.306 1.109 2.6 2.232 3.873 3.379 0.411-0.457 0.669-1.055 0.669-1.719 0-1.425-1.156-2.581-2.581-2.581z"></path>
<path fill="#f0bc5e" d="M15.484 13.419c-0.664 0-1.263 0.258-1.72 0.669 1.268 1.143 2.514 2.31 3.747 3.491 0.342-0.437 0.554-0.981 0.554-1.579 0-1.425-1.156-2.581-2.581-2.581z"></path>
<path fill="#f0bc5e" d="M26.323 24.774c-0.902 0-1.693 0.464-2.155 1.165 0.553 1.223 0.978 2.506 1.268 3.83 0.278 0.103 0.574 0.167 0.887 0.167 1.425 0 2.581-1.156 2.581-2.581s-1.156-2.581-2.581-2.581z"></path>
<path fill="#f0bc5e" d="M22.71 20.645c-0.598 0-1.142 0.212-1.58 0.554 1.129 1.298 2.068 2.741 2.812 4.281 0.8-0.439 1.348-1.278 1.348-2.254 0-1.425-1.156-2.581-2.581-2.581z"></path>
<path fill="#f0bc5e" d="M20.209 20.209c0.317 0.317 0.622 0.647 0.916 0.984 0.341-0.438 0.553-0.981 0.553-1.579 0-1.425-1.156-2.581-2.581-2.581-0.598 0-1.142 0.212-1.579 0.553 0.905 0.866 1.805 1.737 2.691 2.623z"></path>
<path fill="#000" d="M30.673 24.266l-7.212-7.213c-3.995-3.995-8.371-7.639-13.019-10.859h1.43v-0.516c0-1.992-1.621-3.613-3.613-3.613h-5.256c0.058-0.162 0.095-0.334 0.095-0.516 0-0.854-0.695-1.548-1.548-1.548s-1.548 0.695-1.548 1.548 0.695 1.548 1.548 1.548c0.182 0 0.354-0.037 0.516-0.095v4.74c0 1.992 1.621 3.613 3.613 3.613h0.516v-1.943l3.574 7.149c2.141 4.283 4.944 8.171 8.33 11.558 2.503 2.503 5.831 3.881 9.371 3.881 2.498 0 4.531-2.033 4.531-4.531 0-1.21-0.471-2.348-1.327-3.204zM10.787 5.161h-4.634c-0.116-0.803-0.493-1.522-1.048-2.065h3.154c1.246 0 2.289 0.888 2.529 2.065zM1.548 2.065c-0.284 0-0.516-0.231-0.516-0.516s0.232-0.516 0.516-0.516 0.516 0.231 0.516 0.516-0.232 0.516-0.516 0.516zM5.161 10.27c-1.176-0.239-2.065-1.282-2.065-2.529v-4.593c1.176 0.239 2.065 1.282 2.065 2.529v4.593zM10.691 16.099l-3.473-6.946c4.378 3.585 8.626 7.42 12.625 11.42 2.579 2.579 4.345 5.826 5.11 9.393 0.062 0.29 0.174 0.561 0.324 0.803-2.43-0.438-4.667-1.598-6.45-3.381-3.307-3.307-6.044-7.105-8.136-11.288zM27.469 30.968c-0.722 0-1.355-0.512-1.507-1.218-0.806-3.761-2.669-7.187-5.389-9.906-4.175-4.175-8.616-8.181-13.197-11.903l-1.182-0.961v-0.787h2.421c5.062 3.386 9.811 7.284 14.116 11.589l7.212 7.213c0.661 0.661 1.025 1.539 1.025 2.474 0 1.929-1.57 3.498-3.498 3.498z"></path>
</svg>
