<!-- Generated by IcoMoon.io -->
<svg version="1.1" xmlns="http://www.w3.org/2000/svg" width="32" height="32" viewBox="0 0 32 32">
<title>pepper</title>
<path fill="#f0bc5e" d="M0.516 16h16.516v12.387h-16.516v-12.387z"></path>
<path fill="#000" d="M14.905 10.046c-0.293-0.293-0.454-0.681-0.454-1.095v-1.725h2.065v-3.097h-1.032v-1.548c0-1.423-1.158-2.581-2.581-2.581h-8.258c-1.423 0-2.581 1.158-2.581 2.581v1.548h-1.032v3.097h2.065v1.725c0 0.414-0.161 0.803-0.454 1.095l-1.887 1.887c-0.487 0.487-0.756 1.135-0.756 1.825v16.177c0 1.139 0.926 2.065 2.065 2.065h13.419c1.139 0 2.065-0.926 2.065-2.065v-16.177c0-0.69-0.269-1.338-0.756-1.825l-1.887-1.887zM3.097 2.581c0-0.854 0.695-1.548 1.548-1.548h8.258c0.854 0 1.548 0.695 1.548 1.548v1.548h-11.355v-1.548zM16.516 29.935c0 0.569-0.463 1.032-1.032 1.032h-13.419c-0.569 0-1.032-0.463-1.032-1.032v-16.177c0-0.414 0.161-0.803 0.454-1.095l1.887-1.887c0.487-0.487 0.756-1.135 0.756-1.825v-1.725h7.226v-1.032h-9.29v-1.032h13.419v1.032h-3.097v1.032h1.032v1.725c0 0.69 0.269 1.338 0.756 1.825l1.887 1.887c0.293 0.293 0.454 0.681 0.454 1.095v16.177z"></path>
<path fill="#000" d="M28.387 4.129c-1.011 0-1.924 0.418-2.581 1.090v-2.122h-1.032v4.186c-0.657-0.671-1.57-1.090-2.581-1.090h-3.613v0.516c0 1.917 1.502 3.485 3.39 3.602-0.182 0.308-0.293 0.661-0.293 1.044 0 0.62 0.28 1.17 0.713 1.548-0.434 0.379-0.713 0.929-0.713 1.548s0.28 1.17 0.713 1.548c-0.434 0.379-0.713 0.929-0.713 1.548s0.28 1.17 0.713 1.548c-0.434 0.379-0.713 0.929-0.713 1.548s0.28 1.17 0.713 1.548c-0.434 0.379-0.713 0.929-0.713 1.548s0.28 1.17 0.713 1.548c-0.434 0.379-0.713 0.929-0.713 1.548 0 1.064 0.812 1.932 1.847 2.042-0.185 0.31-0.299 0.668-0.299 1.054 0 1.139 0.926 2.065 2.065 2.065s2.065-0.926 2.065-2.065c0-0.387-0.114-0.745-0.299-1.054 1.035-0.11 1.847-0.978 1.847-2.042 0-0.62-0.28-1.17-0.713-1.548 0.434-0.379 0.713-0.929 0.713-1.548s-0.28-1.17-0.713-1.548c0.434-0.379 0.713-0.929 0.713-1.548s-0.28-1.17-0.713-1.548c0.434-0.379 0.713-0.929 0.713-1.548s-0.28-1.17-0.713-1.548c0.434-0.379 0.713-0.929 0.713-1.548s-0.28-1.17-0.713-1.548c0.434-0.379 0.713-0.929 0.713-1.548 0-1.139-0.926-2.065-2.065-2.065-0.378 0-0.727 0.109-1.032 0.287v-1.319h2.581c1.992 0 3.613-1.621 3.613-3.613v-0.516h-3.613zM19.665 7.226h2.529c1.246 0 2.289 0.888 2.529 2.065h-2.529c-1.246 0-2.289-0.888-2.529-2.065zM22.71 11.355c0-0.569 0.463-1.032 1.032-1.032s1.032 0.463 1.032 1.032-0.463 1.032-1.032 1.032-1.032-0.463-1.032-1.032zM22.71 14.452c0-0.569 0.463-1.032 1.032-1.032s1.032 0.463 1.032 1.032-0.463 1.032-1.032 1.032-1.032-0.463-1.032-1.032zM22.71 17.548c0-0.569 0.463-1.032 1.032-1.032s1.032 0.463 1.032 1.032-0.463 1.032-1.032 1.032-1.032-0.463-1.032-1.032zM22.71 20.645c0-0.569 0.463-1.032 1.032-1.032s1.032 0.463 1.032 1.032-0.463 1.032-1.032 1.032-1.032-0.463-1.032-1.032zM22.71 23.742c0-0.569 0.463-1.032 1.032-1.032s1.032 0.463 1.032 1.032-0.463 1.032-1.032 1.032-1.032-0.463-1.032-1.032zM25.487 25.29c-0.070 0.061-0.136 0.127-0.197 0.197-0.061-0.070-0.127-0.136-0.197-0.197 0.070-0.061 0.136-0.127 0.197-0.197 0.061 0.070 0.127 0.136 0.197 0.197zM22.71 26.839c0-0.569 0.463-1.032 1.032-1.032s1.032 0.463 1.032 1.032-0.463 1.032-1.032 1.032-1.032-0.463-1.032-1.032zM25.29 30.968c-0.569 0-1.032-0.463-1.032-1.032s0.463-1.032 1.032-1.032 1.032 0.463 1.032 1.032-0.463 1.032-1.032 1.032zM27.871 26.839c0 0.569-0.463 1.032-1.032 1.032s-1.032-0.463-1.032-1.032 0.463-1.032 1.032-1.032 1.032 0.463 1.032 1.032zM27.871 23.742c0 0.569-0.463 1.032-1.032 1.032s-1.032-0.463-1.032-1.032 0.463-1.032 1.032-1.032 1.032 0.463 1.032 1.032zM27.871 20.645c0 0.569-0.463 1.032-1.032 1.032s-1.032-0.463-1.032-1.032 0.463-1.032 1.032-1.032 1.032 0.463 1.032 1.032zM27.871 17.548c0 0.569-0.463 1.032-1.032 1.032s-1.032-0.463-1.032-1.032 0.463-1.032 1.032-1.032 1.032 0.463 1.032 1.032zM27.871 14.452c0 0.569-0.463 1.032-1.032 1.032s-1.032-0.463-1.032-1.032 0.463-1.032 1.032-1.032 1.032 0.463 1.032 1.032zM26.839 10.323c0.569 0 1.032 0.463 1.032 1.032s-0.463 1.032-1.032 1.032-1.032-0.463-1.032-1.032 0.463-1.032 1.032-1.032zM28.387 7.226h-2.529c0.24-1.176 1.282-2.065 2.529-2.065h2.529c-0.239 1.176-1.282 2.065-2.529 2.065z"></path>
<path fill="#000" d="M8.774 17.548c-2.562 0-4.645 2.084-4.645 4.645s2.084 4.645 4.645 4.645 4.645-2.084 4.645-4.645-2.084-4.645-4.645-4.645zM8.774 25.806c-1.992 0-3.613-1.621-3.613-3.613s1.621-3.613 3.613-3.613 3.613 1.621 3.613 3.613-1.621 3.613-3.613 3.613z"></path>
<path fill="#000" d="M8.258 2.065h1.032v1.032h-1.032v-1.032z"></path>
<path fill="#000" d="M10.323 2.065h1.032v1.032h-1.032v-1.032z"></path>
<path fill="#000" d="M12.387 2.065h1.032v1.032h-1.032v-1.032z"></path>
<path fill="#000" d="M6.194 2.065h1.032v1.032h-1.032v-1.032z"></path>
<path fill="#000" d="M4.129 2.065h1.032v1.032h-1.032v-1.032z"></path>
</svg>
