<!-- Generated by IcoMoon.io -->
<svg version="1.1" xmlns="http://www.w3.org/2000/svg" width="32" height="32" viewBox="0 0 32 32">
<title>pie</title>
<path fill="#f0bc5e" d="M30.651 17.929c0.786-0.293 1.349-1.044 1.349-1.929s-0.564-1.637-1.349-1.929c0.682-0.486 1.032-1.356 0.803-2.212-0.229-0.855-0.966-1.435-1.798-1.515 0.186-0.226 0.328-0.486 0.406-0.777 0.143-0.533 0.070-1.089-0.206-1.566s-0.721-0.819-1.254-0.962c-0.291-0.078-0.587-0.086-0.875-0.037 0.121-0.266 0.19-0.554 0.19-0.855 0-0.552-0.215-1.070-0.605-1.46s-0.908-0.605-1.46-0.605c-0.301 0-0.589 0.069-0.855 0.19 0.049-0.288 0.041-0.585-0.037-0.875-0.143-0.533-0.485-0.978-0.962-1.254-0.477-0.275-1.034-0.349-1.566-0.206-0.292 0.078-0.553 0.22-0.778 0.407-0.080-0.833-0.659-1.571-1.514-1.799-0.855-0.23-1.726 0.12-2.212 0.803-0.293-0.786-1.044-1.349-1.929-1.349s-1.637 0.563-1.929 1.348c-0.486-0.683-1.356-1.033-2.212-0.803-0.855 0.229-1.434 0.966-1.514 1.799-0.226-0.187-0.487-0.329-0.778-0.407-0.533-0.143-1.089-0.069-1.566 0.206s-0.819 0.721-0.962 1.254c-0.078 0.291-0.086 0.587-0.037 0.875-0.266-0.121-0.554-0.19-0.855-0.19-0.552 0-1.070 0.215-1.46 0.605s-0.605 0.908-0.605 1.46c0 0.301 0.069 0.589 0.191 0.855-0.288-0.049-0.584-0.041-0.875 0.037-0.534 0.143-0.979 0.485-1.255 0.962s-0.349 1.034-0.206 1.566c0.078 0.292 0.22 0.553 0.407 0.778-0.833 0.081-1.571 0.659-1.799 1.514s0.121 1.726 0.803 2.212c-0.785 0.292-1.349 1.043-1.349 1.929s0.563 1.637 1.349 1.929c-0.682 0.486-1.032 1.356-0.803 2.212 0.229 0.855 0.966 1.434 1.799 1.514-0.187 0.226-0.329 0.487-0.407 0.778-0.143 0.533-0.070 1.089 0.206 1.566s0.721 0.819 1.254 0.962c0.178 0.048 0.358 0.072 0.538 0.072 0.113 0 0.225-0.013 0.336-0.031-0.121 0.265-0.189 0.552-0.189 0.852 0 0.552 0.215 1.070 0.605 1.46s0.908 0.605 1.46 0.605c0.301 0 0.589-0.069 0.855-0.19-0.049 0.288-0.041 0.585 0.037 0.875 0.142 0.533 0.484 0.978 0.962 1.254 0.318 0.183 0.671 0.278 1.029 0.278 0.18 0 0.36-0.024 0.538-0.072 0.292-0.078 0.553-0.22 0.778-0.407 0.081 0.833 0.66 1.571 1.514 1.799 0.179 0.048 0.357 0.071 0.534 0.071 0.669 0 1.295-0.33 1.68-0.869 0.294 0.782 1.044 1.343 1.928 1.343s1.634-0.561 1.928-1.343c0.385 0.539 1.011 0.869 1.68 0.869 0.177 0 0.355-0.023 0.534-0.071 0.855-0.229 1.434-0.966 1.514-1.799 0.226 0.187 0.487 0.329 0.778 0.407 0.178 0.048 0.358 0.072 0.538 0.072 0.358 0 0.711-0.094 1.029-0.278 0.477-0.276 0.819-0.721 0.962-1.254 0.078-0.291 0.086-0.587 0.037-0.875 0.266 0.121 0.554 0.19 0.855 0.19 0.552 0 1.070-0.215 1.46-0.605s0.605-0.908 0.605-1.46c0-0.3-0.069-0.587-0.189-0.852 0.111 0.019 0.223 0.031 0.336 0.031 0.18 0 0.36-0.024 0.538-0.072 0.533-0.142 0.978-0.484 1.254-0.962s0.349-1.034 0.206-1.566c-0.078-0.292-0.22-0.553-0.407-0.778 0.833-0.081 1.571-0.66 1.799-1.514 0.229-0.856-0.121-1.727-0.803-2.212zM16 28.387c-6.841 0-12.387-5.546-12.387-12.387s5.546-12.387 12.387-12.387 12.387 5.546 12.387 12.387-5.546 12.387-12.387 12.387z"></path>
<path fill="#000" d="M16 3.097c-7.115 0-12.903 5.788-12.903 12.903s5.788 12.903 12.903 12.903 12.903-5.788 12.903-12.903-5.788-12.903-12.903-12.903zM16 27.871c-6.546 0-11.871-5.325-11.871-11.871s5.325-11.871 11.871-11.871 11.871 5.325 11.871 11.871-5.325 11.871-11.871 11.871z"></path>
<path fill="#000" d="M16 5.161c-5.976 0-10.839 4.862-10.839 10.839s4.862 10.839 10.839 10.839 10.839-4.862 10.839-10.839-4.862-10.839-10.839-10.839zM25.29 14.754l-2.367-2.367 1.455-1.455c0.632 1.041 1.075 2.205 1.283 3.451l-0.371 0.371zM23.787 10.063l-4.691 4.691-2.367-2.367 4.604-4.604c0.943 0.615 1.771 1.388 2.453 2.281zM14.383 25.661c-1.246-0.208-2.41-0.65-3.451-1.283l5.068-5.068 2.367 2.367-3.984 3.984zM12.903 20.948l-2.367-2.367 3.764-3.764-0.73-0.73-0.667 0.667-2.367-2.367 5.464-5.464 2.367 2.367-4.012 4.012 0.73 0.73 0.916-0.916 2.367 2.367-5.464 5.464zM9.806 13.117l2.367 2.367-4.922 4.922c-0.572-1.13-0.929-2.384-1.022-3.711l3.578-3.578zM19.097 8.561l-2.328-2.328c1.3 0.102 2.527 0.458 3.637 1.019l-1.309 1.309zM12.903 8.561l-1.309-1.309c1.11-0.561 2.337-0.917 3.637-1.019l-2.328 2.328zM10.666 7.783l1.508 1.508-5.941 5.941c0.244-3.119 1.948-5.83 4.433-7.448zM7.783 21.334l2.024-2.024 2.367 2.367-2.11 2.11c-0.892-0.682-1.666-1.51-2.281-2.453zM15.712 25.792l0.288-0.288 0.288 0.288c-0.097 0.003-0.191 0.014-0.288 0.014s-0.191-0.012-0.288-0.014zM17.617 25.661l-0.887-0.887 3.764-3.764-0.73-0.73-0.667 0.667-2.367-2.367 5.464-5.464 2.367 2.367-4.026 4.026 0.73 0.73 0.93-0.93 2.024 2.024c-1.47 2.257-3.841 3.866-6.6 4.327zM24.749 20.406l-1.826-1.826 2.869-2.869c0.003 0.097 0.014 0.191 0.014 0.288 0 1.586-0.387 3.079-1.058 4.406z"></path>
<path fill="#000" d="M21.528 16.881l-1.032 1.032-0.73-0.73 1.032-1.032 0.73 0.73z"></path>
<path fill="#000" d="M21.526 10.688l-1.032 1.032-0.73-0.73 1.032-1.032 0.73 0.73z"></path>
<path fill="#000" d="M15.85 10.171l-1.032 1.032-0.73-0.73 1.032-1.032 0.73 0.73z"></path>
<path fill="#000" d="M9.656 16.365l-1.032 1.032-0.73-0.73 1.032-1.032 0.73 0.73z"></path>
</svg>
