<!-- Generated by IcoMoon.io -->
<svg version="1.1" xmlns="http://www.w3.org/2000/svg" width="32" height="32" viewBox="0 0 32 32">
<title>pizza</title>
<path fill="#f9ba48" d="M17.032 0.516c1.247 0 2.458 0.158 3.613 0.455 6.233 1.605 10.839 7.262 10.839 13.996h-14.452v-14.452z"></path>
<path fill="#333" d="M15.484 2.065h-0.516c-8.253 0-14.968 6.715-14.968 14.968s6.715 14.968 14.968 14.968 14.968-6.715 14.968-14.968v-0.516h-14.452v-14.452zM26.31 17.548c-0.271 6.022-5.254 10.839-11.342 10.839-3.046 0-5.812-1.189-7.852-3.138 0.945-0.189 1.659-1.023 1.659-2.023 0-1.139-0.926-2.065-2.065-2.065v1.032c0.569 0 1.032 0.463 1.032 1.032s-0.463 1.032-1.032 1.032v0.566c-1.809-1.916-2.965-4.459-3.086-7.298l-1.031 0.044c0.284 6.644 5.72 11.849 12.375 11.849 6.657 0 12.102-5.279 12.374-11.871h1.552c-0.273 7.446-6.414 13.419-13.926 13.419-7.684 0-13.935-6.251-13.935-13.935 0-7.512 5.973-13.654 13.419-13.926v1.551c-6.418 0.261-11.582 5.365-11.86 11.836l1.031 0.044c0.253-5.916 4.967-10.574 10.828-10.836v11.846h11.858z"></path>
<path fill="#333" d="M20.774 0.471c-1.214-0.312-2.473-0.471-3.741-0.471h-0.516v15.484h15.484v-0.516c0-6.834-4.616-12.795-11.226-14.497zM20.517 1.471c2.303 0.593 4.343 1.746 5.998 3.285l-1.098 1.098c-1.309-1.205-2.876-2.135-4.615-2.689-1.051-0.335-2.144-0.519-3.253-0.565v-1.559c1.006 0.037 2.002 0.181 2.968 0.43zM20.796 10.474l-3.248 3.248v-10.089c1.002 0.045 1.99 0.212 2.939 0.516 1.58 0.504 3.005 1.345 4.199 2.435l-2.858 2.858 0.73 0.73 2.858-2.858c1.090 1.194 1.931 2.619 2.435 4.199 0.303 0.95 0.471 1.938 0.516 2.94h-10.089l3.248-3.248-0.73-0.73zM29.4 14.452c-0.045-1.109-0.229-2.202-0.564-3.254-0.555-1.738-1.484-3.305-2.689-4.615l1.099-1.099c2.219 2.393 3.588 5.547 3.713 8.967h-1.559z"></path>
<path fill="#333" d="M12.903 18.065c0-1.423-1.158-2.581-2.581-2.581s-2.581 1.158-2.581 2.581 1.158 2.581 2.581 2.581 2.581-1.158 2.581-2.581zM10.323 19.613c-0.854 0-1.548-0.695-1.548-1.548s0.695-1.548 1.548-1.548 1.548 0.695 1.548 1.548-0.695 1.548-1.548 1.548z"></path>
<path fill="#333" d="M13.935 24.258c0-0.854-0.695-1.548-1.548-1.548s-1.548 0.695-1.548 1.548 0.695 1.548 1.548 1.548v-1.032c-0.285 0-0.516-0.231-0.516-0.516s0.231-0.516 0.516-0.516 0.516 0.231 0.516 0.516h1.032z"></path>
<path fill="#333" d="M21.677 22.194c1.139 0 2.065-0.926 2.065-2.065h-1.032c0 0.569-0.463 1.032-1.032 1.032s-1.032-0.463-1.032-1.032 0.462-1.032 1.032-1.032v-1.032c-1.138 0-2.064 0.926-2.064 2.065s0.926 2.065 2.064 2.065z"></path>
<path fill="#333" d="M11.355 12.903c1.139 0 2.065-0.926 2.065-2.065s-0.926-2.065-2.065-2.065v1.032c0.569 0 1.032 0.463 1.032 1.032s-0.463 1.032-1.032 1.032-1.032-0.463-1.032-1.032h-1.032c0 1.139 0.926 2.065 2.065 2.065z"></path>
<path fill="#333" d="M8.258 13.935c0-0.854-0.695-1.548-1.548-1.548s-1.548 0.695-1.548 1.548 0.695 1.548 1.548 1.548 1.548-0.695 1.548-1.548zM6.71 14.452c-0.285 0-0.516-0.231-0.516-0.516s0.231-0.516 0.516-0.516 0.516 0.231 0.516 0.516-0.231 0.516-0.516 0.516z"></path>
<path fill="#333" d="M24.774 13.935c1.139 0 2.065-0.926 2.065-2.065s-0.926-2.065-2.065-2.065-2.065 0.926-2.065 2.065 0.926 2.065 2.065 2.065zM24.774 10.839c0.569 0 1.032 0.463 1.032 1.032s-0.463 1.032-1.032 1.032-1.032-0.463-1.032-1.032 0.463-1.032 1.032-1.032z"></path>
<path fill="#333" d="M22.194 7.742c0-1.139-0.926-2.065-2.065-2.065s-2.065 0.926-2.065 2.065h1.032c0-0.569 0.463-1.032 1.032-1.032s1.032 0.463 1.032 1.032-0.463 1.032-1.032 1.032v1.032c1.139 0 2.065-0.926 2.065-2.065z"></path>
<path fill="#333" d="M16 24.258c0 1.139 0.926 2.065 2.065 2.065s2.065-0.926 2.065-2.065-0.926-2.065-2.065-2.065-2.065 0.926-2.065 2.065zM18.065 23.226c0.569 0 1.032 0.463 1.032 1.032s-0.463 1.032-1.032 1.032-1.032-0.463-1.032-1.032 0.463-1.032 1.032-1.032z"></path>
<path fill="#333" d="M13.935 19.613c0 0.854 0.695 1.548 1.548 1.548s1.548-0.695 1.548-1.548-0.695-1.548-1.548-1.548-1.548 0.695-1.548 1.548zM15.484 19.097c0.285 0 0.516 0.231 0.516 0.516s-0.231 0.516-0.516 0.516-0.516-0.231-0.516-0.516 0.231-0.516 0.516-0.516z"></path>
<path fill="#333" d="M12.903 26.839h1.548v1.032h-1.548v-1.032z"></path>
<path fill="#333" d="M6.106 19.843l-0.859 0.573-1.032-1.549 0.859-0.573 1.032 1.549z"></path>
<path fill="#333" d="M23.076 24.106l-1.032 1.032-0.73-0.73 1.032-1.032 0.73 0.73z"></path>
<path fill="#333" d="M11.355 21.161h1.548v1.032h-1.548v-1.032z"></path>
<path fill="#333" d="M14.3 13.783l-1.032 1.032-0.73-0.73 1.032-1.032 0.73 0.73z"></path>
<path fill="#333" d="M8.107 10.99l-0.73 0.73-1.032-1.032 0.73-0.73 1.032 1.032z"></path>
<path fill="#333" d="M11.355 6.709h1.548v1.032h-1.548v-1.032z"></path>
<path fill="#333" d="M18.065 10.322h1.032v1.548h-1.032v-1.548z"></path>
<path fill="#333" d="M22.558 13.568l-0.73 0.73-1.032-1.032 0.73-0.73 1.032 1.032z"></path>
<path fill="#333" d="M23.074 5.829l-0.73 0.73-1.032-1.032 0.73-0.73 1.032 1.032z"></path>
<path fill="#333" d="M24.258 18.065h1.032v1.548h-1.032v-1.548z"></path>
</svg>
