<!-- Generated by IcoMoon.io -->
<svg version="1.1" xmlns="http://www.w3.org/2000/svg" width="32" height="32" viewBox="0 0 32 32">
<title>pizza-slice</title>
<path fill="#333" d="M9.025 24.776c-0.85 0-1.542-0.695-1.542-1.548v-3.614h1.032v3.614c0 0.29 0.224 0.516 0.509 0.516 0.289 0 0.523-0.234 0.523-0.522v-2.575h1.032v2.575c-0.001 0.857-0.698 1.555-1.555 1.555z"></path>
<path fill="#333" d="M17.807 30.455c-1.881 0-2.581-1.583-2.581-2.581 0-0.27-0.247-0.517-0.517-0.517s-0.516 0.247-0.516 0.517c0.001 0.406-0.162 0.793-0.459 1.090-0.296 0.296-0.683 0.459-1.090 0.459-0.839 0-1.548-0.709-1.548-1.548l-0.001-5.679h1.032l0.001 5.679c0 0.27 0.246 0.516 0.516 0.516s0.517-0.246 0.517-0.516c-0.001-0.4 0.167-0.798 0.459-1.090 0.291-0.292 0.689-0.459 1.089-0.459 0.84 0 1.549 0.709 1.549 1.549 0 0.431 0.278 1.549 1.549 1.549s1.549-1.118 1.549-1.549h1.032c0 0.998-0.7 2.581-2.581 2.581z"></path>
<path fill="#f9ba48" d="M27.099 5.675c-1.551-0.514-4.155-1.030-6.196-1.030-3.097 0-5.502 0.782-7.742 2.063-3.613 2.065-5.729 5.829-7.227 10.324-0.168 0.503-0.39 0.841-0.631 1.070l18.372 13.268c0.162 0.146 0.783 0.63 1.875 0.63 2.041 0 2.582-1.686 2.583-2.578v-23.559c-0.332-0.011-0.682-0.072-1.032-0.188z"></path>
<path fill="#333" d="M3.868 19.097c-1.901 0-2.578-1.332-2.578-2.578 0-3.219 3.367-10.783 10.077-14.396 2.508-1.35 5.963-2.123 9.486-2.123 0.017 0 0.034 0 0.051 0 3.371 0.007 6.465 0.591 8.488 1.603 0.054 0.027 1.318 0.68 1.318 2.526 0 0.748-0.307 1.382-0.862 1.783-0.724 0.523-1.811 0.618-2.91 0.253-1.505-0.499-4.061-1.004-6.034-1.004-2.763 0-5.072 0.615-7.486 1.995-3.074 1.756-5.296 4.946-6.994 10.039-0.633 1.902-2.029 1.902-2.554 1.902zM20.856 1.032c-3.31 0-6.671 0.746-8.999 2.001-6.79 3.656-9.534 11.028-9.534 13.486 0 0.705 0.268 1.546 1.546 1.546 0.497 0 1.177 0 1.576-1.196 1.783-5.348 4.153-8.72 7.461-10.609 2.545-1.454 5.086-2.131 7.998-2.131 2.179 0 4.824 0.548 6.358 1.057 0.775 0.257 1.533 0.214 1.981-0.11 0.289-0.208 0.435-0.526 0.435-0.946 0-1.187-0.723-1.59-0.754-1.606-1.878-0.939-4.805-1.484-8.022-1.491-0.015 0-0.031 0-0.046 0z"></path>
<path fill="#333" d="M21.785 24.107l-1.549 1.549-0.73-0.73 1.549-1.549 0.73 0.73z"></path>
<path fill="#333" d="M17.275 14.057l-0.516 2.065-1.001-0.25 0.516-2.065 1.001 0.25z"></path>
<path fill="#333" d="M9.548 13.935h2.065v1.032h-2.065v-1.032z"></path>
<path fill="#333" d="M25.398 10.171l-1.549 1.549-0.73-0.73 1.549-1.549 0.73 0.73z"></path>
<path fill="#333" d="M20.675 7.828l-0.573 0.859-1.549-1.032 0.573-0.859 1.549 1.032z"></path>
<path fill="#333" d="M25.464 20.36l-0.859 0.573-1.033-1.549 0.859-0.573 1.033 1.549z"></path>
<path fill="#333" d="M15.226 11.87c-0.854 0-1.549-0.695-1.549-1.548s0.695-1.548 1.549-1.548 1.548 0.695 1.548 1.548-0.695 1.548-1.548 1.548zM15.226 9.805c-0.285 0-0.517 0.231-0.517 0.516s0.232 0.516 0.517 0.516 0.516-0.231 0.516-0.516-0.231-0.516-0.516-0.516z"></path>
<path fill="#333" d="M12.128 19.613c-0.854 0-1.548-0.695-1.548-1.548s0.695-1.549 1.548-1.549 1.549 0.695 1.549 1.549-0.695 1.548-1.549 1.548zM12.128 17.548c-0.285 0-0.516 0.232-0.516 0.517s0.231 0.516 0.516 0.516 0.517-0.231 0.517-0.516-0.232-0.517-0.517-0.517z"></path>
<path fill="#333" d="M21.42 16.516c-1.139 0-2.065-0.926-2.065-2.065s0.926-2.065 2.065-2.065 2.065 0.926 2.065 2.065-0.926 2.065-2.065 2.065zM21.42 13.419c-0.569 0-1.032 0.463-1.032 1.033s0.463 1.032 1.032 1.032c0.57 0 1.033-0.463 1.033-1.032s-0.463-1.033-1.033-1.033z"></path>
<path fill="#333" d="M24.516 27.355c-0.854 0-1.548-0.695-1.548-1.549s0.695-1.548 1.548-1.548 1.549 0.695 1.549 1.548-0.695 1.549-1.549 1.549zM24.516 25.29c-0.285 0-0.516 0.231-0.516 0.516s0.231 0.517 0.516 0.517 0.517-0.232 0.517-0.517-0.232-0.516-0.517-0.516z"></path>
<path fill="#333" d="M18.323 22.195c-1.139 0-2.065-0.926-2.065-2.065s0.926-2.065 2.065-2.065 2.065 0.926 2.065 2.065-0.926 2.065-2.065 2.065zM18.323 19.097c-0.57 0-1.033 0.463-1.033 1.033s0.463 1.032 1.033 1.032 1.033-0.463 1.033-1.032c0-0.57-0.463-1.033-1.033-1.033z"></path>
</svg>
