<!-- Generated by IcoMoon.io -->
<svg version="1.1" xmlns="http://www.w3.org/2000/svg" width="32" height="32" viewBox="0 0 32 32">
<title>popcorn</title>
<path fill="#000" d="M30.949 28.143c0.012-0.090 0.019-0.181 0.019-0.273 0-1.139-0.926-2.065-2.065-2.065-0.026 0-0.050 0.007-0.076 0.008 0.045-0.168 0.076-0.342 0.076-0.524 0-0.752-0.414-1.432-1.051-1.792 0.012-0.090 0.019-0.181 0.019-0.273 0-1.139-0.926-2.065-2.065-2.065-0.026 0-0.050 0.007-0.076 0.008 0.045-0.168 0.076-0.342 0.076-0.524 0-0.752-0.414-1.432-1.051-1.792 0.012-0.090 0.019-0.181 0.019-0.273 0-1.139-0.926-2.065-2.065-2.065-0.674 0-1.267 0.329-1.644 0.829l0.607-4.371 0.005-0.071c0-1.313-0.822-2.434-1.977-2.884 0.265-0.347 0.428-0.775 0.428-1.245 0-0.752-0.414-1.432-1.051-1.792 0.012-0.090 0.019-0.181 0.019-0.273 0-1.139-0.926-2.065-2.065-2.065-0.026 0-0.050 0.007-0.076 0.008 0.045-0.168 0.076-0.342 0.076-0.524 0-0.752-0.414-1.432-1.051-1.792 0.012-0.090 0.019-0.181 0.019-0.273 0-1.139-0.926-2.065-2.065-2.065s-2.065 0.926-2.065 2.065c0 0.091 0.006 0.183 0.019 0.273-0.637 0.36-1.051 1.040-1.051 1.792 0 0.182 0.031 0.356 0.076 0.524-0.026-0.001-0.050-0.008-0.076-0.008s-0.050 0.007-0.076 0.008c0.045-0.168 0.076-0.342 0.076-0.524 0-0.752-0.414-1.432-1.051-1.792 0.012-0.090 0.019-0.181 0.019-0.273 0-1.139-0.926-2.065-2.065-2.065s-2.065 0.926-2.065 2.065c0 0.091 0.006 0.183 0.019 0.273-0.637 0.36-1.051 1.040-1.051 1.792 0 0.182 0.031 0.356 0.076 0.524-0.026-0.001-0.050-0.008-0.076-0.008-1.139 0-2.065 0.926-2.065 2.065 0 0.091 0.006 0.183 0.019 0.273-0.637 0.36-1.051 1.040-1.051 1.792 0 0.47 0.164 0.898 0.428 1.245-1.155 0.45-1.977 1.572-1.977 2.884l2.647 19.097h16.382l0.678-4.879c0.29 0.151 0.61 0.234 0.938 0.234 0.026 0 0.050-0.007 0.076-0.008-0.045 0.168-0.076 0.342-0.076 0.524 0 0.091 0.006 0.183 0.019 0.273-0.637 0.36-1.051 1.040-1.051 1.792 0 1.139 0.926 2.065 2.065 2.065 0.364 0 0.719-0.098 1.032-0.282 0.313 0.184 0.668 0.282 1.032 0.282 1.139 0 2.065-0.926 2.065-2.065 0-0.752-0.414-1.432-1.051-1.792 0.012-0.090 0.019-0.181 0.019-0.273 0-0.182-0.031-0.356-0.076-0.524 0.026 0.001 0.050 0.008 0.076 0.008 0.364 0 0.719-0.098 1.032-0.282 0.313 0.184 0.668 0.282 1.032 0.282 0.026 0 0.050-0.007 0.076-0.008-0.045 0.168-0.076 0.342-0.076 0.524 0 0.091 0.006 0.183 0.019 0.273-0.637 0.36-1.051 1.040-1.051 1.792 0 1.139 0.926 2.065 2.065 2.065 0.364 0 0.719-0.098 1.032-0.282 0.313 0.184 0.668 0.282 1.032 0.282 1.139 0 2.065-0.926 2.065-2.065 0-0.752-0.414-1.432-1.051-1.792zM21.41 19.654l0.561-0.152-0.217-0.539c-0.050-0.125-0.076-0.254-0.076-0.383 0-0.569 0.463-1.032 1.032-1.032s1.032 0.463 1.032 1.032c0 0.129-0.026 0.258-0.076 0.383l-0.217 0.539 0.561 0.152c0.45 0.122 0.764 0.53 0.764 0.991 0 0.569-0.463 1.032-1.032 1.032-0.321 0-0.55-0.146-0.687-0.269l-0.345-0.311-0.345 0.311c-0.137 0.123-0.366 0.269-0.687 0.269-0.569 0-1.032-0.463-1.032-1.032 0-0.461 0.314-0.869 0.764-0.991zM23.761 23.498c-0.637 0.36-1.051 1.040-1.051 1.792 0 0.182 0.031 0.356 0.076 0.524-0.026-0.001-0.050-0.008-0.076-0.008s-0.050 0.007-0.076 0.008c0.045-0.168 0.076-0.342 0.076-0.524 0-0.752-0.414-1.432-1.051-1.792 0.012-0.090 0.019-0.181 0.019-0.273 0-0.182-0.031-0.356-0.076-0.524 0.026 0.001 0.050 0.008 0.076 0.008 0.364 0 0.719-0.098 1.032-0.282 0.313 0.184 0.668 0.282 1.032 0.282 0.026 0 0.050-0.007 0.076-0.008-0.045 0.168-0.076 0.342-0.076 0.524 0 0.091 0.006 0.183 0.019 0.273zM17.032 5.677c0.569 0 1.032 0.463 1.032 1.032 0 0.129-0.026 0.258-0.076 0.383l-0.217 0.539 0.561 0.152c0.45 0.122 0.764 0.53 0.764 0.991 0 0.569-0.463 1.032-1.032 1.032-0.321 0-0.55-0.146-0.687-0.269l-0.345-0.311-0.345 0.311c-0.137 0.123-0.366 0.269-0.687 0.269-0.569 0-1.032-0.463-1.032-1.032 0-0.461 0.314-0.869 0.764-0.991l0.561-0.152-0.217-0.539c-0.050-0.125-0.076-0.254-0.076-0.383 0-0.569 0.463-1.032 1.032-1.032zM16.303 10.814c-0.109 0.119-0.213 0.244-0.303 0.379-0.091-0.138-0.198-0.264-0.309-0.386 0.102 0.015 0.203 0.031 0.309 0.031 0.102 0 0.203-0.010 0.303-0.025zM14.297 9.938c-0.211-0.062-0.43-0.101-0.656-0.117 0.183-0.308 0.295-0.663 0.295-1.047 0-0.752-0.414-1.432-1.051-1.792 0.012-0.090 0.019-0.181 0.019-0.273 0-0.182-0.031-0.356-0.076-0.524 0.026 0.001 0.050 0.008 0.076 0.008 0.364 0 0.719-0.098 1.032-0.282 0.313 0.184 0.668 0.282 1.032 0.282 0.026 0 0.050-0.007 0.076-0.008-0.045 0.168-0.076 0.342-0.076 0.524 0 0.091 0.006 0.183 0.019 0.273-0.637 0.36-1.051 1.040-1.051 1.792 0 0.431 0.134 0.832 0.361 1.164zM12.635 3.138l0.561-0.152-0.217-0.539c-0.050-0.125-0.076-0.254-0.076-0.383 0-0.569 0.463-1.032 1.032-1.032s1.032 0.463 1.032 1.032c0 0.129-0.026 0.258-0.076 0.383l-0.217 0.539 0.561 0.152c0.45 0.122 0.764 0.53 0.764 0.991 0 0.569-0.463 1.032-1.032 1.032-0.321 0-0.55-0.146-0.687-0.269l-0.345-0.311-0.345 0.311c-0.137 0.123-0.366 0.269-0.687 0.269-0.569 0-1.032-0.463-1.032-1.032 0-0.461 0.314-0.869 0.764-0.991zM10.839 5.677c0.569 0 1.032 0.463 1.032 1.032 0 0.129-0.026 0.258-0.076 0.383l-0.217 0.539 0.561 0.152c0.45 0.122 0.764 0.53 0.764 0.991 0 0.569-0.463 1.032-1.032 1.032-0.321 0-0.55-0.146-0.687-0.269l-0.345-0.311-0.345 0.311c-0.137 0.123-0.366 0.269-0.687 0.269-0.569 0-1.032-0.463-1.032-1.032 0-0.461 0.314-0.869 0.764-0.991l0.561-0.152-0.217-0.539c-0.050-0.125-0.076-0.254-0.076-0.383 0-0.569 0.463-1.032 1.032-1.032zM11.225 10.728c-0.142 0.143-0.274 0.296-0.386 0.465-0.112-0.169-0.244-0.322-0.386-0.465 0.133-0.045 0.263-0.1 0.386-0.171 0.122 0.072 0.252 0.126 0.386 0.171zM8.037 9.82c-0.227 0.016-0.446 0.055-0.657 0.117 0.228-0.331 0.362-0.732 0.362-1.163 0-0.752-0.414-1.432-1.051-1.792 0.012-0.090 0.019-0.181 0.019-0.273 0-0.182-0.031-0.356-0.076-0.524 0.026 0.001 0.050 0.008 0.076 0.008 0.364 0 0.719-0.098 1.032-0.282 0.313 0.184 0.668 0.282 1.032 0.282 0.026 0 0.050-0.007 0.076-0.008-0.045 0.168-0.076 0.342-0.076 0.524 0 0.091 0.006 0.183 0.019 0.273-0.637 0.36-1.051 1.040-1.051 1.792 0 0.383 0.112 0.739 0.295 1.046zM6.442 3.138l0.561-0.152-0.217-0.539c-0.050-0.125-0.076-0.254-0.076-0.383 0-0.569 0.463-1.032 1.032-1.032s1.032 0.463 1.032 1.032c0 0.129-0.026 0.258-0.076 0.383l-0.217 0.539 0.561 0.152c0.45 0.122 0.764 0.53 0.764 0.991 0 0.569-0.463 1.032-1.032 1.032-0.321 0-0.55-0.146-0.687-0.269l-0.345-0.311-0.345 0.311c-0.137 0.123-0.366 0.269-0.687 0.269-0.569 0-1.032-0.463-1.032-1.032 0-0.461 0.314-0.869 0.764-0.991zM3.345 7.783l0.561-0.152-0.217-0.539c-0.050-0.125-0.076-0.254-0.076-0.383 0-0.569 0.463-1.032 1.032-1.032s1.032 0.463 1.032 1.032c0 0.129-0.026 0.258-0.076 0.383l-0.217 0.539 0.561 0.152c0.45 0.122 0.764 0.53 0.764 0.991 0 0.569-0.463 1.032-1.032 1.032-0.321 0-0.55-0.146-0.687-0.269l-0.345-0.311-0.345 0.311c-0.137 0.123-0.366 0.269-0.687 0.269-0.569 0-1.032-0.463-1.032-1.032 0-0.461 0.314-0.869 0.764-0.991zM5.987 10.807c-0.112 0.121-0.218 0.248-0.309 0.386-0.090-0.135-0.194-0.26-0.303-0.379 0.1 0.015 0.201 0.025 0.303 0.025 0.106 0 0.207-0.016 0.309-0.031zM18.131 30.968h-2.618l0.313-5.641 0.015-0.211-1.030-0.073-0.332 5.925h-3.125v-4.645h-1.032v4.645h-2.622l-0.477-5.72-1.029 0.086 0.47 5.635h-3.118l-2.514-18.098c0.019-1.123 0.937-2.031 2.065-2.031 1.139 0 2.065 0.926 2.065 2.065h0.002v0.043l0.387 4.645 1.029-0.086-0.385-4.602c0-1.139 0.926-2.065 2.065-2.065s2.065 0.926 2.065 2.065v3.097h1.032v-3.097c0-1.139 0.926-2.065 2.065-2.065 1.137 0 2.061 0.923 2.064 2.059l-0.257 4.622 1.031 0.057 0.259-4.674c0-1.139 0.926-2.065 2.065-2.065 1.127 0 2.046 0.908 2.065 2.031l-1.154 8.304c-1.081 0.064-1.943 0.955-1.943 2.052 0 0.091 0.006 0.183 0.019 0.273-0.637 0.36-1.051 1.040-1.051 1.792 0 1.139 0.926 2.065 2.065 2.065 0.018 0 0.035-0.003 0.053-0.004l-0.502 3.617zM20.645 26.323c-0.321 0-0.55-0.146-0.687-0.269l-0.345-0.311-0.345 0.311c-0.137 0.123-0.366 0.269-0.687 0.269-0.569 0-1.032-0.463-1.032-1.032 0-0.461 0.314-0.869 0.764-0.991l0.561-0.152-0.217-0.539c-0.050-0.125-0.076-0.254-0.076-0.383 0-0.569 0.463-1.032 1.032-1.032s1.032 0.463 1.032 1.032c0 0.129-0.026 0.258-0.076 0.383l-0.217 0.539 0.561 0.152c0.45 0.122 0.764 0.53 0.764 0.991 0 0.569-0.463 1.032-1.032 1.032zM24.774 29.935c0 0.569-0.463 1.032-1.032 1.032-0.321 0-0.55-0.146-0.687-0.269l-0.345-0.311-0.345 0.311c-0.137 0.123-0.366 0.269-0.687 0.269-0.569 0-1.032-0.463-1.032-1.032 0-0.461 0.314-0.869 0.764-0.991l0.561-0.152-0.217-0.539c-0.050-0.125-0.076-0.254-0.076-0.383 0-0.569 0.463-1.032 1.032-1.032s1.032 0.463 1.032 1.032c0 0.129-0.026 0.258-0.076 0.383l-0.217 0.539 0.561 0.152c0.45 0.122 0.764 0.53 0.764 0.991zM26.839 26.323c-0.321 0-0.55-0.146-0.687-0.269l-0.345-0.311-0.345 0.311c-0.137 0.123-0.366 0.269-0.687 0.269-0.569 0-1.032-0.463-1.032-1.032 0-0.461 0.314-0.869 0.764-0.991l0.561-0.152-0.217-0.539c-0.050-0.125-0.076-0.254-0.076-0.383 0-0.569 0.463-1.032 1.032-1.032s1.032 0.463 1.032 1.032c0 0.129-0.026 0.258-0.076 0.383l-0.217 0.539 0.561 0.152c0.45 0.122 0.764 0.53 0.764 0.991 0 0.569-0.463 1.032-1.032 1.032zM29.935 30.968c-0.321 0-0.55-0.146-0.687-0.269l-0.345-0.311-0.345 0.311c-0.137 0.123-0.366 0.269-0.687 0.269-0.569 0-1.032-0.463-1.032-1.032 0-0.461 0.314-0.869 0.764-0.991l0.561-0.152-0.217-0.539c-0.050-0.125-0.076-0.254-0.076-0.383 0-0.569 0.463-1.032 1.032-1.032s1.032 0.463 1.032 1.032c0 0.129-0.026 0.258-0.076 0.383l-0.217 0.539 0.561 0.152c0.45 0.122 0.764 0.53 0.764 0.991 0 0.569-0.463 1.032-1.032 1.032z"></path>
<path fill="#000" d="M22.194 28.903h1.032v1.032h-1.032v-1.032z"></path>
<path fill="#000" d="M28.387 28.903h1.032v1.032h-1.032v-1.032z"></path>
<path fill="#000" d="M22.194 19.613h1.032v1.032h-1.032v-1.032z"></path>
<path fill="#000" d="M19.097 24.258h1.032v1.032h-1.032v-1.032z"></path>
<path fill="#000" d="M25.29 24.258h1.032v1.032h-1.032v-1.032z"></path>
<path fill="#f0bc5e" d="M10.839 26.839c-3.985 0-7.226-2.547-7.226-5.677s3.241-5.677 7.226-5.677 7.226 2.547 7.226 5.677-3.241 5.677-7.226 5.677z"></path>
<path fill="#000" d="M6.71 19.097h8.258v1.032h-8.258v-1.032z"></path>
<path fill="#000" d="M13.935 22.194h1.032v1.032h-1.032v-1.032z"></path>
<path fill="#000" d="M6.71 22.194h6.194v1.032h-6.194v-1.032z"></path>
<path fill="#000" d="M7.226 3.097h1.032v1.032h-1.032v-1.032z"></path>
<path fill="#000" d="M13.419 3.097h1.032v1.032h-1.032v-1.032z"></path>
<path fill="#000" d="M16.516 7.742h1.032v1.032h-1.032v-1.032z"></path>
<path fill="#000" d="M10.323 7.742h1.032v1.032h-1.032v-1.032z"></path>
<path fill="#000" d="M4.129 7.742h1.032v1.032h-1.032v-1.032z"></path>
</svg>
