<!-- Generated by IcoMoon.io -->
<svg version="1.1" xmlns="http://www.w3.org/2000/svg" width="32" height="32" viewBox="0 0 32 32">
<title>porridge</title>
<path fill="#000" d="M7.742 15.484h2.065v1.032h-2.065z"></path>
<path fill="#000" d="M23.197 21.307l-0.975-0.34c0.108-0.31 0.2-0.63 0.271-0.952l1.007 0.227c-0.080 0.36-0.182 0.717-0.304 1.065z"></path>
<path fill="#000" d="M7.742 17.548h2.065v1.032h-2.065z"></path>
<path fill="#000" d="M11.871 17.548v1.032h12.891c-0.161 3.459-1.935 6.584-4.828 8.507-0.242-0.156-0.528-0.249-0.837-0.249h-10.323c-0.309 0-0.595 0.093-0.837 0.249-2.893-1.924-4.667-5.049-4.828-8.507h2.569v-1.032h-3.613v0.516c0 3.988 1.954 7.63 5.244 9.844-0.050 0.152-0.083 0.31-0.083 0.478 0 0.244 0.062 0.472 0.163 0.678-0.994 0.359-1.711 1.303-1.711 2.419v0.516h16.516v-0.516c0-1.116-0.717-2.060-1.711-2.419 0.101-0.206 0.163-0.433 0.163-0.678 0-0.168-0.034-0.327-0.083-0.478 3.29-2.214 5.244-5.856 5.244-9.844v-0.516zM8.774 27.871h10.323c0.285 0 0.516 0.231 0.516 0.516s-0.231 0.516-0.516 0.516h-10.323c-0.285 0-0.516-0.231-0.516-0.516s0.231-0.516 0.516-0.516zM21.073 30.968h-14.275c0.213-0.601 0.787-1.032 1.46-1.032h11.355c0.673 0 1.247 0.431 1.46 1.032z"></path>
<path fill="#000" d="M22.729 22.422l-0.925-0.458c-0.725 1.466-1.856 2.701-3.269 3.574l0.542 0.878c1.578-0.974 2.841-2.355 3.652-3.994z"></path>
<path fill="#f0bc5e" d="M23.226 17.548h-1.548v-0.516c0-2.562 2.084-4.645 4.645-4.645h1.548v0.516c0 2.562-2.084 4.645-4.645 4.645z"></path>
<path fill="#f0bc5e" d="M18.065 17.548h-0.516v-2.581c0-2.562 2.084-4.645 4.645-4.645h0.516v2.581c0 2.562-2.084 4.645-4.645 4.645z"></path>
<path fill="#000" d="M7.075 6.042l-0.73-0.73 0.667-0.667c0.138-0.138 0.214-0.321 0.214-0.516s-0.076-0.378-0.214-0.516l-0.302-0.302c-0.333-0.332-0.516-0.775-0.516-1.246s0.183-0.914 0.516-1.246l0.667-0.667 0.73 0.73-0.667 0.667c-0.138 0.138-0.214 0.321-0.214 0.516s0.076 0.378 0.214 0.516l0.302 0.302c0.333 0.332 0.516 0.775 0.516 1.246s-0.183 0.914-0.516 1.246z"></path>
<path fill="#000" d="M10.171 6.042l-0.73-0.73 0.667-0.667c0.138-0.138 0.214-0.321 0.214-0.516s-0.076-0.378-0.214-0.516l-0.302-0.302c-0.333-0.332-0.516-0.775-0.516-1.246s0.183-0.914 0.516-1.246l0.667-0.667 0.73 0.73-0.667 0.667c-0.138 0.138-0.214 0.321-0.214 0.516s0.076 0.378 0.214 0.516l0.302 0.302c0.333 0.332 0.516 0.775 0.516 1.246s-0.183 0.914-0.516 1.246z"></path>
<path fill="#000" d="M13.268 6.042l-0.73-0.73 0.667-0.667c0.138-0.138 0.214-0.321 0.214-0.516s-0.076-0.378-0.214-0.516l-0.302-0.302c-0.333-0.332-0.516-0.775-0.516-1.246s0.183-0.914 0.516-1.246l0.667-0.667 0.73 0.73-0.667 0.667c-0.138 0.138-0.214 0.321-0.214 0.516s0.076 0.378 0.214 0.516l0.302 0.302c0.333 0.332 0.516 0.775 0.516 1.246s-0.183 0.914-0.516 1.246z"></path>
<path fill="#000" d="M27.956 0h-0.256c-0.305 0-0.611 0.072-0.885 0.208-3.28 1.64-6.162 3.878-8.565 6.65l-2.651 3.058-0.199-0.399c-0.388-0.776-1.169-1.259-2.038-1.259h-0.246c-0.333 0-0.646-0.13-0.881-0.365-0.43-0.43-1.002-0.667-1.611-0.667h-0.089c-0.609 0-1.18 0.237-1.611 0.667-0.235 0.235-0.549 0.365-0.881 0.365h-0.246c-0.869 0-1.649 0.483-2.038 1.259-0.188 0.375-0.334 0.778-0.438 1.199l0.354 0.087v0.552h9.335c0.449 0 0.876-0.195 1.17-0.534l2.849-3.286c2.313-2.67 5.087-4.824 8.246-6.403 0.131-0.066 0.277-0.1 0.423-0.1h0.256c0.522 0 0.947 0.425 0.947 0.947 0 0.426-0.287 0.802-0.698 0.914-3.103 0.847-5.895 2.543-8.075 4.905l-1.32 1.43c-0.924 1-1.687 2.037-2.267 3.081-0.804 1.448-2.268 3.175-4.671 3.175v1.032c3.058 0 4.806-2.322 5.574-3.706 0.541-0.972 1.255-1.942 2.122-2.882l1.32-1.43c2.049-2.22 4.673-3.815 7.589-4.61 0.859-0.233 1.459-1.018 1.459-1.909 0-1.091-0.888-1.979-1.979-1.979zM7.799 9.29h0.246c0.609 0 1.18-0.237 1.611-0.667 0.235-0.235 0.549-0.365 0.881-0.365h0.089c0.333 0 0.646 0.13 0.881 0.365 0.43 0.43 1.002 0.667 1.611 0.667h0.246c0.475 0 0.902 0.264 1.114 0.689l0.172 0.343h-8.112c0.046-0.116 0.093-0.233 0.148-0.343 0.212-0.425 0.639-0.689 1.114-0.689z"></path>
<path fill="#f0bc5e" d="M10.839 24.774c-0.854 0-1.548-0.695-1.548-1.548v-9.29c0-0.285-0.231-0.516-0.516-0.516s-0.516 0.231-0.516 0.516v4.645c0 0.854-0.695 1.548-1.548 1.548s-1.548-0.695-1.548-1.548v-6.523c0-0.444 0.054-0.895 0.162-1.341l0.096-0.394h6.968v12.903c0 0.854-0.695 1.548-1.548 1.548z"></path>
</svg>
