<!-- Generated by IcoMoon.io -->
<svg version="1.1" xmlns="http://www.w3.org/2000/svg" width="32" height="32" viewBox="0 0 32 32">
<title>potato</title>
<path fill="#f0bc5e" d="M27.8 32c-2.301 0-4.104-3.155-4.104-7.182s1.803-7.182 4.104-7.182 4.104 3.155 4.104 7.182-1.803 7.182-4.104 7.182z"></path>
<path fill="#000" d="M27.8 17.635c-2.862 0-5.691 0.474-8.38 1.37-0.745-7.129-4.001-13.739-9.224-18.672l-0.352-0.333-0.352 0.332c-5.971 5.639-9.395 13.583-9.395 21.796v0.124c0 5.375 4.373 9.748 9.748 9.748 2.454 0 4.78-0.915 6.583-2.569 3.545 1.682 7.438 2.569 11.373 2.569 2.301 0 4.104-3.155 4.104-7.182s-1.803-7.182-4.104-7.182zM9.844 30.974c-4.662 0-8.471-3.68-8.699-8.287 0.938 0.534 2.635 1.333 5.012 1.787l0.192-1.008c-2.798-0.535-4.611-1.594-5.21-1.985 0.069-3.039 0.62-6.031 1.609-8.867 0.54 0.262 1.698 0.75 3.407 1.083l0.197-1.007c-1.719-0.336-2.833-0.838-3.244-1.044 0.344-0.883 0.73-1.749 1.157-2.594 0.566 0.337 1.766 0.938 3.516 1.232l0.169-1.012c-1.644-0.276-2.753-0.856-3.208-1.131 1.356-2.462 3.068-4.735 5.103-6.724 2.981 2.911 5.266 6.402 6.75 10.224-0.514 0.258-2.175 1.001-4.753 1.274l0.108 1.020c2.6-0.275 4.317-0.992 5.002-1.325 0.475 1.364 0.849 2.766 1.116 4.197-0.575 0.296-2.144 1.044-4.306 1.598l0.254 0.994c1.969-0.504 3.46-1.157 4.228-1.531 0.073 0.495 0.135 0.991 0.183 1.491-2.646 0.999-5.135 2.414-7.352 4.215l-1.531 1.244 1.531 1.245c0.663 0.539 1.362 1.052 2.077 1.526l0.566-0.856c-0.687-0.456-1.358-0.949-1.996-1.467l-0.552-0.448 0.552-0.448c0.951-0.772 1.955-1.467 3-2.091-0.1 0.473-0.174 0.963-0.217 1.47l1.022 0.085c0.067-0.801 0.213-1.556 0.435-2.249 1.888-0.989 3.894-1.737 5.966-2.229-0.324 0.581-0.569 1.24-0.772 1.866l0.976 0.317c0.29-0.895 0.703-1.975 1.326-2.503 0.699-0.122 1.404-0.213 2.113-0.276-1.134 1.264-1.875 3.479-1.875 6.056 0 2.569 0.735 4.778 1.864 6.045-1.972-0.174-3.917-0.567-5.789-1.188l0.009-0.006c-0.488-0.754-0.851-1.752-1.048-2.887l-1.011 0.175c0.14 0.803 0.365 1.542 0.648 2.202-1.073-0.427-2.119-0.922-3.126-1.492l-0.513-0.314-0.536 0.875 0.528 0.324c0.236 0.134 0.481 0.252 0.721 0.378-1.569 1.317-3.532 2.044-5.598 2.044zM27.8 30.974c-1.668 0-3.078-2.819-3.078-6.156s1.41-6.156 3.078-6.156 3.078 2.819 3.078 6.156-1.41 6.156-3.078 6.156z"></path>
<path fill="#000" d="M21.906 27.27c-0.174-0.776-0.263-1.601-0.263-2.453h-1.026c0 0.928 0.096 1.828 0.288 2.677l1.001-0.225z"></path>
<path fill="#000" d="M9.844 9.427c-0.331 0-0.663-0.013-0.983-0.041l-0.086 1.022c0.349 0.030 0.709 0.045 1.070 0.045v-1.026z"></path>
<path fill="#000" d="M9.844 16.609c-3.439 0-5.858-0.938-5.882-0.948l-0.378 0.954c0.105 0.042 2.613 1.020 6.26 1.020v-1.026z"></path>
<path fill="#000" d="M13.033 19.627l-0.21-1.004c-0.3 0.063-0.608 0.121-0.924 0.173l0.167 1.012c0.331-0.055 0.654-0.116 0.968-0.182z"></path>
</svg>
