<!-- Generated by IcoMoon.io -->
<svg version="1.1" xmlns="http://www.w3.org/2000/svg" width="32" height="32" viewBox="0 0 32 32">
<title>pretzel</title>
<path fill="#000" d="M23.944 2.581c-2.854 0-5.521 1.532-6.959 3.997l-0.985 1.689-0.985-1.688c-1.438-2.466-4.105-3.997-6.959-3.997-4.442 0-8.056 3.614-8.056 8.056 0 1.88 0.187 3.768 0.556 5.612l0.122 0.609c0.732 3.663 2.751 6.933 5.688 9.234-0.109 0.281-0.172 0.579-0.172 0.882 0 1.348 1.097 2.445 2.445 2.445h0.212c0.734 0 1.437-0.34 1.898-0.908 1.686 0.602 3.452 0.908 5.251 0.908s3.565-0.307 5.251-0.908c0.461 0.569 1.164 0.908 1.898 0.908h0.212c1.349 0 2.445-1.097 2.445-2.445 0-0.303-0.063-0.601-0.172-0.882 2.937-2.301 4.956-5.571 5.688-9.234l0.122-0.609c0.369-1.844 0.556-3.732 0.556-5.612 0-4.442-3.614-8.056-8.056-8.056zM9.975 27.83c-0.266 0.349-0.686 0.557-1.125 0.557h-0.212c-0.779 0-1.413-0.634-1.413-1.413 0-0.308 0.103-0.612 0.289-0.856l1.256-1.649 0.67 0.67 0.73-0.73-0.769-0.769 4.147-5.443c0.085 0.25 0.21 0.487 0.37 0.698l1.431 1.879-5.375 7.056zM17.875 24.087c-1.236 0.226-2.515 0.226-3.75 0l1.875-2.461 1.875 2.461zM11.419 27.638l2.013-2.643c0.841 0.194 1.703 0.295 2.567 0.295s1.726-0.101 2.567-0.295l2.013 2.643c-2.958 0.976-6.203 0.976-9.161-0.001zM30.31 16.655c-0.676 3.382-2.532 6.4-5.225 8.546l-1.881-2.469c2.098-1.691 3.543-4.051 4.069-6.683l0.122-0.611c0.129-0.646 0.233-1.305 0.31-1.96l-1.025-0.12c-0.073 0.627-0.173 1.258-0.297 1.877l-0.122 0.611c-0.477 2.385-1.785 4.525-3.683 6.063l-3.562-4.675-0.821 0.626 0.832 1.092-0.811 0.811 0.73 0.73 0.712-0.712 3.386 4.444-0.699 0.699 0.73 0.73 0.601-0.601 0.81 1.063c0.186 0.245 0.289 0.549 0.289 0.857-0.001 0.778-0.635 1.413-1.414 1.413h-0.212c-0.438 0-0.859-0.208-1.124-0.557l-7.285-9.56c-0.186-0.245-0.289-0.549-0.289-0.857 0-0.185 0.038-0.362 0.105-0.527l0.023-0.029-0.011-0.008c0.076-0.175 0.189-0.334 0.334-0.47l-0.703-0.756c-0.216 0.201-0.382 0.442-0.513 0.701l-4.263 5.589c-1.899-1.539-3.208-3.681-3.686-6.067l-0.121-0.607c-0.091-0.454-0.169-0.916-0.232-1.374l-1.022 0.142c0.066 0.477 0.148 0.96 0.243 1.434l0.121 0.607c0.526 2.632 1.973 4.994 4.072 6.685l-1.882 2.468c-2.694-2.146-4.55-5.163-5.226-8.546l-0.122-0.609c-0.241-1.205-0.395-2.43-0.473-3.659h0.97v-1.032h-1.015c-0.006-0.239-0.018-0.478-0.018-0.718 0-2.276 1.093-4.297 2.777-5.582l0.987 0.987 0.73-0.73-0.837-0.837c1-0.549 2.148-0.862 3.367-0.862 2.489 0 4.813 1.335 6.067 3.485l1.431 2.453c0.185 0.317 0.707 0.317 0.892 0l1.431-2.453c1.254-2.15 3.578-3.485 6.067-3.485 3.873 0 7.024 3.151 7.024 7.024 0 0.239-0.011 0.478-0.018 0.718h-1.015v1.032h0.97c-0.078 1.229-0.232 2.454-0.473 3.659l-0.122 0.609z"></path>
<path fill="#000" d="M8.056 6.71c-2.165 0-3.927 1.762-3.927 3.927 0 0.42 0.011 0.841 0.033 1.26l1.031-0.054c-0.021-0.402-0.031-0.805-0.031-1.207 0-1.596 1.299-2.895 2.895-2.895 1.026 0 1.983 0.55 2.5 1.436l1.723 2.953 0.892-0.52-1.723-2.953c-0.7-1.202-1.999-1.948-3.391-1.948z"></path>
<path fill="#000" d="M27.871 10.637c0-2.166-1.762-3.927-3.927-3.927-1.391 0-2.691 0.746-3.392 1.948l-1.135 1.946-0.135 0.266 0.92 0.468 1.241-2.161c0.517-0.886 1.475-1.436 2.501-1.436 1.596 0 2.895 1.299 2.895 2.895 0 0.234-0.004 0.468-0.011 0.702l1.032 0.031c0.008-0.244 0.011-0.489 0.011-0.733z"></path>
<path fill="#000" d="M11.204 5.526l-1.032 1.032-0.73-0.73 1.032-1.032 0.73 0.73z"></path>
<path fill="#000" d="M7.075 22.345l-0.73 0.73-1.032-1.032 0.73-0.73 1.032 1.032z"></path>
<path fill="#000" d="M4.494 15.849l-1.032 1.032-0.73-0.73 1.032-1.032 0.73 0.73z"></path>
<path fill="#000" d="M23.591 5.312l-0.73 0.73-1.032-1.032 0.73-0.73 1.032 1.032z"></path>
<path fill="#000" d="M28.236 6.556l-1.032 1.032-0.73-0.73 1.032-1.032 0.73 0.73z"></path>
<path fill="#000" d="M13.786 21.010l-1.032 1.032-0.73-0.73 1.032-1.032 0.73 0.73z"></path>
<path fill="#000" d="M26.685 22.043l-1.032 1.032-0.73-0.73 1.032-1.032 0.73 0.73z"></path>
<path fill="#000" d="M29.268 16.151l-0.73 0.73-1.032-1.032 0.73-0.73 1.032 1.032z"></path>
<path fill="#000" d="M16.883 26.687l-1.032 1.032-0.73-0.73 1.032-1.032 0.73 0.73z"></path>
<path fill="#f0bc5e" d="M19.614 14.145c0.615-0.37 1.031-1.036 1.031-1.804 0-0.805-0.447-1.529-1.167-1.889l-4.975-2.487c-0.291-0.147-0.618-0.223-0.944-0.223h-0.093c-1.164 0-2.111 0.947-2.111 2.111 0 0.752 0.393 1.429 1.031 1.809-0.615 0.37-1.031 1.036-1.031 1.804 0 0.805 0.447 1.529 1.167 1.889l4.975 2.487c0.291 0.147 0.618 0.223 0.944 0.223h0.093c1.164 0 2.111-0.947 2.111-2.111 0-0.752-0.393-1.429-1.031-1.809z"></path>
</svg>
