<!-- Generated by IcoMoon.io -->
<svg version="1.1" xmlns="http://www.w3.org/2000/svg" width="32" height="32" viewBox="0 0 32 32">
<title>pudding</title>
<path fill="#f0bc5e" d="M12.645 10.323v0c-0.855 0-1.548 0.693-1.548 1.548v7.226h3.097v-7.226c0-0.855-0.693-1.548-1.548-1.548z"></path>
<path fill="#000" d="M17.259 5.7c-0.153-1.922-1.182-3.649-2.837-4.682l-1.503-0.939c-0.159-0.1-0.36-0.104-0.524-0.014-0.165 0.091-0.266 0.264-0.266 0.452 0 1.013-0.645 1.908-1.606 2.228l-0.728 0.243c-1.26 0.42-2.134 1.529-2.281 2.824-0.915 0.312-1.579 1.17-1.579 2.189 0 0.347 0.075 0.682 0.224 0.996l0.933-0.442c-0.083-0.174-0.124-0.36-0.124-0.553 0-0.712 0.579-1.29 1.29-1.29h2.323v-1.032h-2.001c0.178-0.79 0.749-1.448 1.542-1.712l0.728-0.243c1.102-0.368 1.915-1.26 2.201-2.345l0.825 0.515c1.345 0.84 2.195 2.23 2.35 3.784h-0.484v1.032h1.29c0.711 0 1.29 0.579 1.29 1.29 0 0.194-0.042 0.379-0.124 0.552l0.933 0.443c0.148-0.313 0.223-0.647 0.223-0.996 0-1.203-0.923-2.184-2.096-2.3z"></path>
<path fill="#000" d="M11.613 5.677h1.032v1.032h-1.032v-1.032z"></path>
<path fill="#f0bc5e" d="M6.791 8.258c-1.624 0-3.030 1.211-3.271 2.817l-1.192 7.945 7.221 0.076 0.201-9.011c-0.564-1.128-1.698-1.828-2.959-1.828z"></path>
<path fill="#000" d="M28.129 26.839c-0.854 0-1.548 0.695-1.548 1.548s0.695 1.548 1.548 1.548 1.548-0.695 1.548-1.548-0.695-1.548-1.548-1.548zM28.129 28.903c-0.284 0-0.516-0.231-0.516-0.516s0.232-0.516 0.516-0.516 0.516 0.231 0.516 0.516-0.232 0.516-0.516 0.516z"></path>
<path fill="#000" d="M29.677 23.605v-11.389c1.249-0.593 2.065-1.861 2.065-3.261 0-1.813-1.49-5.161-3.613-5.161s-3.613 3.348-3.613 5.161c0 1.401 0.816 2.669 2.065 3.261v11.389l-1.589 2.78c-0.311 0.546-0.476 1.165-0.476 1.793v0.21c0 1.992 1.621 3.613 3.613 3.613s3.613-1.621 3.613-3.613v-0.21c0-0.628-0.165-1.247-0.476-1.793l-1.589-2.78zM30.71 28.387c0 1.423-1.158 2.581-2.581 2.581s-2.581-1.158-2.581-2.581v-0.21c0-0.448 0.118-0.891 0.34-1.281l1.724-3.018v-12.373l-0.344-0.121c-1.029-0.364-1.72-1.341-1.72-2.43 0-1.516 1.275-4.129 2.581-4.129s2.581 2.613 2.581 4.129c0 1.089-0.692 2.066-1.72 2.43l-0.344 0.121v12.373l1.724 3.018c0.222 0.389 0.34 0.833 0.34 1.281v0.21z"></path>
<path fill="#000" d="M27.613 10.411c-0.514-0.182-1.032-0.703-1.032-1.457 0-0.935 0.636-2.296 1.183-2.843l0.729 0.731c-0.347 0.347-0.881 1.432-0.881 2.113 0 0.286 0.217 0.439 0.345 0.484l-0.345 0.973z"></path>
<path fill="#000" d="M12.129 13.935h-1.032v-2.065c0-0.854 0.695-1.548 1.548-1.548v1.032c-0.284 0-0.516 0.231-0.516 0.516v2.065z"></path>
<path fill="#000" d="M11.097 14.968h1.032v1.032h-1.032v-1.032z"></path>
<path fill="#000" d="M5.994 15.454l-0.152 1.011-1.021-0.153 0.152-1.011 1.021 0.153z"></path>
<path fill="#000" d="M6.134 14.528l-1.021-0.153 0.449-2.994c0.106-0.703 0.835-1.192 1.53-1.021l-0.248 1.002c-0.118-0.030-0.243 0.054-0.261 0.173l-0.449 2.994z"></path>
<path fill="#f0bc5e" d="M21.77 11.075c-0.241-1.606-1.647-2.817-3.271-2.817-1.261 0-2.395 0.7-2.958 1.828l0.201 9.011 7.22-0.076-1.192-7.945z"></path>
<path fill="#000" d="M17.29 14.968h1.032v1.032h-1.032v-1.032z"></path>
<path fill="#000" d="M18.323 13.935h-1.032v-2.065c0-0.854 0.695-1.548 1.548-1.548v1.032c-0.284 0-0.516 0.231-0.516 0.516v2.065z"></path>
<path fill="#000" d="M25.032 18.581h-8.774v-6.71c0-1.992-1.621-3.613-3.613-3.613s-3.613 1.621-3.613 3.613v6.71h-8.774v1.032h1.145l0.516 2.065h1.461c0.259 2.852 2.634 5.098 5.539 5.156l-1.033 5.167h9.517l-1.033-5.167c2.905-0.057 5.281-2.303 5.539-5.156h1.461l0.516-2.065h1.661v-1.032h-0.516zM10.064 11.871c0-1.423 1.158-2.581 2.581-2.581s2.581 1.158 2.581 2.581v6.71h-5.161v-6.71zM9.146 30.968l0.826-4.129h5.347l0.826 4.129h-6.999zM22.565 20.645h-2.694v1.032h1.002c-0.258 2.319-2.228 4.129-4.615 4.129h-7.226c-2.387 0-4.357-1.81-4.615-4.129h14.421v-1.032h-16.113l-0.258-1.032h20.355l-0.258 1.032z"></path>
</svg>
