<!-- Generated by IcoMoon.io -->
<svg version="1.1" xmlns="http://www.w3.org/2000/svg" width="32" height="32" viewBox="0 0 32 32">
<title>pumpkin</title>
<path fill="#000" d="M21.053 26.3l-0.983-0.316c0.369-1.145 0.556-2.334 0.556-3.538 0-1.634-0.333-3.207-0.99-4.689l0.943-0.419c0.716 1.614 1.079 3.329 1.079 5.094 0 1.324-0.204 2.621-0.605 3.868z"></path>
<path fill="#000" d="M20.333 28.065l-0.923-0.462c0.142-0.285 0.275-0.581 0.395-0.881l0.958 0.383c-0.131 0.327-0.276 0.65-0.43 0.96z"></path>
<path fill="#000" d="M27.371 15.971c-0.261-0.436-0.583-0.83-0.958-1.173l-0.697 0.761c0.301 0.276 0.56 0.593 0.77 0.943 1.075 1.791 1.643 3.842 1.643 5.945 0 1.781-0.421 3.563-1.217 5.156l-0.581 1.163c-0.68 1.358-2.045 2.202-3.564 2.202-1.064 0-2.065-0.414-2.817-1.167l-0.595-0.595-0.595 0.595c-0.753 0.753-1.753 1.167-2.817 1.167-0.023 0-0.045-0.003-0.067-0.005-0.037-0.004-0.073-0.007-0.157-0.009-0.037 0.002-0.074 0.005-0.11 0.009-0.022 0.002-0.044 0.005-0.067 0.005-1.064 0-2.065-0.414-2.817-1.167l-0.595-0.595-0.595 0.595c-0.753 0.753-1.753 1.167-2.817 1.167-1.518 0-2.884-0.844-3.563-2.202l-0.581-1.163c-0.797-1.592-1.218-3.375-1.218-5.17 0-2.089 0.568-4.14 1.643-5.931 0.759-1.265 2.146-2.050 3.62-2.050 1.128 0 2.188 0.439 2.985 1.237l0.525 0.525 0.526-0.526c0.796-0.796 1.855-1.236 2.986-1.236 0.002 0 0.003 0 0.004 0 0.030 0.003 0.059 0.005 0.104 0.006l0.094-0.006c1.128 0 2.188 0.439 2.985 1.237l0.526 0.525 0.526-0.526c0.113-0.113 0.232-0.219 0.356-0.317l-0.645-0.806c-0.080 0.065-0.159 0.132-0.236 0.201-0.216-0.195-0.447-0.366-0.688-0.52l0.098-0.059-0.045-0.074c-0.935-1.56-1.43-3.345-1.43-5.163 0-1.413 0.291-2.784 0.865-4.075l1.046-2.355c0.102-0.228 0.153-0.47 0.153-0.746 0-0.978-0.795-1.772-1.772-1.772-0.694 0-1.326 0.408-1.613 1.039l-1.122 2.468c-0.776 1.708-1.17 3.527-1.17 5.404 0 1.175-0.177 2.351-0.516 3.477v-0.61c0-1.733-0.525-3.4-1.519-4.82l-0.59-0.843c-0.925-1.321-1.202-2.969-0.758-4.52 0.094-0.331 0.401-0.562 0.744-0.562h0.317c0.427 0 0.774 0.347 0.774 0.774s-0.347 0.774-0.774 0.774h-0.258v1.032h0.258c0.996 0 1.806-0.81 1.806-1.806s-0.81-1.806-1.806-1.806h-0.317c-0.802 0-1.516 0.539-1.737 1.31-0.529 1.852-0.199 3.818 0.905 5.395l0.11 0.157c-0.328-0.095-0.67-0.153-1.027-0.153-0.996 0-1.806 0.81-1.806 1.806s0.81 1.806 1.806 1.806h0.258v-1.032h-0.258c-0.427 0-0.774-0.347-0.774-0.774s0.347-0.774 0.774-0.774c1.159 0 2.162 0.746 2.495 1.857l0.013-0.004c0.217 0.701 0.33 1.434 0.33 2.182v2.987c-0.966-0.869-2.202-1.345-3.511-1.345-1.835 0-3.561 0.978-4.505 2.551-1.171 1.952-1.79 4.187-1.79 6.476 0 1.94 0.459 3.882 1.326 5.618l0.581 1.163c0.856 1.71 2.575 2.773 4.487 2.773 1.277 0 2.482-0.474 3.412-1.339 0.931 0.865 2.135 1.339 3.412 1.339 0.056 0 0.111-0.005 0.166-0.010l0.011-0.005 0.058 0.005c0.056 0.005 0.11 0.010 0.167 0.010 1.277 0 2.482-0.474 3.412-1.339 0.931 0.865 2.135 1.339 3.412 1.339 1.912 0 3.631-1.063 4.487-2.773l0.581-1.163c0.868-1.735 1.326-3.678 1.326-5.631 0-2.276-0.619-4.511-1.79-6.462zM15.787 3.934l1.122-2.468c0.12-0.263 0.384-0.434 0.673-0.434 0.408 0 0.74 0.332 0.74 0.765 0 0.104-0.021 0.205-0.064 0.3l-1.047 2.356c-0.633 1.425-0.954 2.936-0.954 4.494 0 1.62 0.362 3.214 1.043 4.676-0.468-0.134-0.957-0.205-1.458-0.205-0.034 0-0.068 0.003-0.102 0.006-0.034-0.003-0.067-0.006-0.101-0.006-0.65 0-1.282 0.118-1.871 0.342 0.614-1.539 0.941-3.195 0.941-4.851 0-1.729 0.362-3.403 1.078-4.977z"></path>
<path fill="#000" d="M10.627 17.339c-0.716 1.614-1.079 3.329-1.079 5.107 0 1.94 0.459 3.882 1.326 5.618l0.923-0.462c-0.796-1.592-1.217-3.375-1.217-5.17 0-1.621 0.333-3.194 0.99-4.676l-0.943-0.418z"></path>
<path fill="#000" d="M6.767 17.565c0.045-0.075 0.094-0.147 0.147-0.214l-0.812-0.637c-0.078 0.101-0.152 0.207-0.219 0.319-0.122 0.204-0.238 0.412-0.345 0.623l0.919 0.469c0.098-0.19 0.201-0.376 0.311-0.559z"></path>
<path fill="#000" d="M4.387 22.446c0 1.622 0.383 3.245 1.108 4.695l0.581 1.162 0.923-0.462-0.581-1.162c-0.653-1.307-0.999-2.772-0.999-4.233 0-1.206 0.224-2.383 0.665-3.498l-0.959-0.38c-0.49 1.237-0.738 2.541-0.738 3.878z"></path>
<path fill="#f0bc5e" d="M23.55 16.004c-1.991 0-3.942-0.581-5.649-1.703-0.1-0.067-0.175-0.166-0.21-0.281-0.792-2.594-0.404-5.386 1.063-7.66l0.331-0.515c0.114-0.176 0.323-0.265 0.527-0.228 0.206 0.038 0.369 0.197 0.411 0.402l0.366 1.748c2.045-2.321 5.295-3.218 8.279-2.179l0.662 0.23c0.149 0.052 0.267 0.17 0.318 0.319s0.032 0.314-0.054 0.447l-1.491 2.311c-0.959 1.487-2.372 2.565-4.029 3.089 0.677 0.988 1.545 1.845 2.543 2.5l0.226 0.149c0.174 0.115 0.263 0.322 0.224 0.527s-0.196 0.366-0.399 0.409l-0.95 0.203c-0.723 0.154-1.45 0.23-2.17 0.23z"></path>
<path fill="#000" d="M18.274 14.669l-0.936-0.435 0.306-0.646c1.337-2.054 3.184-3.753 5.34-4.914l2.513-1.354 0.49 0.908-2.513 1.354c-1.994 1.075-3.703 2.643-4.945 4.538l-0.255 0.548z"></path>
</svg>
