<!-- Generated by IcoMoon.io -->
<svg version="1.1" xmlns="http://www.w3.org/2000/svg" width="32" height="32" viewBox="0 0 32 32">
<title>purse</title>
<path d="M2.813 1.938c-1.553 0-2.813 1.259-2.813 2.813s1.259 2.813 2.813 2.813h25.438v-5.625h-25.438z"></path>
<path d="M25.438 16.938c-1.551 0-2.813 1.262-2.813 2.813s1.262 2.813 2.813 2.813h6.563v-5.625h-6.563zM26.375 20.688h-1.875v-1.875h1.875v1.875z"></path>
<path d="M25.438 15.063h6.563v-5.625c-0.28 0-29.188 0-29.188 0-1.059 0-2.027-0.367-2.813-0.961 0 0.428 0 16.246 0 16.899 0 2.589 2.099 4.688 4.688 4.688h27.313v-5.625h-6.563c-2.585 0-4.688-2.103-4.688-4.688s2.103-4.688 4.688-4.688z"></path>
</svg>
