<!-- Generated by IcoMoon.io -->
<svg version="1.1" xmlns="http://www.w3.org/2000/svg" width="32" height="32" viewBox="0 0 32 32">
<title>radish</title>
<path fill="#f0bc5e" d="M16.258 10.839c-0.009 0-0.018 0-0.027-0.001-0.171-0.009-0.328-0.103-0.416-0.25l-0.997-1.661c-0.31-0.517-0.759-0.933-1.299-1.203-0.857-0.429-1.39-1.291-1.39-2.251 0-0.673 0.262-1.304 0.737-1.779l0.295-0.295v-1.423c0-1.089 0.887-1.976 1.976-1.976 0.527 0 1.024 0.205 1.397 0.579l0.24 0.24 0.24-0.24c0.373-0.373 0.869-0.579 1.397-0.579 1.089 0 1.976 0.887 1.976 1.976 0 0.836-0.245 1.645-0.708 2.34l-0.176 0.264 0.293 0.293c0.381 0.381 0.591 0.887 0.591 1.426 0 0.768-0.427 1.459-1.114 1.803-0.737 0.368-1.387 0.911-1.882 1.57l-0.72 0.96c-0.098 0.131-0.251 0.206-0.413 0.206z"></path>
<path fill="#000" d="M17.574 24.832l3.365-1.262c2.448-0.918 4.093-3.292 4.093-5.907 0-3.479-2.83-6.309-6.309-6.309h-0.206c-0.622 0-1.22 0.164-1.743 0.468v-7.178h-1.032v7.178c-0.524-0.305-1.121-0.468-1.743-0.468-3.877 0-7.031 3.154-7.031 7.031 0 2.225 1.069 4.341 2.86 5.66l6.139 4.524-1.66 2.076 0.806 0.645 1.145-1.432v2.141h1.032v-2.367l2.216 2.216 0.73-0.73-0.667-0.667h3.399v-1.032h-1.335l1.183-1.183-0.73-0.73-1.913 1.913h-1.637l-0.806-0.806-0.868-2.17c-0.058-0.146-0.088-0.299-0.088-0.457 0-0.51 0.322-0.974 0.799-1.154zM15.742 25.986c0 0.29 0.054 0.573 0.162 0.841l0.235 0.587-5.699-4.199c-0.298-0.22-0.565-0.472-0.814-0.739 0.655 0.122 1.521 0.233 2.503 0.233v-1.032c-1.801 0-3.206-0.414-3.419-0.481-0.456-0.857-0.71-1.82-0.71-2.811 0-0.705 0.129-1.379 0.353-2.008 0.232 0.141 0.519 0.294 0.874 0.444l0.402-0.951c-0.362-0.153-0.639-0.31-0.844-0.441 1.032-1.814 2.981-3.043 5.213-3.043 0.654 0 1.268 0.254 1.731 0.717l0.013 0.013v1.851h1.032v-1.851l0.013-0.013c0.462-0.462 1.077-0.717 1.731-0.717h0.206c1.648 0 3.121 0.76 4.089 1.947-0.418 0.312-1.266 0.843-2.551 1.165l0.25 1.001c1.4-0.35 2.354-0.923 2.873-1.303 0.391 0.737 0.615 1.576 0.615 2.467 0 2.187-1.376 4.172-3.423 4.94l-3.365 1.262c-0.879 0.33-1.469 1.182-1.469 2.121z"></path>
<path fill="#000" d="M13.161 16.516c-1.007 0-1.941-0.125-2.775-0.374l-0.294 0.99c0.93 0.277 1.962 0.417 3.069 0.417v-1.032z"></path>
<path fill="#000" d="M19.64 18.635c-0.009 0.005-0.99 0.462-3.382 0.462-2.452 0-3.952-0.485-3.967-0.49l-0.326 0.979c0.067 0.022 1.658 0.543 4.293 0.543 2.672 0 3.797-0.548 3.844-0.57l-0.461-0.924z"></path>
</svg>
