<!-- Generated by IcoMoon.io -->
<svg version="1.1" xmlns="http://www.w3.org/2000/svg" width="32" height="32" viewBox="0 0 32 32">
<title>ramen</title>
<path fill="#f9ba48" d="M26.905 22.704h-24.53c0.109 0.349 0.234 0.693 0.369 1.033h23.792c0.135-0.34 0.259-0.684 0.369-1.033z"></path>
<path fill="#f9ba48" d="M3.763 25.803h21.755c0.199-0.337 0.386-0.681 0.559-1.033h-22.872c0.172 0.352 0.359 0.696 0.559 1.033z"></path>
<path fill="#333" d="M30.787 0.996l-0.276-0.996-14.839 4.122v-1.558h-1.033v1.845l-0.516 0.144v-0.956h-1.033v1.243l-0.516 0.144v-0.353h-1.033v8.263c-0.459 0-0.868 0.204-1.151 0.523-2.011 0.046-3.738 1.246-4.549 2.963-0.272-0.238-0.624-0.387-1.013-0.387-0.854 0-1.549 0.695-1.549 1.549 0 0.285-0.231 0.516-0.516 0.516h-1.549v0.516c0 5.12 2.914 10.123 7.23 12.679v0.748h12.394v-0.747c4.316-2.555 7.23-7.557 7.23-12.68v-0.516h-2.582v-4.131h-1.033v4.131h-0.030c-0.064-0.573-0.233-1.112-0.486-1.604v-3.044h-1.033v1.71c-0.823-0.739-1.908-1.193-3.099-1.193-0.955 0-1.844 0.29-2.583 0.787 0-0.045 0-0.090 0.001-0.129l0.001-0.141c0-0.854-0.695-1.549-1.549-1.549s-1.549 0.695-1.549 1.549c0 0.285-0.231 0.516-0.516 0.516s-0.516-0.231-0.516-0.516c0-0.456-0.202-0.862-0.516-1.146v-7.116h0.516v6.714h1.033v-6.714h0.516v1.033h1.033v-1.033h14.976v-1.033h-14.802l14.94-4.15zM4.311 17.54c0-0.285 0.231-0.516 0.516-0.516s0.516 0.231 0.516 0.516c0 0.127 0.020 0.248 0.048 0.366-0.007 0.051-0.017 0.1-0.022 0.151h-1.154c0.058-0.162 0.095-0.335 0.095-0.516zM19.168 30.967h-9.057c-4.482-2.039-7.651-6.855-7.855-11.878h24.767c-0.204 5.025-3.373 9.841-7.855 11.878zM8.348 18.056c0.058-0.162 0.095-0.335 0.095-0.516 0-0.285 0.231-0.516 0.516-0.516s0.516 0.231 0.516 0.516c0 0.182 0.037 0.354 0.095 0.516h-1.223zM17.222 17.024c0.285 0 0.516 0.231 0.516 0.516 0 0.182 0.037 0.354 0.095 0.516h-1.223c0.058-0.162 0.095-0.335 0.095-0.516 0.001-0.285 0.232-0.516 0.517-0.516zM12.479 18.056c0.058-0.162 0.095-0.335 0.095-0.516 0-0.285 0.231-0.516 0.516-0.516s0.516 0.231 0.516 0.516c0 0.182 0.037 0.354 0.095 0.516h-1.223zM23.378 18.056h-4.090c-0.285 0-0.516-0.231-0.516-0.516 0-0.837-0.668-1.516-1.498-1.544 0.653-0.641 1.546-1.038 2.53-1.038 1.817 0 3.322 1.35 3.574 3.099zM13.607 15.991c0.854 0 1.549-0.695 1.549-1.549 0-0.285 0.231-0.516 0.516-0.516s0.516 0.231 0.516 0.516l-0.001 0.133c-0.003 0.32-0.001 0.647 0.142 0.921-0.619 0.698-1.033 1.58-1.143 2.555-0.011 0.001-0.020 0.007-0.031 0.007-0.285 0-0.516-0.231-0.516-0.516 0-0.854-0.695-1.549-1.549-1.549s-1.549 0.695-1.549 1.549c0 0.285-0.231 0.516-0.516 0.516s-0.516-0.231-0.516-0.516c0-0.854-0.695-1.549-1.549-1.549s-1.549 0.695-1.549 1.549c0 0.285-0.231 0.516-0.516 0.516-0.191 0-0.351-0.108-0.441-0.263 0.366-1.907 2.044-3.352 4.056-3.352h0.516c0-0.285 0.231-0.516 0.516-0.516s0.516 0.231 0.516 0.516c0 0.854 0.695 1.549 1.549 1.549z"></path>
<path fill="#333" d="M4.311 20.639h5.681v1.033h-5.681v-1.033z"></path>
<path fill="#333" d="M11.025 20.639h1.033v1.033h-1.033v-1.033z"></path>
<path fill="#333" d="M13.090 20.639h1.033v1.033h-1.033v-1.033z"></path>
</svg>
