<!-- Generated by IcoMoon.io -->
<svg version="1.1" xmlns="http://www.w3.org/2000/svg" width="32" height="32" viewBox="0 0 32 32">
<title>receipt</title>
<path d="M18.122 27.21c-0.080-0.39-0.122-0.796-0.122-1.21h-18c0 3.314 2.686 6 6 6h14.764c-1.39-1.214-2.348-2.884-2.642-4.79z"></path>
<path d="M14 8h2v2h-2v-2z"></path>
<path d="M8 0v24h11c0.552 0 1 0.448 1 1v1c0 3.308 2.692 6 6 6s6-2.692 6-6v-26h-24zM18 19c0 0.552-0.448 1-1 1h-4c-0.552 0-1-0.448-1-1v-4c0-0.552 0.448-1 1-1h4c0.552 0 1 0.448 1 1v4zM18 11c0 0.552-0.448 1-1 1h-4c-0.552 0-1-0.448-1-1v-4c0-0.552 0.448-1 1-1h4c0.552 0 1 0.448 1 1v4zM27 18h-6c-0.552 0-1-0.448-1-1s0.448-1 1-1h6c0.552 0 1 0.448 1 1s-0.448 1-1 1zM27 10h-6c-0.552 0-1-0.448-1-1s0.448-1 1-1h6c0.552 0 1 0.448 1 1s-0.448 1-1 1z"></path>
<path d="M14 16h2v2h-2v-2z"></path>
</svg>
