<!-- Generated by IcoMoon.io -->
<svg version="1.1" xmlns="http://www.w3.org/2000/svg" width="32" height="32" viewBox="0 0 32 32">
<title>restaurant1</title>
<path d="M31.168 27.208l-27.208-27.208h-1.146l-0.234 0.594c-0.617 1.569-0.881 3.174-0.763 4.641 0.135 1.672 0.77 3.12 1.837 4.186l11.444 11.444 1.509-1.509 10.58 11.831c1.052 1.052 2.864 1.115 3.979 0 1.097-1.097 1.097-2.882 0-3.979z"></path>
<path d="M9.796 18.215l-8.963 8.963c-1.097 1.097-1.097 2.882 0 3.979 1.042 1.042 2.845 1.134 3.979 0l8.963-8.963-3.979-3.979z"></path>
<path d="M30.641 5.328l-5.084 5.084-1.326-1.326 5.084-5.084-1.326-1.326-5.084 5.084-1.326-1.326 5.084-5.084-1.326-1.326-6.632 6.632c-0.811 0.811-1.296 1.889-1.364 3.033-0.017 0.29-0.083 0.575-0.192 0.847l4.308 4.308c0.271-0.109 0.557-0.175 0.847-0.192 1.145-0.068 2.222-0.553 3.033-1.364l6.632-6.632-1.326-1.326z"></path>
</svg>
