<!-- Generated by IcoMoon.io -->
<svg version="1.1" xmlns="http://www.w3.org/2000/svg" width="32" height="32" viewBox="0 0 32 32">
<title>restaurant-1</title>
<path fill="#f0bc5e" d="M4.645 20.645h13.419v8.774h-13.419z"></path>
<path fill="#000" d="M32 18.581v-2.702l-2.581-5.161v-2.459h-8.554l-0.22-0.607v-2.49h-4.129v1.032h3.097v1.032h-3.613v1.032h1.154l1.267 4.645h-2.018l-0.934-3.738-1.002 0.251 0.872 3.488h-2.013l-0.433-2.166-1.012 0.203 0.392 1.963h-1.837l0.393-1.963-1.012-0.203-0.433 2.166h-2.013l0.872-3.487-1.002-0.251-0.934 3.738h-2.018l1.267-4.645h1.154v-1.032h-3.613v-1.032h3.097v-1.032h-4.129v2.49l-2.065 5.677v1.639c0 0.959 0.661 1.761 1.548 1.991v11.944h-1.032v3.097h21.677v-2.065h9.806v-3.097h-1.548v-8.258zM21.161 17.548v-0.589c0.314-0.081 0.597-0.235 0.835-0.443h8.971v1.032zM4.129 13.935h2.065v1.032c0 0.569-0.463 1.032-1.032 1.032s-1.032-0.463-1.032-1.032zM7.226 13.935h2.065v1.032c0 0.569-0.463 1.032-1.032 1.032s-1.032-0.463-1.032-1.032zM10.323 13.935h2.065v1.032c0 0.569-0.463 1.032-1.032 1.032s-1.032-0.463-1.032-1.032zM13.419 13.935h2.065v1.032c0 0.569-0.463 1.032-1.032 1.032s-1.032-0.463-1.032-1.032zM16.516 13.935h2.065v1.032c0 0.569-0.463 1.032-1.032 1.032s-1.032-0.463-1.032-1.032zM19.613 13.935h2.065v1.032c0 0.569-0.463 1.032-1.032 1.032s-1.032-0.463-1.032-1.032zM21.992 11.355h6.592l2.065 4.129h-8.012c0.043-0.166 0.073-0.337 0.073-0.516v-1.639zM28.387 9.29v1.032h-6.771l-0.375-1.032zM18.224 8.258h1.543l1.689 4.645h-1.965zM3.219 12.903h-1.965l1.689-4.645h1.543zM1.032 14.968v-1.032h2.065v1.032c0 0.569-0.463 1.032-1.032 1.032s-1.032-0.463-1.032-1.032zM2.581 16.959c0.408-0.106 0.763-0.332 1.032-0.64 0.379 0.433 0.929 0.713 1.548 0.713s1.17-0.28 1.548-0.713c0.379 0.433 0.929 0.713 1.548 0.713s1.17-0.28 1.548-0.713c0.379 0.433 0.929 0.713 1.548 0.713s1.17-0.28 1.548-0.713c0.379 0.433 0.929 0.713 1.548 0.713s1.17-0.28 1.548-0.713c0.379 0.433 0.929 0.713 1.548 0.713s1.17-0.28 1.548-0.713c0.269 0.308 0.625 0.534 1.032 0.64v11.944h-8.258v-7.742h7.226v-3.097h-15.484v3.097h7.226v7.742h-8.258zM4.645 20.129v-1.032h13.419v1.032zM21.161 30.968h-19.613v-1.032h19.613zM30.968 28.903h-9.806v-1.032h9.806zM29.419 26.839h-8.258v-8.258h8.258z"></path>
<path fill="#f0bc5e" d="M11.355 11.355c-3.13 0-5.677-2.547-5.677-5.677s2.547-5.677 5.677-5.677 5.677 2.547 5.677 5.677-2.547 5.677-5.677 5.677z"></path>
<path fill="#000" d="M25.29 25.806c1.708 0 3.097-1.389 3.097-3.097s-1.389-3.097-3.097-3.097-3.097 1.389-3.097 3.097 1.389 3.097 3.097 3.097zM23.299 23.226h1.475v1.475c-0.722-0.188-1.287-0.753-1.475-1.475zM25.806 24.701v-1.475h1.475c-0.188 0.722-0.753 1.287-1.475 1.475zM27.282 22.194h-1.475v-1.475c0.722 0.188 1.287 0.753 1.475 1.475zM24.774 20.718v1.475h-1.475c0.188-0.722 0.753-1.287 1.475-1.475z"></path>
<path fill="#000" d="M8.774 7.742h0.735c0.4 0.91 1.306 1.548 2.362 1.548 1.423 0 2.581-1.158 2.581-2.581v-2.581h-5.161v0.516h-0.516c-0.854 0-1.548 0.695-1.548 1.548s0.695 1.548 1.548 1.548zM10.323 5.161h3.097v1.548c0 0.854-0.695 1.548-1.548 1.548s-1.548-0.695-1.548-1.548zM8.774 5.677h0.516v1.032h-0.516c-0.284 0-0.516-0.232-0.516-0.516s0.232-0.516 0.516-0.516z"></path>
<path fill="#000" d="M10.839 2.065h1.032v1.032h-1.032z"></path>
<path fill="#000" d="M12.903 2.065h1.032v1.032h-1.032z"></path>
<path fill="#000" d="M8.774 2.065h1.032v1.032h-1.032z"></path>
</svg>
