<!-- Generated by IcoMoon.io -->
<svg version="1.1" xmlns="http://www.w3.org/2000/svg" width="32" height="32" viewBox="0 0 32 32">
<title>restaurant</title>
<path fill="#f0bc5e" d="M9.367 24.784h-9.367l0.601-7.216h8.164z"></path>
<path fill="#f0bc5e" d="M29.664 25.829c-0.405-0.715-1.231-1.14-2.059-1.026-0.402-0.714-1.229-1.148-2.062-1.031-0.359-0.636-1.039-1.049-1.79-1.049s-1.43 0.413-1.789 1.049c-0.834-0.118-1.659 0.317-2.062 1.031-0.829-0.114-1.653 0.311-2.059 1.026-1.024 0.12-1.821 0.992-1.821 2.048 0 1.137 0.925 2.062 2.062 2.062h11.339c1.137 0 2.062-0.925 2.062-2.062 0-1.055-0.797-1.928-1.821-2.048z"></path>
<path fill="#000" d="M2.622 19.63h4.123v1.031h-4.123z"></path>
<path fill="#000" d="M2.622 21.692h4.123v1.031h-4.123z"></path>
<path fill="#000" d="M32 4.168c0-0.569-0.462-1.031-1.031-1.031h-0.197l-1.546-3.092h-26.407l-1.546 3.092h-0.197c-0.569 0-1.031 0.462-1.031 1.031v1.031c0 0.189 0.055 0.363 0.143 0.515-0.089 0.152-0.143 0.327-0.143 0.515v3.092c0 0.958 0.659 1.758 1.546 1.988v6.258h1.031v-6.258c0.407-0.106 0.762-0.331 1.031-0.639 0.378 0.433 0.927 0.712 1.546 0.712s1.168-0.279 1.546-0.712c0.378 0.433 0.927 0.712 1.546 0.712s1.168-0.279 1.546-0.712c0.378 0.433 0.927 0.712 1.546 0.712s1.168-0.279 1.546-0.712c0.378 0.433 0.927 0.712 1.546 0.712s1.168-0.279 1.546-0.712c0.378 0.433 0.927 0.712 1.546 0.712s1.168-0.279 1.546-0.712c0.378 0.433 0.927 0.712 1.546 0.712s1.168-0.279 1.546-0.712c0.378 0.433 0.927 0.712 1.546 0.712s1.168-0.279 1.546-0.712c0.378 0.433 0.927 0.712 1.546 0.712s1.168-0.279 1.546-0.712c0.269 0.308 0.624 0.533 1.031 0.639v14.189c0.090 0.102 0.173 0.21 0.241 0.33 0.286 0.034 0.551 0.131 0.79 0.27v-14.788c0.887-0.23 1.546-1.031 1.546-1.988v-3.092c0-0.189-0.055-0.363-0.143-0.515 0.089-0.152 0.143-0.327 0.143-0.515zM3.456 1.076h25.133l1.031 2.062h-27.195zM1.076 4.168h29.894v1.031h-3.092v1.031h3.092v1.031h-29.894v-1.031h25.77v-1.031h-25.77zM2.106 10.353c-0.569 0-1.031-0.462-1.031-1.031v-1.031h2.062v1.031c0 0.569-0.462 1.031-1.031 1.031zM5.199 10.353c-0.569 0-1.031-0.462-1.031-1.031v-1.031h2.062v1.031c0 0.569-0.462 1.031-1.031 1.031zM8.291 10.353c-0.569 0-1.031-0.462-1.031-1.031v-1.031h2.062v1.031c0 0.569-0.462 1.031-1.031 1.031zM11.384 10.353c-0.569 0-1.031-0.462-1.031-1.031v-1.031h2.062v1.031c0 0.569-0.462 1.031-1.031 1.031zM14.476 10.353c-0.569 0-1.031-0.462-1.031-1.031v-1.031h2.062v1.031c0 0.569-0.462 1.031-1.031 1.031zM17.569 10.353c-0.569 0-1.031-0.462-1.031-1.031v-1.031h2.062v1.031c0 0.569-0.462 1.031-1.031 1.031zM20.661 10.353c-0.569 0-1.031-0.462-1.031-1.031v-1.031h2.062v1.031c0 0.569-0.462 1.031-1.031 1.031zM23.753 10.353c-0.569 0-1.031-0.462-1.031-1.031v-1.031h2.062v1.031c0 0.569-0.462 1.031-1.031 1.031zM26.846 10.353c-0.569 0-1.031-0.462-1.031-1.031v-1.031h2.062v1.031c0 0.569-0.462 1.031-1.031 1.031zM29.938 10.353c-0.569 0-1.031-0.462-1.031-1.031v-1.031h2.062v1.031c0 0.569-0.462 1.031-1.031 1.031z"></path>
<path fill="#000" d="M15.507 30.969h-1.031v-18.555h-10.824v5.154h1.031v-2.062h1.546v-1.031h-1.546v-1.031h8.762v1.031h-6.185v1.031h6.185v15.462h-6.185v-6.185h-1.031v2.062h-3.092v-2.062h-1.031v6.185h-2.062v1.031h31.955v-3.092h-16.493zM3.137 27.877h3.092v3.092h-3.092zM16.538 29.938h14.431v1.031h-14.431z"></path>
<path fill="#000" d="M27.361 12.415h-8.247v8.246h8.246zM26.331 16.022h-2.577v-2.577h2.577zM22.723 13.445v2.577h-2.577v-2.577zM20.146 17.053h2.577v2.577h-2.577zM23.753 19.63v-2.577h2.577v2.577z"></path>
<path fill="#000" d="M25.3 26.331h1.031v1.031h-1.031z"></path>
<path fill="#000" d="M19.63 26.846h1.031v1.031h-1.031z"></path>
<path fill="#000" d="M11.384 22.207h1.031v1.031h-1.031z"></path>
</svg>
