<!-- Generated by IcoMoon.io -->
<svg version="1.1" xmlns="http://www.w3.org/2000/svg" width="32" height="32" viewBox="0 0 32 32">
<title>rice-1</title>
<path fill="#f0bc5e" d="M28.351 20.66c-0.117-0.762-0.514-1.449-1.119-1.934-0.427 0.222-0.911 0.349-1.425 0.349h-1.032c0-0.733 0.256-1.405 0.681-1.935-0.453-0.873-1.299-1.486-2.267-1.64-0.177-1.126-0.968-2.074-2.046-2.448-0.138-1.227-0.998-2.259-2.182-2.614-0.388-1.294-1.583-2.201-2.959-2.201s-2.571 0.907-2.96 2.201c-1.184 0.356-2.045 1.387-2.182 2.615-0.618 0.215-1.156 0.629-1.531 1.171 0.611 0.566 0.996 1.372 0.996 2.271h-1.032c-0.632 0-1.218-0.19-1.708-0.515-0.729 0.482-1.219 1.241-1.352 2.1-1.324 0.207-2.374 1.256-2.581 2.58-1.481 0.232-2.617 1.515-2.617 3.060 0 1.708 1.389 3.097 3.097 3.097h23.742c1.708 0 3.097-1.389 3.097-3.097 0-1.544-1.137-2.828-2.617-3.060zM11.355 24.236h-2.065c-1.71 0-3.097-1.386-3.097-3.097h1.032c1.71 0 3.097 1.386 3.097 3.097 0-1.71 1.386-3.097 3.097-3.097h1.032c0 1.71-1.386 3.097-3.097 3.097zM16.516 26.3c-0.57 0-1.032-0.462-1.032-1.032s0.462-1.032 1.032-1.032 1.032 0.462 1.032 1.032-0.462 1.032-1.032 1.032zM16.516 16.494c-0.57 0-1.032-0.462-1.032-1.032s0.462-1.032 1.032-1.032 1.032 0.462 1.032 1.032-0.462 1.032-1.032 1.032zM21.677 22.171c-0.57 0-1.032-0.462-1.032-1.032s0.462-1.032 1.032-1.032 1.032 0.462 1.032 1.032-0.462 1.032-1.032 1.032z"></path>
<path fill="#000" d="M17.97 25.784c0.058-0.162 0.095-0.334 0.095-0.516 0-0.854-0.695-1.548-1.548-1.548s-1.548 0.695-1.548 1.548c0 0.182 0.037 0.354 0.095 0.516h-15.063v0.516c0 1.633 1.090 3.015 2.581 3.461v2.217h26.839v-2.217c1.491-0.446 2.581-1.828 2.581-3.461v-0.516zM16 25.268c0-0.285 0.232-0.516 0.516-0.516s0.516 0.231 0.516 0.516c0 0.285-0.232 0.516-0.516 0.516s-0.516-0.231-0.516-0.516zM28.387 28.881h-2.581v1.032h2.581v1.032h-24.774v-1.032h21.161v-1.032h-21.161c-1.246 0-2.289-0.888-2.528-2.065h29.832c-0.24 1.176-1.282 2.065-2.529 2.065z"></path>
<path fill="#000" d="M20.129 21.139c0 0.854 0.695 1.548 1.548 1.548s1.548-0.695 1.548-1.548-0.695-1.548-1.548-1.548-1.548 0.695-1.548 1.548zM21.677 20.623c0.284 0 0.516 0.231 0.516 0.516s-0.232 0.516-0.516 0.516-0.516-0.231-0.516-0.516c0-0.285 0.232-0.516 0.516-0.516z"></path>
<path fill="#000" d="M16.516 17.010c0.854 0 1.548-0.695 1.548-1.548s-0.695-1.548-1.548-1.548-1.548 0.695-1.548 1.548 0.695 1.548 1.548 1.548zM16.516 14.946c0.284 0 0.516 0.231 0.516 0.516s-0.232 0.516-0.516 0.516-0.516-0.231-0.516-0.516c0-0.285 0.232-0.516 0.516-0.516z"></path>
<path fill="#000" d="M29.419 15.978v-0.516h-1.548c-1.992 0-3.613 1.621-3.613 3.613v0.516h1.548c1.992 0 3.613-1.621 3.613-3.613zM27.871 16.494h0.464c-0.239 1.176-1.282 2.065-2.528 2.065h-0.464c0.239-1.176 1.282-2.065 2.528-2.065z"></path>
<path fill="#000" d="M9.29 17.010h1.548v-0.516c0-1.992-1.621-3.613-3.613-3.613h-1.548v0.516c0 1.992 1.621 3.613 3.613 3.613zM7.226 13.913c1.246 0 2.289 0.888 2.528 2.065h-0.464c-1.246 0-2.289-0.888-2.528-2.065z"></path>
<path fill="#000" d="M9.29 24.752h2.065c1.992 0 3.613-1.621 3.613-3.613v-0.516h-1.548c-1.315 0-2.464 0.709-3.097 1.762-0.632-1.053-1.782-1.762-3.097-1.762h-1.548v0.516c0 1.992 1.621 3.613 3.613 3.613zM13.419 21.655h0.464c-0.239 1.176-1.283 2.065-2.528 2.065h-0.464c0.239-1.176 1.282-2.065 2.528-2.065zM7.226 21.655c1.246 0 2.289 0.888 2.528 2.065h-0.464c-1.246 0-2.289-0.888-2.528-2.065z"></path>
<path fill="#000" d="M3.097 23.204h1.032v1.032h-1.032z"></path>
<path fill="#000" d="M17.032 19.075h1.032v1.032h-1.032z"></path>
<path fill="#000" d="M26.323 23.204h1.032v1.032h-1.032z"></path>
<path fill="#000" d="M15.484 10.3h1.032v1.032h-1.032z"></path>
<path fill="#000" d="M8.774 18.042h1.032v1.032h-1.032z"></path>
<path fill="#000" d="M16.151 7.052l0.73-0.73-0.516-0.516c-0.235-0.235-0.365-0.549-0.365-0.881v-0.089c0-0.333 0.13-0.646 0.365-0.881 0.43-0.43 0.667-1.002 0.667-1.611v-0.089c0-0.609-0.237-1.18-0.667-1.611l-0.516-0.516-0.73 0.73 0.516 0.516c0.235 0.235 0.365 0.549 0.365 0.881v0.089c0 0.333-0.13 0.646-0.365 0.881-0.43 0.43-0.667 1.002-0.667 1.611v0.089c0 0.609 0.237 1.18 0.667 1.611z"></path>
<path fill="#000" d="M12.538 8.601l0.73-0.73-0.516-0.516c-0.235-0.235-0.365-0.549-0.365-0.881v-0.089c0-0.333 0.13-0.646 0.365-0.881 0.43-0.43 0.667-1.002 0.667-1.611v-0.089c0-0.609-0.237-1.18-0.667-1.611l-0.516-0.516-0.73 0.73 0.516 0.516c0.235 0.235 0.365 0.549 0.365 0.881v0.089c0 0.333-0.13 0.646-0.365 0.881-0.43 0.43-0.667 1.002-0.667 1.611v0.089c0 0.609 0.237 1.18 0.667 1.611z"></path>
<path fill="#000" d="M19.764 8.601l0.73-0.73-0.516-0.516c-0.235-0.235-0.365-0.549-0.365-0.881v-0.089c0-0.333 0.13-0.646 0.365-0.881 0.43-0.43 0.667-1.002 0.667-1.611v-0.089c0-0.609-0.237-1.18-0.667-1.611l-0.516-0.516-0.73 0.73 0.516 0.516c0.235 0.235 0.365 0.549 0.365 0.881v0.089c0 0.333-0.13 0.646-0.365 0.881-0.43 0.43-0.667 1.002-0.667 1.611v0.089c0 0.609 0.237 1.18 0.667 1.611z"></path>
</svg>
