<!-- Generated by IcoMoon.io -->
<svg version="1.1" xmlns="http://www.w3.org/2000/svg" width="32" height="32" viewBox="0 0 32 32">
<title>rice</title>
<path fill="#f0bc5e" d="M9.806 2.581v0c-1.71 0-3.097 1.386-3.097 3.097v1.032c1.71 0 3.097-1.386 3.097-3.097v-1.032z"></path>
<path fill="#f0bc5e" d="M2.58 9.806h1.032c1.71 0 3.097-1.386 3.097-3.097v0h-1.032c-1.71 0-3.097 1.386-3.097 3.097v0z"></path>
<path fill="#f0bc5e" d="M11.355 4.645v0c-1.71 0-3.097 1.386-3.097 3.097v1.032c1.71 0 3.097-1.386 3.097-3.097v-1.032z"></path>
<path fill="#f0bc5e" d="M4.129 11.871h1.032c1.71 0 3.097-1.386 3.097-3.097v0h-1.032c-1.71 0-3.097 1.386-3.097 3.097v0z"></path>
<path fill="#f0bc5e" d="M12.903 6.71v0c-1.71 0-3.097 1.386-3.097 3.097v1.032c1.71 0 3.097-1.386 3.097-3.097v-1.032z"></path>
<path fill="#f0bc5e" d="M5.677 13.935h1.032c1.71 0 3.097-1.386 3.097-3.097v0h-1.032c-1.71 0-3.097 1.386-3.097 3.097v0z"></path>
<path fill="#f0bc5e" d="M12.903 12.387h-1.032c0-1.71 1.386-3.097 3.097-3.097h1.032c0 1.71-1.386 3.097-3.097 3.097z"></path>
<path fill="#f0bc5e" d="M8.258 16h-1.032c0-1.71 1.386-3.097 3.097-3.097h1.032c0 1.71-1.386 3.097-3.097 3.097z"></path>
<path fill="#f0bc5e" d="M9.806 18.581h-1.032c0-1.71 1.386-3.097 3.097-3.097h1.032c0 1.71-1.386 3.097-3.097 3.097z"></path>
<path fill="#f0bc5e" d="M13.935 14.968h-1.032c0-1.71 1.386-3.097 3.097-3.097h1.032c0 1.71-1.386 3.097-3.097 3.097z"></path>
<path fill="#f0bc5e" d="M14.968 17.548h-1.032c0-1.71 1.386-3.097 3.097-3.097h1.032c0 1.71-1.386 3.097-3.097 3.097z"></path>
<path fill="#f0bc5e" d="M22.193 2.581v0c1.71 0 3.097 1.386 3.097 3.097v1.032c-1.71 0-3.097-1.386-3.097-3.097v-1.032z"></path>
<path fill="#f0bc5e" d="M29.419 9.806h-1.032c-1.71 0-3.097-1.386-3.097-3.097v0h1.032c1.71 0 3.097 1.386 3.097 3.097v0z"></path>
<path fill="#f0bc5e" d="M20.645 4.645v0c1.71 0 3.097 1.386 3.097 3.097v1.032c-1.71 0-3.097-1.386-3.097-3.097v-1.032z"></path>
<path fill="#f0bc5e" d="M27.871 11.871h-1.032c-1.71 0-3.097-1.386-3.097-3.097v0h1.032c1.71 0 3.097 1.386 3.097 3.097v0z"></path>
<path fill="#f0bc5e" d="M19.097 6.71v0c1.71 0 3.097 1.386 3.097 3.097v1.032c-1.71 0-3.097-1.386-3.097-3.097v-1.032z"></path>
<path fill="#f0bc5e" d="M26.322 13.935h-1.032c-1.71 0-3.097-1.386-3.097-3.097v0h1.032c1.71 0 3.097 1.386 3.097 3.097v0z"></path>
<path fill="#f0bc5e" d="M19.097 12.387h1.032c0-1.71-1.386-3.097-3.097-3.097h-1.032c0 1.71 1.386 3.097 3.097 3.097z"></path>
<path fill="#f0bc5e" d="M23.742 16h1.032c0-1.71-1.386-3.097-3.097-3.097h-1.032c0 1.71 1.386 3.097 3.097 3.097z"></path>
<path fill="#f0bc5e" d="M22.193 18.581h1.032c0-1.71-1.386-3.097-3.097-3.097h-1.032c0 1.71 1.386 3.097 3.097 3.097z"></path>
<path fill="#000" d="M31.932 16.777c-0.123-0.216-0.382-0.314-0.618-0.232l-2.909 1.012c-2.989 1.040-5.658 2.683-7.932 4.885l0.718 0.742c2.165-2.097 4.706-3.661 7.553-4.652l0.286-0.099-1.185 1.002c-2.299 1.945-4.29 4.216-5.918 6.749-1.156 1.798-3.030 2.953-5.121 3.191 0.941-2.049 2.203-3.916 3.759-5.559l-0.749-0.71c-1.286 1.356-2.375 2.862-3.265 4.489 0.372-8.855 4.495-17.036 11.458-22.605l1.215-0.972-0.645-0.806-1.215 0.972c-0.33 0.264-0.646 0.541-0.964 0.816 0.288-1.125 0.437-2.279 0.437-3.45h-1.032c0 1.646-0.31 3.256-0.921 4.785l-0.039 0.098c-4.631 4.581-7.696 10.419-8.846 16.782-1.15-6.362-4.215-12.201-8.846-16.782l-0.039-0.098c-0.611-1.529-0.921-3.139-0.921-4.785h-1.032c0 1.172 0.149 2.326 0.437 3.449-0.317-0.275-0.633-0.552-0.964-0.816l-1.215-0.972-0.645 0.806 1.216 0.972c6.961 5.568 11.084 13.747 11.458 22.6-2.558-4.669-6.773-8.265-11.852-10.032l-2.909-1.012c-0.236-0.083-0.494 0.015-0.618 0.232s-0.075 0.489 0.115 0.65l3.304 2.796c2.22 1.879 4.144 4.072 5.717 6.519 1.493 2.323 4.033 3.71 6.795 3.71s5.303-1.387 6.796-3.71c1.573-2.447 3.496-4.641 5.717-6.519l3.304-2.796c0.19-0.161 0.238-0.434 0.115-0.65zM10.072 26.183c-1.628-2.533-3.62-4.804-5.918-6.749l-1.185-1.002 0.286 0.099c5.296 1.842 9.605 5.77 11.937 10.842-2.090-0.238-3.964-1.393-5.12-3.191z"></path>
</svg>
