<!-- Generated by IcoMoon.io -->
<svg version="1.1" xmlns="http://www.w3.org/2000/svg" width="32" height="32" viewBox="0 0 32 32">
<title>roast-chicken</title>
<path fill="#333" d="M26.839 6.407v-1.762c0-1.143 0.405-1.548 1.548-1.548 0.942 0 1.028 0.793 1.032 1.032v0.516h0.516c0.249 0 1.032 0.311 1.032 1.032 0 1.143-0.405 1.548-1.548 1.548h-1.246l-2.732 2.732 0.73 0.73 2.429-2.429h0.819c1.712 0 2.581-0.869 2.581-2.581 0-1.115-0.872-1.78-1.596-1.991-0.163-0.766-0.755-1.622-2.017-1.622-1.712 0-2.581 0.869-2.581 2.581v1.335l-2.429 2.429 0.73 0.73 2.732-2.732z"></path>
<path fill="#333" d="M29.134 21.732c-0.623-0.312-0.819-0.954-1.138-2.156-0.451-1.701-1.068-4.029-3.867-6.54l-0.69 0.768c2.57 2.306 3.118 4.375 3.559 6.037 0.325 1.224 0.605 2.281 1.673 2.815 0.535 0.268 1.779 1.060 1.779 2.635 0 1.275-1.29 2.758-2.706 3.112-2.003 0.502-5.119 0.502-8.133 0.502h-11.355c-0.018 0-1.849-0.009-3.666-0.796-2.362-1.023-3.56-2.839-3.56-5.397 0-6.268 9.057-11.355 14.968-11.355 1.465 0 3.468 0.496 3.488 0.501l0.25-1.001c-0.087-0.022-2.144-0.532-3.738-0.532-9.129 0-16 7.515-16 12.387 0 2.965 1.446 5.159 4.182 6.345 2.010 0.871 3.993 0.881 4.076 0.881h11.355c3.076 0 6.257 0 8.383-0.532 1.858-0.464 3.488-2.387 3.488-4.114 0-1.493-0.878-2.823-2.35-3.559z"></path>
<path fill="#333" d="M28.903 24.774h-1.032c0 0.759-0.424 1.318-1.195 1.575-1.354 0.452-3.467 0.489-5.514 0.489v1.032c2.132 0 4.34-0.042 5.841-0.542 1.191-0.396 1.901-1.351 1.901-2.554z"></path>
<path fill="#f9ba48" d="M16 24.258c-3.415 0-6.194-2.778-6.194-6.194s2.778-6.194 6.194-6.194c0.033 0 3.459-0.060 6.861-3.462l0.11-0.11 0.153-0.031c0.057-0.011 1.412-0.271 2.355 0.502 0.559 0.458 0.843 1.155 0.843 2.069v0.194l-0.127 0.146c-3.251 3.715-3.929 6.586-4.002 6.936-0.028 3.393-2.795 6.143-6.194 6.143z"></path>
<path fill="#333" d="M18.065 26.839h1.548v1.032h-1.548v-1.032z"></path>
<path fill="#333" d="M12.903 18.065c0-1.708 1.389-3.097 3.097-3.097v-1.032c-2.277 0-4.129 1.852-4.129 4.129h1.032z"></path>
</svg>
