<!-- Generated by IcoMoon.io -->
<svg version="1.1" xmlns="http://www.w3.org/2000/svg" width="32" height="32" viewBox="0 0 32 32">
<title>salad</title>
<path fill="#ffa64d" d="M3.355 21.677v2.581c0 4.269 3.473 7.742 7.742 7.742h8.258c4.269 0 7.742-3.473 7.742-7.742v-2.581h-23.742z"></path>
<path fill="#333" d="M19.355 28.903h-2.065v1.032h2.065c3.13 0 5.677-2.547 5.677-5.677h-1.032c0 2.562-2.084 4.645-4.645 4.645z"></path>
<path fill="#333" d="M15.226 28.903h1.032v1.032h-1.032v-1.032z"></path>
<path fill="#333" d="M11.462 15.849l-0.724-0.736c-0.017 0.015-0.406 0.371-1.19 0.371s-1.173-0.356-1.19-0.371l-0.724 0.736c0.068 0.069 0.702 0.667 1.913 0.667s1.845-0.599 1.913-0.667z"></path>
<path fill="#333" d="M16.617 15.113l-0.724 0.736c0.068 0.069 0.702 0.667 1.913 0.667s1.845-0.599 1.913-0.667l-0.724-0.736c-0.017 0.015-0.406 0.371-1.19 0.371s-1.173-0.356-1.19-0.371z"></path>
<path fill="#333" d="M28.742 0c-0.879 0-1.702 0.472-2.144 1.232l-5.12 8.776c-0.342-0.13-0.713-0.202-1.1-0.202h-0.065c-0.757 0-1.469 0.279-2.026 0.783l-1.171-1.171 4.774-4.774-2.278-2.278-2.839 2.839v-5.206h-3.613v4.948l-2.581-2.581-2.278 2.278 2.436 2.436c-0.16 0.069-0.313 0.149-0.463 0.236-0.651-0.155-1.348-0.101-1.961 0.167-0.763-1.126-2.028-1.806-3.411-1.806-2.277 0-4.129 1.852-4.129 4.129 0 0.985 0.356 1.934 0.991 2.679-0.635 0.666-0.991 1.545-0.991 2.483 0 1.192 0.583 2.248 1.477 2.907-0.575 0.366-0.961 1.006-0.961 1.738 0 1.139 0.926 2.065 2.065 2.065h20.645v-1.032h-20.645c-0.569 0-1.032-0.463-1.032-1.032s0.463-1.032 1.032-1.032h23.742c0.569 0 1.032 0.463 1.032 1.032s-0.463 1.032-1.032 1.032h-2.065v1.032h2.065c1.139 0 2.065-0.926 2.065-2.065s-0.926-2.065-2.065-2.065h-0.795c0.492-0.549 0.795-1.271 0.795-2.065 0-1.014-0.492-1.913-1.248-2.478l5.069-9.217c0.201-0.365 0.308-0.779 0.308-1.197v-0.108c0-1.369-1.114-2.483-2.484-2.483zM21.378 17.548h-7.143c0.252-1.748 1.755-3.097 3.572-3.097s3.32 1.349 3.572 3.097zM12.531 7.742c0.935 0 1.813 0.364 2.474 1.025l2.64 2.64c-0.232 0.433-0.355 0.919-0.354 1.423v0.62c-1.577 0.175-2.916 1.144-3.613 2.496v0-2.671l2.744-0.915-0.327-0.979-2.417 0.806v-2.897h-1.032v2.366l-1.7-1.699-0.73 0.73 2.429 2.43v1.495c-0.823-0.739-1.907-1.193-3.097-1.193-0.174 0-0.346 0.011-0.516 0.030v-2.21c0-1.929 1.57-3.498 3.498-3.498zM9.548 14.452c1.816 0 3.32 1.349 3.572 3.097h-7.143c0.252-1.748 1.755-3.097 3.572-3.097zM19.613 3.827l0.819 0.819-3.657 3.657v-1.637l2.839-2.839zM15.742 1.032v7.012l-0.008-0.008c-0.446-0.446-0.97-0.785-1.541-1.010v-5.994h1.548zM9.762 4.645l0.819-0.819 2.581 2.581v0.351c-0.207-0.029-0.418-0.049-0.631-0.049-0.222 0-0.438 0.022-0.652 0.053l-2.117-2.117zM1.806 14.968c0-0.808 0.371-1.555 1.018-2.049l0.498-0.38-0.469-0.416c-0.665-0.589-1.047-1.434-1.047-2.316 0-1.708 1.389-3.097 3.097-3.097 1.17 0 2.227 0.651 2.76 1.698l0.263 0.517 0.483-0.321c0.204-0.135 0.429-0.228 0.664-0.283-0.668 0.789-1.073 1.808-1.073 2.92v0.933l-3.764-3.764-0.73 0.73 4.055 4.055-3.853 1.285 0.327 0.979 2.349-0.783c-0.79 0.738-1.324 1.744-1.449 2.874h-0.547c-1.423 0-2.581-1.158-2.581-2.581zM24 17.548h-1.579c-0.061-0.551-0.222-1.072-0.46-1.548h3.071v-1.032h-3.773c-0.112-0.125-0.231-0.244-0.356-0.356v-2.741h-1.032v2.039c-0.476-0.237-0.997-0.398-1.548-0.46v-0.62c0-0.532 0.206-1.032 0.583-1.409s0.876-0.583 1.408-0.583h0.065c1.143 0.001 2.074 0.926 2.074 2.065v0.516h1.548c1.139 0 2.065 0.926 2.065 2.065s-0.926 2.065-2.065 2.065zM30.194 2.591c0 0.244-0.062 0.485-0.18 0.699l-5.082 9.24c-0.294-0.093-0.607-0.143-0.932-0.143l-0.559-0.001c-0.125-0.742-0.518-1.393-1.073-1.856l5.122-8.778c0.259-0.444 0.738-0.72 1.252-0.72 0.8 0 1.451 0.651 1.451 1.451v0.108z"></path>
</svg>
