<!-- Generated by IcoMoon.io -->
<svg version="1.1" xmlns="http://www.w3.org/2000/svg" width="32" height="32" viewBox="0 0 32 32">
<title>salt</title>
<path fill="#ffa64d" d="M27.743 31.484c2.066 0 3.74-1.675 3.74-3.74v-0.123c0-0.234-0.022-0.467-0.066-0.696l-0.7-3.698h-1.815l-1.548-2.065h-2.065l-1.032 1.032h-1.548l-1.872 1.404-0.645 3.46c-0.042 0.226-0.063 0.456-0.063 0.686 0 2.066 1.675 3.74 3.74 3.74h3.874z"></path>
<path fill="#ffa64d" d="M0.516 19.613h14.452v10.323h-14.452v-10.323z"></path>
<path fill="#333" d="M30.556 19.602c0.804-0.055 1.444-0.719 1.444-1.538 0-0.854-0.695-1.548-1.548-1.548v-0.516c0-2.562-2.084-4.645-4.645-4.645s-4.645 2.084-4.645 4.645v0.516c-0.854 0-1.548 0.695-1.548 1.548 0 0.819 0.64 1.483 1.445 1.538l-0.691 3.703-0.032 0.023 0.022 0.029-0.672 3.605c-0.048 0.257-0.072 0.519-0.072 0.781 0 2.347 1.909 4.257 4.257 4.257h3.874c2.347 0 4.257-1.909 4.257-4.257v-0.123c0-0.267-0.025-0.534-0.075-0.793l-1.369-7.225zM22.194 16c0-1.992 1.621-3.613 3.613-3.613s3.613 1.621 3.613 3.613v0.516h-7.226v-0.516zM22.106 19.613h5.249v-1.032h-6.194c-0.285 0-0.516-0.231-0.516-0.516s0.231-0.516 0.516-0.516h9.29c0.285 0 0.516 0.231 0.516 0.516s-0.231 0.516-0.516 0.516h-2.065v1.032h1.121l0.587 3.097h-0.934l-1.548-2.065h-2.536l-1.032 1.032h-1.507l-0.949 0.712 0.518-2.777zM30.968 27.743c0 1.778-1.447 3.224-3.224 3.224h-3.874c-1.778 0-3.224-1.447-3.224-3.224 0-0.198 0.019-0.397 0.055-0.591l0.609-3.263 1.573-1.179h1.59l1.032-1.032h1.593l1.548 2.065h1.645l0.621 3.278c0.038 0.196 0.057 0.397 0.057 0.6v0.123z"></path>
<path fill="#333" d="M23.226 14.452h1.032v1.032h-1.032v-1.032z"></path>
<path fill="#333" d="M25.29 14.452h1.032v1.032h-1.032v-1.032z"></path>
<path fill="#333" d="M27.355 14.452h1.032v1.032h-1.032v-1.032z"></path>
<path fill="#333" d="M11.355 9.806v-1.032h0.516c0.569 0 1.032-0.463 1.032-1.032v-2.065c0-0.569-0.463-1.032-1.032-1.032h-1.032v-3.097c0-0.854-0.695-1.548-1.548-1.548h-3.097c-0.854 0-1.548 0.695-1.548 1.548v3.097h-1.032c-0.569 0-1.032 0.463-1.032 1.032v2.065c0 0.569 0.463 1.032 1.032 1.032h0.516v1.032c0 2.525-0.983 4.899-2.769 6.684-0.878 0.877-1.361 2.043-1.361 3.284v9.645c0 1.423 1.158 2.581 2.581 2.581h10.323c1.423 0 2.581-1.158 2.581-2.581v-9.645c0-1.241-0.483-2.407-1.361-3.284-1.785-1.785-2.769-4.159-2.769-6.684zM5.677 1.548c0-0.285 0.231-0.516 0.516-0.516h3.097c0.285 0 0.516 0.231 0.516 0.516v3.097h-4.129v-3.097zM3.613 5.677h8.258l0.001 2.065h-8.259v-2.065zM14.452 29.419c0 0.854-0.695 1.548-1.548 1.548h-10.323c-0.854 0-1.548-0.695-1.548-1.548v-9.645c0-0.965 0.375-1.872 1.058-2.554 1.98-1.98 3.071-4.613 3.071-7.414v-1.032h5.161v1.032c0 2.801 1.091 5.433 3.071 7.414 0.682 0.682 1.058 1.59 1.058 2.554v9.645z"></path>
<path fill="#333" d="M6.71 2.581h2.065v1.032h-2.065v-1.032z"></path>
<path fill="#333" d="M7.742 20.645c-2.277 0-4.129 1.852-4.129 4.129s1.852 4.129 4.129 4.129 4.129-1.852 4.129-4.129-1.852-4.129-4.129-4.129zM7.742 27.871c-1.708 0-3.097-1.389-3.097-3.097s1.389-3.097 3.097-3.097 3.097 1.389 3.097 3.097-1.389 3.097-3.097 3.097z"></path>
<path fill="#333" d="M22.194 26.323h1.032v1.032h-1.032v-1.032z"></path>
<path fill="#333" d="M25.806 24.258h1.032v1.032h-1.032v-1.032z"></path>
<path fill="#333" d="M27.355 27.871h1.032v1.032h-1.032v-1.032z"></path>
</svg>
