<!-- Generated by IcoMoon.io -->
<svg version="1.1" xmlns="http://www.w3.org/2000/svg" width="32" height="32" viewBox="0 0 32 32">
<title>salt-and-pepper</title>
<path fill="#ffa64d" d="M18.065 24.257l3.097-1.548h4.645l1.032 1.032h2.065l1.548 1.032v4.645h-12.387z"></path>
<path fill="#ffa64d" d="M1.548 24.773l2.065-2.065h1.032l1.548-1.548h2.581l2.065 2.581h1.548l1.548 1.548v4.129h-12.387z"></path>
<path fill="#333" d="M4.129 14.451h1.032v1.032h-1.032v-1.032z"></path>
<path fill="#333" d="M6.194 14.451h1.032v1.032h-1.032v-1.032z"></path>
<path fill="#333" d="M8.258 14.451h1.032v1.032h-1.032v-1.032z"></path>
<path fill="#333" d="M10.323 14.451h1.032v1.032h-1.032v-1.032z"></path>
<path fill="#333" d="M5.161 12.386h1.032v1.032h-1.032v-1.032z"></path>
<path fill="#333" d="M7.226 12.386h1.032v1.032h-1.032v-1.032z"></path>
<path fill="#333" d="M9.29 12.386h1.032v1.032h-1.032v-1.032z"></path>
<path fill="#333" d="M20.645 14.451h1.032v1.032h-1.032v-1.032z"></path>
<path fill="#333" d="M22.71 14.451h1.032v1.032h-1.032v-1.032z"></path>
<path fill="#333" d="M24.774 14.451h1.032v1.032h-1.032v-1.032z"></path>
<path fill="#333" d="M26.839 14.451h1.032v1.032h-1.032v-1.032z"></path>
<path fill="#333" d="M21.677 12.386h1.032v1.032h-1.032v-1.032z"></path>
<path fill="#333" d="M23.742 12.386h1.032v1.032h-1.032v-1.032z"></path>
<path fill="#333" d="M25.806 12.386h1.032v1.032h-1.032v-1.032z"></path>
<path fill="#333" d="M32 19.612v-1.032h-1.032v-1.548c0-3.7-3.010-6.71-6.71-6.71s-6.71 3.010-6.71 6.71v1.548h-1.032v-8.093c0-1.107-0.675-2.079-1.678-2.421-1.732-0.588-2.733-2.333-2.38-4.152 0.274-1.409 1.404-2.538 2.812-2.812 1.087-0.21 2.19 0.063 3.026 0.753s1.317 1.706 1.317 2.789h1.032c0-1.392-0.617-2.699-1.692-3.586s-2.49-1.239-3.88-0.969c-1.817 0.353-3.276 1.811-3.628 3.628-0.453 2.331 0.834 4.57 3.062 5.326 0.584 0.199 0.977 0.778 0.977 1.443v8.093h-1.032v-1.548c0-3.7-3.010-6.71-6.71-6.71s-6.71 3.010-6.71 6.71v1.548h-1.032v1.032h1.032v9.29h-1.032v1.548c0 0.854 0.695 1.548 1.548 1.548h28.903c0.854 0 1.548-0.695 1.548-1.548v-1.548h-1.032v-9.29h1.032zM18.581 17.547h9.29v-1.032h-9.264c0.262-2.889 2.695-5.161 5.651-5.161s5.389 2.272 5.651 5.161h-1.006v1.032h1.032v1.032h-11.355v-1.032zM17.548 19.612v9.29h-1.032v-9.29h1.032zM15.484 19.612v9.29h-1.032v-9.29h1.032zM7.742 11.354c2.956 0 5.389 2.272 5.651 5.161h-11.302c0.262-2.889 2.695-5.161 5.651-5.161zM2.065 17.547h11.355v1.032h-11.355v-1.032zM13.419 19.612v4.431l-0.819-0.819h-1.514l-2.065-2.581h-3.043l-1.548 1.548h-1.032l-1.334 1.335v-3.915h11.355zM2.065 24.987l1.762-1.762h1.121l0.881 0.881 0.73-0.73-0.925-0.925 0.774-0.774h2.119l2.065 2.581h1.582l1.246 1.246v3.399h-11.355v-3.915zM30.968 30.451c0 0.285-0.231 0.516-0.516 0.516h-28.903c-0.285 0-0.516-0.231-0.516-0.516v-0.516h29.935v0.516zM18.581 28.902v-4.326l2.702-1.351h4.31l1.032 1.032h2.122l1.189 0.792v3.853h-11.355zM29.935 23.809l-0.876-0.584h-2.007l-1.032-1.032h-4.981l-2.459 1.229v-3.81h11.355v4.197z"></path>
<path fill="#333" d="M3.613 25.806h1.032v1.032h-1.032v-1.032z"></path>
<path fill="#333" d="M7.742 24.257h1.032v1.032h-1.032v-1.032z"></path>
<path fill="#333" d="M9.806 26.322h1.032v1.032h-1.032v-1.032z"></path>
<path fill="#333" d="M20.645 24.773h1.032v1.032h-1.032v-1.032z"></path>
<path fill="#333" d="M24.258 25.806h1.032v1.032h-1.032v-1.032z"></path>
<path fill="#333" d="M27.871 25.289h1.032v1.032h-1.032v-1.032z"></path>
</svg>
