<!-- Generated by IcoMoon.io -->
<svg version="1.1" xmlns="http://www.w3.org/2000/svg" width="32" height="32" viewBox="0 0 32 32">
<title>sandwich</title>
<path fill="#000" d="M20.129 22.781h2.065v1.032h-2.065v-1.032z"></path>
<path fill="#000" d="M18.135 0.961l-18.135 11.734v14.216h17.032v-1.032h-16v-2.065h17.032v-1.032h-17.032v-2.065h1.351l0.516-1.032h0.467c0.835 1.244 2.253 2.065 3.86 2.065 0.763 0 1.482-0.188 2.119-0.516h1.797l0.516 0.516h1.762v-2.065h0.819l1.032 1.032h1.565l0.516-1.032h0.197v-1.032h-0.835l-0.516 1.032h-0.5l-1.032-1.032h-2.278v2.065h-0.302l-0.516-0.516h-0.89c0.63-0.702 1.052-1.594 1.162-2.581h5.708v-1.032h-16.516v-1.032h14.599v-1.032h-14.599v-1.032h27.871v1.032h-12.324v1.032h12.324v1.032h-3.613v1.032h3.613v1.548h-0.835l-0.516 1.032h-0.341l-0.516-1.548h-1.404v1.032h0.66l0.516 1.548h1.723l0.516-1.032h0.197v2.581h-3.613v1.032h3.613v2.065h-3.613v1.032h4.645v-14.149l-11.801-11.801zM23.012 7.298h-0.302v1.032h1.032v-0.302l4.431 4.431h-25.91l12.704-8.22v0.995h1.032v-1.032h-0.974l2.969-1.921 5.017 5.018zM10.115 19.263l-0.7-0.7-0.73 0.73 0.7 0.7c-0.472 0.354-1.033 0.595-1.643 0.682v-0.991h-1.032v0.991c-0.611-0.088-1.171-0.328-1.643-0.682l0.7-0.7-0.73-0.73-0.7 0.7c-0.354-0.472-0.595-1.033-0.682-1.643h7.143c-0.088 0.611-0.328 1.171-0.682 1.643zM2.611 17.62c0.040 0.359 0.124 0.703 0.241 1.032h-0.59l-0.516 1.032h-0.713v-2.065h1.579z"></path>
<path fill="#000" d="M18.065 4.201h1.032v1.032h-1.032v-1.032z"></path>
<path fill="#000" d="M10.323 7.298h1.032v1.032h-1.032v-1.032z"></path>
<path fill="#000" d="M13.419 7.298h1.032v1.032h-1.032v-1.032z"></path>
<path fill="#000" d="M16.516 7.298h1.032v1.032h-1.032v-1.032z"></path>
<path fill="#000" d="M19.613 7.298h1.032v1.032h-1.032v-1.032z"></path>
<path fill="#000" d="M5.677 10.394h1.032v1.032h-1.032v-1.032z"></path>
<path fill="#000" d="M8.774 10.394h1.032v1.032h-1.032v-1.032z"></path>
<path fill="#000" d="M11.871 10.394h1.032v1.032h-1.032v-1.032z"></path>
<path fill="#000" d="M14.968 10.394h1.032v1.032h-1.032v-1.032z"></path>
<path fill="#000" d="M18.065 10.394h1.032v1.032h-1.032v-1.032z"></path>
<path fill="#000" d="M21.161 10.394h1.032v1.032h-1.032v-1.032z"></path>
<path fill="#000" d="M24.258 10.394h1.032v1.032h-1.032v-1.032z"></path>
<path fill="#f0bc5e" d="M30.452 27.943h-4.645c-0.285 0-0.516-0.231-0.516-0.516v-11.871h-7.742v7.742c0 0.854 0.695 1.548 1.548 1.548s1.548-0.695 1.548-1.548v-5.161c0-0.285 0.231-0.516 0.516-0.516s0.516 0.231 0.516 0.516v7.226c0 0.285-0.231 0.516-0.516 0.516h-4.129c-0.854 0-1.548 0.695-1.548 1.548s0.695 1.548 1.548 1.548h3.097c0.285 0 0.516 0.231 0.516 0.516 0 0.854 0.695 1.548 1.548 1.548h8.258c0.854 0 1.548-0.695 1.548-1.548s-0.695-1.548-1.548-1.548z"></path>
</svg>
