<!-- Generated by IcoMoon.io -->
<svg version="1.1" xmlns="http://www.w3.org/2000/svg" width="32" height="32" viewBox="0 0 32 32">
<title>sausage-2</title>
<path fill="#ffa64d" d="M26.839 22.194h-5.161l-4.268-12.45c-0.249-0.727-0.377-1.491-0.377-2.26v0c0-3.848 3.119-6.968 6.968-6.968h0.516c3.848 0 6.968 3.119 6.968 6.968v0c0 0.982-0.166 1.957-0.492 2.884l-4.153 11.826z"></path>
<path fill="#333" d="M20.129 3.097h1.032v1.032h-1.032v-1.032z"></path>
<path fill="#333" d="M18.581 5.677h1.032v1.032h-1.032v-1.032z"></path>
<path fill="#333" d="M18.581 8.774h1.032v1.032h-1.032v-1.032z"></path>
<path fill="#333" d="M20.645 7.226h1.032v1.032h-1.032v-1.032z"></path>
<path fill="#333" d="M21.677 5.161h1.032v1.032h-1.032v-1.032z"></path>
<path fill="#333" d="M20.129 10.839h1.032v1.032h-1.032v-1.032z"></path>
<path fill="#333" d="M13.571 6.256c0.604-0.604 0.604-1.586 0-2.189l-3.595-3.595c-0.3-0.3-0.715-0.472-1.139-0.472-0.888 0-1.611 0.723-1.611 1.611v2.002h-0.002c-1.128 0-2.21 0.479-2.969 1.313-2.744 3.019-4.255 6.927-4.255 11.007v0.134c0 4.079 1.511 7.988 4.276 11.030 0.745 0.82 1.809 1.29 2.917 1.29h0.033v2.002c0 0.888 0.723 1.611 1.611 1.611 0.424 0 0.839-0.172 1.139-0.472l3.595-3.595c0.604-0.604 0.604-1.586 0-2.189-0.292-0.293-0.681-0.454-1.095-0.454h-1.214c0.060-0.273 0.093-0.555 0.093-0.845 0-0.537-0.107-1.060-0.319-1.553l-1.35-3.15c-0.894-2.089-0.948-4.41-0.15-6.538l1.564-4.171c0.169-0.452 0.255-0.926 0.255-1.409 0-0.315-0.040-0.62-0.109-0.915h1.23c0.413 0 0.803-0.161 1.095-0.454zM12.476 26.323c0.136 0 0.269 0.055 0.365 0.151 0.201 0.201 0.201 0.529 0 0.73l-3.595 3.595c-0.108 0.108-0.257 0.169-0.409 0.169-0.319 0-0.579-0.26-0.579-0.579v-2.095c0.43-0.094 0.833-0.261 1.198-0.484l0.404 0.808 0.923-0.462-0.506-1.012c0.233-0.247 0.437-0.521 0.6-0.822l1.597 0.001zM10.133 8.67l-0.526 1.405c-1.321-0.842-2.877-1.301-4.445-1.301v1.032c1.446 0 2.877 0.45 4.072 1.263l-0.664 1.772c-0.361 0.964-0.558 1.964-0.608 2.968-1.283-0.552-2.68-0.842-4.075-0.842h-0.273v1.032h0.273c1.411 0 2.823 0.33 4.089 0.953 0.062 0.908 0.252 1.806 0.569 2.677-1.416 0.085-2.736 0.671-3.747 1.682l0.73 0.73c0.902-0.901 2.099-1.397 3.373-1.397h0.051l1.138 2.654c0.156 0.364 0.235 0.749 0.235 1.145 0 1.605-1.305 2.91-2.91 2.91h-0.22c-0.818 0-1.603-0.347-2.174-0.976-2.571-2.827-3.987-6.49-3.987-10.312v-0.134c0-3.822 1.416-7.485 3.987-10.312 0.564-0.62 1.367-0.975 2.204-0.975h0.119c1.643 0 2.98 1.337 2.98 2.979 0 0.358-0.064 0.71-0.19 1.046zM10.395 5.027l0.417-1.251-0.979-0.327-0.277 0.832c-0.39-0.259-0.829-0.449-1.298-0.559v-2.111c0-0.319 0.26-0.579 0.579-0.579 0.152 0 0.301 0.061 0.409 0.169l3.595 3.595c0.201 0.201 0.201 0.529 0 0.73-0.097 0.097-0.229 0.151-0.365 0.151h-1.628c-0.13-0.232-0.282-0.45-0.453-0.65z"></path>
<path fill="#333" d="M31.479 10.539c0.346-0.984 0.521-2.012 0.521-3.055 0-4.126-3.357-7.484-7.484-7.484h-0.516c-4.126 0-7.484 3.357-7.484 7.484 0 0.828 0.136 1.645 0.404 2.427l4.241 12.368v3.751l-1.21 0.726c-0.845 0.507-1.37 1.434-1.37 2.42 0 1.557 1.267 2.823 2.823 2.823h0.35c0.754 0 1.463-0.293 1.996-0.827l0.508-0.508 0.508 0.508c0.533 0.534 1.242 0.827 1.996 0.827h0.35c1.557 0 2.823-1.267 2.823-2.823 0-0.986-0.525-1.913-1.37-2.421l-1.211-0.726v-3.748l4.124-11.743zM17.548 7.484c0-3.558 2.894-6.452 6.452-6.452h0.516c3.558 0 6.452 2.894 6.452 6.452 0 0.926-0.156 1.838-0.462 2.713l-4.033 11.481h-4.427l-4.149-12.101c-0.232-0.675-0.349-1.379-0.349-2.093zM28.034 27.642c0.536 0.322 0.87 0.909 0.87 1.535 0 0.987-0.804 1.791-1.791 1.791h-0.35c-0.478 0-0.928-0.186-1.266-0.524l-1.238-1.238-1.238 1.238c-0.339 0.339-0.788 0.524-1.267 0.524h-0.35c-0.987 0-1.791-0.804-1.791-1.791 0-0.626 0.333-1.214 0.87-1.535l1.711-1.027v-3.905h4.129v3.905l1.711 1.027z"></path>
</svg>
