<!-- Generated by IcoMoon.io -->
<svg version="1.1" xmlns="http://www.w3.org/2000/svg" width="32" height="32" viewBox="0 0 32 32">
<title>sausage</title>
<path fill="#333" d="M29.419 18.581h-1.548v-1.032h1.548c0.854 0 1.548-0.695 1.548-1.548s-0.695-1.548-1.548-1.548h-1.548v-1.032h1.548c1.423 0 2.581 1.158 2.581 2.581s-1.158 2.581-2.581 2.581z"></path>
<path fill="#333" d="M4.13 18.581h-1.549c-1.423 0-2.581-1.158-2.581-2.581s1.158-2.581 2.581-2.581h1.549v1.032h-1.549c-0.854 0-1.548 0.695-1.548 1.548s0.695 1.548 1.548 1.548h1.549c0 0 0 1.032 0 1.032z"></path>
<path fill="#f9ba48" d="M16 25.29c-2.17 0-4.031-1.346-4.793-3.247-0.568 0.72-1.447 1.182-2.433 1.182-2.846 0-5.161-2.315-5.161-5.161v-4.129c0-2.846 2.315-5.161 5.161-5.161 0.985 0 1.865 0.462 2.433 1.182 0.762-1.901 2.623-3.247 4.793-3.247s4.031 1.346 4.793 3.247c0.568-0.72 1.447-1.182 2.433-1.182 2.846 0 5.161 2.315 5.161 5.161v4.129c0 2.846-2.315 5.161-5.161 5.161-0.985 0-1.865-0.462-2.433-1.182-0.762 1.901-2.623 3.247-4.793 3.247z"></path>
<path fill="#333" d="M20.129 12.903h1.032v4.645h-1.032v-4.645z"></path>
<path fill="#333" d="M10.839 17.032h1.032v3.097h-1.032v-3.097z"></path>
<path fill="#333" d="M6.71 16.516h-1.032v-2.294c0-1.708 1.389-3.097 3.097-3.097v1.032c-1.139 0-2.065 0.926-2.065 2.065v2.294z"></path>
<path fill="#333" d="M5.677 17.548h1.032v1.032h-1.032v-1.032z"></path>
<path fill="#333" d="M25.29 15.484h1.032v3.097h-1.032v-3.097z"></path>
<path fill="#333" d="M25.29 13.419h1.032v1.032h-1.032v-1.032z"></path>
</svg>
