<!-- Generated by IcoMoon.io -->
<svg version="1.1" xmlns="http://www.w3.org/2000/svg" width="32" height="32" viewBox="0 0 32 32">
<title>sausage-1</title>
<path fill="#f9ba48" d="M8.258 30.71c-2.581 0-4.129-2.065-4.129-4.129 0-2.581 2.065-3.613 4.129-3.613 8.024 0 15.484-5.395 15.484-13.419 0-2.581 1.548-4.129 4.129-4.129 3.097 0 3.596 2.51 3.603 4.629 0.010 3.113-0.7 5.623-2.054 8.275-1.307 2.558-2.979 4.822-5.161 6.71-2.182 1.886-4.499 3.22-7.226 4.129-3.097 1.032-5.677 1.548-8.774 1.548z"></path>
<path fill="#f9ba48" d="M1.548 29.677c1.032 0 2.581-1.529 2.581-3.097s-1.032-3.097-2.581-3.097c-0.491 0-1.032 1.032-1.032 1.548 0 0.816 2.581 0.732 2.581 1.548s-2.581 0.732-2.581 1.548c0 0.516 0.541 1.548 1.032 1.548z"></path>
<path fill="#f9ba48" d="M24.258 2.839c0 1.032 2.065 2.581 3.613 2.581s3.613-1.548 3.613-2.581c0-0.695-1.548-1.548-2.065-1.548-0.816 0-0.616 3.097-1.548 3.097s-0.732-3.097-1.548-3.097c-0.516 0-2.065 0.854-2.065 1.548z"></path>
<path fill="#333" d="M29.908 5.349c1.151-0.626 2.092-1.643 2.092-2.51 0-1.083-1.858-2.065-2.581-2.065-0.81 0-1.018 0.955-1.218 1.878-0.073 0.334-0.198 0.914-0.33 1.151-0.132-0.237-0.258-0.818-0.33-1.151-0.2-0.923-0.408-1.878-1.218-1.878-0.723 0-2.581 0.981-2.581 2.065 0 0.846 0.897 1.838 2.010 2.467-1.595 0.676-2.526 2.174-2.526 4.243 0 5.297-3.907 10.742-10.651 12.395-0.022-0.001-0.043-0.004-0.065-0.004v0.020c-1.314 0.316-2.732 0.491-4.252 0.491-1.571 0-3.332 0.585-4.162 2.097-0.525-0.909-1.405-1.581-2.548-1.581-0.879 0-1.548 1.376-1.548 2.065 0 0.798 0.885 1.049 1.666 1.271 0.246 0.070 0.622 0.177 0.822 0.278-0.2 0.101-0.575 0.207-0.822 0.278-0.78 0.221-1.665 0.473-1.665 1.271 0 0.689 0.669 2.065 1.548 2.065 0.835 0 1.847-0.711 2.482-1.694 0.676 1.52 2.151 2.726 4.228 2.726 2.993 0 5.581-0.456 8.937-1.575 2.785-0.928 5.137-2.271 7.4-4.228 2.14-1.852 3.869-4.097 5.283-6.865 1.47-2.877 2.12-5.502 2.111-8.511-0.008-2.417-0.709-3.986-2.082-4.698zM24.774 2.841c0.036-0.294 1.022-0.93 1.461-1.022 0.111 0.197 0.226 0.724 0.296 1.053 0.207 0.952 0.442 2.032 1.339 2.032s1.132-1.080 1.339-2.033c0.071-0.329 0.185-0.856 0.296-1.053 0.44 0.093 1.427 0.73 1.461 1.021 0 0.665-1.735 2.065-3.097 2.065-1.361 0-3.093-1.397-3.097-2.062zM1.573 29.161c-0.179-0.089-0.503-0.649-0.538-0.977 0.147-0.116 0.62-0.25 0.913-0.333 0.78-0.221 1.665-0.472 1.665-1.27s-0.885-1.049-1.666-1.271c-0.292-0.083-0.765-0.217-0.913-0.333 0.037-0.335 0.373-0.914 0.514-0.977 1.275 0 2.065 1.34 2.065 2.581 0 1.266-1.295 2.552-2.040 2.58zM28.959 18.088c-1.353 2.647-3.001 4.791-5.039 6.554-2.158 1.865-4.398 3.146-7.051 4.030-3.243 1.081-5.737 1.522-8.611 1.522-2.347 0-3.613-1.861-3.613-3.613 0-2.283 1.866-3.097 3.613-3.097 1.444 0 2.882-0.178 4.269-0.51 1.27 0.017 1.409 1.803 1.409 2.574h1.032c0-1.367-0.338-2.397-0.945-3.001 1.863-0.619 3.594-1.531 5.074-2.694v0.018c1.215 0 2.065 0.849 2.065 2.065h1.032c0-1.413-0.853-2.545-2.098-2.942 1.358-1.279 2.406-2.758 3.11-4.373 0.839-0.599 3.483-0.364 4.817 0.971l0.73-0.73c-1.316-1.316-3.542-1.8-5.077-1.502 0.060-0.19 0.115-0.382 0.165-0.575 0.25-0.176 1.106-0.654 2.998-0.654v-1.032c-1.255 0-2.134 0.191-2.733 0.409 0.099-0.642 0.153-1.294 0.153-1.958 0-2.296 1.317-3.613 3.613-3.613 2.125 0 3.077 1.269 3.086 4.114 0.009 2.875-0.588 5.278-1.998 8.038z"></path>
</svg>
