<!-- Generated by IcoMoon.io -->
<svg version="1.1" xmlns="http://www.w3.org/2000/svg" width="32" height="32" viewBox="0 0 32 32">
<title>sausages</title>
<path fill="#333" d="M28.903 12.387v0.516c0 1.423-1.389 2.581-3.097 2.581s-3.097-1.158-3.097-2.581v-0.516h-1.032v0.516c0 1.334 0.833 2.498 2.065 3.124v13.908c0 1.139 0.926 2.065 2.065 2.065s2.065-0.926 2.065-2.065v-13.908c1.232-0.626 2.065-1.79 2.065-3.124v-0.516h-1.032zM26.839 29.935c0 0.569-0.463 1.032-1.032 1.032s-1.032-0.463-1.032-1.032v-13.538c0.331 0.075 0.675 0.119 1.032 0.119s0.701-0.044 1.032-0.119v13.538z"></path>
<path fill="#333" d="M9.29 15.484c-1.708 0-3.097-1.158-3.097-2.581h-1.032c0 1.334 0.833 2.498 2.065 3.124v13.908c0 1.139 0.926 2.065 2.065 2.065s2.065-0.926 2.065-2.065v-13.908c1.232-0.626 2.065-1.79 2.065-3.124h-1.032c0 1.423-1.389 2.581-3.097 2.581zM10.323 29.935c0 0.569-0.463 1.032-1.032 1.032s-1.032-0.463-1.032-1.032v-13.538c0.331 0.075 0.675 0.119 1.032 0.119s0.701-0.044 1.032-0.119v13.538z"></path>
<path fill="#ffa64d" d="M29.748 3.48l-0.329-0.173v5.467h-2.065v-6.506c-1.027-0.267-2.070-0.267-3.097 0v6.506h-2.065v-5.477l-0.239 0.123-0.090 0.059c-1.431 1.182-2.252 2.923-2.252 4.778 0 3.415 2.778 6.194 6.194 6.194s6.194-2.778 6.194-6.194c0-1.854-0.821-3.596-2.252-4.778z"></path>
<path fill="#ffa64d" d="M15.638 5.677h-0.145c-0.418 0-0.838 0.091-1.238 0.273-0.006 0.003-0.558 0.281-1.352 0.564v2.26h-2.065v-1.705l-0.088 0.023c-0.515 0.088-1.006 0.133-1.461 0.133s-0.946-0.045-1.417-0.124l-0.131-0.035v1.707h-2.065v-2.261c-0.807-0.289-1.348-0.56-1.372-0.572-0.38-0.172-0.801-0.264-1.218-0.264h-0.145c-1.622 0-2.942 1.32-2.942 2.942 0 0.914 0.414 1.761 1.135 2.322l0.45 0.35c2.193 1.705 4.929 2.644 7.705 2.644 2.777 0 5.514-0.939 7.706-2.644l0.449-0.349c0.722-0.562 1.135-1.407 1.135-2.322 0-1.622-1.32-2.942-2.942-2.942z"></path>
<path fill="#333" d="M8.258 9.29h-3.097v-7.742c0-0.854 0.695-1.548 1.548-1.548s1.548 0.695 1.548 1.548v7.742zM6.194 8.258h1.032v-6.71c0-0.285-0.231-0.516-0.516-0.516s-0.516 0.231-0.516 0.516v6.71z"></path>
<path fill="#333" d="M13.419 9.29h-3.097v-7.742c0-0.854 0.695-1.548 1.548-1.548s1.548 0.695 1.548 1.548v7.742zM11.355 8.258h1.032v-6.71c0-0.285-0.231-0.516-0.516-0.516s-0.516 0.231-0.516 0.516v6.71z"></path>
<path fill="#333" d="M8.774 10.323h1.032v3.097h-1.032v-3.097z"></path>
<path fill="#333" d="M11.355 10.323h1.032v2.581h-1.032v-2.581z"></path>
<path fill="#333" d="M6.194 10.323h1.032v2.581h-1.032v-2.581z"></path>
<path fill="#333" d="M13.935 9.806h1.032v2.581h-1.032v-2.581z"></path>
<path fill="#333" d="M3.613 9.806h1.032v2.581h-1.032v-2.581z"></path>
<path fill="#333" d="M24.774 9.29h-3.097v-7.742c0-0.854 0.695-1.548 1.548-1.548s1.548 0.695 1.548 1.548v7.742zM22.71 8.258h1.032v-6.71c0-0.285-0.231-0.516-0.516-0.516s-0.516 0.231-0.516 0.516v6.71z"></path>
<path fill="#333" d="M29.935 9.29h-3.097v-7.742c0-0.854 0.695-1.548 1.548-1.548s1.548 0.695 1.548 1.548v7.742zM27.871 8.258h1.032v-6.71c0-0.285-0.231-0.516-0.516-0.516s-0.516 0.231-0.516 0.516v6.71z"></path>
</svg>
