<!-- Generated by IcoMoon.io -->
<svg version="1.1" xmlns="http://www.w3.org/2000/svg" width="32" height="32" viewBox="0 0 32 32">
<title>skewer</title>
<path fill="#333" d="M10.577 32c-0.121 0-0.244-0.011-0.366-0.032-0.832-0.147-1.516-0.83-1.662-1.662-0.17-0.969 0.341-1.905 1.244-2.278 0.163-0.067 0.273-0.25 0.273-0.455v-1.765h1.032v1.765c0 0.628-0.357 1.18-0.91 1.409-0.452 0.187-0.708 0.658-0.621 1.146 0.071 0.406 0.418 0.753 0.824 0.824 0.314 0.056 0.617-0.024 0.855-0.225 0.234-0.197 0.369-0.485 0.369-0.791h1.032c0 0.612-0.269 1.188-0.738 1.581-0.374 0.315-0.845 0.483-1.331 0.483z"></path>
<path fill="#333" d="M11.853 12.387h-2.545c-1.291 0-2.341-1.050-2.341-2.341 0-0.626 0.244-1.213 0.685-1.655l2.198-2.198h1.46l2.198 2.198c0.442 0.442 0.685 1.030 0.685 1.655 0 1.291-1.050 2.341-2.341 2.341zM10.278 7.226l-1.895 1.895c-0.247 0.247-0.383 0.575-0.383 0.925 0 0.721 0.587 1.308 1.308 1.308h2.545c0.721 0 1.308-0.587 1.308-1.308 0-0.35-0.136-0.678-0.383-0.925l-1.895-1.895h-0.605z"></path>
<path fill="#333" d="M10.064 8.258h1.032v1.032h-1.032v-1.032z"></path>
<path fill="#ffa64d" d="M13.673 20.285l-3.946 1.183c-0.289 0.087-0.591 0.071-0.87-0.023l-1.89 0.946v2.9c0 0.569 0.463 1.032 1.032 1.032h5.161c0.569 0 1.032-0.463 1.032-1.032v-5.161l-0.31 0.054c-0.063 0.044-0.133 0.079-0.21 0.102z"></path>
<path fill="#333" d="M8.516 9.807h1.032v1.032h-1.032v-1.032z"></path>
<path fill="#ffa64d" d="M14.194 3.613c0 1.995-1.618 3.613-3.613 3.613s-3.613-1.618-3.613-3.613c0-1.995 1.618-3.613 3.613-3.613s3.613 1.618 3.613 3.613z"></path>
<path fill="#333" d="M11.613 9.807h1.032v1.032h-1.032v-1.032z"></path>
<path fill="#ffa64d" d="M6.968 12.387h7.226v2.065h-7.226v-2.065z"></path>
<path fill="#ffa64d" d="M17.29 12.387h7.226v2.065h-7.226v-2.065z"></path>
<path fill="#333" d="M20.9 32c-0.121 0-0.244-0.011-0.366-0.032-0.832-0.147-1.516-0.83-1.662-1.662-0.17-0.969 0.341-1.905 1.244-2.278 0.163-0.067 0.273-0.25 0.273-0.455v-2.281h1.032v2.281c0 0.628-0.357 1.18-0.91 1.409-0.452 0.187-0.708 0.658-0.621 1.146 0.071 0.406 0.418 0.753 0.824 0.824 0.314 0.056 0.617-0.024 0.855-0.225 0.234-0.197 0.369-0.485 0.369-0.791h1.032c0 0.612-0.269 1.188-0.738 1.581-0.374 0.315-0.845 0.483-1.331 0.483z"></path>
<path fill="#333" d="M9.317 22.045c-0.419 0-0.833-0.134-1.174-0.39l-0.909-0.681c-0.49-0.367-0.782-0.952-0.782-1.564v-0.825c0-0.842 0.537-1.587 1.336-1.854 0.233-0.077 0.423-0.242 0.533-0.462l0.564-1.128c0.212-0.424 0.639-0.688 1.114-0.688h1.311c0.328 0 0.649 0.133 0.881 0.365l1.121 1.121c0.040 0.040 0.095 0.062 0.151 0.062 0.687 0 1.246 0.559 1.246 1.246v2.34c0 0.554-0.357 1.034-0.888 1.193l-3.946 1.183c-0.183 0.055-0.371 0.082-0.558 0.082zM9.999 15.484c-0.082 0-0.155 0.045-0.191 0.118l-0.564 1.129c-0.234 0.467-0.635 0.814-1.129 0.98-0.378 0.126-0.631 0.477-0.631 0.874v0.825c0 0.289 0.138 0.565 0.369 0.738l0.908 0.681c0.233 0.174 0.538 0.23 0.818 0.145l3.946-1.183c0.090-0.027 0.152-0.109 0.152-0.205v-2.34c0-0.118-0.096-0.214-0.214-0.214-0.328 0-0.649-0.133-0.881-0.365l-1.121-1.121c-0.040-0.040-0.095-0.062-0.151-0.062h-1.311z"></path>
<path fill="#ffa64d" d="M21.419 21.162c-0.789 0-1.506-0.297-2.053-0.782l-2.076 1.557v2.839c0 0.569 0.463 1.032 1.032 1.032h5.161c0.569 0 1.032-0.463 1.032-1.032v-5.161l-0.452 0.057c-0.543 0.893-1.523 1.492-2.645 1.492z"></path>
<path fill="#ffa64d" d="M21.622 8.258h-1.402l-2.633-2.955c-0.524-0.589-0.813-1.348-0.813-2.136 0-1.746 1.421-3.167 3.167-3.167h1.925c1.746 0 3.166 1.421 3.166 3.167 0 0.766-0.278 1.507-0.782 2.084l-2.628 3.008z"></path>
<path fill="#333" d="M20.387 3.097h1.032v1.548h-1.032v-1.548z"></path>
<path fill="#333" d="M23.457 3.259l-0.517 1.548-0.979-0.327 0.517-1.548 0.979 0.327z"></path>
<path fill="#333" d="M19.844 4.483l-0.979 0.326-0.516-1.548 0.979-0.326 0.516 1.548z"></path>
<path fill="#333" d="M22.968 7.226h-4.129c-1.423 0-2.581 1.158-2.581 2.581s1.158 2.581 2.581 2.581h4.129c1.423 0 2.581-1.158 2.581-2.581s-1.158-2.581-2.581-2.581zM22.968 11.355h-4.129c-0.854 0-1.548-0.695-1.548-1.548 0-0.672 0.433-1.24 1.032-1.453v1.453h1.032v-1.548h1.032v1.548h1.032v-1.548h1.032v1.548h1.032v-1.453c0.599 0.214 1.032 0.781 1.032 1.453 0 0.854-0.695 1.548-1.548 1.548z"></path>
<path fill="#333" d="M21.419 21.678c-1.992 0-3.613-1.621-3.613-3.613s1.621-3.613 3.613-3.613 3.613 1.621 3.613 3.613-1.621 3.613-3.613 3.613zM21.419 15.484c-1.423 0-2.581 1.158-2.581 2.581s1.158 2.581 2.581 2.581 2.581-1.158 2.581-2.581-1.158-2.581-2.581-2.581z"></path>
<path fill="#333" d="M20.903 16.516h1.032v1.032h-1.032v-1.032z"></path>
<path fill="#333" d="M19.871 18.581h1.032v1.032h-1.032v-1.032z"></path>
<path fill="#333" d="M21.936 18.581h1.032v1.032h-1.032v-1.032z"></path>
</svg>
