<!-- Generated by IcoMoon.io -->
<svg version="1.1" xmlns="http://www.w3.org/2000/svg" width="32" height="32" viewBox="0 0 32 32">
<title>smoothie</title>
<path fill="#f0bc5e" d="M20.129 13.419c0 0 3.729 1.858 10.291 2.046-0.149-1.316-0.933-2.483-2.115-3.111-4.017-0.216-6.627-1.515-6.627-1.515-0.080-0.040-0.158-0.075-0.237-0.11-0.659 0.767-1.191 1.633-1.582 2.566 0.087 0.042 0.175 0.084 0.27 0.124z"></path>
<path fill="#000" d="M30.968 16.516v-0.598c0-1.738-0.965-3.301-2.52-4.077-0.227-0.113-0.434-0.253-0.628-0.408l0.926-5.327c0.043-0.247 0.257-0.427 0.509-0.427h2.228v-1.032h-2.228c-0.755 0-1.397 0.54-1.526 1.283l-0.779 4.482c-0.21-0.375-0.354-0.789-0.416-1.225l-0.315-2.202-1.715 0.792c-1.595 0.736-2.963 1.877-3.981 3.28l0.588-5.893h1.597v-1.032h-19.613v1.032h1.597l0.206 2.065h-2.32c-1.423 0-2.581 1.158-2.581 2.581v8.057c0 0.951 0.52 1.821 1.357 2.273l5.109 2.748 0.246 2.457 1.027-0.103-2.007-20.077h2.059l2.018 20.181 1.027-0.103-2.008-20.078h3.559v8.774h1.032v-8.774h3.559l-2.008 20.077 1.027 0.103 2.018-20.181h2.059l-0.828 8.28c-0.030 0.079-0.062 0.156-0.093 0.234-0.645 0.35-1.090 1.025-1.090 1.809 0 0.378 0.109 0.727 0.287 1.032h-0.803v2.065c0 1.206 0.295 2.361 0.845 3.392l-0.327 3.266 1.027 0.103 0.205-2.048c0.105 0.121 0.218 0.236 0.331 0.351-0.005 0.062-0.017 0.122-0.017 0.185v6.622c0 0.182 0.037 0.354 0.095 0.516h-13.514v-1.032h-1.032v2.065h23.226c0.854 0 1.548-0.695 1.548-1.548v-6.622c0-0.059-0.004-0.117-0.010-0.174-0.001-0.010 0.063-0.073 0.063-0.073 1.298-1.352 2.012-3.128 2.012-5.002v-2.065h-1.032zM6.343 21.648l-4.496-2.421c-0.503-0.27-0.814-0.793-0.814-1.364v-8.057c0-0.854 0.695-1.548 1.548-1.548h2.423l0.103 1.032h-2.010c-0.569 0-1.032 0.463-1.032 1.032v6.907c0 0.394 0.219 0.748 0.57 0.923l3.535 1.767 0.173 1.728zM6.049 18.705l-2.952-1.476v-6.907h2.114l0.838 8.382zM27.625 12.555c0.118 0.073 0.236 0.147 0.361 0.209 1.202 0.601 1.949 1.81 1.949 3.154v0.598h-2.999l0.689-3.961zM24.936 8.712l0.457-0.211 0.118 0.83c0.135 0.942 0.56 1.802 1.195 2.477l-0.818 4.708h-3.982c0.178-0.305 0.287-0.654 0.287-1.032 0-1.057-0.801-1.921-1.826-2.040 0.887-2.074 2.51-3.782 4.569-4.731zM20.129 14.452c0.569 0 1.032 0.463 1.032 1.032s-0.463 1.032-1.032 1.032-1.032-0.463-1.032-1.032 0.463-1.032 1.032-1.032zM28.903 30.452c0 0.285-0.231 0.516-0.516 0.516h-1.548v-5.161h-1.032v5.161h-2.065v-5.161h-1.032v5.161h-1.548c-0.285 0-0.516-0.231-0.516-0.516v-6.622c0-0.589 0.438-1.090 0.976-1.118 0.019-0.001 0.037-0.002 0.056-0.002 0.266 0 0.517 0.099 0.711 0.284 0.207 0.197 0.322 0.462 0.322 0.748v1.032h1.032v-1.032c0-0.569 0.463-1.032 1.032-1.032s1.032 0.463 1.032 1.032v1.032h1.032v-1.032c0-0.286 0.115-0.551 0.322-0.748s0.489-0.298 0.766-0.282c0.538 0.028 0.977 0.53 0.977 1.118v6.622zM30.968 18.581c0 1.464-0.514 2.855-1.446 3.968-0.355-0.498-0.905-0.836-1.541-0.869h-0.001c-0.574-0.021-1.116 0.171-1.531 0.565-0.044 0.042-0.087 0.087-0.127 0.133-0.378-0.429-0.932-0.7-1.548-0.7s-1.17 0.271-1.548 0.7c-0.040-0.046-0.083-0.091-0.127-0.133-0.415-0.393-0.953-0.585-1.532-0.565-0.638 0.034-1.189 0.373-1.544 0.872-0.933-1.111-1.443-2.497-1.443-3.971v-1.032h12.387v1.032z"></path>
<path fill="#000" d="M12.387 14.968h1.032v10.323h-1.032v-10.323z"></path>
<path fill="#f0bc5e" d="M19.613 24.831c-0.169-0.035-0.342-0.057-0.516-0.057h-12.387c-1.423 0-2.581 1.158-2.581 2.581v2.581h15.484v-5.104z"></path>
<path fill="#f0bc5e" d="M20.129 2.065h-14.452c-0.854 0-1.548 0.695-1.548 1.548v0.516h17.548v-0.516c0-0.854-0.695-1.548-1.548-1.548z"></path>
<path fill="#000" d="M19.097 2.065h-1.032v-1.032h-10.323v1.032h-1.032v-2.065h12.387z"></path>
<path fill="#000" d="M12.387 26.839h1.032v1.032h-1.032v-1.032z"></path>
<path fill="#000" d="M14.452 26.839h1.032v1.032h-1.032v-1.032z"></path>
<path fill="#000" d="M10.323 26.839h1.032v1.032h-1.032v-1.032z"></path>
</svg>
