<!-- Generated by IcoMoon.io -->
<svg version="1.1" xmlns="http://www.w3.org/2000/svg" width="32" height="32" viewBox="0 0 32 32">
<title>snack</title>
<path fill="#333" d="M9.806 28.903h17.548v1.032h-17.548v-1.032z"></path>
<path fill="#333" d="M23.742 9.806h1.032v1.032h-1.032v-1.032z"></path>
<path fill="#333" d="M21.677 9.806h1.032v1.032h-1.032v-1.032z"></path>
<path fill="#333" d="M29.159 10.771l0.26-0.149v-2.88h-12.903v1.032h11.871v1.032h-2.581v1.032h1.681c-0.439 0.559-0.648 1.229-0.648 2.065v13.935c0 1.217 0.572 2.271 1.548 2.882v1.247h-19.613v-1.247c0.976-0.611 1.548-1.666 1.548-2.882v-13.935c0-0.791-0.231-1.497-0.655-2.065h10.978v-1.032h-11.871v-1.032h3.613v-1.032h-4.645v2.9l0.285 0.142c0.803 0.402 1.263 1.174 1.263 2.119v13.935c0 0.945-0.46 1.718-1.263 2.119l-0.285 0.143v2.9h21.677v-2.9l-0.285-0.142c-0.803-0.402-1.263-1.174-1.263-2.119v-13.935c0-1.004 0.361-1.602 1.288-2.133z"></path>
<path fill="#f9ba48" d="M5.161 7.742c-1.423 0-2.581-1.158-2.581-2.581s1.158-2.581 2.581-2.581 2.581 1.158 2.581 2.581-1.158 2.581-2.581 2.581z"></path>
<path fill="#f9ba48" d="M14.452 10.323c-1.423 0-2.581-1.158-2.581-2.581s1.158-2.581 2.581-2.581 2.581 1.158 2.581 2.581-1.158 2.581-2.581 2.581z"></path>
<path fill="#f9ba48" d="M19.613 5.161c-1.423 0-2.581-1.158-2.581-2.581s1.158-2.581 2.581-2.581 2.581 1.158 2.581 2.581-1.158 2.581-2.581 2.581z"></path>
<path fill="#f9ba48" d="M23.742 8.774c-1.423 0-2.581-1.158-2.581-2.581s1.158-2.581 2.581-2.581 2.581 1.158 2.581 2.581-1.158 2.581-2.581 2.581z"></path>
<path fill="#f9ba48" d="M22.709 20.128l-4.129 4.129-4.129-4.129 4.129-4.129 4.129 4.129z"></path>
</svg>
