<!-- Generated by IcoMoon.io -->
<svg version="1.1" xmlns="http://www.w3.org/2000/svg" width="32" height="32" viewBox="0 0 32 32">
<title>soda</title>
<path fill="#ffa64d" d="M14.45 14.977c0.001-0.169 0.002-0.343 0.002-0.525 0-0.788-0.066-1.466-0.179-2.065h-2.663c-1.805 5.866-8.194 8.101-10.061 8.638l-0.059 0.065c0.036 0.455 0.059 0.968 0.059 1.62v0h7.012c2.483-1.489 5.124-3.923 5.89-7.733z"></path>
<path fill="#ffa64d" d="M31.484 18.581c-1.548 7.742-10.839 9.806-10.839 9.806h-2.581v-3.613c0 0 9.29-2.065 10.839-9.806h2.581v3.613z"></path>
<path fill="#333" d="M14.452 22.71c0-1.319 0.095-2.054 0.205-2.906 0.146-1.13 0.311-2.411 0.311-5.352 0-3.613-1.337-5.172-2.517-6.547-0.952-1.109-1.857-2.166-2.077-4.292h0.981v-1.032h-1.032v-1.032c0-0.854-0.695-1.548-1.548-1.548h-2.065c-0.854 0-1.548 0.695-1.548 1.548v1.032h-1.032v1.032h0.981c-0.22 2.126-1.125 3.183-2.077 4.292-1.179 1.375-2.517 2.934-2.517 6.547 0 2.941 0.165 4.222 0.311 5.352 0.11 0.852 0.205 1.587 0.205 2.906 0 1.14-0.208 1.711-0.45 2.372-0.273 0.748-0.583 1.595-0.583 3.306v0.774c0 1.565 1.274 2.839 2.839 2.839 0.999 0 1.878-0.52 2.383-1.303 0.562 0.787 1.481 1.303 2.52 1.303s1.958-0.516 2.52-1.303c0.506 0.782 1.384 1.303 2.383 1.303 1.565 0 2.839-1.274 2.839-2.839v-0.774c0-1.71-0.31-2.558-0.583-3.306-0.242-0.661-0.45-1.231-0.45-2.372zM13.935 14.452c0 2.875-0.161 4.121-0.303 5.22-0.095 0.738-0.186 1.442-0.208 2.522h-11.365c-0.022-1.080-0.113-1.784-0.208-2.522-0.142-1.099-0.303-2.345-0.303-5.22 0-0.575 0.036-1.085 0.1-1.548h12.187c0.064 0.463 0.1 0.973 0.1 1.548zM6.194 1.548c0-0.285 0.231-0.516 0.516-0.516h2.065c0.285 0 0.516 0.231 0.516 0.516v1.032h-3.097v-1.032zM3.816 8.578c1.035-1.207 2.101-2.453 2.33-4.965h3.191c0.23 2.511 1.295 3.757 2.33 4.965 0.791 0.922 1.55 1.811 1.959 3.293h-11.769c0.408-1.483 1.168-2.372 1.959-3.293zM14.452 29.161c0 0.996-0.81 1.806-1.806 1.806s-1.806-0.81-1.806-1.806v-0.774h-1.032v0.516c0 1.139-0.926 2.065-2.065 2.065s-2.065-0.926-2.065-2.065v-0.516h-1.032v0.774c0 0.996-0.81 1.806-1.806 1.806s-1.806-0.81-1.806-1.806v-0.774c0-1.528 0.252-2.219 0.52-2.952 0.216-0.594 0.439-1.207 0.497-2.209h11.386c0.058 1.002 0.28 1.615 0.497 2.209 0.268 0.733 0.52 1.425 0.52 2.952v0.774z"></path>
<path fill="#333" d="M4.436 11.122c0.154-0.236 0.341-0.482 0.605-0.797l-0.791-0.663c-0.196 0.234-0.451 0.547-0.678 0.894l0.863 0.566z"></path>
<path fill="#333" d="M8.079 4.735l-1.016-0.181c-0.374 2.107-1.299 3.33-2.294 4.497l0.785 0.67c1.049-1.229 2.108-2.627 2.525-4.987z"></path>
<path fill="#333" d="M31.121 13.283c-0.285-0.234-0.523-0.433-0.621-0.895h0.984v-1.032h-13.419v1.032h0.984c-0.098 0.463-0.336 0.662-0.621 0.895-0.392 0.322-0.879 0.723-0.879 1.685v15.484h0.516c0.569 0 1.032 0.463 1.032 1.032v0.516h11.355v-0.516c0-0.569 0.463-1.032 1.032-1.032h0.516v-15.484c0-0.963-0.488-1.363-0.879-1.685zM30.968 15.484v12.387h-12.387v-12.387h12.387zM19.083 14.081c0.38-0.312 0.877-0.726 1.010-1.693h9.362c0.133 0.967 0.63 1.382 1.010 1.693 0.168 0.138 0.294 0.242 0.378 0.371h-12.139c0.084-0.129 0.21-0.233 0.378-0.371zM29.485 30.968h-9.421c-0.187-0.724-0.759-1.296-1.483-1.483v-0.582h12.387v0.582c-0.724 0.187-1.296 0.759-1.483 1.483z"></path>
</svg>
