<!-- Generated by IcoMoon.io -->
<svg version="1.1" xmlns="http://www.w3.org/2000/svg" width="32" height="32" viewBox="0 0 32 32">
<title>soda-1</title>
<path fill="#f0bc5e" d="M26.322 17.548c0 1.425-1.155 2.581-2.581 2.581s-2.581-1.155-2.581-2.581c0-1.425 1.155-2.581 2.581-2.581s2.581 1.155 2.581 2.581z"></path>
<path fill="#f0bc5e" d="M10.839 26.838h-7.226c-0.854 0-1.548-0.695-1.548-1.548v-4.129c0-0.854 0.695-1.548 1.548-1.548h7.226c0.854 0 1.548 0.695 1.548 1.548v4.129c0 0.854-0.695 1.548-1.548 1.548z"></path>
<path fill="#f0bc5e" d="M10.323 10.839c-0.854 0-1.548-0.695-1.548-1.548s0.695-1.548 1.548-1.548 1.548 0.695 1.548 1.548-0.695 1.548-1.548 1.548z"></path>
<path fill="#f0bc5e" d="M6.194 6.193c-1.139 0-2.064-0.926-2.064-2.064s0.926-2.064 2.064-2.064 2.064 0.926 2.064 2.064-0.926 2.064-2.064 2.064z"></path>
<path fill="#f0bc5e" d="M12.903 3.097c-0.854 0-1.548-0.695-1.548-1.548s0.695-1.548 1.548-1.548 1.548 0.695 1.548 1.548-0.695 1.548-1.548 1.548z"></path>
<path fill="#000" d="M31.544 21.414l-0.844-1.126c-0.16-0.213-0.249-0.479-0.249-0.747v-3.844c0-0.333 0.13-0.646 0.365-0.881 0.43-0.43 0.667-1.002 0.667-1.611v-3.408c0-0.815-0.44-1.574-1.148-1.978l-1.837-1.049c-0.387-0.221-0.628-0.636-0.628-1.082v-1.558h1.548v-4.129h-11.355v4.129h1.548v1.558c0 0.446-0.241 0.861-0.628 1.082l-1.837 1.049c-0.708 0.405-1.148 1.162-1.148 1.978v3.408c0 0.608 0.237 1.18 0.667 1.611 0.235 0.236 0.365 0.549 0.365 0.882v3.844c0 0.268-0.088 0.533-0.249 0.747l-0.844 1.125c-0.294 0.392-0.456 0.877-0.456 1.367v5.476c0 1.999 1.565 3.677 3.491 3.741 0.896 0.034 1.767-0.274 2.445-0.847 0.647 0.545 1.469 0.85 2.322 0.85s1.675-0.305 2.322-0.85c0.649 0.548 1.468 0.85 2.324 0.85 0.040 0 0.081-0.001 0.121-0.002 1.925-0.064 3.491-1.742 3.491-3.741v-5.476c0-0.49-0.162-0.975-0.456-1.367zM21.161 3.097v-2.064h1.032v2.064h-1.032zM23.226 1.032h1.032v2.064h-1.032v-2.064zM25.29 1.032h1.032v2.064h-1.032v-2.064zM28.387 3.097h-1.032v-2.064h1.032v2.064zM19.097 1.032h1.032v2.064h-1.032v-2.064zM26.839 4.129v1.032h-6.193v-1.032h6.193zM28.475 30.966c-0.765 0.013-1.51-0.294-2.023-0.877l-0.388-0.44-0.388 0.44c-0.491 0.558-1.196 0.878-1.935 0.878s-1.444-0.32-1.935-0.878l-0.388-0.44-0.388 0.44c-0.513 0.583-1.248 0.892-2.023 0.877-1.374-0.046-2.492-1.261-2.492-2.71v-1.418h11.355v-1.032h-11.355v-3.026c0-0.268 0.088-0.533 0.249-0.747l0.844-1.125c0.294-0.392 0.456-0.877 0.456-1.367v-3.844c0-0.608-0.237-1.18-0.667-1.611-0.235-0.235-0.365-0.549-0.365-0.881v-3.399h2.064v-1.032h-1.514c0.027-0.019 0.049-0.043 0.078-0.059l1.837-1.049c0.558-0.319 0.946-0.859 1.086-1.472h6.317c0.141 0.613 0.529 1.153 1.086 1.472l1.837 1.049c0.029 0.017 0.051 0.041 0.078 0.059h-9.773v1.032h10.322v3.399c0 0.333-0.13 0.646-0.365 0.881-0.43 0.43-0.667 1.002-0.667 1.611v3.844c0 0.49 0.162 0.975 0.456 1.366l0.844 1.126c0.16 0.214 0.249 0.479 0.249 0.747v3.026h-2.064v1.032h2.064v1.418c0 1.449-1.118 2.664-2.492 2.71z"></path>
<path fill="#000" d="M12.903 12.387h-7.226v-0.91l0.516-1.032v-1.67c0-0.569-0.463-1.032-1.032-1.032h-2.064c-0.569 0-1.032 0.463-1.032 1.032v1.67l0.516 1.032v0.91h-1.032v2.438l-1.548 2.581v11.641l1.772 2.953h10.907l1.772-2.954v-11.641l-1.548-2.581v-2.438zM3.097 10.201v-1.427h2.064v1.427l-0.516 1.032v1.154h-1.032v-1.154l-0.516-1.032zM1.032 28.387v-10.322h12.387v10.322h-12.387zM12.095 30.967h-9.738l-0.929-1.548h11.596l-0.928 1.548zM13.024 17.032h-11.596l0.929-1.548h7.45v-1.032h-7.226v-1.032h9.29v1.032h-1.032v1.032h1.256l0.929 1.548z"></path>
<path fill="#000" d="M23.742 12.903c-0.826 0-1.64 0.224-2.357 0.647l0.525 0.889c0.557-0.33 1.191-0.504 1.831-0.504 1.992 0 3.613 1.621 3.613 3.613 0 0.64-0.174 1.274-0.504 1.832l0.889 0.525c0.423-0.717 0.647-1.531 0.647-2.357 0-2.562-2.084-4.645-4.645-4.645z"></path>
<path fill="#000" d="M23.742 21.161c-1.992 0-3.613-1.621-3.613-3.613 0-0.64 0.174-1.274 0.504-1.832l-0.889-0.525c-0.423 0.717-0.647 1.531-0.647 2.357 0 2.561 2.084 4.645 4.645 4.645 0.826 0 1.64-0.224 2.357-0.647l-0.525-0.889c-0.557 0.33-1.191 0.504-1.831 0.504z"></path>
<path fill="#000" d="M28.387 10.839h1.032v1.032h-1.032v-1.032z"></path>
<path fill="#000" d="M18.064 10.839h1.032v1.032h-1.032v-1.032z"></path>
<path fill="#000" d="M17.548 23.742h1.032v1.032h-1.032v-1.032z"></path>
<path fill="#000" d="M28.903 23.742h1.032v1.032h-1.032v-1.032z"></path>
<path fill="#000" d="M3.613 9.29h1.032v1.032h-1.032v-1.032z"></path>
<path fill="#000" d="M23.742 14.968c-0.444 0-0.883 0.115-1.268 0.333l0.508 0.898c0.23-0.13 0.492-0.199 0.76-0.199v-1.032z"></path>
<path fill="#000" d="M21.463 16.337c-0.197 0.371-0.301 0.79-0.301 1.211 0 0.499 0.142 0.983 0.413 1.401l0.867-0.561c-0.162-0.25-0.248-0.541-0.248-0.84 0-0.257 0.060-0.502 0.181-0.726l-0.911-0.485z"></path>
</svg>
