<!-- Generated by IcoMoon.io -->
<svg version="1.1" xmlns="http://www.w3.org/2000/svg" width="32" height="32" viewBox="0 0 32 32">
<title>soda-can</title>
<path fill="#f0bc5e" d="M17.548 13.419c0 0-4.129 5.161-11.871 5.677v5.161c7.226 0 16-10.839 16-10.839h-4.129z"></path>
<path fill="#f0bc5e" d="M18.394 22.42c-1.896 1.75-3.126 2.471-4.458 2.871h8.258v-8.258c0 0-1.736 3.483-3.8 5.387z"></path>
<path fill="#f0bc5e" d="M24.258 8.774c-0.854 0-1.548-0.695-1.548-1.548s0.695-1.548 1.548-1.548 1.548 0.695 1.548 1.548-0.695 1.548-1.548 1.548z"></path>
<path fill="#f0bc5e" d="M21.161 3.097c-0.854 0-1.548-0.695-1.548-1.548s0.695-1.548 1.548-1.548 1.548 0.695 1.548 1.548-0.695 1.548-1.548 1.548z"></path>
<path fill="#f0bc5e" d="M16.516 6.194c-0.854 0-1.548-0.695-1.548-1.548s0.695-1.548 1.548-1.548 1.548 0.695 1.548 1.548-0.695 1.548-1.548 1.548z"></path>
<path fill="#000" d="M20.645 9.65v-2.424h-13.419v2.424l-1.458 2.186c-0.397 0.596-0.607 1.289-0.607 2.004v11.751c0 0.558 0.132 1.117 0.381 1.615l1.167 2.334v2.459h14.452v-2.459l1.167-2.334c0.249-0.499 0.381-1.058 0.381-1.615v-11.751c0-0.716-0.21-1.409-0.607-2.004l-1.458-2.186zM8.258 8.258h11.355v1.032h-11.355v-1.032zM20.129 30.968h-12.387v-1.032h12.387v1.032zM20.326 28.903h-12.781l-1.079-2.158c-0.068-0.135-0.119-0.278-0.162-0.423h11.761v-1.032h-11.871v-11.355h2.581v-1.032h-2.397c0.067-0.171 0.147-0.339 0.25-0.494l1.391-2.087h11.835l1.391 2.087c0.104 0.155 0.183 0.323 0.25 0.494h-11.688v1.032h11.871v11.355h-2.581v1.032h2.47c-0.043 0.145-0.094 0.287-0.162 0.423l-1.079 2.158z"></path>
<path fill="#000" d="M5.161 4.129h1.032v1.032h-1.032v-1.032z"></path>
<path fill="#000" d="M5.161 6.194h1.032v1.032h-1.032v-1.032z"></path>
<path fill="#000" d="M6.194 5.161h1.032v1.032h-1.032v-1.032z"></path>
<path fill="#000" d="M4.129 5.161h1.032v1.032h-1.032v-1.032z"></path>
<path fill="#000" d="M25.806 10.323h1.032v1.032h-1.032v-1.032z"></path>
<path fill="#000" d="M25.806 12.387h1.032v1.032h-1.032v-1.032z"></path>
<path fill="#000" d="M26.839 11.355h1.032v1.032h-1.032v-1.032z"></path>
<path fill="#000" d="M24.774 11.355h1.032v1.032h-1.032v-1.032z"></path>
<path fill="#000" d="M10.323 0h1.032v1.032h-1.032v-1.032z"></path>
<path fill="#000" d="M10.323 2.065h1.032v1.032h-1.032v-1.032z"></path>
<path fill="#000" d="M11.355 1.032h1.032v1.032h-1.032v-1.032z"></path>
<path fill="#000" d="M9.29 1.032h1.032v1.032h-1.032v-1.032z"></path>
</svg>
