<!-- Generated by IcoMoon.io -->
<svg version="1.1" xmlns="http://www.w3.org/2000/svg" width="32" height="32" viewBox="0 0 32 32">
<title>soy</title>
<path fill="#f0bc5e" d="M23.986 26.392l0.224 0.075c0.641 0.213 1.312 0.322 1.988 0.322v0c0.676 0 1.347-0.109 1.987-0.322l0.231-0.077c0.22-0.073 0.449-0.111 0.681-0.111h0.049c1.188 0 2.151 0.963 2.151 2.151v0c0 0.86-0.513 1.638-1.304 1.977l-0.74 0.317c-1.006 0.432-2.090 0.654-3.186 0.654v0c-1.255 0-2.494-0.292-3.617-0.854l-0.139-0.069c-0.743-0.372-1.212-1.131-1.212-1.962v-0.020c0-1.211 0.982-2.194 2.194-2.194v0c0.236 0 0.47 0.038 0.693 0.113z"></path>
<path fill="#f0bc5e" d="M14.808 26.392l0.224 0.075c0.641 0.213 1.312 0.322 1.987 0.322v0c0.676 0 1.347-0.109 1.987-0.322l0.231-0.077c0.22-0.073 0.449-0.111 0.681-0.111h0.049c1.188 0 2.151 0.963 2.151 2.151v0c0 0.86-0.513 1.638-1.304 1.977l-0.74 0.317c-1.006 0.432-2.090 0.654-3.186 0.654v0c-1.255 0-2.494-0.292-3.617-0.854l-0.139-0.069c-0.743-0.372-1.213-1.131-1.213-1.962v-0.020c0-1.211 0.982-2.194 2.194-2.194v0c0.236 0 0.47 0.038 0.693 0.113z"></path>
<path fill="#f0bc5e" d="M11.298 18.459l-0.075 0.224c-0.213 0.641-0.322 1.312-0.322 1.988v0c0 0.676 0.109 1.347 0.322 1.987l0.077 0.231c0.073 0.22 0.111 0.449 0.111 0.681v0.049c0 1.188-0.963 2.151-2.151 2.151v0c-0.86 0-1.638-0.513-1.977-1.304l-0.317-0.74c-0.432-1.006-0.654-2.090-0.654-3.186v0c0-1.255 0.292-2.494 0.854-3.617l0.069-0.139c0.372-0.743 1.131-1.213 1.962-1.213h0.020c1.211 0 2.194 0.982 2.194 2.193v0c0 0.236-0.038 0.47-0.113 0.693z"></path>
<path fill="#f0bc5e" d="M19.397 21.293l0.224 0.075c0.641 0.213 1.312 0.322 1.988 0.322v0c0.676 0 1.347-0.109 1.987-0.322l0.231-0.077c0.22-0.073 0.449-0.111 0.681-0.111h0.049c1.188 0 2.151 0.963 2.151 2.151v0c0 0.86-0.513 1.638-1.304 1.977l-0.74 0.317c-1.006 0.432-2.090 0.654-3.186 0.654v0c-1.255 0-2.494-0.292-3.617-0.854l-0.139-0.069c-0.743-0.372-1.212-1.131-1.212-1.962v-0.020c0-1.211 0.982-2.194 2.194-2.194v0c0.236 0 0.47 0.038 0.693 0.113z"></path>
<path fill="#000" d="M8.418 19.589c-0.044 0.357-0.066 0.721-0.066 1.082s0.022 0.726 0.067 1.082l1.012-0.125c-0.039-0.315-0.059-0.637-0.059-0.957s0.020-0.641 0.059-0.958l-1.012-0.124z"></path>
<path fill="#000" d="M29.096 25.769c-0.287 0-0.57 0.046-0.841 0.137l-0.232 0.077c-1.033 0.344-2.151 0.387-3.206 0.128 0.016-0.007 0.032-0.011 0.047-0.017l0.74-0.317c0.979-0.421 1.612-1.38 1.612-2.445 0-1.467-1.194-2.661-2.71-2.661-0.287 0-0.57 0.046-0.841 0.137l-0.232 0.077c-1.18 0.393-2.471 0.394-3.652-0l-0.224-0.074c-0.275-0.092-0.563-0.139-0.855-0.139-1.491 0-2.703 1.212-2.703 2.723 0 1.030 0.573 1.957 1.495 2.419l0.138 0.069c0.194 0.097 0.393 0.184 0.593 0.266-1.003 0.214-2.056 0.162-3.033-0.164l-0.224-0.074c-0.276-0.092-0.564-0.139-0.856-0.139-1.491 0-2.703 1.212-2.703 2.723 0 1.030 0.573 1.957 1.495 2.419l0.138 0.069c1.188 0.594 2.517 0.908 3.845 0.908 1.171 0 2.31-0.234 3.387-0.695l0.74-0.317c0.193-0.082 0.375-0.19 0.543-0.315 0.16 0.134 0.333 0.254 0.526 0.351l0.138 0.069c1.188 0.594 2.517 0.908 3.845 0.908 1.171 0 2.31-0.234 3.387-0.695l0.74-0.317c0.98-0.421 1.613-1.38 1.613-2.445 0-1.467-1.194-2.661-2.71-2.661zM17.951 24.9c-0.574-0.288-0.931-0.864-0.931-1.526 0-0.928 0.755-1.684 1.684-1.684 0.182 0 0.361 0.029 0.532 0.086l0.225 0.074c1.389 0.463 2.909 0.462 4.296 0l0.232-0.077c0.168-0.056 0.342-0.084 0.569-0.084 0.905 0 1.641 0.736 1.641 1.641 0 0.657-0.391 1.249-0.995 1.508l-0.74 0.317c-2.025 0.867-4.403 0.797-6.375-0.188l-0.138-0.069zM19.875 30.256c-2.026 0.867-4.403 0.797-6.375-0.188l-0.138-0.069c-0.574-0.288-0.931-0.864-0.931-1.526 0-0.928 0.755-1.684 1.684-1.684 0.182 0 0.361 0.029 0.533 0.087l0.224 0.074c1.389 0.463 2.909 0.462 4.296 0l0.232-0.077c0.168-0.056 0.342-0.085 0.569-0.085 0.365 0 0.713 0.121 0.997 0.339-0.233 0.402-0.376 0.864-0.376 1.365 0 0.457 0.118 0.891 0.325 1.276-0.093 0.066-0.192 0.123-0.299 0.17l-0.74 0.317zM29.792 29.939l-0.74 0.317c-2.026 0.867-4.403 0.797-6.375-0.188l-0.138-0.069c-0.574-0.288-0.931-0.864-0.931-1.526 0-0.928 0.755-1.684 1.684-1.684 0.182 0 0.361 0.029 0.532 0.086l0.225 0.074c1.389 0.463 2.909 0.462 4.296 0l0.232-0.077c0.168-0.056 0.342-0.084 0.569-0.084 0.905 0 1.641 0.736 1.641 1.641 0 0.657-0.391 1.249-0.995 1.508z"></path>
<path fill="#000" d="M25.241 28.26l-0.125 1.012c0.357 0.044 0.721 0.067 1.082 0.067s0.726-0.022 1.082-0.067l-0.125-1.012c-0.63 0.078-1.284 0.078-1.914 0z"></path>
<path fill="#000" d="M22.691 24.173l-0.125-1.012c-0.63 0.078-1.284 0.078-1.914 0l-0.125 1.012c0.357 0.044 0.721 0.067 1.082 0.067s0.726-0.022 1.082-0.067z"></path>
<path fill="#000" d="M16.063 28.26l-0.125 1.012c0.357 0.044 0.721 0.067 1.082 0.067s0.726-0.022 1.082-0.067l-0.125-1.012c-0.63 0.078-1.284 0.078-1.914 0z"></path>
<path fill="#000" d="M11.921 23.569c0-0.287-0.046-0.57-0.137-0.841l-0.077-0.231c-0.197-0.59-0.296-1.204-0.296-1.826s0.099-1.236 0.296-1.826l0.075-0.225c0.092-0.276 0.139-0.564 0.139-0.855 0-0.945-0.488-1.775-1.23-2.258l0.025-0.004c-0.346-2.568-1.157-5.019-2.412-7.286-0.105-0.621-0.248-1.235-0.44-1.837l1.74-6.381-4.228 1.41-1.031 4.123-0.319 0.16c-2.364 1.181-3.832 3.557-3.832 6.199 0 1.62 0.552 3.156 1.567 4.391-1.009 1.199-1.567 2.713-1.567 4.283 0 1.817 0.754 3.543 2.044 4.787 0.042 2.9 2.028 5.37 4.863 6.024l2.698 0.623 0.254-1.78c0.203-1.42 0.37-2.863 0.5-4.292 0.812-0.46 1.368-1.33 1.368-2.359zM8.479 10.97c0.53 1.33 0.911 2.712 1.142 4.134-0.139-0.021-0.278-0.042-0.423-0.042-0.5 0-0.975 0.137-1.385 0.382l0.481-2.726c0.102-0.579 0.161-1.163 0.185-1.748zM3.347 26.244l0.629 0.45 0.593-0.83-0.995-0.711c-1.478-1.056-2.361-2.772-2.361-4.588 0-1.289 0.446-2.532 1.251-3.532l0.428 0.428 0.721-0.721-0.669-0.669c-1.116-1.117-1.731-2.601-1.731-4.181 0-2.254 1.252-4.279 3.268-5.287l0.739-0.37 1.009-4.035 1.89-0.63-1.32 4.838 0.049 0.146c0.64 1.921 0.793 3.99 0.441 5.985l-0.602 3.41c-0.249 1.411-0.376 2.853-0.376 4.285v0.343c0 3.455 0.748 6.912 2.158 10.068l-1.141-0.264c-2.073-0.478-3.602-2.115-3.983-4.138zM9.111 29.551c-0.481-1.175-0.872-2.386-1.16-3.623 0.392 0.222 0.839 0.352 1.309 0.352 0.080 0 0.155-0.017 0.233-0.023-0.105 1.098-0.233 2.2-0.382 3.294zM10.74 22.819l0.077 0.23c0.056 0.168 0.084 0.343 0.084 0.569 0 0.905-0.736 1.641-1.641 1.641-0.658 0-1.25-0.391-1.508-0.994l-0.182-0.425c-0.152-1.081-0.238-2.171-0.238-3.262v-0.343c0-0.937 0.061-1.877 0.172-2.809l0.032-0.075c0.028-0.067 0.054-0.134 0.086-0.199l0.070-0.139c0.287-0.574 0.864-0.931 1.526-0.931 0.928 0 1.684 0.755 1.684 1.684 0 0.181-0.029 0.36-0.086 0.532l-0.075 0.224c-0.232 0.694-0.349 1.416-0.349 2.149s0.117 1.455 0.349 2.149z"></path>
</svg>
