<!-- Generated by IcoMoon.io -->
<svg version="1.1" xmlns="http://www.w3.org/2000/svg" width="32" height="32" viewBox="0 0 32 32">
<title>spaghetti</title>
<path fill="#f0bc5e" d="M30.452 25.29h-17.548c0-0.51 0.045-1.013 0.129-1.497 0.032-0.2 0.077-0.4 0.122-0.593 0.045-0.187 0.097-0.374 0.155-0.561 0.045-0.148 0.097-0.303 0.155-0.452 0.265-0.026 0.471-0.245 0.471-0.516 0-0.116-0.039-0.226-0.11-0.316 0.071-0.142 0.148-0.284 0.226-0.419 0.252-0.439 0.536-0.852 0.852-1.232 0.219-0.264 0.452-0.516 0.703-0.755 0.129-0.122 0.258-0.239 0.394-0.355 1.529-1.297 3.51-2.084 5.677-2.084 2.11 0 4.039 0.742 5.548 1.987 0.374 0.303 0.716 0.639 1.032 1 0.929 1.058 1.606 2.342 1.948 3.761-0.452 0.11-0.787 0.516-0.787 1 0 0.568 0.464 1.032 1.032 1.032z"></path>
<path fill="#f0bc5e" d="M16 18.6c-1.529-1.297-3.51-2.084-5.677-2.084-4.845 0-8.774 3.929-8.774 8.774h17.548c0-2.677-1.2-5.084-3.097-6.69zM13.935 21.677c0 0.271-0.206 0.49-0.471 0.516-0.013 0-0.032 0-0.045 0-0.284 0-0.516-0.232-0.516-0.516s0.232-0.516 0.516-0.516c0.168 0 0.316 0.077 0.406 0.2 0.071 0.090 0.11 0.2 0.11 0.316z"></path>
<path fill="#f0bc5e" d="M12.065 3.716c0-1.6 0.639-1.6 0.639-3.2h-4.129c0 1.6-0.639 1.6-0.639 3.2s0.639 1.6 0.639 3.2-0.639 1.6-0.639 3.2 0.639 1.6 0.639 3.2c0 1.6-0.639 1.6-0.639 3.2h4.129c0-1.6 0.639-1.6 0.639-3.2s-0.639-1.6-0.639-3.2 0.639-1.6 0.639-3.2c0.007-1.6-0.639-1.6-0.639-3.2z"></path>
<path fill="#f0bc5e" d="M31.484 16h-1.032c-2.277 0-4.129 1.852-4.129 4.129h1.032c2.277 0 4.129-1.852 4.129-4.129z"></path>
<path fill="#f0bc5e" d="M1.548 15.484h-1.032c0 1.71 1.387 3.097 3.097 3.097h1.032c0-1.71-1.387-3.097-3.097-3.097z"></path>
<path fill="#000" d="M26.658 17.452c-0.574-0.368-1.181-0.665-1.813-0.89 0.271-0.277 0.439-0.658 0.439-1.077 0-0.852-0.697-1.548-1.548-1.548s-1.548 0.697-1.548 1.548c0 0.194 0.039 0.374 0.103 0.542-0.206-0.013-0.413-0.026-0.619-0.026-2.058 0-4.058 0.697-5.684 1.948-0.994-0.774-2.148-1.342-3.406-1.658 0.026-0.548 0.142-0.845 0.277-1.187 0.168-0.419 0.355-0.89 0.355-1.794 0-0.897-0.187-1.374-0.355-1.794-0.155-0.381-0.284-0.71-0.284-1.413 0-0.394 0.045-0.665 0.103-0.903 0.832-0.136 2.103-0.465 2.858-1.065 0.742-0.594 1.671-0.916 2.619-0.916h12.297c0.852 0 1.548-0.697 1.548-1.548s-0.697-1.548-1.548-1.548h-12.284c-0.949 0-1.878-0.329-2.619-0.922-0.697-0.562-1.8-0.878-2.632-1.026 0.155-0.387 0.31-0.852 0.31-1.665v-0.51h-5.161v0.516c0 0.697-0.129 1.026-0.284 1.406-0.019 0.045-0.039 0.090-0.058 0.142h-1.013v1.032h0.748c-0.019 0.181-0.032 0.387-0.032 0.619 0 0.148 0.006 0.284 0.019 0.413h-0.735v1.032h0.935c0.045 0.122 0.090 0.239 0.129 0.342 0.090 0.219 0.168 0.419 0.219 0.69h-1.29v1.032h1.342c-0.032 0.458-0.129 0.742-0.245 1.032h-1.097v1.032h0.774c-0.039 0.232-0.065 0.497-0.065 0.819 0 0.903 0.187 1.374 0.355 1.794 0.155 0.381 0.284 0.71 0.284 1.406s-0.129 1.032-0.284 1.406c-0.161 0.413-0.348 0.877-0.355 1.748-0.252 0.084-0.497 0.168-0.735 0.271 0.013-0.077 0.026-0.148 0.026-0.226 0-0.852-0.697-1.548-1.548-1.548-0.581 0-1.084 0.329-1.348 0.8-0.613-0.49-1.4-0.794-2.258-0.794h-1.548v0.516c0 1.929 1.523 3.503 3.426 3.606-1.374 1.529-2.245 3.503-2.368 5.684h-1.058v0.516c0 1.671 1.142 3.077 2.684 3.484l1.071 3.226h24.484l1.071-3.226c1.542-0.413 2.684-1.819 2.684-3.484v-0.516h-0.097c0.058-0.161 0.097-0.335 0.097-0.516 0-0.806-0.619-1.458-1.406-1.536-0.265-0.916-0.658-1.774-1.187-2.568 1.536-0.761 2.587-2.335 2.587-4.161v-0.516h-1.548c-1.555 0.007-2.935 0.787-3.781 1.974zM12.619 3.181c0.826 0.135 1.793 0.439 2.29 0.839 0.916 0.735 2.077 1.142 3.258 1.142h12.284c0.284 0 0.516 0.232 0.516 0.516s-0.232 0.516-0.516 0.516h-12.284c-1.181 0-2.342 0.407-3.265 1.148-0.4 0.323-1.116 0.581-1.819 0.742 0.065-0.232 0.116-0.51 0.135-0.858h0.716v-1.032h-0.761c-0.065-0.445-0.181-0.755-0.29-1.032h1.052v-1.032h-1.335c-0.013-0.122-0.019-0.258-0.019-0.413 0-0.213 0.013-0.387 0.039-0.536zM4.878 19.097h0.284v-0.245c1.413-1.135 3.206-1.819 5.161-1.819 2.013 0 3.852 0.723 5.284 1.923 1.684 1.413 2.8 3.49 2.949 5.819h-1.032c-0.142-2.032-1.136-3.839-2.619-5.065-1.245-1.026-2.839-1.645-4.581-1.645-3.813 0-6.935 2.968-7.2 6.71h-1.032c0.142-2.258 1.187-4.271 2.787-5.677zM21.677 22.194c-0.916 0-1.735 0.4-2.303 1.032-0.084-0.381-0.2-0.748-0.329-1.11 0.742-0.613 1.665-0.955 2.632-0.955 2.103 0 3.839 1.581 4.097 3.613h-1.045c-0.245-1.464-1.523-2.581-3.052-2.581zM23.671 24.774h-3.981c0.232-0.89 1.032-1.548 1.994-1.548s1.755 0.658 1.987 1.548zM10.323 22.194c-1.529 0-2.806 1.116-3.052 2.581h-1.045c0.258-2.032 1.993-3.613 4.097-3.613 0.548 0 1.071 0.11 1.568 0.316-0.007 0.065-0.019 0.136-0.019 0.2 0 0.761 0.555 1.4 1.284 1.523 0.084 0.013 0.174 0.026 0.265 0.026 0.148 0 0.29-0.026 0.426-0.065 0.303 0.497 0.497 1.039 0.568 1.613h-1.039c-0.058-0.348-0.174-0.677-0.342-0.981-0.529-0.955-1.542-1.6-2.71-1.6zM12.316 24.774h-3.981c0.232-0.89 1.032-1.548 1.994-1.548s1.755 0.658 1.987 1.548zM13.935 21.677c0 0.271-0.206 0.49-0.471 0.516-0.013 0-0.032 0-0.045 0-0.284 0-0.516-0.232-0.516-0.516s0.232-0.516 0.516-0.516c0.168 0 0.316 0.077 0.406 0.2 0.071 0.090 0.11 0.2 0.11 0.316zM13.419 20.129c-0.413 0-0.781 0.161-1.065 0.426-0.645-0.277-1.323-0.426-2.032-0.426-2.671 0-4.878 2.039-5.136 4.645h-1.032c0.265-3.174 2.929-5.677 6.168-5.677 1.303 0 2.51 0.407 3.51 1.097-0.135-0.039-0.271-0.065-0.413-0.065zM14.845 21.071c0.922 0.987 1.529 2.277 1.645 3.703h-1.032c-0.078-0.794-0.336-1.548-0.761-2.226 0.174-0.252 0.271-0.548 0.271-0.871 0-0.213-0.045-0.419-0.122-0.606zM29.593 22.968c-0.413 0.277-0.69 0.748-0.69 1.29 0 0.181 0.039 0.355 0.097 0.516h-0.122c-0.11-1.568-0.716-2.993-1.671-4.129h0.148c0.361 0 0.716-0.045 1.052-0.122 0.536 0.748 0.929 1.568 1.187 2.445zM27.845 24.774h-1.032c-0.258-2.606-2.465-4.645-5.136-4.645-1.116 0-2.174 0.355-3.058 1.007-0.155-0.31-0.323-0.613-0.516-0.903 1.039-0.736 2.29-1.136 3.574-1.136 3.239 0 5.903 2.503 6.168 5.677zM25.864 19.413c-1.18-0.845-2.626-1.348-4.187-1.348-1.497 0-2.961 0.471-4.181 1.335-0.219-0.264-0.458-0.516-0.703-0.761 1.413-1.039 3.122-1.606 4.884-1.606 1.606 0 3.148 0.458 4.484 1.329-0.142 0.329-0.239 0.684-0.297 1.051zM23.742 14.968c0.284 0 0.516 0.232 0.516 0.516s-0.232 0.516-0.516 0.516-0.516-0.232-0.516-0.516 0.232-0.516 0.516-0.516zM10.8 5.122c-0.155-0.381-0.284-0.71-0.284-1.406 0-0.703 0.129-1.026 0.284-1.407 0.129-0.329 0.277-0.697 0.336-1.277h1.026c-0.045 0.374-0.142 0.619-0.252 0.89-0.168 0.419-0.355 0.89-0.355 1.794 0 0.897 0.187 1.374 0.355 1.793 0.155 0.381 0.284 0.703 0.284 1.407s-0.129 1.026-0.284 1.406c-0.168 0.419-0.355 0.89-0.355 1.794s0.187 1.374 0.355 1.794c0.155 0.381 0.284 0.71 0.284 1.406s-0.129 1.032-0.284 1.406c-0.142 0.349-0.29 0.736-0.342 1.368-0.335-0.045-0.677-0.077-1.019-0.084 0.045-0.381 0.142-0.632 0.252-0.903 0.168-0.419 0.355-0.89 0.355-1.794s-0.187-1.374-0.355-1.794c-0.155-0.381-0.284-0.71-0.284-1.406 0-0.703 0.129-1.026 0.284-1.406 0.168-0.419 0.355-0.89 0.355-1.793s-0.187-1.368-0.355-1.787zM8.735 5.122c-0.155-0.381-0.284-0.71-0.284-1.406 0-0.703 0.129-1.026 0.284-1.407 0.129-0.329 0.277-0.697 0.336-1.277h1.026c-0.045 0.374-0.142 0.619-0.252 0.89-0.168 0.419-0.355 0.89-0.355 1.794 0 0.897 0.187 1.374 0.355 1.793 0.155 0.381 0.284 0.71 0.284 1.407s-0.129 1.026-0.284 1.406c-0.168 0.419-0.355 0.89-0.355 1.794s0.187 1.374 0.355 1.794c0.155 0.381 0.284 0.71 0.284 1.406s-0.129 1.032-0.284 1.406c-0.136 0.335-0.284 0.716-0.336 1.316-0.355 0.032-0.703 0.077-1.045 0.148 0.032-0.484 0.148-0.768 0.271-1.084 0.168-0.419 0.355-0.89 0.355-1.794 0-0.897-0.187-1.374-0.355-1.794-0.155-0.381-0.284-0.71-0.284-1.406 0-0.703 0.129-1.026 0.284-1.406 0.168-0.419 0.355-0.89 0.355-1.793s-0.187-1.368-0.355-1.787zM5.161 16c0.284 0 0.516 0.232 0.516 0.516s-0.232 0.516-0.516 0.516-0.516-0.232-0.516-0.516 0.232-0.516 0.516-0.516zM1.084 16h0.464c1.245 0 2.29 0.89 2.529 2.065h-0.464c-1.245 0-2.29-0.89-2.529-2.065zM27.497 30.968h-22.993l-0.69-2.065h24.374zM28.387 27.871h-24.774c-1.245 0-2.29-0.89-2.529-2.065h29.832c-0.239 1.174-1.284 2.065-2.529 2.065zM30.968 24.258c0 0.284-0.232 0.516-0.516 0.516s-0.516-0.232-0.516-0.516 0.232-0.516 0.516-0.516 0.516 0.232 0.516 0.516zM28.258 19.497c-0.29 0.077-0.593 0.116-0.903 0.116h-0.477c0.058-0.394 0.18-0.768 0.355-1.116 0.593-1.174 1.819-1.987 3.226-1.987h0.477c-0.213 1.452-1.284 2.626-2.677 2.987z"></path>
</svg>
