<!-- Generated by IcoMoon.io -->
<svg version="1.1" xmlns="http://www.w3.org/2000/svg" width="32" height="32" viewBox="0 0 32 32">
<title>spinach</title>
<path fill="#f0bc5e" d="M12.864 25.205l-2.421-0.807c-0.474-0.158-0.97-0.238-1.47-0.238h-0.917c-0.954 0-1.884-0.293-2.666-0.84l-2.044-1.431c-1.242-0.87-1.983-2.291-1.983-3.808v-2.8c0-0.352 0.040-0.703 0.119-1.045l1.449-6.279 7.431 1.393c0.615 0.116 1.201 0.354 1.722 0.701l1.845 1.23c1.293 0.862 2.070 2.313 2.070 3.867v1.364c0 0.22-0.016 0.44-0.047 0.658l-0.257 1.798c-0.142 0.996-0.604 1.918-1.315 2.63v0c-0.649 0.649-1.091 1.476-1.271 2.375l-0.247 1.233z"></path>
<path fill="#f0bc5e" d="M19.136 25.205l2.421-0.807c0.474-0.158 0.97-0.238 1.47-0.238h0.917c0.954 0 1.884-0.293 2.666-0.84l2.044-1.431c1.242-0.87 1.983-2.291 1.983-3.808v-2.8c0-0.352-0.040-0.703-0.119-1.045l-1.449-6.279-7.431 1.393c-0.615 0.116-1.201 0.354-1.722 0.701l-1.845 1.23c-1.293 0.862-2.070 2.313-2.070 3.867v1.364c0 0.22 0.016 0.44 0.047 0.658l0.257 1.798c0.142 0.996 0.604 1.918 1.315 2.63v0c0.649 0.649 1.091 1.476 1.271 2.375l0.247 1.233z"></path>
<path fill="#000" d="M31.026 14.117l-1.562-6.767-5.741 1.076c-0.188-0.566-0.409-1.124-0.675-1.656-0.924-1.848-2.307-3.451-4-4.636l-3.048-2.134-3.048 2.134c-1.693 1.185-3.076 2.788-4 4.636-0.267 0.534-0.484 1.091-0.671 1.657l-5.745-1.077-1.562 6.767c-0.088 0.381-0.132 0.772-0.132 1.163v2.8c0 1.686 0.824 3.269 2.206 4.236l2.044 1.431c0.874 0.612 1.899 0.935 2.966 0.935h0.916c0.444 0 0.883 0.072 1.305 0.211l2.252 0.751c0.563 2.057 0.856 4.191 0.856 6.355h1.045c0-2.386-0.339-4.737-0.995-6.996l0.186-0.93c0.050-0.25 0.13-0.489 0.223-0.722l1.631 1.087v7.561h1.045v-7.551l1.658-1.037c0.082 0.214 0.151 0.434 0.197 0.662l0.186 0.93c-0.655 2.259-0.995 4.61-0.995 6.996h1.045c0-2.164 0.293-4.298 0.856-6.355l2.252-0.751c0.422-0.14 0.862-0.212 1.305-0.212h0.916c1.066 0 2.092-0.323 2.966-0.935l2.044-1.431c1.381-0.967 2.206-2.551 2.206-4.236v-2.8c0-0.392-0.044-0.782-0.132-1.164zM11.296 19.854v-0.398c0-0.997 0.199-1.967 0.592-2.883l-0.961-0.411c-0.292 0.681-0.48 1.389-0.583 2.113-0.001-0.001-0.001-0.002-0.002-0.003l-1.66-2.538v-0.665c0-1.129 0.331-2.223 0.958-3.163l-0.87-0.58c-0.583 0.875-0.947 1.863-1.076 2.896l-2.233-3.415-0.875 0.572 3.544 5.42c-1.283-0.655-2.698-1.003-4.152-1.003v1.045c1.606 0 3.162 0.471 4.498 1.362l0.962 0.641 0.016-0.023 0.014 0.021c0.376 0.575 0.723 1.165 1.046 1.766-1.358-0.755-2.88-1.154-4.445-1.154v1.045c1.606 0 3.162 0.471 4.498 1.362l0.823 0.549c0.287 0.659 0.545 1.329 0.771 2.009l-1.553-0.518c-0.528-0.176-1.079-0.265-1.634-0.265h-0.916c-0.851 0-1.669-0.258-2.366-0.746l-2.044-1.431c-1.102-0.771-1.76-2.035-1.76-3.38v-2.8c0-0.312 0.036-0.624 0.106-0.928l1.337-5.79 6.937 1.3c0.55 0.104 1.064 0.313 1.528 0.623l1.845 1.23c1.151 0.767 1.837 2.050 1.837 3.433v1.363c0 0.193-0.014 0.39-0.042 0.583l-0.257 1.798c-0.125 0.878-0.539 1.706-1.166 2.333-0.539 0.539-0.946 1.183-1.203 1.891-0.425-1.119-0.93-2.209-1.514-3.263zM14.35 22.432c0.121-0.164 0.255-0.32 0.401-0.466 0.277-0.277 0.519-0.587 0.726-0.919v2.136l-1.127-0.751zM16.523 23.216v-2.169c0.206 0.331 0.448 0.641 0.726 0.919 0.163 0.163 0.306 0.339 0.438 0.524l-1.164 0.727zM30.113 18.081c0 1.345-0.658 2.608-1.759 3.38l-2.044 1.431c-0.697 0.488-1.516 0.746-2.367 0.746h-0.916c-0.556 0-1.106 0.089-1.636 0.266l-1.552 0.517c0.226-0.681 0.485-1.35 0.771-2.009l0.823-0.549c1.337-0.891 2.892-1.362 4.498-1.362v-1.045c-1.565 0-3.087 0.398-4.445 1.154 0.324-0.601 0.67-1.191 1.046-1.766l0.014-0.021 0.016 0.023 0.962-0.641c1.336-0.891 2.892-1.362 4.498-1.362v-1.045c-1.454 0-2.87 0.348-4.152 1.002l3.544-5.42-0.875-0.572-2.233 3.415c-0.13-1.032-0.493-2.021-1.076-2.896l-0.87 0.58c0.626 0.94 0.958 2.034 0.958 3.163v0.665l-1.659 2.537c-0.2-1.383-0.742-2.712-1.582-3.832l-0.836 0.627c0.944 1.259 1.464 2.818 1.464 4.391v0.398c-0.584 1.054-1.089 2.145-1.514 3.264-0.257-0.708-0.664-1.352-1.203-1.891-0.627-0.627-1.041-1.456-1.166-2.334l-0.257-1.798c-0.028-0.193-0.042-0.39-0.042-0.583v-1.364c0-1.383 0.686-2.666 1.837-3.433l1.845-1.23-0.58-0.87-1.845 1.23c-0.172 0.114-0.335 0.24-0.489 0.372 0.442-1.123 1.184-2.112 2.159-2.843l-0.628-0.836c-0.993 0.745-1.776 1.721-2.3 2.829v-4.502h-1.045v2.584c-0.62-0.841-1.431-1.532-2.38-2.006l-0.468 0.935c1.233 0.617 2.195 1.662 2.708 2.942l0.14 0.35v1.371c-0.346-0.459-0.765-0.867-1.257-1.195l-1.845-1.23c-0.582-0.388-1.226-0.65-1.915-0.78l-1.142-0.214c0.163-0.472 0.346-0.938 0.569-1.384 0.846-1.692 2.113-3.161 3.664-4.247l2.448-1.714 2.449 1.714c1.551 1.086 2.818 2.554 3.664 4.247 0.223 0.445 0.408 0.912 0.571 1.384l-1.144 0.214c-0.315 0.059-0.626 0.148-0.925 0.264l0.38 0.974c0.238-0.093 0.487-0.164 0.738-0.211l6.937-1.3 1.337 5.79c0.070 0.304 0.106 0.616 0.106 0.928v2.8z"></path>
<path fill="#000" d="M11.359 15.294l0.907 0.52c0.146-0.256 0.313-0.509 0.493-0.75l-0.837-0.627c-0.206 0.276-0.396 0.564-0.563 0.857z"></path>
</svg>
