<!-- Generated by IcoMoon.io -->
<svg version="1.1" xmlns="http://www.w3.org/2000/svg" width="32" height="32" viewBox="0 0 32 32">
<title>steak</title>
<path fill="#f0bc5e" d="M6.194 25.978c-3.589 0-6.194-4.558-6.194-10.839s2.605-10.839 6.194-10.839 6.194 4.558 6.194 10.839-2.605 10.839-6.194 10.839z"></path>
<path fill="#000" d="M32 13.502c0-1.089-0.887-1.976-1.976-1.976-0.527 0-1.024 0.205-1.397 0.579l-0.454 0.454h-4.713l-0.614-0.701c-4.202-4.803-10.272-7.557-16.653-7.557 1.125 0 2.154 0.449 3.036 1.258 4.943 0.719 9.508 3.17 12.84 6.978l0.641 0.732v3.741l-0.641 0.732c-0.518 0.591-1.079 1.153-1.663 1.686-0.863-0.429-1.831-0.676-2.858-0.676-3.266 0-5.965 2.441-6.388 5.592-0.637 0.153-1.28 0.278-1.929 0.373-0.088 0.080-0.178 0.155-0.269 0.229h-8.963v0.516c0 2.561 2.084 4.645 4.645 4.645h22.71c2.561 0 4.645-2.084 4.645-4.645v-0.516h-1.084c-0.082-0.403-0.266-0.764-0.513-1.075 0.029-0.156 0.049-0.313 0.049-0.473 0-1.262-0.913-2.312-2.112-2.533-0.222-1.199-1.271-2.112-2.533-2.112-1.261 0-2.31 0.911-2.533 2.107-0.257 0.047-0.502 0.141-0.733 0.264-0.354-0.432-0.765-0.813-1.218-1.141 0.532-0.498 1.047-1.016 1.524-1.561l0.614-0.701h4.713l0.454 0.454c0.373 0.373 0.869 0.579 1.397 0.579 1.089 0 1.976-0.887 1.976-1.976 0-0.527-0.205-1.024-0.579-1.397l-0.24-0.24 0.24-0.24c0.373-0.373 0.579-0.869 0.579-1.397zM27.355 29.075h-22.71c-1.817 0-3.325-1.348-3.576-3.097h29.862c-0.251 1.749-1.759 3.097-3.576 3.097zM13.948 24.946c0.133-1.871 1.695-3.355 3.6-3.355s3.466 1.483 3.6 3.355zM25.806 23.913c0.672 0 1.24 0.433 1.453 1.032h-2.906c0.213-0.599 0.781-1.032 1.453-1.032zM28.335 24.946c-0.072-0.351-0.217-0.674-0.415-0.957 0.149-0.048 0.305-0.075 0.468-0.075 0.672 0 1.24 0.433 1.453 1.032zM29.387 23.083c-0.308-0.13-0.646-0.202-1-0.202-0.458 0-0.906 0.127-1.298 0.355-0.215-0.125-0.446-0.223-0.694-0.281 0.192-0.638 0.777-1.107 1.476-1.107 0.746 0 1.37 0.53 1.516 1.234zM25.806 19.784c0.699 0 1.285 0.469 1.476 1.106-0.601 0.141-1.118 0.493-1.476 0.974-0.358-0.48-0.875-0.833-1.476-0.974 0.192-0.637 0.777-1.106 1.476-1.106zM23.742 21.849c0.699 0 1.285 0.469 1.476 1.106-0.548 0.129-1.023 0.434-1.375 0.852-0.144-0.651-0.389-1.265-0.714-1.826 0.193-0.083 0.399-0.132 0.613-0.132zM22.955 24.946h-0.774c-0.135-2.441-2.158-4.387-4.632-4.387s-4.497 1.946-4.632 4.387h-0.774c0.136-2.868 2.505-5.161 5.407-5.161s5.27 2.293 5.407 5.161zM30.692 16.109c0.176 0.175 0.276 0.419 0.276 0.667 0 0.52-0.423 0.944-0.944 0.944-0.248 0-0.492-0.101-0.667-0.276l-0.756-0.756h-4.859v-3.097h4.859l0.756-0.756c0.176-0.176 0.419-0.276 0.667-0.276 0.52 0 0.944 0.423 0.944 0.944 0 0.248-0.101 0.492-0.276 0.667l-0.97 0.97z"></path>
<path fill="#000" d="M6.194 23.913c2.47 0 4.129-3.526 4.129-8.774s-1.659-8.774-4.129-8.774-4.129 3.526-4.129 8.774 1.659 8.774 4.129 8.774zM6.194 7.397c2.011 0 3.097 3.989 3.097 7.742s-1.085 7.742-3.097 7.742-3.097-3.989-3.097-7.742 1.085-7.742 3.097-7.742z"></path>
<path fill="#000" d="M5.677 16.593v5.256h1.032v-5.256c0.599-0.214 1.032-0.781 1.032-1.453s-0.433-1.24-1.032-1.453v-5.256h-1.032v5.256c-0.599 0.214-1.032 0.781-1.032 1.453s0.433 1.24 1.032 1.453zM6.194 14.623c0.285 0 0.516 0.231 0.516 0.516s-0.231 0.516-0.516 0.516-0.516-0.231-0.516-0.516c0-0.285 0.231-0.516 0.516-0.516z"></path>
<path fill="#000" d="M31.333 4.968c-0.235-0.235-0.365-0.549-0.365-0.881v-0.089c0-0.333 0.13-0.646 0.365-0.881l0.516-0.516-0.73-0.73-0.516 0.516c-0.43 0.43-0.667 1.002-0.667 1.611v0.089c0 0.609 0.237 1.18 0.667 1.611 0.235 0.235 0.365 0.549 0.365 0.881v0.089c0 0.333-0.13 0.646-0.365 0.881l-1.032 1.032 0.73 0.73 1.032-1.032c0.43-0.43 0.667-1.002 0.667-1.611v-0.089c0-0.609-0.237-1.18-0.667-1.611z"></path>
<path fill="#000" d="M26.99 7.548l-1.032 1.032 0.73 0.73 1.032-1.032c0.43-0.43 0.667-1.002 0.667-1.611v-0.089c0-0.609-0.237-1.18-0.667-1.611-0.235-0.235-0.365-0.549-0.365-0.881v-0.089c0-0.333 0.13-0.646 0.365-0.881l0.516-0.516-0.73-0.73-0.516 0.516c-0.43 0.43-0.667 1.002-0.667 1.611v0.089c0 0.609 0.237 1.18 0.667 1.611 0.235 0.235 0.365 0.549 0.365 0.881v0.089c0 0.332-0.13 0.646-0.365 0.881z"></path>
<path fill="#000" d="M23.377 7.548l-1.032 1.032 0.73 0.73 1.032-1.032c0.43-0.43 0.667-1.002 0.667-1.611v-0.089c0-0.609-0.237-1.18-0.667-1.611-0.235-0.235-0.365-0.549-0.365-0.881v-0.089c0-0.333 0.13-0.646 0.365-0.881l0.516-0.516-0.73-0.73-0.516 0.516c-0.43 0.43-0.667 1.002-0.667 1.611v0.089c0 0.609 0.237 1.18 0.667 1.611 0.235 0.235 0.365 0.549 0.365 0.881v0.089c0 0.332-0.13 0.646-0.365 0.881z"></path>
<path fill="#000" d="M13.784 12.923l1.183-1.183 1.183 1.183 0.73-0.73-1.183-1.183 1.183-1.183-0.73-0.73-1.183 1.183-1.183-1.183-0.73 0.73 1.183 1.183-1.183 1.183z"></path>
<path fill="#000" d="M18.429 17.569l1.183-1.183 1.183 1.183 0.73-0.73-1.183-1.183 1.183-1.183-0.73-0.73-1.183 1.183-1.183-1.183-0.73 0.73 1.183 1.183-1.183 1.183z"></path>
</svg>
