<!-- Generated by IcoMoon.io -->
<svg version="1.1" xmlns="http://www.w3.org/2000/svg" width="32" height="32" viewBox="0 0 32 32">
<title>sushi</title>
<path fill="#f9ba48" d="M27.871 26.839c0 1.306-0.532 2.065-2.065 2.065h-8.258c-1.178 0-2.065-0.886-2.065-2.065v-7.226c0-1.422 0.642-2.065 2.065-2.065h8.258c1.178 0 2.065 0.886 2.065 2.065v7.226z"></path>
<path fill="#f9ba48" d="M12.903 8.774c0 3.42-2.773 5.677-6.194 5.677s-6.194-2.257-6.194-5.677 2.773-5.677 6.194-5.677 6.194 2.257 6.194 5.677z"></path>
<path fill="#343433" d="M6.71 2.581c-3.887 0-6.71 2.605-6.71 6.194v7.226c0 3.589 2.822 6.194 6.71 6.194s6.71-2.605 6.71-6.194v-7.226c0-3.589-2.822-6.194-6.71-6.194zM12.387 16c0 2.99-2.388 5.161-5.677 5.161-3.154 0-5.471-1.997-5.659-4.796 1.16 1.682 3.194 2.731 5.659 2.731v-1.032c-3.29 0-5.677-2.171-5.677-5.161v-0.695c1.157 1.698 3.198 2.76 5.677 2.76s4.52-1.062 5.677-2.76v3.792zM6.71 13.935c-3.29 0-5.677-2.171-5.677-5.161s2.388-5.161 5.677-5.161 5.677 2.171 5.677 5.161-2.388 5.161-5.677 5.161z"></path>
<path fill="#343433" d="M6.71 5.677c-2.308 0-3.742 1.187-3.742 3.097s1.434 3.097 3.742 3.097 3.742-1.187 3.742-3.097-1.434-3.097-3.742-3.097zM8.471 7.099l-2.462 1.407-0.699-1.573c0.509-0.186 1.052-0.224 1.4-0.224 0.431 0 1.165 0.059 1.762 0.39zM4 8.774c0-0.56 0.173-0.968 0.435-1.267l1.449 3.259c-0.865-0.155-1.883-0.626-1.883-1.992zM7.040 10.827l-0.61-1.373 2.791-1.595c0.124 0.249 0.199 0.549 0.199 0.915 0 1.643-1.472 1.993-2.379 2.053z"></path>
<path fill="#343433" d="M31.969 15.668c0.006-0.022 0.012-0.044 0.014-0.052l-0.020-0.005c-0.179-1.272-1.207-2.192-2.544-2.192h-8.258c-0.761 0-1.395 0.216-1.913 0.667l-3.459 3.459c-0.539 0.425-0.821 1.109-0.821 2.067v7.226c0 1.471 1.109 2.581 2.581 2.581h8.258c0.958 0 1.642-0.282 2.067-0.821l3.453-3.453c0.453-0.439 0.673-1.067 0.673-1.919v-7.226c0-0.115-0.019-0.222-0.031-0.332zM30.968 19.033c-0.105 0.409-0.859 3.115-2.581 4.347v-2.46c1.176-0.785 2.013-1.898 2.581-2.908v1.021zM24.498 17.032c-0.315-0.504-1.086-1.636-2.184-2.581h1.291c1.113 0.615 1.494 1.866 1.622 2.581h-0.728zM26.28 17.077c-0.084-0.612-0.338-1.718-1.088-2.626h2.113c-0.682 1.026-0.892 2.054-0.955 2.634-0.023-0.005-0.047-0.005-0.070-0.009zM30.913 15.588c-0.22 0.677-0.977 2.697-2.525 4.041v-0.015c0-0.878-0.401-1.621-1.032-2.082-0.001-0.058-0.007-1.698 1.257-3.079h0.807c0.751 0 1.325 0.46 1.493 1.136zM19.951 14.842c0.186-0.162 0.413-0.266 0.675-0.327 1.16 0.653 2.090 1.768 2.626 2.518h-5.491l2.189-2.19zM25.806 28.387h-8.258c-0.897 0-1.548-0.651-1.548-1.548v-7.226c0-0.571 0.101-0.958 0.345-1.203l0.020 0.020 0.133-0.133c0.243-0.158 0.582-0.232 1.050-0.232h8.258c0.897 0 1.548 0.651 1.548 1.548v7.226c0 0.468-0.073 0.807-0.232 1.050l-0.133 0.133 0.020 0.020c-0.245 0.244-0.632 0.345-1.203 0.345zM30.603 24.409l-2.216 2.216v-2.044c1.177-0.594 2.013-1.689 2.581-2.743v1.388c0 0.566-0.115 0.94-0.365 1.183z"></path>
<path fill="#343433" d="M22.194 20.129h-1.032c-1.423 0-2.581 1.158-2.581 2.581v1.032c0 1.423 1.158 2.581 2.581 2.581h1.032c1.423 0 2.581-1.158 2.581-2.581v-1.032c0-1.423-1.158-2.581-2.581-2.581zM22.737 22.407c0.243-0.12 0.543-0.196 0.911-0.208 0.057 0.161 0.093 0.331 0.093 0.51v0.456c-0.396-0.083-0.889-0.284-1.005-0.758zM21.161 21.161h1.032c0.213 0 0.416 0.043 0.601 0.121-1.21 0.324-1.795 1.255-2.024 2.094-0.387-0.254-0.797-0.436-1.158-0.549v-0.118c-0.001-0.854 0.694-1.548 1.548-1.548zM19.633 23.939c0.522 0.217 1.209 0.629 1.444 1.342-0.747-0.041-1.35-0.611-1.444-1.342zM22.194 25.29h-0.053c-0.077-0.408-0.241-0.763-0.462-1.067 0.004-0.131 0.037-0.586 0.269-1.033 0.38 0.61 1.097 0.902 1.717 1.013-0.197 0.628-0.778 1.088-1.47 1.088z"></path>
<path fill="#343433" d="M17.548 26.839h2.065v1.032h-2.065v-1.032z"></path>
<path fill="#343433" d="M20.645 26.839h1.032v1.032h-1.032v-1.032z"></path>
<path fill="#343433" d="M22.71 26.839h1.032v1.032h-1.032v-1.032z"></path>
</svg>
