<!-- Generated by IcoMoon.io -->
<svg version="1.1" xmlns="http://www.w3.org/2000/svg" width="32" height="32" viewBox="0 0 32 32">
<title>syrup</title>
<path fill="#f0bc5e" d="M19.097 19.919c0-0.655-0.161-1.291-0.45-1.863-6.371-0.088-11.34-1.98-15.815-2.050l-0.929 0.826c-0.882 0.783-1.386 1.907-1.386 3.086v1.949c0 3.537 1.284 6.954 3.613 9.615h11.355c2.329-2.662 3.613-6.078 3.613-9.615v-1.949z"></path>
<path fill="#000" d="M19.613 19.919c0-1.325-0.568-2.591-1.559-3.472l-2.851-2.534 1.011-1.010-0.681-0.682c1.466-0.46 2.532-1.832 2.532-3.447 0-1.992-1.621-3.613-3.613-3.613h-1.032v-1.032h1.032v-4.129h-9.29v4.129h1.032v1.485l-1.498 5.993-1.296 1.297 1.010 1.010-2.851 2.534c-0.99 0.881-1.559 2.146-1.559 3.472v1.949c0 3.663 1.329 7.198 3.741 9.955l0.154 0.177h11.823l0.154-0.177c2.412-2.757 3.741-6.292 3.741-9.955v-1.949zM17.032 8.774c0 1.288-0.952 2.35-2.187 2.541l-1.281-5.122h0.887c1.423 0 2.581 1.158 2.581 2.581zM8.258 3.097v-2.065h1.032v2.065h-1.032zM10.323 1.032h1.032v2.065h-1.032v-2.065zM13.419 3.097h-1.032v-2.065h1.032v2.065zM6.194 1.032h1.032v2.065h-1.032v-2.065zM12.387 4.129v1.032h-5.161v-1.032h5.161zM5.375 12.387h1.851v-1.032h-1.403l1.29-5.161h5.387l1.29 5.161h-5.532v1.032h5.98l0.516 0.516-0.516 0.516h-8.863l-0.516-0.516 0.516-0.516zM15.247 30.968h-10.882c-0.281-0.332-0.544-0.678-0.792-1.032h12.466c-0.248 0.355-0.51 0.7-0.792 1.032zM18.581 21.868c0 2.487-0.659 4.909-1.884 7.035h-13.78c-1.226-2.125-1.884-4.548-1.884-7.035v-1.949c0-1.031 0.442-2.015 1.213-2.7l3.112-2.767h8.898l3.112 2.766c0.771 0.685 1.213 1.669 1.213 2.7v1.95z"></path>
<path fill="#000" d="M3.617 18.761l1.253-1.114-0.686-0.771-1.253 1.114c-0.55 0.489-0.866 1.192-0.866 1.929v1.949c0 0.773 0.069 1.551 0.206 2.312l1.016-0.183c-0.126-0.7-0.19-1.417-0.19-2.129v-1.949c0-0.442 0.189-0.864 0.52-1.158z"></path>
<path fill="#000" d="M6.289 16.386l-0.756 0.672-0.686-0.771 0.756-0.672 0.686 0.771z"></path>
<path fill="#000" d="M12.387 19.432l-2.581-3.226-2.581 3.226v1.1l-2.998-0.6 2.116 4.232 2.91 0.97c-0.171 0.967-1.013 1.705-2.028 1.705v1.032c1.579 0 2.883-1.188 3.071-2.716l2.972-0.991 2.116-4.232-2.998 0.6v-1.1zM13.518 21.358l-0.981 1.962-2.215 0.738v-3.413h-1.032v3.413l-2.215-0.738-0.981-1.962 2.163 0.433v-1.997l1.548-1.935 1.548 1.935v1.997l2.163-0.433z"></path>
<path fill="#000" d="M30.873 28.903c0.058-0.162 0.095-0.334 0.095-0.516 0-0.854-0.695-1.548-1.548-1.548h-0.541c-0.123-1.94-0.929-3.749-2.316-5.135l-1.788-1.789v2.795c0 0.734-0.436 1.395-1.11 1.684l-0.766 0.329c-0.893 0.382-1.513 1.184-1.684 2.117h-0.053c-0.854 0-1.548 0.695-1.548 1.548 0 0.182 0.037 0.354 0.095 0.516h-1.127v1.246l1.851 1.85h9.718l1.851-1.851v-1.246h-1.127zM20.645 28.387c0-0.285 0.232-0.516 0.516-0.516h2.581v-1.032h-1.474c0.151-0.516 0.524-0.949 1.035-1.168l0.766-0.329c1.055-0.451 1.736-1.485 1.736-2.632v-0.302l0.026 0.026c1.192 1.192 1.892 2.741 2.013 4.405h-3.071v1.032h4.645c0.284 0 0.516 0.231 0.516 0.516s-0.232 0.516-0.516 0.516h-8.258c-0.284 0-0.516-0.231-0.516-0.516zM29.722 30.968h-8.863l-1.032-1.032h10.927l-1.032 1.032z"></path>
</svg>
