<!-- Generated by IcoMoon.io -->
<svg version="1.1" xmlns="http://www.w3.org/2000/svg" width="32" height="32" viewBox="0 0 32 32">
<title>taco</title>
<path fill="#f9ba48" d="M27.137 8.356l-0.599 0.836-0.294 0.108c-0.434 0.036-0.939-0.088-1.466-0.526-2.034-1.693-4.578-2.591-7.221-2.581-3.613 0.010-7.799 1.605-10.833 4.645-1.884 1.884-3.489 4.588-4.217 7.319l-0.274 0.274c-0.914-0.914-0.914-2.4 0-3.313 0.341-0.346 0.361-0.573 0.361-2.214 0-1.094 0.49-1.719 1.27-2.214 0.175-0.108 0.361-0.212 0.563-0.31 0.49-0.248 1.264-1.166 1.264-1.605 0-1.311 0.754-2.064 2.064-2.064 0.604 0 1.172 0 1.574-1.197 0.222-0.666 0.65-1.166 1.213-1.399 0.495-0.201 1.068-0.181 1.569 0.072 0.361 0.181 0.805 0.227 1.208 0.134 0.366-0.088 0.604-0.279 0.676-0.423 0.315-0.625 0.815-1.017 1.419-1.115 0.542-0.088 1.094 0.083 1.471 0.465 0.908 0.908 2.142 0.599 2.503 0.423 0.754-0.382 1.332-0.325 1.683-0.212 0.454 0.144 0.836 0.485 1.074 0.955 0.351 0.707 1.001 0.748 2.126 0.759 1.239 0.010 2.049 0.836 2.049 2.054 0 0.206 0.382 0.821 0.815 1.13z"></path>
<path fill="#343433" d="M26.689 4.796c-2.674-2.675-6.83-3.222-7.006-3.244l-0.128 1.024c0.040 0.005 3.987 0.529 6.405 2.95l0.73-0.73z"></path>
<path fill="#343433" d="M17.556 7.226c-3.364 0-6.971 1.6-9.649 4.28-1.131 1.131-2.622 3.124-3.192 4.263l0.923 0.462c0.469-0.939 1.851-2.847 2.998-3.995 2.452-2.454 5.869-3.978 8.919-3.978v-1.032z"></path>
<path fill="#343433" d="M24.11 9.441c-0.642-0.643-3.373-2.216-5.523-2.216v1.032c1.86 0 4.317 1.437 4.793 1.913l0.73-0.73z"></path>
<path fill="#343433" d="M28.752 4.28c-2.798-2.8-6.67-4.28-11.196-4.28-4.182 0-7.276 1.389-10.681 4.796-2.234 2.236-3.424 5.46-3.735 6.395l0.98 0.327c0.604-1.815 1.837-4.342 3.485-5.992 3.231-3.235 6.022-4.494 9.951-4.494 4.308 0 7.829 1.338 10.466 3.978 1.163 1.164 1.396 1.908 1.396 2.732 0 0.81-0.548 1.882-1.396 2.732l-19.6 19.613c-0.393 0.393-0.88 0.881-1.183 0.882-0.055-0.012-0.3 0-0.666-0.365-2.303-2.305-3.975-6.276-3.975-9.441 0-3.268 1.805-7.27 4.491-9.958 2.759-2.761 6.769-4.482 10.468-4.494 0.011 0 0.022 0 0.033 0 2.517 0 4.951 0.873 6.856 2.461 1.221 1.018 2.525 0.716 3.274-0.032 0.772-0.773 1.039-2.19 0.013-3.296l-0.756 0.702c0.593 0.639 0.456 1.422 0.013 1.865-0.14 0.139-0.889 0.796-1.883-0.032-2.091-1.742-4.759-2.7-7.517-2.7-0.012 0-0.024 0-0.036 0-3.962 0.012-8.251 1.85-11.195 4.796-2.867 2.869-4.794 7.164-4.794 10.687 0 3.468 1.758 7.651 4.277 10.171 0.449 0.449 0.906 0.668 1.395 0.668 0.001 0 0.002 0 0.003 0 0.73-0.001 1.331-0.602 1.912-1.184l19.6-19.613c0.821-0.822 1.699-2.163 1.699-3.462 0-1.268-0.476-2.238-1.699-3.462z"></path>
<path fill="#343433" d="M7.24 27.871c0.853 0 1.548-0.695 1.548-1.548s-0.695-1.548-1.548-1.548-1.548 0.695-1.548 1.548 0.695 1.548 1.548 1.548zM7.24 25.806c0.284 0 0.516 0.231 0.516 0.516s-0.231 0.516-0.516 0.516-0.516-0.231-0.516-0.516 0.232-0.516 0.516-0.516z"></path>
<path fill="#343433" d="M7.241 19.613c0 0.57-0.462 1.032-1.032 1.032s-1.032-0.462-1.032-1.032c0-0.57 0.462-1.032 1.032-1.032s1.032 0.462 1.032 1.032z"></path>
<path fill="#343433" d="M11.366 15.484c0-1.139-0.926-2.064-2.063-2.064v1.032c0.569 0 1.031 0.463 1.031 1.032s-0.462 1.032-1.031 1.032-1.031-0.463-1.031-1.032h-1.032c0 1.139 0.926 2.064 2.063 2.064s2.063-0.926 2.063-2.064z"></path>
<path fill="#343433" d="M14.977 20.645c0.853 0 1.548-0.695 1.548-1.548s-0.695-1.548-1.548-1.548-1.548 0.695-1.548 1.548 0.694 1.548 1.548 1.548zM14.977 18.58c0.284 0 0.516 0.231 0.516 0.516s-0.231 0.516-0.516 0.516-0.516-0.231-0.516-0.516 0.231-0.516 0.516-0.516z"></path>
<path fill="#343433" d="M18.588 14.451c1.138 0 2.063-0.926 2.063-2.064h-1.032c0 0.569-0.462 1.032-1.031 1.032s-1.031-0.463-1.031-1.032 0.462-1.032 1.031-1.032v-1.032c-1.138 0-2.063 0.926-2.063 2.064s0.926 2.064 2.063 2.064z"></path>
<path fill="#343433" d="M11.882 22.193v-1.032c-1.138 0-2.063 0.926-2.063 2.064s0.926 2.064 2.063 2.064v-1.032c-0.569 0-1.031-0.463-1.031-1.032s0.463-1.032 1.031-1.032z"></path>
<path fill="#f9ba48" d="M5.161 11.355v-1.548h-0.055c-0.225 0.251-0.475 0.47-0.678 0.573-0.201 0.098-0.387 0.201-0.563 0.31-0.493 0.313-0.869 0.679-1.080 1.182h1.859l0.516-0.516z"></path>
</svg>
