<!-- Generated by IcoMoon.io -->
<svg version="1.1" xmlns="http://www.w3.org/2000/svg" width="32" height="32" viewBox="0 0 32 32">
<title>tankard</title>
<path fill="#f0bc5e" d="M7.226 21.161v8.258h11.355v-6.71c-5.161 0-7.742-1.548-11.355-1.548z"></path>
<path fill="#f0bc5e" d="M7.226 13.935h11.355v2.065h-11.355v-2.065z"></path>
<path fill="#000" d="M11.737 10.227l-0.598-0.842c-0.321 0.228-0.618 0.489-0.884 0.778l0.759 0.7c0.218-0.235 0.461-0.45 0.723-0.636z"></path>
<path fill="#000" d="M25.806 10.839v1.032h-1.772l-1.407-2.344-0.262-0.405c0.331-0.216 0.716-0.347 1.118-0.347h0.774v-1.032h-0.774c-0.969 0-1.895 0.463-2.477 1.239-0.388 0.517-1.005 0.826-1.652 0.826h-1.482c-0.604-0.935-1.413-1.742-2.389-2.352v-6.422h1.032v-1.032h-7.226v1.032h1.032v6.421c-2.088 1.294-3.429 3.525-3.595 5.966h-1.050v1.032h1.032v14.692l-0.46 0.307c-0.681 0.454-1.089 1.214-1.089 2.034v0.516h15.484v-0.516c0-0.82-0.407-1.58-1.089-2.034l-0.46-0.307v-1.043c0.305 0.178 0.654 0.287 1.032 0.287 1.139 0 2.065-0.926 2.065-2.065v-0.516h-1.032v0.516c0 0.569-0.463 1.032-1.032 1.032s-1.032-0.463-1.032-1.032v-0.27c0-0.318 0.151-0.624 0.403-0.818l4.823-3.71c0.929-0.714 1.484-1.841 1.484-3.013v-0.259c0-1.252-0.612-2.361-1.548-3.054v-2.295h1.548v1.032h1.032v-3.097h-1.033zM19.355 10.839c0.155 0 0.308-0.016 0.459-0.039l1.348 2.246v1.503c-0.692 0.156-1.329 0.502-1.843 1.016l-0.221 0.221v-1.335h1.032v-1.032h-1.050c-0.061-0.901-0.286-1.772-0.647-2.581h0.922zM18.064 28.903h-10.323v-12.387h1.032v9.032c0 1.281 1.042 2.323 2.323 2.323 0.733 0 1.381-0.348 1.806-0.881 0.426 0.532 1.073 0.881 1.806 0.881 1.281 0 2.323-1.042 2.323-2.323v-9.032h1.032v12.387zM10.763 16.516c0.268 0.088 1.624 0.63 1.624 2.581v0.060c-0.274 0.058-0.541 0.156-0.789 0.303l0.525 0.889c0.247-0.146 0.51-0.22 0.78-0.22 0.854 0 1.548 0.695 1.548 1.548 0 0.27-0.074 0.533-0.22 0.78l0.889 0.525c0.237-0.403 0.363-0.855 0.363-1.305 0-1.246-0.888-2.289-2.065-2.529v-0.052c0-1.95 1.35-2.491 1.624-2.581h0.956v9.032c0 0.711-0.579 1.29-1.29 1.29s-1.29-0.579-1.29-1.29v-1.351c0.274-0.058 0.541-0.156 0.789-0.303l-0.525-0.889c-0.247 0.146-0.51 0.22-0.78 0.22-0.854 0-1.548-0.695-1.548-1.548 0-0.27 0.074-0.533 0.22-0.78l-0.889-0.525c-0.237 0.403-0.363 0.855-0.363 1.305 0 1.246 0.888 2.289 2.065 2.529v1.342c0 0.711-0.579 1.29-1.29 1.29s-1.29-0.579-1.29-1.29v-9.032h0.956zM12.529 16.516h0.748c-0.135 0.156-0.261 0.333-0.374 0.529-0.114-0.196-0.239-0.373-0.374-0.529zM11.355 4.388c0.182-0.109 0.522-0.259 1.032-0.259 0.433 0 0.754 0.107 1.127 0.232 0.276 0.092 0.581 0.189 0.937 0.243v2.622h-3.097v-2.838zM14.451 1.032v2.524c-0.206-0.043-0.401-0.105-0.611-0.175-0.4-0.133-0.854-0.284-1.453-0.284-0.413 0-0.753 0.072-1.032 0.166v-2.231h3.097zM10.978 8.258h3.851c1.849 1.096 3.033 3.034 3.202 5.161h-8.187c0.079-0.685 0.308-1.346 0.687-1.933l-0.867-0.561c-0.488 0.755-0.77 1.609-0.853 2.493h-1.035c0.168-2.118 1.343-4.050 3.203-5.161zM18.064 14.452v1.032h-10.323v-1.032h10.323zM19.516 30.968h-13.225c0.104-0.265 0.287-0.496 0.532-0.659l0.56-0.373h11.043l0.559 0.373c0.244 0.163 0.427 0.394 0.532 0.659zM24.774 18.252v0.259c0 0.854-0.404 1.674-1.081 2.195l-4.597 3.536v-6.996l0.951-0.951c0.523-0.523 1.218-0.811 1.958-0.811 1.527 0 2.769 1.242 2.769 2.769zM22.193 14.461v-1.701l-1.377-2.295c0.295-0.158 0.565-0.361 0.796-0.607l0.138 0.214 1.475 2.458v2.126c-0.327-0.111-0.673-0.177-1.032-0.195z"></path>
</svg>
