<!-- Generated by IcoMoon.io -->
<svg version="1.1" xmlns="http://www.w3.org/2000/svg" width="32" height="32" viewBox="0 0 32 32">
<title>tea</title>
<path fill="#f0bc5e" d="M8 19.097h16.516v3.097h-16.516v-3.097z"></path>
<path fill="#f0bc5e" d="M18.323 15.484h-4.129c-0.854 0-1.548-0.695-1.548-1.548v-4.887l3.097-2.339h1.032l3.097 2.339v4.887c0 0.854-0.695 1.548-1.548 1.548z"></path>
<path fill="#000" d="M27.082 17.548h-0.156c-0.693 0-1.345 0.269-1.835 0.76l-0.058 0.058v-1.85h-17.548v7.217c0 0.766 0.192 1.528 0.555 2.202l2.71 5.033h-1.717v1.032h14.452v-1.032h-1.682l2.546-4.364c0.329 0.453 0.858 0.751 1.459 0.751 0.996 0 1.806-0.81 1.806-1.806v-0.258h-1.032v0.258c0 0.427-0.347 0.774-0.774 0.774s-0.774-0.347-0.774-0.774v-0.143c0-0.241 0.109-0.463 0.299-0.612l3.344-2.601c0.637-0.495 1.002-1.242 1.002-2.049 0.001-1.431-1.164-2.596-2.595-2.596zM24 17.548v1.548h-13.419v1.032h13.419v1.548h-15.484v-1.548h1.032v-1.032h-1.032v-1.548h15.484zM20.607 30.968h-8.686l-2.973-5.522c-0.282-0.524-0.431-1.116-0.431-1.713v-1.023h15.484v1.464c0 0.639-0.17 1.269-0.492 1.82l-2.901 4.973zM28.042 21.379l-3.010 2.34v-3.892l0.788-0.788c0.292-0.292 0.695-0.458 1.106-0.458h0.156c0.862 0 1.563 0.701 1.563 1.563 0 0.486-0.22 0.936-0.603 1.235z"></path>
<path fill="#000" d="M11.097 12.129v-8.774c0-1.281 1.042-2.323 2.323-2.323s2.323 1.042 2.323 2.323v3.355h1.032v-3.355c0-1.85-1.505-3.355-3.355-3.355s-3.355 1.505-3.355 3.355v8.774c0 1.281-1.042 2.323-2.323 2.323s-2.323-1.042-2.323-2.323v-4.903h2.065v-4.645c0-1.423-1.158-2.581-2.581-2.581s-2.581 1.158-2.581 2.581v4.645h2.065v4.903c0 1.85 1.505 3.355 3.355 3.355s3.355-1.505 3.355-3.355zM3.355 2.581c0-0.854 0.695-1.548 1.548-1.548s1.548 0.695 1.548 1.548v3.613h-3.097v-3.613z"></path>
<path fill="#000" d="M14.71 12.387h1.032v1.032h-1.032v-1.032z"></path>
<path fill="#000" d="M16.774 12.387h1.032v1.032h-1.032v-1.032z"></path>
<path fill="#000" d="M16.774 10.323h1.032v1.032h-1.032v-1.032z"></path>
<path fill="#000" d="M14.71 10.323h1.032v1.032h-1.032v-1.032z"></path>
<path fill="#000" d="M4.387 2.065h1.032v1.032h-1.032v-1.032z"></path>
</svg>
