<!-- Generated by IcoMoon.io -->
<svg version="1.1" xmlns="http://www.w3.org/2000/svg" width="32" height="32" viewBox="0 0 32 32">
<title>toast</title>
<path fill="#333" d="M32 5.161c0-3.042-3.808-5.161-7.226-5.161h-7.226c-4.483 0-7.677 1.736-9.764 5.3-0.012 0.020-0.024 0.039-0.036 0.058-0.012 0.022-0.026 0.041-0.039 0.063l0.003 0.002c-0.213 0.37-0.352 0.73-0.44 1.051-2.968 0.665-5.401 2.5-6.748 5.193l0.923 0.462c1.558-3.116 4.605-4.903 8.358-4.903h7.742c3.368 0 5.746 1.423 6.204 3.714 0.282 1.411-0.081 2.727-0.429 3.21-0.411 0.57-1.948 1.996-2.507 2.498l0.691 0.768c0.031-0.028 0.314-0.283 0.687-0.632v9.538c0 0.666-0.636 1.453-0.881 1.7l-2.065 2.065 0.73 0.73 2.065-2.065c0.12-0.121 1.183-1.218 1.183-2.429v-0.516h1.548c0.89 0 1.816-0.444 2.421-1.192l0.008 0.008 2.065-2.065c0.121-0.121 1.183-1.218 1.183-2.429v-10.534c0.39-0.392 0.746-0.773 0.935-1.035 0.57-0.792 0.613-1.86 0.613-3.398zM24.774 24.774h-1.548v-8.986c0.39-0.392 0.746-0.773 0.935-1.035 0.547-0.76 0.93-2.382 0.603-4.015-0.561-2.803-3.326-4.544-7.216-4.544h-7.742c-0.465 0-0.921 0.030-1.368 0.082 0.755-1.721 2.857-2.662 6.013-2.662h8.258c2.313 0 6.194 0.536 6.194 4.129 0 1.324-0.206 2.050-0.63 2.503-0.079 0.072-0.15 0.136-0.21 0.19-0.238 0.183-0.527 0.315-0.872 0.43l-0.353 0.118v11.727c0 1.217-1.088 2.065-2.065 2.065zM28.538 21.829l-0.667 0.667v-10.782c0.332-0.137 0.612-0.304 0.856-0.497l0.006 0.006c0.006-0.006 0.026-0.024 0.052-0.047 0.035-0.029 0.068-0.061 0.101-0.092 0.123-0.113 0.311-0.285 0.534-0.493v9.539c0 0.666-0.636 1.453-0.881 1.7zM30.549 7.957c-0.129 0.179-0.375 0.446-0.661 0.739 0.029-0.295 0.048-0.607 0.048-0.954 0-3.28-2.634-5.161-7.226-5.161h-8.258c-1.351 0-2.453 0.157-3.353 0.415 1.692-1.316 3.827-1.964 6.45-1.964h7.226c3.988 0 6.194 2.441 6.194 4.129 0 1.499-0.062 2.3-0.419 2.795z"></path>
<path fill="#f9ba48" d="M17.548 32h-12.387c-1.465 0-3.097-1.060-3.097-2.581v-11.514c-1.461-0.616-2.065-1.796-2.065-3.97 0-3.28 2.634-5.161 7.226-5.161h8.258c4.592 0 7.226 1.881 7.226 5.161 0 2.235-0.567 3.353-2.065 3.972v10.996c0 1.852-1.602 3.097-3.097 3.097z"></path>
<path fill="#333" d="M22.71 4.645v1.032c3.202 0 3.613 1.103 3.613 2.065h1.032c0-2.055-1.563-3.097-4.645-3.097z"></path>
<path fill="#333" d="M20.645 4.645h1.032v1.032h-1.032v-1.032z"></path>
<path fill="#333" d="M18.581 4.645h1.032v1.032h-1.032v-1.032z"></path>
<path fill="#333" d="M16.667 15.119l-2.474 2.474-2.109-2.109 2.216-2.216-0.73-0.73-2.216 2.216-2.216-2.216-0.73 0.73 2.216 2.216-2.109 2.109-2.474-2.474-0.73 0.73 2.474 2.474-0.925 0.925 0.73 0.73 0.925-0.925 2.109 2.109-2.367 2.367-2.216-2.216-0.73 0.73 2.216 2.216-2.216 2.216 0.73 0.73 2.216-2.216 4.28 4.28 0.73-0.73-1.183-1.183 2.367-2.367 2.216 2.216 0.73-0.73-2.216-2.216 2.216-2.216-0.73-0.73-2.216 2.216-2.367-2.367 2.109-2.109 1.958 1.958 0.73-0.73-1.958-1.958 2.474-2.474-0.73-0.73zM13.722 24.258l-2.367 2.367-2.367-2.367 2.367-2.367 2.367 2.367zM11.355 20.431l-2.109-2.109 2.109-2.109 2.109 2.109-2.109 2.109z"></path>
<path fill="#333" d="M10.688 28.752l-1.032 1.032-0.73-0.73 1.032-1.032 0.73 0.73z"></path>
</svg>
