<!-- Generated by IcoMoon.io -->
<svg version="1.1" xmlns="http://www.w3.org/2000/svg" width="32" height="32" viewBox="0 0 32 32">
<title>tomato</title>
<path fill="#f0bc5e" d="M18.581 29.161c-3.415 0-6.194-2.778-6.194-6.194s2.778-6.194 6.194-6.194c0.557 0 1.126 0.083 1.691 0.246 0.221 0.064 0.373 0.266 0.373 0.496v10.903c0 0.23-0.152 0.432-0.373 0.496-0.565 0.163-1.134 0.246-1.691 0.246z"></path>
<path fill="#f0bc5e" d="M23.742 29.161c-0.557 0-1.126-0.083-1.691-0.246-0.221-0.064-0.373-0.266-0.373-0.496v-10.903c0-0.23 0.152-0.432 0.373-0.496 0.565-0.164 1.134-0.246 1.691-0.246 3.415 0 6.194 2.778 6.194 6.194s-2.778 6.194-6.194 6.194z"></path>
<path fill="#000" d="M23.742 14.71c-0.791 0-1.581 0.123-2.354 0.356l-0.046-0.086c-0.244-0.449-0.518-0.879-0.819-1.29 0.26 0.077 0.521 0.149 0.779 0.235l0.728 0.243c0.235 0.077 0.48-0.026 0.602-0.239 0.122-0.212 0.071-0.488-0.113-0.651-2.396-2.131-5.337-3.525-8.518-4.035l-0.286-0.038c-0.515-0.543-0.812-1.266-0.812-2.033 0-1.731 0.454-3.442 1.314-4.946l1.124-1.968h-3.23l-0.387 0.581c-1.255 1.882-1.917 4.071-1.917 6.333 0 0.768-0.298 1.491-0.814 2.035-3.281 0.466-6.322 1.865-8.815 4.083-0.185 0.162-0.23 0.432-0.108 0.645s0.378 0.31 0.612 0.233l0.728-0.243c0.264-0.088 0.531-0.162 0.796-0.24-1.423 1.935-2.204 4.26-2.204 6.702 0 6.261 5.094 11.355 11.355 11.355 1.497 0 2.953-0.287 4.355-0.866l0.205-0.1c0.838 0.287 1.732 0.45 2.665 0.45 0.869 0 1.736-0.141 2.581-0.421 0.845 0.279 1.712 0.421 2.581 0.421 4.553 0 8.258-3.705 8.258-8.258s-3.705-8.258-8.258-8.258zM20.068 14.854c-0.493-0.092-0.99-0.144-1.487-0.144-0.318 0-0.631 0.022-0.94 0.058-0.503-0.805-1.159-1.495-1.944-2.018 1.044 0.095 2.078 0.263 3.101 0.489 0.477 0.496 0.903 1.037 1.271 1.615zM10.839 7.172c0-2.057 0.603-4.049 1.744-5.76l0.081-0.121h0.899l-0.242 0.423c-0.948 1.659-1.449 3.547-1.449 5.458 0 0.963 0.344 1.877 0.952 2.589l-1.468 0.293-1.468-0.294c0.608-0.713 0.952-1.626 0.952-2.589zM7.985 10.433l3.37 0.674 3.374-0.675c1.692 0.37 3.304 1.012 4.782 1.905-1.992-0.482-4.033-0.725-6.091-0.725-0.239 0-0.447 0.165-0.503 0.398s0.057 0.473 0.271 0.58l1.321 0.66c0.811 0.406 1.496 1.001 2.025 1.726-0.121 0.031-0.244 0.057-0.362 0.093-1.423-1.033-2.985-1.843-4.654-2.398-0.106-0.035-0.221-0.035-0.327 0-2.006 0.668-3.846 1.686-5.475 3.025 0.545-1.043 1.409-1.908 2.484-2.446l1.321-0.66c0.214-0.107 0.327-0.347 0.271-0.58s-0.264-0.398-0.503-0.398c-2.062 0-4.105 0.244-6.101 0.727 1.479-0.896 3.096-1.537 4.795-1.907zM11.355 30.71c-5.692 0-10.323-4.631-10.323-10.323 0-2.684 1.025-5.218 2.882-7.149 1.022-0.226 2.057-0.393 3.1-0.489-1.519 1.018-2.574 2.633-2.878 4.457-0.036 0.214 0.067 0.427 0.255 0.534 0.079 0.045 0.167 0.067 0.254 0.067 0.12 0 0.24-0.042 0.335-0.124l1.135-0.973c1.549-1.329 3.311-2.339 5.239-3.003 1.297 0.447 2.521 1.065 3.662 1.823-2.771 1.334-4.694 4.162-4.694 7.438 0 3.102 1.721 5.807 4.258 7.219-1.037 0.342-2.117 0.523-3.225 0.523zM23.742 30.194c-0.81 0-1.621-0.141-2.408-0.42l-0.172-0.061-0.172 0.061c-0.788 0.279-1.598 0.421-2.408 0.421-3.985 0-7.226-3.241-7.226-7.226s3.241-7.226 7.226-7.226c0.81 0 1.621 0.141 2.408 0.42l0.172 0.061 0.172-0.061c0.788-0.279 1.598-0.421 2.408-0.421 3.985 0 7.226 3.241 7.226 7.226s-3.241 7.226-7.226 7.226z"></path>
<path fill="#000" d="M23.742 19.355h1.032v1.032h-1.032v-1.032z"></path>
<path fill="#000" d="M27.204 20.753l-0.516 0.516-0.73-0.73 0.516-0.516 0.73 0.73z"></path>
<path fill="#000" d="M26.687 25.185l-0.73 0.73-0.516-0.516 0.73-0.73 0.516 0.516z"></path>
<path fill="#000" d="M23.742 25.548h1.032v1.032h-1.032v-1.032z"></path>
<path fill="#000" d="M26.323 22.452h1.032v1.032h-1.032v-1.032z"></path>
<path fill="#000" d="M17.548 19.355h1.032v1.032h-1.032v-1.032z"></path>
<path fill="#000" d="M16.364 20.538l-0.73 0.73-0.516-0.516 0.73-0.73 0.516 0.516z"></path>
<path fill="#000" d="M16.881 25.397l-0.516 0.516-0.73-0.73 0.516-0.516 0.73 0.73z"></path>
<path fill="#000" d="M17.548 25.548h1.032v1.032h-1.032v-1.032z"></path>
<path fill="#000" d="M14.968 22.452h1.032v1.032h-1.032v-1.032z"></path>
</svg>
