<!-- Generated by IcoMoon.io -->
<svg version="1.1" xmlns="http://www.w3.org/2000/svg" width="32" height="32" viewBox="0 0 32 32">
<title>tongs</title>
<path fill="#ffa64d" d="M6.194 22.71h-1.032v9.29h1.032c0.854 0 1.548-0.695 1.548-1.548v-6.194c0-0.854-0.695-1.548-1.548-1.548z"></path>
<path fill="#ffa64d" d="M12.387 22.71c-0.854 0-1.548 0.695-1.548 1.548v6.194c0 0.854 0.695 1.548 1.548 1.548h1.032v-9.29h-1.032z"></path>
<path fill="#ffa64d" d="M27.355 10.839h-4.129l-0.996-6.475c-0.024-0.156-0.036-0.313-0.036-0.471v-0.279c0-1.71 1.386-3.097 3.097-3.097v0c1.71 0 3.097 1.386 3.097 3.097v0.279c0 0.158-0.012 0.315-0.036 0.471l-0.996 6.476z"></path>
<path fill="#333" d="M9.29 2.065c-0.854 0-1.548 0.695-1.548 1.548s0.695 1.548 1.548 1.548 1.548-0.695 1.548-1.548-0.695-1.548-1.548-1.548zM9.29 4.129c-0.285 0-0.516-0.231-0.516-0.516s0.231-0.516 0.516-0.516 0.516 0.231 0.516 0.516-0.231 0.516-0.516 0.516z"></path>
<path fill="#333" d="M10.839 24.774h1.032v1.032h-1.032v-1.032z"></path>
<path fill="#333" d="M10.839 26.839h1.032v1.032h-1.032v-1.032z"></path>
<path fill="#333" d="M10.839 28.903h1.032v1.032h-1.032v-1.032z"></path>
<path fill="#333" d="M13.914 6.075l-0.465-2.604c-0.365-2.011-2.115-3.471-4.159-3.471s-3.794 1.46-4.158 3.471l-0.474 2.609-3.095 12.897-0.014 10.070 1.772 2.954h2.357v-13.353l2.472-9.477c0.371 0.078 0.753 0.12 1.141 0.12 0.385 0 0.766-0.044 1.14-0.124l2.473 9.481v13.353h2.357l1.772-2.954v-9.949l-3.111-13.023-0.007 0.002zM4.662 18.451l-0.017 12.517h-0.74l-1.324-2.207v-9.603l2.767-11.531 0.053 0.053c0.514 0.514 1.111 0.912 1.762 1.185l-2.501 9.587zM6.131 6.95l-0.454-0.454v-0.256l0.47-2.585c0.276-1.519 1.598-2.623 3.143-2.623s2.867 1.103 3.143 2.623l0.47 2.585v0.256l-0.454 0.454c-0.831 0.831-1.983 1.308-3.159 1.308-1.193 0-2.315-0.465-3.159-1.308zM16 28.76l-1.324 2.207h-0.74v-12.387l-2.52-9.722c0.654-0.275 1.257-0.673 1.764-1.179l0.053-0.053 2.768 11.531v9.603z"></path>
<path fill="#333" d="M6.71 24.774h1.032v1.032h-1.032v-1.032z"></path>
<path fill="#333" d="M6.71 26.839h1.032v1.032h-1.032v-1.032z"></path>
<path fill="#333" d="M6.71 28.903h1.032v1.032h-1.032v-1.032z"></path>
<path fill="#333" d="M28.903 12.387h-1.032v-1.511l0.99-6.436c0.028-0.182 0.042-0.366 0.042-0.549v-0.279c0-1.992-1.621-3.613-3.613-3.613s-3.613 1.621-3.613 3.613v0.279c0 0.183 0.014 0.367 0.042 0.55l0.99 6.435v1.51h-1.032c-0.854 0-1.548 0.695-1.547 1.579l1.061 18.034h1.785l0.551-13.378c0.093-0.907 0.851-1.59 1.763-1.59s1.67 0.683 1.761 1.558l0.553 13.41h1.785l1.062-18.065c0-0.854-0.695-1.548-1.548-1.548zM22.71 3.613c0-1.423 1.158-2.581 2.581-2.581s2.581 1.158 2.581 2.581v0.279c0 0.131-0.010 0.263-0.030 0.393l-0.929 6.038h-3.244l-0.929-6.037c-0.020-0.131-0.030-0.263-0.030-0.394v-0.279zM23.742 11.355h3.097v1.032h-3.097v-1.032zM28.522 29.181l-0.441-10.665c-0.149-1.435-1.348-2.517-2.791-2.517s-2.642 1.082-2.792 2.549l-0.439 10.633-0.898-15.246c0-0.285 0.231-0.516 0.516-0.516h7.226c0.285 0 0.516 0.231 0.517 0.486l-0.899 15.276z"></path>
</svg>
