<!-- Generated by IcoMoon.io -->
<svg version="1.1" xmlns="http://www.w3.org/2000/svg" width="32" height="32" viewBox="0 0 32 32">
<title>user</title>
<path d="M16 16.945c3.962 0 7.175-3.76 7.175-8.398 0-6.432-3.212-8.398-7.175-8.398s-7.175 1.966-7.175 8.398c0 4.638 3.212 8.398 7.175 8.398z"></path>
<path d="M31.844 29.306l-3.62-8.154c-0.166-0.373-0.456-0.683-0.818-0.871l-5.618-2.924c-0.124-0.064-0.274-0.052-0.385 0.032-1.589 1.202-3.457 1.837-5.402 1.837s-3.814-0.635-5.402-1.837c-0.112-0.084-0.262-0.097-0.386-0.032l-5.617 2.924c-0.362 0.188-0.653 0.498-0.818 0.871l-3.62 8.154c-0.25 0.562-0.198 1.205 0.137 1.721s0.902 0.823 1.517 0.823h28.379c0.615 0 1.182-0.308 1.517-0.823s0.386-1.159 0.137-1.721z"></path>
</svg>
