<!-- Generated by IcoMoon.io -->
<svg version="1.1" xmlns="http://www.w3.org/2000/svg" width="32" height="32" viewBox="0 0 32 32">
<title>vegetable</title>
<path fill="#f0bc5e" d="M16 23.742v-0.387c0-2.238 1.727-4.069 3.921-4.241l-0.092-2.598-0.129-1.548h-0.086c-2.581 0-6.71-2.065-9.29-2.065s-5.161 1.548-5.161 1.548h-0.043l-0.407 4.885c-0.044 0.523-0.187 1.034-0.422 1.503l-1.802 3.605c-0.268 0.537-0.29 1.163-0.059 1.717l2.217 5.321h15.484l0.215-0.516-0.010-0.282c-2.565-1.261-4.334-3.893-4.334-6.943z"></path>
<path fill="#000" d="M27.931 18.639c0.085-0.352 0.26-0.681 0.518-0.939l0.819-0.819c0.159-0.159 0.197-0.402 0.094-0.601s-0.324-0.309-0.543-0.273l-1.657 0.276c-0.781 0.131-1.509 0.436-2.139 0.892l-0.791-2.372c-0.070-0.211-0.267-0.353-0.489-0.353s-0.419 0.142-0.489 0.353l-0.787 2.36c-0.601-0.45-1.295-0.76-2.039-0.909l-0.104-0.021-0.751-9.009h-5.396l0.971-4.943c0.142-0.724 0.78-1.25 1.519-1.25h5.011v-1.032h-5.011c-1.23 0-2.295 0.876-2.532 2.084l-1.010 5.142h-3.065c0.834-1.005 1.295-2.267 1.295-3.613v-0.324c0-1.814-1.476-3.289-3.289-3.289-0.651 0-1.282 0.191-1.825 0.552-0.343 0.229-0.785 0.228-1.127 0-0.543-0.361-1.173-0.552-1.825-0.552-1.814 0-3.289 1.476-3.289 3.289v0.324c0 2.906 2.159 5.314 5.034 5.638l-0.837 10.042c-0.039 0.462-0.163 0.904-0.37 1.316l-1.802 3.605c-0.335 0.672-0.362 1.454-0.074 2.147l2.349 5.639h16.172l0.243-0.582c0.938 0.372 1.957 0.582 3.026 0.582 4.553 0 8.258-3.705 8.258-8.258v-0.387c0-2.392-1.77-4.373-4.069-4.716zM22.288 18.373l0.057 0.057c0.126 0.126 0.309 0.179 0.484 0.138s0.314-0.169 0.371-0.339l0.542-1.628 0.543 1.628c0.056 0.17 0.197 0.298 0.371 0.339s0.357-0.011 0.484-0.138c0.599-0.598 1.357-0.988 2.192-1.128l0.118-0.020c-0.29 0.385-0.484 0.838-0.566 1.313-0.907 0.067-1.792 0.394-2.521 0.941-0.365 0.273-0.874 0.273-1.239 0-0.722-0.541-1.595-0.869-2.492-0.94-0.035-0.47-0.172-0.925-0.417-1.33l0.011 0.002c0.783 0.158 1.497 0.54 2.063 1.106zM18.622 8.258l0.647 7.766-0.071-0.014c-0.207-0.043-0.415 0.046-0.53 0.219-0.116 0.174-0.117 0.4-0.001 0.573l0.613 0.92c0.182 0.274 0.287 0.585 0.318 0.909-2.321 0.323-4.115 2.315-4.115 4.724v0.387c0 0.35 0.029 0.693 0.072 1.032h-4.827l3.244-16.516h4.649zM1.032 3.613v-0.324c0-1.244 1.013-2.257 2.257-2.257 0.446 0 0.879 0.131 1.252 0.379 0.691 0.461 1.581 0.461 2.272 0 0.373-0.248 0.806-0.379 1.252-0.379 1.244 0 2.257 1.013 2.257 2.257v0.324c0 1.421-0.633 2.726-1.736 3.613h-2.295l0.591-0.21c1.44-0.512 2.408-1.88 2.408-3.403v-0.324c0-0.676-0.549-1.225-1.225-1.225-0.244 0-0.478 0.071-0.679 0.205-0.253 0.169-0.531 0.299-0.825 0.388l-0.368 0.11v4.458h-0.991l-0.083 0.996c-2.336-0.279-4.087-2.242-4.087-4.609zM7.226 5.672v-2.155c0.257-0.104 0.503-0.234 0.734-0.389 0.117-0.078 0.298 0.018 0.298 0.161v0.324c0 0.822-0.395 1.58-1.032 2.059zM4.751 21.071c0.265-0.53 0.425-1.099 0.474-1.692l0.927-11.122h6.769l-3.244 16.516h-6.765c0.013-0.033 0.021-0.067 0.037-0.098l1.802-3.605zM4.989 30.968l-2.085-5.004c-0.021-0.051-0.031-0.105-0.046-0.157h6.616l-0.69 3.514 1.013 0.199 0.729-3.713h5.229c0.574 2.216 2.039 4.076 3.997 5.161h-14.763zM30.968 23.742c0 3.985-3.241 7.226-7.226 7.226s-7.226-3.241-7.226-7.226v-0.387c0-2.063 1.678-3.742 3.742-3.742 0.804 0 1.602 0.266 2.246 0.748 0.729 0.548 1.748 0.548 2.477 0 0.644-0.483 1.441-0.748 2.245-0.748 2.063 0 3.742 1.678 3.742 3.742v0.387z"></path>
<path fill="#000" d="M23.742 28.903v1.032c3.151 0 5.796-2.359 6.153-5.487l-1.025-0.117c-0.298 2.606-2.502 4.572-5.128 4.572z"></path>
<path fill="#000" d="M28.693 22.541c0.137 0.247 0.211 0.529 0.211 0.813h1.032c0-0.46-0.118-0.915-0.342-1.317l-0.901 0.503z"></path>
<path fill="#000" d="M3.969 2.27c-0.202-0.134-0.437-0.205-0.68-0.205-0.676 0-1.225 0.549-1.225 1.225v0.324c0 1.523 0.968 2.891 2.408 3.403l0.689 0.245v-4.493l-0.369-0.11c-0.292-0.087-0.569-0.217-0.824-0.388zM4.129 5.672c-0.637-0.479-1.032-1.238-1.032-2.059v-0.324c0-0.106 0.086-0.193 0.193-0.193 0.038 0 0.076 0.011 0.108 0.033 0.231 0.154 0.476 0.284 0.732 0.388v2.155z"></path>
<path fill="#000" d="M14.968 16.516h1.032v1.032h-1.032v-1.032z"></path>
<path fill="#000" d="M6.194 18.065h1.032v1.032h-1.032v-1.032z"></path>
<path fill="#000" d="M12.387 21.161h1.032v1.032h-1.032v-1.032z"></path>
<path fill="#000" d="M8.258 22.194h1.032v1.032h-1.032v-1.032z"></path>
<path fill="#000" d="M6.194 27.871h1.032v1.032h-1.032v-1.032z"></path>
<path fill="#000" d="M13.935 27.355h1.032v1.032h-1.032v-1.032z"></path>
<path fill="#000" d="M8.258 14.968h1.032v1.032h-1.032v-1.032z"></path>
</svg>
