<!-- Generated by IcoMoon.io -->
<svg version="1.1" xmlns="http://www.w3.org/2000/svg" width="32" height="32" viewBox="0 0 32 32">
<title>vermut-1</title>
<path d="M20.725 13.050c-0.236 0.054-0.481 0.083-0.733 0.083-1.162 0-2.184-0.613-2.761-1.532h-9.448l7.296 9.276v9.247h-4.449c-0.518 0-0.938 0.42-0.938 0.938s0.419 0.938 0.938 0.938h10.774c0.518 0 0.938-0.42 0.938-0.938s-0.42-0.938-0.938-0.938h-4.449v-9.247l7.296-9.276h-1.497c-0.452 0.72-1.177 1.252-2.028 1.449z"></path>
<path d="M30.063 3.358c-0.157-0.323-0.484-0.528-0.843-0.528h-4.967l-2.171 4.53c0.682 0.572 1.127 1.417 1.167 2.367h2.476l4.232-5.38c0.222-0.282 0.263-0.666 0.106-0.989z"></path>
<path d="M24.965 1.343c0.224-0.467 0.026-1.027-0.44-1.25s-1.027-0.026-1.251 0.44l-1.1 2.297h2.079z"></path>
<path d="M19.992 6.598c0.124 0 0.246 0.007 0.366 0.021l1.815-3.789h-19.361c-0.359 0-0.687 0.205-0.843 0.528s-0.115 0.707 0.106 0.989l4.232 5.38h10.427c0.073-1.738 1.506-3.128 3.258-3.128z"></path>
<path d="M21.293 10.344c-0.194 0.533-0.704 0.914-1.301 0.914-0.573 0-1.066-0.352-1.277-0.851-0.070-0.166-0.109-0.349-0.109-0.541 0-0.768 0.621-1.393 1.386-1.393 0.186 0 0.364 0.038 0.527 0.104 0.504 0.209 0.859 0.708 0.859 1.288 0 0.168-0.030 0.329-0.084 0.478z"></path>
<path d="M20.519 8.578c-0.163-0.067-0.341-0.104-0.527-0.104-0.764 0-1.386 0.625-1.386 1.393 0 0.192 0.039 0.375 0.109 0.541 0.21 0.499 0.704 0.851 1.277 0.851 0.597 0 1.107-0.381 1.301-0.914 0.054-0.149 0.084-0.31 0.084-0.478 0-0.58-0.355-1.079-0.859-1.288z"></path>
</svg>
