<!-- Generated by IcoMoon.io -->
<svg version="1.1" xmlns="http://www.w3.org/2000/svg" width="32" height="32" viewBox="0 0 32 32">
<title>vodka</title>
<path fill="#f0bc5e" d="M29.405 19.097c-5.161 0-6.194-1.548-11.871-1.548h-0.355l0.78 12.484c0.051 0.816 0.728 1.452 1.545 1.452h8.445c0.818 0 1.494-0.636 1.545-1.452l0.684-10.935c-0.253 0-0.51 0-0.774 0z"></path>
<path fill="#f0bc5e" d="M11.857 27.355h-7.226v-9.806c0-1.992 1.621-3.613 3.613-3.613s3.613 1.621 3.613 3.613v9.806z"></path>
<path fill="#000" d="M13.922 22.968v-3.893c0-0.604 0.114-1.195 0.338-1.756l0.282-0.705c0.273-0.684 0.412-1.404 0.412-2.14 0-2.388-1.502-4.556-3.738-5.395l-0.391-0.146v-2.74h1.032v-4.129h-1.084c-0.24-1.176-1.283-2.065-2.529-2.065s-2.289 0.888-2.529 2.065h-1.084v4.129h1.032v2.74l-0.391 0.146c-2.236 0.839-3.738 3.006-3.738 5.395 0 0.736 0.139 1.455 0.412 2.14l0.282 0.704c0.224 0.562 0.338 1.153 0.338 1.757v3.893c0 0.721-0.238 1.436-0.671 2.012-0.566 0.755-0.877 1.69-0.877 2.633v1.806c0 1.423 1.158 2.581 2.581 2.581h9.29c1.423 0 2.581-1.158 2.581-2.581v-1.806c0-0.943-0.312-1.878-0.877-2.633-0.433-0.577-0.671-1.291-0.671-2.012zM8.244 1.032c0.672 0 1.24 0.433 1.453 1.032h-2.906c0.213-0.599 0.781-1.032 1.453-1.032zM5.663 3.097h5.161v2.065h-5.161v-2.065zM14.438 29.419c0 0.854-0.695 1.548-1.548 1.548h-9.29c-0.854 0-1.548-0.695-1.548-1.548v-1.806c0-0.721 0.238-1.436 0.671-2.012 0.566-0.755 0.877-1.69 0.877-2.633v-3.893c0-0.736-0.139-1.455-0.412-2.14l-0.282-0.704c-0.224-0.562-0.338-1.153-0.338-1.757 0-1.96 1.234-3.74 3.069-4.428l1.060-0.398v-3.454h3.097v3.454l1.061 0.398c1.835 0.689 3.068 2.468 3.068 4.428 0 0.604-0.114 1.195-0.338 1.756l-0.282 0.705c-0.273 0.684-0.412 1.404-0.412 2.14v3.893c0 0.943 0.312 1.878 0.877 2.633 0.433 0.577 0.671 1.291 0.671 2.012v1.806z"></path>
<path fill="#000" d="M7.393 11.591l-0.89 0.334-0.363-0.966 0.89-0.334 0.363 0.966z"></path>
<path fill="#000" d="M3.599 14.474c0 0.194 0.015 0.387 0.045 0.574l1.019-0.161c-0.021-0.134-0.032-0.274-0.032-0.413 0-0.85 0.414-1.657 1.108-2.161l-0.606-0.836c-0.961 0.697-1.534 1.817-1.534 2.996z"></path>
<path fill="#000" d="M27.347 13.929l-3.619 0.517-3.619-0.517-3.635 0.606 0.971 15.529c0.068 1.085 0.973 1.935 2.060 1.935h8.445c1.087 0 1.993-0.85 2.060-1.935l0.971-15.529-3.635-0.606zM24.244 27.871v-1.032h-1.032v1.032h-2.084l-0.475-12.821 2.558 0.365v10.391h1.032v-10.391l2.558-0.365-0.475 12.821h-2.084zM19.621 15.057l0.475 12.814h-1.754l-0.779-12.471 2.058-0.343zM27.951 30.968h-8.446c-0.544 0-0.997-0.425-1.030-0.968l-0.069-1.097h10.643l-0.069 1.097c-0.034 0.543-0.486 0.968-1.030 0.968zM29.114 27.871h-1.754l0.475-12.814 2.058 0.343-0.779 12.471z"></path>
</svg>
