<!-- Generated by IcoMoon.io -->
<svg version="1.1" xmlns="http://www.w3.org/2000/svg" width="32" height="32" viewBox="0 0 32 32">
<title>waffle</title>
<path fill="#000" d="M16 0c-8.823 0-16 7.177-16 16s7.177 16 16 16 16-7.177 16-16-7.177-16-16-16zM16 30.968c-8.253 0-14.968-6.715-14.968-14.968s6.715-14.968 14.968-14.968 14.968 6.715 14.968 14.968-6.715 14.968-14.968 14.968z"></path>
<path fill="#000" d="M26.839 24.75c2.002-2.475 3.097-5.545 3.097-8.75 0-3.31-1.162-6.353-3.097-8.745v-0.029h-0.023c-0.609-0.749-1.293-1.433-2.042-2.042v-0.023h-0.029c-2.393-1.935-5.435-3.097-8.745-3.097-3.205 0-6.276 1.095-8.75 3.097h-0.024v0.019c-0.235 0.191-0.468 0.388-0.692 0.596l0.701 0.757c0.13-0.12 0.269-0.226 0.403-0.34h0.62v2.065h-2.065v-0.62c0.114-0.134 0.22-0.274 0.34-0.403l-0.757-0.701c-0.208 0.225-0.404 0.456-0.596 0.692h-0.019v0.024c-2.002 2.475-3.097 5.546-3.097 8.75 0 3.31 1.162 6.353 3.097 8.745v0.029h0.023c0.609 0.749 1.293 1.433 2.042 2.042v0.023h0.029c2.393 1.935 5.435 3.097 8.745 3.097 3.205 0 6.276-1.095 8.75-3.097h0.024v-0.019c0.235-0.191 0.468-0.388 0.692-0.596l-0.701-0.757c-0.13 0.12-0.269 0.226-0.403 0.34h-0.62v-2.065h2.065v0.62c-0.114 0.134-0.22 0.274-0.34 0.403l0.757 0.701c0.208-0.225 0.404-0.456 0.596-0.692h0.019v-0.024zM26.839 20.645h1.198c-0.316 0.819-0.719 1.602-1.198 2.343v-2.343zM25.806 17.548v2.065h-2.065v-2.065h2.065zM26.839 17.548h1.961c-0.084 0.701-0.216 1.393-0.412 2.066v-0.001h-1.548v-2.065zM22.71 5.161h-2.065v-1.196c0.721 0.279 1.413 0.619 2.065 1.018v0.178zM19.613 5.161h-2.065v-1.969c0.707 0.085 1.397 0.227 2.065 0.422v1.546zM17.548 6.194h2.065v2.065h-2.065v-2.065zM20.645 6.194h2.065v2.065h-2.065v-2.065zM22.71 9.29v2.065h-2.065v-2.065h2.065zM23.742 9.29h2.065v2.065h-2.065v-2.065zM26.839 9.012c0.474 0.733 0.876 1.517 1.196 2.343h-1.196v-2.343zM25.806 12.387v2.065h-2.065v-2.065h2.065zM26.839 12.387h1.546c0.195 0.668 0.338 1.357 0.422 2.065h-1.968v-2.065zM25.806 7.628v0.63h-2.065v-2.065h0.63c0.515 0.44 0.994 0.92 1.434 1.434zM14.452 8.258h-2.065v-2.065h2.065v2.065zM14.452 5.161h-2.065v-1.548h-0.001c0.673-0.196 1.364-0.328 2.066-0.412v1.961zM9.29 4.985c0.659-0.402 1.348-0.746 2.065-1.022v1.198h-2.065v-0.176zM9.29 6.194h2.065v2.065h-2.065v-2.065zM11.355 9.29v2.065h-2.065v-2.065h2.065zM8.258 9.29v2.065h-2.065v-2.065h2.065zM6.194 14.452v-2.065h2.065v2.065h-2.065zM5.161 11.355h-1.198c0.316-0.819 0.719-1.602 1.198-2.343v2.343zM5.161 12.387v2.065h-1.961c0.085-0.701 0.216-1.393 0.412-2.066v0.001h1.548zM9.29 26.839h2.065v1.196c-0.721-0.279-1.413-0.619-2.065-1.018v-0.178zM12.387 26.839h2.065v1.969c-0.707-0.085-1.397-0.227-2.065-0.422v-1.546zM14.452 25.806h-2.065v-2.065h2.065v2.065zM11.355 25.806h-2.065v-2.065h2.065v2.065zM9.29 22.71v-2.065h2.065v2.065h-2.065zM8.258 22.71h-2.065v-2.065h2.065v2.065zM5.161 22.988c-0.474-0.733-0.876-1.517-1.196-2.343h1.196v2.343zM6.194 19.613v-2.065h2.065v2.065h-2.065zM5.161 19.613h-1.546c-0.195-0.668-0.338-1.357-0.422-2.065h1.968v2.065zM6.194 24.372v-0.63h2.065v2.065h-0.63c-0.515-0.44-0.994-0.92-1.434-1.434zM15.484 28.89v-7.729h-1.032v1.548h-2.065v-2.065h0.695v-1.032h-0.695v-0.831h-1.032v0.831h-2.065v-2.065h1.548v-1.032h-7.729c-0.007-0.171-0.013-0.343-0.013-0.516s0.017-0.344 0.024-0.516h7.718v-1.032h-1.548v-2.065h2.065v0.787h1.032v-0.787h0.813v-1.032h-0.813v-2.065h2.065v1.548h1.032v-7.718c0.172-0.007 0.343-0.024 0.516-0.024s0.345 0.006 0.516 0.013v7.729h1.032v-1.548h2.065v2.065h-0.76v1.032h0.76v0.787h1.032v-0.787h2.065v2.065h-1.548v1.032h7.729c0.007 0.171 0.013 0.343 0.013 0.516s-0.017 0.344-0.024 0.516h-7.718v1.032h1.548v2.065h-2.065v-0.831h-1.032v0.831h-0.829v1.032h0.829v2.065h-2.065v-1.548h-1.032v7.718c-0.172 0.007-0.343 0.024-0.516 0.024s-0.345-0.006-0.516-0.013zM22.71 20.645v2.065h-2.065v-2.065h2.065zM22.71 27.015c-0.659 0.402-1.348 0.746-2.065 1.022v-1.198h2.065v0.176zM19.614 28.387c-0.673 0.196-1.364 0.328-2.066 0.412v-1.961h2.065v1.548h0.001zM17.548 25.806v-2.065h2.065v2.065h-2.065zM22.71 25.806h-2.065v-2.065h2.065v2.065zM23.742 22.71v-2.065h2.065v2.065h-2.065z"></path>
<path fill="#f0bc5e" d="M16 21.677c-0.768 0-1.483-0.339-1.971-0.92-0.753 0.063-1.5-0.199-2.044-0.742s-0.809-1.288-0.742-2.044c-0.582-0.488-0.921-1.203-0.921-1.971s0.339-1.483 0.92-1.971c-0.067-0.756 0.2-1.501 0.742-2.044 0.543-0.543 1.291-0.807 2.044-0.742 0.488-0.582 1.203-0.921 1.971-0.921s1.483 0.339 1.971 0.92c0.752-0.065 1.5 0.199 2.044 0.742s0.809 1.288 0.742 2.044c0.582 0.488 0.921 1.203 0.921 1.971s-0.339 1.483-0.92 1.971c0.067 0.756-0.2 1.501-0.742 2.044-0.543 0.543-1.292 0.805-2.044 0.742-0.488 0.582-1.203 0.921-1.971 0.921z"></path>
<path fill="#000" d="M16 18.581c-0.689 0-1.337-0.269-1.825-0.756s-0.756-1.134-0.756-1.825 0.269-1.338 0.756-1.825c0.487-0.487 1.134-0.756 1.825-0.756s1.338 0.269 1.825 0.756c0.487 0.487 0.756 1.135 0.756 1.825s-0.269 1.337-0.756 1.825-1.135 0.756-1.825 0.756zM16 14.452c-0.414 0-0.803 0.161-1.094 0.454-0.293 0.292-0.454 0.681-0.454 1.095s0.161 0.803 0.454 1.094c0.585 0.586 1.605 0.585 2.189 0.001 0.293-0.292 0.454-0.681 0.454-1.095s-0.161-0.803-0.454-1.095c-0.292-0.293-0.681-0.454-1.095-0.454z"></path>
</svg>
