<!-- Generated by IcoMoon.io -->
<svg version="1.1" xmlns="http://www.w3.org/2000/svg" width="32" height="32" viewBox="0 0 32 32">
<title>waiter</title>
<path fill="#f0bc5e" d="M23.742 2.065h-8.258c-3.7 0-6.71 3.010-6.71 6.71h21.677c0-3.7-3.010-6.71-6.71-6.71z"></path>
<path fill="#f0bc5e" d="M32 24.774c0 3.991-3.235 7.226-7.226 7.226s-7.226-3.235-7.226-7.226 3.235-7.226 7.226-7.226 7.226 3.235 7.226 7.226z"></path>
<path fill="#000" d="M23.226 8.258h-16v1.032h4.164c-0.022 0.095-0.035 0.192-0.035 0.292 0 0.241 0.066 0.476 0.189 0.681l0.865 1.442c0.324 0.54 0.494 1.157 0.494 1.785 0 0.939 0.304 1.845 0.836 2.599l-2.387 3.183-1.112-0.91-3.579 4.601-6.662-6.662v12.815l2.883 2.883h7.701l6.121-8.348-1.115-0.913 1.327-1.769 2.448-2.938c0.203-0.244 0.433-0.463 0.684-0.653l5.516-4.164c0.444-0.335 0.773-0.815 0.927-1.351l0.735-2.574h4.772v-1.032zM24.113 9.29l-0.149 0.594c-0.1 0.401-0.351 0.74-0.705 0.952l-0.387 0.232c0.147-0.584 0.248-1.178 0.301-1.778h0.939zM17.293 12.533l-0.489 1.142c-0.001-0.003-0.005-0.005-0.006-0.008l-1.173-3.52c-0.103-0.31-0.264-0.601-0.468-0.856h2.882c-0.060 1.117-0.302 2.207-0.746 3.242zM18.242 12.939c0.498-1.165 0.768-2.391 0.829-3.649h0.89l-0.808 2.827-0.978 0.978zM10.061 30.968h-6.75l-2.278-2.278v-9.895l5.161 5.161v2.883h1.032v-2.92l3.179-4.088 4.889 4zM14.791 22.086l-2.639-2.159 0.862-1.149 2.773 1.981zM19.428 16.556c-0.314 0.237-0.601 0.511-0.855 0.815l-2.146 2.576-2.793-1.995 0.81-1.080c0.086 0.075 0.169 0.152 0.261 0.221l0.47 0.353 0.62-0.826-0.471-0.353c-0.869-0.651-1.387-1.689-1.387-2.775 0-0.815-0.222-1.616-0.642-2.316l-0.865-1.443c-0.027-0.045-0.041-0.097-0.041-0.15 0-0.162 0.131-0.293 0.292-0.293h0.326c0.462 0 0.896 0.18 1.223 0.506 0.188 0.188 0.333 0.422 0.418 0.676l1.173 3.52c0.194 0.583 0.738 0.976 1.353 0.976 0.38 0 0.739-0.148 1.008-0.418l1.893-1.893 0.962-3.367h1.102c-0.062 0.63-0.175 1.254-0.349 1.863l-0.593 2.084-1.039 2.769zM25.5 11.581c-0.093 0.322-0.29 0.61-0.556 0.811l-3.252 2.455 0.481-1.285 0.3-1.050 1.317-0.79c0.591-0.355 1.009-0.918 1.175-1.586l0.211-0.845h0.978z"></path>
<path fill="#000" d="M26.871 6.969l0.893-0.518c-0.83-1.432-2.372-2.322-4.022-2.322h-0.516v1.032h0.516c1.283 0 2.483 0.693 3.129 1.807z"></path>
<path fill="#000" d="M21.161 4.129h1.032v1.032h-1.032z"></path>
<path fill="#000" d="M20.129 3.097c0.854 0 1.548-0.695 1.548-1.548s-0.695-1.548-1.548-1.548-1.548 0.695-1.548 1.548 0.695 1.548 1.548 1.548zM20.129 1.032c0.285 0 0.516 0.231 0.516 0.516s-0.231 0.516-0.516 0.516-0.516-0.231-0.516-0.516 0.231-0.516 0.516-0.516z"></path>
<path fill="#000" d="M29.413 24.14c-0.063-2.507-2.118-4.527-4.639-4.527s-4.576 2.020-4.639 4.527c-0.318 0.283-0.522 0.692-0.522 1.15 0 0.456 0.202 0.862 0.516 1.146v0.402c0 1.423 1.158 2.581 2.581 2.581h4.129c1.423 0 2.581-1.158 2.581-2.581v-0.402c0.314-0.284 0.516-0.69 0.516-1.146 0-0.459-0.204-0.867-0.522-1.15zM28.387 25.806h-7.226c-0.285 0-0.516-0.231-0.516-0.516s0.231-0.516 0.516-0.516h7.226c0.285 0 0.516 0.231 0.516 0.516s-0.231 0.516-0.516 0.516zM24.774 20.645c1.816 0 3.32 1.349 3.572 3.097h-7.143c0.252-1.748 1.755-3.097 3.572-3.097zM26.839 28.387h-4.129c-0.854 0-1.548-0.695-1.548-1.548h7.226c0 0.854-0.695 1.548-1.548 1.548z"></path>
<path fill="#000" d="M25.806 22.194h1.032v1.032h-1.032z"></path>
<path fill="#000" d="M23.226 21.677h1.032v1.032h-1.032z"></path>
<path fill="#000" d="M6.194 0h5.161v1.032h-5.161z"></path>
<path fill="#000" d="M12.387 0h1.032v1.032h-1.032z"></path>
<path fill="#000" d="M3.097 2.065h5.161v1.032h-5.161z"></path>
<path fill="#000" d="M9.29 2.065h1.032v1.032h-1.032z"></path>
<path fill="#000" d="M0 4.129h5.161v1.032h-5.161z"></path>
<path fill="#000" d="M6.194 4.129h1.032v1.032h-1.032z"></path>
</svg>
