<!-- Generated by IcoMoon.io -->
<svg version="1.1" xmlns="http://www.w3.org/2000/svg" width="32" height="32" viewBox="0 0 32 32">
<title>wheat</title>
<path fill="#f0bc5e" d="M17.212 20.465c0.876-0.876 1.368-2.064 1.368-3.303v-5.291c-2.022 0-4.044 0.489-6.194 1.042v4.12c0 0.627-0.559 1.123-1.206 1.018-0.507-0.083-0.859-0.559-0.859-1.074v-3.541c-1.915 0.47-3.954 0.887-6.194 0.989v1.059c0 0.57-0.462 1.027-1.032 1.027v0.651c0 1.239 0.492 2.427 1.368 3.303l1.909 1.909c0.876 0.876 1.368 2.063 1.368 3.302 0 1.676-0.898 3.224-2.354 4.055l-0.931 0.532c-0.203 0.117-0.329 0.333-0.329 0.567 0 0.361 0.293 0.653 0.653 0.653h12.113c0.36 0 0.653-0.293 0.653-0.653 0-0.234-0.125-0.451-0.329-0.567l-0.931-0.532c-1.455-0.831-2.354-2.379-2.354-4.055 0-1.239 0.492-2.427 1.368-3.303l1.909-1.909z"></path>
<path fill="#000" d="M16 17.162c0 0.558-0.217 1.083-0.612 1.478l0.73 0.73c0.589-0.59 0.914-1.374 0.914-2.207v-3.227h-1.032v3.227z"></path>
<path fill="#000" d="M32 4.645h-0.516c-1.084 0-2.081 0.376-2.872 1.001 0.506-1.707 1.266-3.339 2.269-4.844l-0.859-0.572c-1.259 1.888-2.152 3.965-2.667 6.14-0.515-2.175-1.409-4.252-2.667-6.141l-0.859 0.572c1.003 1.505 1.763 3.136 2.269 4.844-0.791-0.625-1.787-1.001-2.872-1.001h-0.516v0.516c0 0.96 0.293 1.853 0.794 2.595-0.092-0.005-0.184-0.014-0.278-0.014h-0.516v0.516c0 0.96 0.293 1.853 0.794 2.595-0.092-0.005-0.184-0.014-0.278-0.014h-0.516v0.516c0 0.96 0.293 1.853 0.794 2.595-0.092-0.005-0.184-0.014-0.278-0.014h-0.516v0.516c0 0.96 0.293 1.853 0.794 2.595-0.092-0.005-0.184-0.014-0.278-0.014h-0.516v0.516c0 0.96 0.293 1.853 0.794 2.595-0.092-0.005-0.184-0.014-0.278-0.014h-0.516v0.516c0 2.387 1.81 4.357 4.129 4.615v1.063c0 2.562-2.084 4.645-4.645 4.645v1.032c3.13 0 5.677-2.547 5.677-5.677v-1.063c2.319-0.258 4.129-2.228 4.129-4.615v-0.516h-0.516c-0.094 0-0.185 0.009-0.278 0.014 0.501-0.741 0.794-1.634 0.794-2.595v-0.516h-0.516c-0.094 0-0.185 0.009-0.278 0.014 0.501-0.741 0.794-1.634 0.794-2.595v-0.516h-0.516c-0.094 0-0.185 0.009-0.278 0.014 0.501-0.741 0.794-1.634 0.794-2.595v-0.516h-0.516c-0.094 0-0.185 0.009-0.278 0.014 0.501-0.741 0.794-1.634 0.794-2.595v-0.516h-0.516c-0.094 0-0.185 0.009-0.278 0.014 0.501-0.741 0.794-1.634 0.794-2.595v-0.516zM30.924 5.721c-0.236 1.517-1.422 2.718-2.926 2.99 0.022-0.19 0.036-0.381 0.063-0.57 0.424-1.259 1.522-2.211 2.863-2.42zM26.795 11.828c-1.545-0.241-2.769-1.465-3.010-3.010 1.545 0.241 2.769 1.465 3.010 3.010zM26.795 14.924c-1.545-0.241-2.769-1.465-3.010-3.010 1.545 0.241 2.769 1.465 3.010 3.010zM26.795 18.021c-1.545-0.241-2.769-1.465-3.010-3.010 1.545 0.241 2.769 1.465 3.010 3.010zM26.795 21.118c-1.545-0.241-2.769-1.465-3.010-3.010 1.545 0.241 2.769 1.465 3.010 3.010zM30.924 18.108c-0.241 1.545-1.465 2.769-3.010 3.010 0.241-1.545 1.465-2.769 3.010-3.010zM30.924 15.011c-0.241 1.545-1.465 2.769-3.010 3.010 0.241-1.545 1.465-2.769 3.010-3.010zM30.924 11.914c-0.241 1.545-1.465 2.769-3.010 3.010 0.241-1.545 1.465-2.769 3.010-3.010zM30.924 8.818c-0.241 1.545-1.465 2.769-3.010 3.010 0.241-1.545 1.465-2.769 3.010-3.010zM26.649 8.14c0.027 0.189 0.041 0.38 0.063 0.57-1.505-0.272-2.69-1.474-2.926-2.99 1.342 0.209 2.44 1.161 2.863 2.42zM23.785 21.205c1.545 0.241 2.769 1.465 3.010 3.010-1.545-0.241-2.769-1.465-3.010-3.010zM27.914 24.215c0.241-1.545 1.465-2.769 3.010-3.010-0.241 1.545-1.465 2.769-3.010 3.010z"></path>
<path fill="#000" d="M18.292 5.659c-0.478-0.526-1.123-0.864-1.816-0.973-0.23-1.482-1.511-2.622-3.056-2.622-0.974-1.298-2.498-2.064-4.13-2.064-1.651 0-3.184 0.791-4.156 2.115-1.295 0.23-2.311 1.267-2.514 2.571-0.671 0.109-1.307 0.447-1.784 0.963-0.567 0.613-0.871 1.43-0.834 2.239 0.051 1.067 0.633 2.010 1.545 2.534v5.006c0 0.687 0.429 1.295 1.032 1.515v0.219c0 1.385 0.539 2.687 1.519 3.667l1.909 1.909c0.785 0.785 1.217 1.829 1.217 2.938 0 1.487-0.802 2.87-2.093 3.607l-0.931 0.532c-0.363 0.208-0.589 0.597-0.589 1.015 0 0.645 0.525 1.17 1.17 1.17h12.113c0.644 0 1.169-0.525 1.169-1.17 0-0.419-0.226-0.807-0.589-1.015l-0.931-0.532c-1.291-0.738-2.093-2.12-2.093-3.607 0-1.109 0.432-2.153 1.216-2.937l1.909-1.909c0.98-0.98 1.519-2.282 1.519-3.668v-9.42h-0.002c-0.001-0.768-0.286-1.513-0.804-2.083zM1.034 7.839c-0.025-0.535 0.179-1.078 0.56-1.49 0.38-0.41 0.904-0.655 1.437-0.671 0.309-0.014 0.61 0.049 0.889 0.171l0.417-0.944c-0.216-0.095-0.44-0.162-0.669-0.203 0.21-0.917 1.029-1.605 2.009-1.605 0.451 0 0.879 0.142 1.239 0.413l0.62-0.826c-0.328-0.247-0.697-0.413-1.086-0.513 0.759-0.722 1.769-1.139 2.84-1.139 1.381 0 2.665 0.686 3.412 1.801l0.161 0.312 0.349-0.035c0.068-0.007 0.136-0.013 0.206-0.013 0.98 0 1.799 0.688 2.009 1.606-0.464 0.086-0.902 0.273-1.287 0.562l0.62 0.826c0.821-0.618 2.072-0.501 2.766 0.264 0.396 0.436 0.583 1.001 0.527 1.593-0.1 1.043-1.051 1.86-2.166 1.86h-4.018v7.226c0 0.152-0.067 0.295-0.182 0.394-0.118 0.099-0.268 0.14-0.424 0.115-0.239-0.039-0.426-0.286-0.426-0.564v-6.654c0-0.854-0.695-1.548-1.548-1.548s-1.548 0.695-1.548 1.548v2.064c0 0.152-0.067 0.295-0.182 0.394-0.118 0.099-0.268 0.14-0.424 0.115-0.239-0.039-0.426-0.286-0.426-0.564v-0.977c0-0.854-0.695-1.548-1.548-1.548s-1.548 0.695-1.548 1.548v4.129c0 0.152-0.067 0.295-0.182 0.394-0.118 0.099-0.268 0.14-0.424 0.115-0.239-0.039-0.426-0.286-0.426-0.564v-5.661l-0.309-0.135c-0.726-0.317-1.2-1.004-1.237-1.793zM16.848 20.1l-1.909 1.909c-0.98 0.98-1.519 2.282-1.519 3.668 0 1.857 1.001 3.582 2.613 4.504l0.93 0.532c0.043 0.024 0.070 0.070 0.070 0.119 0 0.076-0.061 0.137-0.137 0.137h-12.113c-0.076 0-0.137-0.061-0.137-0.137 0-0.049 0.026-0.095 0.069-0.119l0.931-0.532c1.612-0.922 2.613-2.647 2.613-4.504 0-1.385-0.539-2.687-1.519-3.667l-1.909-1.909c-0.785-0.785-1.217-1.829-1.217-2.938v-0.228c0.175-0.062 0.342-0.148 0.486-0.271 0.347-0.295 0.546-0.725 0.546-1.18v-4.129c0-0.285 0.232-0.516 0.516-0.516s0.516 0.231 0.516 0.516v0.977c0 0.782 0.555 1.463 1.292 1.583 0.451 0.073 0.912-0.053 1.259-0.348s0.546-0.725 0.546-1.18v-2.064c0-0.285 0.232-0.516 0.516-0.516s0.516 0.231 0.516 0.516v6.654c0 0.782 0.555 1.463 1.292 1.583 0.085 0.013 0.17 0.021 0.254 0.021 0.367 0 0.723-0.129 1.004-0.369 0.347-0.295 0.546-0.725 0.546-1.18v-6.194h2.986c0.83 0 1.598-0.315 2.175-0.828v7.151c0 1.109-0.432 2.153-1.216 2.937z"></path>
<path fill="#000" d="M8.774 2.581h1.032v1.032h-1.032v-1.032z"></path>
<path fill="#000" d="M12.387 4.645h1.032v1.032h-1.032v-1.032z"></path>
<path fill="#000" d="M15.484 7.226h1.032v1.032h-1.032v-1.032z"></path>
<path fill="#000" d="M6.194 5.161h1.032v1.032h-1.032v-1.032z"></path>
<path fill="#000" d="M4.129 7.742h1.032v1.032h-1.032v-1.032z"></path>
<path fill="#000" d="M9.29 6.194h1.032v1.032h-1.032v-1.032z"></path>
<path fill="#000" d="M16 11.871h1.032v1.032h-1.032v-1.032z"></path>
</svg>
