<!-- Generated by IcoMoon.io -->
<svg version="1.1" xmlns="http://www.w3.org/2000/svg" width="32" height="32" viewBox="0 0 32 32">
<title>whiskey-1</title>
<path fill="#f0bc5e" d="M16.6 28.921l1.465 2.563h11.355l1.465-2.563c0.393-0.688 0.6-1.466 0.6-2.259 0-0.226-0.017-0.452-0.051-0.675l-0.646-4.31h-0.335c-4.129 0-7.742-2.065-13.419-2.065h-0.026l-0.956 6.374c-0.034 0.224-0.051 0.45-0.051 0.676 0 0.792 0.207 1.571 0.6 2.259z"></path>
<path fill="#f0bc5e" d="M14.968 26.323h-12.387v-11.355h1.817c0.65-1.842 2.395-3.097 4.376-3.097s3.726 1.255 4.376 3.097h1.818v11.355z"></path>
<path fill="#000" d="M31.944 25.91l-1.564-10.426h-12.831v-5.414l-4.645-3.613v-2.328h1.032v-2.581c0-0.854-0.695-1.548-1.548-1.548h-7.226c-0.854 0-1.548 0.695-1.548 1.548v2.581h1.032v2.328l-4.645 3.613v17.938l2.281 3.992h12.986l1.249-2.185 1.249 2.185h11.954l1.613-2.823c0.437-0.764 0.668-1.634 0.668-2.515 0-0.252-0.019-0.506-0.056-0.752zM20.204 26.839l1.407-10.323h4.26l1.407 10.323h-7.075zM27.126 27.871l-1.161 3.097h-4.446l-1.161-3.097h6.769zM4.645 1.548c0-0.284 0.231-0.516 0.516-0.516h7.226c0.285 0 0.516 0.232 0.516 0.516v1.548h-8.258v-1.548zM11.871 4.129v2.065h-6.194v-2.065h6.194zM14.668 30.968h-11.788l-1.475-2.581h11.498v-1.032h-11.871v-16.516h3.613v-1.032h-2.625l3.318-2.581h6.872l3.318 2.581h-9.85v1.032h10.839v8.563l-0.977 6.508c-0.037 0.247-0.056 0.5-0.056 0.753 0 0.232 0.018 0.463 0.050 0.693h-1.598v1.032h1.861c0.043 0.12 0.091 0.238 0.143 0.356l-1.272 2.225zM17.048 28.665c-0.348-0.609-0.532-1.301-0.532-2.003 0-0.201 0.015-0.402 0.045-0.599l0.967-6.451h0.020v-0.133l0.444-2.964h2.577l-1.407 10.323h-1.614v1.032h1.707l1.161 3.097h-2.053l-1.316-2.303zM30.436 28.665l-1.316 2.303h-2.053l1.161-3.097h1.707v-1.032h-1.614l-1.407-10.323h2.577l1.432 9.548c0.030 0.196 0.045 0.397 0.045 0.598 0 0.701-0.184 1.394-0.532 2.003z"></path>
</svg>
