<!-- Generated by IcoMoon.io -->
<svg version="1.1" xmlns="http://www.w3.org/2000/svg" width="32" height="32" viewBox="0 0 32 32">
<title>whiskey</title>
<path fill="#f0bc5e" d="M19.039 19.097h-18.465c0.153 3.48 0.642 6.937 1.465 10.322h15.535c0.823-3.385 1.312-6.842 1.465-10.322z"></path>
<path fill="#f0bc5e" d="M30.451 31.484h-4.129c-0.57 0-1.032-0.462-1.032-1.032v-4.129c0-0.57 0.462-1.032 1.032-1.032h4.129c0.57 0 1.032 0.462 1.032 1.032v4.129c0 0.57-0.462 1.032-1.032 1.032z"></path>
<path fill="#f0bc5e" d="M27.354 25.29h-4.129c-0.57 0-1.032-0.462-1.032-1.032v-4.129c0-0.57 0.462-1.032 1.032-1.032h4.129c0.57 0 1.032 0.462 1.032 1.032v4.129c0 0.57-0.462 1.032-1.032 1.032z"></path>
<path fill="#f0bc5e" d="M24.258 31.484h-4.129c-0.57 0-1.032-0.462-1.032-1.032v-4.129c0-0.57 0.462-1.032 1.032-1.032h4.129c0.57 0 1.032 0.462 1.032 1.032v4.129c0 0.57-0.462 1.032-1.032 1.032z"></path>
<path fill="#000" d="M30.451 24.774h-1.643c0.058-0.162 0.095-0.334 0.095-0.516v-4.129c0-0.854-0.695-1.548-1.548-1.548h-4.129c-0.854 0-1.548 0.695-1.548 1.548v4.129c0 0.182 0.037 0.354 0.095 0.516h-1.643c-0.495 0-0.933 0.238-1.216 0.602 0.46-2.852 0.7-5.737 0.7-8.633v-2.883c0-0.787-0.437-1.495-1.141-1.847l-4.482-2.241c-0.352-0.175-0.57-0.53-0.57-0.923v-2.656h1.032v-1.032h-1.032v-1.032h1.032v-4.129h-9.29v4.129h1.032v1.032h-1.032v1.032h1.032v2.656c0 0.394-0.218 0.747-0.57 0.923l-4.482 2.241c-0.704 0.351-1.141 1.059-1.141 1.846v2.883c0 5.035 0.701 10.042 2.085 14.882l0.107 0.375h15.23l0.107-0.375c0.415-1.452 0.761-2.92 1.052-4.398v3.224c0 0.854 0.695 1.548 1.548 1.548h4.129c0.398 0 0.758-0.155 1.032-0.403 0.275 0.248 0.634 0.403 1.032 0.403h4.129c0.854 0 1.548-0.695 1.548-1.548v-4.129c-0.001-0.854-0.695-1.548-1.549-1.548zM9.806 14.452c4.871 0 7.846-0.741 8.687-0.983 0.051 0.123 0.087 0.253 0.087 0.392v2.883c0 0.613-0.011 1.226-0.032 1.838h-17.483c-0.021-0.613-0.032-1.225-0.032-1.838v-2.883c0-0.139 0.036-0.269 0.087-0.392 0.842 0.243 3.816 0.984 8.687 0.984zM18.215 22.861l-0.667 0.667-1.851-1.851 2.064-2.064h0.734c-0.059 1.087-0.151 2.171-0.276 3.252l-0.004-0.004zM14.368 25.509l-0.73 0.73 0.6 0.6-1.851 1.851-1.851-1.851 1.851-1.851 0.652 0.652 0.73-0.73-0.652-0.652 1.851-1.851 1.851 1.851-1.851 1.851-0.6-0.6zM7.955 24.258l1.851-1.851 1.851 1.851-1.851 1.851-1.851-1.851zM9.076 26.839l-1.851 1.851-1.851-1.851 1.851-1.851 1.851 1.851zM13.633 19.613h2.669l-1.335 1.335-1.335-1.335zM14.238 21.677l-1.851 1.851-1.851-1.851 1.851-1.851 1.851 1.851zM9.806 20.948l-1.335-1.335h2.669l-1.335 1.335zM7.226 19.827l1.851 1.851-1.851 1.851-1.851-1.851 1.851-1.851zM4.645 20.948l-1.335-1.335h2.669l-1.335 1.335zM1.117 19.613h0.734l2.064 2.064-0.621 0.621 0.73 0.73 0.621-0.621 1.851 1.851-1.851 1.851-1.851-1.851 0.633-0.633-0.73-0.73-0.633 0.633-0.667-0.667-0.004 0.004c-0.125-1.080-0.218-2.165-0.277-3.252zM2.064 24.988l1.851 1.851-1.577 1.577c-0.231-1.027-0.434-2.059-0.604-3.097l0.33-0.331zM4.645 27.568l1.335 1.335h-2.669l1.335-1.335zM9.806 27.568l1.335 1.335h-2.669l1.335-1.335zM14.967 27.568l1.335 1.335h-2.669l1.335-1.335zM15.697 26.839l1.851-1.851 0.331 0.331c-0.17 1.038-0.373 2.071-0.604 3.098l-1.578-1.578zM12.387 5.161h-1.032v-1.032h1.032v1.032zM10.322 4.129v1.032h-1.032v-1.032h1.032zM6.193 1.032h7.226v2.064h-7.226v-2.064zM7.226 4.129h1.032v1.032h-1.032v-1.032zM6.085 10.696c0.704-0.352 1.141-1.060 1.141-1.847v-2.656h5.161v2.656c0 0.787 0.437 1.495 1.141 1.847l3.934 1.967c-1.305 0.298-3.917 0.756-7.656 0.756s-6.351-0.458-7.656-0.756l3.934-1.967zM2.971 30.968c-0.095-0.343-0.18-0.688-0.268-1.032h14.206c-0.088 0.344-0.173 0.69-0.268 1.032h-13.67zM22.709 24.258v-4.129c0-0.285 0.232-0.516 0.516-0.516h4.129c0.284 0 0.516 0.231 0.516 0.516v4.129c0 0.285-0.232 0.516-0.516 0.516h-4.129c-0.284 0-0.516-0.231-0.516-0.516zM24.258 30.968h-4.129c-0.284 0-0.516-0.231-0.516-0.516v-4.129c0-0.285 0.232-0.516 0.516-0.516h4.129c0.284 0 0.516 0.231 0.516 0.516v4.129c0 0.285-0.232 0.516-0.516 0.516zM30.967 30.451c0 0.285-0.232 0.516-0.516 0.516h-4.129c-0.284 0-0.516-0.231-0.516-0.516v-4.129c0-0.285 0.232-0.516 0.516-0.516h4.129c0.284 0 0.516 0.231 0.516 0.516v4.129z"></path>
<path fill="#000" d="M24.774 20.645h1.032v1.032h-1.032v-1.032z"></path>
<path fill="#000" d="M20.645 26.839h1.032v1.032h-1.032v-1.032z"></path>
<path fill="#000" d="M28.903 28.903h1.032v1.032h-1.032v-1.032z"></path>
</svg>
