<!-- Generated by IcoMoon.io -->
<svg version="1.1" xmlns="http://www.w3.org/2000/svg" width="32" height="32" viewBox="0 0 32 32">
<title>wifi</title>
<path d="M16 4.611c-6.044 0-11.726 2.354-16 6.628l2.44 2.44c3.622-3.622 8.438-5.617 13.56-5.617s9.938 1.995 13.56 5.617l2.44-2.44c-4.274-4.274-9.956-6.628-16-6.628z"></path>
<path d="M4.335 15.573l2.44 2.44c2.464-2.464 5.74-3.821 9.225-3.821s6.761 1.357 9.225 3.821l2.44-2.44c-3.116-3.116-7.259-4.832-11.665-4.832s-8.55 1.716-11.665 4.832z"></path>
<path d="M8.674 19.913l2.44 2.44c1.305-1.305 3.040-2.024 4.886-2.024s3.581 0.719 4.885 2.024l2.44-2.44c-1.957-1.957-4.559-3.035-7.326-3.035s-5.369 1.078-7.326 3.035z"></path>
<path d="M16 23.735c-0.897 0-1.793 0.342-2.478 1.026-0.024 0.024-0.046 0.049-0.069 0.073l2.547 2.555 2.553-2.547c-0.025-0.027-0.050-0.054-0.076-0.080-0.684-0.684-1.581-1.026-2.477-1.026z"></path>
</svg>
