<!-- Generated by IcoMoon.io -->
<svg version="1.1" xmlns="http://www.w3.org/2000/svg" width="32" height="32" viewBox="0 0 32 32">
<title>wine</title>
<path fill="#f0bc5e" d="M23.241 2.605h4.122v2.576h-4.122v-2.576z"></path>
<path fill="#f0bc5e" d="M8.816 2.605h4.122v2.576h-4.122v-2.576z"></path>
<path fill="#f0bc5e" d="M19.12 15.485h12.365v11.335h-12.365v-11.335z"></path>
<path fill="#000" d="M5.724 16c0 1.42 1.156 2.576 2.576 2.576h5.152c1.42 0 2.576-1.156 2.576-2.576v-1.546h1.030v-1.030h-12.365v1.030h1.030v1.546zM13.968 14.454h1.030v1.546c0 0.852-0.693 1.546-1.546 1.546h-5.152c-0.852 0-1.546-0.693-1.546-1.546v-1.546h7.213z"></path>
<path fill="#000" d="M30.305 11.049l-2.184-1.365c-0.152-0.095-0.243-0.259-0.243-0.437v-6.127h1.030v-3.091h-7.213v3.091h1.030v6.127c0 0.179-0.091 0.342-0.242 0.437l-2.184 1.365c-0.151 0.095-0.291 0.201-0.425 0.314h-2.372c-0.186-0.975-0.76-1.835-1.623-2.375l-2.184-1.365c-0.152-0.095-0.243-0.259-0.243-0.437v-4.066h1.030v-3.091h-7.213v3.091h1.030v4.066c0 0.179-0.091 0.342-0.242 0.437l-2.184 1.365c-0.864 0.54-1.437 1.4-1.623 2.375h-4.25l2.024 19.224c0.083 0.789 0.743 1.384 1.537 1.384h14.632c0.526 0 0.99-0.265 1.269-0.671 0.456 0.413 1.056 0.671 1.719 0.671h8.243c1.42 0 2.576-1.156 2.576-2.576v-15.289c0-1.251-0.634-2.394-1.695-3.058zM22.726 1.059h5.152v1.030h-5.152v-1.030zM8.3 1.059h5.152v1.030h-5.152v-1.030zM6.42 9.861l2.185-1.365c0.454-0.285 0.726-0.775 0.726-1.311v-4.066h3.091v4.066c0 0.536 0.271 1.026 0.726 1.311l2.184 1.365c0.559 0.349 0.95 0.886 1.118 1.502h-11.149c0.168-0.616 0.559-1.153 1.118-1.502zM1.145 12.394h17.892c-0.279 0.517-0.432 1.101-0.432 1.713v12.713h-15.942l-1.518-14.426zM18.192 30.941h-14.632c-0.264 0-0.484-0.198-0.512-0.462l-0.277-2.63h15.833v1.546c0 0.278 0.056 0.54 0.137 0.791l-0.037 0.294c-0.028 0.263-0.248 0.461-0.512 0.461zM30.97 29.395c0 0.852-0.693 1.546-1.546 1.546h-8.243c-0.852 0-1.546-0.693-1.546-1.546v-15.289c0-0.894 0.452-1.71 1.211-2.184l2.185-1.365c0.454-0.285 0.726-0.775 0.726-1.311v-6.127h3.091v6.127c0 0.536 0.271 1.026 0.726 1.311l2.184 1.365c0.758 0.474 1.211 1.291 1.211 2.184v15.289z"></path>
<path fill="#000" d="M3.664 24.759h6.182v1.030h-6.182v-1.030z"></path>
<path fill="#000" d="M10.877 24.759h1.030v1.030h-1.030v-1.030z"></path>
<path fill="#000" d="M20.665 17.546h5.152v1.030h-5.152v-1.030z"></path>
<path fill="#000" d="M26.848 17.546h1.030v1.030h-1.030v-1.030z"></path>
</svg>
