<!-- Generated by IcoMoon.io -->
<svg version="1.1" xmlns="http://www.w3.org/2000/svg" width="32" height="32" viewBox="0 0 32 32">
<title>youtube</title>
<path d="M30.64 7.12c-0.868-1.544-1.81-1.828-3.728-1.936-1.916-0.13-6.734-0.184-10.908-0.184-4.182 0-9.002 0.054-10.916 0.182-1.914 0.11-2.858 0.392-3.734 1.938-0.894 1.542-1.354 4.198-1.354 8.874 0 0.004 0 0.006 0 0.006 0 0.004 0 0.006 0 0.006v0.004c0 4.656 0.46 7.332 1.354 8.858 0.876 1.544 1.818 1.824 3.732 1.954 1.916 0.112 6.736 0.178 10.918 0.178 4.174 0 8.992-0.066 10.91-0.176 1.918-0.13 2.86-0.41 3.728-1.954 0.902-1.526 1.358-4.202 1.358-8.858 0 0 0-0.006 0-0.010 0 0 0-0.004 0-0.006 0-4.678-0.456-7.334-1.36-8.876zM12 22v-12l10 6-10 6z"></path>
</svg>
